<?xml version="1.0" encoding="UTF-8"?>
<svg id="_圖層_1" xmlns="http://www.w3.org/2000/svg" version="1.1" viewBox="0 0 161.92 145.72">
  <!-- Generator: Adobe Illustrator 29.5.1, SVG Export Plug-In . SVG Version: 2.1.0 Build 141)  -->
  <defs>
    <style>
      .st0 {
        fill: #ffc4c4;
      }

      .st1 {
        fill: #cc2722;
      }
    </style>
  </defs>
  <rect class="st0" x="-51.46" y="-47.29" width="258.73" height="258.73"/>
  <g>
    <path class="st1" d="M122.77,76.62l-13.97,47.99h-14.61l10.88-34.21h-14.71v-13.78h32.42,0Z"/>
    <g>
      <path class="st1" d="M23.71,69.21c-.03-.28-.06-.61-.09-.89-.72.48-1.52.24-2.18-.09-.16.25-.38.47-.65.61-.19.1-.4.17-.61.19-.03.46-.14.92-.49,1.28-.23.24-.53.39-.89.48.17.15.36.31.52.45,1,.87,1.74,1.52,2.01,2.02.81,1.5,2.37,2.3,3.13,2.62.23-.77.57-2.43-.22-3.9-.28-.52-.39-1.48-.51-2.78h-.02Z"/>
      <path class="st1" d="M11.49,62.14c5.59-1.08,4.73,3.49,7.27,2.29,2.62-1.23-1.02-2.58,2.19-6.88.58-.77-.48-1.64-.87-2.47-1.72-3.66-6.21-7.73-9.22-6.31-2.95,1.39-2.65,7.26-.92,10.93.43.92.46,2.65,1.55,2.44Z"/>
      <path class="st1" d="M33,65.59c-.49-.7-1.26-1.36-2.11-1.92-.64.8-1.41,1.56-2.31,2.19-.16.11-.32.21-.48.3-1.04.56-2.11.61-3.26.4.14.32.19.87.28,1.76.08.85.19,2.02.4,2.41.61,1.13.68,2.31.58,3.26.08.04.15.07.22.1,1.74.74,4.29.47,5.81-.59,1.03-.73,3.85-2.13,5.12-2.75-1.27-1.47-3.46-4.05-4.24-5.15h0Z"/>
      <path class="st1" d="M19.81,73.34c-.21-.39-1.12-1.17-1.79-1.75-.59-.51-.96-.83-1.18-1.09-.58,1.36-1.33,2.44-2.63,3.14-.17.09-.34.17-.52.25-.82.34-1.65.58-2.46.74.03.88.17,1.72.44,2.41.53,1.33,1.55,4.86,1.98,6.37.76-.45,2.12-1.25,3.32-1.9.71-.38,1.35-.71,1.79-.88,1.72-.69,3.34-2.67,3.68-4.53,0-.05.02-.11.02-.17-.89-.51-1.99-1.33-2.67-2.6h.02Z"/>
      <path class="st1" d="M20.77,63.4c-.12.02-.22-.06-.32-.14-.04-.03-.12-.1-.15-.1,0,0-.05.05-.1.36-.12.93-.06,1.27.41,1.45-.14.34-.43.66-.97.95-.07.04-.13.07-.21.1-.49.23-.89.28-1.23.22.1-.48-.15-.71-.99-1.12-.29-.14-.35-.11-.36-.11v.17c.01.12.03.25-.05.34-.68.76-1.29,1.86-.31,2.73.18.16.39.32.6.46.12-.31.29-.66.48-1.02.1-.19.18-.38.28-.58.69.98,1.85,1.4,2.73.93.92-.5,1.19-1.78.66-2.94.3.05.61.09.91.13.41.05.79.09,1.11.16,0-.26-.02-.52-.06-.76-.19-1.29-1.44-1.39-2.45-1.24h.02Z"/>
      <path class="st1" d="M12.89,73.27c1.59-.66,2.4-1.87,3.03-3.47-.05-.19-.03-.41.05-.66-.24-.16-.48-.34-.68-.52-.88-.78-.78-1.87.29-3.07v-.15c0-.08-.01-.16,0-.24,0,0-.01,0-.02-.02-.81-.93-1.72-1.97-4.65-1.41-1.23.24-1.58-1.04-1.82-1.89-.07-.27-.15-.51-.23-.72-.89-.02-1.83.21-2.86.84-3.91,2.39-5.23,10.87-5.23,10.87,0,0,6.29,2.85,12.12.43h0Z"/>
      <path class="st1" d="M28.33,64.56c3.85-2.7,4.94-7.88,5.16-9.25-1.41-.68-7.25-3.32-10.31-1.88-.8.38-1.33.87-1.7,1.44.06.11.12.23.18.34.1.2.25.42.41.66.43.63,1.03,1.48.41,2.31-1.47,1.97-1.4,3.2-1.23,4.18.06.03.12.07.17.12.04.03.11.09.13.09,1.58-.23,2.55.28,2.72,1.45.04.27.05.55.06.84,1.55.44,2.83.52,3.99-.3h.01Z"/>
    </g>
    <g>
      <path class="st1" d="M9.9,102.35c.09-.15.2-.33.28-.49-.54-.02-.86-.44-1.07-.85-.18.07-.36.1-.56.07-.14-.02-.27-.06-.38-.13-.18.22-.42.42-.72.47-.2.03-.41,0-.63-.09.03.14.07.29.1.42.19.81.32,1.41.27,1.77-.15,1.06.34,2.04.61,2.49.4-.3,1.19-1.02,1.34-2.05.05-.37.35-.9.77-1.6h0Z"/>
      <path class="st1" d="M6.34,94.24c3.23,1.53,1.1,3.52,2.83,3.86,1.78.35.44-1.68,3.66-2.67.58-.18.37-1.01.48-1.57.49-2.49-.28-6.22-2.32-6.62-2.01-.39-4.03,2.7-4.52,5.19-.12.62-.75,1.51-.12,1.81h0Z"/>
      <path class="st1" d="M15.95,103.96c0-.53-.13-1.16-.36-1.76-.62.17-1.29.27-1.99.25-.12,0-.24-.01-.35-.03-.73-.1-1.29-.47-1.8-1.01-.05.21-.23.51-.51.99-.27.46-.65,1.1-.69,1.37-.11.8-.51,1.42-.92,1.86.02.05.05.09.07.14.61,1.02,2,1.83,3.16,1.85.8.01,2.74.35,3.62.51-.1-1.22-.25-3.33-.24-4.18h.01Z"/>
      <path class="st1" d="M6.4,103c.04-.27-.13-1.01-.26-1.55-.11-.47-.18-.78-.19-.99-.8.47-1.58.74-2.5.62-.12-.02-.24-.04-.36-.07-.54-.13-1.05-.32-1.52-.54-.31.46-.55.94-.67,1.38-.23.87-1.02,3.04-1.36,3.96.55.05,1.54.15,2.39.27.5.07.95.14,1.23.22,1.13.29,2.68-.11,3.55-.93.02-.02.05-.05.07-.08-.26-.59-.51-1.41-.39-2.3h.01Z"/>
      <path class="st1" d="M10.57,98.32c-.07-.03-.09-.11-.11-.19,0-.03-.02-.09-.04-.1,0,0-.04,0-.18.14-.41.43-.5.62-.33.88-.2.12-.46.18-.84.12-.05,0-.09-.01-.14-.02-.33-.06-.55-.19-.71-.35.23-.21.19-.42-.09-.93-.09-.18-.14-.19-.14-.19-.01,0-.04.06-.06.09-.04.07-.08.14-.15.15-.63.13-1.34.46-1.17,1.26.03.15.08.3.13.46.18-.11.39-.22.62-.34.12-.06.23-.13.35-.19-.01.75.42,1.4,1.04,1.48.65.09,1.26-.46,1.43-1.25.13.14.27.27.41.4.19.17.37.34.5.5.09-.13.18-.27.25-.4.38-.72-.21-1.23-.78-1.54v.02Z"/>
      <path class="st1" d="M2.92,100.39c1.05.25,1.91-.06,2.82-.63.04-.11.14-.22.27-.32-.06-.17-.12-.35-.15-.52-.15-.72.3-1.24,1.29-1.45.01,0,.04-.05.05-.08.02-.04.05-.09.09-.12v-.02c-.06-.77-.14-1.64-1.83-2.44-.71-.34-.42-1.11-.22-1.63.06-.16.12-.31.15-.45-.44-.34-1-.57-1.76-.64-2.87-.24-6.68,3.56-6.68,3.56,0,0,2.13,3.78,5.98,4.71v.03Z"/>
      <path class="st1" d="M13.97,101.71c2.95.06,5.42-2.16,6.04-2.77-.46-.87-2.44-4.37-4.52-4.77-.55-.1-.99-.06-1.39.1-.01.08-.02.16-.04.24-.03.14-.03.31-.04.49-.01.48-.03,1.13-.65,1.32-1.48.45-1.9,1.1-2.17,1.66.02.04.03.08.04.12,0,.03.02.08.03.09.89.47,1.19,1.09.84,1.74-.08.15-.18.3-.28.45.62.8,1.24,1.31,2.13,1.33h.01Z"/>
    </g>
    <path class="st1" d="M150.52,68.13c-2.97-2.15,6.28-2.51,6.28-2.51,0,0-15.13-3.87-13.41-9.9.52-1.81,8.08-1.83,7.88-3.64-.03-.22-25.74-9.86-12.41-9.26,8.36.38-20.15-4.2-8.14-9.76.47-.22-16.69-.66-16.69-.66,0,0,13.11,8.03,20.07,19.26,12.96,20.92,12.24,42.9,12.27,42.68,0-.09,2.25-6.5,2.25-6.5,0,0,1.86-5.18,3.08-7.33,4.09-7.19,7.08-1.47,7.16-1.89.08-.44-7.24-9.7-8.34-10.49h0Z"/>
    <path class="st1" d="M96.39,60.23c.38-2.74,3.73-3.09,5.53-3.27.1,0,.18-.05.25-.12l.13-.13.18-.03c.06-.02.19-.11.27-.19l.04-.18c.02-.09.03-.16.04-.21.09-.66,0-1.17-.29-1.61-.39-.6-1.07-1-1.91-1.13l-.56-.09.12-.56c.07-.33.37-.49.47-.54.17-.09.44-.18.76-.27-1.07-.85-2.43-1.36-3.9-1.36-3.47,0-6.29,2.81-6.29,6.29,0,1.89.84,3.58,2.15,4.73.68-.53,1.89-1.2,2.73-1.11.09,0,.26-.13.29-.21h-.01Z"/>
    <path class="st1" d="M106.18,61.24l1.24.82c2.06,1.66,3.67,2.18,5.02,2.72,1.13.11,5.55.48,8.02,2.2,1.27.88,3.11,2.16,3.92,2.3-.08-.63-.62-2.13-1-3.16-.79-2.17-1.15-3.28-1.05-3.91-1.84-1.6-2.92-3.14-5.39-2.98-.41.03-3.98,1.12-4.1,1.16,0,0-3.46-.71-5.07-1.17-.65-.19-1.05-.74-1.03-1.39-.37-.37-.75-.84-.54-1.65.04-.13.08-.27.14-.42,0-.27.04-.57.11-.92v-.06c.24-1.21.31-1.57-.69-1.99-.72-.3-2.3-.19-3.44,0,.02.02.04.05.06.07.42.27.78.61,1.05,1.02.43.66.58,1.43.46,2.34,0,.04-.01.09-.03.16.02.14,0,.29-.06.43,0,0-.01.02-.02.03-.15.33-.54.71-.96.85-.22.19-.5.3-.79.33-2.09.21-4.33.59-4.58,2.35-.09.63-.81,1.19-1.46,1.13-.33-.03-.9.22-1.38.5.19.03.38.06.57.09.89.15,1.79.38,2.45.98.2-.1.34-.24.41-.4.06-.12.1-.24.15-.36.13-.36.27-.74.6-1,.35-.29.91-.41,1.5-.52l2.24-.42"/>
    <path class="st1" d="M103.87,58.05l-1.99,1.11c-.06.03-.1.05-.13.08-.04.03-.09.07-.13.11-.1.14-.18.29-.27.44-.42.75-.72,1.62-.92,2.26-.14.45-.56.79-1.12.91-.07,0-.38.06-.77.12-.24.04-.59.09-.94.14.09.06.17.12.26.18.22.15.43.3.64.46l.26.2c.7.54,1.05.82,1.24.99h0c.67-.08.87-.45,1.22-1.2.08-.18.17-.36.26-.54.3-.55,1.09-1.71,1.99-2.17.08-.04.15-.08.23-.11h.03s.05-.04.08-.06c.08-.05.17-.11.24-.15.31-.17.68-.2,1.04-.07"/>
    <path class="st1" d="M102.29,52.8s.06.04.1.06c-.02-.02-.04-.05-.06-.07h-.04Z"/>
    <path class="st1" d="M111.55,32.27c-.49-2.72-1.91-5.19-3.98-6.98,1.97-1.48,4.79-4.28,4.49-4.88-.43-.88-6.8.29-8.09.9-.8.38-1.54.8-2.22,1.22l-3.31-.81,3.56-3.17c.16.03.33.03.5,0l7.16-1.52c.66-.14,1.08-.78.94-1.43l-.02-.1c-.14-.65-.79-1.06-1.45-.92l-3.5.74,3.68-3.28c.67-.6.72-1.62.11-2.28-.61-.66-1.65-.71-2.32-.11l-12.5,11.13-2.9-.71c-6.38-.78-9.12,5.42-14.44,8.06-.01,0-.02.02-.03.02,0,0-9.7.18-10.46,3.16l-.5,1.95c-.08.32-.32.81-.34,1.13.08.02,13.27,3.51,16.7,3.46,2.28-.03-5.11.65-9.53,1.61-2.1.57-1.62.47-2.1.57-.67.25-1.06.5-.98.76,0,0,5.79,5.35,9.02,4.54,5.31-1.33,6.62,4.39,6.3,2.63-.93-5.04,6.4,2.56,5.99,1.12-.8-2.84,10.04,3.42,4.92-1.04-.02-.02.04-.05.05-.07,21.61-.39,38.47,35.85,28.51,60.94-11.12,28.01-46.55,38.32-74.1,25.19-9.99-4.77-17.87-12.09-23.21-20.78.12.31.24.62.37.93,1.02,2.47,2.23,4.84,3.71,7.07.64.96-.16.43-.8-.54-3.6-5.45-6.7-9.53-8.42-15.75-.17.21-1.14-.5-1.24-.98-.67-3.33.15-1.33-.75-4.62.34,22.63,12.28,38.78,34.43,49.34,30.84,14.7,68.4,2.23,83.81-27.84,15.36-29.98,2.56-72.41-27.06-88.67h0ZM69.91,31.33c-.6.11-1.15-.12-1.22-.51-.08-.4.34-.81.94-.92.6-.11,1.15.12,1.22.51.08.4-.34.81-.94.92ZM100.72,25.6s9.15-4.26,9.17-4.22l.02.05-9.05,4.46c-.06.03-.23-.03-.25-.07-.02-.04.05-.19.11-.21h0ZM90.09,27.77c0,.82.21,1.47.45,1.47s.45-.68.45-1.51v-.29l3.56-1.31c.02.06.03.11.05.17.33,1.6-.69,3.16-2.29,3.5-1.37.29-2.71-.42-3.28-1.63l1.06-.39h0ZM109.25,38.87c.07-2.55-2.85-3.08-4.89-2.9-2.91.26-5.66,1.5-8.31,2.61-1.66.69-4.58,1.91-6.08.23-.52-.59-.62-1.37-.68-2.12-.07-.81.05-2.06-.77-2.54-.51-.3-.04-1.08.46-.78,1.53.9.95,2.85,1.37,4.26.65,2.19,4.16.62,5.47.07,2.12-.89,4.26-1.8,6.52-2.3,1.8-.4,3.79-.61,5.53.12,1.43.6,2.33,1.81,2.29,3.36-.01.58-.93.58-.92,0h0Z"/>
    <path class="st1" d="M89.67,112.67h-9.27l6.86-13.33c1.22-2.34,1.84-4.91,1.84-7.63,0-4.76-1.68-8.86-5-12.19-3.32-3.32-7.4-5.01-12.14-5.01s-8.79,1.7-12.12,5.06-5.02,7.46-5.02,12.17c0,3.04.71,5.86,2.13,8.36,1.26,2.25,3.04,4.16,5.29,5.71l5.84-10.39c-.77-.91-1.15-1.93-1.15-3.03,0-1.19.44-2.24,1.32-3.11s1.92-1.32,3.11-1.32c3.96,0,4.55,2.51,4.55,4.01,0,.96-.27,1.95-.8,2.92l-.57,1.06-15.94,29.87h31.08v-13.15h0Z"/>
    <polygon class="st1" points="62.04 123.53 61.86 123.86 62.11 123.86 62.04 123.53"/>
    <path class="st1" d="M62.94,127.78h-7.61l5.45-10.22-2.19-10.38c-.21-.99-.54-1.72-.92-2.09l.16-.48c-1.01-1.08-1.88-2.26-2.6-3.54-1.58-2.8-2.38-5.94-2.38-9.32,0-5.25,1.88-9.81,5.59-13.55,1.19-1.2,2.46-2.21,3.82-3.03-.25-.75-.72-1.28-1.29-1.28h-1.99l3.37-10.05c.58-1.72-.14-3.86-1.3-3.86h-2.19l3.4-10.15c.58-1.72-.14-3.86-1.3-3.86h-3.11c.26-.17.43-.47.43-.8v-4.96c0-.53-.43-.97-.97-.97h-3.33v-9.37c0-.53-.43-.97-.97-.97h-1.92v-12.23h-1.13v12.21h-1.92c-.53,0-.97.43-.97.97v9.37h-3.33c-.53,0-.97.43-.97.97v4.96c0,.33.17.63.43.8h-3.28c-1.15,0-1.87,2.15-1.3,3.86l3.4,10.15h-2.03c-1.15,0-1.87,2.15-1.3,3.86l3.37,10.05h-2.16c-1.15,0-1.87,2.15-1.3,3.86l3.28,9.78h-1.98c-1.15,0-1.87,2.15-1.3,3.86l4.59,13.69c-.38.38-.71,1.1-.92,2.09l-3.98,18.86c3.65,3.15,7.78,5.88,12.37,8.06,4.35,2.08,8.9,3.56,13.52,4.49.29-1.39.33-3.16,0-4.74l-1.28-6.08.04.04Z"/>
  </g>
</svg>