<?xml version="1.0" encoding="UTF-8"?>
<svg id="_圖層_1" data-name="圖層 1" xmlns="http://www.w3.org/2000/svg" viewBox="0 0 236.41 236.41">
  <defs>
    <style>
      .cls-1 {
        fill: #fff;
      }

      .cls-2 {
        fill: #1b4499;
      }
    </style>
  </defs>
  <rect class="cls-2" width="236.41" height="236.41"/>
  <g>
    <g>
      <path class="cls-1" d="M46.88,118.36h-.38c-.47-.11-.94-.23-1.41-.34-.47-.12-.93-.26-1.37-.42l.02-1h.19s2.04.56,2.04.56v-.23c-.11-.7-.2-1.41-.28-2.12s-.09-1.44-.06-2.18h.19c.03.8.1,1.59.2,2.36.1.77.23,1.53.4,2.28l.49.09-.02,1ZM47.47,122.63h-.19c-.09-.5-.18-.99-.27-1.48-.09-.49-.11-1-.05-1.55h.19c.07.5.16,1,.26,1.49s.13,1.01.06,1.55ZM53.84,115.03h-.19c-.42-.23-.86-.42-1.33-.55v.26c.06.45.11.91.14,1.37.03.46.03.93,0,1.4,0,.37-.14.68-.39.93-.38.27-.82.37-1.32.28l-.37-.04v.81s-.2,0-.2,0l-.09-.93c-.38-.11-.75-.24-1.11-.39-.36-.15-.69-.34-1.01-.58-.27-.53-.48-1.08-.61-1.66-.14-.57-.17-1.18-.09-1.83.04-.27.14-.52.31-.74l.15-.15c.25-.17.53-.27.84-.32.31-.05.64-.05.99-.02v-.86s.2,0,.2,0l.02.9c.35,0,.69.05,1.03.13.34.08.68.15,1.03.2v-.52s.19,0,.19,0l.11.61c.6.16,1.16.38,1.7.66l-.02,1.05ZM49.79,116.35h-.27s-1.12-.14-1.12-.14l.02-1.05h.44s.82.14.82.14v-.22s-.09-1.13-.09-1.13l-.85-.05c-.35.07-.68.22-.99.44l-.23.59c.16.58.41,1.12.75,1.62l.12.04.03.19c.47.26.95.47,1.45.63v-.27s-.09-.78-.09-.78ZM53.25,121.57h-.34c-.52-.17-1.05-.33-1.56-.48-.52-.16-1.05-.28-1.6-.36l-.19.08v.1c.14.33.27.66.37,1s.13.71.08,1.1h-.19c-.27-.46-.45-.93-.54-1.43-.09-.5-.11-1.03-.05-1.61.15-.25.4-.34.75-.29.57.11,1.13.25,1.66.41.53.16,1.07.33,1.62.51l-.02.98ZM51.95,114.36h-.12c-.32-.1-.65-.18-.97-.23-.32-.06-.64-.11-.97-.17v.49s.09.9.09.9l1.6.18-.02,1.01h-.52s-.93-.11-.93-.11v.15s.12.97.12.97c.32.11.69.15,1.09.13l.52-.21.12-.15h.08s.2-.71.2-.71l-.3-2.25Z"/>
      <path class="cls-1" d="M54.18,106.13l-.36-.08-1.18-.53c-.07.44-.17.87-.29,1.28-.12.41-.34.74-.68.99-.52.27-1.08.3-1.67.09l-.6-.25-.21.8-.18-.04.05-.94c-.32-.17-.62-.38-.91-.61-.29-.23-.58-.47-.86-.7l.19-1.03.18.04c.23.23.47.44.72.64.25.2.53.37.83.51l.07-.33c.07-.45.13-.9.2-1.35.07-.45.15-.91.25-1.37l.06-.11.18.04-.03.11c.43.14.85.31,1.25.49.4.18.82.36,1.24.52l.02-.07c0-.46.06-.93.19-1.41l.15.03c.04.52.04,1.06.02,1.61l1.57.73-.21.94ZM55.81,101.68l-.18-.04c-.33-.45-.71-.88-1.13-1.29-.3-.24-.61-.46-.95-.67-.34-.2-.72-.34-1.13-.41l-.06.28c-.06.58-.1,1.16-.13,1.75-.03.59-.12,1.19-.28,1.79l-.18-.04.33-3.75-.11-.03c-.28.1-.5.27-.68.5l-.27,1.05-.18-.04-.22-.24.02-.07-.33-.38v-.12s-.23-.2-.23-.2l-.02-.11c-.34-.41-.74-.73-1.19-.96l-.25.06c-.27.16-.41.41-.43.74,0,.51.03,1,.13,1.48.1.48.04,1-.16,1.54l-.18-.04c-.14-.64-.19-1.29-.17-1.95.02-.66.13-1.34.33-2.03.1-.31.27-.57.52-.77.2-.08.42-.09.66,0,.45.25.85.61,1.18,1.07v.11s.2.16.2.16v.11s.2.16.2.16l.19.23c.03-.5.23-.89.6-1.17l.58-.18.15-.69.18.04-.1.63c.66.12,1.24.35,1.74.69.5.34.95.73,1.36,1.18v.12s.3.26.3.26l.14.22-.22.99ZM52.38,105.44l-2.62-1.12-.03.14-.19,2.07c.35.23.77.38,1.23.46.33.03.64-.03.92-.18.4-.32.64-.76.71-1.33l-.03-.04Z"/>
      <path class="cls-1" d="M54.53,93.61l-.06.05-.41-.19c-.3-.35-.58-.73-.84-1.15-.26-.41-.52-.83-.77-1.24l-.27-.46-.05.11c-.08.35-.17.7-.28,1.06s-.26.71-.45,1.06l-.17-.08c.09-.44.22-.89.37-1.34.15-.45.27-.91.34-1.37l-.15-.28.03-.07-.23-.31v-.11s-.23-.37-.23-.37l-.42-.98.03-.06-.15-.2-.24-.64.42-.92.17.08.31.68.11.29-.03.06.15.2.17.36.18.42-.03.07.22.31v.11s.24.28.24.28l.11-.23,1.35-3.38.98-2.14.13.06c-.41,1.02-.83,2.04-1.26,3.06-.43,1.02-.82,2.05-1.15,3.07.3.55.61,1.1.93,1.64.32.55.7,1.04,1.12,1.49l.19-.4.17.08c-.07.45-.24.91-.5,1.37ZM60.78,89.59l-.13-.06c-.29-.33-.59-.66-.9-.98s-.63-.61-.97-.88l-.05.11c-.18.55-.34,1.1-.49,1.64-.15.54-.37,1.08-.64,1.62l-.17-.08c.18-.57.35-1.14.52-1.71.17-.56.4-1.14.69-1.72-.24-.2-.49-.38-.76-.55-.26-.17-.55-.32-.85-.43-.34-.1-.68-.11-1.02-.02-.23.09-.39.23-.48.43-.09.48-.09.96-.03,1.43.07.47.05.94-.06,1.42l.64.46.08-.17.22-1.09.63-1.36.22-.11.34.16.14.23-.41.89-.2-.09-.18-.17-.11.24c-.01.57-.16,1.13-.44,1.68l2.19,1.22-.41.89-.63-.25c-.62-.31-1.2-.66-1.76-1.04-.56-.38-1.1-.76-1.63-1.14l.44-.95.31.14.05-.11c-.08-.61-.04-1.22.1-1.84l.63-1.36.55-.48h.11s.12-.06.12-.06c.51-.04,1.01.07,1.49.32.62.37,1.2.8,1.74,1.28s1.03.99,1.49,1.53l-.41.97Z"/>
      <path class="cls-1" d="M61.92,81.31l-.63.65-.26-.2c-.49-.68-.93-1.4-1.31-2.18-.38-.77-.73-1.56-1.04-2.35l.11-.15.57-.65.12.09c.33.84.69,1.66,1.07,2.46.38.8.87,1.54,1.46,2.2l-.09.12ZM62.11,76.82l-.34.4-.5-.34c-.51-.57-.97-1.16-1.37-1.77-.41-.62-.81-1.25-1.2-1.89l.15-.2.54-.58.12.09c.38.69.79,1.36,1.21,1.99.43.63.93,1.23,1.51,1.79l.2.1-.31.42ZM64.62,81.32l-.48.53-.87-.65-2.25-1.79.43-.57.23-.25.84.63v.06l1.19.89,1.11.88-.2.27ZM65,73.66l-.32.37-.15-.11c-.12-.47-.32-.87-.62-1.22l-.31.1c-.21.36-.39.73-.54,1.11-.14.38-.34.75-.59,1.13l-.38.45-.08-.06-.04-.08c.19-.45.38-.91.59-1.38.21-.47.49-.91.83-1.33.26-.34.55-.62.87-.85.22,0,.41.1.58.29.2.35.36.72.47,1.11l-.31.47ZM65.78,78.59l-.74.81-.38-.24c-.25-.25-.48-.52-.7-.79-.22-.27-.42-.55-.6-.84l.09-.12.59-.67.07.05c.18.29.38.57.61.85.23.28.47.55.74.82l.18-.24.15.11.03.21h-.05s0,.06,0,.06ZM67.19,77.4l-.34.31-.42-.31-2.59-2.09.47-.62.2-.19.89.67,2.12,1.78-.34.45ZM68.71,74.25l-.59.59c-.35-.02-.7-.06-1.05-.12-.35-.06-.69-.16-1.01-.31l.18-.24.46-.54c.34.07.7.14,1.06.19.37.06.73.14,1.08.25l-.13.18Z"/>
      <path class="cls-1" d="M72.56,72.56l-.15-.17-1-1.88.76-.66.24.28.91,1.75-.76.66Z"/>
      <path class="cls-1" d="M80.07,57.22l-.85.39-.09-.16,1.91-1.23.62-.27.07.13-1.67,1.14ZM82.69,63.12l-.61.3-.09-.16c-.07-.73-.09-1.47-.07-2.2.02-.74-.05-1.46-.22-2.16l-.12.07c-.29.36-.63.67-1.02.95l-.58.27-.09-.16c.23-.27.45-.52.68-.75.22-.23.5-.44.84-.63.35-.23.72-.36,1.1-.39l.28.44c.11.7.16,1.41.15,2.13,0,.72.01,1.43.04,2.15l-.3.16ZM83.24,56.24l-.28.12c-.47-.34-.85-.77-1.14-1.3l.23-.13.69-.29c.34.46.72.88,1.12,1.26l-.62.34ZM83.3,52.96c-.26.14-.49.21-.69.21,0-.15.09-.26.24-.34.25-.28.49-.57.74-.88.25-.31.57-.54.96-.7l.31-.13.07.13c-.27.29-.52.59-.77.89-.24.3-.53.58-.86.82ZM88.61,60.79l-.48.22-.82-1.48-.06.03c-.33.33-.71.6-1.12.83l-.54.26-.09-.16,1.63-1.29-.54-.98-.27-.41-.16.09c-.25.23-.5.45-.76.68-.26.23-.53.43-.83.62l-.7.3-.09-.16,2.3-1.87-.25-.46-.36-.49.59-.33.35-.14.5.75.13-.07,1.23-.85-.15-.26c-.23-.25-.48-.43-.77-.56-.37-.05-.73.03-1.06.25-.4.3-.75.63-1.05,1-.3.36-.65.69-1.06.98l-.45.2-.09-.16c.36-.48.77-.93,1.22-1.35.45-.42.98-.77,1.6-1.06.31-.17.61-.3.92-.38.31-.09.63-.08.97.03.37.16.66.44.85.85l1.01-.48.09.16-.59.33-.4.18c.24.55.44,1.11.59,1.68l-.52.29-.37.17-.15-.26-.42-1.3-.3.16-1.02.78.39.71.45.74.36-.2.78-.47.4-.18.09.16-1.45,1.01.88,1.66-.43.24ZM85.69,54.04c-.41.23-.82.38-1.23.47-.3-.13-.53-.36-.69-.7l-.08-.25.52-.29.4-.18.03.06.21.44.34.29.89-.41.09.16c-.11.17-.27.31-.47.39ZM87.17,53.94l-.41.19-.09-.16-.43-2.41.71-.39.22-.08.11.19.38,2.4-.49.27Z"/>
      <path class="cls-1" d="M94.41,53.46l-.05-.18c1.32-.53,2.64-1.06,3.95-1.6,1.31-.54,2.64-1.04,3.98-1.49l.05.18c-1.33.51-2.65,1.04-3.95,1.6-1.3.56-2.63,1.06-3.98,1.49Z"/>
      <path class="cls-1" d="M109.74,53.33l-.53-.03-.03-.38.03-.04-.12-1.52-.05-1.27h-.08c-.23.59-.39,1.19-.49,1.8h.07s.01.18.01.18l-.48.09-.63-.03-.04-.44c.24-.95.55-1.88.91-2.81.37-.93.76-1.85,1.19-2.76l.18-.05h.9s0,.08,0,.08c-.25.55-.49,1.1-.73,1.66-.23.56-.45,1.11-.65,1.68l.78-.03.14,1.27-.03.04.12,1.57.04.97-.52.04ZM111.87,49.04h-.86s-.04-.52-.04-.52c.16-.77.39-1.52.67-2.25.28-.73.58-1.46.89-2.19l.55-.08h.52s0,.07,0,.07c-.34.75-.66,1.51-.96,2.29-.3.78-.52,1.58-.65,2.4l.09.26-.22.02ZM117.17,52.59h-.59s-.02-.25-.02-.25c.15-.58.17-1.19.08-1.84-.11-.41-.31-.77-.61-1.07-.24-.18-.51-.29-.81-.31-.45.08-.86.24-1.24.47-.38.23-.63.38-.73.43l-1.07.05v-.19c.44-.29.91-.52,1.41-.71.5-.19,1.03-.3,1.61-.32.64-.1,1.22,0,1.74.28l.5.56c.21.48.32,1.03.32,1.66l-.17,1.22-.41.03ZM114.06,53.02c-.37.05-.71.02-1.01-.11l-.04-.44.54-2.14.34-.03.71-.02v.19c-.11.36-.23.73-.34,1.1-.11.37-.17.76-.18,1.16l.19.05v.19s-.21.05-.21.05ZM118.09,47.72h-.59s-.36-.3-.36-.3l-.24-.2-.24-.17c-.4-.32-.82-.6-1.27-.83h-.07s-.01-.18-.01-.18l1.13-.09.54.37,1.23.92.16.13.13.11.02.22-.42.03Z"/>
      <path class="cls-1" d="M121.91,52.25l-.09-.08.05-.71c.18-.45.38-.9.59-1.34.21-.44.44-.87.7-1.29l1,.1.02.19c-.29.46-.55.94-.79,1.42-.24.49-.42,1.01-.55,1.57l.45.06-.02.15c-.44.04-.89.01-1.35-.07ZM126.49,52.97l-.45-.25-.37-.66c-.13-.59-.17-1.19-.14-1.82.03-.63.09-1.26.18-1.9l.12-.41.96.13.02.19-.05.04-.2,1.55c0,.48,0,.95.03,1.42.02.47.17.91.45,1.32.11.14.25.21.43.21.56-.1,1.1-.26,1.62-.48.52-.22,1.08-.26,1.7-.11l-.03.2c-.67.26-1.35.47-2.05.63-.7.16-1.44.14-2.22-.06ZM131.32,51.52v-.07s-.23-1.62-.23-1.62l-.15-.02c-.3.13-.63.18-.99.13-.36-.05-.71-.09-1.06-.14-.16-.09-.27-.24-.32-.45-.02-.38-.01-.76.02-1.14.03-.38.08-.77.13-1.17l.11-.51-.02-.23,1.04.14-.28,2.11.11.95.18.06c.34-.17.72-.21,1.14-.11l.02-.15-.04-1.13,1,.13c.02.58.06,1.15.13,1.7.07.55.13,1.1.18,1.66l-1-.13Z"/>
      <path class="cls-1" d="M136.18,55.79l-.4-.36c-.15-.38-.15-.77,0-1.17.19-.44.49-.79.9-1.05.3-.14.63-.18.97-.12.34.07.69.16,1.04.29l.44.36v.27s-1-.3-1-.3l-.15-.15c-.3.06-.57.2-.79.42-.23.25-.39.54-.49.87l.04.52.07.06.08.22.11.03c.36-.08.68-.23.95-.46.13-.15.21-.32.24-.51l.03-.38,1,.3-.17.84c-.12.2-.28.36-.5.48-.37.2-.76.25-1.17.17-.41-.08-.8-.19-1.2-.34Z"/>
      <path class="cls-1" d="M159.45,67.77l.07-.09.55-.75-.09-.07c-.47-.08-.92-.23-1.34-.45-.43-.22-.83-.52-1.21-.88-.23-.24-.39-.51-.5-.82l.04-.1-.07-.16.04-.1-.04-.14c.02-.46.14-.89.37-1.28.23-.39.51-.78.83-1.15.38-.36.78-.67,1.21-.93.42-.26.88-.46,1.37-.61l.12.04.22-.11.47-.06c.38,0,.74.05,1.08.11.34.07.68.18,1,.33l1.32,1.03.32.63c0,.37-.14.7-.4,1l-.8-.62c.21-.27.3-.58.26-.94-.03-.21-.13-.37-.32-.49-.54-.2-1.11-.29-1.69-.28l-.31.04-.05-.04-.24.11c-.36.06-.72.16-1.08.29-.45.21-.86.48-1.24.8-.38.32-.73.71-1.04,1.15-.33.5-.49,1.05-.49,1.66l.06.15-.03.11c.08.25.23.46.45.63.39.15.78.25,1.17.32.39.07.79.14,1.2.22l1.06-1.17-.21-.17c-.47-.24-.93-.56-1.38-.95l.11-.15,1.55.93,1.73,1.36-.11.15-.79-.62c-.41.44-.81.88-1.2,1.31-.39.44-.77.89-1.14,1.37l-.8-.62Z"/>
      <path class="cls-1" d="M166.13,73.21l-.66-.69,6.38-6.09.66.69-6.38,6.09Z"/>
      <path class="cls-1" d="M171.5,79.64l-.59-.75.73-.57v-.02c-.83.11-1.49-.15-1.99-.79-.36-.47-.53-.93-.48-1.39s.27-.85.68-1.17c.88-.68,1.79-.56,2.74.36l1.29,1.26c.8-.62.95-1.26.45-1.9-.44-.57-1.03-.93-1.77-1.08l.77-.6c.65.23,1.22.65,1.68,1.26.86,1.11.7,2.11-.46,3.02l-3.06,2.38ZM173.29,77.04l-1.04-1.01c-.32-.31-.61-.51-.87-.59-.26-.08-.55,0-.87.25-.23.18-.35.41-.37.68-.02.28.08.55.29.82.29.37.66.58,1.11.62.45.04.88-.1,1.28-.41l.47-.36Z"/>
      <path class="cls-1" d="M176.28,87.26l-.48-.82.87-.51v-.02c-.9,0-1.57-.39-2.04-1.19-.38-.65-.45-1.3-.22-1.95.23-.66.75-1.22,1.54-1.68.85-.5,1.66-.68,2.42-.55.76.13,1.35.55,1.77,1.26.41.71.44,1.38.07,2.03v.02s3.2-1.86,3.2-1.86l.48.82-7.62,4.45ZM178.12,85.08l.76-.44c.42-.24.69-.59.81-1.03.13-.44.07-.88-.18-1.3-.29-.5-.71-.79-1.25-.86-.54-.07-1.13.08-1.78.46-.59.35-.98.76-1.16,1.24-.18.48-.14.95.14,1.41.27.46.65.73,1.15.83s1,0,1.51-.3Z"/>
      <path class="cls-1" d="M180.8,97.79c-.19-.17-.35-.43-.47-.78-.35-.98.03-1.67,1.12-2.06l3.32-1.18-.34-.97.77-.27.34.97,1.37-.49.61.8-1.66.59.5,1.42-.77.27-.5-1.42-3.17,1.12c-.38.13-.62.29-.74.48-.12.19-.12.43-.02.72.08.23.21.4.39.52l-.77.27Z"/>
      <path class="cls-1" d="M182.13,103.45c-.2-.86-.08-1.61.35-2.24.43-.64,1.09-1.06,1.98-1.26.98-.22,1.8-.13,2.47.28s1.11,1.07,1.32,1.97c.2.87.08,1.6-.34,2.21-.42.61-1.11,1.02-2.05,1.24-.93.21-1.73.12-2.41-.28-.68-.4-1.12-1.04-1.32-1.92ZM187.45,102.31c-.14-.6-.45-1.02-.93-1.28-.49-.26-1.09-.3-1.8-.14-.69.16-1.19.46-1.51.9s-.41.96-.27,1.55c.14.6.44,1.02.9,1.25.46.23,1.05.27,1.77.11.73-.17,1.25-.45,1.57-.87.32-.41.41-.92.27-1.52Z"/>
      <path class="cls-1" d="M183.95,119.47l-.02-.95,3.43-.06c1.24-.02,1.85-.49,1.84-1.42,0-.47-.19-.85-.56-1.17-.36-.31-.83-.46-1.39-.45l-3.37.06-.02-.95,8.82-.15.02.95-3.85.07v.02c.76.44,1.15,1.09,1.16,1.94.02,1.34-.77,2.03-2.39,2.06l-3.67.06Z"/>
      <path class="cls-1" d="M183.26,127.62l.11-.95.93.1v-.02c-.66-.49-.95-1.14-.86-1.94.07-.59.27-1.03.62-1.33.35-.3.78-.42,1.3-.36,1.11.12,1.68.85,1.71,2.17l.05,1.8c1.01.11,1.55-.24,1.65-1.05.08-.71-.09-1.38-.51-2.01l.97.11c.3.62.42,1.32.33,2.07-.16,1.39-.97,2.01-2.44,1.84l-3.85-.43ZM186.36,127.01l-.04-1.45c-.01-.45-.08-.79-.22-1.03-.13-.24-.4-.38-.79-.43-.29-.03-.54.04-.74.23-.21.19-.33.45-.37.79-.05.47.07.88.36,1.22.3.34.7.54,1.2.6l.59.07Z"/>
      <path class="cls-1" d="M187.28,137.43l-5.25-3.69.22-.91,6.32-.81-.24,1.02-4.56.47c-.34.04-.62.04-.86.01v.02c.28.11.52.23.74.37l3.87,2.55-.23.98Z"/>
      <path class="cls-1" d="M181.43,144.44l1.47-3.94c-.63-.22-1.17-.23-1.63-.04-.46.19-.79.57-1,1.13-.24.63-.24,1.28-.03,1.97l-.84-.31c-.17-.62-.11-1.34.19-2.15.29-.79.78-1.31,1.46-1.57s1.47-.22,2.39.12c.87.32,1.48.84,1.85,1.53.36.7.41,1.41.13,2.14-.27.73-.72,1.21-1.34,1.43-.62.22-1.35.18-2.19-.14l-.47-.18ZM182.53,143.81c.52.19.97.22,1.34.08.38-.14.65-.42.81-.86.16-.42.14-.84-.05-1.24s-.52-.74-.98-.99l-1.13,3.01Z"/>
      <path class="cls-1" d="M177.77,157.98l-4.44-5.97c-.79-1.06-.96-1.97-.49-2.73.13-.21.26-.37.39-.49l.73.45c-.17.14-.3.28-.39.43-.25.41-.2.87.16,1.37l.71,1,6.28,1.14-.56.9-4.75-1.04c-.06-.01-.21-.06-.45-.13l-.02.03c.07.07.17.18.32.33l3.02,3.86-.52.84Z"/>
      <path class="cls-1" d="M169.22,159.2c.56-.68,1.21-1.05,1.98-1.11.76-.06,1.5.2,2.22.78.78.63,1.21,1.34,1.3,2.12s-.16,1.53-.74,2.25c-.56.69-1.21,1.06-1.95,1.1-.74.04-1.49-.24-2.24-.85-.74-.6-1.16-1.29-1.27-2.07-.11-.78.13-1.52.7-2.22ZM173.39,162.68c.39-.48.53-.98.43-1.52-.1-.54-.43-1.04-1-1.5-.55-.45-1.09-.66-1.64-.63-.54.02-1.01.27-1.39.74-.39.48-.53.97-.43,1.48.1.51.44,1,1.01,1.46.58.47,1.13.7,1.65.7s.98-.24,1.37-.72Z"/>
      <path class="cls-1" d="M161.43,167.52l.7-.65.64.69.02-.02c-.2-.8,0-1.48.6-2.05,1.04-.97,2.13-.84,3.29.4l2.44,2.6-.69.65-2.33-2.49c-.86-.92-1.64-1.05-2.34-.39-.34.32-.5.71-.49,1.16.02.46.21.89.59,1.29l2.35,2.51-.7.65-4.07-4.35Z"/>
      <path class="cls-1" d="M150.32,175.36l1.14-.7,3.74,1.05h.02s-1.51-2.45-1.51-2.45l.81-.5,4.64,7.5-.81.5-2.94-4.76h-.02s-.69,3.65-.69,3.65l-1.06.66.84-3.9-4.16-1.06Z"/>
      <path class="cls-1" d="M144.56,181.18l3.82-1.76c-.29-.6-.67-.99-1.13-1.17-.46-.18-.96-.15-1.51.1-.61.28-1.08.74-1.4,1.38l-.38-.81c.32-.56.87-1.03,1.65-1.39.76-.35,1.48-.38,2.14-.09.66.29,1.2.88,1.61,1.77.39.84.47,1.64.23,2.39s-.7,1.29-1.41,1.62-1.36.35-1.96.07c-.6-.28-1.09-.83-1.46-1.64l-.21-.45ZM145.78,181.5c.23.5.53.83.9,1,.37.17.76.16,1.18-.04.41-.19.69-.49.84-.92.15-.42.15-.89,0-1.39l-2.92,1.35Z"/>
      <path class="cls-1" d="M136.32,183.99l4.02-1.26c-.21-.63-.54-1.06-.97-1.31s-.94-.27-1.51-.1c-.64.2-1.16.6-1.57,1.19l-.27-.86c.39-.52.99-.91,1.81-1.17.8-.25,1.52-.19,2.14.18s1.08,1.03,1.37,1.96c.28.88.25,1.68-.08,2.4-.33.71-.86,1.19-1.61,1.42-.74.23-1.4.17-1.95-.18-.56-.35-.97-.96-1.24-1.81l-.15-.48ZM137.49,184.47c.17.52.42.89.76,1.11.34.21.73.25,1.18.11.43-.13.75-.4.95-.8.2-.4.26-.86.18-1.38l-3.07.96Z"/>
      <path class="cls-1" d="M131.22,183.21h.02s-.61-3.55-.61-3.55l.94-.16,1.47,8.58-.94.16-.18-1.03h-.02c-.33.86-.94,1.37-1.83,1.52-.76.13-1.39-.03-1.91-.49-.51-.45-.85-1.12-1-2.01-.17-.98-.06-1.81.31-2.48.38-.67.98-1.08,1.81-1.22.76-.13,1.4.1,1.93.69ZM131.65,185.58l-.14-.82c-.08-.49-.31-.87-.68-1.16s-.8-.39-1.29-.3c-.57.1-.98.39-1.23.88-.25.49-.31,1.12-.17,1.9.11.65.35,1.14.72,1.46.37.32.81.43,1.32.35.55-.09.95-.36,1.22-.8.27-.44.35-.94.25-1.52Z"/>
      <path class="cls-1" d="M117.38,184.43h.02s.03-.86.03-.86l.95.04-.34,8.82-.95-.04.15-3.91h-.02c-.5.77-1.2,1.14-2.1,1.11-.76-.03-1.35-.32-1.76-.87-.41-.55-.6-1.27-.57-2.17.04-1,.31-1.78.82-2.36s1.18-.85,2.02-.82c.79.03,1.37.39,1.75,1.07ZM117.31,186.84l.03-.83c.02-.49-.12-.92-.43-1.27-.31-.36-.71-.54-1.2-.56-.58-.02-1.04.18-1.38.61-.34.43-.53,1.04-.56,1.82-.03.66.11,1.19.4,1.58.29.39.7.59,1.22.61.55.02,1.01-.15,1.36-.53.35-.37.54-.85.56-1.43Z"/>
      <path class="cls-1" d="M104.11,184.85l4.15.72c.1-.66,0-1.19-.27-1.61-.27-.41-.71-.67-1.3-.77-.66-.11-1.31,0-1.94.34l.15-.88c.58-.29,1.3-.35,2.14-.21.83.14,1.44.52,1.82,1.14s.49,1.41.32,2.37c-.16.91-.55,1.61-1.16,2.1-.62.49-1.31.66-2.08.53-.77-.13-1.32-.48-1.65-1.05-.33-.57-.43-1.3-.27-2.18l.09-.49ZM104.94,185.82c-.09.54-.03.99.17,1.34.21.35.54.56,1,.64.44.08.85-.02,1.21-.28.36-.26.63-.65.79-1.15l-3.17-.55Z"/>
      <path class="cls-1" d="M97.04,180.03l.91.28-.27.89h.02c.61-.55,1.3-.71,2.07-.48.57.17.97.46,1.19.86s.27.85.11,1.34c-.33,1.06-1.14,1.49-2.45,1.28l-1.78-.29c-.3.97-.06,1.57.73,1.81.69.21,1.38.17,2.07-.13l-.29.93c-.67.18-1.37.16-2.1-.06-1.34-.41-1.79-1.33-1.35-2.74l1.14-3.7ZM97.07,183.19l1.43.23c.44.07.79.06,1.05-.02.26-.08.45-.32.57-.7.09-.28.06-.54-.09-.77-.14-.24-.38-.41-.71-.51-.45-.14-.87-.1-1.27.13-.39.23-.66.58-.81,1.07l-.17.57Z"/>
      <path class="cls-1" d="M89.55,177.21c.53-.06,1.08.03,1.66.29.78.35,1.29.88,1.54,1.6.25.72.2,1.48-.16,2.28-.4.9-.98,1.5-1.74,1.82-.76.31-1.56.28-2.42-.1-.48-.21-.86-.49-1.15-.83l.4-.89c.28.46.65.8,1.11,1,.56.25,1.1.25,1.64.01s.95-.68,1.24-1.33c.28-.64.34-1.22.17-1.73s-.54-.9-1.1-1.15c-.47-.21-.99-.25-1.55-.13l.37-.83Z"/>
      <path class="cls-1" d="M82.27,172.74l.82.5-1.78,2.93c-.65,1.06-.57,1.83.22,2.31.4.24.83.29,1.28.15.46-.14.83-.45,1.13-.93l1.75-2.88.82.5-4.59,7.54-.82-.5,2-3.29h-.02c-.78.39-1.53.38-2.26-.06-1.15-.7-1.3-1.74-.46-3.12l1.91-3.14Z"/>
      <path class="cls-1" d="M72.3,164.99c.52.11,1.02.37,1.48.8.63.57.94,1.24.95,2,.01.76-.28,1.46-.88,2.11-.66.72-1.4,1.11-2.22,1.17-.82.06-1.57-.23-2.26-.86-.39-.35-.66-.74-.82-1.15l.66-.72c.12.53.36.96.73,1.3.45.41.96.59,1.55.53s1.11-.35,1.59-.87c.47-.51.71-1.04.71-1.59,0-.55-.22-1.03-.68-1.44-.38-.35-.86-.56-1.43-.61l.61-.67Z"/>
      <path class="cls-1" d="M69.36,161.44l.64.71-6.57,5.89-.64-.71,6.57-5.89Z"/>
      <path class="cls-1" d="M61.67,156.04l2.48,3.4c.53-.4.84-.85.93-1.34.09-.49-.04-.97-.39-1.46-.39-.54-.94-.91-1.63-1.11l.72-.53c.62.2,1.18.65,1.68,1.34.5.68.67,1.37.51,2.08-.15.71-.63,1.35-1.42,1.93-.75.55-1.52.78-2.3.7-.78-.08-1.4-.44-1.86-1.07s-.61-1.27-.45-1.91.6-1.23,1.32-1.75l.4-.29ZM61.59,157.31c-.44.33-.71.69-.81,1.08s0,.78.27,1.15c.26.36.62.58,1.07.64.45.06.9-.03,1.36-.27l-1.89-2.6Z"/>
      <path class="cls-1" d="M59.95,147.66l.46.84-.82.45v.02c.84.02,1.44.38,1.83,1.09.29.52.37,1,.26,1.45-.11.45-.4.79-.85,1.04-.98.54-1.86.27-2.65-.79l-1.08-1.45c-.89.49-1.13,1.09-.74,1.81.35.63.87,1.08,1.58,1.35l-.86.47c-.61-.33-1.1-.84-1.47-1.51-.67-1.23-.36-2.2.94-2.91l3.4-1.87ZM57.77,149.95l.87,1.16c.27.36.52.6.77.72.25.12.54.09.89-.11.25-.14.41-.35.47-.62.06-.27,0-.56-.16-.86-.23-.41-.56-.68-1-.79-.44-.11-.88-.04-1.33.2l-.52.29Z"/>
      <path class="cls-1" d="M56.48,139.5l.35.89-3.17,1.24c-1.18.46-1.6,1.12-1.26,1.98.17.44.48.75.93.91.45.16.93.14,1.44-.06l3.17-1.24.35.89-5.55,2.17-.35-.89.92-.36v-.02c-.87-.15-1.46-.62-1.77-1.41-.24-.61-.22-1.15.04-1.62s.77-.86,1.51-1.15l3.39-1.32Z"/>
      <path class="cls-1" d="M55.15,135.11l-.11.06v.12s-.63.19-.63.19l-.25-1.24.6-.24.16.05.21,1.06Z"/>
    </g>
    <path class="cls-1" d="M171.48,145.6c.1-.21.21-.42.31-.64.03-.06.05-.11.08-.17.1-.22.21-.44.31-.65.02-.05.05-.1.07-.15.1-.22.2-.45.3-.67.02-.05.04-.09.06-.14.1-.23.2-.46.3-.69.02-.04.04-.08.05-.13.1-.23.2-.47.3-.7.02-.04.03-.07.05-.11.1-.24.2-.48.3-.72.01-.03.03-.07.04-.1.1-.24.19-.49.29-.73.01-.03.02-.06.03-.09.1-.25.19-.49.28-.74,0-.02.02-.05.03-.07.1-.25.19-.5.28-.76,0-.02.01-.04.02-.06.09-.26.18-.51.27-.77,0-.02.01-.03.02-.05.09-.26.18-.52.26-.77,0-.01,0-.02.01-.04.09-.26.17-.52.25-.78,0,0,0-.02,0-.03.08-.26.16-.52.24-.78,0,0,0-.01,0-.02.08-.26.16-.53.23-.79,0,0,0,0,0-.01.08-.26.15-.53.22-.79,0,0,0,0,0,0,1.34-4.9,1.84-9.43,1.12-12.76-.07,0-.16-.01-.21.02-.29.23-.59.46-.88.68-.02.02-.04.03-.06.05-.26.21-.53.42-.79.63-.04.03-.09.07-.13.1-.24.19-.48.38-.72.58-.06.05-.11.09-.17.14-.22.18-.45.36-.67.55-.07.06-.14.12-.22.18-.21.17-.41.34-.61.52-.08.07-.15.13-.23.2-.2.17-.39.34-.59.51-.09.08-.18.16-.27.24-.18.16-.36.32-.53.48-.1.09-.19.18-.29.27-.17.16-.34.31-.51.47-.11.1-.21.2-.32.3-.15.15-.31.29-.46.44-.11.1-.21.21-.32.32-.15.15-.3.3-.45.45-.11.11-.21.22-.32.33-.14.15-.29.3-.43.45-.11.11-.21.23-.32.35-.14.15-.28.3-.41.45-.11.13-.22.26-.34.39-.13.14-.25.29-.38.43-.12.14-.24.29-.35.43-.11.14-.23.27-.34.41-.13.17-.26.34-.39.5-.09.12-.19.24-.28.36-.18.24-.36.49-.54.73-.04.05-.07.1-.11.15-.49.69-.96,1.39-1.41,2.1-.71,1.11-1.39,2.24-2.05,3.39-.23.4-.45.8-.67,1.2-1.51,2.72-2.92,5.51-4.37,8.26-.45.85-.9,1.69-1.36,2.53s-.93,1.67-1.41,2.5c-.29.5-.44,1.03-.5,1.57-.04.39-.03.79.02,1.19.03.24.07.49.11.73.02.08.03.16.05.24.12.55.28,1.07.46,1.59.81,2.22,2.18,4.17,3.15,6.32h0s.02,0,.02-.01c.16-.09.32-.19.48-.29.06-.04.12-.08.18-.12.11-.07.22-.14.33-.21.07-.05.14-.1.21-.15.1-.07.2-.14.3-.21.07-.05.15-.11.22-.16.1-.07.19-.14.29-.22.08-.06.15-.12.23-.18.09-.08.19-.15.28-.23.08-.06.16-.13.23-.2.09-.08.19-.15.28-.24.08-.07.16-.14.24-.21.09-.08.18-.16.27-.24.08-.07.16-.15.24-.23.09-.08.18-.17.27-.25.08-.08.16-.16.25-.24.09-.09.18-.17.26-.26.08-.08.17-.17.25-.26.09-.09.17-.18.26-.27.08-.09.17-.18.25-.27.09-.09.17-.18.26-.28.09-.09.17-.19.25-.29.08-.09.17-.19.25-.28.09-.1.17-.2.26-.3.08-.09.16-.19.24-.29.09-.1.17-.21.26-.31.08-.1.16-.19.24-.29.09-.11.18-.22.26-.33.08-.1.16-.19.23-.29.09-.11.18-.23.27-.35.08-.1.15-.19.23-.29.09-.12.18-.24.27-.36.07-.1.15-.2.22-.3.09-.12.18-.25.27-.38.07-.1.14-.19.21-.29.09-.13.19-.26.28-.4.07-.1.14-.19.2-.29.09-.14.19-.27.28-.41.06-.1.13-.19.19-.29.09-.14.19-.29.28-.43.06-.09.12-.19.19-.28.1-.15.19-.3.29-.45.06-.09.12-.18.18-.28.1-.15.19-.31.29-.47.06-.09.11-.18.17-.27.1-.16.2-.32.29-.48.05-.09.11-.18.16-.26.1-.17.2-.33.3-.5.05-.08.1-.17.15-.25.1-.17.2-.35.3-.52.05-.08.09-.16.14-.24.1-.18.2-.36.3-.54.04-.08.09-.15.13-.23.1-.19.2-.38.3-.56.04-.07.08-.14.12-.22.1-.19.2-.39.31-.58.04-.07.07-.14.11-.21.1-.2.21-.4.31-.6.03-.06.07-.13.1-.19.1-.21.21-.41.31-.62.03-.06.06-.12.09-.18Z"/>
    <path class="cls-1" d="M143.56,173.54c-14.07,3.72-27.47,1.78-40.03-5.38-7.61-4.34-12.69-11.11-16.42-20.96-1.89-6.28-3.27-13.34-1.49-20.67.26-1.05.76-2.27.44-3.17-.31-.87-1.78-.84-2.71-1.27-3.12-1.43-5.66-3.3-7.62-5.6-1.8,2.22-3.36,4.64-4.71,7.24-2.92,5.62-4.78,11.55-6.32,17.58-.13.5.14.88.26,1.29,1.56,5.04,3.62,9.85,6.67,14.22.29.41.58.81.89,1.21-.07,0-.1,0-.1,0,14.3,18.61,40.36,26.92,65.27,18.85,2.54-.82,4.99-1.8,7.35-2.9-.02-.03-.05-.05-.08-.08-.43-.5-.81-.5-1.4-.35Z"/>
    <path class="cls-1" d="M118.46,128.72c.99-.3,1.95-.64,2.83-1.18,2.19-1.33,3.03-3.46,2.32-5.99-.24-.86-.55-1.7-1.02-2.48-1.17-1.91-2.98-2.71-5.29-2.65-1.96.05-3.81.59-5.57,1.43-.76.36-1.29.25-1.87-.27-.42-.38-.86-.69-1.31-.94-.4.48-.81.95-1.26,1.4-2.34,2.4-5.1,4.13-8.21,5.32-.34.13-.79.11-.89.62-.51,2.69-1.58,5.27-1.54,8.08,0,.53.04,1.05.09,1.56.36-2.13,1.2-4.2,2.68-6.2,2.19-2.96,5.09-5.04,8.91-5.66,4.69-.77,8.8,2.09,9.43,6.52.07.52.28.56.7.43Z"/>
    <path class="cls-1" d="M140.01,162.48c-.23.07-.46.15-.69.22-1.14.35-2.27.65-3.41.91-.27.06-.55.12-.82.18-.86.18-1.72.34-2.58.47-.49.08-.99.15-1.48.21-.23.03-.46.06-.69.08-.41.04-.81.08-1.22.12-.51.04-1.02.08-1.53.11-.41.02-.81.04-1.22.05-.28,0-.56.02-.84.02-.23,0-.46,0-.68,0-.46,0-.91,0-1.37-.01-.45,0-.91-.02-1.36-.04s-.91-.05-1.36-.08-.91-.07-1.36-.11c-.91-.08-1.81-.18-2.72-.3-.23-.03-.45-.06-.68-.09-6.12-.86-12.22-2.53-18.35-4.53,0,0,0,0,0,0,0,0,0,0,0,0,1.15,1.22,2.32,2.32,3.52,3.32.46.38.93.75,1.41,1.11.76.57,1.54,1.09,2.33,1.59.6.37,1.21.73,1.83,1.06.92.5,1.85.96,2.79,1.38.98.44,1.96.84,2.96,1.2.24.09.49.17.73.26,1.47.5,2.96.93,4.46,1.29.75.18,1.51.34,2.27.49.51.1,1.01.19,1.52.27.25.04.51.08.77.12.43.06.86.12,1.29.18,2.39.31,4.82.48,7.27.56,3.61.11,7.16-.42,10.65-1.3.23-.06.47-.12.7-.18.06-.02.13-.02.21-.03.05,0,.1-.01.15-.02.05,0,.1-.02.15-.03.14-.04.25-.12.27-.29,0-.03,0-.06,0-.09,0-.07-.02-.15-.05-.24-.38-1.17-.64-2.36-.84-3.57-.09-.52-.16-1.04-.23-1.56-.14-1.05-.26-2.1-.41-3.16h0c-.46.16-.93.32-1.39.47Z"/>
    <path class="cls-1" d="M174.42,112.17s-.03,0-.04,0c-.17,0-.33.01-.5.02-.38.01-.75.02-1.12.08,0,0,0,0,0,0-.32.05-.64.1-.96.16-.1.02-.2.04-.3.06-.22.04-.44.09-.65.14-.11.03-.22.05-.33.08-.21.05-.41.1-.61.15-.11.03-.22.06-.33.09-.21.06-.42.12-.62.18-.1.03-.2.06-.29.09-.22.07-.45.14-.67.22-.08.03-.15.05-.23.08-.27.09-.54.19-.81.3-.03.01-.05.02-.08.03-.62.24-1.23.5-1.83.78-1.83.84-3.59,1.85-5.29,2.99-6.15,4.09-10.85,9.51-14.66,15.79-3.81,6.3-8.74,11.44-15.54,14.52-7.34,3.32-14.96,4.02-22.66,1.65-3.69-1.13-6.61-2.99-8.76-5.52t0,0c-1.07-1.26-1.94-2.68-2.63-4.26,0,0,0,0,0,0-.08-.2-.17-.39-.24-.59,0-.01,0-.02-.01-.03-.07-.19-.15-.39-.22-.58,0-.03-.02-.05-.03-.08-.06-.18-.13-.37-.19-.55-.01-.04-.02-.08-.04-.12-.05-.17-.11-.35-.16-.53-.02-.06-.03-.12-.05-.18-.04-.16-.09-.32-.13-.48-.02-.09-.04-.18-.06-.26-.03-.14-.07-.27-.1-.41-.03-.13-.05-.26-.08-.4-.02-.1-.04-.2-.06-.3-.04-.23-.08-.47-.12-.71-.03-.17-.05-.35-.07-.52,0-.05-.01-.1-.02-.15-.02-.13-.03-.26-.04-.39,0-.05,0-.09-.01-.14-.01-.17-.02-.33-.03-.5,0-.05,0-.1,0-.15,0-.12,0-.24,0-.36,0-.07,0-.13,0-.2,0-.11,0-.23,0-.34,0-.08,0-.17,0-.25,0-.12,0-.24.01-.36,0-.08,0-.17.02-.25,0-.08.01-.15.02-.23,0-.09.01-.19.02-.28,0-.05,0-.09.01-.14.02-.2.04-.4.07-.61,0-.04,0-.07.01-.11.02-.12.03-.23.05-.35,0-.02,0-.04.01-.07.06-.39.13-.78.21-1.17,0,0,0,0,0,0,.04-.2.09-.41.13-.61,0,0,0,0,0,0,.05-.2.09-.41.14-.61,0,0,0,0,0,0,0,0,0-.02,0-.03.05-.18.09-.37.14-.55,0-.01,0-.03.01-.04,0-.01,0-.03.01-.04.05-.2.11-.4.17-.61.06-.2.11-.4.17-.6,0,0,0,0,0-.01t0,0c.27-1.01.49-2.03.62-3.05.11-.88.16-1.77.12-2.66-.03-.72-.13-1.43-.29-2.16-.04-.16-.05-.32-.05-.47.01-.24.08-.46.2-.65.2-.29.54-.5,1.01-.59.15-.03.28-.03.41-.03.04,0,.08,0,.12.01.04,0,.08.01.11.02.05.01.09.03.13.04.06.02.12.05.18.08.05.03.09.06.14.1.24.2.41.52.52.9.26.89.35,1.8.39,2.77.02.38.02.77.03,1.17.65-.28,1.22-.48,1.76-.76.23-.12.45-.24.67-.37.07-.04.13-.08.2-.12.16-.09.31-.19.46-.28.07-.04.14-.08.2-.13.17-.11.34-.22.5-.33.04-.03.08-.05.12-.08.2-.14.4-.28.59-.43.05-.04.1-.07.14-.11.15-.11.29-.23.43-.34.06-.05.12-.1.18-.15.14-.12.28-.24.41-.36.05-.04.09-.08.14-.12.18-.16.35-.33.52-.49.02-.02.05-.05.07-.07.14-.14.47-.48.49-.5,0,0,0,0,0,0,.77-.83,15.3-13.2,14.42-16.16-.35-1.18-.8-2.3-1.48-3.29,0,0,.01,0,.02-.01-.35-.51-.75-.99-1.24-1.42-2.32-2.06-5.13-2.15-8.11-1.43-.36.09-.72.22-1.07.35-.57.21-1.03.09-1.38-.31,0,0,0,0,0,0,0,0,0,0,0,0-.02-.02-.04-.04-.06-.07-2.46-3.11-5.87-3.97-9.83-3.44-4.68.62-7.93,3.05-9.99,6.91.59.36,3.68,2.85,4.47,3.75.06.07.11.14.14.21.33.41.64.84.93,1.29.52.82.91.55,1.41.02.99-1.06,2.04-2.04,3.14-2.96,1.85-.35,3.73-.54,5.63-.51.61,0,1.22.04,1.84.09,2.21.2,4.28.68,6.12,1.64-4.48.25-13.14,2.17-14.95,3.97,0,0,0,0,0,0-.06.06-.11.11-.17.16,0,0,0,0-.01.01-.05.05-.11.1-.16.14-.01,0-.02.02-.03.02-.05.04-.1.08-.15.12,0,0-.01,0-.02.01-.05.04-.1.08-.16.11,0,0-.01,0-.02.01-.05.04-.11.07-.16.1,0,0-.01,0-.02.01-.05.03-.11.06-.16.09,0,0-.01,0-.02,0-.05.03-.11.06-.16.08,0,0-.01,0-.02,0-.06.03-.11.05-.17.07,0,0,0,0,0,0-.06.02-.12.05-.17.07,0,0,0,0,0,0-.06.02-.12.04-.18.06,0,0,0,0,0,0-.85.24-1.7.1-2.46-.41-.01,0-.02-.02-.04-.03-.04-.03-.09-.06-.13-.1-.02-.01-.03-.03-.05-.04-.04-.03-.08-.06-.12-.1-.02-.02-.04-.03-.06-.05-.04-.03-.07-.06-.11-.1-.02-.02-.04-.04-.06-.06-.03-.03-.07-.07-.1-.1-.02-.02-.04-.04-.06-.06-.03-.04-.07-.07-.1-.11-.02-.02-.04-.04-.05-.06-.03-.04-.07-.09-.1-.13-.02-.02-.03-.04-.05-.06-.03-.04-5.52-5.28-5.94-5.59-1.14-.83-2.38-1.14-3.66-1.12-.76.01-1.53.14-2.31.35-2.19.59-5.83,2.67-5.88,2.7,0,0,0,0,0,0,0,0,0,0,0,0,0,0,0,0,0,0,0,0,0,0,0,0-.81.55-1.59,1.16-2.32,1.82-1.39,1.26-2.64,2.7-3.77,4.27-3.53,4.89-5.07,10.31-5.2,16.1-.09,4.11.74,8.06,1.53,12.03,0,.04.05.07.11.15.23-.28.25-.61.34-.9,1.67-5.49,3.7-10.85,6.73-15.86,1.03-1.7,2.13-3.28,3.35-4.77l.26-.31c.31-.38.63-.75.96-1.11,1.6,1.35,3.79,3.17,3.98,3.37,2.19,2.3,4.82,3.9,7.87,4.91.04-.28.08-.44.07-.59-.02-.43-.06-.85-.11-1.28-.15-1.22.25-1.99,1.12-2.06,1.15-.09,1.54.64,1.7,1.64.31,2.01.17,4.02-.13,6.01-.33,2.18-.96,4.33-1.13,6.52-.62,7.94,1.08,15.43,4.89,22.42.5.92.79,2.07,1.9,2.53,10.02,4.12,20.36,6.75,31.26,6.63,4.76-.05,9.41-.8,13.9-2.44.9-.33.93-.73.54-1.44-.6-1.1-1.3-2.09-2.36-2.82-.7-.48-.84-1.24-.32-1.94.47-.64,1.15-.76,1.86-.33.33.2.65.42.95.67,2.32,1.94,3.15,4.64,3.68,7.46.47,2.48.58,5.01,1.21,7.46.44,1.72,1.22,3.09,2.44,4.02.02.02.05.03.07.05.09.07.18.13.27.19.04.03.09.06.13.08.04.02.07.04.11.07,2.45-1.36,4.79-2.91,6.98-4.62-.05-.13-.1-.25-.16-.38-.97-2.23-2.16-4.36-3.33-6.5-2.27-4.15-2.61-8.18.09-12.31,1.38-2.11,2.5-4.39,3.7-6.62,2.47-4.62,4.77-9.35,8.16-13.42,3.24-3.88,6.99-7.22,10.97-10.28,0,0,0,0,0,0,.28-.21.56-.42.84-.63-.29-2.06-.69-4.08-1.21-6.06ZM134.49,151.68c-2.11,1.24-4.35,2.22-6.7,2.95-8.35,2.43-16.65,2.74-24.9-.5-.81-.32-1.36-.78-1.31-1.69.06-1.04,1.05-1.52,2.21-1.04,3.25,1.37,6.65,2.04,10.15,2.17,6.63.26,12.93-.93,18.78-4.19.77-.43,1.59-.75,2.32.07.64.72.41,1.66-.55,2.23ZM142.07,145.91c-.56.94-1.48,1.53-2.22,2.08-.83.24-1.37.05-1.78-.53-.42-.6-.35-1.2.12-1.69.56-.58,1.19-1.09,1.81-1.6.57-.47,1.17-.32,1.7.08.57.43.71,1.06.36,1.65ZM152.46,139.19c-1.3.42-2.87-.38-3.29-1.68-.43-1.32.36-2.81,1.72-3.23,1.39-.43,2.76.31,3.19,1.73.4,1.32-.33,2.76-1.62,3.18Z"/>
  </g>
</svg>