<?xml version="1.0" encoding="UTF-8"?>
<svg id="_圖層_1" data-name="圖層 1" xmlns="http://www.w3.org/2000/svg" viewBox="0 0 1000 1000">
  <defs>
    <style>
      .cls-1 {
        fill: #fff;
      }

      .cls-2 {
        fill: #bc1f21;
      }

      .cls-3 {
        fill: #bc1f21;
      }
    </style>
  </defs>
  <rect class="cls-1" width="1000" height="1000"/>
  <g>
    <path class="cls-3" d="M533.24,820.59c0,18.88-15.3,34.18-34.18,34.18s-34.18-15.3-34.18-34.18,35.44-51.66,35.44-51.66c0,0,32.92,32.79,32.92,51.66Z"/>
    <path class="cls-3" d="M619.74,820.59c0,18.88-15.3,34.18-34.18,34.18s-34.18-15.3-34.18-34.18,34.81-55.25,34.81-55.25c0,0,33.55,36.37,33.55,55.25Z"/>
    <path class="cls-3" d="M715.57,814.98c3.09,18.62-9.49,36.23-28.12,39.32-18.62,3.09-36.23-9.49-39.32-28.12-3.09-18.62,24.6-60.82,24.6-60.82,0,0,39.75,30.99,42.84,49.61Z"/>
    <circle class="cls-3" cx="384.82" cy="795.36" r="59.41"/>
    <rect class="cls-1" x="384.31" y="770.92" width="3.89" height="50.51"/>
    <g>
      <path class="cls-2" d="M673.14,586.03c-6.36-31.35-24.1-57.54-48.05-75.19,3.63-3.98,7.35-7.89,11.21-11.68,9.44-9.28-5.09-23.8-14.53-14.53-5.01,4.92-9.84,10.01-14.51,15.24-24.13-12.19-52.39-16.68-80.91-10.9-67.32,13.65-111.01,79.4-97.39,146.56,6.6,32.55,25.51,60.56,53.25,78.89,20.62,13.63,44.28,20.68,68.47,20.68,8.33,0,16.72-.84,25.07-2.53,32.6-6.61,60.68-25.49,79.08-53.16,18.41-27.69,24.91-60.86,18.31-93.4ZM633.05,626.48c-19.23,7.68-40.98,8.8-61.05,3.34-13.77-3.75-26.16-10.62-36.82-20.07-12.39-10.98-23.35-24.19-38.47-31.6-6.21-3.05-12.98-5.03-19.89-5.21,11.21-21.75,31.85-38.45,57.69-43.69,5.6-1.14,11.17-1.68,16.67-1.68,10.46,0,20.63,1.99,30.06,5.65-4.42,6.5-8.61,13.17-12.55,19.99-.04.07-.07.13-.1.2-2.6-2.3-4.98-4.87-7.1-7.73-3.33-4.49-8.86-6.64-14.05-3.68-4.42,2.52-6.98,9.61-3.68,14.05,11.71,15.81,28.21,26.99,47.78,30.37,12.93,2.23,18.48-17.56,5.46-19.81-3.66-.63-7.24-1.58-10.69-2.82.04-.07.09-.13.13-.21,4.07-7.06,8.44-13.89,13.04-20.56,16.66,11.81,29.04,29.68,33.4,51.18h0c2.2,10.82,2.22,21.75.18,32.28Z"/>
      <path class="cls-2" d="M609.64,170.86c-.63,16.92-2.97,33.72-6.79,50.21.14-.6.28-1.2.42-1.8-10.76,45.79-32.76,88.42-61.53,125.45-8.1,10.42-16.73,20.42-25.77,30.03.77-.82,1.54-1.64,2.32-2.46-15.93,16.87-33.14,32.5-51.23,47.02-4.68,3.76-9.41,7.44-14.2,11.05-1.34,1.01-5.38,3.99.37-.26-1.21.89-2.41,1.79-3.62,2.67-2.42,1.77-4.85,3.53-7.29,5.27-9.41,6.71-19.02,13.12-28.7,19.43-21.47,13.99-43.49,28.46-59.54,48.81-13.4,16.98-22.83,40.42-17.61,62.22,2.49,10.4,8.4,20.03,16.5,27,4.31,3.7,9.38,6.78,14.7,8.78,5.96,2.24,12.08,2.63,18.4,2.3,2.69-.34,5.32-.92,7.9-1.74,3.4-.88,6.73-1.97,10-3.27,7.3-2.74,14.81-6.04,21.54-10,1.79-1.1,3.58-2.19,5.37-3.29,2.42-1.44,4.51-3.25,6.28-5.42.14-.6.28-1.2.42-1.8-1.43-1.17-3.09-1.47-4.98-.89-.61.03-1.22.05-1.83.06,1.13,0,2.25-.01,3.38-.02-6.87,0-13.44-1.94-19.4-5.33l1.6.92c-9.3-5.48-16.56-14.09-20.77-23.99-4.65-10.93-4.92-23.01-2.33-34.5l-.42,1.8c3.66-15.49,12.21-29.39,23.01-40.94-.77.82-1.54,1.64-2.32,2.46,4.9-5.17,10.19-9.94,15.76-14.38,1.39-1.11,2.8-2.21,4.22-3.28.3-.23.61-.46.91-.69,1.58-1.2-2.92,2.16-2.43,1.82.83-.59,1.64-1.21,2.47-1.8,2.9-2.09,5.84-4.13,8.8-6.13,11.85-8.01,23.97-15.61,35.71-23.77,24.21-16.83,47.58-35,69.14-55.13,21.01-19.61,40.54-41.02,57.37-64.34,16.45-22.8,30.3-47.55,40.61-73.72,10.39-26.34,17.27-54.27,19.46-82.52.27-3.48.46-6.96.59-10.45.09-2.37-10.58.16-9.85,0-6.97,1.57-14.13,4.32-20.62,7.21-6.61,2.94-13.4,6.01-19.32,10.2-2.41,1.7-6.58,3.9-6.7,7.21h0Z"/>
      <path class="cls-2" d="M518.59,390.42v-94.87h97.91c-.2.56,9.97-38.41,9.87-37.95h-107.78v-75.9h-37.95v75.9h-127.51v37.95h127.51v94.87h-201.13v37.95h440.97v-37.95h-201.89Z"/>
    </g>
  </g>
</svg>