<?xml version="1.0" encoding="UTF-8"?>
<svg id="_圖層_1" data-name="圖層 1" xmlns="http://www.w3.org/2000/svg" viewBox="0 0 265.55 265.55">
  <defs>
    <style>
      .cls-1 {
        fill: #fff;
      }

      .cls-2 {
        fill: #bc1f21;
      }

      .cls-3 {
        fill: #eec7c8;
      }

      .cls-4 {
        fill: #bc1f21;
      }
    </style>
  </defs>
  <rect class="cls-3" width="265.55" height="265.55"/>
  <g>
    <path class="cls-4" d="M140.21,204.48c0,4.22-3.42,7.65-7.65,7.65s-7.65-3.42-7.65-7.65,7.93-11.56,7.93-11.56c0,0,7.36,7.33,7.36,11.56Z"/>
    <path class="cls-4" d="M159.56,204.48c0,4.22-3.42,7.65-7.65,7.65s-7.65-3.42-7.65-7.65,7.79-12.36,7.79-12.36c0,0,7.5,8.13,7.5,12.36Z"/>
    <path class="cls-4" d="M180.99,203.23c.69,4.17-2.12,8.1-6.29,8.79s-8.1-2.12-8.79-6.29c-.69-4.17,5.5-13.6,5.5-13.6,0,0,8.89,6.93,9.58,11.1Z"/>
    <circle class="cls-4" cx="107.02" cy="198.84" r="13.29"/>
    <rect class="cls-1" x="106.9" y="193.37" width=".87" height="11.3"/>
    <g>
      <path class="cls-2" d="M171.5,152.02c-1.42-7.01-5.39-12.87-10.75-16.82.81-.89,1.64-1.76,2.51-2.61,2.11-2.08-1.14-5.32-3.25-3.25-1.12,1.1-2.2,2.24-3.25,3.41-5.4-2.73-11.72-3.73-18.1-2.44-15.06,3.05-24.83,17.76-21.78,32.78,1.48,7.28,5.71,13.55,11.91,17.65,4.61,3.05,9.9,4.63,15.31,4.63,1.86,0,3.74-.19,5.61-.57,7.29-1.48,13.57-5.7,17.69-11.89,4.12-6.19,5.57-13.61,4.1-20.89ZM162.53,161.06c-4.3,1.72-9.17,1.97-13.65.75-3.08-.84-5.85-2.37-8.24-4.49-2.77-2.46-5.22-5.41-8.6-7.07-1.39-.68-2.9-1.13-4.45-1.16,2.51-4.87,7.12-8.6,12.9-9.77,1.25-.25,2.5-.38,3.73-.38,2.34,0,4.61.45,6.72,1.26-.99,1.45-1.93,2.94-2.81,4.47,0,.02-.01.03-.02.05-.58-.51-1.11-1.09-1.59-1.73-.74-1-1.98-1.49-3.14-.82-.99.56-1.56,2.15-.82,3.14,2.62,3.54,6.31,6.04,10.69,6.79,2.89.5,4.13-3.93,1.22-4.43-.82-.14-1.62-.35-2.39-.63,0-.02.02-.03.03-.05.91-1.58,1.89-3.11,2.92-4.6,3.73,2.64,6.49,6.64,7.47,11.45h0c.49,2.42.5,4.87.04,7.22Z"/>
      <path class="cls-2" d="M157.3,59.16c-.14,3.78-.66,7.54-1.52,11.23l.09-.4c-2.41,10.24-7.33,19.77-13.76,28.06-1.81,2.33-3.74,4.57-5.76,6.72l.52-.55c-3.56,3.77-7.41,7.27-11.46,10.52-1.05.84-2.11,1.66-3.18,2.47-.3.23-1.2.89.08-.06-.27.2-.54.4-.81.6-.54.4-1.08.79-1.63,1.18-2.11,1.5-4.25,2.93-6.42,4.35-4.8,3.13-9.73,6.37-13.32,10.92-3,3.8-5.11,9.04-3.94,13.92.56,2.32,1.88,4.48,3.69,6.04.96.83,2.1,1.52,3.29,1.96,1.33.5,2.7.59,4.12.51.6-.08,1.19-.21,1.77-.39.76-.2,1.51-.44,2.24-.73,1.63-.61,3.31-1.35,4.82-2.24l1.2-.74c.54-.32,1.01-.73,1.41-1.21l.09-.4c-.32-.26-.69-.33-1.11-.2-.14,0-.27.01-.41.01h.76c-1.54,0-3.01-.44-4.34-1.2l.36.2c-2.08-1.22-3.7-3.15-4.65-5.37-1.04-2.44-1.1-5.15-.52-7.72l-.09.4c.82-3.47,2.73-6.57,5.15-9.16l-.52.55c1.1-1.16,2.28-2.22,3.52-3.22.31-.25.63-.49.94-.73.07-.05.14-.1.2-.15.35-.27-.65.48-.54.41.19-.13.37-.27.55-.4.65-.47,1.31-.92,1.97-1.37,2.65-1.79,5.36-3.49,7.99-5.32,5.41-3.76,10.64-7.83,15.46-12.33,4.7-4.39,9.07-9.17,12.83-14.39,3.68-5.1,6.78-10.63,9.08-16.49,2.32-5.89,3.86-12.14,4.35-18.46.06-.78.1-1.56.13-2.34.02-.53-2.37.04-2.2,0-1.56.35-3.16.97-4.61,1.61s-3,1.35-4.32,2.28c-.54.38-1.47.87-1.5,1.61h0Z"/>
      <path class="cls-2" d="M136.94,108.27v-21.22h21.9c-.04.13,2.23-8.59,2.21-8.49h-24.1v-16.98h-8.49v16.98h-28.52v8.49h28.52v21.22h-44.98v8.49h98.63v-8.49h-45.15Z"/>
    </g>
  </g>
</svg>