<?xml version="1.0" encoding="UTF-8"?>
<svg id="_圖層_1" xmlns="http://www.w3.org/2000/svg" version="1.1" viewBox="0 0 482.24 407.82">
  <!-- Generator: Adobe Illustrator 29.5.1, SVG Export Plug-In . SVG Version: 2.1.0 Build 141)  -->
  <defs>
    <style>
      .st0 {
        fill: #003067;
      }

      .st1 {
        fill: #004c88;
      }

      .st2 {
        fill: #7ac9cc;
      }

      .st3 {
        fill: #7d0000;
      }

      .st4 {
        fill: #ffc4c4;
      }

      .st5 {
        fill: #fabd00;
      }

      .st6 {
        fill: #c60f28;
      }

      .st7 {
        fill: #427935;
      }
    </style>
  </defs>
  <rect class="st4" x="-69.5" y="-92.21" width="592.24" height="592.24"/>
  <g>
    <g>
      <rect class="st6" x="420.06" y="174.14" width="15.58" height="35.06"/>
      <rect class="st1" x="420.06" y="224.54" width="15.58" height="38.02"/>
      <rect class="st7" x="386.46" y="209.24" width="33.32" height="14.27"/>
      <rect class="st5" x="435.64" y="209.24" width="32.1" height="14.27"/>
      <rect class="st2" x="419.79" y="223.51" width=".28" height="1.03"/>
      <polygon class="st2" points="420.06 209.2 435.64 209.2 435.64 209.17 419.79 209.17 419.79 209.24 420.06 209.24 420.06 209.2"/>
      <polygon class="st0" points="435.64 209.2 420.06 209.2 420.06 209.24 419.79 209.24 419.79 223.51 420.06 223.51 420.06 224.54 435.64 224.54 435.64 223.51 435.64 209.24 435.64 209.2"/>
    </g>
    <path class="st3" d="M337.25,227.01c-80.2,0-66.12,35.58-66.12,79.47,0,15.62,3.76,30.17,10.23,42.45v51.3h20.55v-26.6c7.44,5.67,15.88,9.59,24.93,11.32v15.28h20.55v-15.22c9.05-1.68,17.49-5.57,24.93-11.18v26.4h20.55v-50.84c6.62-12.38,10.48-27.1,10.48-42.91,0-43.89,9.44-79.47-66.12-79.47h.02Z"/>
    <path class="st3" d="M175.18,221.57c-40.72,0-73.73,41.21-73.73,92.05s33.01,92.05,73.73,92.05,73.73-41.21,73.73-92.05-33.01-92.05-73.73-92.05h0ZM131.76,285.28c0-22.45,53.14-25.65,77.29-25.95,4.14-.05,6.48,4.73,3.9,7.96-9.13,11.42-24.58,26.22-43.74,27.05-7.81.34-21.72-1.96-33.5-4.3-2.27-.45-3.94-2.43-3.94-4.74v-.03h0ZM139.28,367.91c2.55-5.63,6.29-10.57,10.85-14.51-5.35-4.14-9.68-9.59-12.54-15.91h73.76c-2.55,5.63-6.29,10.57-10.85,14.51,5.35,4.13,9.68,9.59,12.54,15.91h-73.76ZM210.84,330.16c-.25,1.75-1.75,3.05-3.52,3.05h-64.75c-1.57,0-2.95-1.01-3.4-2.51-2.02-6.73-4.74-20.97-6.26-31.62-.35-2.43,1.8-4.46,4.21-3.99,10.65,2.07,22.68,4,30.46,4,.6,0,1.17-.01,1.71-.03,13.44-.58,27.19-7.97,39.75-21.36,1.16-1.24,2.26-2.47,3.3-3.68,2.32-2.71,6.74-.72,6.23,2.82l-7.73,53.33h0Z"/>
    <g>
      <path class="st3" d="M300.61,139.05v-15.58h22.34c7.51,0,14.08-2.82,19.52-8.45,5.25-5.44,8.07-12.01,8.07-19.9v-23.65h-115.44v23.65c0,7.88,2.82,14.45,8.07,19.9,5.44,5.63,12.01,8.45,19.71,8.45h22.71v15.58h-58.19v25.34c0,7.7,2.82,14.27,8.07,19.9,5.44,5.44,12.01,8.26,19.52,8.26h76.21c7.51,0,14.08-2.82,19.52-8.26,5.26-5.63,8.07-12.2,8.07-19.9v-25.34h-58.19.01ZM265.7,109.95c-4.69,0-8.26-1.31-11.07-4.13-3-2.44-4.5-6.19-4.5-10.7v-9.39h85.6v9.39c0,4.51-1.5,8.26-4.5,10.7-2.82,2.82-6.76,4.13-11.26,4.13h-54.27ZM343.79,163.64c0,5.44-1.88,9.57-5.82,12.01-2.63,1.69-6.01,2.63-9.76,2.63h-70.21c-4.5,0-8.26-1.31-11.26-3.94-3.19-2.44-4.5-6.19-4.5-10.7v-10.32h101.55v10.32h0Z"/>
      <path class="st3" d="M385.7,61.35s-9.26-1.02-16.71-10.39c-3.43-4.32-5.56-8.04-6.3-9.43h-.07v-8.99h-4.53v8.99h-126.26v-8.99h-4.53v9.17c-.78,1.45-2.87,5.15-6.25,9.47-7.45,9.53-16.71,10.56-16.71,10.56l43.41-.11,94.2-.28v-.02h21.38l-.02-.04,22.4.06h-.01Z"/>
      <path class="st3" d="M309.44,16.61c-1.92,0-3.72,1.02-5.29,2.77C300.76,7.79,294.48,0,287.28,0c-10.51,0-19.06,16.58-19.53,37.36h52.54c-.26-11.55-5.01-20.76-10.85-20.76h0Z"/>
    </g>
    <g>
      <path class="st3" d="M108.81,60.9V18.65h14.97v28.04h68.58v14.21h-15.72c0,24.63-3.03,45.09-8.71,61.57,16.29,17.62,24.44,40.92,24.44,69.71h-14.97c0-20.46-5.49-38.27-16.67-53.42-10.99,19.32-28.42,33.34-52.67,41.3v-14.4c20.08-8.15,34.29-21.03,42.44-38.27-12.12-10.61-26.33-16.1-42.44-16.1v-13.64c18.38,0,34.48,4.74,48.12,14.4,3.41-13.45,5.3-30.5,5.49-51.15h-52.86Z"/>
      <path class="st3" d="M100.05,68.42v-14.3h-32.17V18.94h-15.62v35.18H18.58v14.3h33.68v38.22h-1.26c-15.03,0-27.22,12.19-27.22,27.22v28.18c0,16.85,13.66,30.5,30.5,30.5h9.46c20.46,0,30.5-10.23,30.5-30.5v-38.75c0-9.2-7.46-16.65-16.65-16.65h-9.71v-38.22s32.17,0,32.17,0ZM82.57,125.44c-6.3,6.03-11.08,13.62-13.79,21.91-2.34,7.14-3.44,15.25-8.93,20.38-3.66,3.42-8.85,4.93-13.85,4.68s-9.81-2.14-14.07-4.78c3.4,2.22,10.34-.31,13.07-3.31,2.74-3,3.76-7.19,4.18-11.23.42-4.04.34-8.16,1.32-12.11,1.63-6.57,6.29-12.33,12.39-15.28s13.51-3.04,19.67-.24v-.02Z"/>
    </g>
    <g>
      <rect class="st3" x="17.19" y="390.65" width="37.73" height="17.16" rx="2.32" ry="2.32"/>
      <path class="st3" d="M23.37,372.19c.34-1.31.67-2.56.83-3.57l.06-.27c2.69-10.78,5.05-22.21,1.93-33.15-1.92-7.63-4.94-14.85-7.86-21.83-4.25-10-8.3-20.29-12.21-30.24l-1.14-2.89c-.55-1.65-1.2-3.3-1.88-5.04-2.51-6.39-5.36-13.64-2.85-20.31,1.27-2.88,3.78-4.4,6.22-5.87.93-.56,1.8-1.09,2.6-1.68,2.16-1.49,3.59-3.72,4.84-6.06-.54-1.29-1.68-2.79-3.47-4.6l-.32-.29c-3.88-3.55-8.7-7.97-13.29-9.04-.66-.15-4.69.27-5.67,1.25-1.66,1.66-2.26,4.62-1.56,7.72.29,1.61,2.59,19.07,2.24,22.61-.32,3.14-6.58,25.38-6.32,28.49.42,7,9.81-5.69,13.15.41l1.11,2.03c2.73,5.09,5.31,9.91,6.52,15.24,1.26,6.47,2.24,17.21,3.26,28.59,1.34,14.86-.81,31.89.85,43.76,1.44,10.32,8.3,8.56,10.94,8.69.8.04,1.63-.52,2.42-1.6-2.9-2.71-1.52-8.01-.39-12.35h-.01Z"/>
      <path class="st3" d="M91.99,251.09c-1.81-4.28-5.76-6.65-9.94-9.15-1.38-.83-2.78-1.7-4.12-2.62-.8-.61-1.63-1.22-2.48-1.85l-.12-.09c-.3-.24-.6-.48-.89-.72-1.86-1.53-3.67-3-5.65-3.89-1.14-.51-2.33-.83-3.64-.84-.65,0-1.29.08-1.91.19-.67.12-1.32.29-1.95.51-5.04,1.72-8.78,6.29-10.35,8.51-.79,1.13-1.47,2.34-2.1,3.57-.09.18-.17.36-.26.54-1.01,2.01-1.9,4.08-2.75,6.13-1.51,3.68-3.08,7.48-5.47,10.85-1.48,2.05-2.85,3.89-4.11,5.59-9.09,12.22-12.49,16.79-8.32,35.83,2.54,12.8,7.32,25.15,11.94,37.09,2.04,5.27,4.15,10.72,6.04,16.14,1.94,6.57,0,13.38-5.49,19.23-2.94,3.39-6.57,6.66-11.06,9.97l-.53.42c-.82.64-1.76,1.36-2.27,1.95-.07.08-.13.15-.17.21,2.62.98,7.86.59,11.41.32l1.34-.1c9.14-.67,17.33-6.47,20.87-14.75,2.91-6.42,2.93-13.69,2.96-20.72v-22.44c0-2.93-.02-5.87-.04-8.8l-.03-4.53c-.11-8.1-.23-16.47,4.49-23.5l.08-.12c2.67-4.7,7.13-9.16,11.43-13.47,8.71-8.71,17.72-17.72,13.1-29.48v.02Z"/>
      <path class="st3" d="M52.73,226.36c-.15-.09-1.03-.54-2.05-1.07,1.79-1.54,4.16-2.4,6.45-1.71.47.14.76-.57.28-.72-2.66-.81-5.43.21-7.45,2.06-.17-.09-.33-.17-.5-.25,1.57-2.95,5.15-5.26,8.51-4.24.47.14.76-.57.28-.72-3.74-1.13-7.72,1.3-9.47,4.61-.98-.49-1.75-.87-1.76-.84-4.13-1.66-7.72.35-7.79,2.57-.1,3.07-.44,4.32-.17,5.62.88.75,1.73,1.59,2.58,2.48.42.44.83.88,1.24,1.34,2.23,2.19,3.46,4.24,3.81,6.44.06.39.08.79.08,1.2.08-.13.16-.26.24-.39.76-1.16,1.57-2.29,2.47-3.33,1.79-2.04,5.99-6.19,11.18-7.38-2.78-2.24-5.98-4.62-7.93-5.67h0ZM44.23,227.65c-.72.21-1.48-.2-1.68-.91-.21-.72.21-1.47.93-1.68.72-.21,1.48.2,1.68.91.21.72-.21,1.47-.93,1.68Z"/>
      <path class="st3" d="M37.9,341.29c-4.61-11.95-9.38-24.3-11.7-37.07l-.2-1.1c-1.21-6.73-2.47-13.69-.85-20.52,1.41-5.84,5.2-10.88,8.87-15.75l.21-.27c3.75-4.73,7.88-10.45,10.26-17.14.84-1.93,1.23-3.63,1.2-5.22,0-.4-.02-.81-.08-1.2-.35-2.21-1.58-4.25-3.81-6.44-.41-.46-.83-.9-1.24-1.34-.85-.89-1.7-1.73-2.58-2.48-3.39-2.91-7.11-4.48-11.92-2.26-4.57,2.02-7.59,6.42-9.33,9.77-1.65,3.25-3.35,6.57-6.48,8.73-.84.63-1.8,1.21-2.73,1.77-2.26,1.37-4.4,2.66-5.39,4.9-2.21,5.89.37,12.45,2.86,18.8.7,1.77,1.35,3.44,1.9,5.09l1.12,2.84c3.91,9.94,7.95,20.21,12.19,30.19,2.81,6.73,6,14.35,7.95,22.09,3.25,11.38.84,23.11-1.91,34.15l-.04.15c-.18,1.1-.51,2.38-.87,3.72-1.04,4-2.34,8.97.22,10.69,3.66,1,8.44-4.15,11.31-7.24l.57-.61c4.81-5.41,8.62-9.7,7.15-16.16-1.99-5.98-4.37-12.14-6.67-18.09h-.01Z"/>
    </g>
  </g>
</svg>