<?xml version="1.0" encoding="UTF-8"?>
<svg id="_圖層_1" xmlns="http://www.w3.org/2000/svg" version="1.1" viewBox="0 0 236.41 236.41">
  <!-- Generator: Adobe Illustrator 29.5.1, SVG Export Plug-In . SVG Version: 2.1.0 Build 141)  -->
  <defs>
    <style>
      .st0, .st1 {
        fill: #dfb361;
      }

      .st2 {
        fill: #94242c;
      }

      .st3 {
        stroke-width: .5px;
      }

      .st3, .st4, .st1, .st5 {
        stroke: #dfb361;
      }

      .st3, .st4, .st5 {
        fill: none;
      }

      .st3, .st1, .st5 {
        stroke-miterlimit: 10;
      }

      .st4 {
        stroke-miterlimit: 10;
        stroke-width: 1px;
      }

      .st6 {
        fill: #c79f62;
      }
    </style>
  </defs>
  <rect class="st2" y="0" width="236.41" height="236.41"/>
  <g>
    <path class="st0" d="M121.97,185.73c-5.64,0-10.21,4.57-10.21,10.21s4.57,10.21,10.21,10.21,10.21-4.57,10.21-10.21-4.57-10.21-10.21-10.21ZM125.91,199.89h-7.89v-7.89h7.89v7.89Z"/>
    <g>
      <circle class="st5" cx="55.63" cy="76.49" r="11.58"/>
      <rect class="st5" x="51.15" y="72.02" width="8.95" height="8.95"/>
    </g>
    <g>
      <path class="st5" d="M149.9,39.73c3.78.82,7.75.73,11.27.08.12-.02.24-.05.36-.08-.85-2.44-3.17-4.18-5.89-4.18s-5.02,1.73-5.88,4.15c.05,0,.09.02.14.03Z"/>
      <path class="st5" d="M159.83,51.01h-8.09c-.73-.05-3.69-.18-4.35-.51-.3-.15-.57-.32-.8-.49-.59-.43-1.02-1.04-1.27-1.72-2.03-5.49-2.34-9.36-.73-10.32,1.45-.86,2.23,1.17,5.3,1.84,3.78.82,7.75.73,11.27.08,2.65-.49,3.76-2.78,5.36-1.81,1.7,1.03,1.64,5.31-.69,10.68-.31.71-.82,1.33-1.48,1.73-.04.02-.08.05-.12.07-.78.43-4.07.46-4.4.46h0Z"/>
    </g>
    <g>
      <path class="st0" d="M70.18,149.05c3.97.86,8.15.77,11.85.09.13-.02.25-.05.37-.08-.89-2.56-3.33-4.4-6.19-4.4s-5.28,1.82-6.18,4.36c.05,0,.1.02.15.04h0Z"/>
      <path class="st0" d="M80.63,161.41h-8.5c-.76-.05-3.88-.19-4.58-.53-.32-.16-.6-.33-.84-.51-.62-.46-1.07-1.09-1.34-1.81-2.13-5.78-2.46-9.84-.76-10.85,1.52-.91,2.34,1.23,5.58,1.93,3.97.86,8.15.77,11.85.09,2.79-.51,3.95-2.92,5.64-1.91,1.79,1.08,1.72,5.58-.73,11.23-.32.75-.86,1.4-1.56,1.82-.04.02-.08.05-.13.07-.82.45-4.28.49-4.63.48h0Z"/>
    </g>
    <g>
      <path class="st5" d="M176.9,136.93h0c2.07,2.56,2.25,6.15,2.02,7.71-.21,1.39-.77,2.65-1.41,3.55h0"/>
      <path class="st5" d="M176.9,136.93h0c2.07,2.56,2.25,6.15,2.02,7.71-.21,1.39-.77,2.65-1.41,3.55h0"/>
      <circle class="st1" cx="171.92" cy="142.69" r=".51"/>
      <circle class="st1" cx="171.92" cy="142.69" r=".51"/>
      <path class="st5" d="M185.42,137.65c4.36,1.56,6.47,3.38,7.3,5.12.02-.13.03-.27.03-.42.08-3.19-3.79-7.31-8.7-7.44-3.34-.09-5.91.6-7.24,2.05,2.4-.64,5.19-.53,8.61.69Z"/>
      <path class="st5" d="M185.42,137.65c4.36,1.56,6.47,3.38,7.3,5.12.02-.13.03-.27.03-.42.08-3.19-3.79-7.31-8.7-7.44-3.34-.09-5.91.6-7.24,2.05,2.4-.64,5.19-.53,8.61.69Z"/>
      <path class="st5" d="M190.02,149.77c-6,2.41-6.99,2.25-6.25,2.31,1.67.14,4.22,3.26,5.2,3.06,1.15-.24,3.15-7.74.46-8.64-.84-.28-1.32-.11-1.81.09-10.61,4.41-19.71-1.26-19.88-1.63-.21-.44.03-.96.39-1.39,4.22-5.08,8.86-8.93,17.36-5.89,12.82,4.58,6.24,11.4,4.52,12.09h0Z"/>
      <path class="st5" d="M190.02,149.77c-6,2.41-6.99,2.25-6.25,2.31,1.67.14,4.22,3.26,5.2,3.06,1.15-.24,3.15-7.74.46-8.64-.84-.28-1.32-.11-1.81.09-10.61,4.41-19.71-1.26-19.88-1.63-.21-.44.03-.96.39-1.39,4.22-5.08,8.86-8.93,17.36-5.89,12.82,4.58,6.24,11.4,4.52,12.09h0Z"/>
    </g>
    <g>
      <path class="st6" d="M47.85,135.05c.61.7,1.52,1.76,1.86,1.74.47-.1,1.99-2.47,2.61-4.98-.09.03-.17.05-.24.06-3.13.64-5.1.93-6.28,1.07.7.54,1.38,1.33,2.05,2.1h0Z"/>
      <path class="st0" d="M47.85,135.05c.61.7,1.52,1.76,1.86,1.74.47-.1,1.99-2.47,2.61-4.98-.09.03-.17.05-.24.06-3.13.64-5.1.93-6.28,1.07.7.54,1.38,1.33,2.05,2.1h0Z"/>
      <path class="st6" d="M49.18,117.36c-3.2-1.85-6-2.61-8.61-2.53,1.51,3.34.94,7.1.39,8.71-.41,1.19-1.08,2.35-1.89,3.29,3,.72,6.69,1.01,10.8.12.28-.06.56-.11.86-.11.43,0,.91.1,1.49.42.88.49,1.3,1.51,1.24,2.94,1.14-.8,2.45-2.17,2.74-3.95.47-2.89-1.96-5.97-7.03-8.9h0Z"/>
      <path class="st0" d="M49.18,117.36c-3.2-1.85-6-2.61-8.61-2.53,1.51,3.34.94,7.1.39,8.71-.41,1.19-1.08,2.35-1.89,3.29,3,.72,6.69,1.01,10.8.12.28-.06.56-.11.86-.11.43,0,.91.1,1.49.42.88.49,1.3,1.51,1.24,2.94,1.14-.8,2.45-2.17,2.74-3.95.47-2.89-1.96-5.97-7.03-8.9h0Z"/>
      <path class="st6" d="M39.77,114.89c-3.73.36-7.1,2.44-10.73,5.47-.25.21-.64.6-.59.97.34.42,2.64,2.44,6.26,4.04,1.01.45,2.2.89,3.55,1.26.86-.91,1.58-2.1,2-3.32.62-1.79.96-5.45-.48-8.42h0ZM33.17,120.38c-.32,0-.58-.26-.58-.58s.26-.58.58-.58.58.26.58.58-.26.58-.58.58Z"/>
      <path class="st0" d="M39.77,114.89c-3.73.36-7.1,2.44-10.73,5.47-.25.21-.64.6-.59.97.34.42,2.64,2.44,6.26,4.04,1.01.45,2.2.89,3.55,1.26.86-.91,1.58-2.1,2-3.32.62-1.79.96-5.45-.48-8.42h0ZM33.17,120.38c-.32,0-.58-.26-.58-.58s.26-.58.58-.58.58.26.58.58-.26.58-.58.58Z"/>
      <path class="st6" d="M48.27,113.93c-2.82-.59-5.21-.57-6.91.05,2.61.1,5.29.96,8.15,2.62,3.45,1.99,5.73,4.06,6.79,6.15.02-1.5-.62-3.23-1.8-4.8-1.57-2.08-3.78-3.5-6.23-4.02Z"/>
      <path class="st0" d="M48.27,113.93c-2.82-.59-5.21-.57-6.91.05,2.61.1,5.29.96,8.15,2.62,3.45,1.99,5.73,4.06,6.79,6.15.02-1.5-.62-3.23-1.8-4.8-1.57-2.08-3.78-3.5-6.23-4.02Z"/>
    </g>
    <path class="st0" d="M177.86,177.45c0-2.39-1.93-4.32-4.32-4.32-.46,0-.9.07-1.32.21v-.21c0-2.39-1.93-4.32-4.32-4.32s-4.32,1.93-4.32,4.32v.23c-.5-.21-1.06-.32-1.63-.32-2.39,0-4.32,1.93-4.32,4.32,0,2.05,1.43,3.77,3.34,4.21-.75.78-1.22,1.84-1.22,3,0,2.39,1.93,4.32,4.32,4.32,1.55,0,2.91-.82,3.67-2.04.76,1.23,2.12,2.04,3.67,2.04,2.39,0,4.32-1.93,4.32-4.32,0-1.13-.43-2.16-1.15-2.93,1.87-.47,3.26-2.17,3.26-4.19h.02ZM171.05,180.4c-2.11-1.1-4.39-1.07-6.59.1h-.02l-.05.03-.1-.36-.05-.09s0,0,.02,0h0c.6-.32,1.21-.56,1.83-.72l-.68-1.09h0c-.26,0-.47-.21-.47-.47s.21-.47.47-.47.47.21.47.47c0,.08-.02.15-.06.22l.76,1.23c.31-.06.62-.1.93-.11v-1.83c-.14-.08-.23-.23-.23-.41,0-.26.21-.47.47-.47s.47.21.47.47c0,.17-.1.32-.23.41v1.82c.3,0,.61.03.91.07l.68-1.17c-.04-.07-.06-.15-.06-.23,0-.26.21-.47.47-.47s.47.21.47.47-.21.47-.47.47l-.59,1.02c.64.14,1.27.37,1.88.69l-.22.42h0Z"/>
    <g>
      <path class="st5" d="M77.19,176.31c0-2.54-2.06-4.61-4.61-4.61-.49,0-.96.08-1.41.22v-.22c0-2.54-2.06-4.61-4.61-4.61s-4.61,2.06-4.61,4.61v.24c-.54-.22-1.13-.34-1.74-.34-2.54,0-4.61,2.06-4.61,4.61,0,2.19,1.52,4.01,3.56,4.49-.8.83-1.3,1.96-1.3,3.2,0,2.54,2.06,4.61,4.61,4.61,1.65,0,3.1-.87,3.91-2.18.81,1.31,2.26,2.18,3.91,2.18,2.54,0,4.61-2.06,4.61-4.61,0-1.2-.46-2.3-1.22-3.12,2-.5,3.48-2.31,3.48-4.47h.03Z"/>
      <path class="st3" d="M62.77,179.35h.03c2.39-1.28,4.9-1.35,7.26-.12h0"/>
      <line class="st3" x1="65.02" y1="178.46" x2="63.87" y2="176.59"/>
      <line class="st3" x1="66.41" y1="178.23" x2="66.41" y2="175.72"/>
      <line class="st3" x1="67.76" y1="178.47" x2="68.85" y2="176.58"/>
      <circle class="st0" cx="63.92" cy="176.67" r=".5"/>
      <circle class="st0" cx="66.41" cy="175.72" r=".5"/>
      <circle class="st0" cx="68.79" cy="176.67" r=".5"/>
    </g>
    <g>
      <path class="st5" d="M77.12,98.06c1.31-.72,2.07-1.86,1.79-2.87-.36-1.3-2.31-1.9-4.35-1.34-.69.19-1.26.64-1.72,1.15-1.21-.47-2.53-.73-3.91-.73-5.93,0-10.74,4.81-10.74,10.74s4.81,10.74,10.74,10.74,10.74-4.81,10.74-10.74c0-2.65-.96-5.07-2.55-6.95Z"/>
      <circle class="st0" cx="60.66" cy="107.73" r=".55"/>
      <circle class="st0" cx="61.76" cy="109.96" r=".55"/>
      <circle class="st0" cx="63.35" cy="111.77" r=".55"/>
      <circle class="st0" cx="63.72" cy="108.63" r=".55"/>
      <circle class="st0" cx="65.36" cy="110.29" r=".55"/>
      <path class="st5" d="M75.89,98.57c-2.04.56-4.35-1.34-4.35-1.34,0,0,1.01-2.82,3.05-3.38s3.99.04,4.35,1.34-1.01,2.82-3.05,3.38Z"/>
    </g>
    <g>
      <path class="st0" d="M114.64,168.07c-.38.21-.8.38-1.26.51-2.09.58-4.47-1.41-4.47-1.41,0,0,.43-1.24,1.31-2.26-1.08-.39-2.25-.61-3.46-.61-5.58,0-10.1,4.52-10.1,10.1s4.52,10.1,10.1,10.1,10.1-4.52,10.1-10.1c0-2.39-.83-4.59-2.23-6.32h.01ZM98.99,177.47c-.29,0-.52-.23-.52-.52s.23-.52.52-.52.52.23.52.52-.23.52-.52.52ZM100.02,179.57c-.29,0-.52-.23-.52-.52s.23-.52.52-.52.52.23.52.52-.23.52-.52.52ZM101.51,181.28c-.29,0-.52-.23-.52-.52s.23-.52.52-.52.52.23.52.52-.23.52-.52.52ZM101.86,178.32c-.29,0-.52-.23-.52-.52s.23-.52.52-.52.52.23.52.52-.23.52-.52.52ZM103.63,179.83c-.26.12-.57.02-.69-.24-.12-.26-.02-.57.24-.69.26-.12.57-.02.69.24.12.26.02.57-.24.69Z"/>
      <path class="st0" d="M113.26,168.14c-1.75.48-3.72-1.15-3.72-1.15,0,0,.86-2.41,2.6-2.89s3.41.04,3.72,1.15-.86,2.41-2.6,2.89Z"/>
    </g>
    <path class="st0" d="M151.92,90.56c1.65,1.65,2.47,3.74,2.47,6.21v18.86h-5.91v-18.86c0-.82-.22-1.5-.75-2.17-.52-.52-1.2-.82-2.02-.82h-51.2c-.82,0-1.42.3-1.95.82-.52.67-.82,1.35-.82,2.17v18.86h-5.91v-18.86c0-2.4.9-4.57,2.54-6.21s3.74-2.47,6.14-2.47h22.61v-6.21h5.99v6.21h22.61c2.47,0,4.49.75,6.21,2.47h-.01ZM148.11,125.67v12.35c0,3.82-1.27,7.04-3.82,9.73s-5.69,3.97-9.58,3.97h-29.2c-3.89,0-7.04-1.27-9.58-3.97s-3.82-5.91-3.82-9.73v-12.35h56ZM117.11,136v-5.24h-19.01v5.24h19.01ZM101.24,144.91c1.42,1.2,2.77,1.8,4.27,1.8h11.6v-5.61h-18.57c.45,1.42,1.27,2.77,2.7,3.82h0ZM140.7,103.59h-41.17v-5.09h41.17v5.09ZM99.52,121.63v-14h41.17v14h-41.17ZM105.14,112.34v4.57h29.94v-4.57h-29.94ZM142.12,136v-5.24h-19.01v5.24h19.01ZM138.97,144.91c1.42-1.05,2.25-2.4,2.7-3.82h-18.57v5.61h11.6c1.5,0,2.84-.6,4.27-1.8h0Z"/>
    <g>
      <path class="st0" d="M180,73.84c-.38.21-.8.38-1.26.51-2.09.58-4.47-1.41-4.47-1.41,0,0,.43-1.24,1.31-2.26-1.08-.39-2.25-.61-3.46-.61-5.58,0-10.1,4.52-10.1,10.1s4.52,10.1,10.1,10.1,10.1-4.52,10.1-10.1c0-2.39-.83-4.59-2.23-6.32h0ZM164.35,83.24c-.29,0-.52-.23-.52-.52s.23-.52.52-.52.52.23.52.52-.23.52-.52.52ZM165.38,85.34c-.29,0-.52-.23-.52-.52s.23-.52.52-.52.52.23.52.52-.23.52-.52.52ZM166.87,87.05c-.29,0-.52-.23-.52-.52s.23-.52.52-.52.52.23.52.52-.23.52-.52.52ZM167.22,84.09c-.29,0-.52-.23-.52-.52s.23-.52.52-.52.52.23.52.52-.23.52-.52.52ZM169,85.6c-.26.12-.57.02-.69-.24-.12-.26-.02-.57.24-.69.26-.12.57-.02.69.24.12.26.02.57-.24.69Z"/>
      <path class="st0" d="M178.62,73.91c-1.75.48-3.72-1.15-3.72-1.15,0,0,.86-2.41,2.6-2.89s3.41.04,3.72,1.15-.86,2.41-2.6,2.89Z"/>
    </g>
    <g>
      <circle class="st5" cx="196.39" cy="112.53" r="11.58"/>
      <rect class="st5" x="191.91" y="108.06" width="8.95" height="8.95"/>
    </g>
    <path class="st0" d="M119.31,50.72c-5.64,0-10.21,4.57-10.21,10.21s4.57,10.21,10.21,10.21,10.21-4.57,10.21-10.21-4.57-10.21-10.21-10.21ZM123.26,64.88h-7.89v-7.89h7.89v7.89Z"/>
    <path class="st0" d="M177.85,109.38c0-2.39-1.93-4.32-4.32-4.32-.46,0-.9.07-1.32.21v-.21c0-2.39-1.93-4.32-4.32-4.32s-4.32,1.93-4.32,4.32v.23c-.5-.21-1.06-.32-1.63-.32-2.39,0-4.32,1.93-4.32,4.32,0,2.05,1.43,3.77,3.34,4.21-.75.78-1.22,1.84-1.22,3,0,2.39,1.93,4.32,4.32,4.32,1.55,0,2.91-.82,3.67-2.04.76,1.23,2.12,2.04,3.67,2.04,2.39,0,4.32-1.93,4.32-4.32,0-1.13-.43-2.16-1.15-2.93,1.87-.47,3.26-2.17,3.26-4.19h.02ZM171.04,112.33c-2.11-1.1-4.39-1.07-6.59.1h-.02l-.05.03-.1-.36-.05-.09s0,0,.02-.01h0c.6-.32,1.21-.56,1.83-.72l-.68-1.09h0c-.26,0-.47-.21-.47-.47s.21-.47.47-.47.47.21.47.47c0,.08-.02.15-.06.22l.76,1.23c.31-.06.62-.1.93-.11v-1.83c-.14-.08-.23-.23-.23-.41,0-.26.21-.47.47-.47s.47.21.47.47c0,.17-.1.32-.23.41v1.82c.3,0,.61.03.91.07l.68-1.17c-.04-.07-.06-.15-.06-.23,0-.26.21-.47.47-.47s.47.21.47.47-.21.47-.47.47l-.59,1.02c.64.14,1.27.37,1.88.69l-.22.42h0Z"/>
    <g>
      <path class="st5" d="M96.44,66.84c0-2.54-2.06-4.61-4.61-4.61-.49,0-.96.08-1.41.22v-.22c0-2.54-2.06-4.61-4.61-4.61s-4.61,2.06-4.61,4.61v.24c-.54-.22-1.13-.34-1.74-.34-2.54,0-4.61,2.06-4.61,4.61,0,2.19,1.52,4.01,3.56,4.49-.8.83-1.3,1.96-1.3,3.2,0,2.54,2.06,4.61,4.61,4.61,1.65,0,3.1-.87,3.91-2.18.81,1.31,2.26,2.18,3.91,2.18,2.54,0,4.61-2.06,4.61-4.61,0-1.2-.46-2.3-1.22-3.12,2-.5,3.48-2.31,3.48-4.47h.03Z"/>
      <path class="st3" d="M82.02,69.88h.03c2.39-1.28,4.9-1.35,7.26-.12h0"/>
      <line class="st3" x1="84.27" y1="68.99" x2="83.12" y2="67.13"/>
      <line class="st3" x1="85.66" y1="68.76" x2="85.66" y2="66.25"/>
      <line class="st3" x1="87.01" y1="69" x2="88.1" y2="67.11"/>
      <circle class="st0" cx="83.17" cy="67.2" r=".5"/>
      <circle class="st0" cx="85.66" cy="66.25" r=".5"/>
      <circle class="st0" cx="88.04" cy="67.2" r=".5"/>
    </g>
    <g>
      <path class="st0" d="M72.97,39.49c3.97.86,8.15.77,11.85.09.13-.02.25-.05.37-.08-.89-2.56-3.33-4.4-6.19-4.4s-5.28,1.82-6.18,4.36c.05,0,.1.02.15.04h0Z"/>
      <path class="st0" d="M83.41,51.84h-8.5c-.76-.05-3.88-.19-4.58-.53-.32-.16-.6-.33-.84-.51-.62-.46-1.07-1.09-1.34-1.81-2.13-5.78-2.46-9.84-.76-10.85,1.52-.91,2.34,1.23,5.58,1.93,3.97.86,8.15.77,11.85.09,2.79-.51,3.95-2.92,5.64-1.91,1.79,1.08,1.72,5.58-.73,11.23-.32.75-.86,1.4-1.56,1.82-.04.02-.08.05-.13.07-.82.45-4.28.49-4.63.48h0Z"/>
    </g>
    <g>
      <path class="st5" d="M135.86,163.81c3.78.82,7.75.73,11.27.08.12-.02.24-.05.36-.08-.85-2.44-3.17-4.18-5.89-4.18s-5.02,1.73-5.88,4.15c.05,0,.09.02.14.03Z"/>
      <path class="st5" d="M145.79,175.08h-8.09c-.73-.05-3.69-.18-4.35-.51-.3-.15-.57-.32-.8-.49-.59-.43-1.02-1.04-1.27-1.72-2.03-5.49-2.34-9.36-.73-10.32,1.45-.86,2.23,1.17,5.3,1.84,3.78.82,7.75.73,11.27.08,2.65-.49,3.76-2.78,5.36-1.81,1.7,1.03,1.64,5.31-.69,10.68-.31.71-.82,1.33-1.48,1.73-.04.02-.08.05-.12.07-.78.43-4.07.46-4.4.46h0Z"/>
    </g>
    <circle class="st0" cx="36.41" cy="95.59" r="2.66"/>
    <circle class="st0" cx="85.34" cy="194.12" r="2.66"/>
    <circle class="st0" cx="164.68" cy="131.64" r="2.66"/>
    <circle class="st0" cx="196.39" cy="161.83" r="2.66"/>
    <circle class="st5" cx="129.67" cy="32.66" r="2.4"/>
    <circle class="st5" cx="178.09" cy="60.03" r="2.4"/>
    <rect class="st4" x="103.05" y="33.49" width="5.49" height="5.49" transform="translate(5.37 85.42) rotate(-45)"/>
    <rect class="st4" x="69.6" y="129.8" width="5.49" height="5.49" transform="translate(-72.54 89.98) rotate(-45)"/>
    <rect class="st4" x="83.82" y="172.47" width="5.49" height="5.49" transform="translate(-98.54 112.53) rotate(-45)"/>
    <rect class="st4" x="163.2" y="156.29" width="5.49" height="5.49" transform="translate(-63.85 163.92) rotate(-45)"/>
    <rect class="st0" x="43.06" y="156.34" width="5.49" height="5.49" transform="translate(-99.08 78.99) rotate(-45)"/>
    <rect class="st0" x="141.79" y="188.26" width="5.49" height="5.49" transform="translate(-92.73 158.14) rotate(-45)"/>
    <rect class="st0" x="192.23" y="87.52" width="5.49" height="5.49" transform="translate(-6.72 164.3) rotate(-45)"/>
    <rect class="st0" x="149.17" y="61.71" width="5.49" height="5.49" transform="translate(-1.08 126.3) rotate(-45)"/>
  </g>
</svg>