<?xml version="1.0" encoding="UTF-8"?>
<svg id="_レイヤー_1" data-name="レイヤー 1" xmlns="http://www.w3.org/2000/svg" xmlns:xlink="http://www.w3.org/1999/xlink" viewBox="0 0 226.77 340.16">
  <defs>
    <style>
      .cls-1 {
        stroke: #e10316;
      }

      .cls-1, .cls-2, .cls-3, .cls-4, .cls-5, .cls-6, .cls-7, .cls-8, .cls-9, .cls-10, .cls-11, .cls-12, .cls-13, .cls-14, .cls-15, .cls-16, .cls-17, .cls-18, .cls-19, .cls-20, .cls-21, .cls-22, .cls-23, .cls-24, .cls-25, .cls-26, .cls-27, .cls-28, .cls-29 {
        fill: none;
        stroke-miterlimit: 10;
      }

      .cls-30 {
        fill: #b91d25;
      }

      .cls-2 {
        stroke: #a01939;
      }

      .cls-31 {
        font-family: NotoSerifTC-Regular, 'Noto Serif TC';
        font-size: 13.95px;
        font-variation-settings: 'wght' 400;
      }

      .cls-31, .cls-32 {
        fill: #fff;
      }

      .cls-3 {
        stroke: #871c42;
      }

      .cls-4 {
        stroke: #941b3d;
      }

      .cls-5 {
        stroke: #f3a17d;
      }

      .cls-33 {
        fill: #6a1318;
      }

      .cls-6 {
        stroke: #ea4f2d;
      }

      .cls-7 {
        stroke: #ca1026;
      }

      .cls-8 {
        stroke: #be142c;
      }

      .cls-34 {
        fill: #9c2429;
      }

      .cls-35 {
        fill: #d82c36;
      }

      .cls-9 {
        stroke: #f1946e;
      }

      .cls-10 {
        stroke: #9a1a3b;
      }

      .cls-11 {
        stroke: #ad1834;
      }

      .cls-12 {
        stroke: #f5ae8d;
      }

      .cls-13 {
        stroke: #d00e23;
      }

      .cls-36 {
        opacity: .31;
      }

      .cls-37 {
        fill: url(#_名称未設定グラデーション_14);
      }

      .cls-38 {
        fill: #db5162;
      }

      .cls-14 {
        stroke: #8e1b3f;
      }

      .cls-15 {
        stroke: #b31632;
      }

      .cls-39 {
        fill: #801f22;
      }

      .cls-40 {
        fill: #b81d25;
      }

      .cls-16 {
        stroke: #dc071b;
      }

      .cls-17 {
        stroke: #a71936;
      }

      .cls-18 {
        stroke: #811c44;
      }

      .cls-19 {
        stroke: #e7291a;
      }

      .cls-20 {
        stroke: #e60012;
      }

      .cls-41 {
        fill: #5a0d11;
      }

      .cls-21 {
        stroke: #e83e23;
      }

      .cls-22 {
        stroke: #eb5e38;
      }

      .cls-23 {
        stroke: #ee7951;
      }

      .cls-42 {
        fill: #8f2024;
      }

      .cls-24 {
        stroke: #d60b1f;
      }

      .cls-25 {
        stroke: #b9152f;
      }

      .cls-43 {
        fill: #902024;
      }

      .cls-26 {
        stroke: #c41229;
      }

      .cls-44 {
        fill: #2f0609;
      }

      .cls-27 {
        stroke: #f7ba9d;
      }

      .cls-28 {
        stroke: #f0875f;
      }

      .cls-45 {
        fill: #450a0e;
      }

      .cls-46 {
        fill: #ec717b;
      }

      .cls-47 {
        fill: #450a0f;
      }

      .cls-32 {
        font-family: KozGoPr6N-Regular-90ms-RKSJ-H, 'Kozuka Gothic Pr6N';
        font-size: 4.28px;
      }

      .cls-48 {
        fill: #dd363b;
      }

      .cls-29 {
        stroke: #ec6c44;
      }
    </style>
    <linearGradient id="_名称未設定グラデーション_14" data-name="名称未設定グラデーション 14" x1=".24" y1="359.6" x2="170.74" y2="75.11" gradientUnits="userSpaceOnUse">
      <stop offset="0" stop-color="#8c1d49"/>
      <stop offset="1" stop-color="#e71f19"/>
    </linearGradient>
  </defs>
  <rect class="cls-37" x="-8.59" y="-8.59" width="244.35" height="358.12"/>
  <g>
    <path class="cls-18" d="M42.84-26.53S199.56-8.23,171.19,452.41"/>
    <path class="cls-3" d="M48.5-27.72s151.82,19.01,125.54,480.04"/>
    <path class="cls-14" d="M54.16-28.91s146.92,19.72,122.72,481.14"/>
    <path class="cls-4" d="M59.82-30.1s142.02,20.43,119.9,482.24"/>
    <path class="cls-10" d="M65.48-31.29s137.12,21.14,117.09,483.34"/>
    <path class="cls-2" d="M71.14-32.48s132.22,21.85,114.27,484.44"/>
    <path class="cls-17" d="M76.8-33.67s127.32,22.56,111.45,485.54"/>
    <path class="cls-11" d="M82.46-34.86s122.42,23.27,108.64,486.64"/>
    <path class="cls-15" d="M88.13-36.05s117.52,23.97,105.82,487.74"/>
    <path class="cls-25" d="M93.79-37.24s112.62,24.68,103,488.84"/>
    <path class="cls-8" d="M99.45-38.43s107.71,25.39,100.19,489.94"/>
    <path class="cls-26" d="M105.11-39.62s102.81,26.1,97.37,491.04"/>
    <path class="cls-7" d="M110.77-40.81s97.91,26.81,94.55,492.15"/>
    <path class="cls-13" d="M116.43-42s93.01,27.52,91.74,493.25"/>
    <path class="cls-24" d="M122.09-43.19s88.11,28.23,88.92,494.35"/>
    <path class="cls-16" d="M127.75-44.38s83.21,28.94,86.1,495.45"/>
    <path class="cls-1" d="M133.41-45.57s78.31,29.64,83.29,496.55"/>
    <path class="cls-20" d="M139.07-46.76s73.41,30.35,80.47,497.65"/>
  </g>
  <g>
    <path class="cls-27" d="M222.81-40.79s25.91,328.91,28.4,493.84"/>
    <path class="cls-12" d="M215.2-41.33s30.23,301.77,33.13,494.19"/>
    <path class="cls-5" d="M207.59-41.88s34.55,274.63,37.87,494.53"/>
    <path class="cls-9" d="M199.97-42.42s38.87,247.49,42.6,494.88"/>
    <path class="cls-28" d="M192.36-42.96s43.18,220.35,47.34,495.22"/>
    <path class="cls-23" d="M184.75-43.51s47.5,193.2,52.07,495.57"/>
    <path class="cls-29" d="M177.14-44.05s51.82,166.06,56.8,495.92"/>
    <path class="cls-22" d="M169.52-44.59s56.14,138.92,61.54,496.26"/>
    <path class="cls-6" d="M161.91-45.13s60.46,111.78,66.27,496.61"/>
    <path class="cls-21" d="M154.3-45.68s64.78,84.64,71,496.96"/>
    <path class="cls-19" d="M146.69-46.22s69.09,57.49,75.74,497.3"/>
    <path class="cls-20" d="M139.07-46.76s73.41,30.35,80.47,497.65"/>
  </g>
  <g class="cls-36">
    <path class="cls-47" d="M-6.9,327.76c0-2.87,0-5.75,0-8.62,2-1.15,4-2.3,5.99-3.46,1.53-.9,3.16-1.64,4.55-2.78.08,0,.16.02.25.03,0,6.94,0,13.89,0,20.83-.09,0-.18,0-.27.01-3.5-2-7.01-4-10.51-6Z"/>
    <path class="cls-43" d="M-6.9,265.16c0-2.87,0-5.74,0-8.61.96-.56,1.93-1.1,2.88-1.68,2.53-1.57,5.23-2.84,7.66-4.55.08,0,.16.02.24.02,0,6.94,0,13.88,0,20.82-.09,0-.17.01-.26.02-3.51-2.01-7.02-4.02-10.53-6.03Z"/>
    <path class="cls-43" d="M-6.9,202.59c0-2.87,0-5.74,0-8.61.96-.56,1.93-1.1,2.88-1.68,2.53-1.57,5.23-2.84,7.66-4.55.08,0,.16.02.24.02,0,6.94.01,13.88.02,20.82-.09,0-.18.01-.27.02-3.51-2.01-7.02-4.02-10.53-6.03Z"/>
    <path class="cls-34" d="M3.63,208.62c.09,0,.18-.01.27-.02.07,0,.14.01.2.02,0,.08,0,.15.01.23-.41.39-.24.9-.24,1.36-.03,6.36-.04,12.73-.06,19.09-.43-.2-.88-.37-1.29-.61-3.15-1.8-6.28-3.61-9.42-5.42,0-2.81,0-5.62,0-8.43.59-.33,1.18-.65,1.76-1,2.91-1.77,5.97-3.27,8.78-5.21Z"/>
    <path class="cls-34" d="M3.63,271.19l.26-.02-.02.02c0,1.91,0,3.82,0,5.73-.02,4.98-.04,9.95-.06,14.93-.43-.2-.88-.37-1.29-.61-3.14-1.8-6.28-3.61-9.42-5.42,0-2.81,0-5.62,0-8.43.59-.33,1.18-.65,1.76-1,2.91-1.77,5.97-3.27,8.78-5.21Z"/>
    <path class="cls-40" d="M3.88,250.35c-.08,0-.16-.02-.24-.02-3.51-2.06-7.02-4.12-10.53-6.17,0-2.8-.01-5.61-.02-8.41.39-.2.78-.38,1.16-.59,3.21-1.78,6.3-3.79,9.6-5.43,0,6.86,0,13.72-.01,20.59l.04.04Z"/>
    <path class="cls-33" d="M3.61,333.77c.09,0,.18,0,.27-.01.08,0,.16.02.24.03,0,.07,0,.14,0,.21-.41.39-.24.9-.24,1.35-.01,4.17,0,8.34-.01,12.52-3.59,0-7.18.02-10.76.03,0-2.63,0-5.27,0-7.9,2.17-1.24,4.34-2.47,6.51-3.73,1.36-.79,2.81-1.44,4.01-2.5Z"/>
    <path class="cls-47" d="M3.85,229.72c-3.3,1.64-6.39,3.64-9.6,5.43-.38.21-.77.4-1.16.59-.1-4.16-.11-8.32,0-12.48,3.14,1.81,6.28,3.62,9.42,5.42.41.24.86.41,1.29.61,0,.07.02.14.04.21-.01.05-.02.09,0,.14v.08Z"/>
    <path class="cls-47" d="M3.85,292.29c-3.3,1.64-6.39,3.64-9.6,5.43-.38.21-.77.4-1.16.59-.1-4.16-.11-8.32,0-12.48,3.14,1.81,6.27,3.62,9.42,5.42.41.24.86.41,1.29.61,0,0,.01.03.01.03,0,.11.01.22.02.33v.08Z"/>
    <path class="cls-44" d="M-6.89,306.72c3.51,2.06,7.02,4.12,10.53,6.17-1.38,1.14-3.01,1.89-4.55,2.78-1.99,1.16-3.99,2.31-5.99,3.46,0-4.14,0-8.28,0-12.42Z"/>
    <path class="cls-30" d="M-6.89,244.15c3.51,2.06,7.02,4.12,10.53,6.17-2.44,1.72-5.14,2.98-7.66,4.55-.94.58-1.92,1.12-2.88,1.68,0-4.14,0-8.27.01-12.41Z"/>
    <path class="cls-30" d="M-6.89,181.58c3.51,2.06,7.02,4.12,10.53,6.17-2.44,1.72-5.14,2.98-7.66,4.55-.94.58-1.92,1.12-2.88,1.68,0-4.14,0-8.27.01-12.41Z"/>
    <path class="cls-35" d="M3.63,208.62c-2.8,1.94-5.87,3.44-8.78,5.21-.58.35-1.17.67-1.76,1,0-4.08,0-8.16,0-12.24,3.51,2.01,7.02,4.02,10.53,6.03Z"/>
    <path class="cls-41" d="M3.63,271.19c-2.8,1.94-5.87,3.44-8.78,5.21-.58.35-1.17.67-1.76,1,0-4.08,0-8.16,0-12.24,3.51,2.01,7.02,4.02,10.53,6.03Z"/>
    <path class="cls-47" d="M3.61,333.77c-1.19,1.06-2.64,1.71-4.01,2.5-2.16,1.25-4.34,2.48-6.51,3.73,0-4.08,0-8.15,0-12.23,3.5,2,7.01,4,10.51,6Z"/>
    <path class="cls-33" d="M28.34,347.95c-.1-.03-.2-.05-.29-.08-1.89-1.38-4.02-2.35-5.99-3.59.68-.64,1.54-.98,2.32-1.44,5.13-2.96,10.27-5.9,15.41-8.85.09,0,.17,0,.26,0,0,4.62,0,9.24,0,13.87-3.9.03-7.8.06-11.7.08Z"/>
    <path class="cls-47" d="M40.04,347.87c0-4.62,0-9.24,0-13.87,0-.07,0-.15,0-.22.07,0,.14,0,.21.02.17.34.5.5.81.68,4.14,2.39,8.27,4.81,12.43,7.16,1.48.84,2.86,1.89,4.51,2.41.09.02.17.04.26.06,0,.07,0,.13-.01.2-.1.07-.19.14-.29.22-2.25.76-4.09,2.25-6.15,3.35-3.92,0-7.85,0-11.77,0Z"/>
    <path class="cls-47" d="M87.99,347.87c-4,0-7.99,0-11.99,0,0-4.63-.02-9.26-.03-13.89,0,0,.01.02.01.02.09-.01.17-.03.26-.04,1.9,1.08,3.8,2.16,5.7,3.26,4.02,2.33,8.04,4.68,12.05,7.02-1.88,1.42-4.08,2.3-6,3.64Z"/>
    <path class="cls-44" d="M75.98,333.98c0,4.63.02,9.26.03,13.89-3.83.03-7.66.05-11.49.08-.1-.02-.21-.05-.31-.08-1.98-1.19-3.96-2.38-5.95-3.56,0-.07,0-.13.01-.2,1.59-.91,3.17-1.83,4.76-2.74,4.32-2.47,8.63-4.93,12.95-7.39Z"/>
    <path class="cls-33" d="M124.17,347.87c-4,0-7.99,0-11.99,0,0-4.18,0-8.36,0-12.54,0-.45-.18-.97.28-1.34,5.92,3.42,11.83,6.84,17.75,10.26-2.02,1.21-4.03,2.41-6.05,3.62Z"/>
    <path class="cls-47" d="M112.47,333.99c-.46.37-.28.88-.28,1.34-.01,4.18,0,8.36,0,12.54-3.83.02-7.67.05-11.5.07-.1-.02-.21-.05-.31-.07-1.94-1.33-4.14-2.23-6.03-3.65-.02-.05-.03-.11-.02-.16.19-.07.38-.11.55-.21,4.23-2.44,8.47-4.84,12.67-7.33,1.49-.88,3.15-1.51,4.41-2.75.09,0,.17,0,.26-.01.08.02.16.03.24.05,0,.07,0,.13.01.2Z"/>
    <path class="cls-47" d="M136.68,347.96c-.1-.03-.19-.05-.29-.08-1.89-1.34-3.93-2.43-5.97-3.52-.03-.04-.06-.08-.08-.12,0-.05.02-.11.04-.16.15-.05.32-.07.45-.14,4.11-2.37,8.25-4.7,12.33-7.12,1.67-.99,3.49-1.73,4.96-3.05.09,0,.18,0,.27-.01.08,0,.16.02.24.03,0,.07,0,.14,0,.21-.41.39-.24.9-.24,1.35-.01,4.17,0,8.34-.01,12.52-3.9.03-7.79.06-11.69.1Z"/>
    <path class="cls-47" d="M148.37,347.87c0-4.17,0-8.34.01-12.52,0-.46-.17-.96.24-1.35,2.96,1.71,5.91,3.45,8.9,5.13,2.94,1.66,5.79,3.5,8.83,4.98,0,.07,0,.14,0,.21,0,.07-.01.15-.03.22-2.16.82-4.06,2.1-5.97,3.34-3.99,0-7.98,0-11.98-.01Z"/>
    <path class="cls-42" d="M172.85,347.95c-.1-.03-.2-.05-.29-.08-1.89-1.38-4.02-2.35-5.99-3.59,5.83-3.57,11.78-6.92,17.73-10.29.08,0,.17,0,.25,0,0,4.62,0,9.25,0,13.87-3.9.03-7.8.06-11.7.08Z"/>
    <path class="cls-33" d="M184.55,347.87c0-4.62,0-9.25,0-13.87,0-.07.01-.14.01-.21.07,0,.14,0,.21.02.17.34.5.5.81.68,4.14,2.39,8.27,4.81,12.43,7.16,1.48.84,2.86,1.89,4.51,2.41.09.02.17.04.26.06,0,.07,0,.13-.01.2-.1.07-.19.14-.29.22-2.25.76-4.09,2.25-6.15,3.35-3.92,0-7.85,0-11.77,0Z"/>
    <path class="cls-47" d="M3.86,347.87c0-4.17,0-8.34.01-12.52,0-.46-.17-.96.24-1.35,2.96,1.71,5.91,3.45,8.9,5.13,2.94,1.66,5.79,3.5,8.83,4.98,0,.07,0,.14,0,.21,0,.07-.01.15-.03.22-2.16.82-4.06,2.1-5.97,3.34-3.99,0-7.98,0-11.98-.01Z"/>
    <path class="cls-45" d="M4.12,333.78c-.08-.01-.16-.02-.24-.03,0-6.94,0-13.89,0-20.83,0,0-.04-.05-.04-.05.09.02.17.03.26.05.43.63,1.17.8,1.78,1.15,5.3,3.08,10.62,6.12,15.93,9.18.01.08.03.15.05.23-.02.06-.03.12-.04.18-.35.17-.72.33-1.06.53-5.55,3.2-11.1,6.4-16.64,9.6Z"/>
    <path class="cls-39" d="M3.89,271.17c0-6.94,0-13.88,0-20.82,0,0-.04-.04-.04-.04.09,0,.17.02.26.02,5.81,3.61,11.81,6.9,17.73,10.33,0,.07.02.14.02.21-.07.08-.14.15-.22.23-5.84,3.37-11.69,6.74-17.53,10.12-.08,0-.16-.02-.23-.02l.02-.02Z"/>
    <path class="cls-46" d="M4.1,208.62c-.07-.01-.14-.02-.2-.02,0-6.94-.01-13.88-.02-20.82,0,0-.04-.04-.04-.04.09,0,.17.02.26.02,5.81,3.61,11.81,6.9,17.73,10.33,0,.07.02.14.02.21-.07.08-.14.15-.21.23-5.85,3.36-11.69,6.73-17.54,10.09Z"/>
    <path class="cls-48" d="M3.84,229.5c-.01-.07-.03-.14-.04-.21.02-6.36.03-12.73.06-19.09,0-.46-.16-.96.24-1.36,2.66,1.51,5.32,3.04,7.99,4.54,3.25,1.84,6.41,3.83,9.74,5.52,0,0-.01.09,0,.09,0,.07.01.13.02.2-.02.06-.04.12-.06.19-.55-.02-.99.29-1.44.54-1.45.83-2.89,1.68-4.33,2.52-4.06,2.35-8.12,4.71-12.18,7.06Z"/>
    <path class="cls-38" d="M21.84,218.91c-3.33-1.69-6.49-3.69-9.74-5.52-2.67-1.51-5.32-3.03-7.99-4.54,0-.08-.01-.15-.01-.23,5.85-3.36,11.69-6.73,17.54-10.09.3.34.2.75.21,1.14,0,6.41,0,12.83,0,19.24Z"/>
    <path class="cls-30" d="M3.86,271.19c.08,0,.16.02.23.02.18.15.34.33.54.45,2.65,1.54,5.3,3.09,7.97,4.59,3.08,1.74,6.07,3.64,9.24,5.23,0,0,0,.09,0,.09,0,.07.01.13.02.2-.02.06-.04.12-.06.19-.42-.02-.77.17-1.12.37-2.85,1.64-5.69,3.32-8.56,4.93-2.76,1.55-5.4,3.35-8.31,4.63,0,0-.01-.03-.01-.03.02-4.98.04-9.95.06-14.93,0-1.91,0-3.82,0-5.73Z"/>
    <path class="cls-47" d="M4.1,312.93c-.09-.02-.17-.03-.26-.05,0-6.86,0-13.72.01-20.58,0,0-.01-.08-.01-.08.36.18.72.34,1.07.54,5.56,3.21,11.12,6.42,16.68,9.63,0,.13-.02.26-.03.39-3.53,2.02-7.08,4.01-10.59,6.06-2.3,1.34-4.7,2.52-6.86,4.1Z"/>
    <path class="cls-39" d="M4.1,250.33c-.09,0-.17-.02-.26-.02,0-6.86,0-13.72.01-20.59,0,0-.01-.08-.01-.08.36.18.72.34,1.06.54,5.56,3.21,11.12,6.42,16.68,9.63,0,.13-.02.26-.03.39-3.53,2.01-7.07,4.01-10.59,6.05-2.3,1.34-4.69,2.55-6.87,4.09Z"/>
    <path class="cls-33" d="M4.12,333.78c5.55-3.2,11.09-6.4,16.64-9.6.34-.2.71-.35,1.06-.53,0,6.82.01,13.63.02,20.45-3.04-1.49-5.88-3.33-8.83-4.98-2.98-1.68-5.93-3.41-8.9-5.13,0-.07,0-.14,0-.21Z"/>
    <path class="cls-46" d="M21.58,239.81c-5.56-3.21-11.12-6.42-16.68-9.63-.34-.2-.71-.36-1.06-.54,0-.05,0-.1,0-.14,4.06-2.35,8.12-4.7,12.18-7.06,1.45-.84,2.88-1.69,4.33-2.52.44-.25.88-.56,1.44-.54.01,6.8.03,13.6.04,20.4-.09,0-.17.02-.26.03Z"/>
    <path class="cls-41" d="M21.58,302.38c-5.56-3.21-11.12-6.42-16.68-9.63-.34-.2-.71-.36-1.07-.54,0-.11-.01-.22-.02-.33,2.91-1.29,5.54-3.08,8.31-4.63,2.87-1.61,5.71-3.29,8.56-4.93.34-.2.7-.39,1.12-.37.01,6.8.03,13.6.04,20.4-.09,0-.17.02-.26.03Z"/>
    <path class="cls-44" d="M21.86,323.48c-.02-.08-.03-.15-.05-.23,0,0,.04-.08.04-.08.51.03.91-.28,1.31-.51,3.27-1.88,6.55-3.76,9.8-5.68,2.29-1.35,4.7-2.49,6.85-4.08.07-.01.15-.02.22-.02,0,.08,0,.16,0,.23,0,6.89,0,13.78,0,20.67,0,.07,0,.15,0,.22-.09,0-.17,0-.26,0-.13-.14-.24-.33-.4-.42-5.84-3.37-11.69-6.73-17.53-10.1Z"/>
    <path class="cls-33" d="M21.86,323.48c5.84,3.36,11.69,6.72,17.53,10.1.16.09.27.28.4.42-5.14,2.95-10.28,5.89-15.41,8.85-.79.46-1.65.8-2.32,1.44-.07.02-.15.02-.23.02,0-.07,0-.14,0-.21,0-6.82-.01-13.63-.02-20.45,0-.06.02-.12.04-.18Z"/>
    <path class="cls-45" d="M40.05,333.78c0-6.89,0-13.78,0-20.67,2.72,1.24,5.19,2.91,7.79,4.36,3.4,1.89,6.77,3.86,10.15,5.79,0,.06.01.12.02.17-.07.08-.14.16-.21.25-5.85,3.37-11.69,6.74-17.54,10.11-.07-.01-.14-.02-.21-.02Z"/>
    <path class="cls-47" d="M57.79,323.69c.07-.08.14-.16.21-.25,2.2,1.28,4.39,2.57,6.6,3.84,3.79,2.18,7.59,4.34,11.39,6.5.02.07.02.14,0,.21,0,0-.01-.02-.01-.02-4.32,2.46-8.63,4.93-12.95,7.39-1.59.91-3.17,1.82-4.76,2.74-.09-.02-.17-.04-.26-.06,0-6.45.01-12.9,0-19.36,0-.35.09-.73-.22-1.01Z"/>
    <path class="cls-41" d="M57.79,323.69c.32.28.22.66.22,1.01,0,6.45,0,12.9,0,19.36-1.65-.53-3.02-1.58-4.51-2.41-4.16-2.35-8.29-4.77-12.43-7.16-.31-.18-.64-.34-.81-.68,5.85-3.37,11.69-6.74,17.54-10.11Z"/>
    <path class="cls-41" d="M75.99,334c.02-.07.02-.14,0-.21,0-6.87.02-13.73.03-20.6.39-.11.7.08,1.01.26,2.2,1.27,4.39,2.56,6.59,3.83,3.51,2.01,7.04,4.01,10.55,6.01,0,.08,0,.16,0,.24-1.52.87-3.04,1.72-4.56,2.6-4.46,2.6-8.92,5.21-13.37,7.82-.09.01-.17.03-.26.04Z"/>
    <path class="cls-33" d="M76.25,333.95c4.46-2.61,8.91-5.22,13.37-7.82,1.51-.88,3.04-1.74,4.56-2.6,0,.06,0,.11.03.17,0,6.44,0,12.87,0,19.31,0,.35.08.7.12,1.05-.01.06,0,.11.02.16,0,0-.1.06-.1.06-.08-.01-.16-.03-.24-.04-4.02-2.34-8.03-4.69-12.05-7.02-1.89-1.1-3.8-2.17-5.7-3.26Z"/>
    <path class="cls-33" d="M130.38,344.08c-.02.05-.04.1-.04.16,0,0-.12.01-.12.01-5.92-3.42-11.83-6.84-17.75-10.26-.01-.07-.02-.13-.01-.2,5.89-3.39,11.78-6.79,17.67-10.18.08.03.16.06.24.08,0,6.79,0,13.59.01,20.38Z"/>
    <path class="cls-33" d="M130.13,323.62c-5.89,3.39-11.78,6.79-17.67,10.18-.08-.02-.16-.03-.24-.05,0-6.58-.02-13.17-.02-19.75,0-.32-.04-.65.24-.89.77.42,1.54.83,2.3,1.26,5.14,2.95,10.28,5.9,15.41,8.85,0,.13,0,.26-.01.39Z"/>
    <path class="cls-43" d="M112.43,313.11c-.27.24-.24.57-.24.89,0,6.58.02,13.17.02,19.75-.09,0-.17,0-.26.01-3.9-2.25-7.78-4.53-11.7-6.74-2.01-1.13-3.88-2.5-6.05-3.33-.03-.05-.04-.11-.03-.17,0-.08,0-.16,0-.25,0,0,.04-.08.04-.08.26-.09.54-.14.78-.27,4.14-2.38,8.31-4.73,12.41-7.19,1.53-.91,3.2-1.6,4.53-2.83.16,0,.32-.02.48-.03,0,.07,0,.15.01.22Z"/>
    <path class="cls-47" d="M94.21,323.7c2.17.83,4.04,2.2,6.05,3.33,3.92,2.2,7.81,4.49,11.7,6.74-1.26,1.25-2.92,1.87-4.41,2.75-4.2,2.49-8.44,4.9-12.67,7.33-.17.1-.37.14-.55.21-.04-.35-.12-.7-.12-1.05,0-6.44,0-12.87,0-19.31Z"/>
    <path class="cls-44" d="M130.13,323.62c0-.13,0-.26.01-.39.09,0,.18,0,.26-.01.18-.07.38-.11.55-.21,4.02-2.31,8.06-4.6,12.05-6.96,1.73-1.02,3.58-1.85,5.14-3.15.07,0,.14-.02.21-.06.08,0,.17.02.25.02,0,.08,0,.16.01.24-.32.28-.25.66-.25,1.01,0,6.55.01,13.1.02,19.65-.09,0-.18,0-.27.01-4.04-2.32-8.06-4.67-12.12-6.96-1.87-1.05-3.61-2.32-5.63-3.11-.08-.03-.16-.06-.24-.08Z"/>
    <path class="cls-45" d="M148.39,333.75c0-6.55-.01-13.1-.02-19.65,0-.35-.07-.73.25-1.01.62.36,1.24.71,1.87,1.07,5.28,3.03,10.56,6.06,15.84,9.09,0,.08.02.15.05.23-.02.06-.03.12-.04.18-.35.17-.72.33-1.06.53-5.55,3.2-11.1,6.4-16.64,9.6-.08-.01-.16-.02-.24-.03Z"/>
    <path class="cls-33" d="M148.62,333.78c5.55-3.2,11.09-6.4,16.64-9.6.34-.2.71-.35,1.06-.53,0,6.82.01,13.63.02,20.45-3.04-1.49-5.88-3.33-8.83-4.98-2.98-1.68-5.93-3.41-8.9-5.13,0-.07,0-.14,0-.21Z"/>
    <path class="cls-47" d="M130.37,323.7c2.01.79,3.76,2.05,5.63,3.11,4.06,2.29,8.08,4.64,12.12,6.96-1.47,1.32-3.3,2.06-4.96,3.05-4.08,2.42-8.21,4.76-12.33,7.12-.13.08-.3.1-.45.14,0-6.79,0-13.59-.01-20.38Z"/>
    <path class="cls-47" d="M166.35,344.11c0-6.82-.01-13.63-.02-20.45,0-.06.02-.12.04-.18,4.46,2.57,8.93,5.12,13.37,7.72,1.54.9,3.18,1.63,4.56,2.8-5.95,3.37-11.9,6.72-17.73,10.29-.07.02-.15.02-.23.02,0-.07,0-.14,0-.21Z"/>
    <path class="cls-42" d="M202.3,323.69c.32.28.22.66.22,1.01,0,6.45,0,12.9,0,19.36-1.65-.53-3.02-1.58-4.51-2.41-4.16-2.35-8.29-4.77-12.43-7.16-.31-.18-.64-.34-.81-.68,5.85-3.37,11.69-6.74,17.54-10.11Z"/>
    <path class="cls-41" d="M4.1,312.93c2.16-1.58,4.56-2.76,6.86-4.1,3.51-2.05,7.06-4.04,10.59-6.06.45.42.28.97.28,1.47.02,6.31.02,12.62.02,18.93,0,0-.04.08-.04.08-5.31-3.06-10.63-6.1-15.93-9.18-.61-.35-1.35-.52-1.78-1.15Z"/>
    <path class="cls-40" d="M21.85,260.87c0-.07-.01-.14-.02-.21,0,0,.04-.07.04-.07.39.04.67-.19.98-.37,2.44-1.41,4.89-2.81,7.33-4.23,3.22-1.88,6.43-3.78,9.64-5.67.08,0,.16.01.25.02,0,6.94,0,13.88.01,20.82-.1.01-.2.03-.29.04-5.98-3.45-11.95-6.89-17.93-10.34Z"/>
    <path class="cls-40" d="M21.85,260.87c5.98,3.45,11.95,6.89,17.93,10.34-3.25,1.91-6.49,3.84-9.76,5.72-2.72,1.56-5.37,3.25-8.19,4.64,0,0,0-.09,0-.09,0-6.41,0-12.83,0-19.24,0-.39.1-.81-.21-1.14l.22-.23Z"/>
    <path class="cls-41" d="M21.63,261.1c.31.33.21.75.21,1.14,0,6.41,0,12.83,0,19.24-3.17-1.58-6.15-3.49-9.24-5.23-2.67-1.5-5.32-3.05-7.97-4.59-.2-.12-.36-.3-.54-.45,5.84-3.37,11.69-6.74,17.53-10.12Z"/>
    <path class="cls-46" d="M21.85,198.3c0-.07-.01-.14-.02-.21,0,0,.04-.07.04-.07.39.04.67-.19.98-.37,2.44-1.41,4.89-2.81,7.33-4.23,3.22-1.88,6.43-3.78,9.64-5.67.08,0,.16.01.25.02,0,6.94,0,13.88.01,20.82-.1.01-.2.03-.29.04-5.98-3.45-11.95-6.89-17.93-10.34Z"/>
    <path class="cls-35" d="M21.85,198.3c5.98,3.45,11.95,6.89,17.93,10.34-3.25,1.91-6.49,3.84-9.76,5.72-2.72,1.56-5.37,3.25-8.19,4.64,0,0,0-.09.01-.09,0-6.41,0-12.83,0-19.24,0-.39.1-.8-.21-1.14.07-.08.14-.15.21-.23Z"/>
    <path class="cls-46" d="M4.1,187.76c2.19-1.54,4.57-2.75,6.87-4.09,3.51-2.04,7.06-4.04,10.59-6.05.45.42.28.97.28,1.47.02,6.31.02,12.61.03,18.92,0,0-.04.07-.04.07-5.92-3.43-11.92-6.72-17.73-10.33Z"/>
    <path class="cls-46" d="M21.84,239.78c-.01-6.8-.03-13.6-.04-20.4.02-.06.04-.13.06-.19.55.01.97.34,1.42.6,4.8,2.77,9.59,5.54,14.37,8.34.76.45,1.73.64,2.15,1.56-5.89,3.4-11.79,6.8-17.68,10.19-.09-.04-.18-.07-.27-.11Z"/>
    <path class="cls-48" d="M39.8,229.7c-.43-.92-1.39-1.11-2.15-1.56-4.78-2.8-9.58-5.57-14.37-8.34-.44-.25-.87-.59-1.42-.6-.01-.07-.02-.13-.02-.2,2.82-1.39,5.47-3.08,8.19-4.64,3.27-1.88,6.51-3.81,9.76-5.72.1-.01.2-.03.29-.04,0,0-.02.03-.02.03,0,6.46,0,12.93,0,19.39,0,.42-.13.89.24,1.25,0,.15,0,.3,0,.45-.09.02-.18.03-.27.05-.08-.02-.15-.04-.22-.06Z"/>
    <path class="cls-47" d="M21.84,302.35c-.01-6.8-.03-13.6-.04-20.4.02-.06.04-.13.06-.19.55.01.97.34,1.42.6,4.8,2.77,9.59,5.54,14.37,8.34.76.45,1.73.64,2.15,1.56-5.89,3.4-11.79,6.8-17.68,10.19-.09-.04-.18-.07-.27-.11Z"/>
    <path class="cls-34" d="M39.8,292.27c-.43-.92-1.39-1.11-2.15-1.56-4.78-2.8-9.58-5.57-14.37-8.34-.44-.25-.87-.59-1.42-.6-.01-.07-.02-.13-.02-.2,2.82-1.39,5.47-3.08,8.19-4.64,3.27-1.88,6.51-3.81,9.76-5.72.1-.01.2-.03.29-.04,0,0-.02.03-.02.03,0,6.46,0,12.93,0,19.39,0,.42-.13.89.24,1.25,0,.15,0,.3,0,.45-.09.02-.18.03-.27.05-.08-.02-.15-.04-.22-.06Z"/>
    <path class="cls-41" d="M21.84,302.35c.09.04.18.07.28.11.88.84,2.01,1.29,3.03,1.89,4.88,2.87,9.78,5.7,14.67,8.55-2.15,1.59-4.56,2.73-6.85,4.08-3.25,1.92-6.52,3.8-9.8,5.68-.4.23-.8.54-1.31.51,0-6.31,0-12.62-.02-18.93,0-.5.17-1.05-.28-1.47,0-.13.02-.26.03-.39.09,0,.17-.02.26-.03Z"/>
    <path class="cls-46" d="M21.58,177.24c.09,0,.17-.02.26-.03.09.04.18.07.28.11.46.53,1.1.78,1.68,1.12,5.34,3.11,10.68,6.21,16.02,9.32-3.21,1.89-6.42,3.79-9.64,5.67-2.43,1.42-4.88,2.82-7.33,4.23-.31.18-.59.41-.98.37,0-6.31-.01-12.61-.03-18.92,0-.5.17-1.05-.28-1.47,0-.13.02-.26.03-.39Z"/>
    <path class="cls-34" d="M57.99,323.27c-3.38-1.93-6.75-3.89-10.15-5.79-2.6-1.45-5.08-3.12-7.79-4.36,0-.08,0-.16,0-.23.01-.05.03-.1.04-.15.43-.2.88-.38,1.29-.61,4.8-2.77,9.6-5.53,14.38-8.34.7-.41,1.61-.56,2.01-1.41.09,0,.18,0,.27-.01.09.02.17.04.26.06,0,.07,0,.13,0,.2-.39.3-.26.73-.26,1.11,0,6.49,0,12.98,0,19.47l-.05.08Z"/>
    <path class="cls-47" d="M40.08,312.73c-.01.05-.03.1-.04.15-.07,0-.15,0-.22.02-4.89-2.85-9.79-5.68-14.67-8.55-1.03-.6-2.15-1.05-3.03-1.89,5.89-3.4,11.79-6.8,17.68-10.19.07.03.15.05.22.06,0,.76.02,1.51.02,2.27.01,6.04.03,12.09.04,18.13Z"/>
    <path class="cls-41" d="M76.02,313.19c0,6.87-.02,13.73-.03,20.6-3.8-2.17-7.6-4.33-11.39-6.5-2.21-1.27-4.4-2.56-6.6-3.84,0-.06-.01-.12-.02-.17,0,0,.05-.08.05-.08.38.02.69-.19.99-.36,2.27-1.31,4.53-2.63,6.81-3.94,3.37-1.94,6.76-3.86,10.14-5.79l.05.09Z"/>
    <path class="cls-41" d="M94.17,323.28c-3.52-2-7.04-4-10.55-6.01-2.2-1.26-4.39-2.56-6.59-3.83-.31-.18-.62-.37-1.01-.26,0,0-.05-.08-.05-.08,0-.07.02-.14.02-.22.09-.06.17-.11.26-.17.33-.14.67-.26.98-.44,4.38-2.53,8.77-5.04,13.12-7.61,1.22-.72,2.61-1.19,3.58-2.29l.28-.02c.08.02.17.03.25.05,0,.07,0,.14-.02.2-.35.32-.23.74-.23,1.13,0,6.49,0,12.98,0,19.47l-.04.08Z"/>
    <path class="cls-34" d="M130.4,323.21c-.09,0-.18,0-.26.01-5.14-2.95-10.27-5.91-15.41-8.85-.76-.43-1.53-.84-2.3-1.26,0-.07,0-.15-.01-.22,5.9-3.43,11.8-6.87,17.69-10.3.1,0,.19,0,.29.01,0,6.87,0,13.74,0,20.61Z"/>
    <path class="cls-40" d="M94.22,323.2c0-6.49,0-12.98,0-19.47,0-.38-.12-.81.23-1.13,5.83,3.37,11.66,6.75,17.49,10.12,0,.06,0,.12.01.18-1.33,1.23-3.01,1.91-4.53,2.83-4.1,2.45-8.27,4.8-12.41,7.19-.23.13-.52.18-.78.27Z"/>
    <path class="cls-41" d="M111.94,312.92c0-.06,0-.12-.01-.18.35-.31.27-.73.26-1.11,0-6.44,0-12.88-.01-19.32,0,0-.01-.07-.01-.07,2.73,1.54,5.48,3.06,8.19,4.64,3.26,1.9,6.59,3.67,9.76,5.73-5.9,3.43-11.8,6.87-17.69,10.3-.16,0-.32.02-.48.03Z"/>
    <path class="cls-34" d="M166.32,323.26c-5.28-3.03-10.56-6.06-15.84-9.09-.62-.36-1.24-.71-1.87-1.07,0-.08-.01-.16-.01-.24,2.29-1.35,4.58-2.73,6.89-4.06,3.52-2.03,7.05-4.02,10.57-6.04.45.42.28.97.28,1.47.02,6.31.02,12.62.02,18.93l-.04.08Z"/>
    <path class="cls-44" d="M130.56,302.6c5.63,3.28,11.27,6.55,16.9,9.83.24.14.45.31.68.47-1.56,1.3-3.41,2.13-5.14,3.15-3.99,2.36-8.03,4.65-12.05,6.96-.17.1-.36.14-.55.21,0-6.87,0-13.74,0-20.61,0,0,.08,0,.08,0,0,0,.08,0,.08,0Z"/>
    <path class="cls-44" d="M148.35,312.84c0-6.85,0-13.7,0-20.54,0,0-.01-.08-.01-.08.36.18.72.34,1.07.54,5.56,3.21,11.12,6.42,16.68,9.63-.01.13-.02.26-.03.39-3.52,2.01-7.06,4.01-10.57,6.04-2.31,1.33-4.59,2.7-6.89,4.06-.08,0-.17-.02-.25-.02Z"/>
    <path class="cls-39" d="M40.07,271.17c0-6.94,0-13.88-.01-20.82,0,0-.04-.04-.04-.04.09,0,.17.02.26.03.28.22.54.47.84.65,5.62,3.24,11.25,6.47,16.88,9.7,0,.07,0,.14,0,.21-5.92,3.44-11.84,6.88-17.77,10.32-.06-.01-.13-.02-.19,0l.02-.03Z"/>
    <path class="cls-48" d="M39.81,250.32c-5.34-3.1-10.68-6.21-16.02-9.32-.58-.34-1.22-.59-1.68-1.12,5.89-3.4,11.79-6.8,17.68-10.19.07.03.15.05.22.06,0,6.85,0,13.69,0,20.54,0,0,.04.04.04.04-.08,0-.16-.01-.25-.02Z"/>
    <path class="cls-46" d="M40.29,229.72c0-.15,0-.3,0-.45,3.66-2.1,7.31-4.22,10.98-6.31,2.24-1.27,4.4-2.7,6.76-3.77,0,6.86,0,13.73,0,20.59-.09,0-.18.01-.27.02-5.82-3.36-11.65-6.72-17.47-10.08Z"/>
    <path class="cls-30" d="M58.04,219.19c-2.36,1.06-4.52,2.49-6.76,3.77-3.67,2.08-7.32,4.2-10.98,6.31-.37-.36-.24-.82-.24-1.25,0-6.46,0-12.93,0-19.39.06,0,.13,0,.19,0,.19.34.54.45.85.63,3.3,1.92,6.6,3.85,9.91,5.75,2.34,1.34,4.72,2.64,7.07,3.96,0,.07,0,.14-.04.21Z"/>
    <path class="cls-48" d="M40.29,229.72c5.82,3.36,11.65,6.72,17.47,10.08-.1.39-.44.55-.75.72-3.82,2.2-7.66,4.37-11.46,6.61-1.77,1.04-3.65,1.91-5.27,3.2-.09,0-.17-.02-.26-.03,0-6.85,0-13.69,0-20.54.09-.02.18-.03.27-.05Z"/>
    <path class="cls-34" d="M58.04,302.35c-.09,0-.18,0-.27.01-5.82-3.36-11.65-6.72-17.47-10.08,0-.15,0-.3,0-.45,3.66-2.1,7.31-4.22,10.98-6.31,2.24-1.27,4.4-2.7,6.76-3.77,0,6.86,0,13.73,0,20.59Z"/>
    <path class="cls-30" d="M58.04,281.76c-2.36,1.06-4.52,2.49-6.76,3.77-3.67,2.08-7.32,4.2-10.98,6.31-.37-.36-.24-.82-.24-1.25,0-6.46,0-12.93,0-19.39.06,0,.13,0,.19,0,.19.34.54.45.85.63,3.3,1.92,6.6,3.85,9.91,5.75,2.34,1.34,4.71,2.64,7.07,3.96.02.07,0,.14-.03.21Z"/>
    <path class="cls-34" d="M40.29,292.29c5.82,3.36,11.65,6.72,17.47,10.08-.4.85-1.31,1-2.01,1.41-4.78,2.81-9.58,5.57-14.38,8.34-.41.24-.86.41-1.29.61-.01-6.04-.03-12.09-.04-18.13,0-.76-.01-1.51-.02-2.27.09-.02.18-.03.27-.05Z"/>
    <path class="cls-47" d="M58.04,281.76c.04-.07.05-.14.03-.21,0,0-.04-.03-.04-.03.15.02.3.04.45.06.15.53.65.66,1.05.89,3.19,1.86,6.39,3.71,9.6,5.53,2.28,1.29,4.47,2.72,6.85,3.83.01.14.02.29.04.43-.45.25-.91.49-1.36.74-5.45,3.13-10.91,6.27-16.36,9.4-.09-.02-.17-.04-.26-.06,0-6.86,0-13.73,0-20.59Z"/>
    <path class="cls-34" d="M58.3,302.41c5.45-3.13,10.91-6.27,16.36-9.4.45-.26.91-.5,1.36-.74,0,0,.11.03.11.03h.11s-.03.03-.03.03c.02,6.8.03,13.59.05,20.39-.09.06-.17.11-.26.17-.41-.24-.82-.48-1.23-.72-5.49-3.18-10.98-6.37-16.47-9.55.01-.07.02-.13,0-.2Z"/>
    <path class="cls-34" d="M58.29,302.61c5.49,3.18,10.98,6.37,16.47,9.55.41.24.82.48,1.23.72,0,.07-.01.14-.02.22-3.38,1.93-6.76,3.85-10.14,5.78-2.27,1.3-4.53,2.63-6.81,3.94-.31.18-.61.39-.99.36,0-6.49,0-12.98,0-19.47,0-.38-.13-.81.26-1.11Z"/>
    <path class="cls-43" d="M94.21,302.36c-.09,0-.19.01-.28.02-2.83-1.61-5.66-3.23-8.5-4.83-3.08-1.73-6.06-3.65-9.23-5.22,0,0,.03-.03.03-.03.18-.44.58-.63.96-.85,3.93-2.28,7.85-4.58,11.8-6.83,1.72-.98,3.36-2.13,5.22-2.86,0,6.87,0,13.74,0,20.61Z"/>
    <path class="cls-34" d="M94.21,302.36c0-6.87,0-13.74,0-20.61.02-.04.03-.08,0-.13.15-.02.3-.04.45-.06.02.57.53.64.89.85,1.44.84,2.89,1.67,4.34,2.5,4.08,2.33,8.15,4.66,12.23,6.98,0,.11.02.22.03.32,0,0,.01.07.01.07-.53.27-1.06.53-1.58.82-5.38,3.09-10.76,6.19-16.14,9.29-.08-.02-.17-.03-.25-.05Z"/>
    <path class="cls-40" d="M76.2,292.33c3.17,1.57,6.15,3.49,9.23,5.22,2.84,1.59,5.67,3.22,8.5,4.83-.98,1.1-2.36,1.57-3.58,2.29-4.35,2.57-8.74,5.08-13.12,7.61-.31.18-.65.29-.98.44-.02-6.79-.03-13.59-.05-20.39Z"/>
    <path class="cls-42" d="M112.17,292.22c0-.11-.02-.22-.03-.32l.05-.09c.23-.04.49-.03.69-.14,3.83-2.19,7.64-4.42,11.47-6.6,2-1.14,3.89-2.46,6.04-3.33,0,6.47,0,12.93,0,19.4,0,.42-.14.89.24,1.24-.02.07-.04.15-.06.22,0,0-.08,0-.08,0,0,0-.08,0-.08,0-.1,0-.19,0-.29-.01-3.16-2.06-6.5-3.83-9.76-5.73-2.71-1.58-5.46-3.1-8.19-4.64Z"/>
    <path class="cls-45" d="M130.63,302.38c-.38-.36-.24-.82-.24-1.24,0-6.47,0-12.93,0-19.4,0,0,0-.01,0-.01,3.25,1.85,6.49,3.71,9.74,5.55,2.73,1.55,5.46,3.09,8.19,4.64,0,.1.01.2.02.3,0,0,.01.08.01.08-2.97,1.45-5.74,3.24-8.61,4.86-3.05,1.72-6.08,3.48-9.11,5.22Z"/>
    <path class="cls-43" d="M148.34,292.21c0-.1-.01-.2-.02-.3,0,0,.05-.1.05-.1.5-.02.91-.31,1.31-.54,3.83-2.2,7.63-4.45,11.48-6.61,1.69-.95,3.23-2.19,5.14-2.71.02,6.8.03,13.6.05,20.4-.09,0-.17.02-.26.03-5.56-3.21-11.12-6.42-16.68-9.63-.34-.2-.71-.36-1.07-.54Z"/>
    <path class="cls-43" d="M58.01,260.89c0-.07,0-.14,0-.21,0,0,.04-.07.04-.07.12-.02.25,0,.35-.05,4.72-2.71,9.44-5.39,14.13-8.16,1.11-.66,2.37-1.12,3.27-2.1.09.03.17.06.26.08-.01,6.92-.03,13.84-.04,20.76,0,0,0,.07,0,.07-.06-.01-.12-.02-.17-.02-4.28-2.48-8.54-4.98-12.83-7.44-1.65-.94-3.21-2.07-5-2.75v-.11Z"/>
    <path class="cls-34" d="M40.28,250.33c1.62-1.29,3.5-2.16,5.27-3.2,3.8-2.24,7.64-4.41,11.46-6.61.31-.18.64-.33.75-.72.09,0,.18-.01.27-.02.09.02.17.04.26.06,0,.07,0,.13,0,.2-.35.26-.26.64-.26.99,0,6.53,0,13.05.02,19.58,0,0-.04.07-.04.07-5.63-3.23-11.26-6.46-16.88-9.7-.3-.18-.56-.43-.84-.65Z"/>
    <path class="cls-48" d="M58.3,239.84c-.09-.02-.17-.04-.26-.06,0-6.86,0-13.73,0-20.59.04-.07.05-.13.04-.21,0,0-.05-.03-.05-.03.15.02.3.04.45.06.15.53.65.66,1.05.89,3.19,1.86,6.39,3.71,9.6,5.53,2.27,1.29,4.47,2.72,6.85,3.83.01.14.02.29.04.43-.45.25-.91.49-1.36.74-5.45,3.13-10.91,6.27-16.36,9.4Z"/>
    <path class="cls-40" d="M94.22,281.62s.02.09,0,.13c-1.86.73-3.5,1.88-5.22,2.86-3.95,2.25-7.86,4.55-11.8,6.83-.38.22-.78.41-.96.85,0,0-.11,0-.11,0,0,0-.11-.03-.11-.03-.01-.14-.02-.29-.04-.43.01-6.88.02-13.75.03-20.63,0,0,0-.07,0-.07.09.03.19.07.28.1,4.23,2.47,8.45,4.96,12.7,7.39,1.72.98,3.32,2.19,5.22,2.83,0,.05.01.11.01.16Z"/>
    <path class="cls-34" d="M58.48,281.58c1.8-1.52,3.97-2.46,5.97-3.65,3.59-2.13,7.23-4.19,10.84-6.28.2-.12.35-.31.53-.47.06,0,.12.01.18.02,0,6.88-.02,13.75-.03,20.63-2.37-1.12-4.57-2.54-6.85-3.83-3.21-1.82-6.41-3.67-9.6-5.53-.39-.23-.9-.36-1.05-.89Z"/>
    <path class="cls-34" d="M112.14,291.9c-4.08-2.33-8.15-4.65-12.23-6.98-1.45-.83-2.9-1.66-4.34-2.5-.36-.21-.87-.28-.89-.85.12-.45.55-.54.89-.74,3.54-2.05,7.1-4.07,10.62-6.16,1.94-1.15,4.01-2.08,5.8-3.48.08,0,.17-.01.25-.02.08,0,.15.02.23.04,0,.07,0,.14,0,.21-.44.38-.27.89-.27,1.35-.01,6.35,0,12.7,0,19.04l-.05.09Z"/>
    <path class="cls-34" d="M111.98,271.19c-1.79,1.4-3.86,2.33-5.8,3.48-3.52,2.09-7.08,4.1-10.62,6.16-.33.19-.76.28-.89.74-.15.02-.3.04-.45.06,0-.05,0-.11-.01-.16,0-6.84-.02-13.68-.02-20.51,0,0,0-.1,0-.1,5.93,3.45,11.86,6.89,17.78,10.34Z"/>
    <path class="cls-40" d="M112.18,291.81c0-6.35,0-12.7,0-19.04,0-.46-.17-.97.27-1.35,3.79,2.17,7.57,4.36,11.38,6.49,2.18,1.21,4.22,2.69,6.56,3.61,0,.07-.01.14-.01.22,0,0,0,.01,0,.01-2.15.86-4.04,2.19-6.04,3.33-3.84,2.18-7.65,4.41-11.47,6.6-.19.11-.46.1-.69.14Z"/>
    <path class="cls-39" d="M130.39,281.72c0-.07,0-.14.01-.22,0,0-.03-.03-.03-.03.25-.11.52-.2.76-.34,3.39-1.95,6.78-3.87,10.14-5.86,2.29-1.35,4.69-2.54,6.87-4.09.09,0,.18-.01.27-.02.07,0,.14,0,.2.02,0,.08,0,.15.01.23-.41.39-.24.9-.24,1.36-.01,6.34,0,12.69,0,19.03,0,0-.05.1-.05.1-2.73-1.54-5.46-3.08-8.19-4.63-3.25-1.85-6.5-3.7-9.74-5.55Z"/>
    <path class="cls-30" d="M148.37,291.81c0-6.34,0-12.69,0-19.03,0-.46-.17-.97.24-1.36,2.66,1.51,5.32,3.04,7.99,4.54,3.25,1.84,6.41,3.83,9.74,5.52v.09c0,.07,0,.13.01.2-.02.06-.04.12-.06.19-1.92.52-3.45,1.76-5.14,2.71-3.85,2.16-7.65,4.41-11.48,6.61-.41.23-.81.52-1.31.54Z"/>
    <path class="cls-39" d="M76.29,271.24c-.09-.03-.19-.07-.28-.1.01-6.92.03-13.84.04-20.76.04-.02.09-.04.14-.03,6,3.45,11.99,6.9,17.99,10.35,0,.05,0,.1.01.16,0,0,0,.1,0,.1-5.97,3.43-11.93,6.86-17.9,10.29Z"/>
    <path class="cls-34" d="M76.19,250.34c-.05,0-.1,0-.14.03-.09-.03-.17-.06-.26-.08-.32-.22-.64-.47-.98-.67-5.51-3.2-11.02-6.39-16.53-9.58.01-.07.02-.13,0-.2,5.45-3.13,10.9-6.27,16.36-9.4.45-.26.91-.5,1.36-.74.06.04.13.06.2.08.01,6.79.03,13.58.04,20.36-.02.06-.04.13-.06.2Z"/>
    <path class="cls-40" d="M58.29,240.04c5.51,3.19,11.02,6.38,16.53,9.58.34.2.65.44.98.67-.9.99-2.16,1.45-3.27,2.1-4.68,2.76-9.41,5.45-14.13,8.16-.09.05-.23.04-.35.05,0-6.53-.01-13.05-.01-19.58,0-.35-.09-.73.26-.99Z"/>
    <path class="cls-46" d="M58.48,219.01c1.8-1.52,3.97-2.46,5.98-3.65,3.59-2.13,7.23-4.19,10.84-6.28.2-.12.35-.31.53-.47.07,0,.13-.01.2-.03,0,0-.02.03-.02.03,0,6.89-.02,13.77-.03,20.66-2.37-1.11-4.57-2.54-6.85-3.83-3.21-1.82-6.41-3.67-9.6-5.53-.39-.23-.9-.36-1.05-.89Z"/>
    <path class="cls-40" d="M75.98,229.27c0-6.89.02-13.77.03-20.66.1.02.19.04.29.06,3.67,2.14,7.32,4.32,11.01,6.42,2.31,1.31,4.52,2.82,6.96,3.89,0,.07-.01.14-.05.2-.22.07-.47.11-.67.22-5.49,3.18-10.98,6.36-16.48,9.54-.33.19-.6.39-.62.8-.08.01-.16.03-.24.04-.07-.02-.14-.05-.2-.08-.01-.14-.02-.29-.04-.43Z"/>
    <path class="cls-40" d="M76.29,271.24c5.97-3.43,11.93-6.86,17.9-10.29,0,6.84.01,13.68.02,20.51-1.9-.65-3.5-1.85-5.22-2.83-4.25-2.43-8.47-4.92-12.7-7.39Z"/>
    <path class="cls-39" d="M112.45,271.2c-.07-.02-.15-.03-.23-.03-.01-.88-.03-1.76-.04-2.64-.02-5.99-.03-11.98-.04-17.98.02-.06.03-.12.03-.18h.12s.12.02.12.02c2.06,1.19,4.11,2.39,6.17,3.58,3.92,2.25,7.85,4.49,11.78,6.74,0,.04,0,.09.02.13-.09.07-.18.14-.27.21-5.88,3.38-11.77,6.77-17.65,10.15Z"/>
    <path class="cls-43" d="M112.15,250.55c.01,5.99.03,11.98.04,17.98,0,.88.02,1.76.04,2.64-.08,0-.17.01-.25.02-5.93-3.45-11.85-6.89-17.78-10.34,0-.05,0-.1,0-.16,0,0,.04-.08.04-.08,4.29-2.25,8.39-4.83,12.62-7.18,1.76-.98,3.39-2.2,5.31-2.88Z"/>
    <path class="cls-39" d="M148.61,271.19c5.84-3.36,11.68-6.73,17.53-10.09.31.33.21.75.21,1.14,0,6.41,0,12.83,0,19.24-3.33-1.69-6.49-3.69-9.74-5.52-2.67-1.51-5.32-3.03-7.99-4.54-.01-.08-.01-.15-.01-.23Z"/>
    <path class="cls-35" d="M130.38,260.84c3.99,2.33,7.98,4.66,11.97,6.99,1.93,1.12,3.86,2.24,5.79,3.37-2.18,1.55-4.57,2.73-6.87,4.09-3.36,1.99-6.76,3.91-10.14,5.86-.24.14-.51.23-.76.34,0-6.4,0-12.79,0-19.19,0-.43.1-.89-.27-1.24.09-.07.18-.14.27-.21Z"/>
    <path class="cls-34" d="M76.19,250.34c.02-.07.04-.13.06-.2.33-.14.67-.26.98-.44,4.38-2.53,8.77-5.04,13.12-7.61,1.22-.72,2.6-1.2,3.59-2.29.09,0,.18-.01.28-.02.08.02.17.03.25.05,0,.07,0,.14-.03.2-.32.28-.23.66-.23,1.01,0,6.52,0,13.05.01,19.57,0,0-.04.08-.04.08-6-3.45-11.99-6.9-17.99-10.35Z"/>
    <path class="cls-48" d="M93.94,239.81c-.98,1.1-2.37,1.57-3.59,2.29-4.35,2.57-8.74,5.08-13.12,7.61-.31.18-.65.29-.98.44-.01-6.79-.03-13.58-.04-20.36.08-.01.16-.03.24-.04,1.51.89,3.01,1.79,4.53,2.66,4.32,2.48,8.64,4.94,12.96,7.41Z"/>
    <path class="cls-48" d="M93.94,239.81c-4.32-2.47-8.64-4.93-12.96-7.41-1.52-.87-3.02-1.77-4.53-2.66.02-.41.29-.61.62-.8,5.49-3.18,10.98-6.36,16.48-9.54.2-.12.45-.15.67-.22,0,6.87,0,13.74,0,20.61-.09,0-.18.01-.28.02Z"/>
    <path class="cls-48" d="M94.21,239.79c0-6.87,0-13.74,0-20.61.04-.06.06-.13.05-.2,0,0-.05-.03-.05-.03.15.01.31.03.46.04.02.57.53.64.89.85,1.44.84,2.89,1.67,4.34,2.5,4.07,2.33,8.15,4.65,12.22,6.98.01.11.03.22.04.33,0,0,.01.07.01.07-.53.27-1.06.53-1.58.82-5.38,3.09-10.76,6.19-16.14,9.29-.08-.02-.17-.03-.25-.05Z"/>
    <path class="cls-35" d="M130.11,240.02c-5.69,3.29-11.37,6.58-17.05,9.87-.23.14-.43.33-.65.5,0,0-.12-.02-.12-.02,0,0-.12,0-.12,0,0-.05,0-.1,0-.15,0-6.83,0-13.66,0-20.5,0,0-.01-.07-.01-.07,2.73,1.54,5.48,3.06,8.19,4.64,3.26,1.9,6.59,3.67,9.76,5.73Z"/>
    <path class="cls-30" d="M112.18,250.22s0,.1,0,.15c0,.06-.01.12-.03.18-1.92.68-3.55,1.91-5.31,2.88-4.23,2.34-8.33,4.93-12.62,7.18,0-6.52-.01-13.05-.01-19.57,0-.35-.09-.73.23-1.01,3.2,1.87,6.39,3.76,9.62,5.59,2.7,1.54,5.32,3.23,8.12,4.59Z"/>
    <path class="cls-38" d="M112.18,250.22c-2.8-1.36-5.42-3.05-8.12-4.59-3.23-1.83-6.41-3.73-9.62-5.59.02-.07.03-.14.03-.2,5.38-3.1,10.76-6.19,16.14-9.29.51-.3,1.05-.55,1.58-.82,0,6.83,0,13.66,0,20.5Z"/>
    <path class="cls-34" d="M112.22,208.6c.08,0,.15.02.23.04,0,.07,0,.14,0,.21-.44.38-.27.89-.27,1.35-.01,6.35,0,12.7,0,19.04l-.06.08c-4.07-2.33-8.15-4.65-12.22-6.98-1.45-.83-2.9-1.66-4.34-2.5-.36-.21-.87-.28-.89-.85.12-.45.55-.54.89-.74,3.54-2.05,7.1-4.07,10.62-6.16,1.94-1.15,4.01-2.09,5.8-3.48.08,0,.16-.01.25-.02Z"/>
    <path class="cls-47" d="M3.45,291.63l.26-.02-.02.02c0,1.91,0,3.82,0,5.73-.02,4.98-.04,9.95-.06,14.93-.43-.2-.88-.37-1.29-.61-3.14-1.8-6.28-3.61-9.42-5.42,0-2.81,0-5.62,0-8.43.59-.33,1.18-.65,1.76-1,2.91-1.77,5.97-3.27,8.78-5.21Z"/>
  </g>
  <text class="cls-32" transform="translate(17.2 116.4)"><tspan x="0" y="0">Leading with Collaboration. Innovating with the World.</tspan></text>
  <text class="cls-31" transform="translate(13.5 107.09)"><tspan x="0" y="0">Semicon Taiwan</tspan></text>
</svg>