<svg width="142" height="81" viewBox="0 0 142 81" fill="none" xmlns="http://www.w3.org/2000/svg">
<path d="M118.565 72.0995C111.968 77.9245 106.047 80.837 100.8 80.837C97.7142 80.837 95.1489 79.834 93.1043 77.8281C91.0598 75.7835 90.0375 73.2375 90.0375 70.1899C90.0375 66.0622 91.812 62.3589 95.361 59.0799C98.9101 55.7623 106.645 51.3646 118.565 45.8868V40.4475C118.565 36.3584 118.333 33.793 117.87 32.7515C117.446 31.6713 116.617 30.7455 115.382 29.974C114.148 29.1639 112.759 28.7588 111.216 28.7588C108.708 28.7588 106.645 29.3182 105.024 30.4369C104.021 31.1313 103.52 31.9414 103.52 32.8672C103.52 33.6773 104.06 34.6803 105.14 35.8762C106.606 37.5349 107.339 39.1359 107.339 40.6789C107.339 42.5692 106.625 44.1894 105.198 45.5396C103.809 46.8512 101.977 47.507 99.7009 47.507C97.2706 47.507 95.226 46.774 93.5672 45.3081C91.947 43.8422 91.1369 42.1255 91.1369 40.1581C91.1369 37.3806 92.2363 34.7382 94.4352 32.2307C96.6341 29.6846 99.7009 27.7365 103.636 26.3863C107.57 25.0362 111.66 24.3611 115.903 24.3611C121.034 24.3611 125.084 25.4605 128.055 27.6594C131.064 29.8197 133.012 32.1728 133.899 34.7189C134.439 36.3391 134.709 40.0617 134.709 45.8868V66.8916C134.709 69.3605 134.805 70.9229 134.998 71.5787C135.191 72.1959 135.481 72.6588 135.866 72.9674C136.252 73.276 136.696 73.4304 137.197 73.4304C138.2 73.4304 139.222 72.7167 140.264 71.2894L142 72.6781C140.071 75.5328 138.065 77.6159 135.982 78.9275C133.937 80.2005 131.604 80.837 128.98 80.837C125.894 80.837 123.483 80.1234 121.747 78.696C120.011 77.2301 118.951 75.0313 118.565 72.0995ZM118.565 67.8753V49.7637C113.897 52.5026 110.425 55.4344 108.149 58.5591C106.645 60.6423 105.892 62.7447 105.892 64.8664C105.892 66.6409 106.529 68.2032 107.802 69.5534C108.766 70.595 110.117 71.1158 111.852 71.1158C113.781 71.1158 116.019 70.0356 118.565 67.8753Z" fill="#E9562A"/>
<path d="M48.3749 57.749H20.6577L17.3594 65.3871C16.2793 67.9332 15.7392 70.0356 15.7392 71.6944C15.7392 73.8932 16.6265 75.5134 18.401 76.555C19.4425 77.1722 22.0079 77.6352 26.097 77.9438V80.0848H0V77.9438C2.81608 77.5194 5.13067 76.3621 6.94376 74.4719C8.75686 72.5431 10.9943 68.589 13.6561 62.6096L41.7205 0H42.8199L71.1157 64.3456C73.8161 70.4406 76.0342 74.279 77.7702 75.8606C79.0818 77.0565 80.9334 77.7509 83.3252 77.9438V80.0848H45.3659V77.9438H46.9283C49.9758 77.9438 52.1168 77.5194 53.3513 76.6707C54.1999 76.0535 54.6243 75.1663 54.6243 74.009C54.6243 73.3146 54.5085 72.6009 54.2771 71.868C54.1999 71.5208 53.6213 70.0742 52.5411 67.5281L48.3749 57.749ZM46.4075 53.467L34.7188 26.4442L22.683 53.467H46.4075Z" fill="#E9562A"/>
</svg>
