<?xml version="1.0" encoding="UTF-8"?>
<svg id="_圖層_1" data-name="圖層 1" xmlns="http://www.w3.org/2000/svg" viewBox="0 0 286.39 343.74">
  <defs>
    <style>
      .cls-1 {
        fill: #299ea7;
      }
    </style>
  </defs>
  <path class="cls-1" d="M170.8,343.74h-55.07c-15.73-5.57-13.66-25.53,3.67-26.89,12.91-1.01,34.08-.9,47.07,0,17.93,1.23,20.24,20.58,4.33,26.89ZM169.12,327.62h-51.71c-1.39,0-3.8,4.75,2.69,5.36,11.21,1.07,34.47,1.08,45.69.04,1.56-.14,3.91-.49,4.71-2.05.5-.97-.71-3.14-1.39-3.35Z"/>
  <path class="cls-1" d="M143.12,73.94c68.21-.24,111.15,74.38,76.32,133.41-13.02,22.08-27.15,22.94-29.82,53.45-.38,4.39,1.73,16.61-4.39,17.77l-81.95.05c-8.19-.25-5.18-9.58-5.68-15.14-.72-8.02-2.66-18.17-6.12-25.44-4.14-8.7-12.57-14.4-18.33-21.97-43.98-57.76-2.26-141.88,69.97-142.14ZM108.42,267.77l69.82-.22c1.01-6.85,1.37-13.77,2.97-20.53,4.55-19.18,11.46-22.22,22.49-35.94,36.27-45.11,11.87-113.69-44.84-125.03-64.87-12.98-115.03,54.92-83.76,113.31,7.15,13.35,19.52,20.7,25.77,34,5.13,10.91,6.5,22.55,7.55,34.42Z"/>
  <path class="cls-1" d="M108.21,284.84c22.18.9,46.38-1.88,68.33-.23,19,1.43,20.87,22.43,3.27,26.83l-74.33-.1c-15.87-4.06-13.53-25.63,2.73-26.5ZM106.67,295.38l-.91,3.58,1.41,1.29h72.21c2.94-1.37.82-4.88-.17-4.88h-72.53Z"/>
  <path class="cls-1" d="M57.12,24.87c2.8-.61,4.4.25,6.22,2.22,3.18,3.46,17.27,25.46,19.18,29.85,3.34,7.69-3.23,12.71-8.42,7.08-4.33-4.7-15.27-22.76-18.68-29.01-1.91-3.49-3.99-8.9,1.7-10.15Z"/>
  <path class="cls-1" d="M147.11,46.04c-3.11,3.1-8.69,1.04-9.24-3.48-1.42-11.68,1.09-26.27.07-38.27,1.91-6.08,9.13-5.55,10.67.67-.9,11.7,1.33,25.47.06,36.91-.12,1.11-.81,3.42-1.55,4.16Z"/>
  <path class="cls-1" d="M280.71,82.01c5.72-.3,7.89,6.41,2.87,10.17-8.89,6.65-23.28,11.13-32.69,17.68-6.3,1.7-10.06-4.97-5.22-9.25,10.53-5.24,20.55-12.23,31.21-17.14,1.06-.49,2.75-1.4,3.83-1.46Z"/>
  <path class="cls-1" d="M1.75,83.36c1.87-1.49,4.44-1.25,6.5-.53,10.06,3.51,21.61,13.07,31.83,17.23,5.4,3.89,1.96,12.26-4.96,9.66-9.59-6.43-22.41-10.89-31.76-17.26-3.1-2.11-4.88-6.47-1.6-9.09Z"/>
  <path class="cls-1" d="M229.74,26.2c4.83-.41,6.36,4.26,4.79,8.2-1.61,4.04-16.85,26.61-20.09,30.27-4.37,4.93-8.56,3.4-10.05-2.62l21.85-33.94c.73-1.02,2.31-1.82,3.5-1.92Z"/>
  <path class="cls-1" d="M139.47,105.76c-2.09-2.1-2.28-5.92.27-7.83,4.19-3.16,18.56.19,23.67,1.7,25.63,7.53,46.36,32.18,48.35,59.11.27,3.62.9,10.1-3.31,11.44-9.18,2.91-7.28-10.83-8.39-16.52-4.43-22.67-23.87-41.49-46.56-45.45-3.76-.66-11.83-.23-14.02-2.43Z"/>
</svg>