<?xml version="1.0" encoding="UTF-8"?>
<svg id="_圖層_1" xmlns="http://www.w3.org/2000/svg" version="1.1" viewBox="0 0 301 508">
  <!-- Generator: Adobe Illustrator 29.5.1, SVG Export Plug-In . SVG Version: 2.1.0 Build 141)  -->
  <defs>
    <style>
      .st0 {
        fill: #dc552c;
      }

      .st1 {
        fill: #f5cd52;
      }

      .st2 {
        fill: #eec854;
      }

      .st3 {
        fill: #de572d;
      }
    </style>
  </defs>
  <path class="st0" d="M100,148.3l-47.9-41.7L127.2,36.2l.1-.1,15.5-4.5,16.2,13.1-.8,15.9-58.2,87.7h0ZM157.3,60.3l.7-15.1-15.5-12.6-14.9,4.4L53.3,106.7l46.5,40.4,57.5-86.8h0Z"/>
  <path class="st0" d="M106.6,56.2l34.7,28.9.5-.6-34.7-29s-.5.7-.5.7Z"/>
  <path class="st0" d="M82.2,79l40.6,34,.5-.6-40.6-34-.5.6Z"/>
  <path class="st0" d="M58.6,101.1l46.1,39.2.5-.6-46-39.2-.6.6Z"/>
  <path class="st0" d="M127.2,36.8l30.2,23.9.5-.6-30.2-23.9s-.5.6-.5.6Z"/>
  <path class="st0" d="M57.4,110.5l.6.6,2.6-2.9-.6-.6-2.6,2.9Z"/>
  <path class="st0" d="M60.6,113.3l.6.6,2.6-3-.6-.6-2.6,3Z"/>
  <path class="st0" d="M63.6,115.9l.6.6,2.6-3-.6-.5-2.6,2.9Z"/>
  <path class="st0" d="M66.8,118.7l.6.6,2.6-3-.6-.5-2.6,2.9Z"/>
  <path class="st0" d="M70,121.4l.6.6,2.6-3-.6-.5-2.6,2.9Z"/>
  <path class="st0" d="M73.1,124.1l.6.6,2.6-3-.6-.6-2.6,3Z"/>
  <path class="st0" d="M76.3,126.9l.6.5,2.6-2.9-.6-.6-2.6,3Z"/>
  <path class="st0" d="M79.4,129.5l.6.6,2.6-2.9-.6-.6-2.6,2.9Z"/>
  <path class="st0" d="M82.6,132.2l.6.6,2.6-2.9-.6-.6-2.6,2.9Z"/>
  <path class="st0" d="M85.6,134.9l.6.6,2.6-3-.6-.5-2.6,2.9Z"/>
  <path class="st0" d="M88.8,137.8l.6.5,2.6-3-.6-.6-2.6,3.1Z"/>
  <path class="st0" d="M92,140.5l.6.5,2.6-3-.6-.5-2.6,3Z"/>
  <path class="st0" d="M95.1,143.2l.6.5,2.6-3-.6-.5-2.6,3Z"/>
  <path class="st3" d="M118.7,76.9s.4,9.1-1.8,11.7c-2.2,2.6-6,3-8.6.8s-3-6-.8-8.6,11.2-3.9,11.2-3.9Z"/>
  <path class="st0" d="M112.2,91.3c-1.5,0-3-.6-4.3-1.6-2.8-2.3-3.1-6.4-.8-9.2,2.3-2.7,11.1-4,11.5-4l.5-.1v.5c0,.4.3,9.3-1.9,12-1.2,1.5-3.1,2.4-5,2.4h0ZM118.3,77.4c-1.8.4-8.7,1.6-10.5,3.7,0,.1-.1.2-.2.3-1.9,2.5-1.5,6.1,1,8s6.1,1.5,8-1c1.7-2.1,1.7-9.1,1.7-11h0Z"/>
  <path class="st3" d="M156,20.6c-2.6,3.6-2.2,8.3.9,10.6s7.8,1.3,10.4-2.3c1.2-1.6,1.6-7.5,5.6-8.7,1.8-.6,3.6,1.2,5.6.9.2-.1.3-.1.4-.1,5.4-.9,8.9-6,8-11.3-1-5.1-5.8-8.6-11-8-5,.7-6,5.7-8.4,10.1-2.7,4.8-10,6.7-11.5,8.8h0Z"/>
  <path class="st3" d="M160.7,32.9c-1.5,0-2.9-.4-4.1-1.3-3.3-2.4-3.8-7.4-1-11.2,1.1-1.1,2.4-2,3.8-2.6,2.7-1.5,6.1-3.3,7.7-6.2.6-1,1-2,1.5-3,1.6-3.4,3.1-6.7,7.2-7.3,5.4-.7,10.4,3,11.4,8.4.1.1.1.3.1.4.7,5.6-3.2,10.7-8.8,11.5-1,.1-2-.1-2.9-.5-.8-.4-1.7-.5-2.6-.4-2.5.7-3.6,3.9-4.3,6.1-.2.8-.6,1.6-1,2.4-1.3,1.7-3.2,3-5.3,3.5-.6.1-1.1.2-1.7.2h0ZM173.6,19.7c.8,0,1.6.2,2.2.6.8.4,1.6.5,2.5.5,2.5-.3,4.8-1.6,6.3-3.7s2.1-4.7,1.7-7.2c-.9-5-5.5-8.4-10.5-7.7-3.6.5-5,3.4-6.6,6.8l-1.5,3c-1.7,3.1-5.2,5-8,6.5-1.3.5-2.5,1.3-3.5,2.3-2.4,3.4-2.1,7.9.9,10.1,1.5,1.1,3.3,1.4,5.1,1,1.9-.4,3.6-1.6,4.7-3.2.4-.7.7-1.4.9-2.2.8-2.5,1.9-5.8,4.9-6.7.3-.1.6-.1.9-.1h0Z"/>
  <path class="st1" d="M163,29.5c1.3,1.1,1.5,2.9.4,4.3l-7.5,9.4-10.9-8.8,7.5-9.4c1.1-1.3,2.9-1.5,4.2-.5l6.3,5h0Z"/>
  <path class="st0" d="M144.7,34.3l7.8-9.7h0c1.1-1.4,3.3-1.7,4.7-.5l6.2,5c1.4,1.2,1.7,3.3.5,4.8l-7.8,9.7-11.4-9.3ZM156.5,24.7h0c-1.1-.9-2.7-.7-3.5.4l-7.2,9,10.2,8.2,7.2-9h0c.9-1.1.7-2.7-.4-3.6l-6.3-5h0Z"/>
  <path class="st0" d="M81.6,376.8c-2.7.6-13.8,2.6-21.2-4.2-8.4-7.6-12.6-13.3-12.6-26s11.8-14.9,11.8-14.9c.2-.1,6.8-1.8,16.3,6.7,3.6-6.6,6.6-13.5,8.8-20.6l.1-.3.2-.2c6.5-4.6,14.3-22.8,14.4-23l.8-2,.7,2c2.4,6.8-3.2,16.7-5.6,20.6,21.3-3.8,37.4-29.9,37.6-30.2l1-1.7.5,1.9c.1.4,2.2,9.1-7.8,23.1,28.8-6.9,33.5-32.1,33.5-32.4l.9-5.3.7,5.3c.1.2,2.6,20.5-4,30.8,23.8-2.9,23.5-30.2,23.5-31.4l-.2-3.4,1.6,3c5.4,9.8,12.7,18.3,21.6,25.1,2,1.6,4.1,3.1,6.3,4.4l.3.2.1.4c0,.2,1.2,6.6,0,21.2-.3,5.5-.3,11,0,16.5.4,11.9.7,24.2-3.4,31.8-3,5.5-19.4,33.1-51.1,36.5-4.5.5-9,.8-13.5.8-20.7,0-42.7-6.5-61.3-34.7h0ZM209.5,305.4c-2.2-1.4-4.3-2.8-6.2-4-8.3-6.3-15.2-14.2-20.6-23.1-.7,7.9-4.6,28.9-26.7,30.4l-1.9.1,1.2-1.5c5.4-6.5,5.5-19.7,5.2-26.6-2.9,8.1-11.7,24.9-35.7,29.7l-2.2.4,1.3-1.8c7.7-10.2,9-17.7,9-21.2-4.5,6.6-19.7,26.9-39.3,29.2l-1.8.2,1.1-1.5c0-.1,7.4-10.6,6.9-18.2-2.4,5.1-8.2,17.1-13.6,21.1-2.4,7.4-5.5,14.7-9.4,21.5l-.5.9-.8-.7c-9.2-8.5-15.5-7-15.6-7-.4.1-10.5,1.6-10.5,13.3s3.9,17.3,12.1,24.8c7.6,7,20.1,3.6,20.2,3.6l.6-.2.3.5c22.4,34.4,49.8,36.5,73.6,33.9,30.9-3.4,47-30.3,49.9-35.7,3.9-7.3,3.6-19.3,3.2-31-.2-5.6-.2-11.1.1-16.7,1-12.4.3-18.9.1-20.4h0Z"/>
  <path class="st0" d="M153,419.7l-.2-1.7c24.4-1,37.4-12.2,37.5-12.3l2.4-2.1-3.5,9.6c4.2-.6,18.1-3.6,26.7-21.5l1-2.2.5,2.4c.1.3,1.7,8.3-5.1,17.8,2.4-.3,7-1.5,12.1-6.3.1-.1,11.5-10.7,5.1-33.8l-1.1-4,2.5,3.2c.2.2,13.1,16.9,3.9,33.5,3-1.2,5.7-2.8,8.3-4.7,4.7-3.6,7.3-17.7,3.4-25.5-3.9-7.8-10.9-15.7-10.9-15.7-.8-.9-20.2-20.8-19-30.3.2-1.6,1.1-3.1,2.5-3.9,2.3-1.4,4.2-3.3,5.6-5.6,5.3-8.3,5.8-18.9,1.2-27.6-2.5-4.9-5.4-9.4-8.8-13.7-10.6-13.6-35.7-18.4-40.7-19.2-.6,3.6-5.8,15.2-47.7,19.5-40.8,4.2-67.5,1.1-84-9.7-1.1-.7-2.5-.5-3.4.5-3.9,4.5-13.3,15.7-15.3,23.9-.6,2.6-1.9,7.4-3.6,13.4-5.2,18.7-13.9,49.9-13.9,61.2h-1.7c0-11.5,8.8-42.8,14-61.6,1.7-6,3-10.7,3.6-13.3,2-8.5,11.7-20,15.7-24.6,1.4-1.6,3.7-1.9,5.5-.8,16.2,10.6,42.6,13.6,83,9.5,46.7-4.7,46.3-18.6,46.3-18.7l-.1-1,1,.1c1.3.2,30.5,4.5,42.7,20,3.5,4.4,6.5,9,9,14,4.8,9.2,4.3,20.4-1.4,29.2-1.6,2.4-3.6,4.5-6.1,6.1-1,.5-1.6,1.5-1.7,2.6-1.1,8.6,18.4,28.7,18.6,28.9,4.3,5,8.1,10.3,11.2,16.1,4.4,8.6,1.5,23.5-3.8,27.6-3.3,2.5-7.1,4.4-11,5.8l-2.3.7,1.3-2c7.7-11.4,3.4-23.4.1-29.5,4,20.8-6.2,30.2-6.7,30.6-7.9,7.4-14.8,6.8-15.1,6.8l-1.5-.1,1-1.2c4.8-6.1,5.9-11.6,6-14.9-10.7,19.4-27.8,19.8-28,19.8h-1.2l2.3-6.3c-4.8,3.3-16.9,10.2-36.2,11h0Z"/>
  <path class="st0" d="M84.7,416c-.2-.1-20.4-.2-30.9-15.1.5,2.6,2.2,6.8,7.2,11.9l1.9,2-16.2-3.4c-10.8-2.2-18.1-17.3-21-24.3-.1,5.2.3,14.7,4.8,21l.5.8-.8.5c-.4.2-3.7,1.7-12.2-3.8-17.6-11.3-11.5-39.5-11.2-40.7l1.6.4c0,.3-6.1,28.3,10.5,38.9,5.1,3.3,8.1,3.8,9.5,3.8-6-9.6-4.2-24.3-4.1-24.9l.5-3.6,1.2,3.4c.1.2,8.2,24.1,21.1,26.8l11,2.3c-7.2-8.4-6.1-14.2-6.1-14.5l.4-2.2,1.1,2c9.3,16.8,31,17,31.2,17v1.7h0Z"/>
  <path class="st0" d="M153,410l1.6.4c0,.1-3.7,13.8-.6,20.5l-1.5.7c-3.3-7.3.4-21.1.5-21.6Z"/>
  <path class="st0" d="M164.1,427.5c-4.4-.6-8.7-2-12.6-4.2l.9-1.4c3.7,2,7.7,3.4,11.9,3.9l-.2,1.7h0Z"/>
  <path class="st0" d="M232.2,501.3c0-.2-2.1-21.6-20.6-45-17.3-22-43.9-29.2-46.8-29.9h0c-.9,6.8-4.2,13-9.3,17.5-6.1,5.3-14.6,7.5-25.3,6.6-31.8-2.7-55.2-27.8-55.4-28l-1.1-1.2,1.7-.2c14-1.4,15.4-32.5,15.4-32.8l1.7.1c-.1,1.3-1.3,30.6-15.3,34.1,4.9,4.9,25.9,24.1,53.2,26.4,10.2.8,18.3-1.2,24.1-6.2,8-6.8,8.8-16.8,8.8-16.9v-.5l1.5-.6.2.1c.3.1,29.4,7,48,30.6s20.8,45.5,20.8,45.7l-1.6.2h0Z"/>
  <path class="st0" d="M1.8,496.5l-1.8-.2c3.6-32.5,20.5-47.7,31.7-57.8.5-.5,1.1-1,1.6-1.5,11-9.9,39.4-16.9,40.6-17.2l.5-.1,1.7,1.8-1.2,1.1-1-1.1c-3.8,1-29.5,7.7-39.4,16.7-.5.5-1,1-1.6,1.5-11,9.9-27.6,24.9-31.1,56.8h0Z"/>
  <path class="st0" d="M205.1,499.7c-2-14.1-8-29-8-29.2l1.5-.6c0,.2,6,15.3,8.1,29.6l-1.6.2h0Z"/>
  <path class="st0" d="M59.6,475.7l1.6-.2c.1.2,3.8,24.6,5.6,32.1l-1.6.4c-1.8-7.5-5.6-32-5.6-32.3Z"/>
  <path class="st0" d="M189.2,336.7c0-4.8-2.5-8.8-5.5-8.8s-5.5,4-5.5,8.8,2.5,8.8,5.5,8.8,5.5-4,5.5-8.8Z"/>
  <path class="st0" d="M118.7,363.7c0-3.4-5.7-6.2-12.7-6.2s-12.7,2.8-12.7,6.2,5.7,6.2,12.7,6.2,12.7-2.8,12.7-6.2Z"/>
  <path class="st0" d="M131.3,342c0-4.8-2.5-8.8-5.5-8.8s-5.5,4-5.5,8.8,2.5,8.8,5.5,8.8,5.5-4,5.5-8.8Z"/>
  <path class="st0" d="M200.7,309.6c0-.1-5.2-6.3-11.2-6.9-2.7-.2-5.3.8-7.2,2.6l-1.1-1.2c2.2-2.1,5.3-3.2,8.4-3,6.8.6,12.2,7.1,12.4,7.4l-1.3,1.1h0Z"/>
  <path class="st0" d="M114.1,316.5l-1.5-.8c2.8-5.5,6.6-9,11.3-10.5,7.4-2.4,14.3,1.3,14.6,1.4l-.8,1.5s-6.5-3.4-13.3-1.3c-4.2,1.4-7.7,4.6-10.3,9.7h0Z"/>
  <path class="st0" d="M167.6,360.5l-1-1.4c2.7-1.8,4.1-3.7,4.1-5.7,0-3.1-3.4-5.5-3.4-5.5l1-1.4c.2.1,4.1,2.9,4.1,6.9,0,2.6-1.6,5-4.8,7.1h0Z"/>
  <path class="st0" d="M137.6,376.9l1-1.4c23.3,16.3,36.6-1.9,37.2-2.7l1.4,1c-.1.2-7.3,10.1-20.1,10.1-5.4,0-12-1.8-19.5-7h0Z"/>
  <path class="st0" d="M179.7,332.6l-1.5-.4c.1-.4,3.2-10.9,11.1-10.1,6.4.7,7.9,7.1,7.8,10.4l-1.7-.1c0-.4.3-8-6.3-8.7s-9.4,8.8-9.4,8.9h0Z"/>
  <path class="st0" d="M121.8,337.9l-1.6-.4c.1-.4,3.2-10.9,11.1-10.1,6.4.7,7.9,7.1,7.8,10.4l-1.7-.1c0-.4.2-8-6.3-8.7s-9.3,8.8-9.3,8.9h0Z"/>
  <path class="st0" d="M73.2,268.4c-6.3.1-10.9-1.8-12-5.3l-31-62.5,61.7-20,12.3,68.5c1.8,5.6-6.3,13.3-18.2,17.1-4.2,1.4-8.5,2.1-12.8,2.2h0ZM31.4,201.2l30.6,61.7c1.7,5.1,12.3,6.3,23.7,2.6s19.4-10.9,17.7-16.1l-12.2-67.6-59.8,19.4h0Z"/>
  <path class="st0" d="M50.2,222.9c-4.4,0-7.4-.8-7.9-2.6-.9-3.9,11.7-9.1,24-12.1,6-1.5,12.1-2.4,18.2-2.6,3.7,0,8.2.3,8.7,2.5s-3.3,4.6-6.6,6.2c-11.5,5.1-23.8,8.1-36.4,8.6h0ZM85.2,206.4l-.8.1c-6.1.2-12.1,1.1-18,2.6-14.5,3.5-24,8.7-23.4,11.1s11.4,2.7,25.9-.8c5.9-1.4,11.7-3.3,17.2-5.9,4.2-2,6.5-4,6.2-5.2s-2.9-1.9-7.1-1.9h0Z"/>
  <path class="st0" d="M89.8,237.1c-.5,0-1-.1-1.4-.4-.8-.4-1.4-1.1-1.7-1.9s-.2-1.7.2-2.5c.8-1.6,2.8-2.3,4.4-1.5.8.4,1.4,1.1,1.7,1.9.6,1.7-.4,3.6-2.1,4.2-.4.1-.7.2-1.1.2h0ZM89.8,231.3c-.3,0-.5,0-.8.1-1.3.5-2,1.9-1.6,3.2h0c.5,1.3,1.9,1.9,3.2,1.5,1.2-.5,1.9-1.9,1.5-3.2-.2-.6-.6-1.1-1.2-1.4-.3-.1-.7-.2-1.1-.2h0Z"/>
  <path class="st0" d="M79.2,261.1c-.8-.4-1.4-1.1-1.7-1.9-.6-1.7.4-3.6,2.1-4.2,1.7-.6,3.6.4,4.2,2.1.6,1.7-.4,3.6-2.1,4.2-.4.1-.7.2-1.1.2-.5,0-1-.1-1.4-.4h0ZM80.6,255.7c-.3,0-.6,0-.8.2-.6.3-1.1.7-1.4,1.3-.6,1.2-.1,2.7,1.1,3.3.6.3,1.3.3,1.9.1,1.3-.5,1.9-1.9,1.5-3.2-.2-.6-.6-1.1-1.2-1.4-.3-.2-.7-.3-1.1-.3h0Z"/>
  <path class="st0" d="M53.9,239.7c-.5,0-1-.1-1.4-.3-1.6-.9-2.3-2.9-1.5-4.5.4-.8,1.1-1.4,1.9-1.7,1.7-.6,3.6.4,4.2,2.1.3.8.2,1.7-.2,2.5s-1.1,1.4-1.9,1.7c-.4.1-.7.2-1.1.2h0ZM53.1,233.9c-.6.3-1.1.7-1.4,1.3-.3.6-.3,1.3-.1,1.9,0,.1.1.1.1.2.5,1.3,1.9,1.9,3.2,1.4s1.9-1.9,1.4-3.2c-.2-.6-.7-1.1-1.3-1.4-.3-.2-.7-.3-1.1-.3-.3,0-.6.1-.8.1Z"/>
  <path class="st0" d="M95.9,252.6c-.5,0-1-.2-1.5-.3-1.6-.8-2.3-2.8-1.5-4.5.8-1.6,2.8-2.3,4.5-1.5.8.4,1.4,1.1,1.7,1.9.2.8.2,1.7-.2,2.5-.6,1.2-1.7,1.9-3,1.9h0ZM95,246.8c-.6.3-1.1.7-1.4,1.3s-.3,1.3-.1,1.9c.4,1,1.3,1.7,2.4,1.7,1.4,0,2.5-1.1,2.5-2.5s-1.1-2.5-2.5-2.5c-.3,0-.6.1-.9.1Z"/>
  <path class="st1" d="M64.4,201.1c16.7-5.4,29-14.1,27.2-19.5s-16.8-5.3-33.5.1-28.9,14.1-27.2,19.5c1.8,5.3,16.8,5.3,33.5-.1Z"/>
  <path class="st0" d="M30.5,201.3c-.9-2.8,1.6-6.4,6.8-10.2s12.5-7.3,20.7-9.9c8.2-2.6,16.1-4.1,22.5-4.1h.1c6.5,0,10.5,1.5,11.4,4.3,1.8,5.7-10.3,14.5-27.5,20.1-8.2,2.6-16.1,4.1-22.5,4.1h-.1c-6.5,0-10.5-1.5-11.4-4.3h0ZM80.4,177.9c-6.2.1-14.2,1.5-22.2,4.1s-15.3,6-20.4,9.7c-4.9,3.5-7.3,7-6.5,9.3s4.6,3.7,10.6,3.7h.1c6.2,0,14.1-1.5,22.2-4.1,16.3-5.2,28.6-13.9,27-19-.8-2.3-4.6-3.7-10.6-3.7h-.2Z"/>
  <path class="st0" d="M71.3,253.2l-22.5-48.8,8.7-1.7,22.2,46.6c.3.5-.3,1-1,1.5-.9.6-1.8,1.1-2.7,1.5-1.2.6-2.5,1-3.9,1.2-.4,0-.6-.1-.8-.3h0ZM57.1,203.6l-7,1.4,22,47.7c1.3-.2,2.5-.6,3.6-1.2,1.1-.5,2.2-1.2,3.2-2,0,0-21.8-45.9-21.8-45.9Z"/>
  <path class="st0" d="M46.4,198c-.2,0-.5-.1-.5-.3l-18.7-40.6,8.3-3.9,18.7,40.6c.1.3.4,1-3.8,2.9-.9.4-1.8.8-2.8,1.1-.4.1-.8.2-1.2.2h0ZM34.9,154.3l-6.8,3.2,18.3,39.7c1.3-.3,2.5-.7,3.6-1.3,1.2-.5,2.3-1.1,3.3-1.9l-18.4-39.7Z"/>
  <path class="st2" d="M31.7,156c2-1,3.7-2,3.5-2.3s-2.1.2-4.1,1.2-3.6,2-3.5,2.3c.2.3,2.1-.2,4.1-1.2Z"/>
  <path class="st0" d="M27.9,157.7c-.5,0-.6-.2-.7-.4-.2-.4.3-.9,1.1-1.4.9-.5,1.8-1,2.7-1.4,4.2-1.9,4.5-1.3,4.6-1s.5,1-3.7,2.9c-1.2.7-2.6,1.1-4,1.3h0ZM34.2,154.2c-1,.3-1.9.6-2.8,1.1-1,.4-1.8.9-2.7,1.4.9-.3,1.9-.7,2.8-1.1,1-.4,1.9-.9,2.7-1.4h0Z"/>
  <path class="st1" d="M76,242.6c1.6,0,2.9-1.3,2.9-2.9h0c0-1.6-1.3-2.9-2.9-2.9s-2.9,1.3-2.9,2.9,1.3,2.9,2.9,2.9h0Z"/>
  <path class="st0" d="M76,243c-1.5,0-2.7-.9-3.1-2.2-.3-.9-.2-1.8.2-2.6.8-1.6,2.8-2.3,4.4-1.5.8.4,1.4,1.1,1.7,1.9.2.8.2,1.7-.2,2.5s-1.1,1.4-1.9,1.7c-.4.1-.7.2-1.1.2h0ZM76,237.2c-.3,0-.6,0-.7.2-1.3.5-2,1.9-1.5,3.2.2.6.6,1.1,1.2,1.4.6.3,1.3.3,1.9.1s1.1-.7,1.4-1.3.3-1.3.1-1.9c-.3-.6-.7-1.1-1.3-1.4-.3-.2-.7-.3-1.1-.3h0Z"/>
  <path class="st0" d="M100.6,202.7c-3,0-5.6-2.1-6.2-4.8l-8.9-36c-.9-3.5,1.2-7,4.7-7.9l47.8-11.9h0c3.5-.9,6.9,1.2,7.8,4.7l8.9,36c.9,3.4-1.2,6.9-4.7,7.8l-47.8,11.9c-.6.1-1.1.2-1.6.2h0ZM139.5,142.7c-.4,0-.9,0-1.3.1l-47.9,11.9c-3,.8-4.9,3.9-4.1,6.9l8.9,36c.4,1.5,1.3,2.7,2.6,3.5,1.3.7,2.9,1,4.3.6l47.8-11.9c3-.7,4.9-3.8,4.1-6.8l-8.9-36c-.7-2.5-2.9-4.3-5.5-4.3h0Z"/>
  <path class="st0" d="M87.5,168.4l.2.8,58.8-14.6-.2-.8-58.8,14.6Z"/>
  <path class="st0" d="M133.3,150.9l.2.8,9.3-2.3-.2-.8-9.3,2.3Z"/>
  <path class="st0" d="M88.9,161.9l.2.8,9.3-2.3-.2-.8-9.3,2.3Z"/>
  <path class="st1" d="M112.1,174h0c-.2.5-.8.6-1.1.4l-38.6-22.6,2.2-4,40.3,21.3-2.8,4.9h0Z"/>
  <path class="st0" d="M111.3,174.9c-.1,0-.4,0-.6-.1l-38.9-22.8,2.6-4.7,41,21.7-3,5.3c-.2.3-.5.5-.8.6,0,0-.3,0-.3,0ZM114.3,169.3l-39.6-21-1.8,3.3,38.2,22.4h.4c.1,0,.2-.1.3-.2l2.5-4.5h0Z"/>
  <path class="st0" d="M116.2,176.5c-1.5,0-2.9-.3-4.2-1-.2-.1-.4-.2-.6-.3l-.3-.2,3.6-6.4.4.2.6.3c3.3,1.9,4.4,6.2,4.4,6.4l.1.4-.4.1c-1.1.3-2.4.5-3.6.5h0ZM119.2,175.3c-.4-1.1-1.5-4.1-3.9-5.5l-.2-.1-2.8,5c.1,0,.1.1.2.1,2.4,1.4,5.6.8,6.7.5h0Z"/>
  <path class="st0" d="M119.5,175.9l3.2,1.8.4-.7-3.2-1.8-.4.7Z"/>
  <path class="st0" d="M101.9,166.4l5.9,3.3.4-.7-5.9-3.3-.4.7Z"/>
  <path class="st0" d="M139.7,179.2c-.6.4.1,1.1.6.6,1.4-1.3.6-3.5-1-4.3-2.3-1.1-4.8.9-6.3,2.4-1.9,1.9-3.8,4.4-6.7,4.7-1.2.1-2.4-.4-3.1-1.4-.7-.9-.6-2.1.1-3,.2-.2.2-.5,0-.7s-.5-.2-.7,0c-1.2,1.4-1.1,3.6.2,4.9,1.6,1.7,4.1,1.5,6,.6,2.4-1.1,4-3.5,6-5.2,1-.8,2.6-1.8,4-1.3,1,.4,1.8,1.8.9,2.7h0Z"/>
  <path class="st1" d="M117.4,252.2c-4.4,1.4-7,6.1-5.7,10.6,1.3,4.6,6.1,7.3,10.7,6-.1,4.8,3.7,8.7,8.5,8.8,4.8.1,8.7-3.7,8.8-8.5,3.5,1.2,7.4-.1,9.6-3,2.9-3.8,2.1-9.2-1.7-12.1-.6-.5-1.3-.9-2.1-1.2,2.9-3.8,2.1-9.2-1.7-12.1s-9.2-2.1-12.1,1.7c-.5-.7-1.1-1.3-1.8-1.8-3.8-2.9-9.2-2.2-12.1,1.6-2.2,2.9-2.4,6.9-.4,10h0Z"/>
  <path class="st0" d="M131.2,277.8c-4.8,0-8.7-3.7-9-8.5-2.6.6-5.3,0-7.4-1.6-3.9-3-4.7-8.7-1.7-12.7,1-1.4,2.3-2.4,3.9-3-2.3-3.9-1.4-8.9,2.1-11.7,3.9-3.1,9.6-2.5,12.7,1.4,3-3.4,8-4.1,11.8-1.6,4.1,2.8,5.3,8.4,2.6,12.6.6.3,1.2.6,1.7,1,2.8,2.2,4,5.8,3.2,9.3-1.2,4.9-6.1,7.9-11,6.7-.4,4.7-4.3,8.2-9,8.2l.1-.1h0ZM139.3,268.6h.5c3.4,1,7-.1,9.1-2.9,2.7-3.7,2-8.9-1.6-11.6-.6-.4-1.3-.8-2-1.1l-.5-.2.3-.4c2.6-3.6,1.9-8.6-1.6-11.3-3.6-2.8-8.8-2.2-11.6,1.4l-.3.4-.3-.5c-2.6-3.5-7.5-4.4-11.2-2-3.8,2.5-4.9,7.6-2.4,11.4l.3.5-.5.2c-1.6.6-3,1.6-4,2.9-2.8,3.7-2,8.8,1.6,11.6,2.1,1.6,4.7,2.1,7.2,1.4l.5-.1v.5c0,4.6,3.6,8.3,8.1,8.4,4.6,0,8.3-3.6,8.4-8.1v-.5h0Z"/>
  <path class="st0" d="M127.5,262.2c-1.6-1.2-2.5-3.1-2.5-5.1,0-3.6,2.9-6.4,6.4-6.4s6.4,2.9,6.4,6.4-2.9,6.4-6.4,6.4c-1.4,0-2.7-.5-3.9-1.3ZM131.4,251.6c-.2,0-.5,0-.7.1-3,.4-5.1,3.2-4.7,6.2.4,3,3.2,5.1,6.2,4.7s5.1-3.2,4.7-6.2c-.4-2.7-2.7-4.8-5.5-4.8h0Z"/>
  <path class="st0" d="M219.5,161c-.5-3.5,1.9-6.7,5.4-7.2.3-.1.6-.1.9-.1,3.6,0,6.4,2.8,6.4,6.4s-2.9,6.4-6.4,6.4c-3.1,0-5.8-2.4-6.3-5.5h0ZM225.8,154.6h-.7c-1.4.2-2.7.9-3.6,2.1-1.9,2.4-1.4,5.9,1,7.8,1.2.9,2.6,1.3,4.1,1.1,3-.4,5.1-3.2,4.7-6.2-.4-2.7-2.7-4.8-5.5-4.8h0Z"/>
  <path class="st0" d="M225.5,180.9c-2,.1-3.9-.6-5.3-2-2.2-1.6-3.5-4-3.6-6.7-2.6.5-5.3-.1-7.4-1.7-4-3-4.7-8.7-1.7-12.7,1-1.3,2.3-2.4,3.9-3-1.8-3.1-1.6-7.1.6-10l.1-.1c3-3.9,8.7-4.6,12.6-1.6.5.4,1.1.9,1.5,1.5,2.9-3.4,8-4.1,11.8-1.6,4.2,2.8,5.4,8.4,2.6,12.6.6.3,1.2.6,1.7,1,2.9,2.2,4.2,6,3.3,9.5-1.3,4.9-6.2,7.8-11.1,6.6-.4,4.6-4.3,8.2-9,8.2h0ZM233.8,171.6l.5.1c4.2,1.4,8.8-.8,10.3-5,1.5-4.3-.6-9-4.9-10.6l-.5-.2.3-.4c2.6-3.5,1.9-8.5-1.5-11.2-3.6-2.8-8.8-2.3-11.6,1.3l-.3.5-.3-.5c-.5-.7-1-1.3-1.7-1.8h0c-3.6-2.7-8.8-2-11.5,1.6-2.1,2.8-2.2,6.6-.3,9.5l.3.5-.5.2c-4.3,1.3-6.7,5.8-5.5,10.1,1.3,4.4,5.8,7,10.2,5.7l.5-.1v.5h0c0,4.6,3.5,8.4,8.1,8.4s8.3-3.6,8.4-8.1v-.5h0Z"/>
  <path class="st0" d="M25.1,252.2c-1-.8-1.6-1.9-1.8-3.2v-.6c0-2.7,2.2-4.8,4.8-4.8s4.8,2.2,4.8,4.8-2.2,4.8-4.8,4.8c-1,0-2-.3-3-1ZM28.1,244.5l-.6.1c-1,.1-2,.7-2.6,1.5-1.3,1.7-.9,4.2.8,5.5s4.2.9,5.5-.8c.5-.7.8-1.5.8-2.4,0-2.1-1.7-3.9-3.9-3.9h0Z"/>
  <path class="st0" d="M27.9,263.8c-3.6-.1-6.5-2.8-6.8-6.3-1.9.4-3.9,0-5.4-1.2-1-.7-1.7-1.7-2.2-2.8-1.4-3.4.2-7.4,3.7-8.8-1.4-2.4-1.2-5.3.5-7.5,2.3-3,6.6-3.5,9.5-1.2.4.3.8.6,1.1,1,2.2-2.4,5.8-2.9,8.6-1.2,3.1,2,4.1,6.1,2.1,9.3.5.2.8.4,1.2.7,2.3,1.6,3.3,4.4,2.6,7.1-.9,3.6-4.6,5.8-8.2,4.9-.4,3.4-3.3,6-6.7,6h0ZM33.8,256.7l.5.3c2.4.7,5-.1,6.5-2.1,1.9-2.6,1.4-6.3-1.2-8.3-.4-.3-.9-.6-1.4-.8l-.5-.2.3-.4c2-2.6,1.5-6.3-1.1-8.3s-6.3-1.5-8.3,1.1l-.3.4-.3-.5c-.3-.5-.7-.9-1.2-1.3-2-1.5-4.8-1.6-6.9-.2-2.7,1.8-3.4,5.5-1.6,8.2l.3.5-.5.2c-1.2.3-2.2,1-2.9,2-2,2.6-1.5,6.3,1.1,8.3,1.5,1.1,3.4,1.5,5.2,1l.5-.1v.5c.1,3.1,2.5,5.6,5.6,5.8,3.2.2,6-2.3,6.2-5.6v-.5h0Z"/>
  <path class="st0" d="M254,268.5c-1.1-.1-2.2-.3-2.9-.9-2.8-1.7-3.7-5.3-2-8.1h0c1.7-2.8,5.4-3.6,8.1-1.9,2.8,1.7,3.6,5.3,1.9,8.1-.9,1.3-2.2,2.2-3.7,2.6-.5.1-.9.2-1.4.2h0ZM254,257.5c-.4,0-.8.1-1.2.1-1.3.3-2.4,1.2-3.1,2.3-1.5,2.4-.8,5.5,1.6,7s5.5.8,7-1.6.8-5.5-1.6-7c-.8-.5-1.8-.8-2.7-.8h0Z"/>
  <path class="st0" d="M254.6,281.8c-4,0-7.6-3-8.3-6.9-2.3.7-4.8.4-6.9-.9-3.9-2.5-5.1-7.7-2.7-11.6.8-1.3,1.9-2.4,3.3-3.1-2-2.8-2.1-6.4-.3-9.3h0c2.5-3.9,7.7-5.1,11.6-2.7.5.3,1,.7,1.5,1.2,2.6-3.6,7.5-4.5,11.2-2.2s5,7.1,3,11c3.8,1.3,6.1,5.1,5.5,9.1-.6,4.6-4.9,7.8-9.5,7.1,0,4.6-3.8,8.3-8.4,8.3h0ZM262.2,272.5l.6.3c3.1.7,6.3-.7,8-3.4,2.2-3.6,1.1-8.3-2.4-10.5-.6-.4-1.2-.7-1.9-.9l-.5-.1.3-.5c2.2-3.5,1.1-8.2-2.4-10.4s-8.2-1.2-10.4,2.4l-.3.5-.4-.4c-.5-.6-1.1-1.1-1.7-1.5h0c-3.6-2.1-8.2-1-10.4,2.5-1.7,2.8-1.5,6.3.5,8.8l.3.4-.5.2c-1.5.6-2.7,1.7-3.5,3-2.2,3.5-1.1,8.2,2.5,10.4,2,1.2,4.5,1.5,6.7.6l.5-.2v.5c.2,2.3,1.5,4.5,3.5,5.7,1.3.8,2.9,1.2,4.4,1.1,4.1-.3,7.3-3.8,7.1-8v-.5h0Z"/>
  <path class="st0" d="M255.5,206.1c0-3.3,2.7-6,6-6s6,2.7,6,6-2.7,6-6,6-6-2.7-6-6ZM256.4,206.2h0c.1,2.8,2.4,5.1,5.2,5.1,2.8-.1,5.1-2.4,5.1-5.2-.1-2.8-2.4-5.1-5.2-5.1s-5.1,2.3-5.1,5.2Z"/>
  <path class="st0" d="M183.3,172.7c-2.6,0-4.6-2.1-4.6-4.7h0c0-2.5,2.1-4.6,4.7-4.6s4.6,2.2,4.6,4.7-2.1,4.6-4.7,4.6h0ZM179.5,168h0c0,2.1,1.7,3.8,3.8,3.8s3.8-1.7,3.8-3.8-1.7-3.8-3.8-3.8-3.8,1.7-3.8,3.8Z"/>
  <path class="st0" d="M59.6,170.6h0c0-1.9,1.5-3.4,3.4-3.4s3.4,1.5,3.4,3.4-1.5,3.4-3.4,3.4-3.4-1.5-3.4-3.4ZM63,168c-1.4.1-2.5,1.2-2.6,2.6h0c0,1.5,1.1,2.6,2.6,2.6s2.6-1.2,2.6-2.6c0-1.5-1.2-2.6-2.6-2.6h0Z"/>
  <path class="st0" d="M257.3,236.1c-1.6.1-3.3-.1-4.9-.4l-.4-.1.1-.4c.1-.4,1.8-8.7,8.1-12.9,6.3-4.2,14.6-2.3,15-2.2l.4.1-.1.4c-.1.4-1.8,8.8-8.1,12.9-3.1,1.8-6.6,2.7-10.1,2.6h0ZM260.6,222.9c-5.2,3.4-7.2,10.2-7.6,11.9,1.8.4,8.8,1.3,14-2.1s7.2-10.2,7.6-11.9c-1.8-.3-8.8-1.3-14,2.1Z"/>
  <path class="st0" d="M207.3,184.2c-.3-.1-8.7-1.8-12.8-8.1s-2.3-14.6-2.2-15l.1-.4.4.1c.3.1,8.7,1.7,12.8,8.1s2.3,14.7,2.2,15.1l-.1.4-.4-.2h0ZM193.1,161.8c-.3,1.7-1.3,8.8,2.1,14s10.2,7.2,11.9,7.6c.4-1.7,1.3-8.8-2.1-14s-10.2-7.2-11.9-7.6h0Z"/>
  <path class="st0" d="M269,90.3c0-.6-.4-1-1-1s-1,.4-1,1,.4,1,1,1c.5,0,1-.4,1-1Z"/>
  <path class="st0" d="M254.2,92.6c0-.6-.4-1-1-1s-1,.4-1,1,.4,1,1,1c.5,0,1-.4,1-1Z"/>
  <path class="st0" d="M260.6,94.5l2.9.7.2-.8-2.9-.7-.2.8Z"/>
  <path class="st0" d="M258.3,95.5l.5.7,2.4-1.8-.5-.7-2.4,1.8Z"/>
  <path class="st0" d="M163.7,174.6l-3.3-18.8c-.8-4.7-.5-9.4,1-13.9-5.7-1.2-10.5-5.1-12.8-10.5-1.4-3.6-2.2-9.1,2.3-15.8,1.9-2.7,2.5-5.4,2-7.9-.9-3.9-4.4-6.8-7.3-8.6-.8-.5-1.3-1.4-1.2-2.3,0-.3.1-.6.2-.8.6-1.2,2.1-1.8,3.3-1.2,2.7,1.2,9.1,4.7,10.7,10.3.8,3,.1,6.1-2,9.2-3,4.5-4,9.2-2.7,13.6,1.4,4.6,4.7,8.3,9.1,10.2,2-3.8,4.8-7,8.2-9.5,15.7-11.4,34.3-20.4,55.1-26.9,4.7-1.5,9.6-2.8,14.6-4l.6-20.6c0-.5.4-1,.9-1.1.6-.2,1.1.1,1.4.6,2.6,5,8,7.8,13.5,7.1,5.3-.7,9.6-4.5,11.1-9.6.2-.7.3-1.4.4-2.1,0-.4.3-.9.8-1,.6-.2,1.3.2,1.5.8l11.5,41.9,18,9.6c.4.3.6.7.6,1.2,0,.8-.7,1.5-1.5,1.5l-10.2.2c-.7,0-74.4,1.4-125.3,47.9l-.5.5h0ZM269.8,71.8h0c-.2,0-.3.1-.3.1-.1.7-.3,1.5-.5,2.2-1.6,5.5-6.2,9.5-11.8,10.2-5.9.8-11.6-2.2-14.3-7.5,0-.2-.2-.2-.4-.2-.2.1-.3.2-.3.4l-.6,21.3-.3.1c-5,1.2-10,2.6-14.9,4-20.7,6.4-39.2,15.4-54.9,26.8-3.4,2.5-6.2,5.7-8.1,9.5l-.2.4-.4-.1c-4.7-1.9-8.3-5.9-9.9-10.8-1.4-4.6-.4-9.6,2.8-14.3,1.9-2.9,2.6-5.8,1.8-8.5-1.6-5.4-8.3-8.9-10.3-9.8-.2,0-.4-.1-.6-.1-.9-.1-1.7.6-1.8,1.5,0,.6.3,1.2.8,1.5,3,1.9,6.8,5,7.7,9.2.6,2.8-.1,5.7-2.1,8.6-4.2,6.4-3.5,11.7-2.2,15,2.3,5.2,7.1,9,12.7,10.1l.5.1-.1.5c-1.6,4.5-2,9.3-1.1,13.9l3.2,17.1c51.1-46.2,124.6-47.6,125.3-47.6l10.2-.2c.3,0,.5-.2.6-.5s0-.5-.2-.7l-18.4-9.7-11.6-42.3c0-.1-.1-.2-.3-.2h0Z"/>
  <path class="st1" d="M251.3,131l25-.9c.4-.1.7-.2.9-.5.3-.5.2-1.2-.3-1.5l-18.2-9.6"/>
  <path class="st0" d="M251.3,131.3l-.2-.9,25-.9c.2,0,.4-.1.5-.2.3-.2.3-.7,0-.9l-18.2-9.6.4-.7,18.2,9.6c.4.3.6.7.6,1.2.1.8-.6,1.5-1.4,1.5l-24.9.9h0Z"/>
  <path class="st1" d="M180.9,160.3l-19.4,15.9c-.2.2-.6.3-.9.2-.5-.1-.9-.6-.8-1.2l6.9-19.4"/>
  <path class="st0" d="M160.9,176.9c-.2,0-.5-.1-.8-.3-.6-.3-.9-1-.7-1.6l6.9-19.4.8.3-6.9,19.4c0,.2.1.4.2.6.2.2.6.2.9,0l19.4-15.9.5.6-19.3,15.9c-.3.3-.6.4-1,.4h0Z"/>
  <path class="st0" d="M23.32,123.27c.18-.09.31-.27.35-.41-.35-2.41-.93-5.94-1.58-10.44.04-.13-.14-.27-.23-.22l-.09.05c-3.12.49-6.47.99-9.86,1.39-.31.05-.49-.08-.63-.35l-.05-.09c-.1-.4.04-.58.44-.68,3.48-.45,6.74-.9,9.86-1.39.22,0,.27-.14.31-.27-.25-1.79-.6-4.42-1.06-8.13-.05-.31.26-.59.57-.63s.54.17.59.48c.5,3.57.76,6.25,1.01,8.04.05.09.14.27.36.26,7.18-1.13,15.03-2.72,23.72-4.86.31-.05.58.04.68.44s-.04.58-.35.63c-8.78,2.18-16.72,3.82-23.9,4.95-.22,0-.27.14-.26.36.6,4.42,1.05,7.68,1.39,9.86,0,.22.14.27.32.17,3.33-1.61,6.85-2.65,10.47-3.06,5.31-.61,9.71.04,13.18,1.96,3.38,1.74,5.57,5.11,5.94,8.86.46,3.71-.65,7.43-3.16,10.2-2.6,3.03-6.32,5.41-11.26,6.96-.27.14-.58-.04-.67-.21l-.05-.09c-.14-.27.04-.58.3-.72l.18-.09c4.72-1.54,8.22-3.7,10.69-6.55,2.38-2.58,3.45-5.95,3-9.44-.26-2.68-1.64-5.12-3.63-6.79-2.31-1.85-5.14-2.97-8.19-3.19-.13-.04-.31.05-.44.23l.05.09c-1.92,6.74-5.27,13.09-9.8,18.48-4.31,4.94-8.3,7.68-12,8.13-1.74.34-3.45-.13-4.8-1.23-1.31-1.23-2.1-2.97-2.26-4.8-.32-3.44.53-6.81,2.32-9.65,2.01-3.52,4.92-6.38,8.56-8.26h0ZM23.82,124.47c-.05-.09-.09-.18-.27-.09-3.24,1.79-5.93,4.42-7.9,7.58-1.66,2.66-2.42,5.76-2.15,8.89.11,1.52.76,2.99,1.85,4,1.13.88,2.57,1.26,3.99.97,2.14-.21,4.63-1.5,7.33-3.68.18-.09.26-.36.17-.54-1.31-6.87-2.37-12.62-3.02-17.13h0ZM25.11,123.47c-.18.09-.22.23-.26.36.93,5.94,1.87,11.65,2.84,17l.05.09c.05.09.13.04.22,0,2.69-2.63,5.11-5.57,6.9-8.86,2.18-3.61,3.96-7.57,5.25-11.61.09-.27.04-.36-.18-.36-1.48-.02-2.91.04-4.38.24-3.57.5-7.18,1.58-10.42,3.15h0Z"/>
  <path class="st1" d="M146.7,77.4c-18.5,8.8-38.8,65.5,2.2,41.9l28.6,13.1c8.9,46.4,38.4-6.1,33-25.8-5.1-18.9-23.2-11.3-24.7-10.6-.3-.4-.7-.7-1.1-.9l-5-2.3-2.4-1.1-5-2.3c-.5-.1-.9-.2-1.4-.2-.5-1.6-6.6-20.3-24.2-11.8h0Z"/>
  <path class="st0" d="M189,151.4c-.6,0-1.3-.1-1.9-.4-4.5-1.5-7.9-7.7-10-18.5l-28.2-12.9c-9.6,5.5-16.5,7-20.5,4.5-2.7-1.6-3.9-5.1-3.7-9.9.6-12.1,11-32.1,21.8-37.3,5.3-2.6,10.1-3,14.3-1.1,6.8,3,9.8,10.9,10.4,12.8.4,0,.8.1,1.2.3l12.4,5.7c.4.1.7.4,1,.7,1.8-.7,9.7-3.7,16.4-.5,4.1,2,7,5.9,8.5,11.6,3.2,11.6-5.1,32.6-13.8,41-2.7,2.6-5.4,4-7.9,4h0ZM195.4,94.3c-3.3.1-6.5.8-9.6,2l-.3.1-.2-.3c-.2-.3-.5-.5-.9-.7l-12.4-5.6c-.3-.2-.7-.2-1.1-.2h-.3l-.1-.3c-.3-1-3.1-9.5-10-12.6-3.9-1.7-8.5-1.3-13.6,1.1-10.3,5-20.8,24.8-21.4,36.6-.2,3.2.3,7.3,3.3,9.2,3.8,2.3,10.6.7,19.8-4.6l.2-.1,29,13.3v.2c2.1,10.4,5.3,16.7,9.5,18,3.4,1,6.8-1.3,9.1-3.5,8.5-8.2,16.6-29.1,13.6-40.2-1.5-5.4-4.2-9.1-8.1-11-2-1-4.2-1.4-6.5-1.4h0Z"/>
  <path class="st1" d="M201,109.7h0c0-3.3-2.6-5.9-5.9-5.9s-5.9,2.6-5.9,5.9,2.6,5.9,5.9,5.9,5.9-2.7,5.9-5.9Z"/>
  <path class="st0" d="M195.1,116c-.9,0-1.8-.2-2.7-.5-3.1-1.5-4.5-5.2-3.1-8.4.7-1.5,2-2.7,3.6-3.3,3.3-1.2,6.9.4,8.1,3.7.3.7.4,1.5.4,2.2,0,3.5-2.8,6.3-6.3,6.3h0ZM195.1,104.2c-2.1,0-4.1,1.2-4.9,3.2-.6,1.3-.6,2.8-.1,4.2s1.6,2.5,2.9,3.1h0c2.7,1.3,5.9,0,7.2-2.7.5-1.3.6-2.8.1-4.2s-1.6-2.5-2.9-3.1c-.7-.3-1.5-.5-2.3-.5h0Z"/>
  <path class="st1" d="M155.5,114.3c3.3,0,5.9-2.6,5.9-5.9h0c0-3.3-2.6-5.9-5.9-5.9s-5.9,2.6-5.9,5.9,2.6,5.9,5.9,5.9h0Z"/>
  <path class="st0" d="M152.9,114.2c-2.3-1.1-3.7-3.3-3.7-5.8,0-3.5,2.8-6.3,6.3-6.3s6.3,2.8,6.3,6.3-2.8,6.3-6.3,6.3c-.9,0-1.8-.2-2.6-.5ZM155.5,102.9c-2.1,0-4.1,1.3-5,3.2-1.3,2.8-.1,6,2.7,7.3,2.7,1.2,5.9,0,7.2-2.7.6-1.3.7-2.8.2-4.2-.8-2.2-2.8-3.6-5.1-3.6h0Z"/>
  <path class="st1" d="M177.8,116.6c-.9-.5-2.1-.1-2.6.9s0,2.1.9,2.5l2.4,1.1-1.1,2.3c-.5.9,0,2.1.9,2.5.9.5,2.1,0,2.5-.9l1.1-2.3,2.3,1.1h0c1,.5,2,.1,2.5-.9s0-2.1-.9-2.5l-2.3-1.1,1.1-2.3h0c.5-.9,0-2.1-.9-2.5-.9-.5-2.1,0-2.5.9l-1.1,2.3-2.3-1.1h0Z"/>
  <path class="st0" d="M177,125c-.2-.6-.2-1.2.1-1.8l.9-1.9-2-.9c-1.1-.5-1.5-1.8-1.1-2.9.5-1.2,1.8-1.8,3-1.3l2,.9.9-2c.3-.5.7-1,1.3-1.2s1.2-.2,1.8.1c1.1.5,1.6,1.9,1.1,3l-.9,2,2,.9h0c1.1.6,1.6,1.9,1.1,3.1-.5,1.1-1.8,1.6-3,1.1l-2-.9-.9,2c-.4.8-1.2,1.3-2.1,1.3s-1.7-.6-2.2-1.5h0ZM184.4,123.2h0c.8.4,1.7,0,2-.7.4-.8,0-1.7-.7-2l-2.7-1.2,1.2-2.7c.4-.7,0-1.6-.7-1.9-.3-.2-.7-.2-1.1,0-.3.2-.6.4-.8.8l-1.3,2.7-2.7-1.2h0c-.7-.4-1.6,0-1.9.7h0c-.4.8,0,1.7.7,2l2.7,1.2-1.2,2.7c-.1.3-.1.7,0,1.1.2.3.4.6.8.8h0c.7.4,1.6,0,1.9-.7l1.2-2.7s2.6,1.1,2.6,1.1Z"/>
  <path class="st1" d="M155,88.3c1.1,0,1.9-.9,1.9-1.9s-.9-1.9-1.9-1.9-1.9.9-1.9,1.9.8,1.9,1.9,1.9h0Z"/>
  <path class="st0" d="M154,88.4c-.5-.2-1-.7-1.2-1.3-.2-.6-.2-1.2.1-1.8h0c.5-1.1,1.9-1.6,3.1-1.1.5.2,1,.7,1.2,1.3.2.6.2,1.2-.1,1.8-.3.9-1.2,1.4-2.1,1.4-.3,0-.6-.1-1-.3ZM155,84.8c-.1,0-.3,0-.6.1-.3.2-.6.4-.8.8-.4.7-.1,1.6.7,2h0c.8.3,1.7,0,2-.8.4-.8.1-1.6-.7-2-.2-.1-.4-.1-.6-.1h0Z"/>
  <path class="st1" d="M157.5,94.4c1.1,0,1.9-.9,1.9-1.9s-.9-1.9-1.9-1.9-1.9.9-1.9,1.9.8,1.9,1.9,1.9h0Z"/>
  <path class="st0" d="M157.5,94.8c-.3,0-.7-.1-.9-.2-.5-.2-1-.7-1.2-1.3-.2-.6-.2-1.2.1-1.8.3-.9,1.2-1.4,2.1-1.4,1.3,0,2.3,1.1,2.3,2.4s-1.1,2.3-2.4,2.3h0ZM157.5,90.9c-.6,0-1.2.4-1.4.8-.1.4-.1.8,0,1.2s.4.7.8.9h0c.7.3,1.7,0,2-.8.3-.7,0-1.7-.8-2-.2-.1-.4-.1-.6-.1h0Z"/>
  <path class="st1" d="M150.7,88.9h0c-.1-1-.9-1.9-2-1.9-1,0-1.9.8-1.9,1.9,0,1,.8,1.9,1.9,1.9,1,0,1.9-.9,2-1.9Z"/>
  <path class="st0" d="M147.7,90.9c-.5-.2-1-.7-1.2-1.3-.2-.6-.2-1.2.1-1.8.2-.5.7-1,1.3-1.2,1.2-.4,2.6.2,3,1.4,0,.2.1.5.1.8,0,1.3-1,2.4-2.3,2.4-.4,0-.7-.1-1-.3h0ZM148.7,87.3c-.2,0-.4.1-.5.2-.3.1-.6.4-.8.8-.3.7,0,1.5.7,1.9s1.6.1,2-.7c.1-.4.1-.8,0-1.2-.2-.4-.4-.7-.8-.9-.2-.1-.4-.1-.6-.1h0Z"/>
  <path class="st1" d="M153.1,95h0c-.1-1-.9-1.9-2-1.9-1,0-1.9.8-1.9,1.9,0,1,.8,1.9,1.9,1.9s1.9-.9,2-1.9Z"/>
  <path class="st0" d="M151.1,97.3c-.3,0-.7,0-1-.2-.9-.4-1.4-1.2-1.4-2.1,0-1.3,1-2.4,2.3-2.4s2.4,1,2.4,2.3-1,2.4-2.3,2.4h0ZM151.1,93.4c-.6,0-1.1.4-1.4.9h0c-.3.8,0,1.7.8,2s1.7,0,2-.8,0-1.7-.8-2c-.2-.1-.4-.1-.6-.1h0Z"/>
  <path class="st2" d="M165,116.4c-.3-.1-.6,0-.7.3-.1.3,0,.6.3.7l3.9,1.8h0c.3.1.6,0,.7-.3.1-.3,0-.6-.3-.7l-3.9-1.8q-.07,0,0,0Z"/>
  <path class="st0" d="M168.6,119.6c-.1,0-.2,0-.4-.2l-3.9-1.7c-.5-.2-.7-.7-.5-1.2.1-.2.3-.4.5-.5s.5-.1.7,0l3.9,1.8c.2.1.4.3.5.5s.1.5,0,.7-.3.4-.5.5c-.1.1-.2.1-.3.1h0ZM164.8,116.8c-.13.07-.17.13-.1.2l3.9,1.8.1-.1c.1,0,0-.1,0-.1l-3.9-1.8h0Z"/>
  <path class="st1" d="M139.4,231.5l13.7-51.8c.07-.07.1-.13.1-.2.7-2,2.9-3.1,4.9-2.4l81.8,25.2c2.2.7,3.5,2.9,3,5.1l-13.6,51.8c-.07.07-.1.13-.1.2-.7,2.1-3,3.1-5,2.4l-81.8-25.2c-2.2-.6-3.5-2.9-3-5.1h0Z"/>
  <path class="st0" d="M224,262.1l-81.8-25.2c-2.4-.7-3.8-3.2-3.3-5.6l13.6-51.8c.3-1.1,1-2,2-2.5,1.1-.6,2.4-.7,3.6-.3l81.8,25.2c2.4.7,3.8,3.2,3.3,5.6l-13.5,51.8c-.3,1-1,2-2,2.5-.7.4-1.4.6-2.2.6-.5,0-1-.1-1.5-.3h0ZM156.7,177.3c-.6,0-1.2.2-1.8.5-.8.4-1.4,1.1-1.6,2l-13.6,51.8c-.4,2,.8,4,2.8,4.6l81.8,25.2c1,.3,2.1.2,3-.3.8-.4,1.4-1.1,1.6-2l13.6-51.8c.4-2-.8-4-2.8-4.6l-81.8-25.2c-.4-.1-.8-.2-1.2-.2h0Z"/>
  <path class="st1" d="M198.5,191.1l-35.7-17.2c-.2-.1-.4-.1-.6-.2-1.6-.5-3.3.5-3.8,2.1l-13.6,51.8c-.5,2.1.7,4.2,2.8,4.8,4.3,1.3,11.1,3.3,13.9,4.4,10.9,4.2,21.7,11.8,21.7,11.8l15.3-57.5h0Z"/>
  <path class="st0" d="M183.4,249.3l-.5-.2c-.1-.1-10.9-7.7-21.6-11.8-2.9-1.2-10-3.3-13.9-4.4-2.3-.6-3.6-3-3.1-5.3l13.6-51.8c.2-1,.9-1.8,1.8-2.2,1.1-.5,2.2-.5,3.2,0l36,17.3-15.5,58.4h0ZM198,191.3l-35.3-17.1c-.7-.4-1.6-.4-2.4,0-.7.4-1.2,1-1.4,1.7l-13.6,51.8c-.5,1.9.6,3.8,2.5,4.3,4.8,1.4,11.1,3.3,13.9,4.4,9.5,3.6,19.1,10,21.3,11.5l15-56.6h0Z"/>
  <path class="st1" d="M237.1,197.4l-38.7-5.8-15,57.6s12.9-.3,24.2,2.4c2.9.7,9.6,2.8,13.9,4.2.1,0,.2.1.3.1,2,.6,4-.6,4.5-2.5l13.6-51.8c.1-.1.1-.2.1-.3.3-1.9-1-3.6-2.9-3.9h0Z"/>
  <path class="st0" d="M222.8,256.3c-.4,0-.9-.1-1.5-.3-3.9-1.2-10.9-3.5-13.9-4.2-11.1-2.7-24-2.4-24.1-2.4h-.5l15.2-58.4,39.1,5.9c1.1.1,2.1.8,2.7,1.7.6.8.7,1.9.5,2.9l-13.6,51.8c-.3,1.1-.9,2-1.9,2.5-.6.3-1.3.5-2,.5h0ZM183.9,248.7c2.6,0,13.9,0,23.8,2.4,2.9.6,9.2,2.6,14,4.2.9.3,1.9.2,2.7-.2.7-.4,1.3-1.1,1.5-1.9l13.6-51.8c.2-.7,0-1.5-.4-2.2-.5-.8-1.2-1.3-2.1-1.4l-38.3-5.8-14.8,56.7Z"/>
  <path class="st1" d="M169.9,172.4h-.2c-2.4-.7-4.8.6-5.5,3l-12.7,48.4c-.6,2.1.5,4.3,2.5,5.2,2.5,1.1,6.7,3.4,13.9,7.5,5.7,3.5,10.9,7.8,15.2,12.9l.2-.1c.1.1.2-.1.2-.1,6.2-1.9,12.7-2.6,19.1-2.1,9,.7,13.9,1.3,16.4,1.7,1.7.3,3.3-.7,3.7-2.3l13.2-50.3c.4-1.8-.6-3.7-2.3-4.3-5.7-2-11.6-3-17.6-2.9-13.4,0-16.8,1.8-17.6,2.5-.3-1.1-2.3-4.6-13.7-12.2-4.6-3.1-9.6-5.5-14.8-6.9h0Z"/>
  <path class="st0" d="M182.9,249.7v-.3c-4.4-5-9.4-9.3-15.1-12.7-6.1-3.5-10.7-6-13.9-7.5-2.2-1-3.4-3.4-2.8-5.7l12.7-48.4c.3-1.2,1.1-2.3,2.2-2.9,1.2-.7,2.6-.9,3.9-.5,5.4,1.6,10.5,4.1,15.1,7.3,10,6.8,12.8,10.3,13.6,11.9,1.6-1,5.8-2.3,17.4-2.3h0c6-.1,12,.9,17.7,2.9,1.9.8,3,2.8,2.5,4.8l-13.2,50.3c-.5,1.8-2.3,3-4.1,2.6-2.3-.4-7-1-16.3-1.7-6.4-.5-12.8.2-18.9,2-.1,0-.3.1-.4.1h-.1l-.3.1h0ZM183.2,248.7h.2c6.2-1.9,12.7-2.6,19.2-2.1,7.4.5,13.1,1.1,16.4,1.7,1.4.3,2.8-.6,3.2-2l13.2-50.3c.4-1.6-.5-3.2-2-3.8-5.6-2-11.5-3-17.4-2.9h0c-13.5,0-16.7,1.8-17.3,2.4l-.5.4-.2-.6c-.2-.9-2-4.3-13.5-12-4.6-3.2-9.6-5.6-14.9-7.2-1.1-.3-2.3-.2-3.3.4-.9.5-1.5,1.4-1.8,2.4l-12.7,48.4c-.5,2,.5,4,2.3,4.8,3.2,1.5,7.9,4.1,14,7.6,5.7,3.5,10.8,7.8,15.1,12.8h0Z"/>
  <path class="st0" d="M183,248.3l.8.2,15-56.9-.8-.2-15,56.9h0Z"/>
  <path class="st0" d="M215.5,240.6c-.2,0-.4,0-.7.1-2.3-.3-5.7-.6-10.1-.9-3.5-.2-7,.1-10.5.9-.7.1-1.4-.1-1.9-.6-.5-.6-.7-1.3-.5-2l10.1-38.5c.2-.6.6-1.1,1.1-1.3,1.4-.6,4.6-1.3,11.5-1.4,3.6-.1,7.2.4,10.7,1.4,2.4.7,3.8,3.2,3.2,5.6l-8.9,33.6c-.5,1.8-2.1,3.1-4,3.1h0ZM215,197.6l-.6.1c-6.8.1-9.8.8-11.2,1.4-.3.1-.5.4-.6.7l-10.1,38.5c-.1.4,0,.8.3,1.1s.7.4,1.1.3c3.5-.8,7.2-1.1,10.8-.9,4.3.3,7.8.6,10.2.9,1.7.2,3.3-.8,3.7-2.5l8.9-33.6c.5-2-.6-4-2.6-4.6-3.2-1-6.5-1.4-9.9-1.4h0Z"/>
  <path class="st0" d="M200.2,211.6l25.2.9v-.8l-25.2-.9v.8Z"/>
  <path class="st0" d="M216.4,211.8l.8.2,3.4-14.4-.8-.2-3.4,14.4Z"/>
  <path class="st0" d="M194.9,227l26.4,1.5v-.8l-26.4-1.5v.8Z"/>
  <path class="st0" d="M203.4,227.8l4.2,11.4.8-.3-4.2-11.4-.8.3Z"/>
  <path class="st0" d="M179.4,235.7c-2.6-2.7-5.5-4.9-8.6-6.8-3.9-2.2-6.9-3.9-9.1-5-1.9-.9-2.9-3.1-2.4-5.2l8.9-33.7c0-.1.1-.2.1-.3.8-2.3,3.2-3.4,5.4-2.7,3.4,1.1,6.7,2.8,9.7,4.9,5.9,4,8.2,6.5,9.1,7.8.3.4.4,1,.3,1.6l-10.1,38.5c-.2.7-.7,1.2-1.4,1.4-.2.1-.3.1-.5.1-.5,0-1-.3-1.4-.6ZM172.4,182.6c-1.6,0-3,1.1-3.2,2.7l-8.9,33.6c-.4,1.7.4,3.5,2,4.3,2.2,1.1,5.3,2.8,9.1,5.1,3.2,1.9,6.1,4.2,8.7,6.9.3.3.7.4,1.1.3s.7-.4.8-.8l10.1-38.5c.1-.3,0-.7-.2-1-.9-1.3-3.2-3.7-8.9-7.6-2.9-2-6.1-3.7-9.5-4.8-.3-.1-.7-.2-1.1-.2h0Z"/>
  <path class="st0" d="M166.7,194.2l21.8,13.6.4-.7-21.9-13.6-.3.7Z"/>
  <path class="st0" d="M162.2,210l23.2,13.9.4-.7-23.2-13.9-.4.7Z"/>
  <path class="st0" d="M171.2,211.8c-.3,0-.5,0-.7-.1-2-.6-2.9-3.5-2.1-6.6.3-1.7,1.4-3.2,2.8-4.1.6-.4,1.4-.5,2.2-.3,2,.6,2.9,3.5,2.1,6.6-.4,1.7-1.4,3.2-2.8,4.1-.5.3-1,.4-1.5.4h0ZM171.5,201.8c-1.2.9-2.1,2.1-2.4,3.6-.6,2.6.1,5.1,1.6,5.6.6.2,1.1.1,1.6-.2,1.2-.9,2.1-2.1,2.4-3.6.6-2.6-.1-5.1-1.6-5.6-.2-.1-.3-.1-.5-.1-.4,0-.8.1-1.1.3Z"/>
  <path class="st0" d="M180.6,218.4c-1.8-.7-2.7-2.7-2.1-4.5.3-1,.9-1.9,1.8-2.4.7-.4,1.5-.5,2.3-.3,1.7.7,2.7,2.7,2.1,4.5-.3,1-.9,1.9-1.8,2.4-.5.3-1,.4-1.5.4-.3,0-.6,0-.8-.1h0ZM181.6,211.9c-.4,0-.7.1-1,.3-.7.5-1.2,1.1-1.4,1.9-.5,1.4.2,2.9,1.6,3.5.5.2,1.1.1,1.6-.2.7-.4,1.2-1.1,1.4-1.9.5-1.4-.2-2.9-1.6-3.5-.2-.1-.4-.1-.6-.1h0Z"/>
  <path class="st0" d="M206.2,208.9c-.2,0-.4,0-.7-.1-1.7-.5-2.6-3-1.9-5.5.3-1.3,1.1-2.5,2.3-3.3.6-.4,1.3-.5,2-.3,1.7.5,2.6,3,1.9,5.5-.3,1.3-1.1,2.5-2.3,3.3-.4.3-.8.4-1.3.4h0ZM206.3,200.8c-1,.6-1.7,1.6-1.9,2.8-.6,2.1,0,4.1,1.3,4.5.4.1.9,0,1.3-.2,1-.6,1.7-1.6,1.9-2.8.6-2.1,0-4.1-1.3-4.5-.1-.1-.3-.1-.4-.1-.3,0-.6.1-.9.3h0Z"/>
  <path class="st0" d="M209.4,224.9l2.4-10.5,7.5.5-2.8,10.5-7.1-.5h0ZM218.2,215.6l-5.8-.4-2,8.9,5.5.4,2.3-8.9h0Z"/>
  <path class="st3" d="M217.2,13.3c3.5,0,6.4-2.9,6.4-6.5h0c-.1-3.5-3-6.5-6.5-6.4s-6.4,2.9-6.4,6.5c.1,3.5,2.9,6.4,6.5,6.4h0Z"/>
  <path class="st3" d="M210.3,6.8h0C210.3,3.1,213.4,0,217.2,0s6.9,3.2,6.9,6.9-3.1,6.8-6.9,6.8-6.9-3.1-6.9-6.9ZM217.2.8c-3.3,0-6,2.7-6,6s2.7,6,6,6,6-2.7,6-6-2.7-6-6-6h0Z"/>
  <path class="st0" d="M45.4,71.3h0c0-4,3.3-7.3,7.4-7.3s7.3,3.3,7.3,7.4-3.3,7.3-7.4,7.3-7.3-3.3-7.3-7.4ZM46.2,71.5h0c.1,3.6,3,6.5,6.6,6.5,3.6-.1,6.5-3,6.5-6.6-.1-3.6-3-6.5-6.6-6.5s-6.5,2.9-6.5,6.6Z"/>
</svg>