<svg width="345" height="703" viewBox="0 0 345 703" fill="none" xmlns="http://www.w3.org/2000/svg">
<g clip-path="url(#clip0_152_1160)">
<path d="M244.72 343.314L186.545 255.567L185.773 239.702L201.928 226.604L217.419 231.137L217.493 231.204L292.579 301.636L244.72 343.305V343.314ZM187.368 255.292L244.887 342.056L291.334 301.611L216.987 231.878L202.102 227.521L186.612 240.077L187.351 255.284L187.368 255.292Z" fill="#E9562A"/>
<path d="M237.579 250.54L202.862 279.485L203.392 280.126L238.11 251.18L237.579 250.54Z" fill="#E9562A"/>
<path d="M261.969 273.42L221.375 307.409L221.907 308.049L262.501 274.06L261.969 273.42Z" fill="#E9562A"/>
<path d="M285.521 295.501L239.454 334.677L239.991 335.313L286.058 296.136L285.521 295.501Z" fill="#E9562A"/>
<path d="M216.945 231.173L186.703 255.098L187.217 255.752L217.46 231.827L216.945 231.173Z" fill="#E9562A"/>
<path d="M284.676 302.604L284.052 303.154L286.631 306.104L287.256 305.554L284.676 302.604Z" fill="#E9562A"/>
<path d="M281.529 305.329L280.904 305.878L283.484 308.828L284.109 308.279L281.529 305.329Z" fill="#E9562A"/>
<path d="M278.386 308.036L277.762 308.585L280.341 311.536L280.966 310.986L278.386 308.036Z" fill="#E9562A"/>
<path d="M275.253 310.755L274.628 311.304L277.208 314.255L277.832 313.706L275.253 310.755Z" fill="#E9562A"/>
<path d="M272.103 313.457L271.479 314.007L274.058 316.957L274.683 316.407L272.103 313.457Z" fill="#E9562A"/>
<path d="M268.956 316.149L268.331 316.698L270.911 319.648L271.536 319.099L268.956 316.149Z" fill="#E9562A"/>
<path d="M265.824 318.895L265.2 319.444L267.779 322.395L268.404 321.845L265.824 318.895Z" fill="#E9562A"/>
<path d="M262.677 321.597L262.052 322.147L264.632 325.097L265.257 324.547L262.677 321.597Z" fill="#E9562A"/>
<path d="M259.538 324.314L258.913 324.863L261.493 327.813L262.118 327.264L259.538 324.314Z" fill="#E9562A"/>
<path d="M256.396 327.035L255.771 327.584L258.351 330.535L258.975 329.985L256.396 327.035Z" fill="#E9562A"/>
<path d="M253.257 329.739L252.632 330.288L255.212 333.239L255.836 332.69L253.257 329.739Z" fill="#E9562A"/>
<path d="M250.118 332.448L249.493 332.998L252.073 335.948L252.697 335.398L250.118 332.448Z" fill="#E9562A"/>
<path d="M246.965 335.167L246.34 335.716L248.92 338.666L249.545 338.117L246.965 335.167Z" fill="#E9562A"/>
<path d="M237.154 275.839C239.313 278.439 238.964 282.297 236.381 284.463C233.798 286.63 229.944 286.28 227.784 283.688C225.625 281.097 225.974 271.957 225.974 271.957C225.974 271.957 234.994 273.248 237.154 275.839Z" fill="#EA572A"/>
<path d="M232.477 286.305C230.608 286.305 228.756 285.505 227.469 283.955C225.235 281.264 225.55 272.323 225.567 271.94L225.583 271.482L226.04 271.548C226.414 271.598 235.243 272.89 237.486 275.581C239.787 278.347 239.421 282.48 236.655 284.796C235.434 285.813 233.956 286.313 232.486 286.313L232.477 286.305ZM226.381 272.44C226.348 274.323 226.339 281.305 228.108 283.422C230.118 285.838 233.715 286.163 236.124 284.147C238.532 282.13 238.856 278.522 236.846 276.106C235.085 273.99 228.233 272.74 226.389 272.44H226.381Z" fill="#E9562A"/>
<path d="M188.738 215.606C187.243 213.556 179.942 211.589 177.268 206.798C174.842 202.441 173.871 197.4 168.854 196.7C163.837 196 158.762 199.599 157.882 204.74C156.935 210.256 160.747 215.397 166.229 216.131C168.214 216.397 170.033 214.656 171.811 215.214C175.773 216.447 176.213 222.363 177.367 223.946C179.984 227.537 184.652 228.587 187.791 226.288C190.931 223.988 191.355 219.213 188.738 215.614V215.606Z" fill="#EA572A"/>
<path d="M183.987 227.921C183.431 227.921 182.858 227.854 182.284 227.729C180.216 227.262 178.347 226.004 177.027 224.188C176.645 223.663 176.354 222.78 176.022 221.755C175.283 219.505 174.269 216.414 171.686 215.606C170.88 215.356 170.017 215.672 169.095 215.997C168.173 216.33 167.209 216.672 166.171 216.539C163.397 216.172 160.963 214.722 159.302 212.464C157.649 210.206 156.993 207.44 157.466 204.665C158.388 199.299 163.513 195.533 168.904 196.283C173.007 196.858 174.535 200.141 176.155 203.615C176.611 204.599 177.085 205.615 177.625 206.59C179.228 209.465 182.6 211.314 185.308 212.789C187.06 213.747 188.447 214.506 189.07 215.356C191.82 219.13 191.346 224.171 188.032 226.604C186.861 227.462 185.466 227.904 183.987 227.904V227.921ZM171.063 214.681C171.354 214.681 171.636 214.722 171.935 214.806C174.925 215.739 176.013 219.063 176.811 221.488C177.126 222.446 177.401 223.271 177.7 223.688C178.904 225.346 180.598 226.487 182.467 226.904C184.319 227.321 186.122 226.971 187.542 225.938C190.491 223.78 190.873 219.247 188.398 215.847C187.891 215.147 186.512 214.397 184.909 213.523C182.11 211.989 178.622 210.081 176.902 206.998C176.346 205.999 175.864 204.965 175.407 203.974C173.821 200.566 172.459 197.625 168.796 197.116C163.845 196.433 159.136 199.883 158.289 204.815C157.857 207.357 158.446 209.906 159.975 211.981C161.495 214.056 163.737 215.389 166.279 215.722C167.126 215.831 167.982 215.522 168.812 215.222C169.543 214.956 170.299 214.689 171.063 214.689V214.681Z" fill="#EA572A"/>
<path d="M181.648 224.445L187.904 219.404C189.18 218.377 191.048 218.581 192.072 219.861L199.562 229.216L188.683 237.981L181.193 228.627C180.168 227.347 180.372 225.472 181.648 224.445Z" fill="#F6CE52"/>
<path d="M188.622 238.569L180.873 228.887C180.308 228.179 180.05 227.296 180.15 226.396C180.25 225.496 180.69 224.688 181.396 224.121L187.65 219.08C189.104 217.905 191.23 218.147 192.401 219.597L200.151 229.279L188.622 238.569ZM188.165 219.738L181.911 224.779C181.379 225.204 181.047 225.813 180.972 226.496C180.897 227.171 181.088 227.846 181.52 228.371L188.747 237.403L198.98 229.162L191.753 220.13C190.873 219.03 189.262 218.855 188.173 219.738H188.165Z" fill="#E9562A"/>
<path d="M201.795 606.504C197.202 606.504 192.684 606.179 188.281 605.704C156.611 602.288 140.123 574.7 137.133 569.201C132.989 561.56 133.354 549.27 133.703 537.388C133.877 531.414 134.044 525.782 133.653 520.899C132.465 506.267 133.612 499.952 133.661 499.685L133.736 499.31L134.068 499.118C134.068 499.118 136.685 497.61 140.398 494.727C146.777 489.778 155.705 481.412 161.985 469.614L163.613 466.556L163.546 470.031C163.521 471.222 163.272 498.485 186.994 501.468C180.374 491.169 182.932 470.864 182.966 470.655L183.697 465.365L184.61 470.63C184.652 470.889 189.353 496.094 218.125 502.976C208.149 488.953 210.234 480.238 210.334 479.854L210.824 477.955L211.846 479.629C212.012 479.896 228.167 506.001 249.463 509.842C247.038 505.992 241.44 496.027 243.823 489.228L244.529 487.212L245.368 489.178C245.443 489.361 253.276 507.601 259.729 512.208L259.962 512.375L260.045 512.65C260.078 512.758 263.06 522.949 268.816 533.206C278.36 524.74 284.888 526.398 285.162 526.473C285.204 526.473 296.982 528.673 296.982 541.371C296.982 554.07 292.729 559.727 284.348 567.393C276.939 574.175 265.859 572.167 263.151 571.551C244.488 599.98 222.461 606.504 201.795 606.504ZM135.231 500.368C135.015 501.893 134.284 508.317 135.298 520.766C135.705 525.74 135.53 531.423 135.356 537.438C135.007 549.104 134.658 561.16 138.587 568.401C141.502 573.767 157.608 600.722 188.456 604.046C212.311 606.621 239.712 604.605 262.088 570.142L262.421 569.634L263.002 569.792C263.127 569.826 275.602 573.142 283.227 566.16C291.425 558.661 295.32 553.036 295.32 541.371C295.32 529.706 285.229 528.181 284.797 528.098C284.664 528.065 278.385 526.573 269.165 535.13L268.401 535.839L267.878 534.939C262.23 525.157 259.057 515.166 258.517 513.392C253.151 509.342 247.279 497.41 244.903 492.244C244.455 499.877 251.764 510.342 251.847 510.459L252.927 511.983L251.075 511.767C231.473 509.45 216.264 489.203 211.762 482.562C211.804 486.112 213.033 493.611 220.758 503.751L222.095 505.501L219.936 505.068C195.964 500.293 187.16 483.495 184.253 475.363C183.896 482.296 184.029 495.477 189.394 501.926L190.64 503.426L188.697 503.293C166.578 501.751 162.699 480.804 162.026 472.939C155.73 483.662 147.458 491.353 141.411 496.035C138.354 498.41 136.07 499.843 135.231 500.343V500.368Z" fill="#E9562A"/>
<path d="M191.712 614.712C172.425 613.903 160.274 607.013 155.498 603.705L157.782 609.971H156.586C156.403 609.962 139.309 609.587 128.586 590.223C128.736 593.481 129.807 599.072 134.6 605.13L135.555 606.338L134.027 606.479C133.736 606.504 126.776 607.054 118.968 599.689C118.52 599.289 108.312 589.898 112.224 569.118C108.959 575.233 104.632 587.182 112.307 598.622L113.636 600.597L111.368 599.88C111.127 599.805 105.496 597.989 100.354 594.048C95.0552 589.981 92.1813 575.033 96.5337 566.476C100.57 558.527 107.423 550.737 107.713 550.412C107.938 550.178 127.382 530.139 126.302 521.482C126.153 520.299 125.613 519.441 124.641 518.849C122.349 517.449 120.289 515.391 118.528 512.717C112.896 504.209 112.39 493.003 117.207 483.462C119.541 478.838 122.573 474.147 126.211 469.497C138.379 453.974 167.649 449.725 168.887 449.55L169.925 449.408L169.826 450.458C169.826 450.583 169.477 464.423 216.148 469.189C256.581 473.322 282.944 470.322 299.1 459.74C300.852 458.59 303.236 458.932 304.64 460.515C308.685 465.081 318.32 476.63 320.371 485.162C320.986 487.737 322.306 492.469 323.976 498.468C329.192 517.216 337.93 548.595 337.93 560.11H336.269C336.269 548.829 327.572 517.583 322.381 498.918C320.712 492.903 319.383 488.153 318.76 485.554C316.8 477.388 307.372 466.106 303.41 461.623C302.547 460.648 301.085 460.432 300.013 461.132C283.518 471.93 256.822 475.013 215.982 470.839C174.12 466.564 168.854 454.916 168.239 451.333C163.239 452.175 138.122 456.982 127.515 470.522C123.943 475.08 120.97 479.688 118.686 484.204C114.134 493.203 114.599 503.776 119.907 511.783C121.535 514.25 123.42 516.141 125.505 517.408C126.917 518.274 127.739 519.566 127.955 521.257C129.135 530.706 109.757 550.687 108.934 551.528C108.893 551.578 101.957 559.46 98.0204 567.209C94.1332 574.858 96.7413 589.148 101.368 592.698C104.35 594.989 107.572 596.539 109.649 597.414C100.487 580.824 113.378 564.085 113.511 563.91L116.053 560.677L114.965 564.651C108.619 587.798 119.981 598.33 120.098 598.439C125.156 603.213 129.841 604.421 132.233 604.721C125.463 595.222 127.025 587.249 127.1 586.899L127.606 584.499L128.661 586.715C137.225 604.63 151.179 607.663 155.373 608.179L151.868 598.547L154.31 600.688C154.435 600.805 167.458 612.004 191.795 613.028L191.728 614.695L191.712 614.712Z" fill="#E9562A"/>
<path d="M259.987 611.004V609.337C260.203 609.337 281.881 609.121 291.242 592.373L292.339 590.406L292.779 592.614C292.829 592.881 293.892 598.739 286.657 607.121L297.671 604.821C310.595 602.13 318.685 578.258 318.768 578.016L319.914 574.575L320.379 578.175C320.463 578.816 322.273 593.456 316.301 603.046C317.705 603.046 320.679 602.497 325.803 599.197C342.407 588.49 336.335 560.56 336.277 560.285L337.897 559.919C338.163 561.11 344.284 589.265 326.7 600.605C318.162 606.113 314.848 604.58 314.499 604.38L313.677 603.93L314.225 603.163C318.735 596.881 319.15 587.365 318.984 582.149C316.11 589.19 308.784 604.213 298.003 606.463L281.782 609.846L283.692 607.887C288.667 602.788 290.378 598.58 290.943 595.947C280.42 610.82 260.194 611.004 259.979 611.004H259.987Z" fill="#E9562A"/>
<path d="M192.16 626.568L190.657 625.86C193.772 619.178 190.059 605.479 190.017 605.346L191.62 604.905C191.778 605.488 195.541 619.328 192.16 626.568Z" fill="#E9562A"/>
<path d="M180.615 622.544L180.382 620.894C187.567 619.886 192.243 616.995 192.285 616.97L193.165 618.378C192.966 618.503 188.165 621.486 180.607 622.544H180.615Z" fill="#E9562A"/>
<path d="M112.44 696.293L110.787 696.143C110.803 695.926 112.963 674.037 131.585 650.432C150.232 626.793 179.278 619.919 179.568 619.853L179.818 619.794L181.288 620.386L181.329 620.902C181.329 621.002 182.176 631.001 190.117 637.792C195.923 642.75 204.021 644.824 214.196 643.966C241.489 641.65 262.487 622.469 267.404 617.611C253.442 614.112 252.171 584.799 252.121 583.507L253.782 583.441C253.79 583.757 255.136 614.828 269.19 616.236L270.843 616.403L269.713 617.628C269.48 617.878 246.116 642.933 214.329 645.624C203.681 646.524 195.167 644.316 189.012 639.042C181.52 632.626 179.992 623.794 179.718 621.544L179.685 621.527C176.836 622.244 150.24 629.435 132.881 651.448C114.566 674.67 112.456 696.059 112.44 696.276V696.293Z" fill="#E9562A"/>
<path d="M342.847 691.51C339.325 659.581 322.714 644.641 311.725 634.751C311.168 634.251 310.62 633.759 310.097 633.276C300.204 624.31 274.489 617.545 270.726 616.595L269.713 617.653L268.517 616.495L270.195 614.745L270.66 614.853C271.864 615.145 300.279 622.119 311.218 632.034C311.741 632.509 312.29 633.001 312.846 633.501C324.026 643.558 340.92 658.764 344.508 691.318L342.856 691.501L342.847 691.51Z" fill="#E9562A"/>
<path d="M139.583 694.734L137.939 694.493C140.024 680.17 145.996 665.072 146.054 664.922L147.599 665.538C147.54 665.688 141.643 680.603 139.583 694.726V694.734Z" fill="#E9562A"/>
<path d="M279.531 703L277.911 702.617C279.672 695.143 283.435 670.746 283.476 670.504L285.121 670.754C285.079 671.004 281.308 695.459 279.531 703Z" fill="#E9562A"/>
<path d="M160.996 540.471C164.01 540.471 166.453 536.513 166.453 531.631C166.453 526.748 164.01 522.79 160.996 522.79C157.983 522.79 155.539 526.748 155.539 531.631C155.539 536.513 157.983 540.471 160.996 540.471Z" fill="#E9562A"/>
<path d="M238.64 564.91C245.645 564.91 251.324 562.123 251.324 558.686C251.324 555.248 245.645 552.461 238.64 552.461C231.636 552.461 225.957 555.248 225.957 558.686C225.957 562.123 231.636 564.91 238.64 564.91Z" fill="#E9562A"/>
<path d="M218.897 545.812C221.911 545.812 224.354 541.854 224.354 536.972C224.354 532.089 221.911 528.131 218.897 528.131C215.883 528.131 213.44 532.089 213.44 536.972C213.44 541.854 215.883 545.812 218.897 545.812Z" fill="#E9562A"/>
<path d="M143.986 504.576L142.698 503.518C142.923 503.243 148.346 496.677 155.132 496.102C158.189 495.852 161.021 496.844 163.563 499.068L162.466 500.327C160.282 498.41 157.865 497.552 155.273 497.769C149.194 498.277 144.027 504.509 143.977 504.576H143.986Z" fill="#E9562A"/>
<path d="M230.559 511.475C227.967 506.409 224.487 503.16 220.226 501.818C213.457 499.693 206.953 503.101 206.887 503.135L206.106 501.66C206.397 501.51 213.299 497.885 220.724 500.218C225.434 501.701 229.238 505.226 232.037 510.709L230.559 511.467V511.475Z" fill="#E9562A"/>
<path d="M177.043 555.553C173.862 553.411 172.243 551.028 172.226 548.47C172.193 544.479 176.122 541.696 176.288 541.58L177.235 542.946C177.235 542.946 173.854 545.354 173.887 548.462C173.904 550.428 175.283 552.353 177.974 554.161L177.043 555.544V555.553Z" fill="#E9562A"/>
<path d="M187.559 578.891C174.743 578.891 167.516 568.976 167.417 568.834L168.771 567.868C169.327 568.651 182.65 586.84 206.023 570.534L206.97 571.901C199.553 577.075 193.041 578.891 187.559 578.891Z" fill="#E9562A"/>
<path d="M164.975 527.581C164.95 527.49 162.167 517.999 155.631 518.666C149.177 519.324 149.343 526.998 149.351 527.331L147.69 527.39C147.574 524.09 149.061 517.666 155.456 517.016C163.388 516.208 166.445 526.69 166.569 527.14L164.975 527.598V527.581Z" fill="#E9562A"/>
<path d="M222.876 532.922C222.851 532.831 220.052 523.332 213.531 524.007C207.078 524.665 207.244 532.339 207.252 532.672L205.591 532.731C205.475 529.431 206.953 523.007 213.357 522.357C221.264 521.54 224.346 532.031 224.47 532.481L222.876 532.939V532.922Z" fill="#E9562A"/>
<path d="M271.515 463.44C267.695 463.44 263.284 462.74 258.766 461.273C246.913 457.432 238.732 449.775 240.526 444.192L252.844 375.668L314.499 395.64L283.493 458.174C282.396 461.59 277.728 463.431 271.515 463.431V463.44ZM253.491 376.759L241.332 444.401C239.662 449.592 247.603 456.791 259.015 460.482C270.427 464.181 281.059 463.007 282.72 457.866L313.319 396.14L253.491 376.759Z" fill="#E9562A"/>
<path d="M294.523 417.871C289.307 417.871 282.213 416.813 275.494 415.196C268.783 413.58 262.603 411.472 258.093 409.264C254.787 407.647 250.958 405.264 251.481 403.089C252.005 400.915 256.49 400.548 260.169 400.606C265.178 400.698 271.64 401.64 278.351 403.264C290.686 406.239 303.286 411.488 302.364 415.363C301.94 417.129 298.884 417.862 294.523 417.862V417.871ZM259.414 401.44C255.219 401.44 252.578 402.123 252.295 403.289C251.996 404.531 254.305 406.481 258.467 408.522C262.919 410.697 269.032 412.788 275.693 414.388C290.204 417.887 300.977 417.612 301.558 415.179C302.14 412.738 292.679 407.58 278.16 404.081C271.499 402.473 265.111 401.54 260.161 401.448C259.904 401.448 259.654 401.448 259.414 401.448V401.44Z" fill="#E9562A"/>
<path d="M254.887 432.127C254.53 432.127 254.164 432.069 253.815 431.944C252.08 431.352 251.149 429.453 251.739 427.719C252.021 426.878 252.619 426.195 253.417 425.803C254.214 425.411 255.111 425.353 255.95 425.636C256.789 425.92 257.47 426.52 257.86 427.32C258.251 428.119 258.309 429.019 258.027 429.861C257.744 430.702 257.146 431.386 256.349 431.777C255.884 432.002 255.385 432.119 254.887 432.119V432.127ZM254.887 426.295C254.513 426.295 254.139 426.378 253.791 426.553C253.193 426.845 252.744 427.361 252.536 427.986C252.096 429.286 252.794 430.711 254.09 431.152C254.721 431.369 255.394 431.319 255.992 431.027C256.59 430.736 257.038 430.219 257.246 429.594C257.686 428.294 256.988 426.87 255.693 426.428C255.427 426.336 255.161 426.295 254.887 426.295Z" fill="#E9562A"/>
<path d="M264.115 456.466C263.758 456.466 263.392 456.407 263.043 456.291C261.307 455.699 260.377 453.799 260.967 452.066C261.249 451.225 261.847 450.541 262.645 450.15C263.442 449.758 264.339 449.7 265.178 449.983C266.914 450.575 267.844 452.475 267.254 454.208C266.972 455.049 266.374 455.732 265.577 456.124C265.111 456.349 264.613 456.466 264.115 456.466ZM264.115 450.633C263.741 450.633 263.367 450.716 263.018 450.891C262.42 451.183 261.972 451.7 261.764 452.325C261.324 453.633 262.022 455.049 263.317 455.491C263.949 455.707 264.621 455.666 265.219 455.366C265.817 455.074 266.266 454.558 266.474 453.924C266.914 452.625 266.216 451.2 264.92 450.758C264.655 450.666 264.389 450.625 264.115 450.625V450.633Z" fill="#E9562A"/>
<path d="M290.819 434.677C290.461 434.677 290.096 434.619 289.747 434.494C288.908 434.21 288.227 433.61 287.837 432.81C287.446 432.011 287.388 431.111 287.671 430.269C287.953 429.428 288.551 428.744 289.348 428.353C290.146 427.961 291.043 427.903 291.882 428.186C292.721 428.469 293.402 429.069 293.792 429.869C294.183 430.669 294.241 431.569 293.958 432.41C293.676 433.252 293.078 433.935 292.28 434.327C291.815 434.552 291.317 434.669 290.819 434.669V434.677ZM290.819 428.844C290.445 428.844 290.071 428.928 289.722 429.103C289.124 429.394 288.676 429.911 288.468 430.536C288.26 431.161 288.294 431.844 288.593 432.444C288.883 433.044 289.398 433.494 290.021 433.702C291.317 434.144 292.737 433.444 293.177 432.144C293.393 431.511 293.352 430.836 293.053 430.236C292.762 429.636 292.247 429.186 291.624 428.978C291.358 428.886 291.093 428.844 290.819 428.844Z" fill="#E9562A"/>
<path d="M248.832 447.558C248.475 447.558 248.109 447.5 247.76 447.375C246.921 447.092 246.24 446.492 245.85 445.692C245.46 444.892 245.401 443.992 245.684 443.151C245.966 442.309 246.564 441.626 247.362 441.234C248.159 440.843 249.056 440.784 249.895 441.068C250.734 441.351 251.415 441.951 251.805 442.751C252.196 443.551 252.254 444.451 251.971 445.292C251.689 446.134 251.091 446.817 250.294 447.209C249.828 447.433 249.33 447.55 248.832 447.55V447.558ZM248.823 441.726C248.45 441.726 248.076 441.809 247.727 441.984C247.129 442.276 246.681 442.792 246.473 443.417C246.033 444.717 246.73 446.142 248.026 446.584C249.322 447.025 250.742 446.325 251.182 445.025C251.398 444.392 251.357 443.717 251.058 443.117C250.767 442.517 250.252 442.068 249.629 441.859C249.363 441.768 249.098 441.726 248.823 441.726Z" fill="#E9562A"/>
<path d="M313.76 396.163C315.488 390.794 303.306 382.043 286.552 376.618C269.797 371.192 254.814 371.147 253.086 376.516C251.359 381.885 263.541 390.635 280.295 396.061C297.05 401.486 312.033 401.532 313.76 396.163Z" fill="#F6CE52"/>
<path d="M302.804 400.598H302.671C296.309 400.581 288.318 399.115 280.178 396.474C262.944 390.891 250.875 382.075 252.702 376.401C253.591 373.635 257.628 372.118 264.065 372.118H264.198C270.56 372.135 278.55 373.602 286.69 376.243C294.83 378.884 302.164 382.384 307.339 386.1C312.638 389.908 315.064 393.532 314.166 396.315C313.278 399.082 309.241 400.598 302.804 400.598ZM264.073 372.952C258.109 372.952 254.256 374.301 253.5 376.659C251.872 381.717 264.214 390.424 280.444 395.682C288.509 398.29 296.408 399.74 302.688 399.765H302.812C308.776 399.765 312.63 398.415 313.386 396.057C314.15 393.682 311.774 390.299 306.866 386.775C301.757 383.109 294.506 379.651 286.441 377.034C278.376 374.426 270.477 372.977 264.198 372.952H264.073Z" fill="#E9562A"/>
<path d="M272.545 448.458C271.524 448.458 269.804 447.75 268.675 447.225C267.637 446.742 266.698 446.217 266.017 445.75C265.369 445.3 264.738 444.767 264.987 444.242L287.156 397.623L295.819 399.298L273.335 448.108C273.218 448.358 272.936 448.458 272.545 448.458ZM265.793 444.476C266.017 444.776 267.072 445.567 269.024 446.467C270.976 447.375 272.263 447.659 272.637 447.642L294.623 399.906L287.629 398.557L265.793 444.476Z" fill="#E9562A"/>
<path d="M298.244 392.957C297.937 392.957 297.546 392.866 297.09 392.732C296.309 392.499 295.304 392.107 294.274 391.624C290.096 389.691 290.42 388.991 290.528 388.758L309.241 348.13L317.589 352.004L298.875 392.632C298.767 392.866 298.551 392.957 298.236 392.957H298.244ZM291.358 388.958C291.641 389.249 292.721 389.991 294.631 390.874C296.533 391.757 297.796 392.107 298.203 392.132L316.492 352.413L309.648 349.238L291.358 388.958Z" fill="#E9562A"/>
<path d="M317.053 352.219C317.194 351.914 315.606 350.879 313.508 349.906C311.409 348.933 309.594 348.392 309.453 348.697C309.313 349.001 310.9 350.037 312.999 351.01C315.098 351.983 316.913 352.524 317.053 352.219Z" fill="#F6CE52"/>
<path d="M316.775 352.696C316.193 352.696 315.064 352.421 312.813 351.379C308.635 349.446 308.959 348.746 309.067 348.513C309.175 348.28 309.499 347.58 313.668 349.521C314.698 349.996 315.645 350.513 316.334 350.955C317.14 351.479 317.63 351.921 317.414 352.388C317.364 352.496 317.273 352.704 316.766 352.704L316.775 352.696ZM310.512 349.18C311.06 349.546 311.949 350.055 313.162 350.621C314.374 351.188 315.338 351.529 315.977 351.713C315.429 351.346 314.54 350.838 313.328 350.271C312.107 349.705 311.151 349.363 310.512 349.18Z" fill="#E9562A"/>
<path d="M268.741 437.577C270.347 437.577 271.648 436.271 271.648 434.66C271.648 433.05 270.347 431.744 268.741 431.744C267.136 431.744 265.834 433.05 265.834 434.66C265.834 436.271 267.136 437.577 268.741 437.577Z" fill="#F6CE52"/>
<path d="M268.741 437.993C268.384 437.993 268.019 437.935 267.67 437.81C266.831 437.527 266.15 436.927 265.759 436.127C265.369 435.327 265.311 434.427 265.593 433.585C265.876 432.744 266.474 432.061 267.271 431.669C268.068 431.277 268.965 431.219 269.804 431.502C270.643 431.786 271.324 432.385 271.715 433.185C272.105 433.985 272.163 434.885 271.881 435.727C271.598 436.568 271 437.252 270.203 437.643C269.738 437.868 269.24 437.985 268.741 437.985V437.993ZM268.733 432.161C268.359 432.161 267.985 432.244 267.636 432.419C267.038 432.71 266.59 433.227 266.382 433.852C266.175 434.477 266.208 435.16 266.507 435.76C266.798 436.36 267.313 436.81 267.936 437.018C268.567 437.235 269.24 437.193 269.838 436.893C270.436 436.602 270.884 436.085 271.092 435.46C271.532 434.16 270.834 432.735 269.539 432.294C269.273 432.202 269.007 432.161 268.733 432.161Z" fill="#E9562A"/>
<path d="M244.089 397.682C243.566 397.682 243.043 397.615 242.528 397.49L194.71 385.592C193.032 385.175 191.62 384.134 190.732 382.65C189.843 381.167 189.577 379.426 189.992 377.751L198.896 341.731C199.752 338.265 203.257 336.14 206.721 337.006L254.538 348.905C257.993 349.763 260.111 353.288 259.248 356.754L250.344 392.774C249.928 394.457 248.89 395.874 247.412 396.765C246.39 397.382 245.252 397.698 244.089 397.698V397.682ZM205.159 337.64C204.146 337.64 203.149 337.915 202.269 338.448C200.981 339.223 200.076 340.464 199.71 341.922L190.806 377.943C190.441 379.409 190.673 380.926 191.446 382.217C192.218 383.509 193.456 384.417 194.91 384.783L242.727 396.682C244.181 397.048 245.701 396.815 246.988 396.04C248.275 395.265 249.181 394.024 249.546 392.566L258.45 356.545C258.816 355.079 258.583 353.563 257.811 352.271C257.038 350.98 255.801 350.071 254.347 349.705L206.53 337.806C206.081 337.69 205.616 337.64 205.167 337.64H205.159Z" fill="#E9562A"/>
<path d="M198.338 348.828L198.138 349.636L256.964 364.273L257.164 363.464L198.338 348.828Z" fill="#E9562A"/>
<path d="M202.079 343.558L201.879 344.367L211.166 346.677L211.366 345.869L202.079 343.558Z" fill="#E9562A"/>
<path d="M246.485 354.594L246.285 355.402L255.572 357.713L255.772 356.904L246.485 354.594Z" fill="#E9562A"/>
<path d="M232.577 369.027L229.828 364.111L270.137 342.797L272.379 346.813L233.823 369.369C233.383 369.627 232.818 369.469 232.569 369.027H232.577Z" fill="#F6CE52"/>
<path d="M233.374 369.919C233.258 369.919 233.142 369.902 233.026 369.869C232.677 369.777 232.394 369.552 232.22 369.235L229.263 363.944L270.311 342.239L272.952 346.972L234.047 369.735C233.84 369.852 233.615 369.919 233.383 369.919H233.374ZM230.401 364.286L232.942 368.827C233.009 368.944 233.117 369.027 233.241 369.06C233.366 369.094 233.507 369.077 233.624 369.01L271.823 346.663L269.979 343.356L230.401 364.278V364.286Z" fill="#E9562A"/>
<path d="M228.532 371.519C226.572 371.519 225.002 371.01 224.894 370.977L224.537 370.86L224.62 370.494C224.661 370.31 225.708 365.944 229.055 364.061C229.246 363.953 229.446 363.853 229.637 363.753L229.994 363.578L233.582 370.002L233.242 370.21C233.059 370.327 232.868 370.435 232.677 370.544C231.331 371.302 229.844 371.527 228.524 371.527L228.532 371.519ZM225.542 370.285C226.622 370.569 229.795 371.194 232.278 369.802C232.344 369.769 232.411 369.727 232.469 369.694L229.662 364.669C229.595 364.703 229.529 364.736 229.462 364.778C226.979 366.178 225.866 369.219 225.534 370.294L225.542 370.285Z" fill="#E9562A"/>
<path d="M224.822 370.238L221.589 372.054L221.995 372.781L225.227 370.966L224.822 370.238Z" fill="#E9562A"/>
<path d="M242.351 360.666L236.473 363.967L236.879 364.694L242.757 361.393L242.351 360.666Z" fill="#E9562A"/>
<path d="M205.018 374.168C204.146 373.318 204.926 371.843 205.915 371.46C207.31 370.919 208.888 371.935 209.902 372.802C211.92 374.526 213.457 376.868 215.907 378.034C217.809 378.943 220.351 379.167 221.896 377.459C223.108 376.118 223.44 373.943 222.087 372.585C221.613 372.11 220.882 372.843 221.356 373.318C222.186 374.143 222.053 375.393 221.455 376.326C220.774 377.401 219.57 377.793 218.341 377.676C215.433 377.401 213.515 374.86 211.596 372.952C210.068 371.435 207.626 369.46 205.333 370.569C203.78 371.319 202.941 373.568 204.287 374.885C204.769 375.351 205.5 374.618 205.018 374.151V374.168Z" fill="#E9562A"/>
<path d="M226.896 437.202C224.005 433.385 218.582 432.635 214.777 435.535C214.08 436.068 213.482 436.693 212.992 437.368C210.085 433.619 204.719 432.902 200.94 435.777C197.16 438.651 196.413 444.001 199.195 447.817C198.465 448.1 197.758 448.483 197.102 448.983C193.298 451.883 192.551 457.324 195.441 461.14C197.717 464.148 201.563 465.24 204.96 464.156C205.026 465.873 205.591 467.581 206.704 469.056C209.595 472.872 215.018 473.622 218.822 470.722C221.065 469.014 222.228 466.431 222.236 463.815C224.753 464.515 227.552 464.081 229.786 462.382C233.59 459.482 234.338 454.041 231.447 450.225C230.334 448.758 228.848 447.742 227.22 447.217C229.18 444.234 229.172 440.209 226.896 437.202Z" fill="#F6CE52"/>
<path d="M213.606 472.905C210.865 472.905 208.158 471.664 206.372 469.314C205.35 467.964 204.736 466.381 204.578 464.706C201.064 465.614 197.318 464.323 195.109 461.398C192.086 457.407 192.866 451.691 196.853 448.658C197.376 448.258 197.95 447.917 198.564 447.634C196.014 443.684 196.911 438.318 200.69 435.452C204.486 432.569 209.885 433.16 212.983 436.702C213.44 436.143 213.955 435.643 214.528 435.202C218.515 432.169 224.213 432.952 227.228 436.952C229.437 439.876 229.662 443.851 227.843 447C229.404 447.609 230.758 448.625 231.78 449.975C234.803 453.966 234.022 459.682 230.035 462.715C227.909 464.34 225.235 464.923 222.635 464.348C222.485 467.014 221.206 469.439 219.072 471.064C217.435 472.305 215.508 472.905 213.606 472.905ZM205.35 463.598L205.375 464.148C205.442 465.848 206.015 467.456 207.036 468.814C209.777 472.439 214.952 473.155 218.573 470.397C220.633 468.831 221.821 466.431 221.821 463.823V463.273L222.344 463.423C224.853 464.123 227.469 463.623 229.537 462.057C233.15 459.307 233.865 454.108 231.124 450.483C230.102 449.133 228.707 448.142 227.103 447.625L226.58 447.459L226.879 447C228.798 444.076 228.673 440.243 226.572 437.468C223.831 433.844 218.648 433.127 215.035 435.877C214.387 436.368 213.814 436.96 213.332 437.626L213.008 438.076L212.668 437.635C209.91 434.077 204.769 433.402 201.189 436.127C197.634 438.835 196.886 443.976 199.528 447.584L199.843 448.017L199.337 448.217C198.614 448.5 197.941 448.875 197.343 449.325C193.73 452.075 193.016 457.274 195.757 460.898C197.858 463.673 201.504 464.831 204.819 463.765L205.342 463.598H205.35Z" fill="#E9562A"/>
<path d="M213.274 458.049C216.554 458.049 219.213 455.382 219.213 452.091C219.213 448.801 216.554 446.134 213.274 446.134C209.994 446.134 207.335 448.801 207.335 452.091C207.335 455.382 209.994 458.049 213.274 458.049Z" fill="#F6CE52"/>
<path d="M213.282 458.465C211.364 458.465 209.462 457.599 208.207 455.949C207.178 454.591 206.746 452.916 206.97 451.225C207.202 449.533 208.075 448.042 209.428 447.009C212.219 444.884 216.214 445.434 218.332 448.233C220.45 451.033 219.902 455.041 217.111 457.166C215.965 458.04 214.611 458.457 213.274 458.457L213.282 458.465ZM213.266 446.542C212.103 446.542 210.932 446.909 209.935 447.667C208.756 448.558 208 449.858 207.8 451.333C207.601 452.808 207.983 454.258 208.872 455.441C210.716 457.874 214.188 458.357 216.613 456.507C219.038 454.658 219.52 451.175 217.676 448.742C216.588 447.309 214.935 446.55 213.266 446.55V446.542Z" fill="#E9562A"/>
<path d="M118.835 361.478C116.916 361.478 115.014 360.612 113.76 358.962C112.73 357.604 112.298 355.929 112.523 354.237C112.755 352.546 113.627 351.054 114.981 350.021C116.335 348.996 118.005 348.546 119.691 348.78C121.377 349.013 122.864 349.888 123.893 351.246C124.923 352.604 125.355 354.279 125.131 355.971C124.907 357.662 124.026 359.153 122.673 360.187C121.526 361.062 120.181 361.478 118.835 361.478ZM118.819 349.563C117.622 349.563 116.46 349.955 115.488 350.688C114.308 351.579 113.553 352.888 113.353 354.354C113.154 355.821 113.536 357.279 114.425 358.462C116.269 360.895 119.741 361.378 122.166 359.528C123.345 358.637 124.101 357.329 124.3 355.862C124.5 354.396 124.118 352.938 123.229 351.754C122.34 350.571 121.036 349.813 119.574 349.613C119.317 349.58 119.068 349.563 118.81 349.563H118.819Z" fill="#E9562A"/>
<path d="M119.176 375.926C118.76 375.926 118.345 375.901 117.921 375.843C115.521 375.51 113.395 374.268 111.933 372.327C110.911 370.977 110.297 369.394 110.139 367.719C106.625 368.619 102.879 367.336 100.67 364.411C99.2081 362.478 98.5852 360.087 98.9091 357.679C99.2413 355.271 100.479 353.138 102.414 351.671C102.937 351.271 103.511 350.93 104.125 350.646C101.575 346.697 102.472 341.331 106.252 338.456C110.039 335.573 115.446 336.156 118.544 339.706C119.001 339.148 119.516 338.639 120.089 338.206C122.016 336.74 124.4 336.115 126.801 336.44C129.201 336.773 131.327 338.015 132.789 339.956C134.999 342.881 135.223 346.855 133.404 350.005C134.965 350.613 136.319 351.629 137.341 352.979C138.803 354.912 139.426 357.304 139.102 359.712C138.769 362.12 137.532 364.253 135.597 365.719C133.47 367.344 130.796 367.919 128.196 367.352C128.046 370.019 126.767 372.443 124.633 374.068C123.038 375.285 121.136 375.918 119.176 375.918V375.926ZM110.911 366.619L110.936 367.169C111.003 368.869 111.576 370.477 112.597 371.835C113.926 373.593 115.862 374.726 118.038 375.026C120.214 375.326 122.382 374.76 124.134 373.427C126.194 371.86 127.382 369.46 127.382 366.852V366.303L127.905 366.452C130.414 367.152 133.03 366.652 135.098 365.086C136.851 363.753 137.98 361.811 138.279 359.628C138.578 357.445 138.014 355.271 136.685 353.513C135.663 352.163 134.276 351.171 132.656 350.655L132.133 350.488L132.432 350.03C134.351 347.105 134.226 343.272 132.125 340.498C130.796 338.739 128.86 337.606 126.684 337.306C124.508 337.006 122.34 337.573 120.588 338.906C119.94 339.398 119.367 339.989 118.885 340.656L118.561 341.106L118.22 340.664C115.463 337.115 110.322 336.431 106.75 339.156C103.195 341.864 102.447 347.005 105.089 350.613L105.404 351.046L104.898 351.246C104.175 351.529 103.502 351.904 102.904 352.354C101.152 353.688 100.022 355.629 99.7231 357.812C99.4241 359.995 99.9889 362.17 101.318 363.928C103.419 366.702 107.057 367.861 110.38 366.794L110.903 366.627L110.911 366.619Z" fill="#E9562A"/>
<path d="M316.575 448.233C315.138 448.233 313.71 447.584 312.779 446.35C312.015 445.334 311.683 444.076 311.857 442.817C312.032 441.551 312.68 440.434 313.693 439.66C315.786 438.068 318.776 438.476 320.363 440.576C321.127 441.593 321.459 442.851 321.285 444.109C321.11 445.367 320.462 446.492 319.449 447.267C318.594 447.917 317.58 448.233 316.575 448.233ZM316.567 439.518C315.711 439.518 314.889 439.793 314.2 440.318C313.361 440.951 312.821 441.876 312.68 442.926C312.539 443.967 312.813 445.009 313.444 445.842C314.756 447.575 317.223 447.917 318.951 446.6C319.79 445.967 320.321 445.042 320.471 444.001C320.612 442.959 320.346 441.918 319.707 441.084C319.075 440.243 318.153 439.701 317.107 439.56C316.924 439.535 316.741 439.526 316.567 439.526V439.518Z" fill="#E9562A"/>
<path d="M316.816 458.799C314.781 458.799 312.763 457.882 311.442 456.124C310.711 455.158 310.263 454.024 310.121 452.824C307.547 453.433 304.822 452.475 303.203 450.333C300.96 447.367 301.541 443.117 304.498 440.859C304.855 440.584 305.246 440.351 305.653 440.151C303.842 437.227 304.532 433.31 307.297 431.202C310.08 429.086 314.034 429.486 316.351 432.036C316.667 431.661 317.024 431.319 317.422 431.019C318.859 429.927 320.628 429.461 322.414 429.703C324.2 429.944 325.778 430.877 326.866 432.311C328.486 434.452 328.669 437.343 327.39 439.668C328.503 440.126 329.466 440.868 330.197 441.834C332.44 444.801 331.858 449.05 328.901 451.308C327.356 452.491 325.421 452.933 323.527 452.55C323.378 454.483 322.439 456.232 320.886 457.407C319.673 458.332 318.236 458.782 316.816 458.782V458.799ZM310.886 451.725L310.911 452.275C310.96 453.491 311.367 454.649 312.107 455.624C314.075 458.224 317.788 458.74 320.388 456.766C321.866 455.641 322.713 453.916 322.722 452.041V451.491L323.245 451.641C325.047 452.141 326.924 451.783 328.403 450.658C330.994 448.683 331.509 444.959 329.541 442.351C328.81 441.384 327.813 440.676 326.65 440.301L326.127 440.134L326.426 439.676C327.805 437.576 327.713 434.827 326.202 432.835C324.233 430.227 320.521 429.719 317.921 431.694C317.456 432.052 317.04 432.469 316.7 432.952L316.376 433.402L316.035 432.96C314.058 430.411 310.362 429.919 307.804 431.877C305.254 433.819 304.723 437.51 306.616 440.101L306.932 440.534L306.425 440.734C305.902 440.934 305.42 441.209 304.997 441.534C302.405 443.509 301.89 447.234 303.859 449.842C305.362 451.833 307.978 452.658 310.362 451.9L310.886 451.733V451.725Z" fill="#E9562A"/>
<path d="M90.7361 463.515C90.2876 463.515 89.8308 463.465 89.3822 463.356C87.8456 462.998 86.5499 462.057 85.7193 460.715C84.0083 457.949 84.8555 454.291 87.6214 452.575C88.9586 451.741 90.5368 451.483 92.0734 451.841C93.61 452.2 94.9057 453.141 95.7363 454.483C96.5669 455.824 96.8244 457.407 96.4672 458.949C96.1101 460.49 95.1715 461.79 93.8342 462.623C92.8874 463.215 91.8242 463.515 90.7361 463.515ZM90.7195 452.525C89.7892 452.525 88.8673 452.783 88.0616 453.291C85.6861 454.766 84.9552 457.907 86.4336 460.29C87.1479 461.44 88.2692 462.248 89.5816 462.557C90.8939 462.865 92.2561 462.64 93.4023 461.923C94.5485 461.207 95.3542 460.082 95.6615 458.765C95.9689 457.441 95.7446 456.082 95.0303 454.933C94.316 453.783 93.1947 452.974 91.8823 452.666C91.4919 452.574 91.1099 452.533 90.7195 452.533V452.525Z" fill="#E9562A"/>
<path d="M90.0383 476.813C87.2309 476.813 84.4816 475.405 82.8952 472.839C82.0812 471.522 81.6493 470.022 81.641 468.472C78.3435 468.981 75.0128 467.473 73.2353 464.598C70.7934 460.657 72.0061 455.457 75.9348 453.008C76.4414 452.691 76.9896 452.433 77.5627 452.225C75.5776 448.375 76.8734 443.526 80.5861 441.209C84.3155 438.885 89.2243 439.885 91.7826 443.401C92.2394 442.934 92.7544 442.526 93.3109 442.184C95.2129 441.001 97.4638 440.626 99.6483 441.143C101.833 441.651 103.685 442.992 104.864 444.901C106.642 447.775 106.517 451.441 104.59 454.183C105.961 454.874 107.115 455.932 107.929 457.249C110.371 461.19 109.159 466.389 105.23 468.839C103.137 470.139 100.637 470.447 98.3027 469.714C97.9207 472.147 96.5419 474.255 94.4488 475.555C93.0783 476.413 91.55 476.821 90.0383 476.821V476.813ZM82.5048 467.448L82.4716 467.998C82.3885 469.556 82.7789 471.08 83.5929 472.405C85.794 475.955 90.4619 477.055 94.0086 474.847C96.0269 473.588 97.3143 471.497 97.5386 469.114L97.5884 468.564L98.0951 468.764C100.329 469.622 102.763 469.389 104.781 468.131C108.32 465.923 109.416 461.24 107.215 457.682C106.393 456.357 105.205 455.332 103.776 454.724L103.278 454.508L103.619 454.083C105.62 451.575 105.836 448.058 104.15 445.334C103.087 443.609 101.417 442.409 99.449 441.951C97.4805 441.493 95.4538 441.826 93.7345 442.892C93.0949 443.292 92.5218 443.776 92.0317 444.342L91.6663 444.759L91.3673 444.292C89.1496 440.809 84.5065 439.743 81.0097 441.926C77.5295 444.092 76.4082 448.733 78.5096 452.258L78.7837 452.725L78.2605 452.874C77.5711 453.074 76.9315 453.358 76.3418 453.716C72.8034 455.924 71.707 460.607 73.9081 464.165C75.5942 466.889 78.8253 468.256 81.9483 467.564L82.4799 467.448H82.5048Z" fill="#E9562A"/>
<path d="M83.2107 407.139C79.9299 407.139 77.2637 404.464 77.2637 401.173C77.2637 397.882 79.9299 395.207 83.2107 395.207C86.4916 395.207 89.1578 397.882 89.1578 401.173C89.1578 404.464 86.4916 407.139 83.2107 407.139ZM83.2107 396.04C80.3867 396.04 78.0943 398.348 78.0943 401.173C78.0943 403.998 80.395 406.306 83.2107 406.306C86.0265 406.306 88.3272 403.998 88.3272 401.173C88.3272 398.348 86.0265 396.04 83.2107 396.04Z" fill="#E9562A"/>
<path d="M161.37 367.661C158.812 367.661 156.735 365.578 156.735 363.011C156.735 360.445 158.812 358.362 161.37 358.362C163.928 358.362 166.005 360.445 166.005 363.011C166.005 365.578 163.928 367.661 161.37 367.661ZM161.37 359.187C159.269 359.187 157.566 360.903 157.566 363.003C157.566 365.103 159.277 366.819 161.37 366.819C163.463 366.819 165.174 365.103 165.174 363.003C165.174 360.903 163.463 359.187 161.37 359.187Z" fill="#E9562A"/>
<path d="M281.69 369.027C279.821 369.027 278.301 367.502 278.301 365.628C278.301 363.753 279.821 362.228 281.69 362.228C283.559 362.228 285.079 363.753 285.079 365.628C285.079 367.502 283.559 369.027 281.69 369.027ZM281.69 363.07C280.278 363.07 279.132 364.219 279.132 365.636C279.132 367.052 280.278 368.202 281.69 368.202C283.102 368.202 284.248 367.052 284.248 365.636C284.248 364.219 283.102 363.07 281.69 363.07Z" fill="#E9562A"/>
<path d="M87.339 431.119C84.3655 431.119 80.5364 430.594 77.2639 428.453C70.9513 424.337 69.2569 415.929 69.1905 415.579L69.1157 415.188L69.5061 415.096C69.855 415.013 78.2025 413.155 84.515 417.271C90.8275 421.387 92.5219 429.794 92.5884 430.144L92.6631 430.536L92.2728 430.627C92.1066 430.669 90.0883 431.119 87.3473 431.119H87.339ZM70.0958 415.821C70.5194 417.546 72.4713 424.328 77.7124 427.753C82.9618 431.177 89.9305 430.211 91.6747 429.894C91.2511 428.169 89.2992 421.387 84.0582 417.962C78.8088 414.538 71.8401 415.504 70.0958 415.821Z" fill="#E9562A"/>
<path d="M136.95 379.417L136.859 379.026C136.776 378.676 134.924 370.302 139.027 363.969C143.13 357.637 151.511 355.937 151.86 355.871L152.25 355.796L152.341 356.187C152.424 356.537 154.277 364.911 150.174 371.244C146.07 377.576 137.69 379.276 137.341 379.342L136.95 379.417ZM151.61 356.779C149.891 357.204 143.13 359.162 139.716 364.419C136.303 369.685 137.266 376.676 137.582 378.426C139.301 378.001 146.062 376.043 149.476 370.785C152.89 365.519 151.926 358.529 151.61 356.779Z" fill="#E9562A"/>
<path d="M76.7157 286.255C77.2754 286.255 77.7291 285.8 77.7291 285.238C77.7291 284.677 77.2754 284.222 76.7157 284.222C76.1561 284.222 75.7024 284.677 75.7024 285.238C75.7024 285.8 76.1561 286.255 76.7157 286.255Z" fill="#E9562A"/>
<path d="M91.517 288.621C92.0766 288.621 92.5303 288.166 92.5303 287.605C92.5303 287.043 92.0766 286.588 91.517 286.588C90.9573 286.588 90.5037 287.043 90.5037 287.605C90.5037 288.166 90.9573 288.621 91.517 288.621Z" fill="#E9562A"/>
<path d="M83.9329 288.684L81.0327 289.379L81.2258 290.19L84.1259 289.495L83.9329 288.684Z" fill="#E9562A"/>
<path d="M83.9451 288.698L83.4492 289.367L85.8412 291.153L86.3371 290.484L83.9451 288.698Z" fill="#E9562A"/>
<path d="M181.014 369.585L180.466 369.086C129.567 322.575 55.8926 321.175 55.1534 321.167L44.9453 320.992C44.2975 320.984 43.7493 320.567 43.5582 319.95C43.3672 319.325 43.5831 318.684 44.1147 318.309L62.1719 308.752L73.7006 266.799C73.9082 266.232 74.4232 265.916 74.9714 265.982C75.5362 266.049 75.9598 266.474 76.0346 267.049C76.1176 267.749 76.2588 268.457 76.4582 269.149C77.8951 274.231 82.3637 278.072 87.5716 278.714C93.1698 279.397 98.4607 276.623 101.052 271.632C101.318 271.123 101.866 270.865 102.414 270.998C102.954 271.123 103.32 271.582 103.336 272.14L103.918 292.771C108.876 293.962 113.785 295.312 118.52 296.778C139.326 303.236 157.873 312.293 173.63 323.692C177.019 326.141 179.843 329.416 181.803 333.157C186.296 331.066 189.685 327.291 190.923 323C192.185 318.626 191.247 313.926 188.207 309.41C186.097 306.269 185.441 303.186 186.263 300.245C187.841 294.629 194.287 291.154 196.978 289.921C197.584 289.646 198.265 289.621 198.888 289.863C199.777 290.204 200.392 291.004 200.475 291.962C200.566 292.904 200.126 293.795 199.32 294.287C196.463 296.053 192.883 298.986 192.027 302.936C191.479 305.477 192.144 308.152 193.988 310.893C198.473 317.559 197.725 323.142 196.305 326.649C194.229 331.79 189.345 335.79 183.497 337.165C185.001 341.631 185.341 346.414 184.486 351.021L181.014 369.602V369.585ZM74.8385 266.807C74.7471 266.807 74.5727 266.841 74.498 267.049L62.8779 309.318L44.5549 319.017C44.3224 319.192 44.2892 319.492 44.3556 319.709C44.4221 319.925 44.6131 320.159 44.9619 320.167L55.17 320.342C55.9092 320.35 129.367 321.75 180.474 367.969L183.672 350.855C184.535 346.239 184.153 341.439 182.567 336.981L182.409 336.531L182.874 336.432C188.655 335.215 193.514 331.341 195.549 326.316C196.895 323 197.592 317.701 193.315 311.343C191.338 308.41 190.64 305.511 191.23 302.744C192.144 298.503 195.898 295.412 198.896 293.562C199.436 293.229 199.719 292.654 199.661 292.021C199.602 291.379 199.204 290.854 198.606 290.621C198.19 290.463 197.742 290.479 197.335 290.663C195.317 291.587 188.597 295.02 187.077 300.453C186.321 303.144 186.936 306.002 188.904 308.927C192.086 313.651 193.066 318.592 191.728 323.217C190.391 327.858 186.678 331.907 181.786 334.065L181.429 334.223L181.255 333.874C179.344 330.099 176.545 326.799 173.156 324.35C157.466 313.001 139.002 303.986 118.279 297.553C113.47 296.062 108.469 294.695 103.419 293.487L103.112 293.412L102.514 272.14C102.514 271.882 102.315 271.807 102.24 271.79C102.099 271.757 101.908 271.79 101.8 271.998C99.0421 277.298 93.4273 280.256 87.4885 279.522C81.9484 278.839 77.2057 274.756 75.6774 269.357C75.4698 268.624 75.3203 267.874 75.2289 267.132C75.1957 266.849 74.9631 266.799 74.8966 266.791C74.8883 266.791 74.8717 266.791 74.8551 266.791L74.8385 266.807Z" fill="#E9562A"/>
<path d="M86.0265 313.485L67.8614 323.1C67.0225 323.692 67.4295 325.016 68.4511 325.033L93.3939 325.875" fill="#F6CE52"/>
<path d="M93.3774 326.283L68.4346 325.441C67.795 325.433 67.2468 325.025 67.0558 324.4C66.8648 323.775 67.0807 323.133 67.6123 322.758L85.8273 313.118L86.2177 313.851L68.0525 323.467C67.8199 323.642 67.7867 323.941 67.8532 324.158C67.9196 324.375 68.1106 324.608 68.4595 324.616L93.4023 325.458L93.3774 326.291V326.283Z" fill="#E9562A"/>
<path d="M177.949 350.771L184.81 370.194C185.026 371.202 183.829 371.894 183.065 371.21L163.696 355.287" fill="#F6CE52"/>
<path d="M183.771 371.902C183.422 371.902 183.074 371.777 182.791 371.519L163.43 355.604L163.953 354.962L183.323 370.885C183.589 371.127 183.896 371.085 184.087 370.969C184.278 370.852 184.469 370.61 184.394 370.277L177.542 350.905L178.323 350.63L185.183 370.052C185.333 370.744 185.059 371.369 184.494 371.694C184.261 371.835 184.004 371.902 183.746 371.902H183.771Z" fill="#E9562A"/>
<path d="M304.432 310.16C304.632 310.16 304.781 310.068 304.881 309.91C305.661 307.585 306.799 304.252 308.286 299.928C308.353 299.753 308.294 299.636 308.12 299.57C305.097 298.561 301.94 297.445 298.676 296.228C298.327 296.095 298.219 295.862 298.352 295.512C298.477 295.162 298.701 295.045 299.017 295.162C302.281 296.378 305.429 297.495 308.461 298.503C308.668 298.578 308.809 298.536 308.868 298.361C309.457 296.67 310.379 294.12 311.642 290.704C311.775 290.354 312.016 290.246 312.381 290.387C312.746 290.521 312.863 290.762 312.738 291.112C311.484 294.495 310.562 297.028 309.981 298.711C309.931 298.853 309.981 298.97 310.147 299.07C317.016 301.353 324.79 303.536 333.47 305.627C333.81 305.677 333.943 305.902 333.869 306.31C333.827 306.652 333.611 306.794 333.237 306.727C324.483 304.611 316.659 302.411 309.756 300.111C309.582 300.045 309.457 300.111 309.383 300.328C307.912 304.502 306.824 307.652 306.118 309.768C306.044 309.977 306.118 310.085 306.351 310.093C309.856 310.135 313.428 310.851 317.066 312.243C322.074 314.109 325.662 316.717 327.838 320.075C330.015 323.425 330.413 326.966 329.034 330.699C327.714 334.257 325.23 336.798 321.576 338.331C317.921 339.864 313.502 340.206 308.328 339.339C307.954 339.281 307.804 339.056 307.871 338.664C307.937 338.273 308.178 338.115 308.585 338.181C313.477 338.973 317.63 338.681 321.052 337.298C324.474 335.915 326.792 333.582 328.005 330.307C328.985 327.658 328.951 325.083 327.897 322.592C326.842 320.092 324.923 317.909 322.14 316.034C321.958 315.884 321.792 315.901 321.642 316.084C316.293 321.55 310.545 325.491 304.416 327.908C298.277 330.324 293.468 330.882 289.996 329.582C288.152 328.899 286.923 327.783 286.309 326.241C285.694 324.7 285.752 322.942 286.491 320.95C287.604 317.951 289.78 315.451 293.011 313.443C296.242 311.435 300.055 310.335 304.44 310.143L304.432 310.16ZM304.357 311.501C304.407 311.36 304.332 311.293 304.133 311.301C300.088 311.543 296.566 312.576 293.576 314.418C290.578 316.259 288.568 318.567 287.53 321.358C286.898 323.067 286.824 324.541 287.322 325.774C287.82 327.008 288.842 327.916 290.403 328.499C292.455 329.266 295.179 329.291 298.568 328.566C298.784 328.524 298.925 328.399 299 328.191C301.118 321.4 302.904 315.834 304.357 311.493V311.501ZM305.927 311.251C305.728 311.251 305.603 311.326 305.553 311.468C303.635 317.184 301.866 322.633 300.263 327.833C300.246 327.866 300.263 327.916 300.304 327.966C300.346 328.024 300.404 328.041 300.487 328.033C303.801 327.091 307.215 325.533 310.728 323.366C314.242 321.2 317.556 318.584 320.679 315.501C320.861 315.326 320.845 315.209 320.637 315.126C319.424 314.434 318.112 313.826 316.683 313.293C313.137 311.968 309.557 311.285 305.927 311.243V311.251Z" fill="#E9562A"/>
<path d="M198.016 272.382C180.399 263.899 174.327 282.605 173.854 284.172C173.405 284.147 172.949 284.222 172.508 284.422L167.475 286.73L165.099 287.821L160.066 290.129C159.634 290.329 159.269 290.629 159.003 290.987C157.516 290.321 139.442 282.689 134.301 301.594C128.944 321.325 158.363 373.81 167.267 327.358L195.848 314.251C236.697 337.898 216.389 281.23 198.008 272.382H198.016Z" fill="#F6CE52"/>
<path d="M155.647 346.43C153.164 346.43 150.464 345.08 147.732 342.456C139.002 334.065 130.738 313.085 133.894 301.478C135.447 295.77 138.313 291.887 142.424 289.929C149.127 286.738 157.076 289.721 158.87 290.471C159.152 290.163 159.501 289.913 159.883 289.738L172.326 284.038C172.708 283.863 173.123 283.763 173.538 283.747C174.145 281.889 177.102 273.906 183.896 270.915C188.065 269.074 192.866 269.44 198.182 271.998C208.997 277.206 219.396 297.203 220.01 309.31C220.251 314.151 218.964 317.584 216.273 319.234C212.228 321.717 205.35 320.192 195.815 314.701L167.625 327.624C165.523 338.44 162.167 344.664 157.649 346.105C156.993 346.313 156.32 346.413 155.631 346.413L155.647 346.43ZM149.318 289.313C147.184 289.313 144.916 289.671 142.79 290.679C138.911 292.529 136.186 296.237 134.7 301.694C131.693 312.751 139.824 333.69 148.313 341.856C150.581 344.039 154.003 346.413 157.416 345.322C161.586 343.989 164.859 337.748 166.869 327.266L166.91 327.058L195.881 313.776L196.064 313.884C205.275 319.217 212.12 320.825 215.857 318.534C218.906 316.659 219.362 312.51 219.196 309.36C218.598 297.578 208.133 277.714 197.833 272.756C192.75 270.307 188.173 269.949 184.236 271.682C177.309 274.74 174.535 283.322 174.244 284.288L174.145 284.605L173.812 284.58C173.422 284.555 173.023 284.63 172.666 284.788L160.224 290.487C159.867 290.654 159.551 290.904 159.319 291.221L159.119 291.487L158.82 291.354C158.181 291.071 154.053 289.313 149.302 289.313H149.318Z" fill="#E9562A"/>
<path d="M149.576 310.593C152.828 310.593 155.465 307.948 155.465 304.686C155.465 301.423 152.828 298.778 149.576 298.778C146.323 298.778 143.687 301.423 143.687 304.686C143.687 307.948 146.323 310.593 149.576 310.593Z" fill="#F6CE52"/>
<path d="M149.584 311.01C147.192 311.01 144.899 309.635 143.844 307.319C143.147 305.785 143.08 304.069 143.67 302.486C144.26 300.903 145.423 299.645 146.959 298.945C148.488 298.245 150.199 298.178 151.777 298.77C153.355 299.361 154.609 300.528 155.307 302.069C156.004 303.602 156.071 305.319 155.481 306.902C154.891 308.485 153.729 309.743 152.192 310.443C151.345 310.835 150.456 311.018 149.584 311.018V311.01ZM149.567 299.195C148.795 299.195 148.022 299.361 147.3 299.695C145.971 300.303 144.957 301.394 144.451 302.769C143.944 304.144 143.994 305.635 144.6 306.969C145.207 308.302 146.295 309.318 147.665 309.827C149.036 310.335 150.522 310.285 151.851 309.677C153.18 309.068 154.194 307.977 154.7 306.602C155.207 305.227 155.157 303.736 154.551 302.403C153.945 301.069 152.856 300.053 151.486 299.545C150.863 299.311 150.215 299.195 149.576 299.195H149.567Z" fill="#E9562A"/>
<path d="M189.187 309.318C192.439 309.318 195.076 306.673 195.076 303.411C195.076 300.148 192.439 297.503 189.187 297.503C185.934 297.503 183.298 300.148 183.298 303.411C183.298 306.673 185.934 309.318 189.187 309.318Z" fill="#F6CE52"/>
<path d="M189.195 309.727C186.803 309.727 184.51 308.352 183.456 306.035C182.758 304.502 182.691 302.786 183.281 301.203C183.871 299.62 185.034 298.361 186.57 297.662C189.735 296.212 193.481 297.612 194.918 300.786C196.363 303.952 194.968 307.71 191.803 309.16C190.956 309.552 190.067 309.735 189.195 309.735V309.727ZM189.178 297.92C188.414 297.92 187.65 298.078 186.911 298.42C185.582 299.028 184.569 300.12 184.062 301.494C183.555 302.869 183.605 304.361 184.211 305.694C184.818 307.027 185.906 308.044 187.276 308.552C188.647 309.06 190.134 309.01 191.463 308.402C194.203 307.144 195.416 303.877 194.162 301.128C193.24 299.111 191.255 297.92 189.178 297.92Z" fill="#E9562A"/>
<path d="M166.86 311.568L164.535 312.635L163.471 310.302C163.039 309.36 161.918 308.943 160.98 309.368C160.041 309.793 159.626 310.926 160.049 311.868L161.113 314.201L158.787 315.268C157.848 315.701 157.433 316.826 157.857 317.767C158.28 318.709 159.41 319.125 160.348 318.7L162.674 317.634L163.737 319.967C164.169 320.908 165.29 321.325 166.229 320.9C167.168 320.475 167.583 319.342 167.159 318.4L166.096 316.067L168.422 315.001C169.36 314.568 169.776 313.443 169.352 312.501C168.928 311.56 167.799 311.143 166.86 311.568Z" fill="#F6CE52"/>
<path d="M165.457 321.483C164.585 321.483 163.754 320.984 163.364 320.142L162.475 318.184L160.523 319.075C159.368 319.6 158.006 319.092 157.483 317.942C156.96 316.784 157.466 315.418 158.613 314.893L160.564 314.001L159.676 312.043C159.152 310.885 159.659 309.518 160.805 308.993C161.362 308.735 161.985 308.718 162.558 308.935C163.131 309.152 163.588 309.577 163.845 310.135L164.734 312.093L166.686 311.201C167.84 310.677 169.203 311.185 169.726 312.335C170.249 313.493 169.743 314.859 168.596 315.384L166.644 316.276L167.533 318.234C167.791 318.792 167.807 319.417 167.591 319.992C167.375 320.567 166.952 321.025 166.395 321.283C166.088 321.425 165.764 321.492 165.448 321.492L165.457 321.483ZM162.882 317.084L164.119 319.8C164.452 320.534 165.324 320.859 166.063 320.525C166.42 320.367 166.686 320.067 166.827 319.7C166.968 319.334 166.952 318.934 166.786 318.575L165.548 315.859L168.256 314.618C168.987 314.284 169.311 313.409 168.978 312.668C168.646 311.935 167.774 311.61 167.035 311.943L164.327 313.185L163.089 310.468C162.932 310.11 162.633 309.843 162.267 309.702C161.902 309.56 161.503 309.577 161.146 309.743C160.415 310.077 160.091 310.951 160.423 311.693L161.661 314.409L158.953 315.651C158.222 315.984 157.898 316.859 158.23 317.601C158.563 318.334 159.435 318.659 160.174 318.326L162.882 317.084Z" fill="#E9562A"/>
<path d="M189.644 283.28C190.713 283.28 191.579 282.411 191.579 281.339C191.579 280.266 190.713 279.397 189.644 279.397C188.575 279.397 187.708 280.266 187.708 281.339C187.708 282.411 188.575 283.28 189.644 283.28Z" fill="#F6CE52"/>
<path d="M189.652 283.697C188.763 283.697 187.908 283.188 187.517 282.322C187.26 281.747 187.235 281.114 187.451 280.522C187.667 279.931 188.107 279.464 188.672 279.206C189.245 278.947 189.876 278.922 190.466 279.139C191.056 279.356 191.521 279.797 191.778 280.364C192.036 280.939 192.061 281.572 191.845 282.164C191.629 282.755 191.189 283.222 190.624 283.48C190.308 283.622 189.976 283.697 189.652 283.697ZM189.644 279.822C189.428 279.822 189.212 279.872 189.012 279.964C188.248 280.314 187.916 281.214 188.265 281.98C188.614 282.747 189.511 283.08 190.275 282.73C191.039 282.38 191.371 281.48 191.022 280.714C190.856 280.347 190.549 280.064 190.175 279.922C190.001 279.856 189.826 279.822 189.644 279.822Z" fill="#E9562A"/>
<path d="M187.185 289.388C188.254 289.388 189.12 288.518 189.12 287.446C189.12 286.374 188.254 285.505 187.185 285.505C186.116 285.505 185.25 286.374 185.25 287.446C185.25 288.518 186.116 289.388 187.185 289.388Z" fill="#F6CE52"/>
<path d="M187.185 289.796C186.296 289.796 185.441 289.288 185.05 288.421C184.511 287.238 185.034 285.838 186.213 285.305C187.393 284.763 188.788 285.288 189.32 286.471C189.577 287.046 189.602 287.679 189.386 288.271C189.17 288.863 188.73 289.329 188.165 289.588C187.85 289.729 187.517 289.804 187.193 289.804L187.185 289.796ZM187.177 285.921C186.969 285.921 186.753 285.963 186.546 286.063C185.781 286.413 185.449 287.313 185.798 288.079C186.147 288.846 187.044 289.179 187.808 288.829C188.174 288.663 188.456 288.354 188.597 287.979C188.738 287.605 188.722 287.188 188.556 286.813C188.298 286.255 187.75 285.921 187.177 285.921Z" fill="#E9562A"/>
<path d="M196.031 285.805C197.1 285.805 197.966 284.936 197.966 283.863C197.966 282.791 197.1 281.922 196.031 281.922C194.962 281.922 194.096 282.791 194.096 283.863C194.096 284.936 194.962 285.805 196.031 285.805Z" fill="#F6CE52"/>
<path d="M196.039 286.213C195.15 286.213 194.295 285.705 193.905 284.838C193.647 284.263 193.622 283.63 193.838 283.038C194.054 282.447 194.494 281.98 195.059 281.722C195.632 281.464 196.272 281.439 196.853 281.655C197.443 281.872 197.908 282.314 198.166 282.88C198.423 283.455 198.448 284.088 198.232 284.68C198.016 285.272 197.576 285.738 197.011 285.996C196.695 286.138 196.363 286.213 196.039 286.213ZM196.031 282.339C195.815 282.339 195.599 282.389 195.4 282.48C195.034 282.647 194.752 282.955 194.611 283.33C194.469 283.713 194.486 284.122 194.652 284.497C195.001 285.263 195.898 285.596 196.662 285.247C197.028 285.08 197.31 284.772 197.451 284.397C197.592 284.013 197.576 283.605 197.41 283.23C197.244 282.864 196.936 282.58 196.562 282.439C196.388 282.372 196.214 282.339 196.031 282.339Z" fill="#E9562A"/>
<path d="M193.572 291.904C194.641 291.904 195.508 291.035 195.508 289.963C195.508 288.89 194.641 288.021 193.572 288.021C192.503 288.021 191.637 288.89 191.637 289.963C191.637 291.035 192.503 291.904 193.572 291.904Z" fill="#F6CE52"/>
<path d="M193.572 292.321C192.684 292.321 191.828 291.812 191.438 290.946C190.898 289.763 191.421 288.363 192.601 287.83C193.78 287.288 195.175 287.813 195.707 288.996C196.247 290.179 195.724 291.579 194.544 292.112C194.228 292.254 193.896 292.329 193.572 292.329V292.321ZM193.572 288.446C193.365 288.446 193.149 288.488 192.941 288.579C192.177 288.929 191.845 289.829 192.194 290.596C192.542 291.362 193.439 291.696 194.204 291.346C194.968 290.996 195.3 290.096 194.951 289.329C194.694 288.771 194.145 288.438 193.572 288.438V288.446Z" fill="#E9562A"/>
<path d="M179.736 311.381L175.845 313.164C175.582 313.285 175.467 313.596 175.587 313.86C175.707 314.124 176.017 314.24 176.28 314.119L180.171 312.335C180.434 312.215 180.549 311.904 180.429 311.64C180.309 311.376 179.999 311.26 179.736 311.381Z" fill="#F6CE52"/>
<path d="M176.072 314.584C175.964 314.584 175.847 314.568 175.739 314.526C175.507 314.443 175.316 314.268 175.216 314.034C175.116 313.809 175.1 313.551 175.191 313.318C175.282 313.085 175.449 312.893 175.681 312.793L179.577 311.01C179.801 310.91 180.058 310.893 180.291 310.985C180.524 311.068 180.715 311.243 180.814 311.476C181.03 311.951 180.814 312.51 180.349 312.726L176.454 314.509C176.329 314.568 176.196 314.593 176.063 314.593L176.072 314.584ZM179.917 311.768L176.022 313.551C175.972 313.576 175.947 313.651 175.972 313.693L176.113 313.743L180.009 311.96C180.058 311.935 180.083 311.868 180.058 311.818L179.917 311.768Z" fill="#E9562A"/>
<path d="M202.269 431.594L120.513 456.799C118.279 457.491 116.011 456.332 115.463 454.216L101.866 402.389C101.31 400.273 102.672 397.998 104.906 397.307L186.662 372.102C188.896 371.41 191.164 372.568 191.712 374.685L205.309 426.511C205.865 428.628 204.503 430.902 202.269 431.594Z" fill="#F6CE52"/>
<path d="M119.217 457.416C118.445 457.416 117.697 457.224 117.033 456.857C116.044 456.307 115.347 455.408 115.056 454.324L101.459 402.498C100.853 400.173 102.34 397.665 104.782 396.915L186.537 371.71C187.766 371.335 189.079 371.46 190.142 372.052C191.13 372.602 191.828 373.502 192.119 374.585L205.716 426.411C206.322 428.736 204.835 431.244 202.393 431.994L120.638 457.199C120.172 457.341 119.691 457.416 119.217 457.416ZM187.957 372.327C187.567 372.327 187.168 372.385 186.778 372.502L105.022 397.707C103.004 398.332 101.758 400.381 102.257 402.281L115.853 454.108C116.078 454.974 116.642 455.691 117.423 456.124C118.295 456.607 119.367 456.707 120.38 456.399L202.136 431.194C204.154 430.569 205.4 428.519 204.902 426.62L191.305 374.793C191.081 373.927 190.516 373.21 189.735 372.777C189.203 372.477 188.589 372.327 187.957 372.327Z" fill="#E9562A"/>
<path d="M161.503 443.576C161.503 443.576 172.326 435.927 183.223 431.761C186.072 430.669 192.833 428.644 197.127 427.395C199.212 426.786 200.483 424.628 199.951 422.612L186.338 370.844C185.848 368.969 183.746 368.077 181.927 368.952L146.212 386.108L161.503 443.576Z" fill="#F6CE52"/>
<path d="M161.254 444.259L145.722 385.883L181.753 368.577C182.766 368.086 183.913 368.069 184.901 368.527C185.823 368.952 186.496 369.76 186.753 370.735L200.367 422.504C200.956 424.745 199.561 427.12 197.252 427.794C193.315 428.944 186.271 431.044 183.381 432.152C172.658 436.252 161.86 443.842 161.752 443.926L161.262 444.267L161.254 444.259ZM146.702 386.342L161.752 442.901C163.987 441.368 173.555 435.01 183.074 431.369C185.84 430.311 192.177 428.403 197.011 426.995C198.888 426.445 200.026 424.528 199.553 422.72L185.939 370.952C185.74 370.202 185.25 369.61 184.544 369.285C183.788 368.936 182.899 368.952 182.11 369.335L146.702 386.35V386.342Z" fill="#E9562A"/>
<path d="M107.572 392.357C105.596 392.657 104.25 394.616 104.74 396.49L118.354 448.258C118.885 450.275 121.012 451.383 123.08 450.708C127.341 449.325 134.06 447.184 137.017 446.475C148.313 443.792 161.229 444.109 161.229 444.109L146.27 386.542L107.572 392.366V392.357Z" fill="#F6CE52"/>
<path d="M121.842 451.316C121.153 451.316 120.48 451.15 119.865 450.808C118.91 450.283 118.229 449.408 117.946 448.35L104.333 396.582C104.076 395.599 104.258 394.532 104.84 393.649C105.446 392.724 106.418 392.099 107.506 391.932L146.577 386.05L161.769 444.517L161.221 444.501C161.088 444.501 148.222 444.217 137.117 446.859C134.127 447.567 127.116 449.808 123.212 451.083C122.756 451.233 122.299 451.3 121.85 451.3L121.842 451.316ZM145.963 387L107.63 392.766C106.775 392.891 106.011 393.391 105.537 394.116C105.089 394.799 104.948 395.624 105.139 396.374L118.752 448.142C118.968 448.975 119.508 449.667 120.264 450.075C121.078 450.516 122.025 450.6 122.947 450.3C127.739 448.742 134.052 446.742 136.917 446.059C146.818 443.701 158.089 443.651 160.681 443.676L145.954 387H145.963Z" fill="#E9562A"/>
<path d="M159.975 374.352C148.604 382.001 146.619 385.45 146.278 386.533C145.456 385.8 142.092 384.009 128.711 384.009C120.314 384.009 114.425 385.642 111.152 386.892C109.416 387.558 108.436 389.425 108.893 391.149L122.116 441.443C122.531 443.034 124.093 444.026 125.779 443.734C128.329 443.292 133.13 442.693 142.125 442.051C152.001 441.343 159.485 443.542 161.237 444.109C161.237 444.109 161.354 444.276 161.437 444.176C161.553 444.217 161.636 444.242 161.636 444.242C161.636 444.242 168.073 436.377 176.811 431.336C183.979 427.195 188.232 424.978 190.748 423.787C192.758 422.837 193.83 420.612 193.29 418.554L180.565 370.16C179.934 367.752 177.442 366.419 174.942 367.127C171.47 368.111 166.237 370.144 159.975 374.352Z" fill="#F6CE52"/>
<path d="M161.761 444.726L161.428 444.609H161.354C161.204 444.609 161.079 444.542 160.996 444.467C158.862 443.776 151.66 441.784 142.142 442.459C132.856 443.126 128.155 443.734 125.837 444.134C123.952 444.459 122.183 443.342 121.709 441.543L108.486 391.249C107.979 389.316 109.084 387.233 111.003 386.5C114.483 385.175 120.38 383.592 128.694 383.592H128.711C140.281 383.592 144.534 384.908 146.095 385.892C146.876 384.334 149.692 380.767 159.742 374.01C166.146 369.702 171.479 367.677 174.834 366.728C176.196 366.344 177.592 366.503 178.763 367.177C179.859 367.811 180.64 368.827 180.964 370.06L193.689 418.454C194.287 420.72 193.124 423.128 190.923 424.17C187.758 425.67 183.074 428.211 177.01 431.711C168.439 436.66 162.01 444.442 161.952 444.517L161.769 444.742L161.761 444.726ZM161.495 443.751C162.624 442.426 168.713 435.518 176.595 430.969C182.675 427.461 187.376 424.912 190.566 423.403C192.401 422.529 193.381 420.537 192.883 418.654L180.158 370.26C179.892 369.252 179.245 368.411 178.348 367.886C177.367 367.327 176.205 367.194 175.058 367.519C171.769 368.452 166.52 370.452 160.207 374.693C148.704 382.434 146.943 385.808 146.677 386.658L146.486 387.275L146.004 386.85C145.365 386.283 142.242 384.434 128.711 384.425H128.694C120.505 384.425 114.716 385.975 111.302 387.283C109.773 387.866 108.893 389.516 109.292 391.041L122.515 441.334C122.88 442.718 124.251 443.567 125.704 443.317C129.052 442.743 134.716 442.159 142.092 441.634C151.802 440.943 159.144 443.001 161.287 443.692L161.495 443.759V443.751Z" fill="#E9562A"/>
<path d="M146.681 386.416L145.877 386.629L160.837 443.508L161.64 443.296L146.681 386.416Z" fill="#E9562A"/>
<path d="M129.184 435.568C127.291 435.568 125.646 434.319 125.148 432.419L116.293 398.765C115.671 396.382 117.091 393.866 119.475 393.149C122.664 392.191 126.252 391.733 130.14 391.766C137.05 391.841 140.215 392.582 141.652 393.199C142.183 393.424 142.574 393.882 142.723 394.466L152.848 432.977C153.031 433.669 152.84 434.402 152.333 434.927C151.843 435.435 151.145 435.643 150.473 435.493C148.114 434.944 144.368 434.352 139.924 434.635C135.58 434.91 132.158 435.21 129.774 435.535C129.575 435.56 129.384 435.577 129.184 435.577V435.568ZM129.649 392.591C126.028 392.591 122.689 393.041 119.707 393.941C117.755 394.524 116.584 396.59 117.091 398.548L125.945 432.202C126.385 433.885 127.947 434.935 129.658 434.702C132.067 434.377 135.505 434.069 139.874 433.794C144.417 433.51 148.255 434.11 150.664 434.669C151.046 434.76 151.453 434.635 151.743 434.335C152.042 434.019 152.159 433.585 152.051 433.177L141.926 394.665C141.843 394.332 141.618 394.074 141.328 393.949C139.957 393.366 136.901 392.657 130.131 392.582C129.973 392.582 129.807 392.582 129.649 392.582V392.591Z" fill="#E9562A"/>
<path d="M144.51 405.848L119.334 406.761L119.364 407.593L144.54 406.68L144.51 405.848Z" fill="#E9562A"/>
<path d="M124.893 392.36L124.085 392.554L127.531 407.019L128.339 406.826L124.893 392.36Z" fill="#E9562A"/>
<path d="M149.764 421.191L123.326 422.669L123.372 423.501L149.811 422.023L149.764 421.191Z" fill="#E9562A"/>
<path d="M140.497 422.503L136.264 433.921L137.042 434.211L141.275 422.794L140.497 422.503Z" fill="#E9562A"/>
<path d="M163.854 431.269C163.687 431.269 163.53 431.244 163.363 431.202C162.691 431.027 162.184 430.519 162.001 429.836L151.876 391.324C151.727 390.749 151.827 390.141 152.167 389.666C153.089 388.325 155.415 385.892 161.245 381.884C164.526 379.626 167.799 377.976 170.972 376.968C172.135 376.601 173.347 376.71 174.386 377.284C175.407 377.851 176.138 378.793 176.445 379.951L185.3 413.605C185.848 415.679 184.843 417.887 182.907 418.846C180.723 419.929 177.675 421.629 173.837 423.878C169.917 426.186 167.018 428.828 165.282 430.644C164.892 431.052 164.385 431.269 163.854 431.269ZM172.326 377.584C171.96 377.584 171.586 377.643 171.221 377.759C168.123 378.743 164.925 380.359 161.711 382.575C155.988 386.517 153.729 388.866 152.848 390.141C152.657 390.424 152.591 390.783 152.682 391.116L162.807 429.628C162.907 430.011 163.197 430.302 163.571 430.402C163.97 430.502 164.385 430.386 164.676 430.069C166.453 428.219 169.41 425.52 173.414 423.162C177.259 420.895 180.333 419.196 182.534 418.096C184.112 417.304 184.942 415.504 184.494 413.813L175.64 380.159C175.399 379.226 174.809 378.468 173.987 378.018C173.472 377.734 172.907 377.593 172.326 377.593V377.584Z" fill="#E9562A"/>
<path d="M177.734 388.455L155.893 402.056L156.331 402.764L178.172 389.163L177.734 388.455Z" fill="#E9562A"/>
<path d="M182.045 404.274L158.865 418.119L159.289 418.835L182.469 404.99L182.045 404.274Z" fill="#E9562A"/>
<path d="M173.497 406.814C173.007 406.814 172.508 406.672 172.018 406.406C170.747 405.697 169.701 404.173 169.211 402.314C168.405 399.248 169.335 396.365 171.329 395.749C172.043 395.532 172.816 395.632 173.563 396.049C174.834 396.757 175.881 398.282 176.371 400.14C177.176 403.206 176.246 406.089 174.253 406.706C174.003 406.781 173.754 406.822 173.497 406.822V406.814ZM172.085 396.465C171.91 396.465 171.744 396.49 171.578 396.54C170.066 397.007 169.344 399.557 170.017 402.098C170.448 403.739 171.345 405.072 172.425 405.672C172.965 405.972 173.513 406.056 174.012 405.897C175.523 405.431 176.246 402.889 175.573 400.34C175.141 398.698 174.244 397.365 173.164 396.765C172.799 396.565 172.434 396.457 172.085 396.457V396.465Z" fill="#E9562A"/>
<path d="M163.33 413.505C162.832 413.505 162.333 413.371 161.877 413.121C161.021 412.646 160.373 411.78 160.099 410.738C159.584 408.764 160.539 406.739 162.242 406.214C162.998 405.981 163.812 406.072 164.535 406.472C165.39 406.947 166.038 407.814 166.312 408.855C166.827 410.822 165.872 412.855 164.169 413.38C163.895 413.463 163.613 413.505 163.33 413.505ZM163.073 406.914C162.873 406.914 162.674 406.947 162.483 407.006C161.204 407.397 160.49 408.98 160.897 410.522C161.112 411.338 161.611 412.022 162.275 412.388C162.799 412.68 163.38 412.746 163.92 412.58C165.199 412.188 165.913 410.605 165.506 409.064C165.29 408.247 164.792 407.564 164.128 407.197C163.795 407.014 163.43 406.914 163.073 406.914Z" fill="#E9562A"/>
<path d="M138.479 403.931C138.039 403.931 137.598 403.806 137.167 403.564C136.112 402.973 135.24 401.723 134.849 400.223C134.185 397.682 135.015 395.274 136.743 394.74C137.391 394.541 138.072 394.632 138.736 394.999C139.791 395.59 140.663 396.84 141.054 398.34C141.718 400.881 140.888 403.289 139.16 403.823C138.936 403.889 138.711 403.923 138.479 403.923V403.931ZM137.416 395.482C137.266 395.482 137.125 395.507 136.984 395.549C135.721 395.94 135.115 397.982 135.647 400.023C135.987 401.306 136.701 402.364 137.565 402.848C138.022 403.106 138.487 403.173 138.911 403.039C140.173 402.648 140.78 400.606 140.248 398.565C139.907 397.282 139.193 396.224 138.329 395.74C138.022 395.574 137.715 395.482 137.416 395.482Z" fill="#E9562A"/>
<path d="M128.138 420.404L125.372 409.872L132.897 409.405L135.323 419.929L128.138 420.404ZM126.427 410.647L128.761 419.529L134.284 419.162L132.241 410.28L126.427 410.638V410.647Z" fill="#E9562A"/>
<path d="M127.498 208.298C131.044 208.298 133.919 205.415 133.919 201.857C133.919 198.3 131.044 195.417 127.498 195.417C123.952 195.417 121.078 198.3 121.078 201.857C121.078 205.415 123.952 208.298 127.498 208.298Z" fill="#EA572A"/>
<path d="M127.498 208.715C123.727 208.715 120.663 205.64 120.663 201.857C120.663 198.075 123.727 195 127.498 195C131.269 195 134.334 198.075 134.334 201.857C134.334 205.64 131.269 208.715 127.498 208.715ZM127.498 195.833C124.184 195.833 121.493 198.533 121.493 201.857C121.493 205.182 124.184 207.882 127.498 207.882C130.812 207.882 133.504 205.182 133.504 201.857C133.504 198.533 130.812 195.833 127.498 195.833Z" fill="#EA572A"/>
<path d="M291.965 273.748C287.92 273.748 284.631 270.448 284.631 266.391C284.631 262.333 287.92 259.033 291.965 259.033C296.01 259.033 299.299 262.333 299.299 266.391C299.299 270.448 296.01 273.748 291.965 273.748ZM291.965 259.858C288.377 259.858 285.461 262.783 285.461 266.382C285.461 269.982 288.377 272.906 291.965 272.906C295.553 272.906 298.468 269.982 298.468 266.382C298.468 262.783 295.553 259.858 291.965 259.858Z" fill="#E9562A"/>
</g>
<defs>
<clipPath id="clip0_152_1160">
<rect width="344.017" height="703" fill="white" transform="translate(0.491699)"/>
</clipPath>
</defs>
</svg>
