<svg width="350" height="704" viewBox="0 0 350 704" fill="none" xmlns="http://www.w3.org/2000/svg">
<g clip-path="url(#clip0_17_994)">
<path d="M249.229 344.314L191.054 256.567L190.281 240.703L206.436 227.604L221.927 232.137L222.002 232.204L297.088 302.636L249.229 344.306V344.314ZM191.876 256.292L249.395 343.056L295.842 302.611L221.495 232.879L206.611 228.521L191.12 241.077L191.859 256.284L191.876 256.292Z" fill="#E9562A"/>
<path d="M242.088 251.54L207.37 280.485L207.901 281.126L242.619 252.18L242.088 251.54Z" fill="#E9562A"/>
<path d="M266.477 274.42L225.883 308.409L226.416 309.049L267.01 275.06L266.477 274.42Z" fill="#E9562A"/>
<path d="M290.029 296.501L243.963 335.677L244.5 336.313L290.566 297.136L290.029 296.501Z" fill="#E9562A"/>
<path d="M221.454 232.173L191.211 256.098L191.726 256.752L221.968 232.827L221.454 232.173Z" fill="#E9562A"/>
<path d="M289.184 303.604L288.56 304.154L291.14 307.104L291.764 306.554L289.184 303.604Z" fill="#E9562A"/>
<path d="M286.037 306.329L285.413 306.878L287.993 309.829L288.617 309.279L286.037 306.329Z" fill="#E9562A"/>
<path d="M282.895 309.036L282.27 309.585L284.85 312.536L285.474 311.986L282.895 309.036Z" fill="#E9562A"/>
<path d="M279.761 311.755L279.137 312.304L281.716 315.255L282.341 314.706L279.761 311.755Z" fill="#E9562A"/>
<path d="M276.611 314.457L275.987 315.007L278.567 317.957L279.191 317.407L276.611 314.457Z" fill="#E9562A"/>
<path d="M273.464 317.149L272.84 317.698L275.42 320.648L276.044 320.099L273.464 317.149Z" fill="#E9562A"/>
<path d="M270.333 319.895L269.708 320.444L272.288 323.395L272.912 322.845L270.333 319.895Z" fill="#E9562A"/>
<path d="M267.185 322.597L266.561 323.147L269.14 326.097L269.765 325.548L267.185 322.597Z" fill="#E9562A"/>
<path d="M264.046 325.314L263.422 325.863L266.002 328.813L266.626 328.264L264.046 325.314Z" fill="#E9562A"/>
<path d="M260.904 328.035L260.28 328.584L262.859 331.535L263.483 330.985L260.904 328.035Z" fill="#E9562A"/>
<path d="M257.765 330.739L257.141 331.289L259.72 334.239L260.345 333.69L257.765 330.739Z" fill="#E9562A"/>
<path d="M254.626 333.448L254.001 333.998L256.581 336.948L257.206 336.398L254.626 333.448Z" fill="#E9562A"/>
<path d="M251.473 336.167L250.849 336.716L253.429 339.666L254.053 339.117L251.473 336.167Z" fill="#E9562A"/>
<path d="M241.662 276.839C243.821 279.439 243.473 283.297 240.889 285.463C238.306 287.63 234.452 287.28 232.293 284.688C230.133 282.097 230.482 272.957 230.482 272.957C230.482 272.957 239.502 274.248 241.662 276.839Z" fill="#EA572A"/>
<path d="M236.986 287.305C235.117 287.305 233.265 286.505 231.977 284.955C229.743 282.264 230.058 273.323 230.075 272.94L230.092 272.482L230.548 272.548C230.922 272.598 239.752 273.89 241.994 276.581C244.295 279.347 243.929 283.48 241.164 285.797C239.943 286.813 238.464 287.313 236.994 287.313L236.986 287.305ZM230.889 273.44C230.856 275.323 230.848 282.305 232.617 284.422C234.627 286.838 238.223 287.163 240.632 285.147C243.041 283.13 243.365 279.522 241.355 277.106C239.594 274.99 232.741 273.74 230.897 273.44H230.889Z" fill="#E9562A"/>
<path d="M193.247 216.606C191.751 214.556 184.45 212.59 181.776 207.798C179.351 203.441 178.379 198.4 173.362 197.7C168.345 197 163.27 200.599 162.39 205.74C161.443 211.256 165.255 216.397 170.737 217.131C172.722 217.397 174.541 215.656 176.319 216.214C180.281 217.447 180.721 223.363 181.876 224.946C184.492 228.537 189.16 229.587 192.3 227.288C195.439 224.988 195.863 220.214 193.247 216.614V216.606Z" fill="#EA572A"/>
<path d="M188.495 228.921C187.939 228.921 187.366 228.854 186.793 228.729C184.725 228.262 182.856 227.004 181.535 225.188C181.153 224.663 180.862 223.78 180.53 222.755C179.791 220.505 178.777 217.414 176.194 216.606C175.389 216.356 174.525 216.672 173.603 216.997C172.681 217.33 171.717 217.672 170.679 217.539C167.905 217.172 165.471 215.722 163.81 213.464C162.157 211.206 161.501 208.44 161.975 205.665C162.896 200.299 168.021 196.533 173.412 197.283C177.515 197.858 179.043 201.141 180.663 204.615C181.12 205.599 181.593 206.615 182.133 207.59C183.736 210.465 187.108 212.314 189.816 213.789C191.569 214.747 192.956 215.506 193.579 216.356C196.328 220.13 195.855 225.171 192.54 227.604C191.369 228.462 189.974 228.904 188.495 228.904V228.921ZM175.571 215.681C175.862 215.681 176.145 215.722 176.444 215.806C179.434 216.739 180.522 220.063 181.319 222.488C181.635 223.446 181.909 224.271 182.208 224.688C183.412 226.346 185.107 227.487 186.975 227.904C188.828 228.321 190.63 227.971 192.05 226.938C194.999 224.78 195.381 220.247 192.906 216.847C192.399 216.147 191.02 215.397 189.417 214.523C186.618 212.989 183.13 211.081 181.41 207.998C180.854 206.999 180.372 205.965 179.915 204.974C178.329 201.566 176.967 198.625 173.304 198.116C168.354 197.433 163.644 200.883 162.797 205.815C162.365 208.357 162.955 210.906 164.483 212.981C166.003 215.056 168.246 216.389 170.787 216.722C171.634 216.831 172.49 216.522 173.32 216.222C174.051 215.956 174.807 215.689 175.571 215.689V215.681Z" fill="#EA572A"/>
<path d="M186.156 225.445L192.412 220.404C193.688 219.377 195.556 219.581 196.581 220.861L204.07 230.216L193.191 238.981L185.701 229.627C184.677 228.347 184.881 226.473 186.156 225.445Z" fill="#F6CE52"/>
<path d="M193.13 239.569L185.381 229.887C184.816 229.179 184.559 228.296 184.658 227.396C184.758 226.496 185.198 225.688 185.904 225.121L192.158 220.08C193.612 218.905 195.738 219.147 196.91 220.597L204.659 230.279L193.13 239.569ZM192.673 220.738L186.419 225.779C185.887 226.204 185.555 226.813 185.481 227.496C185.406 228.171 185.597 228.846 186.029 229.371L193.255 238.403L203.488 230.162L196.262 221.13C195.381 220.03 193.77 219.855 192.682 220.738H192.673Z" fill="#E9562A"/>
<path d="M206.304 607.504C201.71 607.504 197.192 607.179 192.79 606.704C161.119 603.288 144.632 575.7 141.642 570.201C137.497 562.56 137.862 550.27 138.211 538.388C138.386 532.414 138.552 526.782 138.161 521.899C136.974 507.267 138.12 500.952 138.17 500.685L138.244 500.31L138.577 500.118C138.577 500.118 141.193 498.61 144.906 495.727C151.285 490.778 160.214 482.412 166.493 470.614L168.121 467.556L168.055 471.031C168.03 472.222 167.781 499.485 191.502 502.468C184.883 492.169 187.441 471.864 187.474 471.655L188.205 466.365L189.119 471.63C189.16 471.889 193.861 497.094 222.633 503.976C212.658 489.953 214.742 481.238 214.842 480.854L215.332 478.955L216.354 480.629C216.52 480.896 232.675 507.001 253.972 510.842C251.546 506.992 245.948 497.027 248.332 490.228L249.038 488.212L249.877 490.178C249.951 490.361 257.784 508.601 264.238 513.208L264.47 513.375L264.553 513.65C264.587 513.758 267.568 523.949 273.324 534.206C282.868 525.74 289.396 527.398 289.671 527.473C289.712 527.473 301.49 529.673 301.49 542.371C301.49 555.07 297.237 560.727 288.857 568.393C281.448 575.175 270.368 573.167 267.66 572.551C248.996 600.98 226.969 607.504 206.304 607.504ZM139.74 501.368C139.524 502.893 138.793 509.317 139.806 521.766C140.213 526.74 140.039 532.423 139.864 538.438C139.515 550.104 139.166 562.16 143.095 569.401C146.011 574.767 162.116 601.722 192.964 605.046C216.819 607.621 244.22 605.605 266.597 571.142L266.929 570.634L267.51 570.792C267.635 570.826 280.11 574.142 287.735 567.16C295.933 559.661 299.829 554.036 299.829 542.371C299.829 530.706 289.737 529.181 289.305 529.098C289.172 529.065 282.893 527.573 273.673 536.13L272.909 536.839L272.386 535.939C266.738 526.157 263.565 516.166 263.025 514.392C257.659 510.342 251.787 498.41 249.412 493.244C248.963 500.877 256.272 511.342 256.355 511.459L257.435 512.983L255.583 512.767C235.981 510.45 220.773 490.203 216.271 483.562C216.312 487.112 217.542 494.611 225.266 504.751L226.603 506.501L224.444 506.068C200.473 501.293 191.668 484.495 188.761 476.363C188.404 483.296 188.537 496.477 193.903 502.926L195.149 504.426L193.205 504.293C171.086 502.751 167.207 481.804 166.535 473.939C160.239 484.662 151.966 492.353 145.919 497.035C142.863 499.41 140.578 500.843 139.74 501.343V501.368Z" fill="#E9562A"/>
<path d="M196.22 615.712C176.934 614.903 164.782 608.013 160.006 604.705L162.29 610.97H161.094C160.911 610.962 143.818 610.587 133.095 591.223C133.244 594.481 134.316 600.072 139.108 606.129L140.063 607.338L138.535 607.479C138.244 607.504 131.284 608.054 123.476 600.688C123.028 600.289 112.82 590.898 116.732 570.118C113.468 576.233 109.14 588.182 116.815 599.622L118.144 601.597L115.876 600.88C115.636 600.805 110.004 598.989 104.863 595.048C99.5635 590.981 96.6896 576.033 101.042 567.476C105.079 559.527 111.931 551.737 112.222 551.412C112.446 551.178 131.89 531.139 130.811 522.482C130.661 521.299 130.121 520.441 129.149 519.849C126.857 518.449 124.797 516.391 123.036 513.717C117.405 505.209 116.898 494.003 121.716 484.462C124.049 479.838 127.081 475.147 130.719 470.497C142.887 454.974 172.158 450.725 173.395 450.55L174.433 450.408L174.334 451.458C174.334 451.583 173.985 465.423 220.656 470.189C261.09 474.322 287.453 471.322 303.608 460.74C305.36 459.59 307.744 459.932 309.148 461.515C313.193 466.081 322.828 477.63 324.88 486.162C325.494 488.737 326.815 493.469 328.484 499.468C333.7 518.216 342.438 549.595 342.438 561.11H340.777C340.777 549.828 332.081 518.583 326.89 499.918C325.22 493.903 323.891 489.153 323.268 486.553C321.308 478.388 311.881 467.106 307.919 462.623C307.055 461.648 305.593 461.432 304.522 462.132C288.026 472.93 261.331 476.013 220.49 471.839C178.628 467.564 173.362 455.916 172.747 452.333C167.747 453.175 142.63 457.982 132.023 471.522C128.452 476.08 125.478 480.688 123.194 485.204C118.642 494.202 119.107 504.776 124.415 512.783C126.043 515.25 127.928 517.141 130.013 518.408C131.425 519.274 132.247 520.566 132.463 522.257C133.643 531.706 114.265 551.687 113.443 552.528C113.401 552.578 106.466 560.46 102.529 568.209C98.6415 575.858 101.25 590.148 105.876 593.698C108.858 595.989 112.081 597.539 114.157 598.414C104.996 581.824 117.886 565.085 118.019 564.91L120.561 561.677L119.473 565.651C113.127 588.798 124.49 599.33 124.606 599.439C129.664 604.213 134.349 605.421 136.741 605.721C129.972 596.222 131.533 588.248 131.608 587.898L132.115 585.499L133.169 587.715C141.733 605.63 155.687 608.662 159.881 609.179L156.376 599.547L158.818 601.688C158.943 601.805 171.967 613.004 196.303 614.028L196.237 615.695L196.22 615.712Z" fill="#E9562A"/>
<path d="M264.495 612.004V610.337C264.711 610.337 286.39 610.121 295.75 593.373L296.847 591.406L297.287 593.614C297.337 593.881 298.4 599.739 291.166 608.121L302.179 605.821C315.103 603.13 323.193 579.258 323.276 579.016L324.423 575.575L324.888 579.175C324.971 579.816 326.782 594.456 320.81 604.046C322.213 604.046 325.187 603.496 330.312 600.197C346.915 589.49 340.844 561.56 340.785 561.285L342.405 560.919C342.671 562.11 348.792 590.265 331.209 601.605C322.67 607.113 319.356 605.58 319.007 605.38L318.185 604.93L318.733 604.163C323.243 597.881 323.659 588.365 323.492 583.149C320.619 590.19 313.293 605.213 302.512 607.463L286.29 610.845L288.2 608.887C293.176 603.788 294.887 599.58 295.451 596.947C284.928 611.82 264.703 612.004 264.487 612.004H264.495Z" fill="#E9562A"/>
<path d="M196.669 627.568L195.165 626.86C198.28 620.178 194.567 606.479 194.526 606.346L196.129 605.905C196.286 606.488 200.049 620.328 196.669 627.568Z" fill="#E9562A"/>
<path d="M185.123 623.544L184.891 621.894C192.075 620.886 196.752 617.994 196.793 617.969L197.674 619.378C197.474 619.503 192.673 622.486 185.115 623.544H185.123Z" fill="#E9562A"/>
<path d="M116.948 697.293L115.295 697.143C115.312 696.926 117.471 675.037 136.093 651.432C154.74 627.793 183.786 620.919 184.077 620.853L184.326 620.794L185.796 621.386L185.838 621.902C185.838 622.002 186.685 632.001 194.625 638.792C200.431 643.75 208.529 645.824 218.704 644.966C245.998 642.65 266.995 623.469 271.912 618.611C257.95 615.112 256.679 585.799 256.629 584.507L258.29 584.441C258.299 584.757 259.644 615.828 273.698 617.236L275.351 617.403L274.221 618.628C273.989 618.878 250.624 643.933 218.837 646.624C208.189 647.524 199.675 645.316 193.521 640.042C186.029 633.626 184.5 624.794 184.226 622.544L184.193 622.527C181.344 623.244 154.748 630.435 137.389 652.448C119.074 675.67 116.964 697.059 116.948 697.276V697.293Z" fill="#E9562A"/>
<path d="M347.355 692.51C343.834 660.581 327.222 645.641 316.233 635.751C315.677 635.251 315.128 634.759 314.605 634.276C304.713 625.31 278.997 618.545 275.235 617.595L274.221 618.653L273.025 617.495L274.703 615.745L275.168 615.853C276.373 616.145 304.787 623.119 315.726 633.034C316.25 633.509 316.798 634.001 317.354 634.501C328.534 644.558 345.429 659.764 349.017 692.318L347.364 692.501L347.355 692.51Z" fill="#E9562A"/>
<path d="M144.092 695.734L142.447 695.493C144.532 681.17 150.504 666.072 150.562 665.922L152.107 666.538C152.049 666.688 146.151 681.603 144.092 695.726V695.734Z" fill="#E9562A"/>
<path d="M284.039 704L282.419 703.617C284.18 696.143 287.943 671.746 287.984 671.504L289.629 671.754C289.587 672.004 285.817 696.459 284.039 704Z" fill="#E9562A"/>
<path d="M165.505 541.471C168.518 541.471 170.962 537.513 170.962 532.631C170.962 527.748 168.518 523.79 165.505 523.79C162.491 523.79 160.048 527.748 160.048 532.631C160.048 537.513 162.491 541.471 165.505 541.471Z" fill="#E9562A"/>
<path d="M243.149 565.91C250.154 565.91 255.832 563.123 255.832 559.686C255.832 556.248 250.154 553.461 243.149 553.461C236.144 553.461 230.466 556.248 230.466 559.686C230.466 563.123 236.144 565.91 243.149 565.91Z" fill="#E9562A"/>
<path d="M223.406 546.812C226.419 546.812 228.863 542.854 228.863 537.972C228.863 533.089 226.419 529.131 223.406 529.131C220.392 529.131 217.948 533.089 217.948 537.972C217.948 542.854 220.392 546.812 223.406 546.812Z" fill="#E9562A"/>
<path d="M148.494 505.576L147.207 504.518C147.431 504.243 152.855 497.677 159.641 497.102C162.697 496.852 165.53 497.844 168.071 500.068L166.975 501.327C164.79 499.41 162.373 498.552 159.782 498.769C153.702 499.277 148.535 505.509 148.486 505.576H148.494Z" fill="#E9562A"/>
<path d="M235.067 512.475C232.476 507.409 228.995 504.16 224.734 502.818C217.965 500.693 211.461 504.101 211.395 504.135L210.614 502.66C210.905 502.51 217.807 498.885 225.233 501.218C229.942 502.701 233.746 506.226 236.545 511.709L235.067 512.467V512.475Z" fill="#E9562A"/>
<path d="M181.552 556.553C178.371 554.411 176.751 552.028 176.734 549.47C176.701 545.479 180.63 542.696 180.796 542.58L181.743 543.946C181.743 543.946 178.362 546.354 178.396 549.462C178.412 551.428 179.791 553.353 182.482 555.161L181.552 556.544V556.553Z" fill="#E9562A"/>
<path d="M192.067 579.891C179.251 579.891 172.025 569.976 171.925 569.834L173.279 568.868C173.835 569.651 187.158 587.84 210.531 571.534L211.478 572.9C204.061 578.075 197.549 579.891 192.067 579.891Z" fill="#E9562A"/>
<path d="M169.483 528.581C169.458 528.49 166.676 518.999 160.139 519.666C153.685 520.324 153.851 527.998 153.86 528.331L152.198 528.39C152.082 525.09 153.569 518.666 159.964 518.016C167.897 517.208 170.953 527.69 171.078 528.14L169.483 528.598V528.581Z" fill="#E9562A"/>
<path d="M227.384 533.922C227.359 533.831 224.56 524.332 218.04 525.007C211.586 525.665 211.752 533.339 211.76 533.672L210.099 533.731C209.983 530.431 211.461 524.007 217.865 523.357C225.773 522.54 228.854 533.031 228.979 533.481L227.384 533.939V533.922Z" fill="#E9562A"/>
<path d="M276.024 464.44C272.203 464.44 267.792 463.74 263.274 462.273C251.421 458.432 243.24 450.775 245.034 445.192L257.352 376.668L319.007 396.64L288.001 459.174C286.905 462.59 282.237 464.431 276.024 464.431V464.44ZM258 377.759L245.84 445.401C244.17 450.592 252.111 457.791 263.523 461.482C274.936 465.181 285.567 464.007 287.228 458.866L317.828 397.14L258 377.759Z" fill="#E9562A"/>
<path d="M299.031 418.871C293.815 418.871 286.722 417.813 280.002 416.196C273.291 414.58 267.111 412.472 262.601 410.264C259.295 408.647 255.466 406.264 255.99 404.089C256.513 401.915 260.998 401.548 264.678 401.606C269.686 401.698 276.148 402.64 282.86 404.264C295.194 407.239 307.794 412.488 306.872 416.363C306.448 418.129 303.392 418.863 299.031 418.863V418.871ZM263.922 402.44C259.727 402.44 257.086 403.123 256.804 404.289C256.505 405.531 258.814 407.481 262.975 409.522C267.427 411.697 273.54 413.788 280.202 415.388C294.712 418.888 305.485 418.613 306.066 416.18C306.648 413.738 297.187 408.581 282.668 405.081C276.007 403.473 269.62 402.54 264.669 402.448C264.412 402.448 264.163 402.448 263.922 402.448V402.44Z" fill="#E9562A"/>
<path d="M259.395 433.127C259.038 433.127 258.673 433.069 258.324 432.944C256.588 432.352 255.658 430.452 256.247 428.719C256.53 427.878 257.128 427.195 257.925 426.803C258.722 426.411 259.619 426.353 260.458 426.636C261.297 426.92 261.978 427.519 262.369 428.319C262.759 429.119 262.817 430.019 262.535 430.861C262.252 431.702 261.654 432.386 260.857 432.777C260.392 433.002 259.894 433.119 259.395 433.119V433.127ZM259.395 427.295C259.021 427.295 258.648 427.378 258.299 427.553C257.701 427.844 257.252 428.361 257.045 428.986C256.604 430.286 257.302 431.711 258.598 432.152C259.229 432.369 259.902 432.319 260.5 432.027C261.098 431.736 261.546 431.219 261.754 430.594C262.194 429.294 261.497 427.869 260.201 427.428C259.935 427.336 259.669 427.295 259.395 427.295Z" fill="#E9562A"/>
<path d="M268.623 457.466C268.266 457.466 267.9 457.407 267.552 457.291C265.816 456.699 264.885 454.799 265.475 453.066C265.757 452.225 266.356 451.541 267.153 451.15C267.95 450.758 268.847 450.7 269.686 450.983C271.422 451.575 272.352 453.475 271.763 455.208C271.48 456.049 270.882 456.732 270.085 457.124C269.62 457.349 269.121 457.466 268.623 457.466ZM268.623 451.633C268.249 451.633 267.875 451.716 267.527 451.891C266.929 452.183 266.48 452.7 266.272 453.325C265.832 454.633 266.53 456.049 267.826 456.491C268.457 456.707 269.13 456.666 269.728 456.366C270.326 456.074 270.774 455.558 270.982 454.924C271.422 453.625 270.724 452.2 269.429 451.758C269.163 451.666 268.897 451.625 268.623 451.625V451.633Z" fill="#E9562A"/>
<path d="M295.327 435.677C294.97 435.677 294.604 435.619 294.255 435.494C293.417 435.21 292.735 434.61 292.345 433.81C291.955 433.011 291.897 432.111 292.179 431.269C292.461 430.428 293.059 429.744 293.857 429.353C294.654 428.961 295.551 428.903 296.39 429.186C297.229 429.469 297.91 430.069 298.3 430.869C298.691 431.669 298.749 432.569 298.467 433.411C298.184 434.252 297.586 434.935 296.789 435.327C296.324 435.552 295.825 435.669 295.327 435.669V435.677ZM295.327 429.844C294.953 429.844 294.579 429.928 294.231 430.103C293.632 430.394 293.184 430.911 292.976 431.536C292.769 432.161 292.802 432.844 293.101 433.444C293.392 434.044 293.907 434.494 294.53 434.702C295.825 435.144 297.246 434.444 297.686 433.144C297.902 432.511 297.86 431.836 297.561 431.236C297.27 430.636 296.755 430.186 296.133 429.978C295.867 429.886 295.601 429.844 295.327 429.844Z" fill="#E9562A"/>
<path d="M253.34 448.558C252.983 448.558 252.617 448.5 252.269 448.375C251.43 448.092 250.749 447.492 250.358 446.692C249.968 445.892 249.91 444.992 250.192 444.151C250.475 443.309 251.073 442.626 251.87 442.234C252.667 441.843 253.564 441.784 254.403 442.068C255.242 442.351 255.923 442.951 256.314 443.751C256.704 444.551 256.762 445.451 256.48 446.292C256.197 447.134 255.599 447.817 254.802 448.209C254.337 448.433 253.838 448.55 253.34 448.55V448.558ZM253.332 442.726C252.958 442.726 252.584 442.809 252.235 442.984C251.637 443.276 251.189 443.792 250.981 444.417C250.541 445.717 251.239 447.142 252.534 447.584C253.83 448.025 255.25 447.325 255.691 446.025C255.907 445.392 255.865 444.717 255.566 444.117C255.275 443.517 254.76 443.068 254.137 442.859C253.872 442.768 253.606 442.726 253.332 442.726Z" fill="#E9562A"/>
<path d="M318.269 397.163C319.996 391.794 307.814 383.043 291.06 377.618C274.305 372.192 259.322 372.147 257.595 377.516C255.867 382.885 268.049 391.635 284.803 397.061C301.558 402.486 316.541 402.532 318.269 397.163Z" fill="#F6CE52"/>
<path d="M307.312 401.598H307.179C300.817 401.581 292.827 400.115 284.687 397.474C267.452 391.891 255.383 383.075 257.211 377.401C258.099 374.635 262.136 373.118 268.573 373.118H268.706C275.068 373.135 283.059 374.602 291.199 377.243C299.338 379.884 306.673 383.384 311.847 387.1C317.146 390.908 319.572 394.532 318.675 397.315C317.786 400.082 313.749 401.598 307.312 401.598ZM268.581 373.952C262.618 373.952 258.764 375.301 258.008 377.659C256.38 382.717 268.723 391.424 284.953 396.682C293.018 399.29 300.917 400.74 307.196 400.765H307.321C313.284 400.765 317.138 399.415 317.894 397.057C318.658 394.682 316.283 391.299 311.374 387.775C306.266 384.109 299.015 380.651 290.949 378.034C282.884 375.426 274.985 373.977 268.706 373.952H268.581Z" fill="#E9562A"/>
<path d="M277.054 449.458C276.032 449.458 274.313 448.75 273.183 448.225C272.145 447.742 271.206 447.217 270.525 446.75C269.877 446.3 269.246 445.767 269.495 445.242L291.664 398.623L300.327 400.298L277.843 449.108C277.727 449.358 277.444 449.458 277.054 449.458ZM270.301 445.475C270.525 445.775 271.58 446.567 273.532 447.467C275.484 448.375 276.771 448.658 277.145 448.642L299.131 400.906L292.137 399.557L270.301 445.475Z" fill="#E9562A"/>
<path d="M302.752 393.957C302.445 393.957 302.055 393.866 301.598 393.732C300.817 393.499 299.812 393.107 298.782 392.624C294.604 390.691 294.928 389.991 295.036 389.758L313.749 349.13L322.097 353.004L303.384 393.632C303.276 393.866 303.06 393.957 302.744 393.957H302.752ZM295.867 389.958C296.149 390.249 297.229 390.991 299.139 391.874C301.041 392.757 302.304 393.107 302.711 393.132L321.001 353.413L314.156 350.238L295.867 389.958Z" fill="#E9562A"/>
<path d="M321.562 353.219C321.702 352.914 320.115 351.879 318.016 350.906C315.917 349.933 314.102 349.391 313.961 349.696C313.821 350.001 315.408 351.037 317.507 352.01C319.606 352.983 321.421 353.524 321.562 353.219Z" fill="#F6CE52"/>
<path d="M321.283 353.696C320.701 353.696 319.572 353.421 317.321 352.379C313.143 350.446 313.467 349.746 313.575 349.513C313.683 349.28 314.007 348.58 318.176 350.521C319.206 350.996 320.153 351.513 320.843 351.955C321.648 352.479 322.138 352.921 321.922 353.388C321.873 353.496 321.781 353.704 321.275 353.704L321.283 353.696ZM315.02 350.18C315.568 350.546 316.457 351.055 317.67 351.621C318.882 352.188 319.846 352.529 320.486 352.713C319.937 352.346 319.049 351.838 317.836 351.271C316.615 350.705 315.66 350.363 315.02 350.18Z" fill="#E9562A"/>
<path d="M273.25 438.576C274.855 438.576 276.157 437.271 276.157 435.66C276.157 434.05 274.855 432.744 273.25 432.744C271.644 432.744 270.343 434.05 270.343 435.66C270.343 437.271 271.644 438.576 273.25 438.576Z" fill="#F6CE52"/>
<path d="M273.249 438.993C272.892 438.993 272.527 438.935 272.178 438.81C271.339 438.526 270.658 437.927 270.268 437.127C269.877 436.327 269.819 435.427 270.102 434.585C270.384 433.744 270.982 433.061 271.779 432.669C272.577 432.277 273.474 432.219 274.313 432.502C275.152 432.786 275.833 433.385 276.223 434.185C276.613 434.985 276.672 435.885 276.389 436.727C276.107 437.568 275.509 438.251 274.711 438.643C274.246 438.868 273.748 438.985 273.249 438.985V438.993ZM273.241 433.16C272.867 433.16 272.494 433.244 272.145 433.419C271.547 433.71 271.098 434.227 270.891 434.852C270.683 435.477 270.716 436.16 271.015 436.76C271.306 437.36 271.821 437.81 272.444 438.018C273.075 438.235 273.748 438.193 274.346 437.893C274.944 437.602 275.392 437.085 275.6 436.46C276.04 435.16 275.343 433.735 274.047 433.294C273.781 433.202 273.515 433.16 273.241 433.16Z" fill="#E9562A"/>
<path d="M248.597 398.682C248.074 398.682 247.551 398.615 247.036 398.49L199.218 386.592C197.541 386.175 196.129 385.134 195.24 383.65C194.351 382.167 194.085 380.426 194.501 378.751L203.405 342.731C204.26 339.265 207.765 337.14 211.229 338.006L259.046 349.905C262.502 350.763 264.62 354.288 263.756 357.754L254.852 393.774C254.437 395.457 253.398 396.874 251.92 397.765C250.898 398.382 249.76 398.698 248.597 398.698V398.682ZM209.667 338.64C208.654 338.64 207.657 338.915 206.777 339.448C205.489 340.223 204.584 341.464 204.219 342.922L195.315 378.943C194.949 380.409 195.182 381.926 195.954 383.217C196.727 384.509 197.964 385.417 199.418 385.783L247.235 397.682C248.689 398.048 250.209 397.815 251.496 397.04C252.784 396.265 253.689 395.024 254.054 393.566L262.958 357.545C263.324 356.079 263.091 354.563 262.319 353.271C261.546 351.98 260.309 351.071 258.855 350.705L211.038 338.806C210.589 338.69 210.124 338.64 209.676 338.64H209.667Z" fill="#E9562A"/>
<path d="M202.846 349.828L202.646 350.636L261.472 365.273L261.672 364.464L202.846 349.828Z" fill="#E9562A"/>
<path d="M206.588 344.558L206.388 345.366L215.675 347.677L215.875 346.869L206.588 344.558Z" fill="#E9562A"/>
<path d="M250.993 355.594L250.793 356.402L260.08 358.713L260.28 357.904L250.993 355.594Z" fill="#E9562A"/>
<path d="M237.085 370.027L234.336 365.111L274.645 343.797L276.887 347.813L238.331 370.369C237.891 370.627 237.326 370.469 237.077 370.027H237.085Z" fill="#F6CE52"/>
<path d="M237.883 370.919C237.766 370.919 237.65 370.902 237.534 370.869C237.185 370.777 236.903 370.552 236.728 370.235L233.771 364.944L274.819 343.239L277.461 347.972L238.555 370.735C238.348 370.852 238.124 370.919 237.891 370.919H237.883ZM234.909 365.286L237.451 369.827C237.517 369.944 237.625 370.027 237.75 370.06C237.874 370.094 238.016 370.077 238.132 370.01L276.331 347.663L274.487 344.356L234.909 365.278V365.286Z" fill="#E9562A"/>
<path d="M233.04 372.519C231.08 372.519 229.51 372.01 229.402 371.977L229.045 371.86L229.128 371.494C229.17 371.31 230.216 366.944 233.564 365.061C233.755 364.953 233.954 364.853 234.145 364.753L234.502 364.578L238.09 371.002L237.75 371.21C237.567 371.327 237.376 371.435 237.185 371.544C235.839 372.302 234.353 372.527 233.032 372.527L233.04 372.519ZM230.05 371.285C231.13 371.569 234.303 372.194 236.786 370.802C236.853 370.769 236.919 370.727 236.977 370.694L234.17 365.669C234.103 365.703 234.037 365.736 233.971 365.778C231.487 367.178 230.374 370.219 230.042 371.294L230.05 371.285Z" fill="#E9562A"/>
<path d="M229.33 371.238L226.097 373.054L226.503 373.781L229.736 371.966L229.33 371.238Z" fill="#E9562A"/>
<path d="M246.859 361.666L240.981 364.967L241.387 365.694L247.265 362.393L246.859 361.666Z" fill="#E9562A"/>
<path d="M209.526 375.168C208.654 374.318 209.435 372.844 210.423 372.46C211.819 371.919 213.397 372.935 214.41 373.802C216.428 375.527 217.965 377.868 220.415 379.034C222.317 379.943 224.859 380.168 226.404 378.459C227.616 377.118 227.949 374.943 226.595 373.585C226.121 373.11 225.39 373.843 225.864 374.318C226.695 375.143 226.562 376.393 225.964 377.326C225.283 378.401 224.078 378.793 222.849 378.676C219.942 378.401 218.023 375.86 216.104 373.952C214.576 372.435 212.134 370.461 209.842 371.569C208.289 372.319 207.45 374.568 208.795 375.885C209.277 376.351 210.008 375.618 209.526 375.152V375.168Z" fill="#E9562A"/>
<path d="M231.404 438.202C228.514 434.385 223.09 433.635 219.286 436.535C218.588 437.068 217.99 437.693 217.5 438.368C214.593 434.619 209.227 433.902 205.448 436.777C201.669 439.651 200.921 445.001 203.704 448.817C202.973 449.1 202.267 449.483 201.611 449.983C197.806 452.883 197.059 458.324 199.949 462.14C202.225 465.148 206.071 466.24 209.468 465.156C209.535 466.873 210.099 468.581 211.212 470.056C214.103 473.872 219.527 474.622 223.331 471.722C225.573 470.014 226.736 467.431 226.744 464.815C229.261 465.515 232.06 465.081 234.295 463.382C238.099 460.482 238.846 455.041 235.956 451.225C234.843 449.758 233.356 448.742 231.728 448.217C233.688 445.234 233.68 441.209 231.404 438.202Z" fill="#F6CE52"/>
<path d="M218.115 473.905C215.374 473.905 212.666 472.664 210.88 470.314C209.858 468.964 209.244 467.381 209.086 465.706C205.573 466.615 201.827 465.323 199.617 462.398C196.594 458.407 197.375 452.691 201.361 449.658C201.885 449.258 202.458 448.917 203.072 448.634C200.523 444.684 201.42 439.318 205.199 436.452C208.995 433.569 214.393 434.16 217.492 437.702C217.948 437.143 218.463 436.643 219.037 436.202C223.023 433.169 228.721 433.952 231.736 437.952C233.946 440.876 234.17 444.851 232.351 448C233.913 448.609 235.266 449.625 236.288 450.975C239.311 454.966 238.531 460.682 234.544 463.715C232.417 465.34 229.743 465.923 227.143 465.348C226.994 468.014 225.715 470.439 223.58 472.064C221.944 473.305 220.017 473.905 218.115 473.905ZM209.858 464.598L209.883 465.148C209.95 466.848 210.523 468.456 211.545 469.814C214.286 473.439 219.46 474.155 223.082 471.397C225.141 469.831 226.329 467.431 226.329 464.823V464.273L226.852 464.423C229.361 465.123 231.977 464.623 234.045 463.057C237.659 460.307 238.373 455.108 235.632 451.483C234.61 450.133 233.215 449.142 231.612 448.625L231.088 448.459L231.388 448C233.306 445.076 233.182 441.243 231.08 438.468C228.339 434.844 223.156 434.127 219.543 436.877C218.895 437.368 218.322 437.96 217.84 438.627L217.517 439.076L217.176 438.635C214.418 435.077 209.277 434.402 205.697 437.127C202.142 439.835 201.395 444.976 204.036 448.584L204.352 449.017L203.845 449.217C203.122 449.5 202.45 449.875 201.851 450.325C198.238 453.075 197.524 458.274 200.265 461.898C202.366 464.673 206.013 465.831 209.327 464.765L209.85 464.598H209.858Z" fill="#E9562A"/>
<path d="M217.783 459.049C221.062 459.049 223.721 456.382 223.721 453.091C223.721 449.801 221.062 447.134 217.783 447.134C214.503 447.134 211.844 449.801 211.844 453.091C211.844 456.382 214.503 459.049 217.783 459.049Z" fill="#F6CE52"/>
<path d="M217.791 459.466C215.872 459.466 213.97 458.599 212.716 456.949C211.686 455.591 211.254 453.916 211.478 452.225C211.711 450.533 212.583 449.042 213.937 448.009C216.728 445.884 220.723 446.434 222.841 449.234C224.959 452.033 224.411 456.041 221.62 458.166C220.474 459.041 219.12 459.457 217.782 459.457L217.791 459.466ZM217.774 447.542C216.611 447.542 215.44 447.909 214.443 448.667C213.264 449.558 212.508 450.858 212.309 452.333C212.109 453.808 212.492 455.258 213.38 456.441C215.224 458.874 218.696 459.357 221.121 457.507C223.547 455.658 224.029 452.175 222.185 449.742C221.097 448.309 219.444 447.55 217.774 447.55V447.542Z" fill="#E9562A"/>
<path d="M123.343 362.478C121.425 362.478 119.523 361.612 118.269 359.962C117.239 358.604 116.807 356.929 117.031 355.238C117.263 353.546 118.136 352.055 119.489 351.022C120.843 349.997 122.513 349.547 124.199 349.78C125.885 350.013 127.372 350.888 128.402 352.246C129.432 353.605 129.864 355.279 129.639 356.971C129.415 358.662 128.535 360.154 127.181 361.187C126.035 362.062 124.689 362.478 123.343 362.478ZM123.327 350.563C122.131 350.563 120.968 350.955 119.996 351.688C118.817 352.58 118.061 353.888 117.862 355.354C117.662 356.821 118.044 358.279 118.933 359.462C120.777 361.895 124.249 362.378 126.674 360.529C127.854 359.637 128.609 358.329 128.809 356.862C129.008 355.396 128.626 353.938 127.737 352.755C126.849 351.571 125.545 350.813 124.083 350.613C123.825 350.58 123.576 350.563 123.319 350.563H123.327Z" fill="#E9562A"/>
<path d="M123.684 376.926C123.269 376.926 122.853 376.901 122.43 376.843C120.029 376.51 117.903 375.268 116.441 373.327C115.42 371.977 114.805 370.394 114.647 368.719C111.134 369.619 107.388 368.336 105.178 365.411C103.716 363.478 103.093 361.087 103.417 358.679C103.75 356.271 104.987 354.138 106.923 352.671C107.446 352.271 108.019 351.93 108.634 351.646C106.084 347.697 106.981 342.331 110.76 339.456C114.547 336.573 119.955 337.157 123.053 340.706C123.51 340.148 124.025 339.64 124.598 339.206C126.525 337.74 128.908 337.115 131.309 337.44C133.709 337.773 135.836 339.015 137.297 340.956C139.507 343.881 139.731 347.855 137.912 351.005C139.474 351.613 140.827 352.63 141.849 353.979C143.311 355.912 143.934 358.304 143.61 360.712C143.278 363.12 142.04 365.253 140.105 366.719C137.979 368.344 135.304 368.919 132.704 368.353C132.555 371.019 131.276 373.443 129.141 375.068C127.546 376.285 125.644 376.918 123.684 376.918V376.926ZM115.42 367.619L115.444 368.169C115.511 369.869 116.084 371.477 117.106 372.835C118.435 374.593 120.37 375.727 122.546 376.026C124.722 376.326 126.89 375.76 128.643 374.427C130.703 372.86 131.89 370.461 131.89 367.853V367.303L132.414 367.453C134.922 368.153 137.538 367.653 139.607 366.086C141.359 364.753 142.489 362.812 142.788 360.629C143.087 358.445 142.522 356.271 141.193 354.513C140.171 353.163 138.784 352.171 137.165 351.655L136.641 351.488L136.94 351.03C138.859 348.105 138.734 344.272 136.633 341.498C135.304 339.74 133.369 338.606 131.193 338.306C129.016 338.006 126.849 338.573 125.096 339.906C124.448 340.398 123.875 340.989 123.393 341.656L123.069 342.106L122.729 341.664C119.971 338.115 114.83 337.432 111.258 340.156C107.703 342.864 106.956 348.005 109.597 351.613L109.913 352.046L109.406 352.246C108.683 352.53 108.011 352.905 107.413 353.354C105.66 354.688 104.53 356.629 104.231 358.812C103.932 360.995 104.497 363.17 105.826 364.928C107.928 367.703 111.566 368.861 114.888 367.794L115.411 367.628L115.42 367.619Z" fill="#E9562A"/>
<path d="M321.084 449.233C319.647 449.233 318.218 448.583 317.288 447.35C316.524 446.334 316.191 445.076 316.366 443.817C316.54 442.551 317.188 441.434 318.201 440.659C320.294 439.068 323.285 439.476 324.871 441.576C325.635 442.593 325.967 443.851 325.793 445.109C325.619 446.367 324.971 447.492 323.957 448.267C323.102 448.917 322.089 449.233 321.084 449.233ZM321.075 440.518C320.22 440.518 319.397 440.793 318.708 441.318C317.869 441.951 317.329 442.876 317.188 443.926C317.047 444.967 317.321 446.009 317.952 446.842C319.265 448.575 321.731 448.917 323.459 447.6C324.298 446.967 324.83 446.042 324.979 445.001C325.12 443.959 324.854 442.918 324.215 442.084C323.584 441.243 322.662 440.701 321.615 440.56C321.432 440.535 321.25 440.526 321.075 440.526V440.518Z" fill="#E9562A"/>
<path d="M321.324 459.799C319.289 459.799 317.271 458.882 315.95 457.124C315.219 456.157 314.771 455.024 314.63 453.824C312.055 454.433 309.331 453.474 307.711 451.333C305.468 448.367 306.05 444.117 309.007 441.859C309.364 441.584 309.754 441.351 310.161 441.151C308.35 438.226 309.04 434.31 311.806 432.202C314.588 430.086 318.542 430.486 320.859 433.035C321.175 432.66 321.532 432.319 321.931 432.019C323.368 430.927 325.137 430.461 326.923 430.702C328.708 430.944 330.287 431.877 331.375 433.31C332.994 435.452 333.177 438.343 331.898 440.668C333.011 441.126 333.974 441.868 334.705 442.834C336.948 445.8 336.366 450.05 333.41 452.308C331.865 453.491 329.929 453.933 328.036 453.549C327.886 455.482 326.948 457.232 325.394 458.407C324.182 459.332 322.745 459.782 321.324 459.782V459.799ZM315.394 452.724L315.419 453.274C315.469 454.491 315.876 455.649 316.615 456.624C318.583 459.224 322.296 459.74 324.896 457.766C326.374 456.641 327.222 454.916 327.23 453.041V452.491L327.753 452.641C329.556 453.141 331.433 452.783 332.911 451.658C335.503 449.683 336.018 445.959 334.049 443.351C333.318 442.384 332.321 441.676 331.159 441.301L330.635 441.134L330.934 440.676C332.313 438.576 332.222 435.827 330.71 433.835C328.742 431.227 325.029 430.719 322.429 432.694C321.964 433.052 321.549 433.469 321.208 433.952L320.884 434.402L320.544 433.96C318.567 431.411 314.871 430.919 312.312 432.877C309.762 434.819 309.231 438.51 311.125 441.101L311.44 441.534L310.934 441.734C310.41 441.934 309.929 442.209 309.505 442.534C306.914 444.509 306.399 448.233 308.367 450.841C309.87 452.833 312.487 453.658 314.871 452.899L315.394 452.733V452.724Z" fill="#E9562A"/>
<path d="M95.2444 464.515C94.7959 464.515 94.3391 464.465 93.8905 464.356C92.3539 463.998 91.0582 463.057 90.2276 461.715C88.5166 458.949 89.3638 455.291 92.1297 453.575C93.4669 452.741 95.0451 452.483 96.5817 452.841C98.1183 453.2 99.414 454.141 100.245 455.483C101.075 456.824 101.333 458.407 100.976 459.949C100.618 461.49 99.6798 462.79 98.3425 463.623C97.3957 464.215 96.3325 464.515 95.2444 464.515ZM95.2278 453.525C94.2975 453.525 93.3756 453.783 92.5699 454.291C90.1944 455.766 89.4635 458.907 90.9419 461.29C91.6562 462.44 92.7775 463.248 94.0899 463.557C95.4022 463.865 96.7644 463.64 97.9106 462.923C99.0568 462.207 99.8625 461.082 100.17 459.765C100.477 458.441 100.253 457.082 99.5386 455.933C98.8243 454.783 97.703 453.974 96.3906 453.666C96.0002 453.574 95.6182 453.533 95.2278 453.533V453.525Z" fill="#E9562A"/>
<path d="M94.5466 477.813C91.7392 477.813 88.9899 476.405 87.4035 473.838C86.5895 472.522 86.1576 471.022 86.1493 469.472C82.8518 469.981 79.5211 468.472 77.7436 465.598C75.3017 461.657 76.5144 456.457 80.4431 454.008C80.9497 453.691 81.4979 453.433 82.071 453.224C80.0859 449.375 81.3817 444.526 85.0944 442.209C88.8238 439.885 93.7326 440.884 96.2909 444.401C96.7477 443.934 97.2627 443.526 97.8192 443.184C99.7212 442.001 101.972 441.626 104.157 442.143C106.341 442.651 108.193 443.992 109.373 445.9C111.15 448.775 111.026 452.441 109.099 455.183C110.469 455.874 111.624 456.932 112.438 458.249C114.88 462.19 113.667 467.389 109.738 469.839C107.645 471.139 105.145 471.447 102.811 470.714C102.429 473.147 101.05 475.255 98.9571 476.555C97.5866 477.413 96.0583 477.821 94.5466 477.821V477.813ZM87.0131 468.447L86.9799 468.997C86.8968 470.556 87.2872 472.08 88.1012 473.405C90.3023 476.955 94.9702 478.055 98.5169 475.846C100.535 474.588 101.823 472.497 102.047 470.114L102.097 469.564L102.603 469.764C104.838 470.622 107.271 470.389 109.29 469.131C112.828 466.923 113.924 462.24 111.723 458.682C110.901 457.357 109.713 456.332 108.285 455.724L107.786 455.508L108.127 455.083C110.129 452.575 110.345 449.058 108.658 446.334C107.595 444.609 105.926 443.409 103.957 442.951C101.989 442.493 99.9621 442.826 98.2428 443.892C97.6032 444.292 97.0301 444.776 96.54 445.342L96.1746 445.759L95.8756 445.292C93.6579 441.809 89.0148 440.743 85.518 442.926C82.0378 445.092 80.9165 449.733 83.0179 453.258L83.292 453.724L82.7688 453.874C82.0794 454.074 81.4398 454.358 80.8501 454.716C77.3117 456.924 76.2153 461.607 78.4164 465.165C80.1025 467.889 83.3336 469.256 86.4566 468.564L86.9882 468.447H87.0131Z" fill="#E9562A"/>
<path d="M87.719 408.139C84.4382 408.139 81.772 405.464 81.772 402.173C81.772 398.882 84.4382 396.207 87.719 396.207C90.9999 396.207 93.6661 398.882 93.6661 402.173C93.6661 405.464 90.9999 408.139 87.719 408.139ZM87.719 397.04C84.895 397.04 82.6026 399.348 82.6026 402.173C82.6026 404.998 84.9033 407.306 87.719 407.306C90.5348 407.306 92.8355 404.998 92.8355 402.173C92.8355 399.348 90.5348 397.04 87.719 397.04Z" fill="#E9562A"/>
<path d="M165.878 368.661C163.32 368.661 161.244 366.578 161.244 364.011C161.244 361.445 163.32 359.362 165.878 359.362C168.437 359.362 170.513 361.445 170.513 364.011C170.513 366.578 168.437 368.661 165.878 368.661ZM165.878 360.187C163.777 360.187 162.074 361.903 162.074 364.003C162.074 366.103 163.785 367.819 165.878 367.819C167.971 367.819 169.683 366.103 169.683 364.003C169.683 361.903 167.971 360.187 165.878 360.187Z" fill="#E9562A"/>
<path d="M286.198 370.027C284.33 370.027 282.81 368.502 282.81 366.628C282.81 364.753 284.33 363.228 286.198 363.228C288.067 363.228 289.587 364.753 289.587 366.628C289.587 368.502 288.067 370.027 286.198 370.027ZM286.198 364.07C284.786 364.07 283.64 365.219 283.64 366.636C283.64 368.052 284.786 369.202 286.198 369.202C287.61 369.202 288.757 368.052 288.757 366.636C288.757 365.219 287.61 364.07 286.198 364.07Z" fill="#E9562A"/>
<path d="M91.8473 432.119C88.8738 432.119 85.0447 431.594 81.7722 429.453C75.4596 425.337 73.7652 416.929 73.6988 416.579L73.624 416.188L74.0144 416.096C74.3633 416.013 82.7108 414.155 89.0233 418.271C95.3358 422.387 97.0302 430.794 97.0967 431.144L97.1714 431.536L96.7811 431.627C96.6149 431.669 94.5966 432.119 91.8556 432.119H91.8473ZM74.6041 416.821C75.0277 418.546 76.9796 425.328 82.2207 428.753C87.4701 432.177 94.4388 431.211 96.183 430.894C95.7594 429.169 93.8075 422.387 88.5665 418.962C83.3171 415.538 76.3484 416.504 74.6041 416.821Z" fill="#E9562A"/>
<path d="M141.459 380.417L141.367 380.026C141.284 379.676 139.432 371.302 143.535 364.969C147.638 358.637 156.019 356.937 156.368 356.87L156.758 356.795L156.85 357.187C156.933 357.537 158.785 365.911 154.682 372.243C150.579 378.576 142.198 380.276 141.849 380.342L141.459 380.417ZM156.119 357.779C154.399 358.204 147.638 360.162 144.225 365.419C140.811 370.685 141.774 377.676 142.09 379.426C143.809 379.001 150.57 377.043 153.984 371.785C157.398 366.519 156.434 359.528 156.119 357.779Z" fill="#E9562A"/>
<path d="M81.224 287.255C81.7837 287.255 82.2374 286.8 82.2374 286.238C82.2374 285.677 81.7837 285.222 81.224 285.222C80.6644 285.222 80.2107 285.677 80.2107 286.238C80.2107 286.8 80.6644 287.255 81.224 287.255Z" fill="#E9562A"/>
<path d="M96.0253 289.621C96.5849 289.621 97.0386 289.166 97.0386 288.605C97.0386 288.043 96.5849 287.588 96.0253 287.588C95.4656 287.588 95.012 288.043 95.012 288.605C95.012 289.166 95.4656 289.621 96.0253 289.621Z" fill="#E9562A"/>
<path d="M88.4412 289.684L85.541 290.379L85.7341 291.19L88.6343 290.495L88.4412 289.684Z" fill="#E9562A"/>
<path d="M88.4534 289.698L87.9575 290.367L90.3495 292.153L90.8454 291.484L88.4534 289.698Z" fill="#E9562A"/>
<path d="M185.522 370.585L184.974 370.086C134.075 323.575 60.4009 322.175 59.6617 322.167L49.4536 321.992C48.8058 321.984 48.2576 321.567 48.0665 320.95C47.8755 320.325 48.0914 319.684 48.623 319.309L66.6802 309.752L78.2089 267.799C78.4165 267.232 78.9315 266.916 79.4797 266.982C80.0445 267.049 80.4681 267.474 80.5429 268.049C80.6259 268.749 80.7671 269.457 80.9665 270.149C82.4034 275.231 86.872 279.072 92.0799 279.714C97.6781 280.397 102.969 277.623 105.56 272.632C105.826 272.123 106.374 271.865 106.923 271.998C107.463 272.123 107.828 272.582 107.845 273.14L108.426 293.771C113.385 294.962 118.293 296.312 123.028 297.778C143.834 304.236 162.382 313.293 178.138 324.692C181.527 327.141 184.351 330.416 186.311 334.157C190.805 332.066 194.193 328.291 195.431 324C196.694 319.626 195.755 314.926 192.715 310.41C190.605 307.269 189.949 304.186 190.771 301.245C192.35 295.629 198.795 292.154 201.486 290.921C202.092 290.646 202.773 290.621 203.396 290.863C204.285 291.204 204.9 292.004 204.983 292.962C205.074 293.904 204.634 294.795 203.828 295.287C200.971 297.053 197.391 299.986 196.536 303.936C195.988 306.477 196.652 309.152 198.496 311.893C202.981 318.559 202.234 324.142 200.813 327.649C198.737 332.79 193.853 336.79 188.005 338.165C189.509 342.631 189.849 347.414 188.994 352.021L185.522 370.602V370.585ZM79.3468 267.807C79.2554 267.807 79.081 267.841 79.0063 268.049L67.3862 310.318L49.0632 320.017C48.8307 320.192 48.7975 320.492 48.8639 320.709C48.9304 320.925 49.1214 321.159 49.4702 321.167L59.6783 321.342C60.4175 321.35 133.875 322.75 184.982 368.969L188.18 351.855C189.044 347.239 188.662 342.439 187.075 337.981L186.917 337.531L187.383 337.432C193.163 336.215 198.022 332.341 200.057 327.316C201.403 324 202.101 318.701 197.823 312.343C195.846 309.41 195.149 306.511 195.738 303.744C196.652 299.503 200.406 296.412 203.405 294.562C203.945 294.229 204.227 293.654 204.169 293.021C204.111 292.379 203.712 291.854 203.114 291.621C202.699 291.463 202.25 291.479 201.843 291.663C199.825 292.587 193.105 296.02 191.585 301.453C190.83 304.144 191.444 307.002 193.413 309.927C196.594 314.651 197.574 319.592 196.237 324.217C194.899 328.858 191.187 332.907 186.294 335.065L185.937 335.223L185.763 334.874C183.853 331.099 181.053 327.799 177.665 325.35C161.975 314.001 143.51 304.986 122.787 298.553C117.978 297.062 112.978 295.695 107.928 294.487L107.62 294.412L107.022 273.14C107.022 272.882 106.823 272.807 106.748 272.79C106.607 272.757 106.416 272.79 106.308 272.998C103.55 278.298 97.9356 281.256 91.9968 280.522C86.4567 279.839 81.714 275.756 80.1857 270.357C79.9781 269.624 79.8286 268.874 79.7372 268.132C79.704 267.849 79.4714 267.799 79.4049 267.791C79.3966 267.791 79.38 267.791 79.3634 267.791L79.3468 267.807Z" fill="#E9562A"/>
<path d="M90.5348 314.485L72.3697 324.1C71.5308 324.692 71.9378 326.016 72.9594 326.033L97.9022 326.875" fill="#F6CE52"/>
<path d="M97.8857 327.283L72.9429 326.441C72.3033 326.433 71.7551 326.025 71.5641 325.4C71.3731 324.775 71.589 324.133 72.1206 323.758L90.3356 314.118L90.726 314.851L72.5608 324.467C72.3282 324.642 72.295 324.941 72.3615 325.158C72.4279 325.375 72.6189 325.608 72.9678 325.616L97.9106 326.458L97.8857 327.291V327.283Z" fill="#E9562A"/>
<path d="M182.457 351.771L189.318 371.194C189.534 372.202 188.338 372.893 187.574 372.21L168.204 356.287" fill="#F6CE52"/>
<path d="M188.28 372.902C187.931 372.902 187.582 372.777 187.299 372.519L167.938 356.604L168.462 355.962L187.831 371.885C188.097 372.127 188.404 372.085 188.595 371.969C188.786 371.852 188.977 371.61 188.903 371.277L182.05 351.905L182.831 351.63L189.692 371.052C189.841 371.744 189.567 372.369 189.002 372.694C188.77 372.835 188.512 372.902 188.255 372.902H188.28Z" fill="#E9562A"/>
<path d="M308.94 311.16C309.14 311.16 309.289 311.068 309.389 310.91C310.17 308.585 311.308 305.252 312.794 300.928C312.861 300.753 312.803 300.636 312.628 300.57C309.605 299.561 306.449 298.445 303.184 297.228C302.836 297.095 302.728 296.862 302.86 296.512C302.985 296.162 303.209 296.045 303.525 296.162C306.789 297.378 309.937 298.495 312.969 299.503C313.177 299.578 313.318 299.536 313.376 299.361C313.966 297.67 314.888 295.12 316.15 291.704C316.283 291.354 316.524 291.246 316.889 291.388C317.255 291.521 317.371 291.762 317.246 292.112C315.992 295.495 315.07 298.028 314.489 299.711C314.439 299.853 314.489 299.97 314.655 300.07C321.524 302.353 329.298 304.536 337.978 306.627C338.319 306.677 338.452 306.902 338.377 307.31C338.335 307.652 338.119 307.794 337.746 307.727C328.991 305.611 321.167 303.411 314.265 301.111C314.09 301.045 313.966 301.111 313.891 301.328C312.421 305.502 311.333 308.652 310.627 310.768C310.552 310.977 310.627 311.085 310.859 311.093C314.364 311.135 317.936 311.852 321.574 313.243C326.582 315.109 330.171 317.717 332.347 321.075C334.523 324.425 334.922 327.966 333.543 331.699C332.222 335.257 329.739 337.798 326.084 339.331C322.429 340.864 318.011 341.206 312.836 340.339C312.462 340.281 312.313 340.056 312.379 339.665C312.446 339.273 312.686 339.115 313.093 339.181C317.986 339.973 322.139 339.681 325.561 338.298C328.983 336.915 331.3 334.582 332.513 331.307C333.493 328.658 333.46 326.083 332.405 323.592C331.35 321.092 329.431 318.909 326.649 317.034C326.466 316.884 326.3 316.901 326.15 317.084C320.801 322.55 315.054 326.491 308.924 328.908C302.786 331.324 297.977 331.882 294.505 330.582C292.661 329.899 291.431 328.783 290.817 327.241C290.202 325.7 290.26 323.942 291 321.95C292.113 318.951 294.289 316.451 297.52 314.443C300.751 312.435 304.563 311.335 308.949 311.143L308.94 311.16ZM308.866 312.501C308.916 312.36 308.841 312.293 308.641 312.301C304.596 312.543 301.075 313.576 298.085 315.418C295.086 317.259 293.076 319.567 292.038 322.358C291.407 324.067 291.332 325.541 291.83 326.775C292.329 328.008 293.35 328.916 294.912 329.499C296.963 330.266 299.688 330.291 303.076 329.566C303.292 329.524 303.434 329.399 303.508 329.191C305.626 322.4 307.412 316.834 308.866 312.493V312.501ZM310.436 312.251C310.236 312.251 310.112 312.326 310.062 312.468C308.143 318.184 306.374 323.633 304.771 328.833C304.754 328.866 304.771 328.916 304.812 328.966C304.854 329.024 304.912 329.041 304.995 329.033C308.309 328.091 311.723 326.533 315.236 324.367C318.75 322.2 322.064 319.584 325.187 316.501C325.37 316.326 325.353 316.209 325.145 316.126C323.933 315.434 322.62 314.826 321.192 314.293C317.645 312.968 314.065 312.285 310.436 312.243V312.251Z" fill="#E9562A"/>
<path d="M202.524 273.382C184.907 264.899 178.836 283.605 178.362 285.172C177.914 285.147 177.457 285.222 177.017 285.422L171.983 287.73L169.608 288.821L164.574 291.129C164.142 291.329 163.777 291.629 163.511 291.988C162.024 291.321 143.951 283.689 138.809 302.595C133.452 322.325 162.872 374.81 171.776 328.358L200.356 315.251C241.205 338.898 220.897 282.231 202.516 273.382H202.524Z" fill="#F6CE52"/>
<path d="M160.156 347.43C157.672 347.43 154.973 346.08 152.24 343.456C143.51 335.065 135.246 314.085 138.402 302.478C139.955 296.77 142.821 292.887 146.932 290.929C153.635 287.738 161.584 290.721 163.378 291.471C163.661 291.163 164.01 290.913 164.392 290.738L176.834 285.038C177.216 284.863 177.631 284.763 178.047 284.747C178.653 282.889 181.61 274.906 188.404 271.915C192.574 270.074 197.375 270.44 202.69 272.998C213.505 278.206 223.904 298.203 224.519 310.31C224.759 315.151 223.472 318.584 220.781 320.234C216.736 322.717 209.859 321.192 200.323 315.701L172.133 328.624C170.031 339.44 166.676 345.664 162.157 347.105C161.501 347.314 160.828 347.414 160.139 347.414L160.156 347.43ZM153.826 290.313C151.692 290.313 149.424 290.671 147.298 291.679C143.419 293.529 140.695 297.237 139.208 302.694C136.201 313.751 144.333 334.69 152.821 342.856C155.089 345.039 158.511 347.414 161.925 346.322C166.094 344.989 169.367 338.748 171.377 328.266L171.418 328.058L200.39 314.776L200.572 314.885C209.784 320.217 216.628 321.825 220.366 319.534C223.414 317.659 223.871 313.51 223.705 310.36C223.107 298.578 212.641 278.714 202.342 273.757C197.258 271.307 192.682 270.949 188.745 272.682C181.818 275.74 179.043 284.322 178.753 285.288L178.653 285.605L178.321 285.58C177.93 285.555 177.532 285.63 177.175 285.788L164.732 291.488C164.375 291.654 164.059 291.904 163.827 292.221L163.627 292.487L163.328 292.354C162.689 292.071 158.561 290.313 153.81 290.313H153.826Z" fill="#E9562A"/>
<path d="M154.084 311.593C157.336 311.593 159.973 308.949 159.973 305.686C159.973 302.423 157.336 299.778 154.084 299.778C150.832 299.778 148.195 302.423 148.195 305.686C148.195 308.949 150.832 311.593 154.084 311.593Z" fill="#F6CE52"/>
<path d="M154.092 312.01C151.7 312.01 149.408 310.635 148.353 308.319C147.655 306.786 147.589 305.069 148.178 303.486C148.768 301.903 149.931 300.645 151.468 299.945C152.996 299.245 154.707 299.178 156.285 299.77C157.863 300.362 159.117 301.528 159.815 303.07C160.513 304.603 160.579 306.319 159.989 307.902C159.4 309.485 158.237 310.744 156.7 311.443C155.853 311.835 154.964 312.018 154.092 312.018V312.01ZM154.076 300.195C153.303 300.195 152.531 300.362 151.808 300.695C150.479 301.303 149.466 302.395 148.959 303.769C148.452 305.144 148.502 306.636 149.109 307.969C149.715 309.302 150.803 310.319 152.174 310.827C153.544 311.335 155.031 311.285 156.36 310.677C157.689 310.069 158.702 308.977 159.209 307.602C159.715 306.227 159.666 304.736 159.059 303.403C158.453 302.07 157.365 301.053 155.994 300.545C155.371 300.312 154.723 300.195 154.084 300.195H154.076Z" fill="#E9562A"/>
<path d="M193.695 310.319C196.947 310.319 199.584 307.674 199.584 304.411C199.584 301.148 196.947 298.503 193.695 298.503C190.443 298.503 187.806 301.148 187.806 304.411C187.806 307.674 190.443 310.319 193.695 310.319Z" fill="#F6CE52"/>
<path d="M193.703 310.727C191.311 310.727 189.019 309.352 187.964 307.036C187.266 305.502 187.2 303.786 187.789 302.203C188.379 300.62 189.542 299.362 191.079 298.662C194.243 297.212 197.989 298.612 199.426 301.786C200.871 304.953 199.476 308.71 196.311 310.16C195.464 310.552 194.575 310.735 193.703 310.735V310.727ZM193.687 298.92C192.923 298.92 192.158 299.078 191.419 299.42C190.09 300.028 189.077 301.12 188.57 302.495C188.064 303.869 188.113 305.361 188.72 306.694C189.326 308.027 190.414 309.044 191.785 309.552C193.155 310.06 194.642 310.01 195.971 309.402C198.712 308.144 199.924 304.878 198.67 302.128C197.748 300.111 195.763 298.92 193.687 298.92Z" fill="#E9562A"/>
<path d="M171.369 312.568L169.043 313.635L167.98 311.302C167.548 310.36 166.426 309.944 165.488 310.369C164.549 310.794 164.134 311.927 164.558 312.868L165.621 315.201L163.295 316.268C162.357 316.701 161.941 317.826 162.365 318.767C162.788 319.709 163.918 320.126 164.857 319.701L167.182 318.634L168.246 320.967C168.677 321.909 169.799 322.325 170.737 321.9C171.676 321.475 172.091 320.342 171.668 319.401L170.604 317.068L172.93 316.001C173.869 315.568 174.284 314.443 173.86 313.502C173.437 312.56 172.307 312.143 171.369 312.568Z" fill="#F6CE52"/>
<path d="M169.965 322.484C169.093 322.484 168.262 321.984 167.872 321.142L166.983 319.184L165.031 320.076C163.877 320.6 162.514 320.092 161.991 318.942C161.468 317.784 161.975 316.418 163.121 315.893L165.073 315.001L164.184 313.043C163.661 311.885 164.167 310.518 165.314 309.994C165.87 309.735 166.493 309.719 167.066 309.935C167.639 310.152 168.096 310.577 168.354 311.135L169.242 313.093L171.194 312.202C172.349 311.677 173.711 312.185 174.234 313.335C174.757 314.493 174.251 315.859 173.105 316.384L171.153 317.276L172.041 319.234C172.299 319.792 172.316 320.417 172.1 320.992C171.884 321.567 171.46 322.025 170.904 322.284C170.596 322.425 170.272 322.492 169.957 322.492L169.965 322.484ZM167.39 318.084L168.628 320.8C168.96 321.534 169.832 321.859 170.571 321.525C170.928 321.367 171.194 321.067 171.335 320.7C171.477 320.334 171.46 319.934 171.294 319.576L170.056 316.859L172.764 315.618C173.495 315.284 173.819 314.41 173.487 313.668C173.154 312.935 172.282 312.61 171.543 312.943L168.835 314.185L167.598 311.468C167.44 311.11 167.141 310.843 166.775 310.702C166.41 310.56 166.011 310.577 165.654 310.743C164.923 311.077 164.599 311.952 164.932 312.693L166.169 315.409L163.461 316.651C162.73 316.984 162.407 317.859 162.739 318.601C163.071 319.334 163.943 319.659 164.682 319.326L167.39 318.084Z" fill="#E9562A"/>
<path d="M194.152 284.28C195.221 284.28 196.087 283.411 196.087 282.339C196.087 281.267 195.221 280.397 194.152 280.397C193.083 280.397 192.217 281.267 192.217 282.339C192.217 283.411 193.083 284.28 194.152 284.28Z" fill="#F6CE52"/>
<path d="M194.16 284.697C193.272 284.697 192.416 284.189 192.026 283.322C191.768 282.747 191.743 282.114 191.959 281.522C192.175 280.931 192.615 280.464 193.18 280.206C193.753 279.947 194.385 279.922 194.974 280.139C195.564 280.356 196.029 280.797 196.287 281.364C196.544 281.939 196.569 282.572 196.353 283.164C196.137 283.755 195.697 284.222 195.132 284.48C194.816 284.622 194.484 284.697 194.16 284.697ZM194.152 280.822C193.936 280.822 193.72 280.872 193.521 280.964C192.757 281.314 192.424 282.214 192.773 282.98C193.122 283.747 194.019 284.08 194.783 283.73C195.547 283.38 195.88 282.48 195.531 281.714C195.365 281.347 195.057 281.064 194.684 280.922C194.509 280.856 194.335 280.822 194.152 280.822Z" fill="#E9562A"/>
<path d="M191.693 290.388C192.762 290.388 193.629 289.519 193.629 288.447C193.629 287.374 192.762 286.505 191.693 286.505C190.625 286.505 189.758 287.374 189.758 288.447C189.758 289.519 190.625 290.388 191.693 290.388Z" fill="#F6CE52"/>
<path d="M191.693 290.796C190.805 290.796 189.949 290.288 189.559 289.421C189.019 288.238 189.542 286.838 190.722 286.305C191.901 285.763 193.296 286.288 193.828 287.472C194.086 288.046 194.11 288.68 193.894 289.271C193.679 289.863 193.238 290.33 192.674 290.588C192.358 290.729 192.026 290.804 191.702 290.804L191.693 290.796ZM191.685 286.922C191.477 286.922 191.261 286.963 191.054 287.063C190.29 287.413 189.957 288.313 190.306 289.08C190.655 289.846 191.552 290.18 192.316 289.83C192.682 289.663 192.964 289.355 193.105 288.98C193.247 288.605 193.23 288.188 193.064 287.813C192.806 287.255 192.258 286.922 191.685 286.922Z" fill="#E9562A"/>
<path d="M200.539 286.805C201.608 286.805 202.475 285.936 202.475 284.864C202.475 283.791 201.608 282.922 200.539 282.922C199.47 282.922 198.604 283.791 198.604 284.864C198.604 285.936 199.47 286.805 200.539 286.805Z" fill="#F6CE52"/>
<path d="M200.547 287.213C199.659 287.213 198.803 286.705 198.413 285.838C198.155 285.263 198.13 284.63 198.346 284.039C198.562 283.447 199.003 282.98 199.567 282.722C200.14 282.464 200.78 282.439 201.361 282.655C201.951 282.872 202.416 283.314 202.674 283.88C202.931 284.455 202.956 285.088 202.74 285.68C202.524 286.272 202.084 286.738 201.519 286.997C201.204 287.138 200.871 287.213 200.547 287.213ZM200.539 283.339C200.323 283.339 200.107 283.389 199.908 283.48C199.542 283.647 199.26 283.955 199.119 284.33C198.978 284.714 198.994 285.122 199.16 285.497C199.509 286.263 200.406 286.597 201.17 286.247C201.536 286.08 201.818 285.772 201.96 285.397C202.101 285.013 202.084 284.605 201.918 284.23C201.752 283.864 201.445 283.58 201.071 283.439C200.896 283.372 200.722 283.339 200.539 283.339Z" fill="#E9562A"/>
<path d="M198.081 292.904C199.149 292.904 200.016 292.035 200.016 290.963C200.016 289.89 199.149 289.021 198.081 289.021C197.012 289.021 196.145 289.89 196.145 290.963C196.145 292.035 197.012 292.904 198.081 292.904Z" fill="#F6CE52"/>
<path d="M198.081 293.321C197.192 293.321 196.336 292.813 195.946 291.946C195.406 290.763 195.929 289.363 197.109 288.83C198.288 288.288 199.684 288.813 200.215 289.996C200.755 291.179 200.232 292.579 199.052 293.112C198.737 293.254 198.405 293.329 198.081 293.329V293.321ZM198.081 289.446C197.873 289.446 197.657 289.488 197.449 289.58C196.685 289.93 196.353 290.829 196.702 291.596C197.051 292.363 197.948 292.696 198.712 292.346C199.476 291.996 199.808 291.096 199.459 290.33C199.202 289.771 198.654 289.438 198.081 289.438V289.446Z" fill="#E9562A"/>
<path d="M184.244 312.381L180.354 314.164C180.091 314.285 179.975 314.596 180.095 314.86C180.215 315.124 180.526 315.24 180.789 315.119L184.679 313.336C184.942 313.215 185.058 312.904 184.938 312.64C184.818 312.376 184.507 312.26 184.244 312.381Z" fill="#F6CE52"/>
<path d="M180.58 315.585C180.472 315.585 180.356 315.568 180.248 315.526C180.015 315.443 179.824 315.268 179.724 315.035C179.625 314.81 179.608 314.551 179.699 314.318C179.791 314.085 179.957 313.893 180.189 313.793L184.085 312.01C184.309 311.91 184.567 311.893 184.799 311.985C185.032 312.068 185.223 312.243 185.323 312.477C185.539 312.952 185.323 313.51 184.857 313.726L180.962 315.51C180.837 315.568 180.704 315.593 180.572 315.593L180.58 315.585ZM184.426 312.768L180.53 314.551C180.48 314.576 180.455 314.651 180.48 314.693L180.621 314.743L184.517 312.96C184.567 312.935 184.592 312.868 184.567 312.818L184.426 312.768Z" fill="#E9562A"/>
<path d="M206.777 432.594L125.021 457.799C122.787 458.491 120.52 457.332 119.971 455.216L106.374 403.389C105.818 401.273 107.18 398.998 109.414 398.307L191.17 373.102C193.404 372.41 195.672 373.568 196.22 375.685L209.817 427.511C210.373 429.628 209.011 431.902 206.777 432.594Z" fill="#F6CE52"/>
<path d="M123.726 458.416C122.953 458.416 122.206 458.224 121.541 457.857C120.553 457.307 119.855 456.408 119.564 455.324L105.967 403.498C105.361 401.173 106.848 398.665 109.29 397.915L191.045 372.71C192.275 372.335 193.587 372.46 194.65 373.052C195.639 373.602 196.336 374.502 196.627 375.585L210.224 427.411C210.83 429.736 209.344 432.244 206.902 432.994L125.146 458.199C124.681 458.341 124.199 458.416 123.726 458.416ZM192.466 373.327C192.075 373.327 191.677 373.385 191.286 373.502L109.531 398.707C107.512 399.332 106.266 401.381 106.765 403.281L120.362 455.108C120.586 455.974 121.151 456.691 121.932 457.124C122.804 457.607 123.875 457.707 124.888 457.399L206.644 432.194C208.662 431.569 209.908 429.519 209.41 427.62L195.813 375.793C195.589 374.927 195.024 374.21 194.243 373.777C193.712 373.477 193.097 373.327 192.466 373.327Z" fill="#E9562A"/>
<path d="M166.011 444.576C166.011 444.576 176.834 436.927 187.731 432.761C190.58 431.669 197.341 429.644 201.636 428.395C203.72 427.786 204.991 425.628 204.46 423.612L190.846 371.844C190.356 369.969 188.255 369.077 186.436 369.952L150.72 387.108L166.011 444.576Z" fill="#F6CE52"/>
<path d="M165.762 445.259L150.23 386.883L186.261 369.577C187.275 369.086 188.421 369.069 189.409 369.527C190.331 369.952 191.004 370.76 191.261 371.735L204.875 423.503C205.465 425.745 204.069 428.12 201.76 428.794C197.823 429.944 190.78 432.044 187.889 433.152C177.166 437.252 166.368 444.842 166.261 444.926L165.77 445.267L165.762 445.259ZM151.21 387.342L166.261 443.901C168.495 442.368 178.063 436.01 187.582 432.369C190.348 431.311 196.685 429.403 201.519 427.995C203.396 427.445 204.534 425.528 204.061 423.72L190.447 371.952C190.248 371.202 189.758 370.61 189.052 370.285C188.296 369.935 187.407 369.952 186.618 370.335L151.21 387.35V387.342Z" fill="#E9562A"/>
<path d="M112.081 393.358C110.104 393.658 108.758 395.616 109.248 397.49L122.862 449.259C123.393 451.275 125.52 452.383 127.588 451.708C131.849 450.325 138.568 448.184 141.525 447.476C152.822 444.793 165.737 445.109 165.737 445.109L150.778 387.542L112.081 393.366V393.358Z" fill="#F6CE52"/>
<path d="M126.35 452.316C125.661 452.316 124.988 452.15 124.373 451.808C123.418 451.283 122.737 450.408 122.455 449.35L108.841 397.582C108.584 396.599 108.767 395.532 109.348 394.649C109.954 393.724 110.926 393.099 112.014 392.933L151.085 387.05L166.277 445.517L165.729 445.501C165.596 445.501 152.73 445.217 141.625 447.859C138.635 448.567 131.625 450.808 127.721 452.083C127.264 452.233 126.807 452.3 126.359 452.3L126.35 452.316ZM150.471 388L112.139 393.766C111.283 393.891 110.519 394.391 110.046 395.116C109.597 395.799 109.456 396.624 109.647 397.374L123.26 449.142C123.476 449.975 124.016 450.667 124.772 451.075C125.586 451.517 126.533 451.6 127.455 451.3C132.248 449.742 138.56 447.742 141.426 447.059C151.326 444.701 162.598 444.651 165.189 444.676L150.463 388H150.471Z" fill="#E9562A"/>
<path d="M164.483 375.351C153.112 383 151.127 386.45 150.787 387.533C149.964 386.8 146.6 385.009 133.219 385.009C124.822 385.009 118.933 386.642 115.661 387.891C113.925 388.558 112.945 390.424 113.401 392.149L126.624 442.443C127.04 444.034 128.601 445.026 130.287 444.734C132.837 444.292 137.638 443.692 146.634 443.051C156.509 442.343 163.993 444.542 165.746 445.109C165.746 445.109 165.862 445.276 165.945 445.176C166.061 445.217 166.144 445.242 166.144 445.242C166.144 445.242 172.581 437.377 181.319 432.336C188.487 428.195 192.74 425.978 195.257 424.787C197.267 423.837 198.338 421.612 197.798 419.554L185.074 371.16C184.442 368.752 181.951 367.419 179.45 368.127C175.979 369.111 170.746 371.144 164.483 375.351Z" fill="#F6CE52"/>
<path d="M166.269 445.726L165.937 445.609H165.862C165.712 445.609 165.588 445.542 165.505 445.467C163.37 444.776 156.169 442.784 146.65 443.459C137.364 444.126 132.663 444.734 130.346 445.134C128.46 445.459 126.691 444.342 126.217 442.543L112.994 392.249C112.488 390.316 113.592 388.233 115.511 387.5C118.991 386.175 124.889 384.592 133.203 384.592H133.219C144.79 384.592 149.042 385.908 150.604 386.892C151.385 385.334 154.2 381.767 164.25 375.01C170.654 370.702 175.987 368.677 179.342 367.728C180.705 367.344 182.1 367.503 183.271 368.177C184.368 368.811 185.148 369.827 185.472 371.06L198.197 419.454C198.795 421.72 197.632 424.128 195.431 425.17C192.267 426.67 187.582 429.211 181.519 432.711C172.947 437.66 166.518 445.442 166.46 445.517L166.277 445.742L166.269 445.726ZM166.003 444.751C167.133 443.426 173.221 436.518 181.103 431.969C187.183 428.461 191.884 425.912 195.074 424.403C196.91 423.529 197.89 421.537 197.391 419.654L184.667 371.26C184.401 370.252 183.753 369.411 182.856 368.886C181.876 368.327 180.713 368.194 179.567 368.519C176.278 369.452 171.028 371.452 164.716 375.693C153.212 383.434 151.451 386.808 151.185 387.658L150.994 388.275L150.512 387.85C149.873 387.283 146.75 385.434 133.219 385.425H133.203C125.013 385.425 119.224 386.975 115.81 388.283C114.282 388.866 113.401 390.516 113.8 392.041L127.023 442.334C127.389 443.718 128.759 444.567 130.213 444.317C133.56 443.743 139.225 443.159 146.6 442.634C156.31 441.943 163.652 444.001 165.795 444.692L166.003 444.759V444.751Z" fill="#E9562A"/>
<path d="M151.189 387.416L150.386 387.629L165.345 444.508L166.148 444.296L151.189 387.416Z" fill="#E9562A"/>
<path d="M133.693 436.568C131.799 436.568 130.154 435.319 129.656 433.419L120.802 399.765C120.179 397.382 121.599 394.866 123.983 394.149C127.172 393.191 130.761 392.733 134.648 392.766C141.558 392.841 144.723 393.582 146.16 394.199C146.691 394.424 147.082 394.882 147.231 395.466L157.356 433.977C157.539 434.669 157.348 435.402 156.841 435.927C156.351 436.435 155.654 436.643 154.981 436.493C152.622 435.944 148.876 435.352 144.432 435.635C140.088 435.91 136.666 436.21 134.282 436.535C134.083 436.56 133.892 436.577 133.693 436.577V436.568ZM134.158 393.591C130.536 393.591 127.197 394.041 124.216 394.941C122.264 395.524 121.093 397.59 121.599 399.548L130.453 433.202C130.894 434.885 132.455 435.935 134.166 435.702C136.575 435.377 140.013 435.069 144.382 434.794C148.926 434.51 152.763 435.11 155.172 435.669C155.554 435.76 155.961 435.635 156.252 435.335C156.551 435.019 156.667 434.585 156.559 434.177L146.434 395.665C146.351 395.332 146.127 395.074 145.836 394.949C144.465 394.366 141.409 393.657 134.64 393.582C134.482 393.582 134.316 393.582 134.158 393.582V393.591Z" fill="#E9562A"/>
<path d="M149.018 406.848L123.842 407.76L123.872 408.593L149.048 407.68L149.018 406.848Z" fill="#E9562A"/>
<path d="M129.402 393.36L128.594 393.554L132.04 408.019L132.848 407.826L129.402 393.36Z" fill="#E9562A"/>
<path d="M154.273 422.191L127.834 423.669L127.88 424.501L154.319 423.023L154.273 422.191Z" fill="#E9562A"/>
<path d="M145.005 423.503L140.772 434.921L141.551 435.211L145.784 423.794L145.005 423.503Z" fill="#E9562A"/>
<path d="M168.362 432.269C168.196 432.269 168.038 432.244 167.872 432.202C167.199 432.027 166.692 431.519 166.51 430.836L156.385 392.324C156.235 391.749 156.335 391.141 156.675 390.666C157.597 389.325 159.923 386.892 165.754 382.884C169.035 380.626 172.307 378.976 175.48 377.968C176.643 377.601 177.856 377.71 178.894 378.284C179.915 378.851 180.646 379.793 180.954 380.951L189.808 414.605C190.356 416.679 189.351 418.887 187.416 419.846C185.231 420.929 182.183 422.629 178.346 424.878C174.425 427.186 171.526 429.828 169.79 431.644C169.4 432.052 168.893 432.269 168.362 432.269ZM176.834 378.584C176.468 378.584 176.095 378.643 175.729 378.759C172.631 379.743 169.433 381.359 166.219 383.575C160.496 387.517 158.237 389.866 157.356 391.141C157.165 391.424 157.099 391.783 157.19 392.116L167.315 430.628C167.415 431.011 167.706 431.303 168.079 431.403C168.478 431.502 168.893 431.386 169.184 431.069C170.962 429.219 173.919 426.52 177.922 424.162C181.768 421.895 184.841 420.196 187.042 419.096C188.62 418.304 189.451 416.504 189.002 414.813L180.148 381.159C179.907 380.226 179.317 379.468 178.495 379.018C177.98 378.734 177.415 378.593 176.834 378.593V378.584Z" fill="#E9562A"/>
<path d="M182.242 389.455L160.401 403.056L160.839 403.764L182.68 390.163L182.242 389.455Z" fill="#E9562A"/>
<path d="M186.553 405.274L163.373 419.119L163.798 419.835L186.978 405.99L186.553 405.274Z" fill="#E9562A"/>
<path d="M178.005 407.814C177.515 407.814 177.017 407.672 176.527 407.406C175.256 406.697 174.209 405.173 173.719 403.314C172.913 400.248 173.844 397.365 175.837 396.749C176.552 396.532 177.324 396.632 178.071 397.049C179.342 397.757 180.389 399.282 180.879 401.14C181.685 404.206 180.754 407.089 178.761 407.706C178.512 407.781 178.263 407.822 178.005 407.822V407.814ZM176.593 397.465C176.419 397.465 176.252 397.49 176.086 397.54C174.575 398.007 173.852 400.556 174.525 403.098C174.957 404.739 175.854 406.072 176.934 406.672C177.473 406.972 178.022 407.056 178.52 406.897C180.032 406.431 180.754 403.889 180.082 401.34C179.65 399.698 178.753 398.365 177.673 397.765C177.307 397.565 176.942 397.457 176.593 397.457V397.465Z" fill="#E9562A"/>
<path d="M167.838 414.505C167.34 414.505 166.842 414.371 166.385 414.121C165.529 413.647 164.882 412.78 164.607 411.738C164.092 409.764 165.048 407.739 166.75 407.214C167.506 406.981 168.32 407.072 169.043 407.472C169.898 407.947 170.546 408.814 170.82 409.855C171.335 411.822 170.38 413.855 168.677 414.38C168.403 414.463 168.121 414.505 167.838 414.505ZM167.581 407.914C167.382 407.914 167.182 407.947 166.991 408.006C165.712 408.397 164.998 409.98 165.405 411.522C165.621 412.338 166.119 413.022 166.784 413.388C167.307 413.68 167.888 413.747 168.428 413.58C169.707 413.188 170.422 411.605 170.015 410.064C169.799 409.247 169.3 408.564 168.636 408.197C168.304 408.014 167.938 407.914 167.581 407.914Z" fill="#E9562A"/>
<path d="M142.987 404.931C142.547 404.931 142.107 404.806 141.675 404.564C140.62 403.973 139.748 402.723 139.357 401.223C138.693 398.682 139.524 396.274 141.251 395.74C141.899 395.541 142.58 395.632 143.245 395.999C144.299 396.59 145.172 397.84 145.562 399.34C146.226 401.881 145.396 404.289 143.668 404.823C143.444 404.889 143.22 404.923 142.987 404.923V404.931ZM141.924 396.482C141.774 396.482 141.633 396.507 141.492 396.549C140.23 396.94 139.623 398.982 140.155 401.023C140.495 402.306 141.21 403.364 142.073 403.848C142.53 404.106 142.995 404.173 143.419 404.039C144.682 403.648 145.288 401.606 144.756 399.565C144.416 398.282 143.701 397.224 142.838 396.74C142.53 396.574 142.223 396.482 141.924 396.482Z" fill="#E9562A"/>
<path d="M132.646 421.404L129.88 410.872L137.406 410.405L139.831 420.929L132.646 421.404ZM130.935 411.647L133.269 420.529L138.793 420.162L136.749 411.28L130.935 411.638V411.647Z" fill="#E9562A"/>
<path d="M132.007 209.298C135.553 209.298 138.427 206.414 138.427 202.857C138.427 199.3 135.553 196.417 132.007 196.417C128.461 196.417 125.586 199.3 125.586 202.857C125.586 206.414 128.461 209.298 132.007 209.298Z" fill="#EA572A"/>
<path d="M132.007 209.715C128.236 209.715 125.171 206.64 125.171 202.857C125.171 199.075 128.236 196 132.007 196C135.778 196 138.843 199.075 138.843 202.857C138.843 206.64 135.778 209.715 132.007 209.715ZM132.007 196.833C128.693 196.833 126.001 199.533 126.001 202.857C126.001 206.182 128.693 208.882 132.007 208.882C135.321 208.882 138.012 206.182 138.012 202.857C138.012 199.533 135.321 196.833 132.007 196.833Z" fill="#EA572A"/>
<path d="M296.473 274.748C292.428 274.748 289.139 271.448 289.139 267.391C289.139 263.333 292.428 260.033 296.473 260.033C300.518 260.033 303.807 263.333 303.807 267.391C303.807 271.448 300.518 274.748 296.473 274.748ZM296.473 260.858C292.885 260.858 289.97 263.783 289.97 267.382C289.97 270.982 292.885 273.906 296.473 273.906C300.061 273.906 302.977 270.982 302.977 267.382C302.977 263.783 300.061 260.858 296.473 260.858Z" fill="#E9562A"/>
</g>
<path d="M162.143 169.12C162.454 162.533 154.204 160.215 153.189 154.2C149.304 131.175 180.096 115.011 179.905 89.7987C179.53 41.0416 139.551 1.19982 90.7717 1.00073C40.7636 0.800801 0.353276 41.5648 1.00784 91.5422C1.64295 140.013 41.4046 179.512 89.8986 179.835C104.676 179.93 118.751 163.7 130.92 170.213C138.238 174.128 139.267 184.726 147.911 183.961C155.624 183.283 161.77 176.854 162.138 169.126L162.143 169.12Z" fill="#EA572A"/>
<path d="M188.981 131.554C190.793 133.07 193.49 132.831 195.005 131.021C196.519 129.211 196.278 126.514 194.466 124.999C192.654 123.483 189.957 123.722 188.442 125.532C186.927 127.342 187.169 130.038 188.981 131.554Z" fill="#EA572A"/>
<path d="M162.143 169.12C162.454 162.533 154.204 160.215 153.189 154.2C149.304 131.175 180.096 115.011 179.905 89.7987C179.53 41.0416 139.551 1.19982 90.7717 1.00073C40.7636 0.800801 0.353276 41.5648 1.00784 91.5422C1.64295 140.013 41.4046 179.512 89.8986 179.835C104.676 179.93 118.751 163.7 130.92 170.213C138.238 174.128 139.267 184.726 147.911 183.961C155.624 183.283 161.77 176.854 162.138 169.126L162.143 169.12Z" stroke="#EA572A" stroke-miterlimit="10"/>
<path d="M188.981 131.554C190.793 133.07 193.49 132.831 195.005 131.021C196.519 129.211 196.278 126.514 194.466 124.999C192.654 123.483 189.957 123.722 188.442 125.532C186.927 127.342 187.169 130.038 188.981 131.554Z" stroke="#EA572A" stroke-miterlimit="10"/>
<path d="M12.444 86.5C11.5853 86.5 11.156 86.052 11.156 85.156V68.244C11.156 67.74 11.2773 67.3947 11.52 67.208C11.7813 67.0027 12.164 66.9 12.668 66.9C13.3587 66.9 13.8813 67.1987 14.236 67.796L19.808 76.616L25.324 67.824C25.5293 67.4507 25.772 67.208 26.052 67.096C26.3507 66.9653 26.7147 66.9 27.144 66.9C28.04 66.9 28.488 67.348 28.488 68.244V85.156C28.488 86.052 28.0493 86.5 27.172 86.5C26.2947 86.5 25.856 86.052 25.856 85.156V71.352L21.068 79.08C20.7507 79.6773 20.3307 79.976 19.808 79.976C19.304 79.976 18.8747 79.6773 18.52 79.08L13.732 71.352V85.156C13.732 86.052 13.3027 86.5 12.444 86.5ZM38.2169 86.808C36.9476 86.808 35.8276 86.5373 34.8569 85.996C33.8862 85.4547 33.1302 84.6613 32.5889 83.616C32.0476 82.552 31.7769 81.2733 31.7769 79.78C31.7769 78.3427 32.0476 77.1013 32.5889 76.056C33.1302 74.992 33.8676 74.1707 34.8009 73.592C35.7529 73.0133 36.8449 72.724 38.0769 72.724C39.3089 72.724 40.3542 73.0227 41.2129 73.62C42.0902 74.1987 42.7529 74.9453 43.2009 75.86C43.6676 76.7747 43.9009 77.7173 43.9009 78.688C43.9009 79.2293 43.7889 79.5933 43.5649 79.78C43.3409 79.948 43.0142 80.032 42.5849 80.032H34.2409C34.2782 81.5253 34.6516 82.664 35.3609 83.448C36.0889 84.2133 37.0502 84.596 38.2449 84.596C39.6636 84.596 40.7369 84.0267 41.4649 82.888C41.7636 82.5707 42.0436 82.3653 42.3049 82.272C42.5662 82.16 42.8462 82.2067 43.1449 82.412C43.4622 82.6173 43.6396 82.8787 43.6769 83.196C43.7329 83.5133 43.6116 83.8587 43.3129 84.232C42.6969 85.1093 41.9596 85.7627 41.1009 86.192C40.2609 86.6027 39.2996 86.808 38.2169 86.808ZM34.3809 78.016H41.4369C41.2876 77.0453 40.9142 76.2613 40.3169 75.664C39.7196 75.0667 38.9636 74.768 38.0489 74.768C37.0782 74.768 36.2756 75.048 35.6409 75.608C35.0062 76.1493 34.5862 76.952 34.3809 78.016ZM48.3938 86.5C47.5538 86.5 47.1338 86.052 47.1338 85.156V74.376C47.1338 73.4987 47.5165 73.06 48.2818 73.06C49.0658 73.06 49.4671 73.284 49.4858 73.732L49.5418 74.796C49.9338 74.236 50.4565 73.7507 51.1098 73.34C51.7818 72.9293 52.5471 72.724 53.4058 72.724C54.8245 72.724 55.9725 73.1813 56.8498 74.096C57.7458 74.992 58.1938 76.2987 58.1938 78.016V85.156C58.1938 86.052 57.7738 86.5 56.9338 86.5C56.1125 86.5 55.7018 86.052 55.7018 85.156V78.548C55.7018 77.372 55.4405 76.4947 54.9178 75.916C54.3951 75.3187 53.7138 75.02 52.8738 75.02C51.9218 75.02 51.1471 75.3373 50.5498 75.972C49.9525 76.588 49.6538 77.4187 49.6538 78.464V85.156C49.6538 86.052 49.2338 86.5 48.3938 86.5ZM67.3855 92.296C65.2948 92.296 63.6148 91.624 62.3455 90.28C62.0468 89.9627 61.9255 89.6453 61.9815 89.328C62.0375 89.0107 62.2335 88.7493 62.5695 88.544C62.8868 88.32 63.1761 88.2453 63.4375 88.32C63.7175 88.3947 64.0161 88.572 64.3335 88.852C65.1175 89.5987 66.1348 89.972 67.3855 89.972C68.5988 89.972 69.5135 89.58 70.1295 88.796C70.7455 88.0307 71.0535 86.836 71.0535 85.212V83.728C70.6055 84.288 70.0548 84.7267 69.4015 85.044C68.7668 85.3613 68.0575 85.52 67.2735 85.52C66.1161 85.52 65.0801 85.268 64.1655 84.764C63.2508 84.26 62.5321 83.532 62.0095 82.58C61.5055 81.6093 61.2535 80.452 61.2535 79.108C61.2535 77.7453 61.5055 76.5973 62.0095 75.664C62.5321 74.712 63.2508 73.984 64.1655 73.48C65.0801 72.976 66.1161 72.724 67.2735 72.724C68.0948 72.724 68.8695 72.9107 69.5975 73.284C70.3255 73.6573 70.9135 74.2267 71.3615 74.992V74.068C71.3615 73.6947 71.4548 73.4333 71.6415 73.284C71.8281 73.1347 72.0988 73.06 72.4535 73.06C73.1815 73.06 73.5455 73.4987 73.5455 74.376V85.212C73.5455 87.5267 73.0135 89.2813 71.9495 90.476C70.9041 91.6893 69.3828 92.296 67.3855 92.296ZM67.4415 83.308C68.5428 83.308 69.4481 82.9253 70.1575 82.16C70.8668 81.3947 71.2215 80.3773 71.2215 79.108C71.2215 77.8387 70.8668 76.8307 70.1575 76.084C69.4481 75.3373 68.5428 74.964 67.4415 74.964C66.3588 74.964 65.4721 75.3373 64.7815 76.084C64.1095 76.8307 63.7735 77.8387 63.7735 79.108C63.7735 80.3773 64.1095 81.3947 64.7815 82.16C65.4721 82.9253 66.3588 83.308 67.4415 83.308ZM85.6653 86.92C83.892 86.92 82.324 86.5 80.9613 85.66C79.5986 84.82 78.5253 83.6347 77.7413 82.104C76.976 80.5733 76.5933 78.772 76.5933 76.7C76.5933 74.628 76.976 72.8267 77.7413 71.296C78.5253 69.7467 79.5986 68.552 80.9613 67.712C82.324 66.8533 83.892 66.424 85.6653 66.424C87.028 66.424 88.2693 66.676 89.3893 67.18C90.5093 67.684 91.4706 68.4027 92.2733 69.336C92.572 69.6533 92.6653 69.98 92.5533 70.316C92.46 70.6333 92.264 70.8947 91.9653 71.1L91.8533 71.156C91.648 71.2867 91.368 71.3427 91.0133 71.324C90.6773 71.2867 90.36 71.128 90.0613 70.848C88.96 69.5973 87.4946 68.972 85.6653 68.972C84.396 68.972 83.276 69.2893 82.3053 69.924C81.3533 70.5587 80.6066 71.4547 80.0653 72.612C79.524 73.7507 79.2533 75.1133 79.2533 76.7C79.2533 78.268 79.524 79.6307 80.0653 80.788C80.6066 81.9267 81.3533 82.8133 82.3053 83.448C83.276 84.0827 84.396 84.4 85.6653 84.4C87.4573 84.4 88.9226 83.7747 90.0613 82.524C90.36 82.244 90.6586 82.0853 90.9573 82.048C91.2746 82.0107 91.5733 82.0667 91.8533 82.216L91.9093 82.244C92.2266 82.412 92.4413 82.664 92.5533 83C92.6653 83.336 92.5813 83.6627 92.3013 83.98C91.4986 84.9133 90.528 85.6413 89.3893 86.164C88.2693 86.668 87.028 86.92 85.6653 86.92ZM97.3665 86.5C96.5265 86.5 96.1065 86.052 96.1065 85.156V67.74C96.1065 66.8627 96.5265 66.424 97.3665 66.424C98.2065 66.424 98.6265 66.8627 98.6265 67.74V74.796C98.9625 74.236 99.4571 73.7507 100.11 73.34C100.764 72.9293 101.52 72.724 102.378 72.724C103.797 72.724 104.945 73.1813 105.822 74.096C106.718 74.992 107.166 76.2987 107.166 78.016V85.156C107.166 86.052 106.746 86.5 105.906 86.5C105.085 86.5 104.674 86.052 104.674 85.156V78.548C104.674 77.372 104.413 76.4947 103.89 75.916C103.368 75.3187 102.686 75.02 101.846 75.02C100.894 75.02 100.12 75.3373 99.5225 75.972C98.9251 76.588 98.6265 77.4187 98.6265 78.464V85.156C98.6265 86.052 98.2065 86.5 97.3665 86.5ZM112.662 86.5C111.822 86.5 111.402 86.052 111.402 85.156V74.376C111.402 73.4987 111.822 73.06 112.662 73.06C113.483 73.06 113.894 73.4987 113.894 74.376V85.156C113.894 86.052 113.483 86.5 112.662 86.5ZM112.634 70.54C112.167 70.54 111.766 70.3813 111.43 70.064C111.113 69.728 110.954 69.3267 110.954 68.86C110.954 68.3933 111.113 68.0013 111.43 67.684C111.766 67.348 112.167 67.18 112.634 67.18C113.082 67.18 113.465 67.348 113.782 67.684C114.118 68.0013 114.286 68.3933 114.286 68.86C114.286 69.3267 114.118 69.728 113.782 70.064C113.465 70.3813 113.082 70.54 112.634 70.54ZM123.776 86.808C122.506 86.808 121.386 86.5373 120.416 85.996C119.445 85.4547 118.689 84.6613 118.148 83.616C117.606 82.552 117.336 81.2733 117.336 79.78C117.336 78.3427 117.606 77.1013 118.148 76.056C118.689 74.992 119.426 74.1707 120.36 73.592C121.312 73.0133 122.404 72.724 123.636 72.724C124.868 72.724 125.913 73.0227 126.772 73.62C127.649 74.1987 128.312 74.9453 128.76 75.86C129.226 76.7747 129.46 77.7173 129.46 78.688C129.46 79.2293 129.348 79.5933 129.124 79.78C128.9 79.948 128.573 80.032 128.144 80.032H119.8C119.837 81.5253 120.21 82.664 120.92 83.448C121.648 84.2133 122.609 84.596 123.804 84.596C125.222 84.596 126.296 84.0267 127.024 82.888C127.322 82.5707 127.602 82.3653 127.864 82.272C128.125 82.16 128.405 82.2067 128.704 82.412C129.021 82.6173 129.198 82.8787 129.236 83.196C129.292 83.5133 129.17 83.8587 128.872 84.232C128.256 85.1093 127.518 85.7627 126.66 86.192C125.82 86.6027 124.858 86.808 123.776 86.808ZM119.94 78.016H126.996C126.846 77.0453 126.473 76.2613 125.876 75.664C125.278 75.0667 124.522 74.768 123.608 74.768C122.637 74.768 121.834 75.048 121.2 75.608C120.565 76.1493 120.145 76.952 119.94 78.016ZM133.952 86.5C133.112 86.5 132.692 86.052 132.692 85.156V67.74C132.692 66.8627 133.112 66.424 133.952 66.424C134.792 66.424 135.212 66.8627 135.212 67.74V74.796C135.548 74.236 136.043 73.7507 136.696 73.34C137.35 72.9293 138.106 72.724 138.964 72.724C140.383 72.724 141.531 73.1813 142.408 74.096C143.304 74.992 143.752 76.2987 143.752 78.016V85.156C143.752 86.052 143.332 86.5 142.492 86.5C141.671 86.5 141.26 86.052 141.26 85.156V78.548C141.26 77.372 140.999 76.4947 140.476 75.916C139.954 75.3187 139.272 75.02 138.432 75.02C137.48 75.02 136.706 75.3373 136.108 75.972C135.511 76.588 135.212 77.4187 135.212 78.464V85.156C135.212 86.052 134.792 86.5 133.952 86.5ZM148.372 73.592C147.999 73.7973 147.682 73.8813 147.42 73.844C147.159 73.788 146.972 73.6573 146.86 73.452C146.73 73.2467 146.748 73.06 146.916 72.892C147.103 72.7053 147.374 72.4907 147.728 72.248C148.792 71.632 149.324 70.8293 149.324 69.84C149.324 69.672 149.306 69.5227 149.268 69.392C149.231 69.2427 149.194 69.1307 149.156 69.056C149.026 69.2987 148.83 69.5133 148.568 69.7C148.307 69.868 148.027 69.952 147.728 69.952C147.262 69.952 146.86 69.8027 146.524 69.504C146.207 69.1867 146.048 68.7667 146.048 68.244C146.048 67.74 146.235 67.3387 146.608 67.04C146.982 66.7413 147.43 66.5827 147.952 66.564C148.774 66.5267 149.464 66.8253 150.024 67.46C150.584 68.076 150.864 68.888 150.864 69.896C150.864 70.736 150.64 71.464 150.192 72.08C149.744 72.696 149.138 73.2 148.372 73.592ZM157.577 86.78C155.673 86.78 154.105 86.248 152.873 85.184C152.518 84.9227 152.331 84.6333 152.313 84.316C152.313 83.9987 152.443 83.7093 152.705 83.448C152.966 83.1867 153.237 83.0653 153.517 83.084C153.797 83.1027 154.114 83.2333 154.469 83.476C155.309 84.204 156.382 84.568 157.689 84.568C158.51 84.568 159.163 84.4187 159.649 84.12C160.134 83.8213 160.377 83.3267 160.377 82.636C160.377 82.076 160.125 81.6653 159.621 81.404C159.117 81.124 158.221 80.8627 156.933 80.62C156.093 80.452 155.337 80.228 154.665 79.948C154.011 79.668 153.489 79.2667 153.097 78.744C152.705 78.2027 152.509 77.5027 152.509 76.644C152.509 75.8227 152.733 75.1227 153.181 74.544C153.629 73.9467 154.217 73.4893 154.945 73.172C155.691 72.8547 156.513 72.696 157.409 72.696C159.033 72.696 160.339 73.1253 161.329 73.984C161.702 74.208 161.907 74.4787 161.945 74.796C162.001 75.0947 161.907 75.3747 161.665 75.636C161.422 75.9347 161.161 76.0747 160.881 76.056C160.601 76.0373 160.274 75.9347 159.901 75.748C159.285 75.2067 158.463 74.936 157.437 74.936C156.634 74.936 156.037 75.104 155.645 75.44C155.253 75.7573 155.057 76.14 155.057 76.588C155.057 77.1107 155.281 77.4933 155.729 77.736C156.177 77.9787 156.989 78.2307 158.165 78.492C159.098 78.6973 159.919 78.968 160.629 79.304C161.357 79.64 161.917 80.0787 162.309 80.62C162.719 81.1613 162.925 81.8613 162.925 82.72C162.925 84.008 162.43 85.0067 161.441 85.716C160.47 86.4253 159.182 86.78 157.577 86.78ZM12.416 122.5C11.576 122.5 11.156 122.052 11.156 121.156V104.216C11.156 103.339 11.5947 102.9 12.472 102.9H19.92C21.768 102.9 23.196 103.329 24.204 104.188C25.2307 105.047 25.744 106.409 25.744 108.276C25.744 110.161 25.2307 111.543 24.204 112.42C23.196 113.297 21.768 113.736 19.92 113.736H13.704V121.156C13.704 122.052 13.2747 122.5 12.416 122.5ZM13.704 111.3H19.612C20.732 111.3 21.5813 111.067 22.16 110.6C22.7573 110.115 23.056 109.34 23.056 108.276C23.056 107.231 22.7573 106.475 22.16 106.008C21.5813 105.541 20.732 105.308 19.612 105.308H13.704V111.3ZM33.3211 122.808C32.0891 122.808 30.9877 122.519 30.0171 121.94C29.0651 121.343 28.3091 120.512 27.7491 119.448C27.2077 118.384 26.9371 117.152 26.9371 115.752C26.9371 114.352 27.2077 113.129 27.7491 112.084C28.3091 111.02 29.0651 110.199 30.0171 109.62C30.9877 109.023 32.0891 108.724 33.3211 108.724C34.5531 108.724 35.6451 109.023 36.5971 109.62C37.5677 110.199 38.3237 111.02 38.8651 112.084C39.4251 113.129 39.7051 114.352 39.7051 115.752C39.7051 117.152 39.4251 118.384 38.8651 119.448C38.3237 120.512 37.5677 121.343 36.5971 121.94C35.6451 122.519 34.5531 122.808 33.3211 122.808ZM33.3211 120.512C34.4597 120.512 35.3837 120.092 36.0931 119.252C36.8211 118.393 37.1851 117.227 37.1851 115.752C37.1851 114.277 36.8211 113.12 36.0931 112.28C35.3837 111.44 34.4597 111.02 33.3211 111.02C32.1824 111.02 31.2491 111.44 30.5211 112.28C29.8117 113.12 29.4571 114.277 29.4571 115.752C29.4571 117.227 29.8117 118.393 30.5211 119.252C31.2491 120.092 32.1824 120.512 33.3211 120.512ZM43.9915 122.5C43.1515 122.5 42.7315 122.052 42.7315 121.156V110.376C42.7315 109.499 43.1701 109.06 44.0475 109.06C44.3461 109.06 44.6075 109.135 44.8315 109.284C45.0555 109.433 45.1675 109.713 45.1675 110.124V111.16C45.5408 110.432 46.1008 109.844 46.8475 109.396C47.6128 108.948 48.4341 108.724 49.3115 108.724C50.4501 108.724 51.0195 109.181 51.0195 110.096C51.0195 110.488 50.9075 110.777 50.6835 110.964C50.4781 111.132 50.2448 111.207 49.9835 111.188C49.8528 111.169 49.7035 111.16 49.5355 111.16C49.3675 111.141 49.1901 111.132 49.0035 111.132C47.9581 111.132 47.0715 111.477 46.3435 112.168C45.6155 112.84 45.2515 113.727 45.2515 114.828V121.156C45.2515 122.052 44.8315 122.5 43.9915 122.5ZM58.7168 122.808C57.4475 122.808 56.4862 122.565 55.8328 122.08C55.1795 121.576 54.8528 120.624 54.8528 119.224V111.244H53.4528C52.5755 111.244 52.1368 110.88 52.1368 110.152C52.1368 109.779 52.2302 109.508 52.4168 109.34C52.6222 109.153 52.9675 109.06 53.4528 109.06H54.8528V105.56C54.8528 104.683 55.2728 104.244 56.1128 104.244C56.9342 104.244 57.3448 104.683 57.3448 105.56V109.06H59.9208C60.7982 109.06 61.2368 109.424 61.2368 110.152C61.2368 110.88 60.7982 111.244 59.9208 111.244H57.3448V118.692C57.3448 119.42 57.5035 119.915 57.8208 120.176C58.1568 120.419 58.6515 120.54 59.3048 120.54C59.3422 120.54 59.3982 120.54 59.4728 120.54C59.9768 120.54 60.3968 120.587 60.7328 120.68C61.0688 120.755 61.2368 121.044 61.2368 121.548C61.2368 122.108 60.9755 122.453 60.4528 122.584C59.9488 122.733 59.3702 122.808 58.7168 122.808ZM66.7209 122.5C65.8809 122.5 65.4609 122.052 65.4609 121.156V111.244H64.1169C63.2396 111.244 62.8009 110.88 62.8009 110.152C62.8009 109.424 63.1276 109.06 63.7809 109.06H65.4609V106.54C65.4609 105.439 65.6382 104.571 65.9929 103.936C66.3476 103.301 66.8422 102.853 67.4769 102.592C68.1116 102.331 68.8489 102.2 69.6889 102.2C70.3422 102.2 70.8742 102.275 71.2849 102.424C71.7142 102.555 71.9289 102.881 71.9289 103.404C71.9102 103.721 71.8169 103.983 71.6489 104.188C71.4809 104.393 71.1916 104.487 70.7809 104.468C70.6502 104.449 70.5102 104.44 70.3609 104.44C70.2302 104.421 70.0996 104.412 69.9689 104.412C69.3529 104.412 68.8582 104.608 68.4849 105C68.1302 105.392 67.9529 105.989 67.9529 106.792V109.06H70.5849C71.4809 109.06 71.9289 109.424 71.9289 110.152C71.9289 110.88 71.4902 111.244 70.6129 111.244H67.9529V121.156C67.9529 122.052 67.5422 122.5 66.7209 122.5ZM79.8875 122.808C78.6555 122.808 77.5541 122.519 76.5835 121.94C75.6315 121.343 74.8755 120.512 74.3155 119.448C73.7741 118.384 73.5035 117.152 73.5035 115.752C73.5035 114.352 73.7741 113.129 74.3155 112.084C74.8755 111.02 75.6315 110.199 76.5835 109.62C77.5541 109.023 78.6555 108.724 79.8875 108.724C81.1195 108.724 82.2115 109.023 83.1635 109.62C84.1341 110.199 84.8901 111.02 85.4315 112.084C85.9915 113.129 86.2715 114.352 86.2715 115.752C86.2715 117.152 85.9915 118.384 85.4315 119.448C84.8901 120.512 84.1341 121.343 83.1635 121.94C82.2115 122.519 81.1195 122.808 79.8875 122.808ZM79.8875 120.512C81.0261 120.512 81.9501 120.092 82.6595 119.252C83.3875 118.393 83.7515 117.227 83.7515 115.752C83.7515 114.277 83.3875 113.12 82.6595 112.28C81.9501 111.44 81.0261 111.02 79.8875 111.02C78.7488 111.02 77.8155 111.44 77.0875 112.28C76.3781 113.12 76.0235 114.277 76.0235 115.752C76.0235 117.227 76.3781 118.393 77.0875 119.252C77.8155 120.092 78.7488 120.512 79.8875 120.512ZM90.5579 122.5C89.7179 122.5 89.2979 122.052 89.2979 121.156V103.74C89.2979 102.863 89.7179 102.424 90.5579 102.424C91.3979 102.424 91.8179 102.863 91.8179 103.74V121.156C91.8179 122.052 91.3979 122.5 90.5579 122.5ZM97.2676 122.5C96.4276 122.5 96.0076 122.052 96.0076 121.156V110.376C96.0076 109.499 96.4276 109.06 97.2676 109.06C98.0889 109.06 98.4996 109.499 98.4996 110.376V121.156C98.4996 122.052 98.0889 122.5 97.2676 122.5ZM97.2396 106.54C96.7729 106.54 96.3716 106.381 96.0356 106.064C95.7183 105.728 95.5596 105.327 95.5596 104.86C95.5596 104.393 95.7183 104.001 96.0356 103.684C96.3716 103.348 96.7729 103.18 97.2396 103.18C97.6876 103.18 98.0703 103.348 98.3876 103.684C98.7236 104.001 98.8916 104.393 98.8916 104.86C98.8916 105.327 98.7236 105.728 98.3876 106.064C98.0703 106.381 97.6876 106.54 97.2396 106.54ZM108.325 122.808C107.093 122.808 105.992 122.519 105.021 121.94C104.069 121.343 103.313 120.512 102.753 119.448C102.212 118.384 101.941 117.152 101.941 115.752C101.941 114.352 102.212 113.129 102.753 112.084C103.313 111.02 104.069 110.199 105.021 109.62C105.992 109.023 107.093 108.724 108.325 108.724C109.557 108.724 110.649 109.023 111.601 109.62C112.572 110.199 113.328 111.02 113.869 112.084C114.429 113.129 114.709 114.352 114.709 115.752C114.709 117.152 114.429 118.384 113.869 119.448C113.328 120.512 112.572 121.343 111.601 121.94C110.649 122.519 109.557 122.808 108.325 122.808ZM108.325 120.512C109.464 120.512 110.388 120.092 111.097 119.252C111.825 118.393 112.189 117.227 112.189 115.752C112.189 114.277 111.825 113.12 111.097 112.28C110.388 111.44 109.464 111.02 108.325 111.02C107.186 111.02 106.253 111.44 105.525 112.28C104.816 113.12 104.461 114.277 104.461 115.752C104.461 117.227 104.816 118.393 105.525 119.252C106.253 120.092 107.186 120.512 108.325 120.512Z" fill="white"/>
<defs>
<clipPath id="clip0_17_994">
<rect width="344.017" height="703" fill="white" transform="translate(5 1)"/>
</clipPath>
</defs>
</svg>
