<svg id="圖層_1" data-name="圖層 1" xmlns="http://www.w3.org/2000/svg" viewBox="0 0 48.56 31.03"><defs><style>.cls-1{fill:#d1542e;}</style></defs><title>bubble</title><path class="cls-1" d="M505.3,398.4a4.25,4.25,0,0,1-1.1-.2,3.36,3.36,0,0,1-2.1-4.2,3.51,3.51,0,0,1,1.7-1.9,3.32,3.32,0,0,1,4.4,1.5,3.13,3.13,0,0,1,.2,2.5,3.51,3.51,0,0,1-1.7,1.9,2.3,2.3,0,0,1-1.4.4Zm0-5.8a3.59,3.59,0,0,0-1.1.2,2.36,2.36,0,0,0-1.2,1.4,2.66,2.66,0,0,0,1.5,3.2,2.57,2.57,0,0,0,3.2-1.5h0a2.62,2.62,0,0,0-1.6-3.2,2.2,2.2,0,0,0-.8-.1Z" transform="translate(-495.87 -391.77)"/><path class="cls-1" d="M514.5,422.8a4.25,4.25,0,0,1-1.1-.2,3.32,3.32,0,1,1,4.2-2.1,3.51,3.51,0,0,1-1.7,1.9A2.3,2.3,0,0,1,514.5,422.8Zm0-5.8a2,2,0,0,0-1.1.3,2.36,2.36,0,0,0-1.2,1.4,2.57,2.57,0,0,0,1.5,3.2,2.51,2.51,0,0,0,1.9-.1,2.48,2.48,0,0,0,1.1-3.3,3,3,0,0,0-1.4-1.3,1.08,1.08,0,0,0-.8-.2Z" transform="translate(-495.87 -391.77)"/><path class="cls-1" d="M541.2,401a4.25,4.25,0,0,1-1.1-.2,3.51,3.51,0,0,1-1.9-1.7,3.13,3.13,0,0,1-.2-2.5,3.36,3.36,0,0,1,4.2-2.1,3.51,3.51,0,0,1,1.9,1.7,3.47,3.47,0,0,1-1.5,4.5,3.19,3.19,0,0,1-1.4.3Zm0-5.9a2,2,0,0,0-1.1.3,2.54,2.54,0,0,0-1.3,1.4,2.47,2.47,0,1,0,4.6,1.8c0-.1.1-.1.1-.2a2.51,2.51,0,0,0-.1-1.9,3,3,0,0,0-1.4-1.3C541.8,395.2,541.5,395.1,541.2,395.1Z" transform="translate(-495.87 -391.77)"/><path class="cls-1" d="M499.2,413.9a3.29,3.29,0,0,1-3-1.9,3.62,3.62,0,0,1-.2-2.5,3.51,3.51,0,0,1,1.7-1.9,3.35,3.35,0,0,1,3,6,8,8,0,0,1-1.5.3Zm0-5.9a2.5,2.5,0,0,0,0,5,2.59,2.59,0,0,0,2.4-1.7,2.51,2.51,0,0,0-.1-1.9,3,3,0,0,0-1.4-1.3C499.8,408.1,499.5,408,499.2,408Z" transform="translate(-495.87 -391.77)"/></svg>