<?xml version="1.0" encoding="utf-8"?>
<!-- Generator: Adobe Illustrator 24.0.3, SVG Export Plug-In . SVG Version: 6.00 Build 0)  -->
<svg version="1.1" id="圖層_1" xmlns="http://www.w3.org/2000/svg" xmlns:xlink="http://www.w3.org/1999/xlink" x="0px" y="0px"
	 viewBox="0 0 156.8 105.9" style="enable-background:new 0 0 156.8 105.9;" xml:space="preserve">
<style type="text/css">
	.st0{fill:#FF623E;}
	.st1{fill:#F5CD52;}
</style>
<title>cat</title>
<path class="st0" d="M33.2,20.4c0.6,0,1-0.4,1-1s-0.4-1-1-1s-1,0.4-1,1S32.6,20.4,33.2,20.4z"/>
<path class="st0" d="M48,22.6c0.6,0,1-0.4,1-1s-0.4-1-1-1s-1,0.4-1,1S47.4,22.6,48,22.6z"/>
<path class="st0" d="M40.4,22.7l-2.9,0.7l0.2,0.8l2.9-0.7L40.4,22.7z"/>
<path class="st0" d="M40.5,22.7L40,23.4l2.4,1.8l0.5-0.7L40.5,22.7z"/>
<path class="st0" d="M137.5,103.6l-0.5-0.5C86.1,56.6,12.4,55.2,11.7,55.2L1.5,55C0.7,55,0,54.4,0,53.5c0-0.5,0.2-0.9,0.6-1.2
	l18-9.6L30.1,0.8c0.2-0.6,0.9-1,1.5-0.8c0.5,0.1,0.8,0.5,0.8,1c0.1,0.7,0.2,1.4,0.4,2.1c2,7.1,9.3,11.2,16.4,9.2
	c3.6-1,6.5-3.4,8.2-6.7c0.3-0.5,0.8-0.8,1.4-0.6c0.5,0.1,0.9,0.6,0.9,1.1l0.6,20.6c5,1.2,9.9,2.5,14.6,4
	c20.8,6.5,39.4,15.5,55.1,26.9c3.4,2.5,6.2,5.8,8.2,9.5c4.4-1.9,7.7-5.6,9.1-10.2c1.3-4.4,0.3-9.1-2.7-13.6c-2.1-3.1-2.8-6.2-2-9.2
	c1.6-5.6,8-9.1,10.7-10.3c1.2-0.6,2.7,0,3.3,1.2c0.1,0.2,0.2,0.5,0.2,0.8c0.1,0.9-0.4,1.8-1.2,2.3c-2.9,1.8-6.4,4.7-7.3,8.6
	c-0.5,2.8,0.3,5.7,2,7.9c4.5,6.7,3.7,12.2,2.3,15.8c-2.3,5.4-7.1,9.3-12.8,10.5c1.5,4.5,1.8,9.3,1,13.9L137.5,103.6L137.5,103.6z
	 M31.4,0.8c-0.2,0-0.3,0.1-0.3,0.2L19.5,43.4L1.1,53.1c-0.2,0.2-0.3,0.4-0.2,0.7c0.1,0.3,0.3,0.5,0.6,0.5l10.2,0.2
	c0.7,0,74.2,1.4,125.3,47.6l3.2-17.1c0.9-4.6,0.5-9.4-1.1-13.9l-0.1-0.5l0.5-0.1c5.6-1.1,10.4-4.9,12.7-10.1c1.3-3.3,2-8.6-2.2-15
	c-1.9-2.4-2.7-5.6-2.1-8.6c0.9-4.2,4.7-7.3,7.7-9.2c0.5-0.3,0.8-0.9,0.8-1.5c-0.1-0.9-0.9-1.6-1.8-1.5c-0.2,0-0.4,0.1-0.6,0.1
	c-2,0.9-8.7,4.4-10.3,9.8c-0.8,2.7-0.1,5.6,1.8,8.5c3.2,4.7,4.2,9.7,2.8,14.3c-1.5,4.9-5.2,8.8-9.9,10.8l-0.4,0.1l-0.2-0.4
	c-1.9-3.8-4.7-7-8.1-9.5C114,46.9,95.5,37.9,74.8,31.5c-4.9-1.4-9.9-2.8-14.9-4l-0.3-0.1L59,6.1c0-0.2-0.1-0.3-0.3-0.4
	s-0.4,0-0.4,0.2c-2.7,5.3-8.4,8.3-14.3,7.5c-5.6-0.7-10.3-4.7-11.8-10.2C32,2.5,31.8,1.7,31.7,1C31.6,0.9,31.5,0.9,31.4,0.8
	L31.4,0.8z"/>
<path class="st1" d="M42.5,47.5l-18.2,9.6c-0.5,0.3-0.6,1-0.3,1.5c0.2,0.3,0.5,0.5,0.9,0.5l25,0.9"/>
<path class="st0" d="M50,60.4l-24.9-0.9c-0.8,0-1.4-0.6-1.4-1.4c0,0,0-0.1,0-0.1c0-0.5,0.2-0.9,0.6-1.2l18.2-9.6l0.4,0.7l-18.2,9.6
	c-0.2,0.2-0.3,0.5-0.1,0.8c0,0,0.1,0.1,0.1,0.1c0.1,0.1,0.3,0.2,0.5,0.2l25,0.9L50,60.4z"/>
<path class="st1" d="M134.5,84.8l6.9,19.4c0.1,0.5-0.2,1.1-0.8,1.2c0,0,0,0,0,0c-0.3,0.1-0.7,0-0.9-0.2l-19.4-15.9"/>
<path class="st0" d="M140.3,105.9c-0.4,0-0.7-0.1-1-0.4L120,89.6l0.5-0.6l19.4,15.9c0.3,0.2,0.6,0.2,0.9,0c0.1-0.2,0.2-0.4,0.2-0.6
	l-6.9-19.4l0.8-0.3l6.9,19.4c0.2,0.6-0.1,1.3-0.7,1.6C140.9,105.8,140.6,105.9,140.3,105.9L140.3,105.9z"/>
</svg>
