<svg width="100" height="101" viewBox="0 0 100 101" fill="none" xmlns="http://www.w3.org/2000/svg">
<path d="M0.00261161 91.4679V40.653C0.769675 36.9793 2.79692 34.0159 6.39742 32.6869C9.16041 31.666 11.9599 32.1568 14.8456 32.0524V28.632C14.8456 28.4649 15.4587 26.7182 15.5917 26.4466C17.6216 22.3134 23.4006 21.3709 26.7376 24.5484C27.523 25.2952 28.9058 27.5902 28.9058 28.632V32.0524L40.0386 31.9558L47.2553 20.0236L47.9884 19.585L75.8793 19.538C76.5576 19.551 77.0533 20.0262 77.3847 20.5719L84.1735 31.9532C87.5809 32.3239 90.9361 31.4754 94.1792 32.8827C97.4222 34.29 99.6713 37.7261 100 41.324V90.7838C99.5539 95.776 95.7185 99.6376 90.7144 100.058C63.0244 99.8752 35.2562 100.439 7.61062 99.7734C3.87445 98.9275 0.461803 95.3139 0 91.4601L0.00261161 91.4679ZM79.4902 32.055L74.4782 23.4858L50.0861 23.444L49.5095 23.6477L44.7271 32.055H79.4902ZM25 32.055V29.0263C25 28.9453 24.6034 28.1124 24.5043 27.961C23.2806 26.0811 20.4733 26.0811 19.247 27.961C19.1479 28.115 18.7513 28.9453 18.7513 29.0263V32.055H25ZM8.74035 36.0106C6.06867 36.6869 4.14319 38.7235 3.90055 41.5276V90.5984C4.22929 93.6742 6.58787 95.9039 9.66134 96.1677H90.3334C93.493 95.8961 95.8673 93.5697 96.0942 90.4026V41.5276C95.8725 38.6373 93.6 36.2822 90.7248 35.9558L8.73774 36.0106H8.74035Z" fill="black"/>
<path d="M62.4974 0.00261353C63.1653 0.378595 63.9141 0.827685 64.0498 1.67625C63.7706 5.12275 64.462 9.25332 64.0654 12.6137C63.8071 14.7938 60.4206 15.1594 60.1466 12.2246C59.8361 8.88778 60.384 5.0653 60.1649 1.67364C60.2979 0.827682 61.0467 0.375981 61.7173 0H62.4974V0.00261353Z" fill="black"/>
<path d="M54.2267 13.8095C53.5066 14.5145 52.3847 14.4779 51.568 13.9662C50.5479 13.3265 45.4706 8.09147 44.5262 6.94264C44.1713 6.51183 43.8035 6.15934 43.7382 5.57448C43.553 3.93739 44.8836 2.88517 46.4308 3.47526C47.2292 3.78074 53.0813 9.63716 53.911 10.6476C54.6519 11.5484 55.2233 12.8382 54.2292 13.8095H54.2267Z" fill="black"/>
<path d="M69.988 13.8095C68.9939 12.8382 69.5653 11.5484 70.3063 10.6476C71.543 9.14369 75.4722 5.128 76.9672 4.02355C79.5137 2.14626 81.6714 4.5327 79.6885 6.94264C78.744 8.09147 73.6668 13.3265 72.6466 13.9662C71.83 14.4779 70.7081 14.5119 69.988 13.8095Z" fill="black"/>
<path d="M52.0115 43.6452C53.0916 42.653 58.662 41.5329 60.2457 41.4285C79.8997 40.1308 93.2842 61.0448 83.4298 78.3112C74.979 93.1181 54.4771 94.8648 43.3546 81.9953C37.8704 75.6532 35.5875 64.8516 39.1645 57.0735C40.2394 54.7367 42.4493 54.6897 43.1563 57.191C42.7258 59.0526 41.9457 60.7863 41.6561 62.6923C38.5148 83.3086 64.094 95.2434 77.7368 79.648C91.0143 64.4704 76.6697 41.1778 57.1018 45.9037C56.186 46.1257 53.9031 47.1387 53.2325 47.0969C51.6462 46.9977 50.767 44.7836 52.0089 43.6452H52.0115Z" fill="black"/>
<path d="M60.3084 50.0917C73.338 48.8175 82.5401 62.5226 76.0071 74.0083C69.8888 84.7655 54.1692 84.6794 48.1397 73.8803C42.5981 63.9586 49.0163 51.1935 60.3084 50.0891V50.0917ZM60.5014 53.9977C45.5907 55.6949 47.1822 78.9613 62.7896 78.1754C78.8875 77.366 77.3507 52.0813 60.5014 53.9977Z" fill="black"/>
<path d="M16.1632 48.1282L27.2334 48.0917C29.5842 48.5904 29.399 51.6348 27.0325 51.969C25.334 52.2092 18.1722 52.2327 16.5493 51.9403C14.4934 51.5669 14.2377 48.9324 16.1606 48.1256L16.1632 48.1282Z" fill="black"/>
<path d="M45.4524 48.123C48.4345 47.452 48.9172 51.6374 46.3342 51.9559C43.8948 52.2536 43.4225 48.5799 45.4524 48.123Z" fill="black"/>
<path d="M61.8686 58.2797C64.0628 57.9742 67.0815 59.7471 68.3573 61.4677C69.5314 63.0473 71.0264 68.0265 67.8694 68.0265C65.6178 68.0265 66.1135 65.4286 65.4665 64.1649C64.4333 62.144 62.8861 62.6139 61.3181 62.063C59.5231 61.4312 59.9092 58.5538 61.866 58.2797H61.8686Z" fill="black"/>
</svg>
