<svg width="100" height="101" viewBox="0 0 100 101" fill="none" xmlns="http://www.w3.org/2000/svg">
<path d="M0.00586396 1.38656C0.593641 0.761218 0.9217 0.323479 1.85316 0.21209C4.29214 -0.0790837 11.0955 -0.0634463 13.5521 0.216002C14.589 0.333253 15.5985 1.13056 15.5985 2.26398V6.06682H42.1032V1.87315C42.1032 1.36506 43.1557 0.235542 43.7708 0.225771C47.5943 0.471998 51.8923 -0.139669 55.6572 0.206222C56.4695 0.280481 57.6939 1.02699 57.6939 1.87315V6.06682H84.1985V2.26398C84.1985 2.21122 84.4875 1.36506 84.5481 1.24781C85.0167 0.333247 85.7021 0.278528 86.6258 0.208178C90.3165 -0.0810417 94.388 0.428998 98.1197 0.229671C99.2698 0.475898 99.6916 1.13838 99.799 2.25422C100.053 4.89237 100.084 11.1712 99.7893 13.7702C99.6369 15.1147 98.8617 15.6716 97.5495 15.8182C95.0968 16.0938 89.1116 16.0703 86.6375 15.8143C85.5381 15.701 84.1985 15.0698 84.1985 13.7683V9.96544H68.4125L73.4623 12.8107C85.5323 20.4066 93.3999 33.8514 93.9408 48.1952C96.1083 48.4648 99.5022 47.1477 99.799 50.2314C100.063 52.979 100.053 58.8064 99.7971 61.5618C99.6623 63.0118 99.0179 63.6391 97.5495 63.7974C95.0265 64.069 89.1761 64.0514 86.6375 63.7935C84.8703 63.6156 84.3391 62.8945 84.1927 61.169C83.972 58.5777 83.9212 52.9868 84.22 50.4561C84.3157 49.6471 84.8761 48.1913 85.8545 48.1913H90.0451C89.1937 30.0877 75.5498 14.0165 57.6919 10.7432V13.9617C57.6919 14.1845 57.1608 15.1401 56.9089 15.3238C56.5808 15.5642 55.8408 15.744 55.4287 15.7928C52.8589 16.0957 47.567 16.0175 44.9171 15.8221C44.3 15.7772 43.3861 15.6912 42.8823 15.3238C42.6304 15.1401 42.0993 14.1845 42.0993 13.9617V10.7432C24.2434 14.0165 10.5976 30.0877 9.74616 48.1913H13.9368C14.9932 48.1913 15.5068 49.782 15.5907 50.632C15.8465 53.194 15.8485 58.7947 15.5907 61.3546C15.4267 62.9883 14.7882 63.6274 13.1537 63.7935C10.6522 64.0455 4.71589 64.0749 2.24176 63.7974C1.21266 63.6821 0.576062 63.2678 0.00195465 62.4314V49.3638C1.32787 47.4448 3.87035 48.4179 5.85043 48.1952C6.40306 33.8749 14.2707 20.3988 26.3289 12.8107L31.3787 9.96544H15.5927V13.7683C15.5927 15.1811 14.1223 15.7244 12.9682 15.8221C10.4784 16.0332 4.44641 16.1211 2.06405 15.7987C1.12088 15.6697 0.529194 15.1987 0 14.4503V1.38265L0.00586396 1.38656ZM11.5056 4.11655H3.90549V11.9177H11.5056V4.11655ZM53.7982 4.11655H46.0028V11.6245C46.0028 11.646 46.2742 11.9177 46.2957 11.9177H53.5072C53.5287 11.9177 53.8001 11.646 53.8001 11.6245V4.11655H53.7982ZM95.8935 4.11655H88.2934V11.9177H95.8935V4.11655ZM11.5056 52.0957H3.90549V59.8968H11.5056V52.0957ZM95.8935 52.0957H88.2934V59.8968H95.8935V52.0957Z" fill="#261C1A"/>
<path d="M35.8661 100.075C35.4794 99.4397 34.6769 99.0762 34.6925 98.2262V82.2331C34.6027 81.768 33.2103 80.8515 32.7534 80.275C30.6952 77.6818 31.2674 73.6718 34.0481 71.829C34.3273 71.6434 36.1649 70.8207 36.3543 70.8207H39.1799C38.1469 66.668 36.3894 62.7655 33.7181 59.416C32.4917 57.8801 29.7442 56.0959 30.3671 54.1007C30.6581 53.1685 32.4937 50.0105 33.101 49.0374C34.7237 46.4305 37.5865 47.7906 36.946 50.1532C36.6843 51.1186 34.5519 54.0186 34.7237 54.6908C39.012 59.0702 42.0114 64.7471 43.0873 70.8129H56.7136C57.7876 64.7451 60.787 59.0702 65.0772 54.6908L51.8493 30.4492V44.6873C59.4572 47.05 57.1295 58.2611 49.2092 57.5674C42.1559 56.9499 41.076 46.6122 47.9516 44.6873V30.4492L43.2826 38.5512C41.6286 40.2865 39.176 38.5434 40.1133 36.3547C43.0131 31.8894 45.1377 26.2438 48.0668 21.884C49.2229 20.1643 50.9335 20.305 51.8825 22.1282L69.5451 54.3899C69.8771 56.09 67.1706 58.054 66.0829 59.42C63.4096 62.7694 61.6541 66.67 60.621 70.8246H63.4467C63.6361 70.8246 65.4736 71.6473 65.7529 71.8329C68.5277 73.6718 69.0979 77.6916 67.0475 80.2789C66.5906 80.8574 65.1983 81.7719 65.1065 82.237L65.0909 98.4099C64.9562 99.2541 64.2102 99.7035 63.5424 100.079H62.3727C62.0934 99.768 61.203 99.0176 61.203 98.6151V82.5243H38.596V98.6151C38.596 99.215 37.5494 99.8755 37.0377 100.079H35.868L35.8661 100.075ZM49.4631 48.2381C45.9735 48.7423 46.6687 54.3078 50.5371 53.6102C53.6888 53.0415 53.1166 47.7105 49.4631 48.2381ZM36.9831 74.7642C34.7237 75.3817 34.9756 78.3756 37.3228 78.6257H62.4723C65.0636 78.313 64.9679 74.987 62.4723 74.7154L36.9811 74.7642H36.9831Z" fill="#261C1A"/>
<path d="M37.9633 41.5998C40.4511 41.164 41.1522 44.9004 38.846 45.4241C36.0965 46.0495 35.5185 42.0278 37.9633 41.5998Z" fill="#261C1A"/>
</svg>
