<?xml version="1.0" encoding="UTF-8"?>
<svg id="_圖層_1" data-name="圖層_1" xmlns="http://www.w3.org/2000/svg" version="1.1" viewBox="0 0 100 101">
  <!-- Generator: Adobe Illustrator 29.5.1, SVG Export Plug-In . SVG Version: 2.1.0 Build 141)  -->
  <defs>
    <style>
      .st0 {
        fill: #299ea7;
      }
    </style>
  </defs>
  <path class="st0" d="M0,1.92C.59,1.29.92.85,1.85.74c2.44-.29,9.24-.28,11.7,0,1.04.12,2.05.91,2.05,2.05v3.8h26.5V2.4c0-.51,1.05-1.64,1.67-1.65,3.82.25,8.12-.37,11.89-.02.81.07,2.04.82,2.04,1.67v4.19h26.5v-3.8c0-.05.29-.9.35-1.02.47-.91,1.15-.97,2.08-1.04,3.69-.29,7.76.22,11.49.02,1.15.25,1.57.91,1.68,2.02.25,2.64.28,8.92,0,11.52-.15,1.34-.93,1.9-2.24,2.05-2.45.28-8.44.25-10.91,0-1.1-.11-2.44-.74-2.44-2.05v-3.8h-15.79l5.05,2.85c12.07,7.6,19.94,21.04,20.48,35.38,2.17.27,5.56-1.05,5.86,2.04.26,2.75.25,8.58,0,11.33-.13,1.45-.78,2.08-2.25,2.24-2.52.27-8.37.25-10.91,0-1.77-.18-2.3-.9-2.44-2.62-.22-2.59-.27-8.18.03-10.71.1-.81.66-2.26,1.63-2.26h4.19c-.85-18.1-14.5-34.17-32.35-37.45v3.22c0,.22-.53,1.18-.78,1.36-.33.24-1.07.42-1.48.47-2.57.3-7.86.22-10.51.03-.62-.04-1.53-.13-2.03-.5-.25-.18-.78-1.14-.78-1.36v-3.22C24.24,14.55,10.6,30.62,9.75,48.72h4.19c1.06,0,1.57,1.59,1.65,2.44.26,2.56.26,8.16,0,10.72-.16,1.63-.8,2.27-2.44,2.44-2.5.25-8.44.28-10.91,0-1.03-.12-1.67-.53-2.24-1.37v-13.07c1.33-1.92,3.87-.95,5.85-1.17.55-14.32,8.42-27.8,20.48-35.38l5.05-2.85h-15.79v3.8c0,1.41-1.47,1.96-2.62,2.05-2.49.21-8.52.3-10.9-.02-.94-.13-1.53-.6-2.06-1.35V1.91h0ZM11.51,4.65H3.91v7.8h7.6v-7.8ZM53.8,4.65h-7.8v7.51s.27.29.29.29h7.21s.29-.27.29-.29v-7.51h0ZM95.89,4.65h-7.6v7.8h7.6v-7.8ZM11.51,52.63H3.91v7.8h7.6v-7.8ZM95.89,52.63h-7.6v7.8h7.6v-7.8Z"/>
  <path class="st0" d="M35.87,100.61c-.39-.64-1.19-1-1.17-1.85v-15.99c-.09-.47-1.48-1.38-1.94-1.96-2.06-2.59-1.49-6.6,1.29-8.45.28-.19,2.12-1.01,2.31-1.01h2.83c-1.03-4.15-2.79-8.06-5.46-11.4-1.23-1.54-3.97-3.32-3.35-5.32.29-.93,2.13-4.09,2.73-5.06,1.62-2.61,4.49-1.25,3.84,1.12-.26.97-2.39,3.87-2.22,4.54,4.29,4.38,7.29,10.06,8.36,16.12h13.63c1.07-6.07,4.07-11.74,8.36-16.12l-13.23-24.24v14.24c7.61,2.36,5.28,13.57-2.64,12.88-7.05-.62-8.13-10.96-1.26-12.88v-14.24l-4.67,8.1c-1.65,1.74-4.11,0-3.17-2.2,2.9-4.47,5.02-10.11,7.95-14.47,1.16-1.72,2.87-1.58,3.82.24l17.66,32.26c.33,1.7-2.37,3.66-3.46,5.03-2.67,3.35-4.43,7.25-5.46,11.4h2.83c.19,0,2.03.82,2.31,1.01,2.77,1.84,3.35,5.86,1.29,8.45-.46.58-1.85,1.49-1.94,1.96l-.02,16.17c-.13.84-.88,1.29-1.55,1.67h-1.17c-.28-.31-1.17-1.06-1.17-1.46v-16.09h-22.61v16.09c0,.6-1.05,1.26-1.56,1.46h-1.17ZM49.46,48.77c-3.49.5-2.79,6.07,1.07,5.37,3.15-.57,2.58-5.9-1.07-5.37ZM36.98,75.29c-2.26.62-2.01,3.61.34,3.86h25.15c2.59-.31,2.5-3.64,0-3.91l-25.49.05h0Z"/>
  <path class="st0" d="M37.96,42.13c2.49-.44,3.19,3.3.88,3.82-2.75.63-3.33-3.4-.88-3.82Z"/>
</svg>