<svg width="1440" height="961" viewBox="0 0 1440 961" fill="none" xmlns="http://www.w3.org/2000/svg">
<path opacity="0.4" d="M1506.89 878.854C1572.41 813.343 1572.41 707.129 1506.89 641.618C1441.37 576.107 1335.15 576.107 1269.63 641.618C1204.11 707.129 1204.11 813.343 1269.63 878.854C1335.15 944.365 1441.37 944.365 1506.89 878.854Z" fill="#ECB6A4"/>
<g opacity="0.5">
<mask id="mask0_70_3726" style="mask-type:luminance" maskUnits="userSpaceOnUse" x="1272" y="-5" width="220" height="220">
<path d="M1381.8 214.575C1442.44 214.575 1491.6 165.422 1491.6 104.788C1491.6 44.1535 1442.44 -5 1381.8 -5C1321.16 -5 1272 44.1535 1272 104.788C1272 165.422 1321.16 214.575 1381.8 214.575Z" fill="white"/>
</mask>
<g mask="url(#mask0_70_3726)">
<path d="M1428.73 121.328C1428.73 119.967 1429.83 118.866 1431.19 118.866C1432.56 118.866 1433.66 119.967 1433.66 121.328C1433.66 122.689 1432.56 123.79 1431.19 123.79C1429.83 123.79 1428.73 122.689 1428.73 121.328Z" fill="#DA913C"/>
<path d="M1412.97 123.74C1414.33 123.704 1415.41 122.574 1415.37 121.214C1415.33 119.855 1414.2 118.782 1412.84 118.818C1411.48 118.854 1410.41 119.985 1410.45 121.344C1410.48 122.703 1411.61 123.776 1412.97 123.74Z" fill="#DA913C"/>
<path d="M1394.59 123.79C1395.95 123.79 1397.05 122.688 1397.05 121.328C1397.05 119.968 1395.95 118.866 1394.59 118.866C1393.23 118.866 1392.13 119.968 1392.13 121.328C1392.13 122.688 1393.23 123.79 1394.59 123.79Z" fill="#DA913C"/>
<path d="M1428.73 105.608C1428.73 104.248 1429.83 103.146 1431.19 103.146C1432.56 103.146 1433.66 104.248 1433.66 105.608C1433.66 106.969 1432.56 108.07 1431.19 108.07C1429.83 108.07 1428.73 106.969 1428.73 105.608Z" fill="#DA913C"/>
<path d="M1410.43 105.608C1410.43 104.248 1411.53 103.146 1412.89 103.146C1414.25 103.146 1415.36 104.248 1415.36 105.608C1415.36 106.969 1414.25 108.07 1412.89 108.07C1411.53 108.07 1410.43 106.969 1410.43 105.608Z" fill="#DA913C"/>
<path d="M1392.13 105.608C1392.13 104.248 1393.23 103.146 1394.59 103.146C1395.95 103.146 1397.05 104.248 1397.05 105.608C1397.05 106.969 1395.95 108.07 1394.59 108.07C1393.23 108.07 1392.13 106.969 1392.13 105.608Z" fill="#DA913C"/>
<path d="M1428.73 89.6537C1428.73 88.2931 1429.83 87.1918 1431.19 87.1918C1432.56 87.1918 1433.66 88.2931 1433.66 89.6537C1433.66 91.0143 1432.56 92.1156 1431.19 92.1156C1429.83 92.1156 1428.73 91.0143 1428.73 89.6537Z" fill="#DA913C"/>
<path d="M1410.43 89.6537C1410.43 88.2931 1411.53 87.1918 1412.89 87.1918C1414.25 87.1918 1415.36 88.2931 1415.36 89.6537C1415.36 91.0143 1414.25 92.1156 1412.89 92.1156C1411.53 92.1156 1410.43 91.0143 1410.43 89.6537Z" fill="#DA913C"/>
<path d="M1392.13 89.6537C1392.13 88.2931 1393.23 87.1918 1394.59 87.1918C1395.95 87.1918 1397.05 88.2931 1397.05 89.6537C1397.05 91.0143 1395.95 92.1156 1394.59 92.1156C1393.23 92.1156 1392.13 91.0143 1392.13 89.6537Z" fill="#DA913C"/>
<path d="M1428.73 73.9372C1428.73 72.5766 1429.83 71.4753 1431.19 71.4753C1432.56 71.4753 1433.66 72.5766 1433.66 73.9372C1433.66 75.2979 1432.56 76.3991 1431.19 76.3991C1429.83 76.3991 1428.73 75.2979 1428.73 73.9372Z" fill="#DA913C"/>
<path d="M1410.43 73.9372C1410.43 72.5766 1411.53 71.4753 1412.89 71.4753C1414.25 71.4753 1415.36 72.5766 1415.36 73.9372C1415.36 75.2979 1414.25 76.3991 1412.89 76.3991C1411.53 76.3991 1410.43 75.2979 1410.43 73.9372Z" fill="#DA913C"/>
<path d="M1392.13 73.9372C1392.13 72.5766 1393.23 71.4753 1394.59 71.4753C1395.95 71.4753 1397.05 72.5766 1397.05 73.9372C1397.05 75.2979 1395.95 76.3991 1394.59 76.3991C1393.23 76.3991 1392.13 75.2979 1392.13 73.9372Z" fill="#DA913C"/>
<path d="M1428.73 57.7484C1428.73 56.3878 1429.83 55.2865 1431.19 55.2865C1432.56 55.2865 1433.66 56.3878 1433.66 57.7484C1433.66 59.109 1432.56 60.2103 1431.19 60.2103C1429.83 60.2103 1428.73 59.109 1428.73 57.7484Z" fill="#DA913C"/>
<path d="M1410.43 57.7484C1410.43 56.3878 1411.53 55.2865 1412.89 55.2865C1414.25 55.2865 1415.36 56.3878 1415.36 57.7484C1415.36 59.109 1414.25 60.2103 1412.89 60.2103C1411.53 60.2103 1410.43 59.109 1410.43 57.7484Z" fill="#DA913C"/>
<path d="M1392.13 57.7484C1392.13 56.3878 1393.23 55.2865 1394.59 55.2865C1395.95 55.2865 1397.05 56.3878 1397.05 57.7484C1397.05 59.109 1395.95 60.2103 1394.59 60.2103C1393.23 60.2103 1392.13 59.109 1392.13 57.7484Z" fill="#DA913C"/>
<path d="M1428.73 42.0284C1428.73 40.6678 1429.83 39.5665 1431.19 39.5665C1432.56 39.5665 1433.66 40.6678 1433.66 42.0284C1433.66 43.3891 1432.56 44.4903 1431.19 44.4903C1429.83 44.4903 1428.73 43.3891 1428.73 42.0284Z" fill="#DA913C"/>
<path d="M1410.43 42.0284C1410.43 40.6678 1411.53 39.5665 1412.89 39.5665C1414.25 39.5665 1415.36 40.6678 1415.36 42.0284C1415.36 43.3891 1414.25 44.4903 1412.89 44.4903C1411.53 44.4903 1410.43 43.3891 1410.43 42.0284Z" fill="#DA913C"/>
<path d="M1392.13 42.0284C1392.13 40.6678 1393.23 39.5665 1394.59 39.5665C1395.95 39.5665 1397.05 40.6678 1397.05 42.0284C1397.05 43.3891 1395.95 44.4903 1394.59 44.4903C1393.23 44.4903 1392.13 43.3891 1392.13 42.0284Z" fill="#DA913C"/>
<path d="M1379.11 121.451C1379.17 120.093 1378.12 118.941 1376.76 118.88C1375.4 118.818 1374.25 119.869 1374.19 121.227C1374.13 122.586 1375.18 123.737 1376.54 123.798C1377.9 123.86 1379.05 122.809 1379.11 121.451Z" fill="#DA913C"/>
<path d="M1358.39 123.743C1359.75 123.707 1360.82 122.576 1360.79 121.217C1360.75 119.858 1359.62 118.785 1358.26 118.821C1356.9 118.857 1355.83 119.988 1355.87 121.347C1355.9 122.706 1357.03 123.779 1358.39 123.743Z" fill="#DA913C"/>
<path d="M1340.01 123.79C1341.37 123.79 1342.47 122.688 1342.47 121.328C1342.47 119.968 1341.37 118.866 1340.01 118.866C1338.65 118.866 1337.55 119.968 1337.55 121.328C1337.55 122.688 1338.65 123.79 1340.01 123.79Z" fill="#DA913C"/>
<path d="M1324.2 121.455C1324.26 120.096 1323.21 118.945 1321.85 118.884C1320.5 118.822 1319.34 119.873 1319.28 121.231C1319.22 122.59 1320.27 123.741 1321.63 123.802C1322.99 123.864 1324.14 122.813 1324.2 121.455Z" fill="#DA913C"/>
<path d="M1300.95 121.328C1300.95 119.967 1302.05 118.866 1303.41 118.866C1304.77 118.866 1305.87 119.967 1305.87 121.328C1305.87 122.688 1304.77 123.79 1303.41 123.79C1302.05 123.79 1300.95 122.688 1300.95 121.328Z" fill="#DA913C"/>
<path d="M1287.53 121.327C1287.53 119.968 1286.43 118.859 1285.07 118.851C1283.71 118.844 1282.61 119.939 1282.6 121.299C1282.6 122.659 1283.69 123.767 1285.05 123.775C1286.41 123.783 1287.52 122.687 1287.53 121.327Z" fill="#DA913C"/>
<path d="M1374.15 105.608C1374.15 104.248 1375.25 103.146 1376.61 103.146C1377.97 103.146 1379.07 104.248 1379.07 105.608C1379.07 106.969 1377.97 108.07 1376.61 108.07C1375.25 108.07 1374.15 106.969 1374.15 105.608Z" fill="#DA913C"/>
<path d="M1355.85 105.608C1355.85 104.248 1356.95 103.146 1358.31 103.146C1359.67 103.146 1360.77 104.248 1360.77 105.608C1360.77 106.969 1359.67 108.07 1358.31 108.07C1356.95 108.07 1355.85 106.969 1355.85 105.608Z" fill="#DA913C"/>
<path d="M1337.55 105.608C1337.55 104.248 1338.65 103.146 1340.01 103.146C1341.37 103.146 1342.47 104.248 1342.47 105.608C1342.47 106.969 1341.37 108.07 1340.01 108.07C1338.65 108.07 1337.55 106.969 1337.55 105.608Z" fill="#DA913C"/>
<path d="M1319.25 105.608C1319.25 104.248 1320.35 103.146 1321.71 103.146C1323.07 103.146 1324.17 104.248 1324.17 105.608C1324.17 106.969 1323.07 108.07 1321.71 108.07C1320.35 108.07 1319.25 106.969 1319.25 105.608Z" fill="#DA913C"/>
<path d="M1300.95 105.608C1300.95 104.248 1302.05 103.146 1303.41 103.146C1304.77 103.146 1305.87 104.248 1305.87 105.608C1305.87 106.969 1304.77 108.07 1303.41 108.07C1302.05 108.07 1300.95 106.969 1300.95 105.608Z" fill="#DA913C"/>
<path d="M1282.64 105.608C1282.64 104.248 1283.75 103.146 1285.11 103.146C1286.47 103.146 1287.57 104.248 1287.57 105.608C1287.57 106.969 1286.47 108.07 1285.11 108.07C1283.75 108.07 1282.64 106.969 1282.64 105.608Z" fill="#DA913C"/>
<path d="M1374.15 89.6537C1374.15 88.2931 1375.25 87.1918 1376.61 87.1918C1377.97 87.1918 1379.07 88.2931 1379.07 89.6537C1379.07 91.0143 1377.97 92.1156 1376.61 92.1156C1375.25 92.1156 1374.15 91.0143 1374.15 89.6537Z" fill="#DA913C"/>
<path d="M1355.85 89.6537C1355.85 88.2931 1356.95 87.1918 1358.31 87.1918C1359.67 87.1918 1360.77 88.2931 1360.77 89.6537C1360.77 91.0143 1359.67 92.1156 1358.31 92.1156C1356.95 92.1156 1355.85 91.0143 1355.85 89.6537Z" fill="#DA913C"/>
<path d="M1337.55 89.6537C1337.55 88.2931 1338.65 87.1918 1340.01 87.1918C1341.37 87.1918 1342.47 88.2931 1342.47 89.6537C1342.47 91.0143 1341.37 92.1156 1340.01 92.1156C1338.65 92.1156 1337.55 91.0143 1337.55 89.6537Z" fill="#DA913C"/>
<path d="M1319.25 89.6537C1319.25 88.2931 1320.35 87.1918 1321.71 87.1918C1323.07 87.1918 1324.17 88.2931 1324.17 89.6537C1324.17 91.0143 1323.07 92.1156 1321.71 92.1156C1320.35 92.1156 1319.25 91.0143 1319.25 89.6537Z" fill="#DA913C"/>
<path d="M1300.95 89.6537C1300.95 88.2931 1302.05 87.1918 1303.41 87.1918C1304.77 87.1918 1305.87 88.2931 1305.87 89.6537C1305.87 91.0143 1304.77 92.1156 1303.41 92.1156C1302.05 92.1156 1300.95 91.0143 1300.95 89.6537Z" fill="#DA913C"/>
<path d="M1282.64 89.6537C1282.64 88.2931 1283.75 87.1918 1285.11 87.1918C1286.47 87.1918 1287.57 88.2931 1287.57 89.6537C1287.57 91.0143 1286.47 92.1156 1285.11 92.1156C1283.75 92.1156 1282.64 91.0143 1282.64 89.6537Z" fill="#DA913C"/>
<path d="M1374.15 73.9372C1374.15 72.5766 1375.25 71.4753 1376.61 71.4753C1377.97 71.4753 1379.07 72.5766 1379.07 73.9372C1379.07 75.2979 1377.97 76.3991 1376.61 76.3991C1375.25 76.3991 1374.15 75.2979 1374.15 73.9372Z" fill="#DA913C"/>
<path d="M1355.85 73.9372C1355.85 72.5766 1356.95 71.4753 1358.31 71.4753C1359.67 71.4753 1360.77 72.5766 1360.77 73.9372C1360.77 75.2979 1359.67 76.3991 1358.31 76.3991C1356.95 76.3991 1355.85 75.2979 1355.85 73.9372Z" fill="#DA913C"/>
<path d="M1337.55 73.9372C1337.55 72.5766 1338.65 71.4753 1340.01 71.4753C1341.37 71.4753 1342.47 72.5766 1342.47 73.9372C1342.47 75.2979 1341.37 76.3991 1340.01 76.3991C1338.65 76.3991 1337.55 75.2979 1337.55 73.9372Z" fill="#DA913C"/>
<path d="M1319.25 73.9372C1319.25 72.5766 1320.35 71.4753 1321.71 71.4753C1323.07 71.4753 1324.17 72.5766 1324.17 73.9372C1324.17 75.2979 1323.07 76.3991 1321.71 76.3991C1320.35 76.3991 1319.25 75.2979 1319.25 73.9372Z" fill="#DA913C"/>
<path d="M1300.95 73.9372C1300.95 72.5766 1302.05 71.4753 1303.41 71.4753C1304.77 71.4753 1305.87 72.5766 1305.87 73.9372C1305.87 75.2979 1304.77 76.3991 1303.41 76.3991C1302.05 76.3991 1300.95 75.2979 1300.95 73.9372Z" fill="#DA913C"/>
<path d="M1282.64 73.9372C1282.64 72.5766 1283.75 71.4753 1285.11 71.4753C1286.47 71.4753 1287.57 72.5766 1287.57 73.9372C1287.57 75.2979 1286.47 76.3991 1285.11 76.3991C1283.75 76.3991 1282.64 75.2979 1282.64 73.9372Z" fill="#DA913C"/>
<path d="M1374.15 57.7484C1374.15 56.3878 1375.25 55.2865 1376.61 55.2865C1377.97 55.2865 1379.07 56.3878 1379.07 57.7484C1379.07 59.109 1377.97 60.2103 1376.61 60.2103C1375.25 60.2103 1374.15 59.109 1374.15 57.7484Z" fill="#DA913C"/>
<path d="M1355.85 57.7484C1355.85 56.3878 1356.95 55.2865 1358.31 55.2865C1359.67 55.2865 1360.77 56.3878 1360.77 57.7484C1360.77 59.109 1359.67 60.2103 1358.31 60.2103C1356.95 60.2103 1355.85 59.109 1355.85 57.7484Z" fill="#DA913C"/>
<path d="M1337.55 57.7484C1337.55 56.3878 1338.65 55.2865 1340.01 55.2865C1341.37 55.2865 1342.47 56.3878 1342.47 57.7484C1342.47 59.109 1341.37 60.2103 1340.01 60.2103C1338.65 60.2103 1337.55 59.109 1337.55 57.7484Z" fill="#DA913C"/>
<path d="M1319.25 57.7484C1319.25 56.3878 1320.35 55.2865 1321.71 55.2865C1323.07 55.2865 1324.17 56.3878 1324.17 57.7484C1324.17 59.109 1323.07 60.2103 1321.71 60.2103C1320.35 60.2103 1319.25 59.109 1319.25 57.7484Z" fill="#DA913C"/>
<path d="M1300.95 57.7484C1300.95 56.3878 1302.05 55.2865 1303.41 55.2865C1304.77 55.2865 1305.87 56.3878 1305.87 57.7484C1305.87 59.109 1304.77 60.2103 1303.41 60.2103C1302.05 60.2103 1300.95 59.109 1300.95 57.7484Z" fill="#DA913C"/>
<path d="M1282.64 57.7484C1282.64 56.3878 1283.75 55.2865 1285.11 55.2865C1286.47 55.2865 1287.57 56.3878 1287.57 57.7484C1287.57 59.109 1286.47 60.2103 1285.11 60.2103C1283.75 60.2103 1282.64 59.109 1282.64 57.7484Z" fill="#DA913C"/>
<path d="M1374.15 42.0284C1374.15 40.6678 1375.25 39.5665 1376.61 39.5665C1377.97 39.5665 1379.07 40.6678 1379.07 42.0284C1379.07 43.3891 1377.97 44.4903 1376.61 44.4903C1375.25 44.4903 1374.15 43.3891 1374.15 42.0284Z" fill="#DA913C"/>
<path d="M1355.85 42.0284C1355.85 40.6678 1356.95 39.5665 1358.31 39.5665C1359.67 39.5665 1360.77 40.6678 1360.77 42.0284C1360.77 43.3891 1359.67 44.4903 1358.31 44.4903C1356.95 44.4903 1355.85 43.3891 1355.85 42.0284Z" fill="#DA913C"/>
<path d="M1337.55 42.0284C1337.55 40.6678 1338.65 39.5665 1340.01 39.5665C1341.37 39.5665 1342.47 40.6678 1342.47 42.0284C1342.47 43.3891 1341.37 44.4903 1340.01 44.4903C1338.65 44.4903 1337.55 43.3891 1337.55 42.0284Z" fill="#DA913C"/>
<path d="M1319.25 42.0284C1319.25 40.6678 1320.35 39.5665 1321.71 39.5665C1323.07 39.5665 1324.17 40.6678 1324.17 42.0284C1324.17 43.3891 1323.07 44.4903 1321.71 44.4903C1320.35 44.4903 1319.25 43.3891 1319.25 42.0284Z" fill="#DA913C"/>
<path d="M1300.95 42.0284C1300.95 40.6678 1302.05 39.5665 1303.41 39.5665C1304.77 39.5665 1305.87 40.6678 1305.87 42.0284C1305.87 43.3891 1304.77 44.4903 1303.41 44.4903C1302.05 44.4903 1300.95 43.3891 1300.95 42.0284Z" fill="#DA913C"/>
<path d="M1282.64 42.0284C1282.64 40.6678 1283.75 39.5665 1285.11 39.5665C1286.47 39.5665 1287.57 40.6678 1287.57 42.0284C1287.57 43.3891 1286.47 44.4903 1285.11 44.4903C1283.75 44.4903 1282.64 43.3891 1282.64 42.0284Z" fill="#DA913C"/>
<path d="M1428.73 201.537C1428.73 200.177 1429.83 199.075 1431.19 199.075C1432.56 199.075 1433.66 200.177 1433.66 201.537C1433.66 202.898 1432.56 203.999 1431.19 203.999C1429.83 203.999 1428.73 202.898 1428.73 201.537Z" fill="#DA913C"/>
<path d="M1410.43 201.537C1410.43 200.177 1411.53 199.075 1412.89 199.075C1414.25 199.075 1415.36 200.177 1415.36 201.537C1415.36 202.898 1414.25 203.999 1412.89 203.999C1411.53 203.999 1410.43 202.898 1410.43 201.537Z" fill="#DA913C"/>
<path d="M1392.13 201.537C1392.13 200.177 1393.23 199.075 1394.59 199.075C1395.95 199.075 1397.05 200.177 1397.05 201.537C1397.05 202.898 1395.95 203.999 1394.59 203.999C1393.23 203.999 1392.13 202.898 1392.13 201.537Z" fill="#DA913C"/>
<path d="M1428.73 185.583C1428.73 184.222 1429.83 183.121 1431.19 183.121C1432.56 183.121 1433.66 184.222 1433.66 185.583C1433.66 186.943 1432.56 188.045 1431.19 188.045C1429.83 188.045 1428.73 186.943 1428.73 185.583Z" fill="#DA913C"/>
<path d="M1410.43 185.583C1410.43 184.222 1411.53 183.121 1412.89 183.121C1414.25 183.121 1415.36 184.222 1415.36 185.583C1415.36 186.943 1414.25 188.045 1412.89 188.045C1411.53 188.045 1410.43 186.943 1410.43 185.583Z" fill="#DA913C"/>
<path d="M1392.13 185.583C1392.13 184.222 1393.23 183.121 1394.59 183.121C1395.95 183.121 1397.05 184.222 1397.05 185.583C1397.05 186.943 1395.95 188.045 1394.59 188.045C1393.23 188.045 1392.13 186.943 1392.13 185.583Z" fill="#DA913C"/>
<path d="M1428.73 169.863C1428.73 168.502 1429.83 167.401 1431.19 167.401C1432.56 167.401 1433.66 168.502 1433.66 169.863C1433.66 171.223 1432.56 172.325 1431.19 172.325C1429.83 172.325 1428.73 171.223 1428.73 169.863Z" fill="#DA913C"/>
<path d="M1412.89 172.325C1414.25 172.325 1415.36 171.222 1415.36 169.863C1415.36 168.503 1414.25 167.401 1412.89 167.401C1411.53 167.401 1410.43 168.503 1410.43 169.863C1410.43 171.222 1411.53 172.325 1412.89 172.325Z" fill="#DA913C"/>
<path d="M1394.59 172.325C1395.95 172.325 1397.05 171.222 1397.05 169.863C1397.05 168.503 1395.95 167.401 1394.59 167.401C1393.23 167.401 1392.13 168.503 1392.13 169.863C1392.13 171.222 1393.23 172.325 1394.59 172.325Z" fill="#DA913C"/>
<path d="M1428.73 153.678C1428.73 152.317 1429.83 151.216 1431.19 151.216C1432.56 151.216 1433.66 152.317 1433.66 153.678C1433.66 155.038 1432.56 156.139 1431.19 156.139C1429.83 156.139 1428.73 155.038 1428.73 153.678Z" fill="#DA913C"/>
<path d="M1412.89 156.139C1414.25 156.139 1415.36 155.037 1415.36 153.678C1415.36 152.318 1414.25 151.216 1412.89 151.216C1411.53 151.216 1410.43 152.318 1410.43 153.678C1410.43 155.037 1411.53 156.139 1412.89 156.139Z" fill="#DA913C"/>
<path d="M1394.59 156.139C1395.95 156.139 1397.05 155.037 1397.05 153.678C1397.05 152.318 1395.95 151.216 1394.59 151.216C1393.23 151.216 1392.13 152.318 1392.13 153.678C1392.13 155.037 1393.23 156.139 1394.59 156.139Z" fill="#DA913C"/>
<path d="M1428.73 137.958C1428.73 136.597 1429.83 135.496 1431.19 135.496C1432.56 135.496 1433.66 136.597 1433.66 137.958C1433.66 139.318 1432.56 140.419 1431.19 140.419C1429.83 140.419 1428.73 139.318 1428.73 137.958Z" fill="#DA913C"/>
<path d="M1410.43 137.958C1410.43 136.597 1411.53 135.496 1412.89 135.496C1414.25 135.496 1415.36 136.597 1415.36 137.958C1415.36 139.318 1414.25 140.419 1412.89 140.419C1411.53 140.419 1410.43 139.318 1410.43 137.958Z" fill="#DA913C"/>
<path d="M1392.13 137.958C1392.13 136.597 1393.23 135.496 1394.59 135.496C1395.95 135.496 1397.05 136.597 1397.05 137.958C1397.05 139.318 1395.95 140.419 1394.59 140.419C1393.23 140.419 1392.13 139.318 1392.13 137.958Z" fill="#DA913C"/>
<path d="M1374.15 201.537C1374.15 200.177 1375.25 199.075 1376.61 199.075C1377.97 199.075 1379.07 200.177 1379.07 201.537C1379.07 202.898 1377.97 203.999 1376.61 203.999C1375.25 203.999 1374.15 202.898 1374.15 201.537Z" fill="#DA913C"/>
<path d="M1355.85 201.537C1355.85 200.177 1356.95 199.075 1358.31 199.075C1359.67 199.075 1360.77 200.177 1360.77 201.537C1360.77 202.898 1359.67 203.999 1358.31 203.999C1356.95 203.999 1355.85 202.898 1355.85 201.537Z" fill="#DA913C"/>
<path d="M1337.55 201.537C1337.55 200.177 1338.65 199.075 1340.01 199.075C1341.37 199.075 1342.47 200.177 1342.47 201.537C1342.47 202.898 1341.37 203.999 1340.01 203.999C1338.65 203.999 1337.55 202.898 1337.55 201.537Z" fill="#DA913C"/>
<path d="M1319.25 201.537C1319.25 200.177 1320.35 199.075 1321.71 199.075C1323.07 199.075 1324.17 200.177 1324.17 201.537C1324.17 202.898 1323.07 203.999 1321.71 203.999C1320.35 203.999 1319.25 202.898 1319.25 201.537Z" fill="#DA913C"/>
<path d="M1300.95 201.537C1300.95 200.177 1302.05 199.075 1303.41 199.075C1304.77 199.075 1305.87 200.177 1305.87 201.537C1305.87 202.898 1304.77 203.999 1303.41 203.999C1302.05 203.999 1300.95 202.898 1300.95 201.537Z" fill="#DA913C"/>
<path d="M1282.64 201.537C1282.64 200.177 1283.75 199.075 1285.11 199.075C1286.47 199.075 1287.57 200.177 1287.57 201.537C1287.57 202.898 1286.47 203.999 1285.11 203.999C1283.75 203.999 1282.64 202.898 1282.64 201.537Z" fill="#DA913C"/>
<path d="M1374.15 185.583C1374.15 184.222 1375.25 183.121 1376.61 183.121C1377.97 183.121 1379.07 184.222 1379.07 185.583C1379.07 186.943 1377.97 188.045 1376.61 188.045C1375.25 188.045 1374.15 186.943 1374.15 185.583Z" fill="#DA913C"/>
<path d="M1355.85 185.583C1355.85 184.222 1356.95 183.121 1358.31 183.121C1359.67 183.121 1360.77 184.222 1360.77 185.583C1360.77 186.943 1359.67 188.045 1358.31 188.045C1356.95 188.045 1355.85 186.943 1355.85 185.583Z" fill="#DA913C"/>
<path d="M1337.55 185.583C1337.55 184.222 1338.65 183.121 1340.01 183.121C1341.37 183.121 1342.47 184.222 1342.47 185.583C1342.47 186.943 1341.37 188.045 1340.01 188.045C1338.65 188.045 1337.55 186.943 1337.55 185.583Z" fill="#DA913C"/>
<path d="M1319.25 185.583C1319.25 184.222 1320.35 183.121 1321.71 183.121C1323.07 183.121 1324.17 184.222 1324.17 185.583C1324.17 186.943 1323.07 188.045 1321.71 188.045C1320.35 188.045 1319.25 186.943 1319.25 185.583Z" fill="#DA913C"/>
<path d="M1300.95 185.583C1300.95 184.222 1302.05 183.121 1303.41 183.121C1304.77 183.121 1305.87 184.222 1305.87 185.583C1305.87 186.943 1304.77 188.045 1303.41 188.045C1302.05 188.045 1300.95 186.943 1300.95 185.583Z" fill="#DA913C"/>
<path d="M1282.64 185.583C1282.64 184.222 1283.75 183.121 1285.11 183.121C1286.47 183.121 1287.57 184.222 1287.57 185.583C1287.57 186.943 1286.47 188.045 1285.11 188.045C1283.75 188.045 1282.64 186.943 1282.64 185.583Z" fill="#DA913C"/>
<path d="M1376.61 172.325C1377.97 172.325 1379.08 171.222 1379.08 169.863C1379.08 168.503 1377.97 167.401 1376.61 167.401C1375.26 167.401 1374.15 168.503 1374.15 169.863C1374.15 171.222 1375.26 172.325 1376.61 172.325Z" fill="#DA913C"/>
<path d="M1358.31 172.325C1359.67 172.325 1360.78 171.222 1360.78 169.863C1360.78 168.503 1359.67 167.401 1358.31 167.401C1356.95 167.401 1355.85 168.503 1355.85 169.863C1355.85 171.222 1356.95 172.325 1358.31 172.325Z" fill="#DA913C"/>
<path d="M1340.01 172.325C1341.37 172.325 1342.47 171.222 1342.47 169.863C1342.47 168.503 1341.37 167.401 1340.01 167.401C1338.65 167.401 1337.55 168.503 1337.55 169.863C1337.55 171.222 1338.65 172.325 1340.01 172.325Z" fill="#DA913C"/>
<path d="M1321.71 172.325C1323.07 172.325 1324.17 171.222 1324.17 169.863C1324.17 168.503 1323.07 167.401 1321.71 167.401C1320.35 167.401 1319.25 168.503 1319.25 169.863C1319.25 171.222 1320.35 172.325 1321.71 172.325Z" fill="#DA913C"/>
<path d="M1300.95 169.863C1300.95 168.502 1302.05 167.401 1303.41 167.401C1304.77 167.401 1305.87 168.502 1305.87 169.863C1305.87 171.223 1304.77 172.325 1303.41 172.325C1302.05 172.325 1300.95 171.223 1300.95 169.863Z" fill="#DA913C"/>
<path d="M1285.11 172.325C1286.47 172.325 1287.57 171.222 1287.57 169.863C1287.57 168.503 1286.47 167.401 1285.11 167.401C1283.75 167.401 1282.64 168.503 1282.64 169.863C1282.64 171.222 1283.75 172.325 1285.11 172.325Z" fill="#DA913C"/>
<path d="M1376.61 156.139C1377.97 156.139 1379.08 155.037 1379.08 153.678C1379.08 152.318 1377.97 151.216 1376.61 151.216C1375.26 151.216 1374.15 152.318 1374.15 153.678C1374.15 155.037 1375.26 156.139 1376.61 156.139Z" fill="#DA913C"/>
<path d="M1358.31 156.139C1359.67 156.139 1360.78 155.037 1360.78 153.678C1360.78 152.318 1359.67 151.216 1358.31 151.216C1356.95 151.216 1355.85 152.318 1355.85 153.678C1355.85 155.037 1356.95 156.139 1358.31 156.139Z" fill="#DA913C"/>
<path d="M1340.01 156.139C1341.37 156.139 1342.47 155.037 1342.47 153.678C1342.47 152.318 1341.37 151.216 1340.01 151.216C1338.65 151.216 1337.55 152.318 1337.55 153.678C1337.55 155.037 1338.65 156.139 1340.01 156.139Z" fill="#DA913C"/>
<path d="M1321.71 156.139C1323.07 156.139 1324.17 155.037 1324.17 153.678C1324.17 152.318 1323.07 151.216 1321.71 151.216C1320.35 151.216 1319.25 152.318 1319.25 153.678C1319.25 155.037 1320.35 156.139 1321.71 156.139Z" fill="#DA913C"/>
<path d="M1300.95 153.678C1300.95 152.317 1302.05 151.216 1303.41 151.216C1304.77 151.216 1305.87 152.317 1305.87 153.678C1305.87 155.038 1304.77 156.139 1303.41 156.139C1302.05 156.139 1300.95 155.038 1300.95 153.678Z" fill="#DA913C"/>
<path d="M1285.11 156.139C1286.47 156.139 1287.57 155.037 1287.57 153.678C1287.57 152.318 1286.47 151.216 1285.11 151.216C1283.75 151.216 1282.64 152.318 1282.64 153.678C1282.64 155.037 1283.75 156.139 1285.11 156.139Z" fill="#DA913C"/>
<path d="M1374.15 137.958C1374.15 136.597 1375.25 135.496 1376.61 135.496C1377.97 135.496 1379.07 136.597 1379.07 137.958C1379.07 139.318 1377.97 140.419 1376.61 140.419C1375.25 140.419 1374.15 139.318 1374.15 137.958Z" fill="#DA913C"/>
<path d="M1355.85 137.958C1355.85 136.597 1356.95 135.496 1358.31 135.496C1359.67 135.496 1360.77 136.597 1360.77 137.958C1360.77 139.318 1359.67 140.419 1358.31 140.419C1356.95 140.419 1355.85 139.318 1355.85 137.958Z" fill="#DA913C"/>
<path d="M1337.55 137.958C1337.55 136.597 1338.65 135.496 1340.01 135.496C1341.37 135.496 1342.47 136.597 1342.47 137.958C1342.47 139.318 1341.37 140.419 1340.01 140.419C1338.65 140.419 1337.55 139.318 1337.55 137.958Z" fill="#DA913C"/>
<path d="M1319.25 137.958C1319.25 136.597 1320.35 135.496 1321.71 135.496C1323.07 135.496 1324.17 136.597 1324.17 137.958C1324.17 139.318 1323.07 140.419 1321.71 140.419C1320.35 140.419 1319.25 139.318 1319.25 137.958Z" fill="#DA913C"/>
<path d="M1300.95 137.958C1300.95 136.597 1302.05 135.496 1303.41 135.496C1304.77 135.496 1305.87 136.597 1305.87 137.958C1305.87 139.318 1304.77 140.419 1303.41 140.419C1302.05 140.419 1300.95 139.318 1300.95 137.958Z" fill="#DA913C"/>
<path d="M1282.64 137.958C1282.64 136.597 1283.75 135.496 1285.11 135.496C1286.47 135.496 1287.57 136.597 1287.57 137.958C1287.57 139.318 1286.47 140.419 1285.11 140.419C1283.75 140.419 1282.64 139.318 1282.64 137.958Z" fill="#DA913C"/>
</g>
</g>
<g opacity="0.3">
<path d="M17.3315 974.631C-78.2449 974.631 -156 896.881 -156 801.318C-156 705.754 -78.2449 628 17.3315 628C112.908 628 190.667 705.751 190.667 801.318C190.667 896.884 112.908 974.635 17.3315 974.635V974.631ZM17.3315 658.427C-61.4646 658.427 -125.573 722.529 -125.573 801.318C-125.573 880.106 -61.4681 944.208 17.3315 944.208C96.1312 944.208 160.236 880.106 160.236 801.318C160.236 722.529 96.1276 658.427 17.3315 658.427Z" fill="#E3C557"/>
<path d="M17.3315 939.135C-58.6685 939.135 -120.499 877.31 -120.499 801.314C-120.499 725.318 -58.6685 663.493 17.3315 663.493C93.3315 663.493 155.166 725.318 155.166 801.314C155.166 877.31 93.335 939.135 17.3315 939.135ZM17.3315 693.924C-41.8917 693.924 -90.0725 742.1 -90.0725 801.318C-90.0725 860.535 -41.8917 908.711 17.3315 908.711C76.5547 908.711 124.735 860.535 124.735 801.318C124.735 742.1 76.5547 693.924 17.3315 693.924Z" fill="#E3C557"/>
<path d="M17.3315 903.638C-39.0956 903.638 -84.999 857.735 -84.999 801.314C-84.999 744.892 -39.092 698.99 17.3315 698.99C73.755 698.99 119.666 744.892 119.666 801.314C119.666 857.735 73.7586 903.638 17.3315 903.638ZM17.3315 729.421C-22.3152 729.421 -54.572 761.675 -54.572 801.317C-54.572 840.96 -22.3152 873.214 17.3315 873.214C56.9783 873.214 89.235 840.96 89.235 801.317C89.235 761.675 56.9783 729.421 17.3315 729.421Z" fill="#E3C557"/>
</g>
<mask id="mask1_70_3726" style="mask-type:luminance" maskUnits="userSpaceOnUse" x="197" y="19" width="178" height="228">
<path d="M197 19H375V202.664C375 227.026 355.216 246.808 330.851 246.808H241.155C216.79 246.808 197.006 227.026 197.006 202.664V19H197Z" fill="white"/>
</mask>
<g mask="url(#mask1_70_3726)">
<g opacity="0.5">
<path d="M403.646 -166.59L388.544 -181.69L173.1 33.7319L188.202 48.8322L403.646 -166.59Z" fill="#ECB6A4"/>
<path d="M403.646 -104.891L388.544 -119.991L173.101 95.4305L188.202 110.531L403.646 -104.891Z" fill="#ECB6A4"/>
<path d="M403.645 -40.8122L388.543 -55.9125L173.1 159.509L188.201 174.61L403.645 -40.8122Z" fill="#ECB6A4"/>
<path d="M403.64 20.8864L388.538 5.78613L173.094 221.208L188.196 236.308L403.64 20.8864Z" fill="#ECB6A4"/>
<path d="M403.647 82.5851L388.545 67.4847L173.101 282.907L188.203 298.007L403.647 82.5851Z" fill="#ECB6A4"/>
<path d="M403.641 144.284L388.539 129.184L173.095 344.606L188.197 359.706L403.641 144.284Z" fill="#ECB6A4"/>
<path d="M403.648 205.983L388.546 190.882L173.102 406.304L188.204 421.405L403.648 205.983Z" fill="#ECB6A4"/>
</g>
</g>
<path d="M623.42 216.091C625.402 206.75 619.436 197.571 610.094 195.589C600.752 193.607 591.572 199.572 589.589 208.914C587.607 218.255 593.573 227.434 602.915 229.416C612.257 231.398 621.438 225.433 623.42 216.091Z" fill="#ECB6A4"/>
<path d="M597 815.681C613.205 815.681 626.343 802.543 626.343 786.34C626.343 770.137 613.205 757 597 757V815.681Z" fill="#DA913C"/>
<path d="M111.977 253.151C112.041 253.471 112.063 253.805 112.041 254.153L109.803 287.938C109.611 290.84 106.35 292.446 103.93 290.83L75.7876 271.998C74.8958 271.401 74.3665 270.53 74.1817 269.607C73.8691 268.022 74.5725 266.278 76.2175 265.468L106.598 250.515C108.897 249.386 111.512 250.814 111.974 253.151M119.939 251.574C119.229 247.986 116.834 244.867 113.534 243.236C110.197 241.588 106.367 241.588 103.021 243.236L72.6398 258.189C67.8185 260.562 65.1822 265.909 66.2268 271.184C66.8414 274.289 68.6356 276.971 71.279 278.74L99.4215 297.569C102.942 299.924 107.49 300.226 111.288 298.354C115.086 296.485 117.623 292.698 117.904 288.471L120.142 254.686C120.209 253.638 120.142 252.59 119.943 251.571L119.939 251.574Z" fill="#DA913C"/>
<path d="M448.013 306.001L465.372 314.595C469.103 316.442 473.437 313.557 473.171 309.401L471.934 290.071C471.668 285.915 467.003 283.606 463.535 285.915L447.412 296.651C443.945 298.96 444.278 304.154 448.009 306.001H448.013Z" fill="#DE8275"/>
<path d="M969.699 817.093C969.699 810.247 975.249 804.698 982.095 804.698C988.942 804.698 994.492 810.247 994.492 817.093V896.904C994.492 903.75 988.942 909.299 982.095 909.299C975.249 909.299 969.699 903.75 969.699 896.904V817.093ZM960 817.093V896.904C960 909.086 969.913 918.998 982.095 918.998C994.278 918.998 1004.19 909.086 1004.19 896.904V817.093C1004.19 804.912 994.278 795 982.095 795C969.913 795 960 804.912 960 817.093Z" fill="#DFCECE"/>
<path d="M769.522 484.793H715.397C710.207 484.793 706 480.587 706 475.396C706 470.206 710.207 466 715.397 466H769.522C774.713 466 778.92 470.206 778.92 475.396C778.92 480.587 774.713 484.793 769.522 484.793Z" fill="#DFCECE"/>
<path d="M1166.9 268C1145.89 268 1128.8 250.952 1128.8 230.005V200.995C1128.8 187.497 1117.78 176.512 1104.25 176.512H1099.77C1086.23 176.512 1075.22 187.497 1075.22 200.995V230.005C1075.22 250.959 1058.12 268 1037.12 268H1036C1014.99 268 997.899 250.952 997.899 230.005V200.995C997.899 187.497 986.882 176.512 973.347 176.512H971.108C957.572 176.512 946.556 187.497 946.556 200.995V218.849C946.556 222.584 943.523 225.608 939.778 225.608C936.033 225.608 933 222.584 933 218.849V200.995C933 180.041 950.096 163 971.101 163H973.34C994.352 163 1011.44 180.041 1011.44 200.995V230.005C1011.44 243.503 1022.46 254.488 1035.99 254.488H1037.11C1050.64 254.488 1061.66 243.503 1061.66 230.005V200.995C1061.66 180.041 1078.75 163 1099.76 163H1104.24C1125.25 163 1142.34 180.041 1142.34 200.995V230.005C1142.34 243.503 1153.36 254.488 1166.89 254.488C1180.43 254.488 1191.44 243.503 1191.44 230.005V218.849C1191.44 215.114 1194.48 212.09 1198.22 212.09C1201.97 212.09 1205 215.114 1205 218.849V230.005C1205 250.959 1187.91 268 1166.9 268Z" fill="#ECB6A4"/>
</svg>
