<?xml version="1.0" encoding="UTF-8"?>
<svg id="_圖層_1" data-name="圖層_1" xmlns="http://www.w3.org/2000/svg" version="1.1" viewBox="0 0 189 189">
  <!-- Generator: Adobe Illustrator 29.5.1, SVG Export Plug-In . SVG Version: 2.1.0 Build 141)  -->
  <defs>
    <style>
      .st0 {
        fill: #299ea7;
      }
    </style>
  </defs>
  <path class="st0" d="M.14,86.43C3.44,47.26,32.69,12.96,70.51,3.14c68.08-17.66,130.43,41.84,116.53,110.66-6.86,33.92-33.11,62.07-66.28,71.52v-69.74h20.29l2.95-23.62h-23.24v-19c0-1.04,1.57-4.18,2.4-4.98.92-.88,4.34-2.59,5.53-2.59h16.04v-21.4c-12.54-.53-26.55-3.11-37.38,4.86-8.95,6.59-10.89,16.53-11.33,27.04-.23,5.33.2,10.73.01,16.06h-20.29v23.06s.51.55.55.55h19.74v73.43h-9.22l-16.31-3.06C37.97,177.43,11.66,151.18,3.19,118.6L.14,102.29c.32-5.15-.43-10.79,0-15.87H.14Z"/>
</svg>