<?xml version="1.0" encoding="UTF-8"?>
<svg id="_圖層_1" data-name="圖層_1" xmlns="http://www.w3.org/2000/svg" version="1.1" viewBox="0 0 40.23 39.67">
  <!-- Generator: Adobe Illustrator 29.5.1, SVG Export Plug-In . SVG Version: 2.1.0 Build 141)  -->
  <defs>
    <style>
      .st0 {
        fill: #ff5f5f;
      }
    </style>
  </defs>
  <path class="st0" d="M20.08,25.26c-3.53,0-6.4-2.87-6.39-6.41,0-3.53,2.86-6.39,6.39-6.39.3-.02.61.02.9.1,3.47.48,5.89,3.68,5.41,7.15,0,.02,0,.03,0,.05-.49,3.12-3.15,5.43-6.3,5.5ZM20.08,13.36c-2.77.02-5.11,2.06-5.5,4.8-.42,3,1.67,5.78,4.68,6.2,1.47.21,2.95-.19,4.12-1.1,2.43-1.88,2.87-5.37,1-7.8-.87-1.15-2.17-1.91-3.6-2.1h-.7Z"/>
  <path class="st0" d="M20.38,39.66c-4.67.02-8.58-3.54-9-8.2-4.89,1.24-9.86-1.71-11.1-6.59-.9-3.54.4-7.29,3.3-9.51.53-.39,1.1-.73,1.7-1C2.5,10.18,3.64,4.55,7.82,1.77,11.61-.75,16.68-.07,19.68,3.36c.42-.57.93-1.08,1.5-1.5,3.92-3.03,9.56-2.31,12.6,1.6l.1.1c2.18,2.91,2.42,6.85.6,10,1.56.62,2.91,1.65,3.9,3,3.03,3.98,2.27,9.66-1.7,12.7-2.11,1.59-4.8,2.21-7.4,1.7-.09,2.67-1.42,5.15-3.6,6.7-1.4,1.39-3.33,2.12-5.3,2h0ZM12.08,30.36v.5c.13,4.54,3.86,8.14,8.4,8.1,4.53-.05,8.16-3.77,8.1-8.3,0-.03,0-.07,0-.1h0v-.5l.5.1c4.36,1.3,8.95-1.19,10.25-5.55s-1.19-8.95-5.55-10.25l-.5-.2.3-.5c2.5-3.79,1.46-8.89-2.33-11.39-2.9-1.92-6.69-1.8-9.47.29h0c-.67.5-1.24,1.11-1.7,1.8l-.3.5-.3-.5C16.64.8,11.45.21,7.89,3.06c0,0,0,0,0,0-3.42,2.73-4.08,7.67-1.5,11.2l.3.4-.5.2C1.92,16.45-.27,21.18,1.28,25.46c1.5,4.19,6.08,6.41,10.3,5l.5-.1h0Z"/>
</svg>