<?xml version="1.0" encoding="UTF-8"?>
<svg id="_圖層_1" data-name="圖層_1" xmlns="http://www.w3.org/2000/svg" version="1.1" viewBox="0 0 639 293">
  <!-- Generator: Adobe Illustrator 29.5.1, SVG Export Plug-In . SVG Version: 2.1.0 Build 141)  -->
  <defs>
    <style>
      .st0 {
        fill: #310305;
      }

      .st1 {
        fill: #48081f;
      }

      .st2 {
        fill: #ae998f;
      }

      .st3 {
        fill: #fcfcfc;
      }

      .st4 {
        fill: #fe4d12;
      }

      .st5 {
        fill: #f19317;
      }

      .st6 {
        fill: #369cd8;
      }

      .st7 {
        fill: #b558ff;
      }

      .st8 {
        fill: #0c0809;
      }

      .st9 {
        fill: #081932;
      }

      .st10 {
        fill: #fe7261;
      }

      .st11 {
        fill: #339cd8;
      }

      .st12 {
        fill: #00ce7f;
      }

      .st13 {
        fill: #f29417;
      }

      .st14 {
        fill: #00bcff;
      }

      .st15 {
        fill: #e50012;
      }

      .st16 {
        fill: #e63a62;
      }

      .st17 {
        fill: #a79186;
      }
    </style>
  </defs>
  <g>
    <g>
      <path class="st8" d="M576.14,125.7c34.73,0,62.88-28.14,62.88-62.85S610.86,0,576.14,0s-62.88,28.14-62.88,62.85,28.15,62.85,62.88,62.85Z"/>
      <path class="st3" d="M581.79,20.62c12.86.58,24.2,5.24,32.24,16.21,10.62,14.49,6.99,33.5-8.9,42.43-6.71,3.77-13.92,6.73-20.96,9.95-1.5.67-1.25,1.19-.5,2.19,1.05,1.41,2.05,2.91,2.99,4.41,2.27,3.55,2.13,6.93-.39,9.56-2.3,2.44-6.71,2.91-9.95,1.33-2.83-1.36-4.02-4.05-5.63-6.37-3.49-5.07-6.79-10.25-10.23-15.38-.72-1.08-.8-1.52.61-2.16,11.2-4.93,22.4-9.92,33.52-15.05,11.42-5.27,13.34-19.65,3.8-27.85-7.87-6.79-16.52-7.9-26.03-3.82-7.35,3.16-14.78,6.15-22.15,9.26-3.99,1.66-5.24,5.27-2.91,8.37,1.66,2.22,5.32,3.27,8.01,2.13,6.68-2.8,13.36-5.65,19.99-8.59,4.88-2.16,9.26-1.39,12,2.3,2.19,2.99,1.53,7.07-1.75,8.87-3,1.63-6.18,2.91-9.32,4.3-4.68,2.08-9.37,4.21-14.14,6.1-11.37,4.49-26-.44-30.72-12-3.27-7.98.17-17.65,8.18-22,4.58-2.49,9.57-4.07,14.36-6.1,4.71-2,9.51-3.82,14.28-5.71,4.21-1.64,8.62-2.22,13.56-2.38l.03.03Z"/>
    </g>
    <g>
      <path class="st9" d="M62.86,125.7c34.73,0,62.88-28.14,62.88-62.85S97.59,0,62.86,0-.01,28.14-.01,62.85s28.15,62.85,62.88,62.85Z"/>
      <path class="st11" d="M24.77,59.69v-28.16c0-1.14.06-1.19,1.19-1.19,3.05-.03,6.13-.17,9.18-.22,3.49-.08,7.01-.17,10.51,0,3.47.17,6.85.83,10.04,2.24,3.71,1.66,6.74,4.13,8.76,7.68,1.16,2.05,1.89,4.24,2.25,6.54.58,3.8.3,7.57-1,11.2-1.28,3.57-3.58,6.35-6.65,8.51-2.5,1.75-5.27,2.77-8.23,3.38-1.61.33-3.24.55-4.91.67-2.55.19-5.1.14-7.65.06h-.94c-.36-.03-.42.14-.42.44v17.54c-.03.42-.25.64-.67.69h-10.56c-.69,0-.86-.19-.89-.91v-28.46ZM36.94,50.44v8.92q0,.5.53.55c1.41.14,2.8.08,4.21.08s2.86-.08,4.24-.36c1.5-.28,2.99-.64,4.35-1.36,1.89-1.03,3.38-2.38,4.05-4.49.58-1.88.69-3.82.28-5.76-.58-2.66-2.13-4.6-4.63-5.71-1.75-.78-3.58-1.19-5.46-1.22-2.16-.06-4.32,0-6.49,0h-.64c-.3,0-.47.11-.44.44v8.92-.03Z"/>
      <path class="st6" d="M72.93,81.92v-4.96c.06-.5.33-.64.78-.39,1.11.61,2.25,1.19,3.44,1.64,2.19.8,4.44,1.36,6.74,1.66,1.28.17,2.55.25,3.83.22,1.25-.03,2.5-.17,3.69-.61.39-.14.78-.33,1.08-.64,1.03-.97,1.08-2.41.14-3.49-.72-.8-1.64-1.3-2.58-1.75-1.72-.83-3.52-1.44-5.27-2.16-2.58-1.08-5.05-2.33-7.21-4.16-2.33-1.97-3.96-4.41-4.35-7.45-.64-4.79.8-8.9,4.55-12.05,2.25-1.88,4.88-2.94,7.73-3.49,2.72-.53,5.46-.47,8.21-.33,2.22.11,4.41.33,6.57.94.67.19,1.3.42,1.97.64.58.19.83.61.83,1.19v8.87c0,.83-.42,1.14-1.33.8-.67-.25-1.28-.61-1.94-.86-1.66-.64-3.38-1.03-5.16-1.33-1.83-.3-3.66-.42-5.52-.36-.94.03-1.89.22-2.77.53-1.66.58-2.33,2.74-.97,4.16.5.5,1.03.91,1.64,1.25.91.5,1.86.94,2.83,1.36,1.55.69,3.22,1.19,4.77,1.91,2.16,1,4.32,2.05,6.21,3.52,2.97,2.36,4.49,5.43,4.52,9.26,0,2.49-.5,4.82-1.75,6.96-1.5,2.52-3.63,4.32-6.32,5.51-2.3,1.03-4.71,1.55-7.21,1.77-1.91.19-3.83.19-5.71.08-3.11-.19-6.18-.64-9.15-1.75-.5-.17-.97-.42-1.44-.61-.58-.25-.86-.67-.86-1.3v-4.6l.03.03Z"/>
    </g>
    <g>
      <path class="st0" d="M233.94,125.15c34.73,0,62.88-28.02,62.88-62.57S268.67,0,233.94,0s-62.88,28.02-62.88,62.57,28.15,62.57,62.88,62.57Z"/>
      <path class="st2" d="M189.7,125.67v-.14c.5,0,1,0,1.5.14h-1.5Z"/>
      <path class="st17" d="M279.91,125.56s-.08.08-.03.14h-1.61c.53-.08,1.08-.14,1.64-.14Z"/>
      <path class="st13" d="M243.79,88.51h-5.38c-.8,0-.97-.11-1.22-.89-1.39-4.02-2.8-8.06-4.19-12.08-.22-.64-.22-.53-.72-.53h-19.24c-.55,0-.47-.06-.64.5-.94,2.88-1.86,5.76-2.8,8.65-.39,1.16-.75,2.36-1.14,3.52-.22.67-.47.86-1.16.86h-9.84c-.89,0-1.11-.3-.83-1.16,1-2.88,2.02-5.76,3.02-8.65,2.8-8.01,5.6-16.05,8.4-24.05,2-5.71,3.99-11.42,5.99-17.1.58-1.63.94-3.33.91-5.07,0-1,.08-1.05,1.05-1.05h13.31c.69,0,.78.06,1,.69,2.69,7.57,5.38,15.1,8.07,22.67,2.61,7.26,5.18,14.55,7.79,21.81,1.28,3.6,2.58,7.21,3.85,10.81.03.11.08.19.08.3.11.55,0,.75-.61.78h-5.71ZM222.52,41.49c-.14.17-.14.36-.19.55-.36,1.64-.75,3.27-1.25,4.88-.86,2.8-1.75,5.63-2.61,8.42-.83,2.66-1.55,5.35-2.49,7.95-.06.17-.11.33-.17.5-.06.17,0,.28.19.28h12.97q.64,0,.44-.61c-.31-1-.67-1.97-.97-2.97-1.91-6.12-3.96-12.22-5.66-18.43-.05-.19-.03-.42-.25-.55l-.03-.03Z"/>
      <path class="st5" d="M255.87,66.81v-20.67c0-.72.17-.86.89-.86h10.42c.69,0,.89.19.89.86v41.87c-.06.36-.28.53-.67.55h-10.67c-.55,0-.8-.28-.83-.83v-20.89l-.03-.03Z"/>
      <path class="st2" d="M188.67,125.4s-.17.03-.25-.03c.08-.06.17-.03.25.03Z"/>
      <path class="st17" d="M281.3,125.34s-.17.11-.28.06c.08-.08.17-.08.28-.06Z"/>
      <path class="st2" d="M189.28,125.48s-.14.03-.22,0c.08-.06.14-.06.22,0Z"/>
      <path class="st17" d="M280.6,125.45s-.14.11-.22,0c.05-.08.14-.08.22,0Z"/>
    </g>
    <g>
      <path class="st1" d="M404.86,125.7c34.73,0,62.88-28.14,62.88-62.85S439.59,0,404.86,0s-62.88,28.14-62.88,62.85,28.15,62.85,62.88,62.85Z"/>
      <path class="st16" d="M436.44,56.89v27.1c0,1.25.19,2.38-1.47,2.97-8.04,2.88-16.22,4.07-24.56,1.77-11.03-3.05-15.83-12.55-14.64-23.39,1.47-13.27,12.01-21.73,25.67-21.01,2.22.11,2.55-.5,2.49-2.41-.11-4.32.03-8.65-.05-12.97-.03-1.72.47-2.44,2.27-2.33,2.5.14,5.02.17,7.49,0,2.05-.14,2.61.61,2.58,2.6-.08,9.23-.03,18.46-.03,27.68h.25v-.03ZM423.91,66.98c0-3.27-.11-6.54.03-9.81.08-2-.61-2.74-2.61-2.74-5.1,0-9.45,1.72-11.81,6.29-2.5,4.82-2.16,9.95.94,14.49,2.88,4.21,7.4,4.24,11.92,4.07,1.64-.06,1.5-1.14,1.5-2.22v-10.09h.03Z"/>
      <path class="st16" d="M374.78,60.11c0-8.76.05-17.49-.03-26.24,0-2.05.64-2.72,2.63-2.58,2.3.14,4.63.17,6.93,0,2.14-.17,2.86.53,2.8,2.72-.14,5.18-.06,10.39-.06,15.57,0,12.22-.05,24.41.06,36.64,0,2.41-.69,3.27-3.08,3.05-2.11-.19-4.24-.17-6.35,0-2.24.19-2.99-.55-2.94-2.88.14-8.76.05-17.49.05-26.24l-.03-.03Z"/>
    </g>
  </g>
  <g>
    <g>
      <path d="M180.48,213.36v16.1c0,1.44-.47,2.66-1.86,3.33-1.11.53-2.19.39-3.22-.3-1.05-.69-1.33-1.75-1.33-2.94v-41.12c0-1.28.11-2.49,1.47-3.05,1.41-.58,2.8-.5,4.07.5.39.3.94.53,1.41.53,7.98.03,16,.03,23.98,0,.5,0,1.11-.17,1.44-.47,1.16-1.08,2.49-1.08,3.8-.64,1.39.47,1.77,1.75,1.8,3.05.03,7.7.03,15.43,0,23.14,0,1.25-.36,2.44-1.72,2.94-1.41.53-2.72.44-3.88-.66-.3-.28-.78-.47-1.16-.47h-23.98c-.22,0-.44.06-.8.11l-.03-.03ZM205.48,208.68v-17.74h-24.92v17.74h24.92Z"/>
      <path d="M242.58,191.11v38.44c0,1.77-.64,2.74-2.08,3.27-1.39.5-2.88.22-3.6-1-.5-.83-.78-1.94-.78-2.91-.06-12-.03-24-.06-36v-1.83h-13.28c-1.89,0-2.77-.94-2.61-2.63.11-1.19.75-1.91,1.97-2.02.5-.06,1-.06,1.5-.06h26.56c.8,0,1.41-.11,1.91-.89.8-1.25,2.41-1.61,3.88-1.08,1.39.47,2.27,1.8,2.24,3.35-.03,1.44-.94,2.69-2.36,3.1-.58.17-1.25.22-1.86.22h-11.45v.03Z"/>
      <path d="M139.81,226.97c.61,0,1.05.06,1.5.06h15.72c.8,0,1.39-.08,1.89-.89.8-1.33,2.61-1.72,4.1-1.14,1.36.53,2.16,2.05,2,3.77-.11,1.36-1.19,2.44-2.74,2.71-.66.11-1.33.19-2,.19-6.54,0-13.08,0-19.66.03-.64,0-1.36.3-1.94.66-1.22.8-2.47.89-3.71.31-1.22-.55-1.47-1.66-1.47-2.94v-41.26c0-2.22,1.08-3.46,3.05-3.46s3.24,1.28,3.24,3.46v38.44l.03.06Z"/>
      <path class="st15" d="M197.55,199.87c0,2.72-1.83,4.57-4.57,4.57-2.58,0-4.66-2.05-4.63-4.6.03-2.58,2.08-4.63,4.66-4.63s4.55,1.99,4.55,4.66Z"/>
      <path d="M330.05,236.95v-1.76l11.92-1.76h5.84l12,1.76v1.76h-29.77ZM339.17,236.95c.11-1.39.19-3.04.24-4.96.11-1.92.16-3.92.16-6v-33.67l-8.16.72v-1.68l18.01-5.6,1.12.8-.32,16.15v23.27c.05,2.08.11,4.08.16,6,.05,1.92.16,3.57.32,4.96h-11.52Z"/>
      <path d="M275.48,236.95v-1.76l6.16-.8h1.84l6.64.8v1.76h-14.64ZM281.33,236.95v-51.18h2.4v51.18h-2.4ZM307.34,186.09v-1.68h14.49v1.68l-5.6.8h-1.84l-7.04-.8ZM311.98,237.11l-28.33-44.14h-.08l-4-6.24-4.08-.64v-1.68h15.77l24.57,38.14h-1.68v-38.14h2.48v52.7h-4.64Z"/>
    </g>
    <g>
      <path class="st7" d="M441.32,148.08c.2,0,.39,0,.59,0,.65,0,1.3,0,1.95,0,.47,0,.94,0,1.4,0,1.53,0,3.07,0,4.6,0,.53,0,1.06,0,1.59,0,2.49,0,4.98,0,7.47,0,2.87,0,5.73,0,8.6-.02,2.22,0,4.44-.01,6.66-.01,1.32,0,2.65,0,3.97,0,1.25,0,2.5,0,3.74,0,.45,0,.91,0,1.36,0,3.54-.02,6.94.3,10.12,2.03.16.08.32.17.49.25,1.35.72,2.61,1.54,3.82,2.48.25.18.49.36.75.55,4.07,3.54,6.35,8.98,6.76,14.25.33,5.44-1.31,10.94-4.92,15.07-3.44,3.74-7.32,5.7-12.11,7.24.22.05.44.1.66.15,5.59,1.34,10.31,4.43,13.48,9.28,3.1,5.07,3.92,10.9,2.59,16.67-1.36,5.25-4.87,9.98-9.53,12.75-5.18,2.95-10.96,3.62-16.72,2.17-3.13-.96-5.85-2.48-8.3-4.64q-.28-.24-.56-.49c-2.6-2.43-4.43-5.68-5.43-9.07-.07-.22-.13-.44-.2-.67-.05-.17-.1-.34-.15-.51,0,.2,0,.4,0,.6,0,4.85-.02,9.7-.04,14.55,0,2.35-.02,4.69-.02,7.03,0,2.05-.01,4.09-.02,6.14,0,1.08-.01,2.16,0,3.24,0,1.02,0,2.04-.01,3.07,0,.37,0,.74,0,1.11.01,3.43-.42,7.02-2,10.11-.08.17-.17.34-.25.51-2.51,4.92-6.77,8.49-11.95,10.35-5.31,1.66-11.23,1.47-16.25-1.01-1.57-.82-2.99-1.81-4.35-2.96-.2-.15-.4-.31-.6-.46-3.91-3.25-6.16-8.64-6.62-13.6-.44-5.57,1.12-11.1,4.77-15.4.17-.19.33-.38.51-.57.16-.18.32-.36.48-.55,3.11-3.34,7.13-5.12,11.48-6.28q-.33-.07-.66-.15c-5.72-1.37-10.54-4.59-13.68-9.64-2.9-4.91-3.71-10.77-2.32-16.3,1.62-5.48,4.85-10.09,9.83-12.99,2.17-1.15,4.42-1.96,6.84-2.44-.25-.07-.51-.13-.77-.2-3.64-.98-6.92-2.35-9.73-4.93-.2-.18-.4-.36-.61-.54-3.92-3.68-6.27-8.95-6.5-14.32-.12-6.01,1.85-11.42,6-15.77,3.69-3.67,8.58-6.03,13.83-6.03ZM463.75,189.86v16.85h.24c.07-.26.13-.51.2-.78.96-3.61,2.4-6.67,4.93-9.48.14-.17.29-.33.44-.51,2.99-3.24,7.1-4.83,11.28-5.84v-.24h-17.09Z"/>
      <path class="st4" d="M441.32,148.08c.2,0,.39,0,.59,0,.65,0,1.3,0,1.95,0,.47,0,.94,0,1.4,0,1.53,0,3.07,0,4.6,0,.53,0,1.06,0,1.59,0,2.49,0,4.98,0,7.47,0,2.87,0,5.73,0,8.6-.02,2.22,0,4.44-.01,6.66-.01,1.32,0,2.65,0,3.97,0,1.25,0,2.5,0,3.74,0,.45,0,.91,0,1.36,0,3.54-.02,6.94.3,10.12,2.03.16.08.32.17.49.25,1.35.72,2.61,1.54,3.82,2.48.25.18.49.36.75.55,4.07,3.54,6.35,8.98,6.76,14.25.33,5.44-1.31,10.94-4.92,15.07-3.88,4.22-8.83,7.03-14.64,7.31-1.2.04-2.39.03-3.58.03-.46,0-.91,0-1.37,0-1.23,0-2.45,0-3.68,0-1.03,0-2.06,0-3.09,0-2.43,0-4.86,0-7.29,0-2.5,0-4.99,0-7.49,0-2.15,0-4.3,0-6.46,0-1.28,0-2.56,0-3.85,0-1.21,0-2.41,0-3.62,0-.44,0-.88,0-1.32,0-6.23.03-11.79-1.73-16.34-6.15-3.88-3.93-5.98-9.27-6.09-14.75.07-5.9,2.2-11.19,6.39-15.35,3.69-3.43,8.36-5.65,13.45-5.65Z"/>
      <path class="st10" d="M463.75,148.11c3.83-.02,7.65-.04,11.6-.06,1.2,0,2.4-.02,3.64-.03q1.48,0,2.18,0c.48,0,.96,0,1.44,0,3.79-.04,7.36.16,10.77,2.01.16.08.32.17.49.25,1.35.72,2.61,1.54,3.82,2.48.25.18.49.36.75.55,4.07,3.54,6.35,8.98,6.76,14.25.33,5.44-1.31,10.94-4.92,15.07-3.87,4.21-8.83,7.04-14.63,7.31-1.18.03-2.35.03-3.53.02-.45,0-.9,0-1.34,0-1.2,0-2.41,0-3.61,0-1.26,0-2.52,0-3.79,0-2.39,0-4.77,0-7.16-.01-2.72,0-5.44-.01-8.16-.02-5.59,0-11.18-.02-16.77-.04v-.24h22.46v-41.5Z"/>
      <path class="st12" d="M445.8,231.29c.52,0,1.04,0,1.56,0,1.36,0,2.71,0,4.07.02,1.39,0,2.78.01,4.17.01,2.72,0,5.43.02,8.15.04.02,2.98.04,5.96.05,8.94,0,1.38.01,2.77.02,4.15.01,1.34.02,2.68.02,4.02,0,.51,0,1.02,0,1.52.04,3.89-.17,7.81-1.96,11.35q-.12.25-.25.51c-2.51,4.92-6.77,8.49-11.95,10.35-5.31,1.66-11.23,1.47-16.25-1.01-1.57-.82-2.99-1.81-4.35-2.96-.2-.15-.4-.31-.6-.46-3.91-3.25-6.16-8.64-6.62-13.6-.44-5.57,1.12-11.1,4.77-15.4.17-.19.33-.38.51-.57.16-.18.32-.36.48-.55,4.93-5.29,11.27-6.41,18.18-6.36Z"/>
      <path class="st14" d="M497.82,194.24c4.22,3.53,6.77,8.27,7.62,13.7.39,6.13-.94,11.79-5.06,16.53-4.01,4.42-9.02,6.79-14.98,7.19-5.6.15-10.84-1.72-15.06-5.43-.19-.16-.37-.32-.56-.49-3.53-3.3-5.96-8.3-6.17-13.12,0-.65,0-1.31,0-1.96,0-.17,0-.34,0-.52.05-5.27,1.69-9.74,5.26-13.69.16-.18.32-.37.49-.56,2.12-2.27,4.91-3.97,7.81-5.05.24-.1.48-.19.72-.29,6.75-2.26,14.39-.57,19.92,3.7Z"/>
    </g>
  </g>
</svg>