<?xml version="1.0" encoding="UTF-8"?>
<svg id="_圖層_1" data-name="圖層_1" xmlns="http://www.w3.org/2000/svg" version="1.1" viewBox="0 0 190 189">
  <!-- Generator: Adobe Illustrator 29.5.1, SVG Export Plug-In . SVG Version: 2.1.0 Build 141)  -->
  <defs>
    <style>
      .st0 {
        fill: #299ea7;
      }
    </style>
  </defs>
  <path class="st0" d="M88.99.17c76.18-4.38,126.38,78.86,85.93,144.08-35.32,56.94-117.54,59.82-156.77,5.44C-25.31,89.43,15.2,4.4,88.98.17h0ZM68.98,36.79c-21.62,1.58-31.79,14.56-32.78,35.55-.65,13.56-.65,30.64,0,44.2,1.01,21.25,11.55,34.28,33.43,35.66,33.34-2.83,81.3,13.3,83.63-35.66.65-13.62.68-30.95-.02-44.56-1.09-21.34-11.91-34.05-33.77-35.32-16.55.81-34.06-1.07-50.49.13h0Z"/>
  <path class="st0" d="M69.36,47.73c17.15-1.35,36.18.43,53.45.32,12.24,1.78,18.29,9.64,19.49,21.66-.87,16.12,1.18,33.47,0,49.45-1.02,13.75-9.33,21.16-22.84,22.09-15.93,1.1-33.04-.83-49.09.02-13.52-.45-22.2-8.58-23.2-22.11-1.25-16.87.53-35.78.48-52.74,2.17-11.92,9.91-17.75,21.71-18.69h0ZM124.08,57.91c-3.66.67-5.46,4.87-4.23,8.21,2.28,6.14,11.44,4.59,11.89-1.69.32-4.39-3.44-7.29-7.66-6.51h0ZM90.49,63.96c-21.22,2.25-32.84,26.98-22.63,45.45,11.6,21,42.53,20.91,53.87-.25,12.11-22.59-6.05-47.88-31.24-45.21Z"/>
  <path class="st0" d="M91.24,74.9c24.61-3.33,31.9,29.86,10.76,37.94-16.35,6.25-32.08-9.71-25.58-25.95,2.34-5.84,8.48-11.13,14.81-11.99Z"/>
</svg>