<?xml version="1.0" encoding="UTF-8"?>
<svg id="_圖層_1" xmlns="http://www.w3.org/2000/svg" version="1.1" viewBox="0 0 1579 1579">
  <!-- Generator: Adobe Illustrator 29.5.1, SVG Export Plug-In . SVG Version: 2.1.0 Build 141)  -->
  <defs>
    <style>
      .st0 {
        fill: #b4d07e;
      }

      .st1 {
        fill: #0467b5;
      }

      .st2 {
        fill: #f5be06;
      }

      .st3 {
        fill: #a5a952;
      }

      .st4 {
        fill: #1669a3;
      }

      .st5 {
        fill: #0c68b0;
      }

      .st6 {
        fill: #0e69b0;
      }

      .st7 {
        fill: #0f69b0;
      }

      .st8 {
        fill: #61792e;
      }

      .st9 {
        fill: #236d92;
      }

      .st10 {
        fill: #e9bc19;
      }

      .st11 {
        fill: #f7be04;
      }

      .st12 {
        fill: #eabd16;
      }

      .st13 {
        fill: #f0bc0c;
      }
    </style>
  </defs>
  <path class="st1" d="M524.98,1103.47c-6.47.73-12.98,1.28-19.45,2.05l-392.54-.05,153-631.99h569l-109,454c-2.59-1.72-1.59-1.06-2.45,1.01-2.06,4.93-2.25,9.85-3.59,14.44-.64,2.19-2.51,3.85-1.97,6.55l-1.98-1.99c-.92,3.2-1.23,8.42-2.06,11.27-.92,3.19-12.04,22.83-14.31,26.36-1.14,1.78-3.93,5.8-5.64,6.38l1.98,1.97c-2.51-.47-1.75,2.51-3.04,3.49-1.82,1.39-3.73,2.33-4.9,5.27-.44,1.1.31,3.14-.48,4.33-.84,1.28-4.3.57-5.15,1.86-.72,1.09-.15,3.23-.73,4.81-.17.46-6.45,5.33-7.27,6.65-1.09,1.76-1.54,4.03-2.43,5.61-.45.02-1.47-1.52-2.98-.52-2.77,1.84-3.35,5.91-5.04,8.51l-1.97-1.98c-.41,3.27-6.03,3.63-4.01,7.98-8.19-.56-4.66.02-6.3,3.73-.82,1.85-11.02,8.88-11.5,9.55-3.37,4.74-3.99,2.56-7.89,5.04-.96.61-3.83,4.96-4.6,5.38-1.1.6-2.94-.05-3.54.46-.51.42-.09,2.66-1.11,3.38-1.12.8-3.55.19-5.08.95-1.35.67-1.45,2.68-2.26,3.23-1.01.68-4.8,1.25-6.86,2.41-1.3.73-2.94,3.69-3.58,3.82-1.63.33-6.99-.28-7.28.03-.35.37.37,3.63.01,4.02-.57.63-4.88-1.61-4.01,1.99-.33.03-.67-.04-1,0-.92.11-3.67-.81-6.21.1-1.24.45-2.68,3.7-3.51,3.86-7.07,1.33-10.31,1.66-16.95,4.38-.91.37-6.57,3.54-7.01,3.64-4.6,1.11-12.8.94-17.63,2.04-.8.18-.27,1.81-2.12,2.06-3.13.41-8.34-.81-11.01-.15-.48.12-.63,4.02-3.56,4.07h.01ZM505.98,655.47c-70.42-2.09-129.84,22.96-173.96,75.56-51.53,61.43-62.94,151.88-27.75,224.65,1.7,3.52,12.82,24.38,14.71,25.29,13.08-.21,30.95,3.08,42.91-2.11,10.95-4.75,20.35-19.11,8.61-28.36-9.62-7.58-29.99-12.31-41.77-19.06-8.83-5.06-24.5-17.98-28.22-28-9.69-26.14,5.83-39.53,28.48-46.98,5.68,1.43.18,6.32,7,5.01-.89-6.11,1.62-3.26,6.22-4.29,2.37-.53,5.3-2.34,7.22-3.79h177.13c4.5,4.57,3.65.27,5.87,0l91.57.08c.14.13,1.73-.44,2.02.65.4,1.53.3,11.84.04,13.89-.18,1.43-1.96,2.3-2.8,3.41l-73.27.04v7.01c-9.94,26.08-11.95,60.88-21.75,87.74,0,4.26-1.42,8.17-2.24,12.26-3.11,1.06-1.53,4.24-2.03,6.3-.15.62-3.83,8.82-3.95,9.38-.8,3.58,1.54,6.64-2.75,9.27l-53.8.11c-3.87-1.17-2.82-3.94-3.46-6.06l28-115,2-10c-1.04-1.66-3.8-1-5.49-1.02-34.97-.37-71.68-1.12-106.51.02-2.24.07-5.39-.44-7.3.03-.68.17-.68,1.5-1.02,1.63-1.18.48-2.66.16-3.37.63-.36.24-5.86,5.56-6.03,5.95-.58,1.39-.6,8.51-.36,10.32s1.88,1.29,2.07,2.12c.32,1.44-.27,3.13.05,4.59.13.62,4.9,4.06,5.65,5.04.59.76.06,2.58.64,3.37.2.27,4.08,4.22,4.38,4.29,3.78.93,3.18-1.77,3.94-1.97,3.49-.92,3.25,1.47,3.68,1.66,4.64,2.08,8.63,3.27,12.68,3.33,2.14.04,3.28,2.26,7,2l4.69,4.98c6.24,1.41,13.7,5.39,19.31,8.02,1.4.65,6.85,5.11,7.68,6.31.19.27,2.71,5.08,2.91,5.56,4.08,9.6,5.06,20.41.94,30.2-3.69,8.79-11.73,16.64-20.23,21.73-21.14,12.66-47.76,14.5-71.82,16.19-1.09.08-3.33-.56-2.48,1.49.4.96,9.34,9.52,10.98,11.03,29.61,27.27,77.46,50.88,118.01,53.49-.56,3.02,1.53,1.94,3.45,2,14.65.49,29.38-.37,44.04,0l-1.5-1v-1c5.14-.25,9.01-.62,14-2,2.85-.38,6.69.59,9.32-.02.8-.19.26-1.81,2.12-2.06,5.46-.72,5.44.69,10.89-1.58,8.41-3.5,18.07-6.46,26.95-8.37.87-.19,2.57-3.74,3.45-3.93,3.8-.82,9.24-2.06,12.96-4.36,1.78-1.1,6.78-6.18,8.55-7.3.88-.56,6.05-.56,5.76-4.37,1.59-.53,6.07-1.27,7.69-2.32,1.09-.71,5.79-5.99,6.31-7.68,2.88-1.39,13.9-11.4,16.53-13.97,31.69-31.03,58.81-81.18,61.47-126.03h1c1.24-.11.98-1.49,1.05-2.43.94-12.08.1-27.18-.05-39.57-.12-10.29,2.19-21.91-4.01-30.49l4,2.48c-.23-1.45.35-7.69.01-8-.37-.35-3.65.36-4.02.01-.41-.38.41-5.85.03-7.36-.27-1.07-2.99.02-2.02-2.64,6.46,2.85,7.31-10.47,6-12-1.64-1.91-2.06,1.87-2.64,2-3.97.89-3.58-.54-3.36-4h6.01c1.94-7.91-8.16-1.52-12.48-5.02-.45-.36-6.1-8.89-6.31-9.66l.77-3.32,2,3.99c-.18-4,1.07-9.03-1.99-11.99-.14-.14-4.11.12-1.99-1.99s1.85,1.86,1.99,1.99c.08.07,2.12.37,2-.5,1.52-5.46-2.24-5.76-4.51-9.51-2.61-.74-.81,2.47-1.75,3.8-.19.26-3.2.16-1.69,2.18.1.13,3.48-.25,1.92,2.01-.13.18-3.57,2.53-3.97,2.02-.23-1.67.41-3.83.01-5.35-.31-1.16-2.41.23-2.03-2.14.17-1.04,2.97.35,2.01-2.5-8.15.56-4.66,0-6.29-3.72-.26-.59-3.4-2.24-3.45-2.45-.18-.65.78-2.16.38-3.9-.41-1.83-2.22-1.64-2.6-2.69-.52-1.42.86-5-2-2.55-.18.16.45,2.06-2,1.29.5-2.32-7.65-7.4-8-8-1.46-2.5,1.98-1.79,1.98-1.98v-14c0-.2-3.32.16-4.01,0l4.01-3.99c-5.81.57-3.16-.44-4.07-3.19-.58-1.75-4.04-3.64-5.94-2.83.83,5.63-1.27,3.87-6.01,4.01v-6c-2.7-.69-2.79,3.03-4.28,3.69-.8.35-1.41.19-1.71.31.15,1.3-.09,2.69,0,4h-1.99c-.4-5.16-.07-3.2,1.99-4-.31-2.77-1.77-1.76-1.98-2.68-.5-2.14.28-5.03-.01-7.32-1.69-.86-7.74,1.32-8,1.01-.99-1.18,2.37-4.25-6.59-3.09-2.17.28-1.2,1.84-1.45,2.05-1.83,1.53-2.04-1.57-2.24-1.67-.82-.41-4.96-1.14-5.71-2.32-2.21-3.46,5.09-.17,3.98-3.98-2.02,1.13-7.16-2.23-5.91-3.93.11-.14,1.68.16,1.92-.72.52-1.97-.36-5.13-.02-7.35-.75-.92-4.88,2.68-3.89,3.93.2.25,1.9-.25,1.92.57.1,3.89-7.94,2.56-5.02-.49h-5c-1.07-3.87,4.94-1.16,5.99-2.01,2.14-1.75-4.04-2.2-2-3.99.75-.66,4.87,1.61,4-2-2.33.22-5.03-.41-7.27.04-1.13.23-2.09,3.71-4.19,4.01-1.44.21-4.4.19-5.82-.1s-2.35-4.88-5.22-3.99c-.95.3.15,2.53-1.49,2.03,1.39-4.15-3.67-3.04-4.06-4.65-.93-3.81,2.64-11.04-3.28-9.32-.72.21-.6,1.77-1.35,1.95-1.31.31-5.33.31-6.63,0-.72-.17-.52-1.59-1.44-1.95s-2.91.23-3.26-.03c-2.19-1.62,4.08-2.3,2-3.99-.35-.28-2.99.17-3.99,0,.18,1.67-.41,3.85-.02,5.36.29,1.12,2.52-.15,2.03,2.14-.16.76-3.04-.12-2.04,3.89.13.54,3.94.96,2.02,2.61-.47.4-11.41.28-12.35.03-1.02-.27-.55-1.96-.64-2.02,12.27-7.97-15.73-11.41-16.99-9.99-.19.22.25,2.41-.31,3.71-.21.48-6.84,6.4-7.7,6.28-1.9-1.21-2.32,3.92-4,2-.66-.75,1.61-4.87-2-4,.67,3.96-.51,6.57-2.01,9.99-.54.18-1.76-.24-2,0-.2.2.12,1.4,0,2s.17,1.51,0,2c-3.01,2.03-8.06-1-8.51-.98-1.03.04-1.35,2.9-1.49,2.98h1.99v3.99h-1.99v-3.99c-.54.32-2.99-.25-4.01,0-1.4,3.7,1.93,4.05,2.02,4.5.49,2.52-1.62,1.12-2.01,1.5-1.77.22-4.25-.57-5.78.28-1.05.59.53,4.09-3.01-.18-.24-.29-1.1.02-1.2-.12-.38-.57,2.93-2.28.99-3.98.94-1.03,6.79-7.49,7.28-7.7,1.26-.56,3.43-.07,3.69-.33.63-.63-.07-4.93,6.06-8.29.77-.42,1.91.41,1.96.32,1.15-2.26.31-4.88,4.4-7.65.88-.6,2.51-.25,2.62-.35.33-.34-.82-3.64-1.16-3.84-1.01-.61-5.97-.1-7.84-.16v-.02ZM213.98,855.47c-2.84,1.71-1.45,5.02-2.04,7.29-.21.81-1.78.67-1.94,1.39-.47,2.08.48,4.73-.01,6.67-.24.95-6.16,1.22,1.99,3.65,13.04,3.89,35.33-.87,49.6,1.06,1.38.18,1.63-.17,2.4-1.06.16-.18,1.94-4.18,1.95-4.49.03-.84-.95-1.37-.95-1.51-.15-8.04,2.74-3.88,3.07-5.54s-.38-4.15-.15-6.03,1.88-1.32,2.06-2.11c.46-2.09-.47-4.71.02-6.67.2-.81,2.02-.53,2.03-1.15.01-1.19-2.13-3.5-2.53-3.5h-53.5c-.53,4.22-1.53,7.65-2,12ZM245.98,949.47c3.03.56,1.91-1.53,2.01-3.45.29-5.94,1.7-5.95,1.98-7.23,1.84-8.35,3.26-17.63,6.11-26.53,2.09-6.54,2.45-11.36,3.92-18.11.2-.92,4.41-1.51-.02-6.68h-55c1.78,2.28-.41,1.82-.62,2.3-1.88,4.45-1.49,5.74-2.43,10.15-.79,3.75-3.11,6.94-1.95,11.55-3.25,3.71-1.24,5.83-2.01,9.32-2.17,9.81-5.34,21.27-8.02,31.97-3.12,12.45-9.68,30.45-11.91,44.25-.43,2.68.16,5.71-.05,8.45h54c.25,0,1.58-4.05,1.78-4.73,3.36-11.9,10.84-38.04,12.22-51.27h0Z"/>
  <path class="st7" d="M1052.98,1000.47l15.94-64.56,20.02-.39,11.54,45.96,10.5-46.01h15l-15.13,64.87c-3.58-.31-18.78,1.3-20.39-.84l-11.98-45.03-9.5,46.01h-16Z"/>
  <path class="st6" d="M835.98,794.47l15.04-64.95h20.91l11.54,45.96,11-46.01h14.5l-15.48,64.02c-1.31,1.57-18.68,1.62-20.03,0l-11.98-45.03-11,46.01h-14.5Z"/>
  <path class="st6" d="M1262.53,993.92c-14.74-16.22-.23-46.3,17.46-54.93,34.03-16.6,60.06,9.74,39.78,42.78-10.69,17.42-42.13,28.79-57.25,12.15h.01ZM1282.33,954.82c-6.87,6.88-12.54,27.23-.83,31.61,20.41,7.64,36.04-27.18,21.82-35.82-6.73-4.09-15.77-1.02-20.99,4.21Z"/>
  <path class="st6" d="M1164.73,934.72c52.13-6.67,38.13,63.67-6.22,66.78-48.66,3.42-33.65-61.68,6.22-66.78ZM1165.77,948.68c-21.86,2.19-29.64,46.19-1.34,37.74,16.63-4.97,24.18-40.02,1.34-37.74Z"/>
  <path class="st5" d="M1334.98,794.47l16.61-65.06c23.59.32,59.28-5.52,51.93,30.1-3.94,19.1-19.73,34.96-40.04,34.96h-28.5ZM1354.98,780.46c8.08.47,15.12.24,21.93-4.56,8.12-5.71,14.82-24.44,5.03-30.9-3.16-2.08-15.29-4.18-17.48-1.55-3.21,3.85-6.6,30.54-9.48,37.01h0Z"/>
  <path class="st6" d="M1014.98,935.47c.12,1.76,0,3.49-.26,5.24-.65,4.47-4.78,13.88-4.72,17.33.04,2.74,2.46,2.31,4.44,2.48,6.23.54,12.3-.96,18.46-1.14l6.09-23.91h17l-16,65h-17c-.11-8.86,4.98-17.1,5-26h-20.5c-.48,0-2.17,1.04-2.48,1.77-2.79,6.53-2.39,17.93-6.52,24.23h-16.5l17.5-65h15.5,0Z"/>
  <path class="st6" d="M1127.48,794.47c-3.81-5.09-3.1-21.43-9.45-23.55-2.19-.73-5.29-1.59-6.1,1.01-2.27,7.23-2.67,15.94-6.45,22.54h-15c-.3,0-1.78-1.49-1.35-2.3l16.43-62.76c12.86,1.63,48.72-6.6,46.36,15.45-1.1,10.26-7.98,16.4-16.92,20.1,3.3,3.53,4.74,8.27,6.27,12.71,1.19,3.47,3.74,11.42,4.31,14.72.19,1.09-.69,2.07-1.1,2.07h-17ZM1131.67,755.16c.89-.98,2.93-6.03,3.01-7.35.51-8.33-10.17-6.26-15.66-6.31l-4.04,16.95c4.88.08,13.09.68,16.69-3.3h0Z"/>
  <path class="st6" d="M1397.94,937.53l-4.04,12.85c-11.9-1.41-22.7-3.31-32.83,4.68-13.69,10.79-14.36,34.41,7.36,31.31,7.64-1.09,5.15-17.44,8.79-20.66,2.59-2.29,12.92.82,16.76-.23l-8.17,32.81c-20.6,5.61-56,7.34-53.71-23.19,2.47-33.03,37-47.51,65.85-37.57h0Z"/>
  <path class="st5" d="M915.98,895.47l16.96-64.54c10.19-.25,38.65-3.21,44.08,6.99,5.37,10.09-3.67,26.17-15.04,27.56,5.09,9.27,8.24,19.51,10,29.99h-19c-.9-3.99-3.26-19.43-5.24-21.76-1.1-1.29-7.98-2-8.88-.66-2.54,3.77-2.71,18.14-6.38,22.42h-16.5,0ZM960.98,845.47c0-.21,2.33-2.11.03-3.54-1.17-.72-10.62-1.57-13.03-2.45l1.99,1.98c-7.15-1.72-6.15,5.72-8.12,11.19-.12.33-5.33,5.42.12,5.82-.11.59.06,1.35,0,2-.05.49-.96,2.23,0,2.99,2.3,1.83,1.8-1.99,1.99-1.99h14l-2-1.99c5.94.72,3.03-.84,4.29-3.73.25-.57,3.46-2.15,3.66-3.01.6-2.53,1.03-6.39-2.96-5.27.07-.65-.02-1.34,0-2h.03Z"/>
  <path class="st7" d="M925.98,935.47l-2.04,12.95c-1.11,1.08-23.35-1.14-27.3.21-2.69.92-3.88,9.15-4.66,11.84h26.5c2.79,0-1.8,10.86-1.6,12.9l-28.9.1-2,13h26.5c2.95,0-2.29,11.36-1.5,14h-46l16-65h45Z"/>
  <path class="st6" d="M1339.98,729.47l-3.1,12.9c-3.82.83-27.65-.8-28.81.2-.62.53-1.72,10.17-3.1,11.9h28l-3.13,12.87c-2.42,1.56-22.62-1.32-27.24.26-2.08.71-3.41,10.27-3.63,12.87h26.5c3.25,0-1.91,11.51-1.5,14h-44.5c-.35,0-1.71-1.47-1.33-2.28l15.83-62.72h46.01Z"/>
  <path class="st6" d="M1025.98,729.47l-2.04,12.96c-3.8.7-27.74-.82-28.86.14-.62.53-1.72,10.17-3.1,11.9h28l-3.1,12.9c-1.47,1.27-23.17-1.17-27.27.23-2.08.71-3.41,10.27-3.63,12.87h26.5c.6,0,1.41,1.43,1.35,2.3-.15,2.32-2.89,9.38-4.35,11.7h-44.5l16-65h45Z"/>
  <path class="st5" d="M1079.98,785.47c-.09,1.41-.49,6.19-1.19,6.82-1.65,1.47-24.68,3.47-28.29,3.17-41.64-3.5-26.28-57.9,8.26-65.71,6.55-1.48,26.77-2.12,32.23,1.22,1.7,1.04.45,1.26.16,2.15-1.22,3.84-3.74,7.22-4.22,11.31-13.05-3.77-31.45-1.8-38.95,11.05-4.19.91-4.51,4.21-4.01,8l-1.98-1.99c-.16,4.03.05,9.05,1.69,12.77.92,2.09,1.58.88,2.3,1.23.05.42-1.56,1.32-.51,2.01,2.25.09,2.61,1.61,4.51,1.99,1.17,1.99,1.35,3.16,4.64,3.92,1.94.45,1.14-3.67,3.33-1.88.82.67,0,3.67,5.78,1.66.29-.1,4.16-4.11,4.21-4.41.4-2.14-.39-4.57.06-6.6.17-.79,1.82-.26,2.06-2.11.26-2.02-.33-4.45-.07-6.56l1.98,1.99c-.82-6.32,1.41-3.1,5.33-4.01.73-.17.69-1.53.93-1.66,4.23-2.16,6.98,3.98,5.74,7.68l-1.98-1.01c-.36,2.57.53,5.93-.03,8.32-.93,3.98-1.6,4.78-1.98,10.69v-.04Z"/>
  <path class="st5" d="M910.98,868.47c-3.57,2.77-22.31-.04-27.96,1.05l-3.04,12.95h29l-3,13h-46l17.5-65h43.5l-2.04,12.95c-1.05,1.02-24.76-1.21-27.92.5-2.78,1.5-2.99,9.45-3.04,12.54h27c-1.22,3.28-1.37,9.96-4,12-.39-1.7-3.12-.95-4.5-1-2.14-.08-22.51-.63-22.51.5l27.01.5h0Z"/>
  <path class="st5" d="M1165.98,868.47c-2.05,2.48-8.08-.03-9.87,1.13-.66.43-2.9,10.95-3.13,12.87h28l-3,13h-45l15.92-63.58c.89-1.27,2.16-1.29,3.53-1.47,10.46-1.4,22.59.49,33.04.85,1.98.07,7.45-2.5,8.42.82.6,2.06-2.88,9.59-2.93,12.38-8.65-2.13-18.39-.64-27.36-.88-1.17.4-3.94,10.56-3.63,11.87.88,3.7,20.18,1.33,24.01,1.99v10.01h-26.01v.99c2.66.05,5.34-.04,8,.01h.01Z"/>
  <path class="st6" d="M1003.48,830.47c.49.08,2.39,1.07,2.54,1.69l.97,44.31c4.73-4.57,23.84-46,26.49-46h15c.26,0,1.87,1.56,1.42,2.39-12.54,20.69-25.69,41.28-36.92,62.61h-20l-5.95-62.6c-.23-.83,1.03-2.4,1.45-2.4,4.35,0,11.08-.64,15,0Z"/>
  <path class="st6" d="M973.98,998.47c-17.55,4.7-45.81,6.88-48.04-17.46-2.94-32,29.12-54.22,58.88-44.88,7.03,2.21-1.18,10.31-1.93,15.26-15.6-6.27-37.68,2.08-37.97,20.56-.25,16.32,17.4,15.91,29.07,11.52v15h0Z"/>
  <path class="st6" d="M1138.98,832.48c.54.75-4.44,12.56-6.02,13.54-1.71,1.05-9.49-1.61-12.43-1.58-13.62.14-29.72,14.61-24.52,28.5,4.43,11.83,19.66,8.15,28.97,6.52.49.49-.25,12.53-1.2,13.8-1.93,2.59-22.44,3.61-26.34,3.25-20.99-1.95-24.88-22.1-18.22-39.3,9.44-24.37,35.96-32.29,59.76-24.73h0Z"/>
  <path class="st5" d="M1183.98,736.47c1.22-1.66,2.78-6.19,4.67-6.83,4.42-1.51,15.07.72,20.28-.11,2.75,18.92,4.71,37.97,7.05,56.95-.27,1.2.68,4.82-.58,5.02-4.56.71-10.66-.56-15.43-.01-.48-.48.46-9.22-.02-11.33-.16-.69-1.52-.66-1.65-.92-.24-.45.78-1.66.67-1.73-.57-.41-3.04.81-3.49-2.04-.94-.03,0,1.75-1.14,2.04-4.35,1.11-19.48-1.36-22.15.19-.64.37-1.76,3.85-2.33,4.96-.37.74-1.63.83-1.84,1.58-.37,1.38.19,3.02-.04,4.25-.06.32.05.68,0,1-3.03-2.48-1.27,1.49-4.47,2.02-3.41.57-7.94-.44-11.53-.03-1.89-6.01,5.28-5.42,6.01-6,2.29-1.82-1.81-1.93-1.91-2.06-1.35-1.93,2.68-2.76,3.57-4.26,3.33-5.57,5.51-10.2,8.33-16.68.12-.28-.12-.72,0-1,6.25,1.92,4.89-6.87,6.46-9.06.75-1.04,2.95-.61,3.38-1.11.36-.43,3.81-8.22,4.46-9.52.43-.87,3.83-1.56,1.7-5.31h0ZM1180.98,766.47h16c-.27-7.16-.63-14.34-1-21.51-.07-1.29.81-4.23-1.49-3.5l-13.51,25.01Z"/>
  <path class="st6" d="M858.88,845.39c-5.16-1.35-22.69-4.58-24.8,1.74-1.96,5.88,12.22,10.2,15.79,13.94,8.03,8.43,4.39,22.09-3.87,28.92-11.54,9.54-27.53,7.52-41.03,4.47l5.1-13.92c1.02-.73,21.21,7.56,23.74-.78,2.16-7.11-9.54-9.67-13.33-13.31-10.91-10.43-2.92-28.1,9.49-33.5,9.1-3.96,25.25-4.13,33.86.97l-4.95,11.46h0Z"/>
  <polygon class="st7" points="872.98 935.47 869.94 950.42 850.07 950.56 837.98 1000.47 819.98 1000.47 831.98 950.47 813.98 950.47 816.98 935.47 872.98 935.47"/>
  <path class="st5" d="M972.98,729.47c.55.52-3.02,13.92-3.96,14.54-2.62,1.74-15.05-.43-18.94.56-2.1,4.88-11.01,49.9-13.6,49.9h-15c-.25,0-1.72-1.34-1.12-2.06l12.62-47.94h-17.5c-.6,0-1.41-1.43-1.35-2.3.17-2.56,2.85-10.32,4.35-12.7h54.5,0Z"/>
  <path class="st5" d="M1285.98,729.47c.61.61-2.37,13.55-3.98,14.52-2.98,1.78-17.58-.57-18.92.58l-13.6,49.9h-15.5l12-50h-18l2-15h56,0Z"/>
  <path class="st7" d="M1423.98,938.47c1.88,7.31,4.07,14.57,5.5,22,2.49-2.95,18.4-25,20-25h16.5c.23,1.87-1.05,3.12-2.01,4.49-7.09,10.04-23.97,24.07-28.82,34.18-3.83,7.98-3.21,18.68-7.67,26.33h-16.5c.25-8.42,6.48-19.38,6.04-27.46-.4-7.46-8.18-19.13-9.04-27.54-.27-2.59.19-5.39,0-8.01,5.22.44,11.08-1.06,16.01,1.01h-.01Z"/>
  <path class="st7" d="M1247.98,992.47c-.07,1.4-.72,7.91-1.58,8.06l-46.42-.06,16-65h17c.21,1.73-.16,3.36-.45,5.05-2.31,13.44-9.76,29.88-11.16,43-.16,1.54.43,1.43.61,1.95.19.55-.6,1.74.63,2.04,3.61.87,24.48-.95,25.37-.05-.05,1.66.08,3.35,0,5.01Z"/>
  <polygon class="st6" points="838.98 729.47 822.98 794.47 805.98 794.47 821.98 729.47 838.98 729.47"/>
  <path class="st6" d="M1058.98,895.47h-17c-.1-1.43,0-2.83.24-4.25,2.55-14.56,9.61-41.53,14.48-55.52,1.11-3.18.94-4.83,4.72-5.28,2.83-.34,13.45-1,13.52,2.47l-15.96,62.59h0Z"/>
  <path class="st9" d="M725.98,927.47c-7.03,28.96-20.61,57.57-38.4,81.61-2.21,2.98-12.83,16.26-15.6,16.39-5.04,9.04-18.97,21.1-27.53,27.97-8.62,6.92-41.3,29.11-50.47,30.03-.87-3.6,3.44-1.36,4.01-1.99.35-.39-.37-3.64-.01-4.02.29-.31,5.65.3,7.28-.03.64-.13,2.28-3.09,3.58-3.82,2.06-1.16,5.85-1.73,6.86-2.41.81-.55.9-2.56,2.26-3.23,1.53-.76,3.96-.15,5.08-.95,1.02-.73.6-2.96,1.11-3.38.6-.5,2.44.14,3.54-.46.77-.42,3.64-4.77,4.6-5.38,3.91-2.48,4.52-.31,7.89-5.04.48-.67,10.69-7.7,11.5-9.55,1.63-3.71-1.9-4.29,6.3-3.73-2.03-4.35,3.6-4.71,4.01-7.98l1.97,1.98c1.69-2.6,2.27-6.67,5.04-8.51,1.5-1,2.52.54,2.98.52.88-1.58,1.34-3.85,2.43-5.61.81-1.32,7.1-6.19,7.27-6.65.58-1.58,0-3.71.73-4.81.85-1.29,4.31-.57,5.15-1.86.79-1.2.04-3.23.48-4.33,1.17-2.94,3.08-3.88,4.9-5.27,1.29-.98.53-3.95,3.04-3.49l-1.98-1.97c1.71-.57,4.5-4.6,5.64-6.38,2.27-3.53,13.39-23.18,14.31-26.36.82-2.86,1.14-8.07,2.06-11.27l1.98,1.99c-.55-2.71,1.33-4.36,1.97-6.55,1.34-4.59,1.53-9.51,3.59-14.44.86-2.07-.13-2.73,2.45-1.01h-.02Z"/>
  <path class="st9" d="M1047.98,755.47c-4.14,7.09-2.94,12.49-2,20,.66.32,1.59.07,2.58.92,1.23,1.05.99,2.34,1.42,3.08,3.66.72,11.68,1.8,14.51-.99,2.3-2.27,4.1-16.15,5.49-20.01h17c-.95,9.08-3.53,18.6-7,27,.38-5.91,1.05-6.71,1.98-10.69.56-2.39-.33-5.75.03-8.32l1.98,1.01c1.24-3.7-1.51-9.85-5.74-7.68-.24.12-.2,1.49-.93,1.66-3.92.92-6.15-2.3-5.33,4.01l-1.98-1.99c-.26,2.11.33,4.54.07,6.56-.24,1.85-1.89,1.32-2.06,2.11-.44,2.03.35,4.46-.06,6.6-.06.3-3.92,4.31-4.21,4.41-5.78,2.01-4.96-.99-5.78-1.66-2.19-1.79-1.39,2.33-3.33,1.88-3.29-.76-3.47-1.93-4.64-3.92-1.91-.38-2.26-1.89-4.51-1.99-1.05-.69.56-1.59.51-2.01-.72-.34-1.37.87-2.3-1.23-1.64-3.72-1.85-8.74-1.69-12.77l1.98,1.99c-.5-3.79-.18-7.08,4.01-8v.03Z"/>
  <path class="st9" d="M1167.98,788.47c.23-1.23-.33-2.87.04-4.25.21-.76,1.46-.84,1.84-1.58.56-1.11,1.69-4.59,2.33-4.96,2.68-1.55,17.8.92,22.15-.19,1.13-.29.21-2.06,1.14-2.04.45,2.85,2.92,1.64,3.49,2.04.11.08-.91,1.29-.67,1.73.14.26,1.5.23,1.65.92.48,2.11-.46,10.85.02,11.33,4.77-.54,10.87.73,15.43.01,1.26-.2.3-3.82.58-5.02.01.09.82-.13.97,1.48.2,2.17-.02,4.36.03,6.52h-18c-1.7-3.37.34-13.88-2.64-14.86-1.25-.41-20.18-.54-21.69-.18s-3.13,9.48-6.67,9.04h0Z"/>
  <path class="st9" d="M592.98,1083.47c-.68,1.55-2.15,2.27-3.6,2.89-20.62,8.95-42.09,14.58-64.4,17.11,2.93-.05,3.08-3.95,3.56-4.07,2.66-.66,7.87.56,11.01.15,1.85-.24,1.32-1.87,2.12-2.06,4.83-1.11,13.03-.94,17.63-2.04.44-.1,6.1-3.27,7.01-3.64,6.65-2.71,9.89-3.04,16.95-4.38.83-.16,2.27-3.41,3.51-3.86,2.54-.91,5.29,0,6.21-.1Z"/>
  <path class="st9" d="M1167.98,762.47c-2.82,6.47-4.99,11.11-8.33,16.68-.89,1.49-4.93,2.33-3.57,4.26.09.14,4.2.25,1.91,2.06-.73.58-7.9,0-6.01,6,3.59-.41,8.12.6,11.53.03,3.2-.53,1.44-4.5,4.47-2.02-1.42,8.73-14.32,4.19-21.01,4.49,5.73-9.97,12.17-19.43,18.02-29.04.81-1.32.88-2.91,2.99-2.45h0Z"/>
  <path class="st9" d="M1159.98,855.47h27c.68.68-1.61,12.47-2.1,12.9-.72.62-16.25.15-18.9.1s-5.34.04-7.99-.01v-.99h25.99v-10.01c-3.82-.67-23.12,1.71-24-1.99Z"/>
  <path class="st9" d="M1183.98,736.47c2.12,3.75-1.27,4.44-1.7,5.31-.64,1.31-4.1,9.09-4.46,9.52-.42.51-2.63.08-3.38,1.11-1.57,2.19-.22,10.98-6.46,9.06,4-9.2,9.89-16.69,16-25h0Z"/>
  <path class="st9" d="M1247.98,992.47c.08-1.66-.04-3.35,0-5.01-.89-.91-21.76.92-25.37.05-1.23-.3-.44-1.48-.63-2.04,6.87,1.2,20.4-1.69,26.35.15,2.87.89.76,4.96-.35,6.85Z"/>
  <path class="st9" d="M1407.98,945.47l-4-9.99h20c.18.93-.21,2.19,0,2.99-4.92-2.07-10.78-.56-16.01-1.01.19,2.62-.26,5.41,0,8.01h.01Z"/>
  <path class="st11" d="M605.98,796.47c14.16-13.75,30.17-31.13,42.97-44.49,2.36-2.46,11.39-12.61,14.92-10.39.29.18,1.21,3.59,1.82,4.63,1.36,2.3,4.82,5.73,5.77,7.25,11.01,17.67,21.28,42.05,26.3,62.72.7,2.9,1.91,6.66,2.21,7.96,1.02,4.44,1.75,13.5,2.02,18.32.79,14.05.83,33,0,47-2.66,44.85-29.79,95-61.47,126.03-2.62,2.57-13.65,12.59-16.53,13.97-.43.21-2.22-.29-3.71.31-.45.18-5.2,5.21-6.99,5.67-1.33.34-2.91-.07-4.3.03-.15,1.39.9,2.73,1,3.99-7.5,2.52-10.56,5.46-17.67,8.34-2,.81-8.39,2.92-10.01,3.99-2.94,1.93-2.14,5.48-9.32,3.69,1.85,5.28-5.44,3.36-8.3,4.02-.26.06-2.42,1.52-4.37,2.31-8.13,3.32-21.18,7.13-30.32,9.66-4.99,1.38-8.86,1.75-14,2-13.8.67-31.22.73-45,0-.33-.02-.67.02-1,0-40.55-2.61-88.4-26.22-118.01-53.49-1.64-1.51-10.57-10.06-10.98-11.03-.86-2.04,1.39-1.41,2.48-1.49,24.06-1.69,50.68-3.53,71.82-16.19,8.5-5.09,16.53-12.94,20.23-21.73,4.12-9.79,3.14-20.6-.94-30.2-.2-.48-2.73-5.29-2.91-5.56-.83-1.2-6.29-5.66-7.68-6.31.87-6.09-1.33-2.9-3.68-4.33-2.02-1.23-15.96-9.48-16.97-9.72-1.88-.44-2.98,1.02-3.34,1.04-3.72.26-4.86-1.96-7-2-2.38-5.78-4.01-4.02-8.3-5.02-.69-.16-.67-1.49-1.03-1.64-9.3-3.84-15.94-5.68-20.01-16.01-.13-.34-1.44-.35-1.62-1.03-1.26-4.8,1.34-4.92,1.62-5.63.45-1.16.19-2.58.69-3.33,1.44-2.22,6.75-3.59,9.32-4.67.4-.17,1.2-2.96,4.33-1.66h110.01v9l-28,115c-.13-.45-1.26-1.07-1.01-1.99h-.98c.37,1.9-.65,7.89.13,8.88.36.45,1.48-.04,1.86.11,1.31.52,1.43.93,3.38,1.07,13.31.98,41.39,1.48,54.22-.02,1.56-.18,1.56-.62,2.4-1.06,3.7-1.93,1.29-5.09,2.02-8.32,1.1-4.88,2.77-11.63,3.98-17.68.82-4.09,2.25-8,2.24-12.26,9.81-26.86,11.82-61.66,21.76-87.74.04-.12,1.27-.48,1.8-1.7.48-1.11-.03-2.61.2-3.3l74-1c.32-.31.79-.61,1-1,1.7-3.1,1.26-13.78,1-18-.09-1.48-.74-5.73-2.51-6.01-2.23-.35-1.19,1.37-1.71,1.72-3.28,2.19-68.77.27-78.78.28-.07-.77.94-1.65,1-2h11.99l-1.99-3.99c5.24.69,4.03-.7,4-5.01.76-.43,1.38-.67,2-1,3.08-1.65,1.3-1.3,2-2,.66-.66.7,1.41,2-2s1.5-1.41,2-2c-.71,2.02,1.83,1.85,1.99,2.68.61,3.06-.93,2.6,1.34,5.36,3.18,3.85-6.42,1.03-7.34,1.96.09,3.71-1.37,7.46,3.5,6.05.95-.27.04-2.36,1.09-3.14,3.01-2.24,9.07,1.52,7.39-4.24-.21-.72-1.8-.58-1.96-1.35-.32-1.48.29-3.16-.02-4.64-.21-.97-1.98-.04-1.99-2.68h4.01c.07-1.32-.09-2.67,0-4,.07-1.08-.23-5.81,0-6,.27-.23,3.73.84,5.94-2.76.39-.63-.14-1.94.06-2.24l1-1c.96-1.47,1.27-1.7,3-2,.32-.57,1.82-3.87,2-4,2.51-1.74,1.91,2.33,2,4-1.27.14-2.8-.21-4,0-1.34,2.35-1.88,1.89-1.97,2.03-1.39,2.14,1.78,1.81,1.98,2.63.88,3.6-.9,6.23,4.51,8.33,3.37,1.32-.35-3.65-.49-4.52-.34-2.04.08-4.36-.03-6.46,2.68-.81,8.98,1.19,9.95-2.72,1.04-4.17-.68-3.28-3.95-3.28-.2,1.23.15,2.72,0,4-1.71,1.58-5.66-.5-4-4,1.33-.03,2.67,0,4,0,.39-2.45,2.66-4.67,5.38-4.03,1,.24-.07,2.99,2.61,2.02,1.66-3.37-2.91-4.06-1.99-6.49.49-1.29,2.17-1.74,3.49-1.55.74.11-.13,3.09,2.49,2.04l-1.99-5h-.05ZM582.97,827.47h-2.99v1.99h2.99v-1.99Z"/>
  <path class="st2" d="M505.98,655.47c.16,2.93,3.4,1.73,1.7,5.76-.33.78-10.37,10.1-12.09,11.82-1.28,1.29-2.73,2.73-4.03,4.03-3.04,3.05-11.1,8.97-11.58,12.39-.95.05-3.84-.18-4,0-.39.4.28,8.28,0,10.01-.56.08-1.21-.2-1.71.3l-33.34,33.14c-3.19,5.41.96,10.31,6.8,8.25,1.11-.39,14.11-14.72,16.28-16.95,4.01-4.12,8.54-8.04,11.97-12.75,7.09-.61,8.31-9.62,15.76-8.29l40.49-41.4c1.63-.63,11.54-.67,12.77.18,2.52,1.73-.12,3.58-1.02,5.52-1.52.12-5.11,3.83-6.44,5.05-8.4,7.72-18.88,18.47-26.56,26.95-2.71-.52-4.74,2.69-6.59,4.44-1.71,1.62-3.99,3.54-4.41,5.56-2.19.08-2.72-3.61-3.99-1.99-1.95,2.48,1.91,4.38,1.99,4.65,1.06,3.72-3.84,5.26-5.67,7.65-8.3,10.86-18.67,21.14-28.68,31.39-1.27,1.3-1.03-.22-3.64,3.57-.79,1.15-3.35.59-1.7,4.48.11.26,3.69,3.84,3.95,3.94,1.29.49,7.84.66,8.61.16.49-.32.46-2.33,1.14-3.12.72-.83,5.79-6.3,6.21-6.47.46-.19,1.72.82,1.78.74.36-.49-.49-4.22,1.51-5.01.82,2.63,1.85,2.14,4.49,1.99-4.42-3.47,2.12-7.13,5.24-10.09.75-.72,1.05-3.3,2.76-1.89.36.3-.82,2.39.99,1.99.83-1.43.12-3.99.63-5.01.34-.67,9.91-10.44,10.62-10.69,1.85-.66,3.72.13,5.52-.57,1.1-.43,12.69-13.92,14.99-15.75,1.39-1.11,4.89-1.94,5.07-2.17.51-.66-.12-2.43.47-3.51.41-.75,11.2-11.65,11.97-11.99,1.26-.55,3.43-.07,3.69-.33s-.23-2.44.33-3.69c.35-.77,11.21-11.64,11.98-11.98,1.25-.56,3.41-.06,3.69-.33.31-.32.14-7.29,5.04-5.96,2.16,1.07,7.34,2.19,8.41,2.92,1.15.77.53,1.44.61,2.54l-55.95,55.34c-1.97,7.9-3.62,8.04-8.07,13.21-4.76-1.57-7.05,6.18-10.52,6.98s.66-6.19-3.48-4.98c1.5,8.98-2.89,4.94-4.01,5.99-.28.26.34,5.67-.31,7.74-.31.99-4.27,2.52-5.09,3.37-1.29,1.32-2.38,5.65-2.6,5.9-.27.3-6.31-1.86-7.99-.99v3.49c-.12.88,1.92.58,2,.5.15-.13-.12-4.11,1.99-1.99s-1.85,1.86-1.99,1.99-2.1,3.27-2.11,3.48c-.17,3.06,1.86,5.68.11,8.51,1.44.3,2.78-.94,4-.99.57,3.04-.67,5.87,5.29,5.02.71-.1,2.57-3.8,3.44-3.97,1.97-.4,4.24.14,6.27-.05.63-1.5-3.98-5.21-2.99-5.98,2.44-1.92,4.41,1.91,4.68,1.97,2.14.49,5.03-.25,7.32.03-.24-1.47.34-7.68,0-8.01-.56-.55-4.9,1.25-4.02-1.48.09-.27,4.12-3.4,4.53-3.49,3.09-.73.68,5.91,1.48,6.99.11.15,1.54-.07,2,0-.2,1.95-3.66,3.84-1.99,5.99,1.05,1.36,5.53-3.79,3.99-5.99-.65-.09-1.36.08-2,0,.18-1.78-.13-3.69,0-5.5.53-1.98,3.75,1.72,3.95,2.3.93,2.68-1.82,3.77,4.06,3.2,1.11,5.56-3.07,4.87-5.65,6.35-1.53.87-3.58,1.6-4.09,1.94-.32.21-.28,3.13-2.23,1.65-.13-.1.28-3.4-2.01-1.93-.19.12-1.81,3.15-2.02,3.98.95.06,3.84-.18,4,0,1.87,2.07-2.93,7.71-6,5.99-.93-2.69,1.72-1.58,2.01-2.68s-.23-2.47-.02-3.32c-4.58-.28.59-4.05-3.99-3.99,1.4,9.08-2.66,4.85-4.01,6-2.2,1.88,6.3,3.95,6.07,7.43-.02.31-5.8,3.79-.07,4.56-.04.32,0,.67,0,1-.03.95-.12,2.1,0,3,.09.64-.1,1.35,0,2,.66.09,1.35-.07,2,0,1.17.13,2.79.08,4,0l1.59,3.96c2.78-.78,2.29,1.81,2.48,1.95.54.41,3.64-1.6,3.93-1.91v6c2.89.68,2-1.47,2-4l1.33.03c1.04,2.36,2.16,2.26,4.67,1.97-.33.92-1.52,3.45-2,4-.27.31-1.75-.96-2.06,1.46-.46,3.57,1.89,2.34,2.06,2.54.43.51,1.47,3.69,2.73,3.95,3.24.67,6.82.21,9.27-1.95-.29,2.74.11,1.78,2,2,0,1.33-.02,2.67,0,4,3.51,1.66,5.58-2.29,4-4-1.31-.13-2.7.15-4,0v-4c.51-.49,1.4-1.42,2-2l6,2.01c-.61-1.59.91-4.91,2-6.01-1.47,1.47-2.09-.38-2-2,.66-.03,1.33,0,1.99,0-.06.63.14,1.86,0,1.99.12-.12,2.54-1.94,2.7-1.98,3-.78,12.14,7.69,3.3,5.98-.16-.16-3.62-2.47-3.99-1.99-.58,4.75.16,7.66,4.99,7.99l1,1.99c-1.71,1.13-3.4-2.2-4,2.01-3.47-.27-6.22-9.18-6,0,.13,5.64,1.1,3.04,1.93,4.05,1.81,2.21-1.83,1.8-1.93,1.95-2.73-1.7-7,3.52-6.86,5.32.26,3.37,7.25,9.14,7.86,2.68h1c-.14,1.28.2,2.79,0,4-.06.35-1.07,1.23-1,2-61.03.07-123.73-1.9-184.55-.05-2.81.09-5.2.86-7.94,1.07-1.16-.2.21-2.85-1.05-3.09-3.58-.67-9.07.62-12.95.06v2.01c3,.07,6.01-.12,9.01,0,1.21.05,3.72-.75,3.48.99-3.16.92-6.29.79-9.53,1.02-1.91.14-4.02-1.12-3.47,1.99-4.31.58-5.43,1.83-9,3-22.65,7.45-38.17,20.84-28.48,46.98,3.71,10.02,19.38,22.94,28.22,28,11.78,6.75,32.15,11.47,41.77,19.06,11.74,9.26,2.34,23.61-8.61,28.36-11.95,5.19-29.82,1.9-42.91,2.11-1.89-.92-13-21.78-14.71-25.29-35.19-72.78-23.78-163.23,27.75-224.65,44.13-52.6,103.54-77.65,173.96-75.56l.03-.04ZM507.97,811.47h-1.99v3.99h1.99v-3.99ZM513.97,813.47c-1.09-1.09-3.08.9-1.99,1.99s3.08-.9,1.99-1.99ZM335.97,847.47c-.55-.55-5.2,1.44-3.99,1.99h3.99v-1.99Z"/>
  <path class="st4" d="M546.98,667.47c.09.06-.38,1.75.64,2.02.94.25,11.88.37,12.35-.03,1.93-1.65-1.88-2.07-2.02-2.61-1-4.01,1.87-3.13,2.04-3.89.49-2.29-1.74-1.02-2.03-2.14-.39-1.51.21-3.69.02-5.36,1,.18,3.64-.28,3.99,0,2.08,1.69-4.19,2.37-2,3.99.35.26,2.3-.34,3.26.03s.72,1.77,1.44,1.95c1.3.32,5.31.31,6.63,0,.76-.18.63-1.74,1.35-1.95,5.92-1.72,2.35,5.5,3.28,9.32.39,1.61,5.45.5,4.06,4.65,1.64.51.54-1.73,1.49-2.03,2.87-.9,3.85,3.7,5.22,3.99s4.38.31,5.82.1c2.1-.31,3.06-3.79,4.19-4.01,2.23-.45,4.94.18,7.27-.04.87,3.61-3.24,1.34-4,2-2.05,1.79,4.13,2.24,2,3.99-1.05.86-7.06-1.85-5.99,2h5c-2.92,3.07,5.12,4.39,5.02.5-.02-.82-1.72-.31-1.92-.57-.99-1.25,3.14-4.85,3.89-3.93-.34,2.21.54,5.38.02,7.35-.24.89-1.81.58-1.92.72-1.24,1.7,3.89,5.06,5.91,3.93,1.11,3.81-6.2.52-3.98,3.98.75,1.17,4.89,1.9,5.71,2.32.2.1.41,3.19,2.24,1.67.24-.2-.72-1.77,1.45-2.05,8.95-1.16,5.6,1.91,6.59,3.09.26.31,6.31-1.87,8-1.01.29,2.29-.48,5.18.01,7.32.22.93,1.67-.08,1.98,2.68-2.06.79-2.39-1.16-1.99,3.99h1.99c-.08-1.31.15-2.69,0-3.99.3-.12.91.05,1.71-.31,1.49-.66,1.58-4.38,4.28-3.69v6c4.74-.14,6.84,1.62,6.01-4.01,1.9-.81,5.35,1.07,5.94,2.83.91,2.74-1.75,3.75,4.07,3.19l-4.01,3.99c.69.17,4.01-.2,4.01,0v14c0,.19-3.44-.52-1.98,1.98.35.6,8.5,5.69,8,8,2.46.77,1.82-1.13,2-1.29,2.86-2.45,1.49,1.14,2,2.55.38,1.05,2.19.86,2.6,2.69s-.56,3.25-.38,3.9c.06.2,3.19,1.86,3.45,2.45,1.63,3.73-1.86,4.28,6.29,3.72.96,2.85-1.84,1.46-2.01,2.5-.38,2.37,1.72.98,2.03,2.14.4,1.52-.24,3.68-.01,5.35.4.51,3.84-1.83,3.97-2.02,1.56-2.25-1.82-1.87-1.92-2.01-1.51-2.02,1.5-1.92,1.69-2.18.94-1.33-.86-4.54,1.75-3.8,2.27,3.74,6.04,4.05,4.51,9.51.12.87-1.92.57-2,.5-.15-.13.12-4.11-1.99-1.99s1.85,1.86,1.99,1.99c3.07,2.96,1.81,7.99,1.99,11.99l-2-3.99-.77,3.32c.21.77,5.86,9.29,6.31,9.66,4.32,3.5,14.42-2.88,12.48,5.02h-6.01c-.23,3.48-.61,4.9,3.36,4.01.59-.13,1-3.91,2.64-2,1.31,1.53.46,14.85-6,12-.97,2.66,1.75,1.57,2.02,2.64.38,1.51-.43,6.98-.03,7.36.37.35,3.65-.36,4.02-.01.33.31-.25,6.55-.01,8l-4-2.48c6.2,8.58,3.89,20.2,4.01,30.49h-1c-.03-1.61.6-4.16-1-5-.27-4.82-1-13.87-2.02-18.32-.3-1.3-1.51-5.06-2.21-7.96-5.02-20.67-15.29-45.05-26.3-62.72-.95-1.52-4.41-4.95-5.77-7.25-.61-1.04-1.53-4.44-1.82-4.63-3.52-2.22-12.56,7.93-14.92,10.39-12.8,13.36-28.81,30.74-42.97,44.49-1.05,1.02-11.3,10.18-12.02,10.55-1.54.8-3.91-.53-5.39.35-1.19.71-.4,1.96-.59,2.1-5.09,3.98-7.82,8.11-12,12-.83.77-4.93,3.32-6,4-2.85,1.82-9,7.1-11.22,10.05-1,1.32-1.76,2.07-1.78,3.95-4.13,2.53-6.06,8.9-11,4h-1c.05-.49,0-.99,0-1.49-.24-.56-.76-.38-.99-.51-.37-2.27.73-3.05,1.96-4.54,10.63-12.82,26.13-24.06,36.82-37.08l-.59-4.18c15.15-14.9,30.52-29.5,45.46-44.56,7.86-7.92,16.02-16.02,23.19-24.31.03-.9-6.5-8.87-7.02-9.11-1.07-.48-1.86-.35-2.81.26-21.6,21.24-42.42,43.27-64.66,63.85-1.02.94-1.54,2.92-2.81,3.77-2.14,1.44-3.48-.88-6.08.79-5.33,3.43-17.63,17.59-23.47,23.09-3.39,3.19-7.93,6.96-11.24,10.01-2.08,1.92-3.74,6.51-6.85,2.56-3.56-4.52,1.97-6.65,3.79-8.86.54-.65.18-1.56.3-1.72s.91-.73,2-2c2.78-3.24,4.92-5.17,8-8,2.3-2.12,3.91-3.85,6-6,1.97-2.03,3.87-4.11,6-6,1.06-.94,1.67-1.71,2-2,.95-.85,1.86-1.88,2-2,1.15-.98,6.66-3.75,6.99-4.03.1-.08-.93-1.29-.68-1.74.14-.26,1.52-.21,1.67-.91.32-1.55-.32-3.3-.01-4.68.25-1.13,1.94-.54,2.03-.65v7.99c7.63,1.25,3.03-4.77,0-7.99,11.38-13.92,25.44-25.31,38-38-.26.29.16,3.01,0,3.99,2.08.57,7.01-.12,7.68-2.26.33-1.05.69-5.37.31-5.74-.14-.14-3.85-.14-3.99,0-.22.21-.21,4.81-1.01,5.99h-.98c.69-1.75-1.16-2.96-2.01-1.99,1.18-1.19,2.91-2.89,4-4,6.04-6.14,14.45-13.79,20-20l5.99,7.99v-8h-5.99c.57-.64,2.02-3.34,2.07-4.43.25-5.22-.84-2.85-2.07-3.57-2.25-1.31-4.24-4.45-6.72-4.84-4.14-.65-5.38,3.63-7.74,5.88-20.97,19.93-40.91,40.72-61.54,60.96-4.03-2.3-8.61,3.31-11.28,6.05-.79.81-.57,2.09-1.42,2.97-2.28,2.38-2.97,1.37-5.3,4.98-4.15,1.55-2.86,2.79-4.23,3.8-.66.49-1.54.07-1.77.2-1.26.75-5.39,2.57-6,3-1.25-.77-2.35-1.34-2-3,1.09-1.12,2.93-2.87,4-4-1.4,2.56,3.52,2.47,3.99,1.99s.56-5.4-1.99-3.99c.14-.14-.03-1.08.43-1.57,2.3-2.45,6.58-4.46,5.57-8.43.26-.09.65.04,1,0,.95-.11,2.02.01,3,0,.09,0,.53.74,1.32.7,3.35-.15,4.2-3.14.68-2.7l6-8c.1,1.25.84,2.33,0,3.99h1.99c.21-1.91-.28-4.16,0-5.99,4.51-.02-.47,4.37,3.99,3.99-.3-1.56.45-7.42,0-7.99-1.22-1.54-3.83,2.91-3.99,3.99h-2c-.07-1.33.04-2.67,0-4,15.21-16.57,32.64-31.27,48-47v5h1.99c-.16-1.89.79-4.89-.99-5.99.2-.21.18-1.71.96-2.5,1.7-1.74,11.82-11.24,12.01-12.07.37-1.67-9.69-8.23-11.94-6.97l-63,62.1c-1.52.42-2.58-.81-4.55.34-7.98,4.68-25.66,27.04-33.84,34.75-.7.66-4.94,4.04-5.29,4.13-1.1.27-2.51-.81-3.36-.78-.55-2.9-3.97-2.51-1.05-7.56l30.65-29.83c.47-.53.26-1.45.4-1.62,4.44-5.16,6.1-5.31,8.07-13.21l55.95-55.34c-.08-1.1.54-1.76-.61-2.54-1.07-.72-6.25-1.84-8.41-2.92-.29-.15-.77-2.31-2.4-1.97-.73.15-3.53,3.52-4.63,4.48-.67.58-1.83.36-1.97.49-1.76-2.07-3.07-.76-1,1-4.22,4.2-8.48,8.75-13,13-1.43-3.05-4.58-2.55-5.69-3.32-1.29-.9-1.97-4.05-4.31-3.68,3.28-3.57,5.95-7.56,8-12,.74-.06,2.8-.13,3,0v.1ZM571.48,663.47v1c.65-.33.65-.67,0-1ZM573.97,665.47c-1.09-1.09-3.08.9-1.99,1.99s3.08-.9,1.99-1.99ZM549.97,671.46c-6.92-1.71-2.7,4.4-4,6-1.71,2.12-2.27-4.1-3.99-1.99-.13.15-.14,3.83.01,3.97.31.29,2.32-.3,3.23.05s.84,1.55,1,1.64c4.48,2.5,3.82-6.54,3.74-9.67h.01ZM553.97,673.47h-1.99v3.99h1.99v-3.99ZM577.98,681.47c-.15-.13.12-4.11-1.99-1.99s1.87,1.84,1.99,1.99c.28.37-.16,4.23,0,5.5,3.3,1.35,4.81-4.34,4-7.49-2.73-1.18-1.73,4.02-3.99,1.99h-.01ZM585.98,681.47c-3.61.2-2.97,2.22,0,1.99.09-.65-.07-1.36,0-1.99.65-.04,1.35-.04,2,0,.08.65-.06,1.34,0,1.99,2.98.21,3.62-1.78,0-1.99-.43-3.4-1.58-3.53-2,0ZM569.98,689.47c4.74-.76,2.63,1.66,5.99,2,1.2-3.85-2.51-3.71-2-7-1.35,2.03-3.86.81-3.98,1-.23.36.03,2.99,0,4-2.72.44-3.56,1.33-4,4-1.28.09-3.9-.19-3.99-.01-1.06,2.03,2.47,5-4.02,4.02,1.93,2.57-.65,1.56-1.32,3.25-.35.88.36,2.58.24,2.66-.41.25-1.79-.14-2.53.42-4.01,3-7.04,10.36-12.39,9.68l1.02,1.99c-4.39-1.23-3.87,4.45-5.32,5.76-.56.51-2.16-.04-2.78.83-2.08,2.91,1.64,5.5-4.91,3.4,1.53,5.71-3.28,2.61-3.96,6.59-.36,2.11,1.72,1.18,1.91,1.45,1.9,2.61-3.59,1.5-3.95,3.96,2.28-.58,3.83-.24,6,0,0,3.16.71,1.85,3.99,1.99.67-3.14-1.56-1.71-3.99-1.99,0-3.62,1.18-1.17,3.18-2.06,2.89-1.3,3.33-6.96,4.84-7.91,2.3-1.45,2.19,4.28,3.97,1.97.26-.34-.73-6.79,2.25-7.76,1.17-.38,3.9,1.03,5.75-.24,1.75-1.96-4.18-2.27-1.99-3.98,1.16-.91,8.71,2.19,5.99-4,6.36.83,3.09-1.42,4.03-5.31.17-.71,1.57-.51,1.94-1.46s-.25-2.88.04-3.22c.36-.42,3.39.35,3.99,0-1.06,1.06.88,3.11,1.99,1.99s-.93-3.06-1.99-1.99c.32-.19.42-3.72,5.99-2.01.36-.57-1.67-3.65-1.99-3.99,1.74,1.74,1.93-.78,2-2,6.21-.27,6.03-1.76,0-2,.07-1.33-.05-2.67,0-4v-.03ZM601.98,697.47c1.21-.22,2.73.18,4.01,0,1.64-6.92-3.86-3.36-4.01,0-.9.16-5.57,2.78-3.99,3.99.6.46,6.42-.31,7.99,0,.69-3.16-1.97-1.78-4-2,.01-.66-.02-1.34,0-2h0ZM609.98,697.47c-.16-.11.14-4.13-1.99-1.99s1.88,1.83,1.99,1.99c.35.49-.36,3.58,0,4,.89,1.04,5.77-3.69,3.41-4.02-.95-.13-3.06.26-3.41.01h0ZM599.97,703.47h-3.99v1.99h3.99v-1.99ZM601.97,707.47c-1.09-1.09-3.08.9-1.99,1.99s3.08-.9,1.99-1.99ZM561.48,708.47v1c.65-.33.65-.67,0-1ZM647.98,717.47c-2.13-1.69,4.1-2.29,2-4-.44-.36-3.65.35-4.01,0-.63-.6,1.57-4.99-1.98-4-1.12,6.64.81,5.39,3.99,7.99.22.18-.67,3.18,3.99,1.99v-1.99c-.98-.22-3.64.28-3.99,0h0ZM595.98,713.47c-.65.48-5.53,2.49-5.99,1.99l-.51-5c-2.71-.02-6.72,4.23-5.5,7.01,9.6-.83-2.78,5.28.01,10l4.02-5.97c2.34-1.47,2.06,4.17,3.97,1.97,1.26-1.46-2.84-4.97-1.99-5.99,1.59-1.91,2.12,1.9,2.61,2.02,1.34.33,4.91-1.35,5.36-2.05,1.47-2.3-4.23-2.13-1.98-3.98.76-.63,5.8,1.26,5.99-.99-6.18-2.93-5.3.47-5.99.99ZM639.97,711.47c-1.09-1.09-3.08.9-1.99,1.99s3.08-.9,1.99-1.99ZM627.98,721.47c.12-.27,1.45-6.14.01-5.99.58,3.21-2.78,1.43-3.85,2.13-.68.44-.52,2.46-1.05,3.27-.94,1.43-3.93-.68-3.11,2.59,1.57.93,7.51-.91,7.99-1.99-1.06,1.06.88,3.11,1.99,1.99s-.93-3.06-1.99-1.99h.01ZM637.97,715.47h-1.99v3.99h1.99v-3.99ZM583.97,719.47h-4.99v1.99h4.99v-1.99ZM577.97,723.47c-1.09-1.09-3.08.9-1.99,1.99s3.08-.9,1.99-1.99ZM573.97,725.47l-6.86,5.81c-3.97,3.23,2.25,1.65,4.22,2.17.9.24.57,1.84.71,1.94,1.12.81,4.18-2.37,3.95-3.42-.08-.38-3.87-1.96-2.02-6.5h0ZM615.98,727.47c-.65.08-1.34-.06-1.99,0-.28,2.08-.1,2.27,1.99,1.99.07-.65-.08-1.35,0-1.99.65-.08,1.34.06,1.99,0,.28-2.08.1-2.27-1.99-1.99-.07.65.08,1.35,0,1.99ZM579.97,727.47h-3.99v1.99h3.99v-1.99ZM625.97,727.47h-6v5.99c3.57.98,1.36-3.37,1.99-4s4.98,1.57,4-1.98h.01ZM617.97,731.47c-1.09-1.09-3.08.9-1.99,1.99s3.08-.9,1.99-1.99ZM650.48,733.47v1c.65-.33.65-.67,0-1ZM567.97,735.47c-1.09-1.09-3.08.9-1.99,1.99s3.08-.9,1.99-1.99ZM645.98,741.47c.16-.16,3.62-2.47,4-2-1.72,3.6,2.55,5.53,3.98,3.98.29-.31-.29-2.3.06-3.22.12-.31,3.92-2.8,1.96-4.76-2.07-2.07-4.4,1.91-4.68,1.97-1.39.32-5.03-.28-5.32.01-.34.34.34,3.61,0,4.01-.14.16-3.22-.26-4,1.51-1.32,3.02,1.85,2.35,2,2.49.39.39-.73,3.1,3.99,1.99v-1.99h-3.99c-.38-.51,1.76-3.76,2-4h0ZM575.97,736.47c-1.48.59-4.25.54-5.39,1.02-2.09.87,2.26,4.67,3.36,3.94.22-.15,2.76-4.09,2.02-4.96h.01ZM613.98,741.47c-.25.25-3.07-.2-4.01,0v1.99c4.75,1.11,3.61-1.59,4.01-1.99s3.1.74,1.99-3.99h-1.99c-.2.92.25,3.74,0,3.99ZM519.96,741.49c-.23-.16-2.1-.37-2,.49,3.17,6.13-2.94.79-1.98,6.48l5.97-3.02c.4-.61-1.81-3.83-2-3.96h.01ZM559.98,749.47c-.81-1.98-1.94-2.5-1.99-2.68-.45-1.92,1.15-7.31-2.05-4.7-.6.49-4.81,5.36-4.94,5.9-.7,2.86,3.14.62,4.78,1.75.21.15.16,3.18,2.19,1.71.48-.34-1.29-1.37,2.01-1.98.2.49-.23,1.83,0,2,3.31,2.31,6.07-2.65,3.98-5.99-3.56-.89-1.31,3.08-1.99,4.01-.13.17-1.54-.09-2,0v-.02ZM561.97,741.47c-1.09-1.09-3.08.9-1.99,1.99s3.08-.9,1.99-1.99ZM567.97,741.47c-1.09-1.09-3.08.9-1.99,1.99s3.08-.9,1.99-1.99ZM599.98,743.47c-.65.08-1.34-.06-1.99,0-.28,2.08-.1,2.27,1.99,1.99.07-.65-.08-1.35,0-1.99.65-.08,1.34.06,1.99,0,.28-2.08.1-2.27-1.99-1.99-.07.65.08,1.35,0,1.99ZM605.97,744.47c-3.26-.88-1.38,2.34-2.08,2.87-.59.45-2.35-.17-3.61.44-.24.12-3.22,2.89-2.3,3.68,1.93,1.64,3.33-1.92,3.67-1.98,4.31-.88,4.81,2.14,4.32-5.01ZM595.97,748.47c-2.17.25-4.73.63-3.99,2.99h3.99v-2.99ZM589.97,752.47c-1.09-1.09-3.08.9-1.99,1.99s3.08-.9,1.99-1.99ZM593.97,753.47l-2.99.49c.91,1.06,1.52,1.82,2.99,1.5v-1.99ZM595.98,757.47c-.65.08-1.34-.06-1.99,0-.28,2.08-.1,2.27,1.99,1.99.07-.65-.08-1.35,0-1.99.65-.08,1.34.06,1.99,0,.28-2.08.1-2.27-1.99-1.99-.07.65.08,1.35,0,1.99ZM585.97,757.47c-1.09-1.09-3.08.9-1.99,1.99s3.08-.9,1.99-1.99ZM591.97,759.47c-.14-.14-3.85-.16-3.99-.01-1.02,1.03,2.93,5.56-6.01,4.01-.45,8.39,3.04,2.18,3.72,2.02,1.26-.28,2.51.2,4.02-.34,1.17-.42,3.33-4.59,2.26-5.68ZM552.48,760.47v1c.65-.33.65-.67,0-1ZM579.97,763.47h-1.99v3.99h1.99v-3.99ZM685.97,765.47c-1.09-1.09-3.08.9-1.99,1.99s3.08-.9,1.99-1.99ZM575.97,767.47c-.58-.6-3.39.17-3.99,1.51-.68,1.52,3.24,1.83,2,4.48,2.25,2.83,2.52-5.44,1.99-5.99ZM587.48,768.47v1c.65-.33.65-.67,0-1ZM582.48,769.47v1c.65-.33.65-.67,0-1ZM579.97,771.47c-1.09-1.09-3.08.9-1.99,1.99s3.08-.9,1.99-1.99ZM582.48,772.47v1c.65-.33.65-.67,0-1ZM573.97,775.47c-1.09-1.09-3.08.9-1.99,1.99s3.08-.9,1.99-1.99ZM522.97,783.48c-1.4-.72-2.67.63-1.99.98,1.4.72,2.67-.63,1.99-.98ZM693.97,785.47c-1.09-1.09-3.08.9-1.99,1.99s3.08-.9,1.99-1.99ZM695.97,789.47h-1.99v5.99h1.99v-5.99ZM553.97,793.47c-1.09-1.09-3.08.9-1.99,1.99s3.08-.9,1.99-1.99ZM699.97,797.47c-1.09-1.09-3.08.9-1.99,1.99s3.08-.9,1.99-1.99Z"/>
  <path class="st4" d="M569.98,693.47c-.03.66.04,1.34,0,2-.66.03-1.33-.03-1.99,0,.05.62-.14,1.86,0,1.99-.4-.41-2.86,1.14-2-4,1.3-.09,2.7-.05,4,0h-.01Z"/>
  <path class="st13" d="M213.98,855.47c.47-4.35,1.47-7.78,2-12h53.5c.4,0,2.54,2.31,2.53,3.5,0,.62-1.82.34-2.03,1.15-.49,1.96.44,4.58-.02,6.67-.18.79-1.83.27-2.06,2.11s.49,4.34.15,6.03-3.21-2.5-3.07,5.54c-.46.53-2.71,5-3,5h-50c.28-2.29-.47-5.17.02-7.31.92-4,1.39-5.25,1.98-10.69h0Z"/>
  <path class="st10" d="M205.98,895.47c-.22,3.3.17,6.69-.01,9.99l-1.98-1.99c-.4,2.86.56,6.63-.03,9.3-.07.33-3.16,2.17-3.74,5.43-.52,2.94.3,6.21-.26,8.58-.17.73-1.74.58-1.94,1.39-1.16,4.56-1.22,11.44-2.27,15.56-.48,1.89-3.03,3.57-3.52,5.47-.68,2.62.29,5.47-.25,7.6-.19.77-1.96.59-1.99,1.25-.57,10.9-3,17.13-5.91,26.2-1.9,5.93-2.64,10.9-2.1,17.21h48c.17,0,1.93-2.55,1.97-2.71.43-2.12-.41-4.58.05-6.61.13-.56,3.83-8.81,3.96-9.37.83-3.45-.69-8.91.06-12.58.18-.87,3.74-2.59,3.91-3.46.59-2.91-.36-6.58.09-9.72.36-2.47,3.81-7.79,3.92-8.25.63-2.64-1.87-9.35,2.03-9.3-.19,3.25.33,6.84,0,10-1.39,13.23-8.86,39.37-12.22,51.27-.19.69-1.53,4.73-1.78,4.73h-54c.21-2.74-.38-5.77.05-8.45,2.23-13.81,8.79-31.81,11.91-44.25,2.69-10.7,5.85-22.17,8.02-31.97.77-3.49-1.23-5.62,2.01-9.32.13-.14,1.77.55,2.05-.62.45-1.89-.54-4.72,0-6.83l3.95-8.54h.02Z"/>
  <path class="st9" d="M623.98,851.47c.12.56-.18,1.84,0,2l-91.57-.08c-2.22.27-1.37,4.57-5.87,0h-177.13c-1.93,1.45-4.85,3.26-7.22,3.79-4.6,1.03-7.11-1.82-6.22,4.29-6.81,1.31-1.32-3.58-7-5.01,3.57-1.17,4.69-2.42,9-3,5.82-.78,12.41-.5,18.46-2.04l267.54.04h0Z"/>
  <path class="st8" d="M199.98,911.47c-1.15-4.61,1.16-7.79,1.95-11.55.94-4.41.55-5.7,2.43-10.15.21-.49,2.39-.03.62-2.3h55c4.43,5.16.22,5.76.02,6.68-1.47,6.75-1.83,11.57-3.92,18.11-2.84,8.9-4.27,18.18-6.11,26.53-.28,1.28-1.69,1.29-1.98,7.23-.1,1.92,1.03,4.01-2.01,3.45.33-3.16-.19-6.75,0-10,.23-4,3.44-8.45,3.98-10.69,1.26-5.25,1.14-14.47,2.77-20.01.73-2.48,3.15-3.63,3.23-4.01.55-2.61-.56-6.09.05-8.61.23-.95,2.24.31,1.97-4.69-.04-.73.46-2.12-.59-2.02-14.99,1.48-33.4-1.88-47.94-.04-1.7.21-3.26,2.6-3.46,4.07-.09.64.04,1.35,0,2l-3.95,8.54c-.54,2.11.45,4.94,0,6.83-.28,1.17-1.92.48-2.05.62h-.01Z"/>
  <path class="st8" d="M521.98,667.47c.86.12,7.49-5.8,7.7-6.28.56-1.3.12-3.5.31-3.71,1.26-1.43,29.26,2.02,16.99,9.99-.2-.13-2.26-.06-3,0-2.05,4.44-4.72,8.43-8,12-1.36,1.48-7.38,5.9-7.77,6.3-1.55,1.58-11.59,11.16-11.93,11.93-.2.47.79,1.68.69,1.75-.2.15-1.72-.22-2.62.37-.71.46-11.8,11.1-12.08,11.9-1.94,5.56.16,10.29-8.3,11.75.12-.15-.21-1.06.3-1.72.7-.91,5.56-4.38,5.68-5.01.28-1.53-.5-4.76.02-7.28,3.8-.14,7.48-4.65,10.06-7.49.83-.92.78-2.33.94-2.51,7.68-8.47,18.16-19.23,26.56-26.95,1.34-1.23,4.92-4.93,6.44-5.05.9-1.94,3.54-3.79,1.02-5.52-1.23-.84-11.14-.81-12.77-.18l-40.49,41.4c-7.44-1.33-8.67,7.69-15.76,8.29.11-.16-.18-1.01.3-1.71,1.15-1.67,4.78-2.65,4.7-6.29.33-.01.68.04,1,0,.64-.08,1.35.09,2,0,.09-.66-.07-1.35,0-2,1.53.03,4.11.35,5.33.02s.49-1.74.67-2.02c.93.16,1.52-.8,2-1,4.45-1.88,2.71-1.19,4-5,2.62-.5,4.4-3.79,6.39-5.58s2.79-2.85,4.37-4.38,4.78-2.72,5.24-4.04c.17-.49-.12-1.38,0-2,3.12.53,1.56-1,2-2,2.13-.69,3.57-2.34,5.51-4.06,1.19-1.06,3.24-.58,2.49-3.94v.02Z"/>
  <path class="st3" d="M623.98,1029.47c-.52,1.69-5.22,6.97-6.31,7.68-1.62,1.05-6.1,1.79-7.69,2.32.29,3.81-4.88,3.81-5.76,4.37-1.77,1.13-6.78,6.2-8.55,7.3-3.72,2.3-9.16,3.54-12.96,4.36-.88.19-2.57,3.74-3.45,3.93-8.88,1.91-18.54,4.87-26.95,8.37-5.46,2.27-5.43.87-10.89,1.58-1.85.24-1.31,1.87-2.12,2.06-2.63.61-6.46-.36-9.32.02,9.15-2.54,22.19-6.35,30.32-9.66,1.95-.79,4.11-2.25,4.37-2.31,2.86-.66,10.15,1.27,8.3-4.02,7.18,1.8,6.38-1.76,9.32-3.69,1.62-1.06,8.01-3.18,10.01-3.99,7.11-2.87,10.18-5.82,17.67-8.34-.1-1.26-1.14-2.61-1-3.99,1.39-.1,2.97.31,4.3-.03,1.78-.46,6.54-5.49,6.99-5.67,1.49-.59,3.28-.1,3.71-.31v.02Z"/>
  <path class="st9" d="M377.98,871.47v2c-3.13-1.3-3.93,1.49-4.33,1.66-2.58,1.08-7.88,2.45-9.32,4.67-.49.76-.23,2.18-.69,3.33-.28.71-2.88.84-1.62,5.63.18.68,1.49.7,1.62,1.03,4.07,10.33,10.71,12.17,20.01,16.01.35.15.34,1.48,1.03,1.64,4.29,1,5.92-.76,8.3,5.02-4.05-.07-8.04-1.25-12.68-3.33-.43-.2-.19-2.58-3.68-1.66-.76.2-.16,2.9-3.94,1.97-.3-.07-4.18-4.02-4.38-4.29-.59-.79-.06-2.61-.64-3.37-.74-.97-5.51-4.41-5.65-5.04-.32-1.47.27-3.15-.05-4.59-.18-.83-1.82-.26-2.07-2.12s-.22-8.92.36-10.32c.16-.39,5.66-5.71,6.03-5.95.71-.48,2.19-.16,3.37-.63.34-.14.35-1.47,1.02-1.63,1.91-.47,5.07.04,7.3-.03h0Z"/>
  <path class="st3" d="M505.98,655.47c1.88.06,6.84-.45,7.84.16.33.2,1.49,3.5,1.16,3.84-.11.11-1.74-.25-2.62.35-4.09,2.77-3.25,5.39-4.4,7.65-.04.09-1.19-.74-1.96-.32-6.13,3.36-5.44,7.66-6.06,8.29-.26.26-2.43-.22-3.69.33-.48.21-6.33,6.67-7.28,7.7-1.67,1.83-2.69,1.62-3,4l-1.99-1.01c.56,4.2-.8,2.84-4.01,3.01-.62,4.37.09,5.33-2,10-.54-.08-1.46-.08-2,0,.28-1.73-.4-9.6,0-10.01.17-.17,3.06.06,4,0,.48-3.42,8.54-9.35,11.58-12.39l4.03-4.03c1.72-1.72,11.76-11.04,12.09-11.82,1.7-4.03-1.54-2.83-1.7-5.76h.01Z"/>
  <path class="st3" d="M525.98,978.47c-1.21,6.05-2.89,12.8-3.98,17.68-.73,3.23,1.69,6.39-2.02,8.32h-60c-.38-.15-1.5.34-1.86-.11-.78-.99.24-6.98-.13-8.89h.98c-.24.92.88,1.55,1.01,1.99.64,2.12-.41,4.89,3.46,6.06l53.8-.11c4.29-2.64,1.95-5.7,2.75-9.27.12-.56,3.8-8.75,3.95-9.38.5-2.06-1.08-5.24,2.03-6.3h.01Z"/>
  <polygon class="st0" points="489.98 872.47 487.98 882.47 487.98 873.46 377.98 873.47 377.98 872.47 489.98 872.47"/>
  <path class="st8" d="M623.98,851.47c1.93.13,3.39-.75,3,2v18c-.21.39-.68.69-1,1-7.95,1.61-72.82-2.51-74,1-.23.69.29,2.18-.2,3.3-.53,1.22-1.76,1.59-1.8,1.7v-7.01l73.27-.04c.84-1.12,2.62-1.98,2.8-3.41.26-2.04.36-12.36-.04-13.89-.29-1.09-1.88-.52-2.02-.65-.18-.16.12-1.44,0-2h-.01Z"/>
  <path class="st8" d="M489.98,872.47h-112v-1c34.83-1.13,71.55-.38,106.51-.02,1.69.02,4.45-.64,5.49,1.02Z"/>
  <path class="st0" d="M213.98,855.47c-.58,5.43-1.05,6.69-1.98,10.69-.5,2.14.26,5.02-.02,7.31h50c.29,0,2.54-4.47,3-5,0,.14.98.67.95,1.51-.01.32-1.79,4.31-1.95,4.49h-52c-8.15-2.43-2.24-2.69-1.99-3.65.49-1.94-.46-4.59.01-6.67.16-.72,1.73-.58,1.94-1.39.59-2.27-.81-5.59,2.04-7.29h0Z"/>
  <path class="st9" d="M399.98,914.47c.36-.02,1.46-1.49,3.34-1.04,1.01.24,14.95,8.49,16.97,9.72,2.35,1.43,4.56-1.76,3.68,4.33-5.61-2.63-13.07-6.61-19.31-8.02l-4.69-4.98h.01Z"/>
  <path class="st9" d="M511.98,679.47c-.46,1.32-3.64,2.5-5.24,4.04s-2.32,2.53-4.37,4.38-3.77,5.08-6.39,5.58c-1.29,3.81.45,3.12-4,5l-.5-.98c-.81.44-1.05,1.28-1.5,1.98-.18.28.54,1.7-.67,2.02s-3.8.01-5.33-.02c-.07.65.09,1.34,0,2-.65.09-1.36-.08-2,0v-2c.63.08,1.35-.01,2,0,.13-1.13.12-2.86,0-4,.44-.17,5.86-2.54,3.99-3.99-.44-.34-3.83.21-4.99,0-.4.35.9,3.04,1,3.99-.51.19-1.82-.24-2,0s0,3.08,0,4.01c-2.78-.36-1.18-1.58-4-2-1.38,3.09-1.75,1.7-1.98,2.01-1.85,2.53,3.02,2.07,4.98,1.99.08,3.64-3.55,4.61-4.7,6.29-.48.7-.19,1.56-.3,1.71-3.44,4.7-7.97,8.63-11.97,12.75-2.17,2.23-15.17,16.56-16.28,16.95-5.85,2.06-10-2.84-6.8-8.25l33.34-33.14c.5-.5,1.15-.22,1.71-.3s1.46-.08,2,0c2.09-4.67,1.38-5.63,2-10,3.2-.17,4.57,1.19,4.01-3.01l1.99,1.01c-.1.75-.14,2.34,0,3,.16.76.24.83,1,1,.86.19,2.06-.13,3,0-.3,2.8.16,1.75,2,2,.61.08,1.36.01,2,0s1.43.11,2,0c.4-1.19.47-2.9,1-4,.18-.37.92-1.92,1-2,.39-.38,2.51,1.03,2.01-1.5-.09-.45-3.43-.8-2.02-4.5,1.02-.26,3.46.32,4.01,0v3.99h1.99v-3.99h-1.99c.14-.09.46-2.95,1.49-2.98.45-.02,5.51,3.01,8.51.98v-.02Z"/>
  <path class="st8" d="M263.98,874.47c-.77.88-1.03,1.24-2.4,1.06-14.27-1.93-36.55,2.83-49.6-1.06h52Z"/>
  <path class="st8" d="M515.98,1074.47l1.5,1c-14.66-.37-29.39.48-44.04,0-1.93-.06-4.01,1.02-3.45-2,.33.02.67-.02,1,0l45,1h-.01Z"/>
  <path class="st0" d="M702.98,847.47c.28,13.97-.21,28.02,0,42h-1c.83-14,.79-32.95,0-47,1.6.84.97,3.39,1,5Z"/>
  <path class="st4" d="M488.98,683.47c1.94,1.7-1.37,3.41-.99,3.98.1.14.96-.16,1.2.12,3.54,4.27,1.96.77,3.01.18,1.53-.86,4.01-.06,5.78-.28-.08.08-.82,1.63-1,2-3.9-.55-3.06.54-3,4-.64.01-1.39.08-2,0,.31-2.8-.17-1.74-2-2-.94-.13-2.14.19-3,0l-1-1c-.14-.66-.1-2.25,0-3,.31-2.38,1.33-2.17,3-4Z"/>
  <path class="st0" d="M515.98,1073.47v1l-45-1c13.78.73,31.2.67,45,0Z"/>
  <path class="st8" d="M702.98,889.47c-.21-13.98.28-28.03,0-42h1c.15,12.38.99,27.48.05,39.57-.07.94.19,2.33-1.05,2.43Z"/>
  <path class="st9" d="M513.98,675.47c1.5-3.43,2.67-6.04,2.01-9.99,3.61-.87,1.34,3.24,2,4,1.67,1.92,2.09-3.21,4-2,.75,3.36-1.29,2.88-2.49,3.94-1.94,1.72-3.38,3.37-5.51,4.06-.44,1,1.12,2.53-2,2,.12-.59-.2-1.79,0-2,.24-.24,1.46.17,2,0h-.01Z"/>
  <path class="st4" d="M960.98,845.47c-4.3-3.61-9.68-3.19-14.95-2.95.02,5.53-3.06,10.81-4.05,15.95-5.45-.4-.24-5.49-.12-5.82,1.97-5.47.97-12.91,8.12-11.19l-1.99-1.98c2.41.89,11.86,1.73,13.03,2.45,2.3,1.43-.03,3.33-.03,3.54h-.01Z"/>
  <path class="st4" d="M960.98,847.47c3.99-1.12,3.55,2.74,2.96,5.27-.2.86-3.41,2.44-3.66,3.01-1.26,2.89,1.65,4.45-4.29,3.73l2,1.99h-14c-.19,0,.31,3.82-1.99,1.99-.96-.76-.05-2.5,0-2.99,12.21.18,17.62-.01,19-13h-.02Z"/>
  <path class="st9" d="M910.98,868.47l-27.01-.5c0-1.13,20.37-.58,22.51-.5,1.38.05,4.11-.7,4.5,1Z"/>
  <path class="st12" d="M337.98,853.47c-.55-3.1,1.55-1.85,3.47-1.99,3.23-.24,6.36-.1,9.53-1.02.24-1.74-2.27-.94-3.48-.99-2.99-.12-6.01.08-9.01,0v-2.01c3.88.56,9.37-.73,12.95-.06,1.26.24-.11,2.89,1.05,3.09,2.74-.21,5.13-.99,7.94-1.07,60.82-1.85,123.52.12,184.55.05,10.01-.01,75.5,1.9,78.78-.28.52-.35-.52-2.07,1.71-1.72,1.77.27,2.42,4.53,2.51,6.01h-1c.39-2.75-1.07-1.87-3-2l-267.54-.04c-6.04,1.55-12.64,1.27-18.46,2.04h0Z"/>
  <path class="st2" d="M575.98,821.47c-.23.19.07,4.92,0,6-1.95-.03-4.01,2.35-4,4,.01,2.65,1.78,1.71,1.99,2.68.32,1.47-.3,3.16.02,4.64.17.76,1.75.63,1.96,1.35,1.68,5.75-4.38,2-7.39,4.24-1.06.79-.15,2.87-1.09,3.14-4.87,1.41-3.41-2.34-3.5-6.05.92-.93,10.52,1.89,7.34-1.96-2.27-2.75-.74-2.3-1.34-5.36-.16-.83-2.7-.66-1.99-2.68,1.05-1.24,3.51-4.69,2-6,1.07-.68,5.17-3.23,6-4Z"/>
  <path class="st12" d="M605.98,796.47l1.99,5c-2.62,1.05-1.76-1.93-2.49-2.04-1.32-.19-3,.27-3.49,1.55-.92,2.42,3.65,3.12,1.99,6.49-2.68.96-1.62-1.78-2.61-2.02-2.72-.65-4.99,1.58-5.38,4.03-1.33,0-2.67-.02-4,0-1.66,3.5,2.29,5.58,4,4,.16-1.29-.19-2.77,0-4,3.27,0,4.99-.89,3.95,3.28-.98,3.91-7.27,1.91-9.95,2.72-.03-.66.03-1.34,0-2-.09-1.67.51-5.74-2-4-.18.13-1.68,3.43-2,4-1.73.3-2.04.53-3,2-.19.3-.71.57-1,1-.2.3.33,1.6-.06,2.24-2.22,3.6-5.67,2.54-5.94,2.76,4.18-3.89,6.91-8.02,12-12,.19-.15-.6-1.4.59-2.1,1.48-.88,3.85.46,5.39-.35.72-.37,10.97-9.53,12.02-10.55h-.01ZM600.48,803.47v1c.65-.33.65-.67,0-1Z"/>
  <path class="st0" d="M625.98,872.47l-74,1c1.18-3.51,66.05.61,74-1Z"/>
  <path class="st0" d="M519.98,1004.47c-.84.44-.83.88-2.4,1.06-12.83,1.49-40.91.99-54.22.02-1.95-.14-2.07-.55-3.38-1.07h60Z"/>
  <path class="st12" d="M559.98,838.47c.03,4.31,1.24,5.7-4,5.01l1.99,3.98h-11.99c.2-1.2-.14-2.72,0-3.99,4.94,4.9,6.87-1.47,11-4,.55-.33,1.97-.42,3-1Z"/>
  <path class="st2" d="M589.98,813.47c.03.66-.03,1.34,0,2,.11,2.11-.31,4.43.03,6.46.15.88,3.86,5.84.49,4.52-5.4-2.11-3.62-4.73-4.51-8.33-.2-.82-3.37-.49-1.98-2.63.09-.14.63.32,1.97-2.03,1.2-.21,2.73.14,4,0h0Z"/>
  <path class="st3" d="M569.98,825.47c1.51,1.31-.95,4.76-2,6-.5.59-.7-1.42-2,2-2.54-.73-1.76,1.76-2,2s-2.73-.54-2,2c-.62.33-1.24.57-2,1-1.03.58-2.45.67-3,1,.02-1.88.78-2.63,1.78-3.95,2.23-2.95,8.38-8.23,11.22-10.05Z"/>
  <path class="st0" d="M626.98,871.47v-18h1c.26,4.22.7,14.9-1,18Z"/>
  <path class="st12" d="M575.98,827.47c-.08,1.33.08,2.68,0,4.01h-4.01c0-1.66,2.05-4.04,4-4.01h.01Z"/>
  <rect class="st12" x="579.98" y="827.47" width="2.99" height="1.99"/>
  <path class="st2" d="M565.98,833.47c-1.3,3.41-1.34,1.34-2,2-.7.7,1.08.35-2,2-.73-2.54,1.76-1.76,2-2s-.54-2.73,2-2Z"/>
  <path class="st2" d="M581.98,816.47c.29-.43.81-.7,1-1l-1,1Z"/>
  <path class="st10" d="M592.98,703.47c-.33.34-.67.66-1,1-15.36,15.73-32.79,30.43-48,47-5.22,5.68-1.89,3.9-4.17,8.29-1.22,2.34-6.26,4.34-6.83,7.71-.35.04-.74-.09-1,0-2.35.78-2.86,3.55-4.5,5-3.95,3.48-4.79,4.86-7.97,8.03-5.56,5.54-11.67,10.75-17.24,16.27-.66.82-.18,1.86-.29,2.7-5.73-.78.05-4.25.07-4.56.22-3.48-8.27-5.55-6.07-7.43,1.35-1.15,5.41,3.08,4.01-6,4.58-.05-.59,3.72,3.99,3.99-.21.85.3,2.24.02,3.32s-2.94,0-2.01,2.68c3.07,1.72,7.87-3.92,6-5.99-.17-.18-3.05.05-4,0,.21-.82,1.83-3.86,2.02-3.98,2.29-1.47,1.88,1.82,2.01,1.93,1.95,1.47,1.92-1.44,2.23-1.65.51-.34,2.57-1.06,4.09-1.94,2.58-1.48,6.77-.79,5.65-6.35-5.88.57-3.13-.52-4.06-3.2-.2-.58-3.42-4.28-3.95-2.3-.12,1.81.19,3.71,0,5.5.64.09,1.35-.09,2,0,1.54,2.2-2.94,7.35-3.99,5.99-1.66-2.15,1.8-4.04,1.99-5.99-.45-.06-1.88.16-2,0-.8-1.07,1.61-7.72-1.48-6.99-.4.1-4.44,3.22-4.53,3.49-.88,2.73,3.46.94,4.02,1.48.33.33-.25,6.54,0,8.01-2.29-.28-5.18.47-7.32-.03-.27-.06-2.24-3.89-4.68-1.97-.99.78,3.62,4.49,2.99,5.98-2.03.19-4.3-.35-6.27.05-.87.18-2.73,3.87-3.44,3.97-5.96.86-4.72-1.98-5.29-5.02-1.22.05-2.56,1.29-4,.99,1.74-2.84-.28-5.45-.11-8.51.01-.2,1.97-3.34,2.11-3.48s4.11.12,1.99-1.99-1.85,1.86-1.99,1.99c-.08.07-2.13.37-2.01-.5v-3.49c1.69-.87,7.73,1.3,8,.99.22-.25,1.3-4.58,2.6-5.9.82-.84,4.78-2.38,5.09-3.37.65-2.07.03-7.48.31-7.74,1.12-1.05,5.51,2.99,4.01-5.99,4.14-1.21.07,5.77,3.48,4.98s5.75-8.55,10.52-6.98c-.14.16.07,1.09-.4,1.62l-30.65,29.83c-2.92,5.04.5,4.66,1.05,7.56.84-.04,2.26,1.05,3.36.78.35-.09,4.6-3.47,5.29-4.13,8.18-7.71,25.86-30.07,33.84-34.75,1.97-1.15,3.03.08,4.55-.34l63-62.1c2.25-1.26,12.31,5.3,11.94,6.97-.19.83-10.31,10.33-12.01,12.07-.78.79-.75,2.3-.96,2.5h-.01ZM499.97,753.47c-1.09-1.09-3.08.9-1.99,1.99s3.08-.9,1.99-1.99Z"/>
  <path class="st10" d="M543.98,809.47c5.84-5.5,18.13-19.65,23.47-23.09,2.59-1.67,3.94.65,6.08-.79,1.26-.85,1.79-2.83,2.81-3.77,22.23-20.59,43.05-42.62,64.66-63.85.95-.61,1.74-.74,2.81-.26.52.24,7.05,8.21,7.02,9.11-7.17,8.28-15.33,16.39-23.19,24.31-14.94,15.05-30.31,29.65-45.46,44.56l.59,4.18c-10.69,13.02-26.19,24.26-36.82,37.08-1.23,1.48-2.33,2.27-1.96,4.54-.66-.38-3,.98-2.02-2.48.09-.3,1.36-.4,1.95-1.32.4-.63-.11-1.96.07-2.21.1-.14,3.74.27,1.93-1.95-.83-1.01-1.8,1.58-1.93-4.05l1.33.03c1.6,2.9,4.16,3.53,4.67-.03.6-4.21,2.29-.88,4-2.01l-1-1.99c.32.02.68.02,1,0,.86-.05,1.77.44,2.01-.52.9-3.64.06-3.16-2.01-3.48-3.36-.52-1.48-1.48-2-2,8.84,1.7-.3-6.77-3.3-5.98-.16.04-2.58,1.86-2.7,1.98.13-.13-.06-1.37,0-1.99-.66,0-1.34-.04-1.99,0,.08-1.36,1.19-2.65,0-4l-.02-.02Z"/>
  <path class="st3" d="M568.98,669.47c-4.9-1.33-4.72,5.65-5.04,5.96-.27.27-2.44-.23-3.69.33-.77.35-11.64,11.21-11.98,11.98-.56,1.25-.06,3.42-.33,3.69s-2.42-.22-3.69.33c-.78.34-11.57,11.25-11.97,11.99-.59,1.09.03,2.86-.47,3.51-.18.23-3.68,1.06-5.07,2.17-2.3,1.83-13.89,15.32-14.99,15.75-1.8.7-3.67-.1-5.52.57-.71.25-10.29,10.02-10.62,10.69-.51,1.02.2,3.58-.63,5.01-1.81.4-.63-1.69-.99-1.99-1.71-1.41-2,1.18-2.76,1.89-3.12,2.96-9.66,6.62-5.24,10.09-2.65.15-3.67.64-4.49-1.99-2.01.79-1.16,4.52-1.51,5.01-.06.09-1.32-.93-1.78-.74-.41.17-5.49,5.64-6.21,6.47-.68.78-.65,2.8-1.14,3.12-.77.5-7.32.33-8.61-.16-.26-.1-3.84-3.68-3.95-3.94-1.65-3.88.91-3.32,1.7-4.48,2.61-3.79,2.37-2.28,3.64-3.57,10.01-10.25,20.38-20.54,28.68-31.39,1.83-2.4,6.73-3.94,5.67-7.65-.08-.27-3.94-2.18-1.99-4.65,1.28-1.62,1.81,2.08,3.99,1.99.42-2.03,2.69-3.94,4.41-5.56,1.85-1.75,3.89-4.96,6.59-4.44-.16.18-.11,1.59-.94,2.51-2.58,2.84-6.25,7.35-10.06,7.49-.52,2.52.26,5.75-.02,7.28-.12.63-4.97,4.1-5.68,5.01-.51.66-.18,1.56-.3,1.72s.22,1.08-.3,1.72c-8.06,9.79-21.16,19.2-29.69,29.03-1.65,3.35-.39,6.64,3.74,4.94,1.33-.55,11.97-13.3,14.57-15.37.73-.59,2.59-.06,3.37-.64,3.27-2.45,3.31-5.15,4.66-7.34,1.94-3.14,4.46-1.76,5.67-2.34.3-.14-1.52-3.24,2.31-5.66.9-.57,2.41-.11,3.34-.68,1.76-1.07,2.46-4.4,2.95-4.73,1.96-1.33,4.98-.46,7.13-1.23,2.29-.82,29.43-30.15,34.26-34.7,4.52-4.25,8.78-8.8,13-13,.33-.33.66-.67,1-1,.13-.13,1.3.09,1.97-.49,1.1-.96,3.9-4.33,4.63-4.48,1.64-.34,2.11,1.83,2.4,1.97h-.02Z"/>
  <path class="st9" d="M531.98,767.47c1.01,3.97-3.27,5.98-5.57,8.43-.46.49-.29,1.43-.43,1.57-.49.52-1.43,1.4-2,2-1.07,1.13-2.91,2.88-4,4-3.23,3.31-7.54,8.02-11.31,11.75-.23.23-4.14,1.54-4.68,2.75,4.85,4.47,7.25-1.05,10.39-4.08,2.04-1.96,5.51-5.93,7.61-7.42.61-.43,4.74-2.25,6-3,.12,3.05-2.73,3.15-4.08,4.72-.61.71-.48,2.77-1.07,3.15-.89.57-3.1-.35-3.74.28-.31.3-3.19,5.42-4.07,6.39-.98,1.08-6.74,6.28-7.56,6.21-1.21-.1-3.06-4.16-5.48-3.76,0-.33-.04-.68,0-1,.11-.84-.38-1.89.29-2.7,5.57-5.52,11.68-10.72,17.24-16.27,3.18-3.17,4.03-4.55,7.97-8.03,1.64-1.45,2.15-4.22,4.5-5h-.01Z"/>
  <path class="st11" d="M521.98,797.47c2.56.15,4.19-.48,3.05,3.47-.13.46-7.37,2.77-6.05,6.52,3.77.79,2.24-3,6.3-1.97.16.04,2.57,1.87,2.66,2.01,1.35,2.12-2.57,1.88-1.96,3.97-2.98.35-1.43.42-2,2-2.51.29-3.63.39-4.67-1.97l-1.33-.03c0-1.49.37-5.99-2-3.99-.25.21.22,1.76,0,1.99-.29.31-3.38,2.31-3.93,1.91-.19-.14.3-2.73-2.48-1.95l-1.59-3.96c4.32-.29,2.91-.82,6-2,.5-.19,1.75.24,2,0s-.19-1.5,0-2c.18-.47-.47-1.73.66-2.02,2.55-.65,6.11,1.62,5.34-1.98h0Z"/>
  <path class="st3" d="M531.98,809.47c-1.09,1.27-1.88,1.85-2,2s.24,1.07-.3,1.72c-1.82,2.21-7.35,4.34-3.79,8.86,3.11,3.95,4.77-.65,6.85-2.56,3.31-3.05,7.85-6.82,11.24-10.01,1.19,1.35.08,2.64,0,4-3,.14-4.4,4.47-6,6-.6.58-1.49,1.51-2,2-.57.55-1.87,1.89-2,2-2.46,2.16-6.03,2.62-9.27,1.95-1.26-.26-2.3-3.44-2.73-3.95v-4c.48-.55,1.67-3.08,2-4,.57-1.58-.98-1.65,2-2,1-.12,3.7.24,4,0s-1.02-2.77,2-2h0Z"/>
  <path class="st10" d="M551.98,765.47c.76,3.25-2.22,1.35-3.76,2.21-.49.28-1.15,2.46-2.19,3.41-1.21,1.1-3.58.6-4.04,1.88-.31.86,1.72.11,2.02,1.1,1,3.32-1.33,2.99-1.95,4.2-.38.73.37,2.01-.72,3.29-1.4,1.63-5.77,3.03-6.36-.08l2.99-3.01c-1.25.94-2.99.63-3.99,1-.77,1.2-2.06,2.44-2.08,2.63-.27,2.53,3.63,5.66-1.75,3.6-2.17,2.79-9.88,7.24-11.16,10.29-.9,2.14,1.92,1.43,2.99,1.49.77,3.59-2.79,1.33-5.34,1.98-1.13.29-.48,1.55-.66,2.02-1.52-.14-2.16.48-2,2-3.09,1.18-1.68,1.71-6,2-1.21.08-2.83.13-4,0,.24-2.13.13-2.24-2-2-.12-.9-.03-2.05,0-3,2.43-.41,4.27,3.66,5.48,3.76.81.07,6.58-5.13,7.56-6.21.88-.98,3.76-6.09,4.07-6.39.64-.63,2.85.28,3.74-.28.6-.38.47-2.45,1.07-3.15,1.35-1.57,4.2-1.66,4.08-4.72.23-.14,1.11.28,1.77-.2,1.37-1.01.07-2.25,4.23-3.8,2.33-3.61,3.02-2.6,5.3-4.98.85-.89.62-2.16,1.42-2.97,2.68-2.74,7.26-8.35,11.28-6.05v-.02ZM541.48,774.47v1c.65-.33.65-.67,0-1Z"/>
  <path class="st12" d="M543.98,835.47c-.18.25.33,1.58-.07,2.21-.58.92-1.86,1.01-1.95,1.32-.98,3.46,1.35,2.1,2.02,2.48.23.13.75-.05.99.51,0,.5.06,1,0,1.49-.61,6.46-7.61.69-7.86-2.68-.14-1.8,4.13-7.02,6.86-5.32h0Z"/>
  <path class="st13" d="M543.98,813.47c-.09,1.62.53,3.47,2,2-1.09,1.1-2.61,4.42-2,6.01l-6-2.01c1.6-1.53,3-5.86,6-6Z"/>
  <path class="st11" d="M552.98,825.47c-4.84-.34-5.58-3.25-4.99-7.99.38-.48,3.84,1.84,3.99,1.99.52.52-1.36,1.48,2,2v4c-.32.02-.68.02-1,0Z"/>
  <path class="st11" d="M543.98,829.47c-.22-9.18,2.53-.27,6,0-.51,3.55-3.06,2.92-4.67.03l-1.33-.03Z"/>
  <path class="st11" d="M535.98,821.47v4c1.31.15,2.69-.12,4,0,1.58,1.71-.49,5.66-4,4-.03-1.33,0-2.67,0-4-1.89-.22-2.29.74-2-2,.13-.11,1.43-1.45,2-2Z"/>
  <path class="st12" d="M515.98,809.47c.22-.24-.25-1.78,0-1.99,2.37-1.99,2,2.51,2,3.99,0,2.53.89,4.68-1.99,4v-6h-.01Z"/>
  <rect class="st12" x="505.98" y="811.47" width="1.99" height="3.99"/>
  <path class="st12" d="M521.98,817.47v4c-.17-.2-2.52,1.03-2.06-2.54.31-2.42,1.79-1.16,2.06-1.46Z"/>
  <path class="st12" d="M335.97,847.47v1.99h-3.99c-1.21-.55,3.44-2.53,3.99-1.99Z"/>
  <path class="st12" d="M513.97,813.47c1.09,1.09-.9,3.08-1.99,1.99s.9-3.08,1.99-1.99Z"/>
  <path class="st12" d="M501.98,803.47c2.13-.24,2.24-.13,2,2-.65-.07-1.34.09-2,0-.1-.65.08-1.36,0-2Z"/>
  <path class="st12" d="M627.98,703.47c1.02,3.91-1.64,4.27-3.58,6.4-17.68,19.38-39.13,39.77-58.03,58.02-.9.87-5.96,5.42-6.1,5.82-.64,1.79.03,3.41-.33,5.03-.18.84-3.39,2.42-3.66,3.02-.66,1.45-.1,3.34-.31,3.71-.09.16-1.66,1.66-2,2-.22.22-2.56-.41-2,2-2.13,1.89-4.03,3.97-6,6-3.7-.83-6.83,2.25-6,6-3.08,2.83-5.22,4.76-8,8-3.02-.77-1.7,1.76-2,2s-3-.12-4,0c-.61-2.08,3.31-1.85,1.96-3.97-.09-.14-2.5-1.97-2.66-2.01-4.05-1.03-2.52,2.76-6.3,1.97-1.33-3.75,5.92-6.07,6.05-6.52,1.14-3.96-.49-3.33-3.05-3.47-1.07-.06-3.89.65-2.99-1.49,1.28-3.05,9-7.5,11.16-10.29,5.38,2.07,1.48-1.07,1.75-3.6.02-.19,1.31-1.43,2.08-2.63,1-.37,2.74-.06,3.99-1l-2.99,3.01c.58,3.12,4.96,1.72,6.36.08,1.09-1.28.35-2.56.72-3.29.62-1.21,2.95-.88,1.95-4.2-.3-.99-2.33-.24-2.02-1.1.47-1.29,2.83-.78,4.04-1.88,1.04-.95,1.7-3.13,2.19-3.41,1.54-.87,4.52,1.03,3.76-2.21,20.63-20.24,40.57-41.03,61.54-60.96,2.36-2.24,3.6-6.53,7.74-5.88,2.48.39,4.47,3.53,6.72,4.84h.01Z"/>
  <path class="st1" d="M535.98,679.47c2.34-.38,3.03,2.78,4.31,3.68,1.11.78,4.26.27,5.69,3.32-4.82,4.54-31.96,33.87-34.26,34.7-2.15.77-5.17-.1-7.13,1.23-.49.33-1.19,3.66-2.95,4.73-.93.57-2.45.11-3.34.68-3.83,2.42-2.01,5.51-2.31,5.66-1.21.58-3.73-.79-5.67,2.34-1.35,2.19-1.39,4.89-4.66,7.34-.79.59-2.64.06-3.37.64-2.59,2.07-13.24,14.82-14.57,15.37-4.13,1.7-5.39-1.59-3.74-4.94,8.53-9.83,21.64-19.25,29.69-29.03.52-.63.17-1.55.3-1.72,8.46-1.46,6.35-6.19,8.3-11.75.28-.8,11.37-11.44,12.08-11.9.9-.59,2.42-.22,2.62-.37.09-.07-.9-1.28-.69-1.75.34-.77,10.37-10.35,11.93-11.93.39-.4,6.41-4.82,7.77-6.3h0Z"/>
  <path class="st1" d="M569.98,695.47c-.07,1.22-.26,3.74-2,2-.13-.13.06-1.37,0-1.99.66-.04,1.33.02,1.99,0h.01Z"/>
  <path class="st1" d="M565.98,693.47c-.86,5.14,1.6,3.59,2,4,.33.34,2.35,3.42,1.99,3.99-5.58-1.72-5.67,1.82-5.99,2.01,1.06-1.06,3.11.88,1.99,1.99s-3.06-.93-1.99-1.99c-.61.35-3.63-.41-3.99,0-.3.34.32,2.3-.04,3.22s-1.77.76-1.94,1.46c-.94,3.89,2.33,6.15-4.03,5.31,2.72,6.19-4.83,3.09-5.99,4-2.19,1.71,3.74,2.02,1.99,3.98-1.85,1.27-4.58-.14-5.75.24-2.98.97-1.99,7.42-2.25,7.76-1.78,2.31-1.67-3.42-3.97-1.97-1.51.95-1.95,6.62-4.84,7.91-2,.9-3.17-1.56-3.18,2.06,2.44.28,4.66-1.14,3.99,1.99-3.28-.14-4,1.17-3.99-1.99-2.17-.25-3.71-.59-6,0,.37-2.46,5.85-1.35,3.95-3.96-.19-.27-2.28.66-1.91-1.45.69-3.97,5.49-.88,3.96-6.59,6.55,2.1,2.83-.49,4.91-3.4.62-.87,2.22-.32,2.78-.83,1.45-1.31.93-6.99,5.32-5.76l-1.02-1.99c5.35.68,8.38-6.68,12.39-9.68.74-.56,2.12-.17,2.53-.42.12-.07-.59-1.78-.24-2.66.67-1.68,3.25-.67,1.32-3.25,6.49.98,2.95-1.99,4.02-4.02.09-.18,2.71.11,3.99.01v.03Z"/>
  <path class="st1" d="M569.98,689.47c.04-1.01-.22-3.64,0-4,.12-.19,2.64,1.03,3.98-1-.5,3.29,3.2,3.15,2,7-3.37-.34-1.26-2.75-5.99-2-.05,1.33.07,2.67,0,4-1.3-.05-2.7-.09-4,0,.44-2.67,1.28-3.56,4-4h.01Z"/>
  <path class="st1" d="M569.98,693.47c6.03.24,6.21,1.73,0,2,.04-.66-.03-1.34,0-2Z"/>
  <path class="st3" d="M627.98,703.47c1.23.72,2.32-1.65,2.07,3.57-.05,1.09-1.5,3.79-2.07,4.43-5.55,6.21-13.96,13.86-20,20-1.09,1.11-2.82,2.81-4,4-12.56,12.69-26.62,24.08-38,38-.09.11-1.78-.47-2.03.65-.31,1.38.33,3.13.01,4.68-.14.69-1.52.65-1.67.91-.25.45.78,1.66.68,1.74-.34.27-5.84,3.05-6.99,4.03-.14.12-1.05,1.15-2,2-.33.29-.94,1.06-2,2-.56-2.41,1.78-1.78,2-2,.34-.34,1.91-1.84,2-2,.21-.37-.35-2.26.31-3.71.27-.6,3.47-2.18,3.66-3.02.36-1.62-.31-3.24.33-5.03.14-.4,5.2-4.95,6.1-5.82,18.9-18.25,40.34-38.64,58.03-58.02,1.94-2.13,4.6-2.49,3.58-6.4h-.01Z"/>
  <path class="st1" d="M595.98,713.47c-2.25,1.85,3.45,1.68,1.98,3.98-.45.7-4.02,2.37-5.36,2.05-.49-.12-1.02-3.93-2.61-2.02-.85,1.02,3.25,4.53,1.99,5.99-1.91,2.2-1.64-3.44-3.97-1.97l-4.02,5.97c-2.79-4.72,9.58-10.83-.01-10-1.22-2.77,2.79-7.02,5.5-7.01l.51,5c.46.49,5.35-1.52,5.99-1.99.7-.52-.19-3.92,5.99-.99-.19,2.25-5.23.36-5.99.99Z"/>
  <path class="st1" d="M519.98,783.47c-.35,1.66.75,2.23,2,3-2.1,1.49-5.57,5.45-7.61,7.42-3.14,3.03-5.54,8.55-10.39,4.08.54-1.21,4.45-2.52,4.68-2.75,3.78-3.72,8.08-8.44,11.31-11.75h0Z"/>
  <path class="st1" d="M549.97,671.46c.08,3.13.74,12.17-3.74,9.67-.17-.09-.05-1.27-1-1.64s-2.92.24-3.23-.05c-.15-.13-.14-3.82-.01-3.97,1.72-2.11,2.28,4.11,3.99,1.99,1.29-1.6-2.93-7.7,4-6h-.01Z"/>
  <path class="st1" d="M645.98,741.47c.33-.4-.35-3.67,0-4.01.3-.29,3.94.31,5.32-.01.27-.06,2.61-4.04,4.68-1.97,1.96,1.96-1.84,4.45-1.96,4.76-.35.92.23,2.91-.06,3.22-1.43,1.55-5.7-.39-3.98-3.98-.38-.46-3.84,1.84-4,2-.24.24-2.38,3.49-2,4h4.01v1.99c-4.74,1.11-3.61-1.61-4-1.99-.15-.15-3.31.53-2-2.49.77-1.77,3.86-1.34,4-1.51h-.01Z"/>
  <path class="st1" d="M573.97,725.47c-1.85,4.54,1.94,6.12,2.02,6.5.23,1.05-2.83,4.23-3.95,3.42-.13-.1.19-1.7-.71-1.94-1.97-.52-8.19,1.06-4.22-2.17l6.86-5.81h0Z"/>
  <path class="st1" d="M559.98,749.47c-3.3.61-1.54,1.64-2.01,1.98-2.03,1.47-1.97-1.56-2.19-1.71-1.64-1.14-5.48,1.1-4.78-1.75.13-.54,4.34-5.41,4.94-5.9,3.2-2.61,1.6,2.78,2.05,4.7.04.18,1.17.7,1.99,2.68.46-.08,1.87.18,2,0,.68-.93-1.57-4.9,1.99-4.01,2.09,3.34-.67,8.31-3.98,5.99-.24-.17.2-1.51,0-2v.02Z"/>
  <path class="st9" d="M543.98,751.47c.04,1.33-.07,2.67,0,4,.03.66-.05,1.34,0,2l-6,8c-1.66-.21-2.36.28-2,2-.98.01-2.05-.11-3,0,.57-3.37,5.61-5.37,6.83-7.71,2.28-4.39-1.05-2.61,4.17-8.29Z"/>
  <path class="st1" d="M607.98,731.47c.14-.14,3.85-.14,3.99,0,.37.37.01,4.69-.31,5.74-.67,2.14-5.6,2.83-7.68,2.26.17-.98-.25-3.7,0-3.99.85-.96,2.7.25,2.01,2h.98c.81-1.18.8-5.78,1.01-6h0Z"/>
  <path class="st1" d="M591.97,759.47c1.07,1.1-1.09,5.27-2.26,5.68-1.51.54-2.76.06-4.02.34-.69.15-4.17,6.37-3.72-2.02,8.94,1.54,4.99-2.98,6.01-4.01.14-.14,3.85-.13,3.99.01Z"/>
  <path class="st1" d="M627.98,721.47c1.06-1.06,3.11.88,1.99,1.99s-3.06-.93-1.99-1.99c-.49,1.09-6.42,2.93-7.99,1.99-.82-3.27,2.17-1.16,3.11-2.59.53-.8.37-2.82,1.05-3.27,1.07-.7,4.43,1.08,3.85-2.13,1.43-.14.11,5.72-.01,5.99h-.01Z"/>
  <polygon class="st1" points="627.98 711.47 633.98 711.46 633.97 719.46 627.98 711.47"/>
  <path class="st1" d="M577.98,681.47c-.12-.16-4.12.13-1.99-1.99s1.85,1.86,1.99,1.99c2.26,2.02,1.27-3.17,3.99-1.99.81,3.15-.7,8.85-4,7.49-.15-1.27.29-5.13,0-5.5h.01Z"/>
  <path class="st1" d="M647.98,717.47c-3.18-2.6-5.11-1.35-3.99-7.99,3.55-.99,1.36,3.41,1.98,4,.37.35,3.58-.36,4.01,0,2.1,1.71-4.14,2.3-2,4,.36.28,3.02-.21,4.01,0v1.99c-4.68,1.19-3.79-1.82-4.01-1.99h0Z"/>
  <path class="st1" d="M605.97,744.47c.49,7.14,0,4.13-4.32,5.01-.34.07-1.74,3.62-3.67,1.98-.93-.79,2.05-3.56,2.3-3.68,1.26-.61,3.02,0,3.61-.44.7-.53-1.18-3.75,2.08-2.87Z"/>
  <path class="st1" d="M565.98,773.47c3.03,3.22,7.63,9.25,0,7.99v-7.99Z"/>
  <path class="st1" d="M625.97,727.47c.98,3.56-3.37,1.35-4,1.98s1.57,4.98-1.98,4v-6h5.99s-.01.02-.01.02Z"/>
  <path class="st1" d="M545.98,755.47c.17-1.09,2.78-5.54,3.99-3.99.45.57-.3,6.43,0,7.99-4.46.37.52-4.02-3.99-3.99-.28,1.83.21,4.08,0,6h-1.99c.83-1.66.09-2.75,0-4-.05-.66.03-1.34,0-2h2-.01Z"/>
  <path class="st1" d="M519.96,741.49c.18.13,2.39,3.35,2,3.96l-5.97,3.02c-.96-5.69,5.15-.36,1.98-6.48-.1-.86,1.77-.65,2-.49h-.01Z"/>
  <path class="st3" d="M545.98,795.47c-2.09,2.15-3.7,3.88-6,6-.83-3.75,2.3-6.83,6-6Z"/>
  <path class="st1" d="M601.98,697.47c.15-3.36,5.65-6.92,4.01,0-1.28.18-2.8-.21-4.01,0-.03.66,0,1.34,0,2,2.02.22,4.69-1.16,4,2-1.57-.31-7.39.46-7.99,0-1.58-1.22,3.1-3.83,3.99-3.99h0Z"/>
  <path class="st1" d="M575.97,736.47c.74.87-1.8,4.81-2.02,4.96-1.1.72-5.45-3.07-3.36-3.94,1.14-.48,3.9-.43,5.39-1.02h-.01Z"/>
  <path class="st1" d="M575.97,767.47c.54.55.26,8.82-1.99,5.99,1.24-2.65-2.67-2.97-2-4.48.6-1.34,3.4-2.12,3.99-1.51Z"/>
  <path class="st1" d="M525.98,777.47c2.56-1.4,2.47,3.52,1.99,3.99s-5.4.56-3.99-1.99c.57-.6,1.51-1.48,2-2Z"/>
  <path class="st1" d="M609.98,697.47c-.11-.16-4.13.14-1.99-1.99s1.83,1.88,1.99,1.99c.35.25,2.47-.15,3.41-.01,2.36.33-2.52,5.06-3.41,4.02-.36-.42.34-3.51,0-4h0Z"/>
  <path class="st1" d="M592.98,703.47c1.78,1.1.83,4.11.99,5.99h-1.99v-4.99c.33-.34.67-.66,1-1Z"/>
  <rect class="st1" x="693.98" y="789.47" width="1.99" height="5.99"/>
  <rect class="st1" x="578.98" y="719.47" width="4.99" height="1.99"/>
  <path class="st1" d="M537.98,765.47c3.52-.44,2.67,2.55-.68,2.7-.79.04-1.23-.7-1.32-.7-.36-1.72.34-2.21,2-2Z"/>
  <path class="st1" d="M595.97,748.47v2.99h-3.99c-.74-2.36,1.82-2.74,3.99-2.99Z"/>
  <path class="st1" d="M613.98,741.47c.25-.25-.2-3.07,0-4.01h1.99c1.11,4.75-1.59,3.61-1.99,4.01s.74,3.1-3.99,1.99v-1.99c.92-.2,3.74.25,3.99,0Z"/>
  <rect class="st1" x="635.98" y="715.47" width="1.99" height="3.99"/>
  <rect class="st1" x="595.98" y="703.47" width="3.99" height="1.99"/>
  <rect class="st1" x="577.98" y="763.47" width="1.99" height="3.99"/>
  <rect class="st1" x="551.98" y="673.47" width="1.99" height="3.99"/>
  <rect class="st1" x="575.98" y="727.47" width="3.99" height="1.99"/>
  <path class="st1" d="M593.97,753.47v1.99c-1.47.32-2.08-.44-2.99-1.5l2.99-.49Z"/>
  <path class="st1" d="M561.97,741.47c1.09,1.09-.9,3.08-1.99,1.99s.9-3.08,1.99-1.99Z"/>
  <path class="st1" d="M567.97,735.47c1.09,1.09-.9,3.08-1.99,1.99s.9-3.08,1.99-1.99Z"/>
  <path class="st1" d="M617.97,731.47c1.09,1.09-.9,3.08-1.99,1.99s.9-3.08,1.99-1.99Z"/>
  <path class="st1" d="M615.98,727.47c.08-.65-.06-1.34,0-1.99,2.08-.28,2.27-.1,1.99,1.99-.65.07-1.35-.08-1.99,0-.08.65.06,1.34,0,1.99-2.08.28-2.27.1-1.99-1.99.65-.07,1.35.08,1.99,0Z"/>
  <path class="st1" d="M577.97,723.47c1.09,1.09-.9,3.08-1.99,1.99s.9-3.08,1.99-1.99Z"/>
  <path class="st1" d="M639.97,711.47c1.09,1.09-.9,3.08-1.99,1.99s.9-3.08,1.99-1.99Z"/>
  <path class="st1" d="M601.97,707.47c1.09,1.09-.9,3.08-1.99,1.99s.9-3.08,1.99-1.99Z"/>
  <path class="st1" d="M585.98,681.47c.42-3.53,1.57-3.4,2,0,3.63.21,2.98,2.21,0,1.99-.07-.65.08-1.35,0-1.99-.65-.04-1.35-.04-2,0-.08.64.09,1.34,0,1.99-2.97.23-3.61-1.79,0-1.99Z"/>
  <path class="st1" d="M559.98,672.47c-.34.33-.67.67-1,1-2.07-1.76-.76-3.07,1-1Z"/>
  <path class="st1" d="M573.97,665.47c1.09,1.09-.9,3.08-1.99,1.99s.9-3.08,1.99-1.99Z"/>
  <path class="st1" d="M579.97,771.47c1.09,1.09-.9,3.08-1.99,1.99s.9-3.08,1.99-1.99Z"/>
  <path class="st1" d="M685.97,765.47c1.09,1.09-.9,3.08-1.99,1.99s.9-3.08,1.99-1.99Z"/>
  <path class="st1" d="M573.97,775.47c1.09,1.09-.9,3.08-1.99,1.99s.9-3.08,1.99-1.99Z"/>
  <path class="st1" d="M599.98,743.47c.08-.65-.06-1.34,0-1.99,2.08-.28,2.27-.1,1.99,1.99-.65.07-1.35-.08-1.99,0-.08.65.06,1.34,0,1.99-2.08.28-2.27.1-1.99-1.99.65-.07,1.35.08,1.99,0Z"/>
  <path class="st1" d="M595.98,757.47c.08-.65-.06-1.34,0-1.99,2.08-.28,2.27-.1,1.99,1.99-.65.07-1.35-.08-1.99,0-.08.65.06,1.34,0,1.99-2.08.28-2.27.1-1.99-1.99.65-.07,1.35.08,1.99,0Z"/>
  <path class="st1" d="M585.97,757.47c1.09,1.09-.9,3.08-1.99,1.99s.9-3.08,1.99-1.99Z"/>
  <path class="st1" d="M693.97,785.47c1.09,1.09-.9,3.08-1.99,1.99s.9-3.08,1.99-1.99Z"/>
  <path class="st1" d="M553.97,793.47c1.09,1.09-.9,3.08-1.99,1.99s.9-3.08,1.99-1.99Z"/>
  <path class="st1" d="M589.97,752.47c1.09,1.09-.9,3.08-1.99,1.99s.9-3.08,1.99-1.99Z"/>
  <path class="st1" d="M699.97,797.47c1.09,1.09-.9,3.08-1.99,1.99s.9-3.08,1.99-1.99Z"/>
  <path class="st1" d="M567.97,741.47c1.09,1.09-.9,3.08-1.99,1.99s.9-3.08,1.99-1.99Z"/>
  <path class="st1" d="M522.97,783.48c.68.35-.59,1.7-1.99.98-.68-.35.59-1.7,1.99-.98Z"/>
  <path class="st1" d="M582.48,772.47c.65.33.65.67,0,1v-1Z"/>
  <path class="st1" d="M650.48,733.47c.65.33.65.67,0,1v-1Z"/>
  <path class="st1" d="M582.48,769.47c.65.33.65.67,0,1v-1Z"/>
  <path class="st1" d="M552.48,760.47c.65.33.65.67,0,1v-1Z"/>
  <path class="st1" d="M561.48,708.47c.65.33.65.67,0,1v-1Z"/>
  <path class="st1" d="M587.48,768.47c.65.33.65.67,0,1v-1Z"/>
  <path class="st1" d="M571.48,663.47c.65.33.65.67,0,1v-1Z"/>
  <path class="st11" d="M257.98,891.47c.26,5-1.75,3.74-1.97,4.69-.61,2.52.51,6-.05,8.61-.08.38-2.5,1.52-3.23,4.01-1.63,5.53-1.51,14.76-2.77,20.01-.54,2.23-3.75,6.68-3.98,10.69-3.9-.04-1.39,6.66-2.03,9.3-.11.46-3.57,5.78-3.92,8.25-.45,3.14.5,6.81-.09,9.72-.18.87-3.74,2.59-3.91,3.46-.75,3.68.76,9.13-.06,12.58-.13.56-3.83,8.81-3.96,9.37-.46,2.03.38,4.49-.05,6.61-.03.16-1.8,2.71-1.97,2.71h-48c-.55-6.31.2-11.28,2.1-17.21,2.91-9.08,5.34-15.3,5.91-26.2.03-.66,1.8-.49,1.99-1.25.54-2.13-.43-4.97.25-7.6.49-1.9,3.04-3.59,3.52-5.47,1.06-4.12,1.11-10.99,2.27-15.56.21-.81,1.77-.66,1.94-1.39.55-2.37-.27-5.64.26-8.58.58-3.26,3.67-5.1,3.74-5.43.59-2.66-.37-6.44.03-9.3l1.98,1.99c.18-3.3-.21-6.7.01-9.99.04-.65-.09-1.36,0-2,15.27-1.39,33.69,1.83,48.56.08,2.02-.24,1.15-2.6,3.44-2.08v-.02ZM240.48,951.47v1c.65-.33.65-.67,0-1Z"/>
  <path class="st10" d="M205.98,893.47c.2-1.46,1.76-3.85,3.46-4.07,14.55-1.84,32.96,1.52,47.94.04,1.05-.1.56,1.29.59,2.02-2.29-.52-1.42,1.84-3.44,2.08-14.87,1.76-33.29-1.47-48.56-.08h.01Z"/>
  <path class="st1" d="M477.98,699.47c2.82.42,1.22,1.64,4,2v2c-.32.04-.67-.01-1,0-1.96.09-6.83.54-4.98-1.99.23-.31.6,1.08,1.98-2.01Z"/>
  <path class="st1" d="M483.98,697.47c-.1-.95-1.4-3.64-1-3.99,1.16.21,4.55-.34,4.99,0,1.86,1.46-3.56,3.83-3.99,3.99.12,1.14.13,2.87,0,4-.65-.01-1.37.08-2,0,0-.92-.18-3.77,0-4.01s1.49.2,2,0h0Z"/>
  <path class="st1" d="M491.98,698.47c-.48.2-1.07,1.16-2,1,.45-.7.69-1.54,1.5-1.98l.5.98Z"/>
  <path class="st1" d="M496.98,689.47c-.53,1.1-.6,2.81-1,4-.57.11-1.35-.01-2,0-.06-3.46-.9-4.55,3-4Z"/>
  <path class="st1" d="M489.98,691.47c1.83.26,2.31-.8,2,2-1.84-.25-2.3.8-2-2Z"/>
  <path class="st1" d="M486.98,691.47c-.76-.17-.84-.24-1-1l1,1Z"/>
  <path class="st11" d="M600.48,803.47c.65.33.65.67,0,1v-1Z"/>
  <path class="st2" d="M553.98,821.47c2.06.32,2.91-.16,2.01,3.48-.24.96-1.15.47-2.01.52v-4Z"/>
  <path class="st2" d="M499.97,753.47c1.09,1.09-.9,3.08-1.99,1.99s.9-3.08,1.99-1.99Z"/>
  <path class="st12" d="M515.98,801.47c-.19.5.25,1.75,0,2s-1.49-.19-2,0c-.16-1.52.48-2.14,2-2Z"/>
  <path class="st12" d="M541.48,774.47c.65.33.65.67,0,1v-1Z"/>
  <path class="st10" d="M240.48,951.47c.65.33.65.67,0,1v-1Z"/>
</svg>