<svg width="100" height="75" viewBox="0 0 100 75" fill="none" xmlns="http://www.w3.org/2000/svg">
<path d="M99.9974 6.09216V68.4372C99.6008 68.9071 99.4886 69.4607 99.1025 69.9829C96.6317 73.3301 92.6294 71.2179 89.2976 70.6434C79.1901 68.8967 68.8713 69.5573 58.743 70.74C56.6192 70.2936 56.4026 67.5181 58.516 66.8915C59.9823 66.458 63.4523 66.2413 65.1378 66.0899C72.631 65.4163 80.9095 65.3771 88.3453 66.5129C89.8325 66.74 94.6123 68.0351 95.6037 67.8497C95.7655 67.8184 96.0942 67.693 96.0942 67.5546V6.77624C96.0942 6.17832 91.2388 5.3167 90.4665 5.1757C61.9104 -0.0488677 33.1559 14.0165 4.7537 6.34281C4.52672 6.28276 3.91098 6.66135 3.91098 6.77624V67.5599C3.91098 67.7322 4.40931 67.9698 4.59977 68.0429C6.1052 68.6225 9.02995 69.0716 10.7102 69.3562C21.0421 71.0977 31.3504 70.3954 41.6771 69.0351C43.0834 69.2909 43.9026 70.4502 43.3417 71.8419C42.9112 72.9072 42.105 72.9385 41.0927 73.1082C30.4373 74.8784 15.8996 74.9568 5.43467 72.2936C2.69255 71.5965 0.286996 70.8915 0 67.5677V6.77101C0.0469631 4.6274 1.98549 2.68483 4.0597 2.43156C5.71906 2.23052 9.04039 3.36107 10.9059 3.68745C35.5719 7.99556 60.4101 -2.15332 85.251 0.426331C88.588 0.773591 93.4982 1.47072 96.6395 2.51512C98.492 3.13131 99.4104 4.28275 100 6.09216H99.9974Z" fill="#1B1110"/>
<path d="M48.205 17.6824C63.4289 16.322 74.4365 32.4031 67.4207 46.0977C60.9242 58.7714 43.1095 60.4633 34.497 49.0716C25.2375 36.8235 32.9577 19.0479 48.205 17.685V17.6824ZM48.5938 21.591C36.4303 22.6432 30.1399 36.9697 37.6149 46.7269C44.1897 55.3118 57.3785 54.6512 63.1654 45.5546C70.1394 34.5911 61.3964 20.4839 48.5938 21.591Z" fill="#1B1110"/>
<path d="M51.6906 68.505C53.6082 70.4137 50.5478 73.2727 48.8232 71.2779C47.1638 69.3614 49.9894 66.8105 51.6906 68.505Z" fill="#1B1110"/>
<path d="M48.5937 21.5909C61.3989 20.4839 70.1419 34.591 63.1653 45.5545C57.3784 54.6512 44.1896 55.3118 37.6148 46.7268C30.1398 36.967 36.4302 22.6405 48.5937 21.5909Z" fill="#EB786B"/>
</svg>
