<?xml version="1.0" encoding="UTF-8"?>
<svg id="_圖層_1" xmlns="http://www.w3.org/2000/svg" version="1.1" viewBox="0 0 100 75">
  <!-- Generator: Adobe Illustrator 29.5.1, SVG Export Plug-In . SVG Version: 2.1.0 Build 141)  -->
  <defs>
    <style>
      .st0 {
        fill: #299ea7;
      }
    </style>
  </defs>
  <path class="st0" d="M100,6.56v62.35c-.4.47-.51,1.02-.89,1.55-2.47,3.35-6.47,1.24-9.8.66-10.11-1.75-20.43-1.09-30.55.1-2.12-.45-2.34-3.22-.23-3.85,1.47-.43,4.94-.65,6.62-.8,7.49-.67,15.77-.71,23.21.42,1.49.23,6.27,1.52,7.26,1.34.16-.03.49-.16.49-.29V7.24c0-.6-4.86-1.46-5.63-1.6C61.91.41,33.16,14.48,4.75,6.81c-.23-.06-.84.32-.84.43v60.78c0,.17.5.41.69.48,1.51.58,4.43,1.03,6.11,1.31,10.33,1.74,20.64,1.04,30.97-.32,1.41.26,2.23,1.42,1.66,2.81-.43,1.07-1.24,1.1-2.25,1.27-10.66,1.77-25.19,1.85-35.66-.81C2.69,72.06.28,71.36,0,68.03V7.23C.05,5.09,1.99,3.15,4.06,2.89c1.66-.2,4.98.93,6.85,1.26C35.57,8.46,60.41-1.69,85.25.89c3.34.35,8.25,1.04,11.39,2.09,1.85.62,2.77,1.77,3.36,3.58h0Z"/>
  <path class="st0" d="M51.69,68.97c1.92,1.91-1.14,4.77-2.87,2.77-1.66-1.92,1.17-4.47,2.87-2.77Z"/>
  <path class="st0" d="M48.21,18.15h0c-15.25,1.37-22.97,19.14-13.71,31.39,8.61,11.39,26.43,9.7,32.92-2.97,7.02-13.69-3.99-29.78-19.22-28.42h.01Z"/>
</svg>