<?xml version="1.0" encoding="UTF-8"?>
<svg id="_圖層_1" xmlns="http://www.w3.org/2000/svg" version="1.1" xmlns:xlink="http://www.w3.org/1999/xlink" viewBox="0 0 1440 343">
  <!-- Generator: Adobe Illustrator 29.5.1, SVG Export Plug-In . SVG Version: 2.1.0 Build 141)  -->
  <defs>
    <style>
      .st0 {
        fill: #f5cd52;
      }

      .st1 {
        fill: #299ea7;
      }

      .st2 {
        fill: url(#_未命名漸層);
      }
    </style>
    <linearGradient id="_未命名漸層" data-name="未命名漸層" x1="720.6" y1="682.03" x2="720.6" y2="809.81" gradientTransform="translate(0 -498)" gradientUnits="userSpaceOnUse">
      <stop offset="0" stop-color="#f5cd52"/>
      <stop offset="1" stop-color="#299ea7"/>
    </linearGradient>
  </defs>
  <path class="st0" d="M320.64,80.21c179.3-3.43,294.35,81.51,391.34,80.89,80-.5,243.26-99.58,389.4-111.58,208.23-17.09,205.95-50.08,278.85-54.39H.41C6.55,1.04,97.34,84.43,320.64,80.21Z"/>
  <path class="st2" d="M760.24,225.77c-19.96-12.12-2.51-40.15-37.36-47.24-19.4-3.94-36.56.14-43.93,16.04-6.33,13.67-2.12,30.05,9.78,39.3,28.91,22.47,20.29,46.98,32.85,46.98,6.31,0,59.87-20.46,38.65-55.07h.01,0Z"/>
  <path class="st1" d="M729.22,324.34c0-4.76-3.86-18.09-8.62-18.09s-8.62,13.33-8.62,18.09,3.86,8.62,8.62,8.62,8.62-3.86,8.62-8.62Z"/>
</svg>