<svg width="1440" height="860" viewBox="0 0 1440 860" fill="none" xmlns="http://www.w3.org/2000/svg">
<path d="M580.449 556.421C565.875 548.767 551.943 564.984 537.269 560.933C481.089 545.424 476.943 458.708 419.707 432.535C309.013 381.933 176.788 430.332 124.978 540.472C71.8715 653.391 121.541 787.826 235.29 839.084C345.61 888.796 476.831 840.527 528.621 731.163C544.396 697.833 522.499 648.865 550.046 628.208C566.607 615.786 591.666 624.64 599.035 604.278C605.624 586.114 597.551 565.426 580.457 556.439L580.449 556.421Z" fill="#EA572A"/>
<path d="M580.436 769.791C585.773 767.291 588.072 760.938 585.572 755.601C583.072 750.264 576.719 747.965 571.382 750.465C566.045 752.965 563.746 759.318 566.246 764.655C568.746 769.992 575.099 772.291 580.436 769.791Z" fill="#EA572A"/>
<path d="M580.449 556.421C565.875 548.767 551.943 564.984 537.269 560.933C481.089 545.424 476.943 458.708 419.707 432.535C309.013 381.933 176.788 430.332 124.978 540.472C71.8715 653.391 121.541 787.826 235.29 839.084C345.61 888.796 476.831 840.527 528.621 731.163C544.396 697.833 522.499 648.865 550.046 628.208C566.607 615.786 591.666 624.64 599.035 604.278C605.624 586.114 597.551 565.426 580.457 556.439L580.449 556.421Z" stroke="#EA572A" stroke-miterlimit="10"/>
<path d="M580.436 769.791C585.773 767.291 588.072 760.938 585.572 755.601C583.072 750.264 576.719 747.965 571.382 750.465C566.045 752.965 563.746 759.318 566.246 764.655C568.746 769.992 575.099 772.291 580.436 769.791Z" stroke="#EA572A" stroke-miterlimit="10"/>
<path d="M151.963 621.558C149.179 621.558 147.787 620.142 147.787 617.31V575.406C147.787 573.774 148.195 572.67 149.011 572.094C149.875 571.47 151.123 571.158 152.755 571.158C154.963 571.158 156.643 572.118 157.795 574.038L170.539 595.35L183.139 574.11C183.811 572.91 184.579 572.118 185.443 571.734C186.355 571.35 187.531 571.158 188.971 571.158C191.803 571.158 193.219 572.574 193.219 575.406V617.31C193.219 620.142 191.803 621.558 188.971 621.558C186.139 621.558 184.723 620.142 184.723 617.31V585.63L174.571 603.198C173.563 605.166 172.195 606.15 170.467 606.15C168.739 606.15 167.371 605.166 166.363 603.198L156.139 585.63V617.31C156.139 620.142 154.747 621.558 151.963 621.558ZM217.805 622.35C212.765 622.35 208.685 620.838 205.565 617.814C202.445 614.742 200.885 610.206 200.885 604.206C200.885 600.462 201.581 597.246 202.973 594.558C204.365 591.822 206.309 589.734 208.805 588.294C211.301 586.806 214.157 586.062 217.373 586.062C220.589 586.062 223.325 586.806 225.581 588.294C227.837 589.782 229.565 591.702 230.765 594.054C231.965 596.406 232.565 598.854 232.565 601.398C232.565 603.174 232.205 604.35 231.485 604.926C230.765 605.454 229.709 605.718 228.317 605.718H208.877C209.069 609.174 209.981 611.646 211.613 613.134C213.245 614.574 215.357 615.294 217.949 615.294C220.877 615.294 223.157 614.286 224.789 612.27C225.749 611.262 226.637 610.614 227.453 610.326C228.317 609.99 229.229 610.158 230.189 610.83C231.149 611.502 231.701 612.366 231.845 613.422C231.989 614.478 231.557 615.582 230.549 616.734C228.917 618.702 227.045 620.142 224.933 621.054C222.821 621.918 220.445 622.35 217.805 622.35ZM209.237 599.454H224.573C224.189 597.198 223.349 595.47 222.053 594.27C220.805 593.022 219.197 592.398 217.229 592.398C215.117 592.398 213.365 592.974 211.973 594.126C210.629 595.278 209.717 597.054 209.237 599.454ZM244.336 621.558C241.6 621.558 240.232 620.142 240.232 617.31V591.174C240.232 588.342 241.456 586.926 243.904 586.926C246.352 586.926 247.624 587.55 247.72 588.798L247.936 591.03C248.896 589.686 250.168 588.534 251.752 587.574C253.336 586.566 255.208 586.062 257.368 586.062C260.968 586.062 263.896 587.214 266.152 589.518C268.456 591.822 269.608 595.206 269.608 599.67V617.31C269.608 620.142 268.264 621.558 265.576 621.558C262.84 621.558 261.472 620.142 261.472 617.31V601.614C261.472 598.878 260.92 596.838 259.816 595.494C258.712 594.102 257.224 593.406 255.352 593.406C253.288 593.406 251.608 594.126 250.312 595.566C249.016 596.958 248.368 599.046 248.368 601.83V617.31C248.368 620.142 247.024 621.558 244.336 621.558ZM292.666 635.886C287.242 635.886 282.946 634.302 279.778 631.134C278.77 630.078 278.362 629.046 278.554 628.038C278.746 627.03 279.37 626.19 280.426 625.518C281.482 624.798 282.442 624.558 283.306 624.798C284.17 625.038 285.13 625.566 286.186 626.382C287.866 627.822 290.026 628.542 292.666 628.542C295.498 628.542 297.586 627.678 298.93 625.95C300.274 624.222 300.946 621.462 300.946 617.67V615.726C298.69 618.078 295.834 619.254 292.378 619.254C289.354 619.254 286.642 618.63 284.242 617.382C281.89 616.086 280.042 614.214 278.698 611.766C277.354 609.27 276.682 606.222 276.682 602.622C276.682 598.974 277.354 595.926 278.698 593.478C280.042 591.03 281.89 589.182 284.242 587.934C286.642 586.686 289.354 586.062 292.378 586.062C294.25 586.062 296.05 586.47 297.778 587.286C299.506 588.054 300.922 589.374 302.026 591.246V590.022C302.026 588.822 302.338 588.006 302.962 587.574C303.586 587.142 304.45 586.926 305.554 586.926C307.858 586.926 309.01 588.342 309.01 591.174V617.67C309.01 623.382 307.666 627.846 304.978 631.062C302.338 634.278 298.234 635.886 292.666 635.886ZM293.026 612.126C295.522 612.126 297.562 611.286 299.146 609.606C300.73 607.878 301.522 605.55 301.522 602.622C301.522 599.646 300.73 597.342 299.146 595.71C297.562 594.03 295.522 593.19 293.026 593.19C290.53 593.19 288.538 594.03 287.05 595.71C285.61 597.342 284.89 599.646 284.89 602.622C284.89 605.55 285.61 607.878 287.05 609.606C288.538 611.286 290.53 612.126 293.026 612.126ZM339.673 622.71C335.113 622.71 331.033 621.63 327.433 619.47C323.881 617.31 321.097 614.262 319.081 610.326C317.065 606.342 316.057 601.686 316.057 596.358C316.057 590.982 317.065 586.326 319.081 582.39C321.097 578.406 323.881 575.334 327.433 573.174C331.033 570.966 335.113 569.862 339.673 569.862C343.081 569.862 346.201 570.486 349.033 571.734C351.913 572.982 354.409 574.734 356.521 576.99C357.481 578.046 357.793 579.126 357.457 580.23C357.121 581.286 356.473 582.102 355.513 582.678L355.153 582.894C354.529 583.278 353.641 583.422 352.489 583.326C351.337 583.23 350.281 582.726 349.321 581.814C348.073 580.566 346.633 579.63 345.001 579.006C343.417 578.334 341.641 577.998 339.673 577.998C336.697 577.998 334.081 578.766 331.825 580.302C329.569 581.79 327.817 583.926 326.569 586.71C325.369 589.446 324.769 592.662 324.769 596.358C324.769 600.006 325.369 603.222 326.569 606.006C327.817 608.742 329.569 610.878 331.825 612.414C334.081 613.902 336.697 614.646 339.673 614.646C343.465 614.646 346.681 613.374 349.321 610.83C350.281 609.918 351.265 609.39 352.273 609.246C353.281 609.102 354.241 609.246 355.153 609.678L355.297 609.822C356.305 610.302 357.001 611.118 357.385 612.27C357.817 613.374 357.577 614.454 356.665 615.51C354.553 617.814 352.057 619.59 349.177 620.838C346.297 622.086 343.129 622.71 339.673 622.71ZM370.336 621.558C367.6 621.558 366.232 620.142 366.232 617.31V574.47C366.232 571.638 367.6 570.222 370.336 570.222C373.024 570.222 374.368 571.638 374.368 574.47V591.03C375.136 589.686 376.288 588.534 377.824 587.574C379.36 586.566 381.208 586.062 383.368 586.062C386.968 586.062 389.896 587.214 392.152 589.518C394.456 591.822 395.608 595.206 395.608 599.67V617.31C395.608 620.142 394.264 621.558 391.576 621.558C388.84 621.558 387.472 620.142 387.472 617.31V601.614C387.472 598.878 386.92 596.838 385.816 595.494C384.712 594.102 383.224 593.406 381.352 593.406C379.288 593.406 377.608 594.126 376.312 595.566C375.016 596.958 374.368 599.046 374.368 601.83V617.31C374.368 620.142 373.024 621.558 370.336 621.558ZM409.666 621.558C406.978 621.558 405.634 620.142 405.634 617.31V591.174C405.634 588.342 406.978 586.926 409.666 586.926C412.354 586.926 413.698 588.342 413.698 591.174V617.31C413.698 620.142 412.354 621.558 409.666 621.558ZM409.594 581.238C408.202 581.238 407.002 580.734 405.994 579.726C404.986 578.718 404.482 577.518 404.482 576.126C404.482 574.734 404.986 573.534 405.994 572.526C407.002 571.518 408.202 571.014 409.594 571.014C410.986 571.014 412.186 571.518 413.194 572.526C414.202 573.534 414.706 574.734 414.706 576.126C414.706 577.518 414.202 578.718 413.194 579.726C412.186 580.734 410.986 581.238 409.594 581.238ZM438.586 622.35C433.546 622.35 429.466 620.838 426.346 617.814C423.226 614.742 421.666 610.206 421.666 604.206C421.666 600.462 422.362 597.246 423.754 594.558C425.146 591.822 427.09 589.734 429.586 588.294C432.082 586.806 434.938 586.062 438.154 586.062C441.37 586.062 444.106 586.806 446.362 588.294C448.618 589.782 450.346 591.702 451.546 594.054C452.746 596.406 453.346 598.854 453.346 601.398C453.346 603.174 452.986 604.35 452.266 604.926C451.546 605.454 450.49 605.718 449.098 605.718H429.658C429.85 609.174 430.762 611.646 432.394 613.134C434.026 614.574 436.138 615.294 438.73 615.294C441.658 615.294 443.938 614.286 445.57 612.27C446.53 611.262 447.418 610.614 448.234 610.326C449.098 609.99 450.01 610.158 450.97 610.83C451.93 611.502 452.482 612.366 452.626 613.422C452.77 614.478 452.338 615.582 451.33 616.734C449.698 618.702 447.826 620.142 445.714 621.054C443.602 621.918 441.226 622.35 438.586 622.35ZM430.018 599.454H445.354C444.97 597.198 444.13 595.47 442.834 594.27C441.586 593.022 439.978 592.398 438.01 592.398C435.898 592.398 434.146 592.974 432.754 594.126C431.41 595.278 430.498 597.054 430.018 599.454ZM465.117 621.558C462.381 621.558 461.013 620.142 461.013 617.31V574.47C461.013 571.638 462.381 570.222 465.117 570.222C467.805 570.222 469.149 571.638 469.149 574.47V591.03C469.917 589.686 471.069 588.534 472.605 587.574C474.141 586.566 475.989 586.062 478.149 586.062C481.749 586.062 484.677 587.214 486.933 589.518C489.237 591.822 490.389 595.206 490.389 599.67V617.31C490.389 620.142 489.045 621.558 486.357 621.558C483.621 621.558 482.253 620.142 482.253 617.31V601.614C482.253 598.878 481.701 596.838 480.597 595.494C479.493 594.102 478.005 593.406 476.133 593.406C474.069 593.406 472.389 594.126 471.093 595.566C469.797 596.958 469.149 599.046 469.149 601.83V617.31C469.149 620.142 467.805 621.558 465.117 621.558ZM502.843 590.022C501.643 590.694 500.635 590.958 499.819 590.814C499.003 590.67 498.403 590.286 498.019 589.662C497.683 589.038 497.779 588.462 498.307 587.934C498.835 587.358 499.675 586.686 500.827 585.918C502.075 585.102 503.035 584.118 503.707 582.966C504.427 581.766 504.787 580.566 504.787 579.366C504.787 579.03 504.763 578.742 504.715 578.502C504.715 578.262 504.691 578.046 504.643 577.854C504.163 578.526 503.563 579.078 502.843 579.51C502.123 579.942 501.379 580.158 500.611 580.158C499.267 580.158 498.091 579.702 497.083 578.79C496.123 577.878 495.643 576.678 495.643 575.19C495.643 573.654 496.219 572.454 497.371 571.59C498.523 570.726 499.843 570.27 501.331 570.222C503.683 570.222 505.627 571.11 507.163 572.886C508.747 574.614 509.539 576.846 509.539 579.582C509.539 581.886 508.939 583.902 507.739 585.63C506.539 587.358 504.907 588.822 502.843 590.022ZM526.555 622.278C524.395 622.278 522.331 622.014 520.363 621.486C518.443 620.91 516.667 620.046 515.035 618.894C513.835 618.078 513.187 617.19 513.091 616.23C513.043 615.222 513.427 614.262 514.243 613.35C515.059 612.486 515.899 612.078 516.763 612.126C517.675 612.174 518.731 612.534 519.931 613.206C521.851 614.55 524.203 615.222 526.987 615.222C528.955 615.222 530.371 614.958 531.235 614.43C532.147 613.854 532.603 612.822 532.603 611.334C532.603 610.614 532.387 610.038 531.955 609.606C531.523 609.126 530.707 608.694 529.507 608.31C528.355 607.926 526.651 607.518 524.395 607.086C521.035 606.414 518.347 605.31 516.331 603.774C514.315 602.238 513.307 599.814 513.307 596.502C513.307 594.342 513.883 592.494 515.035 590.958C516.187 589.374 517.747 588.15 519.715 587.286C521.683 586.422 523.867 585.99 526.267 585.99C530.011 585.99 533.179 586.782 535.771 588.366C537.067 589.038 537.787 589.878 537.931 590.886C538.123 591.846 537.859 592.782 537.139 593.694C536.371 594.654 535.531 595.134 534.619 595.134C533.755 595.134 532.723 594.87 531.523 594.342C530.755 593.91 529.939 593.598 529.075 593.406C528.259 593.214 527.371 593.118 526.411 593.118C524.635 593.118 523.363 593.43 522.595 594.054C521.875 594.678 521.515 595.422 521.515 596.286C521.515 596.91 521.683 597.438 522.019 597.87C522.403 598.302 523.123 598.71 524.179 599.094C525.235 599.478 526.771 599.91 528.787 600.39C532.627 601.302 535.603 602.622 537.715 604.35C539.827 606.078 540.883 608.502 540.883 611.622C540.883 615.126 539.539 617.79 536.851 619.614C534.211 621.39 530.779 622.278 526.555 622.278ZM151.891 711.558C149.155 711.558 147.787 710.142 147.787 707.31V665.406C147.787 662.574 149.203 661.158 152.035 661.158H170.827C175.531 661.158 179.251 662.262 181.987 664.47C184.771 666.678 186.163 670.398 186.163 675.63C186.163 680.862 184.771 684.606 181.987 686.862C179.251 689.118 175.531 690.246 170.827 690.246H156.067V707.31C156.067 710.142 154.675 711.558 151.891 711.558ZM156.067 682.47H169.675C172.123 682.47 174.019 681.942 175.363 680.886C176.707 679.83 177.379 678.078 177.379 675.63C177.379 673.23 176.707 671.502 175.363 670.446C174.019 669.39 172.123 668.862 169.675 668.862H156.067V682.47ZM205.214 712.35C202.046 712.35 199.19 711.606 196.646 710.118C194.15 708.582 192.158 706.47 190.67 703.782C189.23 701.046 188.51 697.854 188.51 694.206C188.51 690.558 189.23 687.39 190.67 684.702C192.158 681.966 194.15 679.854 196.646 678.366C199.19 676.83 202.046 676.062 205.214 676.062C208.478 676.062 211.358 676.83 213.854 678.366C216.398 679.854 218.39 681.966 219.83 684.702C221.27 687.39 221.99 690.558 221.99 694.206C221.99 697.854 221.27 701.046 219.83 703.782C218.39 706.47 216.398 708.582 213.854 710.118C211.358 711.606 208.478 712.35 205.214 712.35ZM205.214 705.006C207.758 705.006 209.822 704.07 211.406 702.198C213.038 700.326 213.854 697.662 213.854 694.206C213.854 690.75 213.038 688.086 211.406 686.214C209.822 684.342 207.758 683.406 205.214 683.406C202.718 683.406 200.678 684.342 199.094 686.214C197.51 688.086 196.718 690.75 196.718 694.206C196.718 697.662 197.51 700.326 199.094 702.198C200.678 704.07 202.718 705.006 205.214 705.006ZM233.086 711.558C230.35 711.558 228.982 710.142 228.982 707.31V681.174C228.982 678.342 230.398 676.926 233.23 676.926C234.19 676.926 235.03 677.166 235.75 677.646C236.47 678.078 236.83 678.918 236.83 680.166V681.822C237.694 680.094 239.038 678.702 240.862 677.646C242.734 676.59 244.702 676.062 246.766 676.062C248.254 676.062 249.382 676.47 250.15 677.286C250.966 678.054 251.374 679.11 251.374 680.454C251.374 681.702 251.062 682.614 250.438 683.19C249.814 683.766 249.094 684.006 248.278 683.91C247.894 683.862 247.486 683.838 247.054 683.838C246.622 683.79 246.142 683.766 245.614 683.766C243.262 683.766 241.246 684.534 239.566 686.07C237.934 687.606 237.118 689.766 237.118 692.55V707.31C237.118 710.142 235.774 711.558 233.086 711.558ZM270.658 712.35C267.25 712.35 264.634 711.726 262.81 710.478C261.034 709.23 260.146 706.734 260.146 702.99V683.91H257.77C254.938 683.91 253.522 682.734 253.522 680.382C253.522 679.278 253.81 678.438 254.386 677.862C255.01 677.238 256.114 676.926 257.698 676.926H260.146V669.006C260.146 666.174 261.514 664.758 264.25 664.758C266.89 664.758 268.21 666.174 268.21 669.006V676.926H273.538C276.37 676.926 277.786 678.078 277.786 680.382C277.786 682.734 276.394 683.91 273.61 683.91H268.21V700.902C268.21 702.534 268.594 703.638 269.362 704.214C270.178 704.79 271.33 705.078 272.818 705.078C274.354 705.078 275.554 705.27 276.418 705.654C277.33 705.99 277.786 706.902 277.786 708.39C277.786 709.59 277.426 710.478 276.706 711.054C276.034 711.582 275.146 711.918 274.042 712.062C272.986 712.254 271.858 712.35 270.658 712.35ZM291.881 711.558C289.145 711.558 287.777 710.142 287.777 707.31V683.91H285.473C282.641 683.91 281.225 682.734 281.225 680.382C281.225 678.078 282.209 676.926 284.177 676.926H287.777V670.734C287.777 666.462 288.761 663.51 290.729 661.878C292.697 660.246 295.505 659.43 299.153 659.43C300.977 659.43 302.489 659.67 303.689 660.15C304.937 660.582 305.537 661.59 305.489 663.174C305.489 664.182 305.273 665.022 304.841 665.694C304.409 666.366 303.521 666.702 302.177 666.702C301.889 666.702 301.553 666.678 301.169 666.63C300.785 666.582 300.449 666.558 300.161 666.558C297.281 666.558 295.841 668.286 295.841 671.742V676.926H301.241C304.073 676.926 305.489 678.078 305.489 680.382C305.489 682.734 304.097 683.91 301.313 683.91H295.841V707.31C295.841 710.142 294.521 711.558 291.881 711.558ZM325.659 712.35C322.491 712.35 319.635 711.606 317.091 710.118C314.595 708.582 312.603 706.47 311.115 703.782C309.675 701.046 308.955 697.854 308.955 694.206C308.955 690.558 309.675 687.39 311.115 684.702C312.603 681.966 314.595 679.854 317.091 678.366C319.635 676.83 322.491 676.062 325.659 676.062C328.923 676.062 331.803 676.83 334.299 678.366C336.843 679.854 338.835 681.966 340.275 684.702C341.715 687.39 342.435 690.558 342.435 694.206C342.435 697.854 341.715 701.046 340.275 703.782C338.835 706.47 336.843 708.582 334.299 710.118C331.803 711.606 328.923 712.35 325.659 712.35ZM325.659 705.006C328.203 705.006 330.267 704.07 331.851 702.198C333.483 700.326 334.299 697.662 334.299 694.206C334.299 690.75 333.483 688.086 331.851 686.214C330.267 684.342 328.203 683.406 325.659 683.406C323.163 683.406 321.123 684.342 319.539 686.214C317.955 688.086 317.163 690.75 317.163 694.206C317.163 697.662 317.955 700.326 319.539 702.198C321.123 704.07 323.163 705.006 325.659 705.006ZM353.531 711.558C350.795 711.558 349.427 710.142 349.427 707.31V664.47C349.427 661.638 350.795 660.222 353.531 660.222C356.219 660.222 357.563 661.638 357.563 664.47V707.31C357.563 710.142 356.219 711.558 353.531 711.558ZM371.556 711.558C368.868 711.558 367.524 710.142 367.524 707.31V681.174C367.524 678.342 368.868 676.926 371.556 676.926C374.244 676.926 375.588 678.342 375.588 681.174V707.31C375.588 710.142 374.244 711.558 371.556 711.558ZM371.484 671.238C370.092 671.238 368.892 670.734 367.884 669.726C366.876 668.718 366.372 667.518 366.372 666.126C366.372 664.734 366.876 663.534 367.884 662.526C368.892 661.518 370.092 661.014 371.484 661.014C372.876 661.014 374.076 661.518 375.084 662.526C376.092 663.534 376.596 664.734 376.596 666.126C376.596 667.518 376.092 668.718 375.084 669.726C374.076 670.734 372.876 671.238 371.484 671.238ZM400.261 712.35C397.093 712.35 394.237 711.606 391.693 710.118C389.197 708.582 387.205 706.47 385.717 703.782C384.277 701.046 383.557 697.854 383.557 694.206C383.557 690.558 384.277 687.39 385.717 684.702C387.205 681.966 389.197 679.854 391.693 678.366C394.237 676.83 397.093 676.062 400.261 676.062C403.525 676.062 406.405 676.83 408.901 678.366C411.445 679.854 413.437 681.966 414.877 684.702C416.317 687.39 417.037 690.558 417.037 694.206C417.037 697.854 416.317 701.046 414.877 703.782C413.437 706.47 411.445 708.582 408.901 710.118C406.405 711.606 403.525 712.35 400.261 712.35ZM400.261 705.006C402.805 705.006 404.869 704.07 406.453 702.198C408.085 700.326 408.901 697.662 408.901 694.206C408.901 690.75 408.085 688.086 406.453 686.214C404.869 684.342 402.805 683.406 400.261 683.406C397.765 683.406 395.725 684.342 394.141 686.214C392.557 688.086 391.765 690.75 391.765 694.206C391.765 697.662 392.557 700.326 394.141 702.198C395.725 704.07 397.765 705.006 400.261 705.006Z" fill="white"/>
<path d="M777.184 446.971L632.584 503.798L609.03 499.915L594.918 471.942L606.488 450.574L606.767 450.381L731.508 363.846L777.189 446.984L777.184 446.971ZM632.278 500.865L773.149 445.506L730.541 367.958L608.664 452.504L598.118 471.981L610.908 497.338L632.269 500.861L632.278 500.865Z" fill="#E9562A"/>
<path d="M640.408 428.564L671.093 487.313L673.608 485.999L642.923 427.251L640.408 428.564Z" fill="#E9562A"/>
<path d="M680.644 400.598L716.708 469.352L719.221 468.034L683.157 399.28L680.644 400.598Z" fill="#E9562A"/>
<path d="M719.579 373.654L761.395 451.841L763.897 450.502L722.081 372.316L719.579 373.654Z" fill="#E9562A"/>
<path d="M606.297 452.153L631.147 502.948L633.696 501.702L608.846 450.906L606.297 452.153Z" fill="#E9562A"/>
<path d="M729.765 375.949L731.145 378.429L736.17 375.633L734.79 373.154L729.765 375.949Z" fill="#E9562A"/>
<path d="M732.651 381.28L734.03 383.759L739.055 380.964L737.676 378.484L732.651 381.28Z" fill="#E9562A"/>
<path d="M735.613 386.662L736.992 389.142L742.017 386.347L740.638 383.868L735.613 386.662Z" fill="#E9562A"/>
<path d="M738.477 391.982L739.856 394.461L744.881 391.666L743.502 389.186L738.477 391.982Z" fill="#E9562A"/>
<path d="M741.396 397.329L742.776 399.808L747.801 397.012L746.421 394.533L741.396 397.329Z" fill="#E9562A"/>
<path d="M744.29 402.672L745.669 405.151L750.695 402.356L749.315 399.876L744.29 402.672Z" fill="#E9562A"/>
<path d="M747.247 408.042L748.626 410.521L753.652 407.727L752.273 405.247L747.247 408.042Z" fill="#E9562A"/>
<path d="M750.129 413.374L751.508 415.853L756.533 413.058L755.154 410.578L750.129 413.374Z" fill="#E9562A"/>
<path d="M753.019 418.713L754.398 421.192L759.423 418.396L758.044 415.917L753.019 418.713Z" fill="#E9562A"/>
<path d="M755.921 424.06L757.301 426.539L762.326 423.744L760.946 421.264L755.921 424.06Z" fill="#E9562A"/>
<path d="M758.841 429.406L760.22 431.886L765.245 429.09L763.866 426.611L758.841 429.406Z" fill="#E9562A"/>
<path d="M761.743 434.754L763.122 437.233L768.147 434.438L766.768 431.958L761.743 434.754Z" fill="#E9562A"/>
<path d="M764.654 440.096L766.033 442.576L771.058 439.78L769.679 437.301L764.654 440.096Z" fill="#E9562A"/>
<path d="M677.167 436.595C681.548 434.294 686.968 435.99 689.269 440.371C691.571 444.751 689.874 450.171 685.494 452.473C681.113 454.774 668.151 451.451 668.151 451.451C668.151 451.451 672.787 438.896 677.176 436.599L677.167 436.595Z" fill="#EA572A"/>
<path d="M690.719 448.949C689.792 450.927 688.231 452.628 686.151 453.721C681.424 456.205 669.175 453.165 667.795 452.81L666.275 452.421L666.822 450.943C667.313 449.606 671.782 437.809 676.518 435.329C681.588 432.672 687.877 434.63 690.534 439.7C692.099 442.69 692.065 446.101 690.732 448.944L690.719 448.949ZM670.055 450.443C674.995 451.559 682.28 452.553 684.832 451.211C688.515 449.283 689.941 444.708 688.012 441.024C687.075 439.237 685.506 437.926 683.583 437.327C681.66 436.728 679.621 436.91 677.833 437.848C675.282 439.189 671.955 445.746 670.067 450.439L670.055 450.443Z" fill="#E9562A"/>
<path d="M576.014 487.499C572.621 489.01 567.55 498.885 559.862 501.243C552.875 503.377 545.365 503.218 542.819 510.204C540.198 517.373 543.839 525.579 550.921 528.431C558.512 531.49 567.062 527.604 569.795 519.975C570.792 517.204 568.86 514.062 570.209 511.676C573.208 506.376 581.792 507.561 584.416 506.4C590.366 503.759 593.304 497.385 590.99 492.163C588.672 486.949 581.973 484.862 576.019 487.511L576.014 487.499Z" fill="#EA572A"/>
<path d="M592.042 500.899C590.705 503.75 588.254 506.236 584.985 507.68C584.006 508.119 582.656 508.259 580.951 508.441C577.487 508.811 573.187 509.27 571.436 512.356C570.971 513.193 571.118 514.348 571.296 515.685C571.489 517.144 571.708 518.793 571.118 520.428C569.659 524.497 566.685 527.719 562.731 529.489C558.785 531.263 554.4 531.348 550.378 529.722C542.574 526.584 538.587 517.599 541.47 509.696C543.711 503.56 549.336 502.281 554.784 501.045C556.315 500.697 557.905 500.336 559.434 499.862C563.826 498.517 567.419 494.352 570.31 490.997C572.287 488.696 573.858 486.884 575.431 486.181C578.624 484.764 582.121 484.524 585.277 485.503C588.504 486.505 590.987 488.652 592.278 491.555C593.623 494.568 593.427 497.924 592.042 500.878L592.042 500.899ZM568.799 511.297C568.852 511.185 568.904 511.074 568.973 510.971C571.441 506.602 576.77 506.041 580.661 505.631C582.003 505.487 583.269 505.35 583.846 505.098C589.072 502.776 591.696 497.227 589.697 492.737C588.738 490.595 586.879 488.991 584.452 488.24C581.954 487.464 579.166 487.661 576.605 488.8C575.614 489.244 574.088 491.004 572.48 492.872C569.356 496.504 565.462 501.018 560.289 502.603C558.664 503.105 557.028 503.476 555.438 503.838C550.305 505.003 545.875 506.006 544.156 510.695C541.784 517.177 545.065 524.545 551.455 527.114C554.75 528.441 558.353 528.376 561.583 526.924C564.822 525.477 567.265 522.83 568.455 519.492C568.815 518.501 568.654 517.329 568.488 516.081C568.285 514.576 568.065 512.885 568.804 511.309L568.799 511.297Z" fill="#EA572A"/>
<path d="M586.896 501.253L580.747 488.974C579.913 487.308 580.589 485.277 582.255 484.443L598.83 476.143L608.002 494.46L591.427 502.76C589.761 503.594 587.73 502.919 586.896 501.253Z" fill="#F6CE52"/>
<path d="M609.917 495.108L592.074 504.038C590.929 504.608 589.628 504.708 588.412 504.294C587.201 503.893 586.215 503.033 585.64 501.897L579.494 489.612C578.314 487.251 579.27 484.367 581.635 483.178L599.477 474.248L609.921 495.099L609.917 495.108ZM582.027 488.355L588.173 500.64C588.404 501.104 588.803 501.458 589.302 501.619C589.797 501.789 590.329 501.746 590.792 501.514L606.099 493.85L598.198 478.067L582.892 485.732C581.926 486.209 581.537 487.394 582.018 488.351L582.027 488.355Z" fill="#E9562A"/>
<path d="M1035.1 655.952C1026.26 655.952 1016.91 655.413 1006.92 654.335C980.865 651.536 956.833 640.801 935.506 622.453C915.049 604.852 903.17 585.199 899.018 577.567C890.26 561.489 891.026 535.65 891.764 510.663C892.133 498.122 892.492 486.281 891.651 476.038C889.135 445.272 891.575 431.993 891.679 431.435L891.84 430.584L892.596 430.149C892.653 430.121 898.11 426.981 905.922 420.937C919.362 410.553 938.154 392.99 951.385 368.229L955.102 361.278L954.951 369.156C954.951 369.317 954.715 385.13 961.222 401.152C969.289 421.013 983.646 432.391 1003.94 435.02C990.191 413.277 995.525 370.887 995.591 370.443L997.246 358.412L999.327 370.376C999.355 370.518 1001.89 384.563 1012.39 399.998C1021.57 413.494 1038.82 430.717 1069.49 438.141C1048.69 408.803 1053.06 390.55 1053.26 389.755L1054.38 385.442L1056.71 389.245C1057.06 389.812 1090.91 444.336 1135.57 452.602C1130.36 444.307 1118.86 423.633 1123.86 409.446L1125.47 404.859L1127.38 409.333C1127.55 409.72 1144.03 448.015 1157.6 457.662L1158.14 458.04L1158.32 458.674C1158.39 458.891 1164.65 480.19 1176.72 501.678C1196.26 484.474 1209.8 487.274 1211.09 487.595C1212.78 487.926 1236.19 493.081 1236.19 519.042C1236.19 545.004 1227.2 557.687 1209.51 573.822C1193.93 588.036 1170.68 583.941 1164.81 582.608C1143.82 614.461 1119.81 635.306 1091.43 646.334C1074.77 652.794 1056.46 655.962 1035.1 655.962V655.952ZM895.273 432.968C894.8 436.278 893.306 449.755 895.424 475.726C896.275 486.177 895.925 498.122 895.547 510.767C894.819 535.253 894.072 560.571 902.338 575.751C908.476 587.025 942.382 643.582 1007.33 650.571C1057.57 655.971 1115.26 651.744 1162.38 579.402L1163.13 578.248L1164.47 578.607C1164.73 578.683 1190.95 585.615 1206.97 571.003C1224.21 555.284 1232.41 543.491 1232.41 519.023C1232.41 494.556 1211.26 491.445 1210.36 491.284L1210.19 491.246C1210.07 491.218 1196.89 488.097 1177.53 506.029L1175.79 507.636L1174.61 505.584C1162.74 485.099 1156.06 464.178 1154.89 460.338C1143.74 451.921 1131.57 427.52 1126.42 416.398C1125.86 432.324 1140.88 453.765 1141.05 454.002L1143.5 457.473L1139.28 456.971C1098.28 452.148 1066.41 410.307 1056.58 395.941C1056.78 403.554 1059.57 419.055 1075.5 439.91L1078.54 443.891L1073.63 442.917C1038.56 435.956 1019.21 416.804 1009.15 401.975C1003.89 394.21 1000.58 386.871 998.542 381.291C997.861 396.064 998.353 422.876 1009.39 436.098L1012.23 439.503L1007.8 439.191C977.801 437.11 963.974 418.062 957.665 402.457C953.504 392.158 951.991 382.132 951.452 375.805C938.211 398.116 920.894 414.147 908.23 423.926C901.846 428.863 897.07 431.861 895.254 432.958L895.273 432.968Z" fill="#E9562A"/>
<path d="M1014.17 673.251C973.971 671.567 948.463 657.409 938.135 650.354L942.864 663.292L940.131 663.273C939.724 663.273 929.964 663.121 917.376 657.191C906.877 652.245 892.54 642.239 881.285 622.274C881.701 629.178 884.113 640.584 893.901 652.907L896.077 655.65L892.596 655.971C891.972 656.028 877.246 657.191 860.752 641.671C859.806 640.83 838.536 621.328 846.329 578.21C839.529 591.252 831.131 615.757 846.925 639.231L849.942 643.724L844.787 642.097C844.286 641.936 832.379 638.125 821.531 629.83C810.324 621.262 804.242 589.767 813.435 571.722C821.947 555.01 836.398 538.629 837.013 537.939C837.486 537.447 878.429 495.398 876.159 477.277C875.856 474.846 874.731 473.068 872.716 471.848C867.864 468.898 863.514 464.547 859.778 458.929C847.88 441.016 846.811 417.41 856.997 397.331C861.925 387.618 868.318 377.734 875.998 367.974C901.685 335.317 963.416 326.379 966.036 326.01L968.4 325.679L968.182 328.053C968.164 328.318 967.52 357.258 1065.69 367.255C1150.88 375.928 1206.4 369.629 1240.43 347.432C1244.19 344.982 1249.29 345.701 1252.3 349.087C1260.84 358.696 1281.16 382.974 1285.48 400.925C1286.78 406.325 1289.56 416.265 1293.07 428.863C1304.07 468.264 1322.49 534.203 1322.49 558.415H1318.7C1318.7 534.723 1300.38 469.096 1289.43 429.884C1285.91 417.258 1283.12 407.28 1281.81 401.814C1277.69 384.695 1257.83 360.994 1249.48 351.603C1247.71 349.598 1244.71 349.172 1242.51 350.6C1207.72 373.299 1151.42 379.796 1065.32 371.019C977.612 362.082 966.036 337.804 964.607 330.068C953.778 331.883 901.231 342.022 878.996 370.31C871.468 379.881 865.216 389.547 860.402 399.043C850.84 417.911 851.815 440.051 862.965 456.839C866.389 461.993 870.342 465.956 874.712 468.623C877.729 470.458 879.488 473.22 879.942 476.823C882.439 496.751 841.553 538.762 839.813 540.54C839.728 540.634 825.134 557.185 816.84 573.462C808.678 589.484 814.135 619.408 823.858 626.842C829.948 631.504 836.531 634.72 840.91 636.574C833.315 622.605 832.048 606.63 837.287 590.023C841.676 576.11 848.949 566.785 849.261 566.388L855.049 559.039L852.571 568.062C839.226 616.589 863.098 638.683 863.344 638.9C873.756 648.698 883.422 651.328 888.52 652.018C874.437 632.138 877.719 615.464 877.871 614.736L879.015 609.279L881.427 614.31C899.245 651.479 928.29 658.109 937.388 659.282L929.888 638.758L935.449 643.629C935.724 643.865 963.132 667.368 1014.36 669.515L1014.19 673.298L1014.17 673.251Z" fill="#E9562A"/>
<path d="M1158.08 665.476V661.693C1158.54 661.693 1204.15 661.239 1223.82 626.132L1226.33 621.668L1227.33 626.681C1227.45 627.229 1229.66 639.468 1214.67 656.964L1237.48 652.226C1264.63 646.58 1281.68 596.511 1281.84 596.009L1284.45 588.207L1285.51 596.369C1285.68 597.712 1289.47 628.298 1277.02 648.49C1280.03 648.434 1286.22 647.176 1296.72 640.423C1331.62 617.989 1318.87 559.408 1318.73 558.822L1322.42 557.989C1322.56 558.614 1325.87 573.509 1324.72 591.545C1323.17 615.691 1314.2 633.689 1298.77 643.61C1280.7 655.224 1273.65 651.961 1272.9 651.545L1271.03 650.514L1272.28 648.784C1281.57 635.864 1282.6 616.438 1282.31 605.373C1276.07 620.42 1260.72 651.261 1238.25 655.934L1203.61 663.131L1207.95 658.695C1218.02 648.405 1221.73 639.884 1223.05 634.351C1200.71 665.108 1158.53 665.476 1158.08 665.476Z" fill="#E9562A"/>
<path d="M1015.24 698.087L1011.82 696.479C1018.37 682.481 1010.55 653.758 1010.47 653.475L1014.12 652.463C1014.46 653.692 1022.39 682.822 1015.24 698.087Z" fill="#E9562A"/>
<path d="M990.796 689.707L990.276 685.962C1005.45 683.834 1015.22 677.79 1015.31 677.734L1017.32 680.94C1016.9 681.205 1006.77 687.485 990.805 689.717L990.796 689.707Z" fill="#E9562A"/>
<path d="M847.237 844.521L843.473 844.18C843.511 843.717 848.069 797.695 887.338 748.071C926.663 698.361 987.93 683.928 988.545 683.787L989.122 683.654L992.337 684.94L992.423 686.123C992.442 686.331 994.201 707.289 1010.9 721.513C1023.1 731.907 1040.15 736.258 1061.55 734.452C1118.7 729.619 1162.77 689.764 1173.42 679.304C1144.12 671.643 1141.46 610.291 1141.35 607.576L1145.14 607.434C1145.16 608.096 1147.98 673.251 1177.48 676.201L1181.26 676.58L1178.68 679.37C1178.19 679.899 1128.91 732.57 1061.87 738.235C1039.4 740.136 1021.41 735.473 1008.42 724.37C992.706 710.959 989.406 692.554 988.781 687.636C982.369 689.253 926.701 704.423 890.298 750.435C851.777 799.124 847.275 844.095 847.237 844.54V844.521Z" fill="#E9562A"/>
<path d="M1332.56 834.486C1325.15 767.469 1290.16 736.088 1267.01 715.319C1265.83 714.259 1264.68 713.228 1263.57 712.226C1242.83 693.471 1188.93 679.304 1180.73 677.223L1178.65 679.379L1175.93 676.759L1179.52 673.033L1180.57 673.289C1183.11 673.903 1243.03 688.553 1266.12 709.426C1267.23 710.429 1268.37 711.45 1269.54 712.51C1293.12 733.657 1328.76 765.615 1336.32 834.079L1332.56 834.495V834.486Z" fill="#E9562A"/>
<path d="M904.447 841.267L900.702 840.719C905.099 810.615 917.688 778.884 917.811 778.562L921.319 779.962C921.196 780.274 908.769 811.608 904.437 841.258L904.447 841.267Z" fill="#E9562A"/>
<path d="M1199.4 858.651L1195.72 857.78C1199.43 842.081 1207.37 790.839 1207.44 790.318L1211.18 790.895C1211.1 791.416 1203.15 842.799 1199.4 858.651Z" fill="#E9562A"/>
<path d="M949.437 517.141C955.784 517.141 960.928 508.821 960.928 498.557C960.928 488.293 955.784 479.973 949.437 479.973C943.091 479.973 937.946 488.293 937.946 498.557C937.946 508.821 943.091 517.141 949.437 517.141Z" fill="#E9562A"/>
<path d="M1113.08 568.478C1127.85 568.478 1139.82 562.626 1139.82 555.407C1139.82 548.189 1127.85 542.337 1113.08 542.337C1098.32 542.337 1086.35 548.189 1086.35 555.407C1086.35 562.626 1098.32 568.478 1113.08 568.478Z" fill="#E9562A"/>
<path d="M1071.48 528.368C1077.83 528.368 1082.97 520.047 1082.97 509.783C1082.97 499.519 1077.83 491.199 1071.48 491.199C1065.13 491.199 1059.99 499.519 1059.99 509.783C1059.99 520.047 1065.13 528.368 1071.48 528.368Z" fill="#E9562A"/>
<path d="M913.687 441.811L910.755 439.418C911.237 438.831 922.7 425.004 937.057 423.794C943.526 423.245 949.541 425.354 954.932 430.055L952.445 432.901C947.867 428.901 942.788 427.104 937.398 427.558C924.639 428.617 913.8 441.678 913.687 441.811Z" fill="#E9562A"/>
<path d="M1095.93 456.281C1090.49 445.679 1083.2 438.879 1074.27 436.07C1060.09 431.606 1046.36 438.746 1046.22 438.822L1044.44 435.483C1045.05 435.152 1059.66 427.529 1075.36 432.447C1085.31 435.568 1093.37 443.002 1099.29 454.55L1095.92 456.281H1095.93Z" fill="#E9562A"/>
<path d="M983.182 548.948C976.439 544.417 973.006 539.376 972.959 533.957C972.892 525.502 981.225 519.61 981.584 519.364L983.74 522.476C983.665 522.523 976.675 527.498 976.742 533.948C976.779 538.033 979.655 542.025 985.291 545.808L983.182 548.948Z" fill="#E9562A"/>
<path d="M1005.2 598.033C997.114 598.033 990.285 596.189 984.866 593.853C970.727 587.743 963.17 577.255 962.858 576.81L965.941 574.625C966.017 574.73 973.299 584.793 986.521 590.448C1004.18 598.005 1023.6 594.553 1044.26 580.196L1046.42 583.298C1030.49 594.373 1016.6 598.033 1005.2 598.033Z" fill="#E9562A"/>
<path d="M957.684 490.102C957.628 489.903 951.821 470.08 938.135 471.47C924.62 472.851 925.008 488.844 925.036 489.525L921.253 489.657C921.017 482.677 924.157 469.096 937.757 467.715C954.582 465.975 961.061 488.135 961.326 489.08L957.684 490.111V490.102Z" fill="#E9562A"/>
<path d="M1079.73 501.328C1079.67 501.129 1073.85 481.306 1060.18 482.696C1046.66 484.077 1047.05 500.07 1047.08 500.751L1043.3 500.884C1043.06 493.904 1046.2 480.322 1059.8 478.942C1076.62 477.201 1083.1 499.361 1083.37 500.307L1079.73 501.338V501.328Z" fill="#E9562A"/>
<path d="M1078.55 312.287C1072.92 304.853 1062.32 303.397 1054.88 309.043C1053.51 310.083 1052.35 311.294 1051.39 312.618C1045.73 305.326 1035.23 303.926 1027.85 309.525C1020.49 315.105 1019.01 325.537 1024.45 332.962C1023.02 333.52 1021.64 334.267 1020.36 335.231C1012.93 340.868 1011.47 351.47 1017.12 358.904C1021.56 364.758 1029.08 366.886 1035.7 364.768C1035.83 368.107 1036.94 371.445 1039.12 374.301C1044.75 381.735 1055.35 383.192 1062.79 377.545C1067.16 374.226 1069.45 369.194 1069.46 364.096C1074.36 365.458 1079.83 364.617 1084.2 361.297C1091.63 355.66 1093.09 345.058 1087.44 337.624C1085.27 334.759 1082.37 332.801 1079.19 331.77C1083.02 325.953 1083 318.132 1078.55 312.268V312.287Z" fill="#F6CE52"/>
<path d="M1052.62 382.416C1051.78 382.416 1050.94 382.359 1050.1 382.246C1045.25 381.584 1040.95 379.068 1038 375.171C1036.08 372.646 1034.87 369.705 1034.45 366.584C1027.56 368.078 1020.32 365.458 1016 359.765C1013.04 355.868 1011.78 351.054 1012.44 346.212C1013.11 341.369 1015.62 337.066 1019.52 334.115C1020.4 333.444 1021.34 332.858 1022.36 332.356C1017.67 324.478 1019.57 314.056 1027.01 308.409C1034.48 302.744 1045.04 303.728 1051.36 310.414C1052.17 309.497 1053.07 308.665 1054.03 307.927C1057.93 304.967 1062.73 303.709 1067.58 304.371C1072.43 305.033 1076.73 307.549 1079.68 311.445C1084 317.139 1084.57 324.828 1081.27 331.07C1084.15 332.318 1086.66 334.267 1088.57 336.792C1091.53 340.689 1092.79 345.503 1092.13 350.345C1091.46 355.187 1088.95 359.491 1085.05 362.441C1080.94 365.562 1075.82 366.773 1070.78 365.865C1070.3 370.963 1067.75 375.559 1063.64 378.69C1060.42 381.13 1056.58 382.416 1052.61 382.416H1052.62ZM1037.05 362.857L1037.13 364.721C1037.25 367.908 1038.33 370.925 1040.25 373.46C1042.75 376.751 1046.38 378.879 1050.47 379.437C1054.57 379.995 1058.64 378.936 1061.93 376.429C1065.8 373.488 1068.03 368.995 1068.03 364.106V362.243L1069.82 362.744C1074.54 364.059 1079.46 363.122 1083.33 360.181C1086.62 357.684 1088.75 354.052 1089.31 349.957C1089.87 345.862 1088.81 341.795 1086.3 338.504C1084.38 335.979 1081.77 334.125 1078.73 333.141L1076.96 332.564L1077.98 331.004C1081.58 325.528 1081.35 318.349 1077.4 313.138C1074.9 309.847 1071.27 307.719 1067.18 307.161C1063.09 306.603 1059.01 307.662 1055.72 310.168C1054.5 311.095 1053.42 312.202 1052.53 313.441L1051.42 314.973L1050.26 313.479C1045.08 306.82 1035.41 305.553 1028.69 310.641C1022.02 315.711 1020.62 325.339 1025.57 332.11L1026.66 333.605L1024.94 334.276C1023.58 334.806 1022.32 335.506 1021.19 336.357C1017.9 338.854 1015.77 342.485 1015.22 346.581C1014.66 350.676 1015.72 354.743 1018.22 358.034C1022.17 363.236 1029.01 365.402 1035.25 363.406L1037.03 362.839L1037.05 362.857Z" fill="#E9562A"/>
<path d="M1051.95 352.87C1058.36 352.87 1063.55 347.675 1063.55 341.265C1063.55 334.856 1058.36 329.661 1051.95 329.661C1045.54 329.661 1040.34 334.856 1040.34 341.265C1040.34 347.675 1045.54 352.87 1051.95 352.87Z" fill="#F6CE52"/>
<path d="M1051.96 354.279C1048.02 354.279 1044.13 352.501 1041.56 349.134C1039.47 346.363 1038.57 342.939 1039.04 339.497C1039.51 336.054 1041.3 332.999 1044.07 330.89C1046.84 328.791 1050.27 327.892 1053.71 328.365C1057.15 328.838 1060.21 330.626 1062.32 333.397C1064.41 336.168 1065.31 339.591 1064.84 343.034C1064.37 346.477 1062.58 349.532 1059.81 351.641C1057.46 353.419 1054.69 354.279 1051.95 354.279H1051.96ZM1051.92 331.079C1049.72 331.079 1047.58 331.798 1045.78 333.151C1043.62 334.796 1042.22 337.189 1041.85 339.885C1041.48 342.58 1042.18 345.257 1043.83 347.422C1047.22 351.896 1053.62 352.776 1058.1 349.38C1060.26 347.735 1061.66 345.342 1062.03 342.646C1062.4 339.951 1061.7 337.274 1060.05 335.108C1058.41 332.943 1056.02 331.543 1053.32 331.174C1052.85 331.108 1052.38 331.079 1051.91 331.079H1051.92Z" fill="#E9562A"/>
<path d="M802.852 342.939C802.388 342.939 801.925 342.911 801.452 342.845C798.766 342.476 796.392 341.086 794.747 338.929C791.37 334.475 792.24 328.1 796.695 324.724C801.149 321.338 807.524 322.218 810.9 326.672C812.537 328.829 813.236 331.496 812.868 334.182C812.499 336.868 811.109 339.241 808.952 340.887C807.174 342.24 805.046 342.949 802.842 342.949L802.852 342.939ZM802.824 325.499C801.282 325.499 799.731 325.982 798.416 326.984C795.21 329.415 794.576 334.011 797.016 337.218C798.199 338.769 799.911 339.771 801.84 340.036C803.769 340.301 805.689 339.799 807.25 338.617C808.81 337.435 809.803 335.723 810.068 333.794C810.333 331.864 809.832 329.945 808.649 328.384C807.212 326.492 805.027 325.499 802.824 325.499Z" fill="#E9562A"/>
<path d="M803.334 364.087C802.691 364.087 802.039 364.04 801.386 363.955C797.65 363.444 794.34 361.505 792.061 358.497C790.661 356.644 789.743 354.516 789.384 352.246C784.182 353.22 778.782 351.206 775.529 346.921C770.819 340.717 772.039 331.846 778.243 327.136C778.82 326.691 779.444 326.294 780.097 325.953C776.72 319.919 778.233 312.088 783.87 307.813C789.526 303.52 797.48 304.182 802.388 309.081C802.937 308.485 803.542 307.936 804.195 307.445C810.399 302.735 819.27 303.955 823.98 310.159C827.234 314.453 827.726 320.203 825.371 324.96C827.451 325.925 829.258 327.372 830.658 329.226C835.368 335.43 834.147 344.301 827.943 349.011C824.869 351.338 821.077 352.293 817.313 351.716C816.859 355.499 814.92 358.895 811.846 361.231C809.368 363.113 806.399 364.106 803.344 364.106L803.334 364.087ZM791.966 348.548L792.042 350.411C792.136 352.728 792.921 354.932 794.321 356.776C796.146 359.178 798.795 360.72 801.774 361.136C804.753 361.543 807.723 360.767 810.125 358.951C812.943 356.804 814.57 353.532 814.57 349.967V348.103L816.367 348.605C819.81 349.56 823.394 348.879 826.212 346.741C831.168 342.977 832.142 335.893 828.378 330.938C826.979 329.093 825.078 327.741 822.864 327.032L821.086 326.455L822.117 324.894C824.747 320.903 824.576 315.673 821.692 311.871C819.866 309.469 817.218 307.927 814.239 307.511C811.25 307.104 808.29 307.88 805.888 309.696C804.999 310.367 804.214 311.171 803.561 312.079L802.455 313.611L801.291 312.117C797.518 307.265 790.462 306.338 785.573 310.055C780.702 313.753 779.68 320.771 783.303 325.707L784.39 327.192L782.669 327.864C781.676 328.252 780.759 328.762 779.936 329.387C774.98 333.151 774.006 340.235 777.77 345.19C780.645 348.983 785.639 350.562 790.179 349.106L791.957 348.538L791.966 348.548Z" fill="#E9562A"/>
<path d="M1291.33 333.085C1290.91 333.085 1290.47 333.056 1290.05 332.999C1287.57 332.659 1285.38 331.373 1283.86 329.387C1280.74 325.272 1281.55 319.39 1285.66 316.269C1289.77 313.148 1295.66 313.952 1298.78 318.066C1300.29 320.061 1300.93 322.52 1300.59 324.998C1300.25 327.476 1298.97 329.67 1296.98 331.184C1295.33 332.432 1293.37 333.085 1291.34 333.085H1291.33ZM1291.31 317.205C1289.93 317.205 1288.54 317.64 1287.37 318.529C1284.51 320.704 1283.95 324.8 1286.12 327.665C1287.17 329.056 1288.7 329.945 1290.44 330.181C1292.17 330.417 1293.88 329.963 1295.26 328.914C1296.65 327.864 1297.54 326.332 1297.78 324.601C1298.02 322.88 1297.57 321.158 1296.52 319.768C1295.23 318.075 1293.28 317.196 1291.32 317.196L1291.31 317.205Z" fill="#E9562A"/>
<path d="M1291.77 352.331C1291.17 352.331 1290.58 352.293 1289.98 352.208C1286.55 351.735 1283.5 349.957 1281.4 347.195C1280.15 345.531 1279.31 343.611 1278.96 341.578C1274.22 342.419 1269.32 340.556 1266.35 336.65C1262.02 330.947 1263.14 322.795 1268.84 318.463C1269.34 318.085 1269.87 317.735 1270.43 317.432C1267.41 311.899 1268.82 304.768 1273.97 300.862C1279.13 296.947 1286.38 297.514 1290.9 301.94C1291.38 301.43 1291.91 300.957 1292.47 300.531C1295.23 298.431 1298.64 297.542 1302.08 298.015C1305.51 298.488 1308.56 300.266 1310.66 303.028C1313.63 306.943 1314.09 312.173 1312 316.515C1313.86 317.404 1315.48 318.718 1316.75 320.383C1321.07 326.086 1319.95 334.238 1314.25 338.57C1311.46 340.689 1308.03 341.568 1304.6 341.076C1304.16 344.5 1302.38 347.574 1299.59 349.692C1297.31 351.423 1294.59 352.331 1291.77 352.331ZM1281.55 337.889L1281.62 339.752C1281.71 341.842 1282.41 343.819 1283.67 345.474C1285.31 347.631 1287.69 349.021 1290.38 349.39C1293.06 349.758 1295.73 349.059 1297.89 347.422C1300.42 345.493 1301.88 342.552 1301.89 339.346V337.482L1303.69 337.984C1306.78 338.844 1310 338.23 1312.54 336.31C1316.99 332.933 1317.86 326.559 1314.49 322.104C1313.23 320.449 1311.52 319.229 1309.53 318.595L1307.75 318.018L1308.77 316.458C1311.14 312.873 1310.99 308.163 1308.4 304.749C1306.76 302.593 1304.38 301.203 1301.7 300.834C1299.02 300.465 1296.35 301.165 1294.19 302.801C1293.39 303.406 1292.69 304.134 1292.09 304.948L1290.98 306.48L1289.82 304.986C1286.43 300.626 1280.09 299.793 1275.69 303.132C1271.31 306.452 1270.39 312.769 1273.65 317.205L1274.74 318.69L1273.01 319.361C1272.12 319.711 1271.29 320.165 1270.56 320.723C1266.11 324.1 1265.24 330.474 1268.62 334.929C1271.21 338.343 1275.69 339.752 1279.78 338.447L1281.55 337.88L1281.55 337.889Z" fill="#E9562A"/>
<path d="M547.062 350.233C544.433 350.233 541.87 349.41 539.695 347.831C536.971 345.854 535.183 342.941 534.654 339.621C534.124 336.302 534.919 332.972 536.895 330.249C538.872 327.525 541.785 325.737 545.105 325.208C548.424 324.678 551.753 325.472 554.477 327.449C557.201 329.426 558.989 332.339 559.518 335.658C560.048 338.978 559.253 342.307 557.277 345.031C555.3 347.755 552.387 349.542 549.067 350.072C548.396 350.176 547.724 350.233 547.062 350.233ZM547.1 327.884C546.589 327.884 546.079 327.922 545.559 328.007C542.986 328.414 540.726 329.804 539.194 331.913C537.661 334.022 537.047 336.595 537.453 339.167C537.86 341.74 539.25 344 541.359 345.532C543.468 347.064 546.041 347.679 548.613 347.273C551.186 346.866 553.446 345.476 554.978 343.366C556.511 341.257 557.125 338.685 556.719 336.112C555.953 331.317 551.801 327.894 547.091 327.894L547.1 327.884Z" fill="#E9562A"/>
<path d="M537.226 374.993C533.528 374.993 529.934 373.83 526.88 371.617C523.059 368.846 520.543 364.75 519.796 360.088C519.313 357.08 519.616 354.044 520.666 351.216C514.14 349.325 509.194 343.82 508.115 337.03C507.378 332.367 508.494 327.695 511.265 323.865C514.036 320.034 518.131 317.528 522.794 316.79C523.825 316.629 524.884 316.554 525.953 316.582C525.584 307.758 531.939 299.785 540.83 298.367C549.748 296.948 558.27 302.566 560.634 311.106C561.722 310.709 562.838 310.416 563.982 310.227C568.645 309.489 573.317 310.605 577.147 313.376C580.968 316.147 583.484 320.242 584.222 324.905C585.3 331.705 582.302 338.486 576.684 342.307C578.557 344.672 579.786 347.462 580.259 350.469C581.791 360.097 575.209 369.177 565.581 370.709C560.672 371.494 555.782 370.198 551.914 367.162C549.181 371.257 544.934 374 540.026 374.776C539.08 374.927 538.144 375.003 537.207 375.003L537.226 374.993ZM525.527 319.401C524.761 319.401 523.995 319.457 523.248 319.58C519.332 320.205 515.89 322.314 513.563 325.52C511.237 328.726 510.3 332.651 510.915 336.566C511.899 342.752 516.713 347.679 522.879 348.814L524.714 349.155L523.9 350.829C522.567 353.581 522.113 356.617 522.595 359.634C523.219 363.549 525.329 366.992 528.535 369.319C531.741 371.645 535.666 372.581 539.581 371.957C544.187 371.229 548.103 368.429 550.316 364.296L551.195 362.651L552.548 363.937C555.943 367.181 560.53 368.619 565.136 367.881C573.222 366.595 578.746 358.972 577.46 350.885C576.977 347.878 575.606 345.126 573.487 342.931L572.192 341.588L573.828 340.699C579.351 337.701 582.406 331.525 581.422 325.331C580.798 321.415 578.689 317.972 575.483 315.646C572.277 313.319 568.352 312.373 564.436 312.998C562.98 313.225 561.571 313.669 560.246 314.322L558.544 315.154L558.222 313.291C556.861 305.318 549.247 299.87 541.265 301.138C533.32 302.405 527.778 309.915 528.913 317.887L529.178 319.713L527.343 319.495C526.728 319.42 526.114 319.382 525.508 319.382L525.527 319.401Z" fill="#E9562A"/>
<path d="M819.325 423C809.399 423 801.325 414.925 801.325 405C801.325 395.075 809.399 387 819.325 387C829.25 387 837.325 395.075 837.325 405C837.325 414.925 829.25 423 819.325 423ZM819.325 389.794C810.941 389.794 804.128 396.617 804.128 404.991C804.128 413.364 810.951 420.187 819.325 420.187C827.698 420.187 834.521 413.364 834.521 404.991C834.521 396.617 827.698 389.794 819.325 389.794Z" fill="#E9562A"/>
<path d="M936.325 138C928.058 138 921.325 131.276 921.325 123C921.325 114.724 928.049 108 936.325 108C944.6 108 951.325 114.724 951.325 123C951.325 131.276 944.6 138 936.325 138ZM936.325 110.874C929.639 110.874 924.198 116.314 924.198 123C924.198 129.686 929.639 135.126 936.325 135.126C943.01 135.126 948.451 129.686 948.451 123C948.451 116.314 943.01 110.874 936.325 110.874Z" fill="#E9562A"/>
<path d="M1243.32 46C1240.02 46 1237.32 43.3093 1237.32 40C1237.32 36.6907 1240.02 34 1243.32 34C1246.63 34 1249.32 36.6907 1249.32 40C1249.32 43.3093 1246.63 46 1243.32 46ZM1243.32 36.946C1241.64 36.946 1240.27 38.3208 1240.27 40C1240.27 41.6792 1241.65 43.054 1243.32 43.054C1245 43.054 1246.38 41.6792 1246.38 40C1246.38 38.3208 1245 36.946 1243.32 36.946Z" fill="#E9562A"/>
<path d="M1113.32 214C1105.6 214 1099.32 207.721 1099.32 200C1099.32 192.279 1105.6 186 1113.32 186C1121.05 186 1127.32 192.279 1127.32 200C1127.32 207.721 1121.05 214 1113.32 214ZM1113.32 188.903C1107.21 188.903 1102.23 193.876 1102.23 200C1102.23 206.124 1107.2 211.097 1113.32 211.097C1119.45 211.097 1124.42 206.124 1124.42 200C1124.42 193.876 1119.45 188.903 1113.32 188.903Z" fill="#E9562A"/>
<path d="M609.696 100C605.269 100 599.545 99.1986 594.642 95.9358C585.21 89.6774 582.689 76.9411 582.586 76.3973L582.325 75.0426L583.641 74.7373C584.164 74.6132 596.584 71.7989 606.007 78.0573C615.439 84.3157 617.96 97.052 618.063 97.5958L618.325 98.9506L617.008 99.2558C616.756 99.3131 613.777 99.9905 609.696 99.9905V100ZM585.677 77.275C586.592 80.6236 589.468 89.105 596.164 93.5412C602.869 97.9965 611.61 97.2429 614.972 96.7277C614.057 93.379 611.181 84.8977 604.485 80.4614C597.78 76.0061 589.039 76.7598 585.677 77.275Z" fill="#E9562A"/>
<path d="M850.19 105L849.889 103.653C849.626 102.507 843.674 75.2546 856.866 54.641C870.057 34.0274 896.986 28.4967 898.124 28.2675L899.459 28L899.76 29.3469C900.023 30.4931 905.975 57.7454 892.783 78.359C879.592 98.9726 852.663 104.503 851.525 104.733L850.19 105ZM897.278 31.4006C891.636 32.8143 870.105 39.1856 859.216 56.198C848.319 73.2295 851.337 95.7917 852.353 101.599C857.985 100.186 879.526 93.8144 890.414 76.802C901.302 59.7896 898.293 37.2083 897.278 31.4006Z" fill="#E9562A"/>
<path d="M450.164 115.15C451.24 115.15 452.112 114.278 452.112 113.202C452.112 112.126 451.24 111.254 450.164 111.254C449.088 111.254 448.215 112.126 448.215 113.202C448.215 114.278 449.088 115.15 450.164 115.15Z" fill="#E9562A"/>
<path d="M478.518 119.671C479.594 119.671 480.466 118.799 480.466 117.723C480.466 116.647 479.594 115.774 478.518 115.774C477.442 115.774 476.57 116.647 476.57 117.723C476.57 118.799 477.442 119.671 478.518 119.671Z" fill="#E9562A"/>
<path d="M463.854 119.179L458.298 120.509L458.959 123.268L464.514 121.938L463.854 119.179Z" fill="#E9562A"/>
<path d="M464.401 119.313L462.707 121.589L467.289 125L468.983 122.724L464.401 119.313Z" fill="#E9562A"/>
<path d="M650.403 275.506L648.521 273.794C597.685 227.498 535.255 205.131 491.834 194.519C444.735 183.009 409.202 182.461 408.852 182.451L389.284 182.111C387.762 182.082 386.494 181.127 386.05 179.68C385.605 178.233 386.116 176.72 387.355 175.85L387.516 175.755L421.781 157.681L443.837 77.7069C444.309 76.4112 445.548 75.6546 446.91 75.8059C448.282 75.9667 449.322 76.9976 449.492 78.3784C449.653 79.6836 449.918 80.9982 450.287 82.2939C452.973 91.7611 461.314 98.9206 471.046 100.112C481.507 101.389 491.399 96.2157 496.242 86.9093C496.875 85.6798 498.209 85.065 499.543 85.3771C500.848 85.6798 501.756 86.7863 501.793 88.1388L502.891 127.067C512.244 129.318 521.513 131.852 530.441 134.614C570.371 146.975 605.961 164.292 636.216 186.102C642.629 190.727 647.991 196.855 651.784 203.873C659.965 199.901 666.122 192.978 668.391 185.118C670.756 176.947 668.978 168.151 663.265 159.687C659.104 153.53 657.827 147.458 659.463 141.66C662.556 130.68 675.087 123.936 680.336 121.553C681.651 120.957 683.127 120.9 684.47 121.421C686.399 122.158 687.723 123.889 687.912 125.951C688.101 127.984 687.146 129.914 685.406 130.992C680.034 134.302 673.3 139.778 671.72 147.108C670.709 151.78 671.938 156.736 675.381 161.824C682.209 171.934 683.807 182.83 679.883 192.495C675.901 202.312 666.67 209.973 655.567 212.782C658.3 221.237 658.886 230.241 657.26 238.923L650.403 275.506ZM388.934 178.205C388.679 178.422 388.717 178.697 388.755 178.838C388.802 178.999 388.944 179.264 389.332 179.273L408.89 179.614C409.24 179.614 445.028 180.163 492.43 191.739C535.662 202.294 597.6 224.425 648.549 269.992L654.47 238.394C656.096 229.683 655.378 220.632 652.379 212.224L651.831 210.692L653.42 210.361C664.296 208.082 673.432 200.828 677.244 191.427C679.76 185.232 681.065 175.339 673.016 163.413C669.129 157.653 667.758 151.969 668.94 146.512C670.737 138.199 678.067 132.174 683.911 128.58C684.734 128.079 685.169 127.199 685.075 126.225C684.98 125.232 684.375 124.438 683.448 124.088C682.814 123.842 682.115 123.87 681.49 124.154C677.679 125.885 665.024 132.335 662.178 142.455C660.778 147.42 661.932 152.688 665.601 158.126C671.806 167.309 673.707 176.928 671.096 185.932C668.486 194.964 661.232 202.861 651.698 207.051L650.469 207.59L649.864 206.389C646.251 199.258 640.945 193.053 634.533 188.429C604.533 166.799 569.218 149.614 529.58 137.347C520.378 134.501 510.816 131.89 501.16 129.592L500.101 129.337L498.937 88.2334C498.918 88.1672 498.88 88.1483 498.833 88.1483C498.814 88.1483 498.786 88.1483 498.739 88.2334C493.348 98.5896 482.329 104.359 470.687 102.94C459.83 101.607 450.533 93.6243 447.534 83.0789C447.128 81.6413 446.835 80.1849 446.655 78.7378C446.655 78.6716 446.627 78.6622 446.617 78.6527C446.57 78.6338 446.523 78.6338 446.513 78.6527L424.174 159.639L388.934 178.205Z" fill="#E9562A"/>
<path d="M468.001 167.149L433.197 185.506C431.598 186.641 432.374 189.157 434.332 189.195L482.112 190.793" fill="#F6CE52"/>
<path d="M482.065 192.221L434.284 190.623C432.79 190.594 431.523 189.639 431.069 188.192C430.624 186.745 431.135 185.241 432.374 184.362L432.535 184.267L467.339 165.91L468.663 168.416L433.963 186.726C433.707 186.944 433.745 187.218 433.783 187.36C433.83 187.521 433.972 187.785 434.36 187.795L482.159 189.393L482.065 192.231V192.221Z" fill="#E9562A"/>
<path d="M644.113 238.375L657.26 275.468C657.666 277.388 655.387 278.712 653.921 277.407L616.809 246.991" fill="#F6CE52"/>
<path d="M655.264 279.346C654.451 279.346 653.637 279.043 652.985 278.457L615.91 248.078L617.707 245.884L654.82 276.3C655.151 276.593 655.434 276.489 655.576 276.414C655.709 276.338 655.917 276.158 655.879 275.827L642.77 238.848L645.447 237.902L658.65 275.165C658.971 276.65 658.328 278.107 657.014 278.873C656.465 279.194 655.86 279.355 655.264 279.355V279.346Z" fill="#E9562A"/>
<path d="M1120.62 69.3344C1121.32 69.3155 1121.84 69.0317 1122.21 68.464C1124.96 60.3271 1128.96 48.6989 1134.18 33.5699C1134.41 32.9644 1134.22 32.5386 1133.6 32.3115C1122.95 28.7729 1111.86 24.8842 1100.37 20.6265C1099.14 20.1724 1098.75 19.3398 1099.22 18.1192C1099.67 16.8987 1100.45 16.4919 1101.55 16.8987C1113.05 21.1564 1124.12 25.0545 1134.79 28.5931C1135.53 28.8675 1136.01 28.6972 1136.23 28.0822C1138.3 22.1782 1141.55 13.2655 1146.01 1.31558C1146.46 0.0950438 1147.33 -0.273955 1148.62 0.199121C1149.9 0.672197 1150.32 1.52373 1149.86 2.73481C1145.46 14.5617 1142.21 23.4177 1140.16 29.3122C1139.98 29.7948 1140.16 30.2205 1140.74 30.5611C1164.91 38.5467 1192.28 46.1821 1222.85 53.4864C1224.05 53.6472 1224.51 54.442 1224.26 55.8802C1224.09 57.0723 1223.35 57.5549 1222.04 57.3467C1191.23 49.9573 1163.68 42.2556 1139.38 34.2227C1138.76 33.9957 1138.32 34.2511 1138.05 34.9797C1132.88 49.5788 1129.04 60.5731 1126.57 67.9814C1126.29 68.71 1126.57 69.0979 1127.39 69.1168C1139.73 69.2493 1152.31 71.7566 1165.11 76.6387C1182.73 83.1672 1195.37 92.2881 1203.05 104.011C1210.71 115.734 1212.12 128.109 1207.25 141.157C1202.61 153.589 1193.86 162.483 1180.99 167.848C1168.13 173.212 1152.57 174.386 1134.34 171.377C1133.02 171.169 1132.49 170.374 1132.72 169.012C1132.95 167.64 1133.78 167.081 1135.23 167.337C1152.44 170.109 1167.07 169.068 1179.11 164.233C1191.14 159.408 1199.31 151.252 1203.59 139.794C1207.05 130.532 1206.92 121.543 1203.22 112.81C1199.5 104.087 1192.75 96.4512 1182.94 89.9038C1182.29 89.3929 1181.71 89.4496 1181.2 90.093C1162.36 109.205 1142.15 122.972 1120.54 131.411C1098.93 139.851 1082.02 141.8 1069.78 137.268C1063.31 134.865 1058.97 130.976 1056.81 125.593C1054.63 120.209 1054.85 114.05 1057.45 107.105C1061.36 96.6215 1069.01 87.8696 1080.4 80.8491C1091.8 73.8287 1105.2 69.9873 1120.64 69.325L1120.62 69.3344ZM1120.33 74.0179C1120.51 73.5259 1120.26 73.2894 1119.56 73.3083C1105.31 74.1409 1092.92 77.7741 1082.38 84.1985C1071.83 90.6229 1064.74 98.7125 1061.09 108.467C1058.86 114.438 1058.61 119.585 1060.35 123.908C1062.09 128.232 1065.7 131.402 1071.2 133.446C1078.42 136.123 1088 136.199 1099.94 133.692C1100.69 133.55 1101.2 133.115 1101.47 132.386C1108.94 108.657 1115.22 89.2036 1120.32 74.0274L1120.33 74.0179ZM1125.88 73.1569C1125.18 73.1758 1124.73 73.4313 1124.55 73.9138C1117.79 93.8871 1111.58 112.952 1105.92 131.109C1105.87 131.232 1105.92 131.383 1106.05 131.572C1106.19 131.762 1106.4 131.847 1106.69 131.809C1118.38 128.507 1130.39 123.076 1142.76 115.507C1155.12 107.947 1166.79 98.7787 1177.78 88.002C1178.42 87.4059 1178.37 86.9707 1177.64 86.6963C1173.38 84.2836 1168.75 82.1548 1163.73 80.3003C1151.25 75.6737 1138.63 73.2894 1125.87 73.1474L1125.88 73.1569Z" fill="#E9562A"/>
<path d="M1078.28 263.854L881.569 324.308C876.187 325.963 870.749 323.182 869.406 318.113L836.682 193.801C835.349 188.722 838.621 183.274 844.002 181.619L1040.71 121.165C1046.1 119.51 1051.53 122.291 1052.88 127.36L1085.6 251.672C1086.93 256.751 1083.66 262.199 1078.28 263.854Z" fill="#F6CE52"/>
<path d="M878.448 326.199C876.528 326.199 874.636 325.736 872.99 324.818C870.513 323.438 868.753 321.187 868.044 318.472L835.32 194.16C833.798 188.362 837.505 182.13 843.596 180.257L1040.31 119.803C1043.36 118.867 1046.64 119.17 1049.3 120.654C1051.78 122.035 1053.54 124.286 1054.25 127.001L1086.97 251.313C1088.49 257.111 1084.79 263.343 1078.7 265.216L881.985 325.67C880.821 326.029 879.62 326.209 878.438 326.209L878.448 326.199ZM1043.85 122.111C1042.96 122.111 1042.04 122.243 1041.14 122.518L844.428 182.971C839.775 184.4 836.919 189.1 838.063 193.441L870.787 317.754C871.307 319.711 872.574 321.338 874.371 322.341C876.357 323.447 878.835 323.674 881.152 322.955L1077.86 262.501C1082.52 261.073 1085.37 256.373 1084.23 252.032L1051.51 127.719C1050.98 125.762 1049.72 124.135 1047.92 123.132C1046.7 122.451 1045.29 122.102 1043.84 122.102L1043.85 122.111Z" fill="#E9562A"/>
<path d="M980.184 292.596C980.184 292.596 1006.22 274.248 1032.46 264.251C1039.32 261.631 1055.59 256.789 1065.91 253.772C1070.93 252.306 1073.99 247.142 1072.71 242.3L1039.96 118.139C1038.77 113.656 1033.73 111.499 1029.34 113.599L943.394 154.759L980.184 292.596Z" fill="#F6CE52"/>
<path d="M979.333 294.923L941.71 153.984L1028.71 112.313C1031.27 111.083 1034.16 111.045 1036.64 112.19C1038.96 113.268 1040.67 115.301 1041.32 117.77L1074.07 241.931C1075.55 247.53 1072.06 253.441 1066.3 255.124C1056.83 257.886 1039.9 262.918 1032.95 265.566C1007.2 275.383 981.253 293.561 980.988 293.75L979.324 294.923H979.333ZM945.068 155.525L981.036 290.288C987.221 286.099 1009.64 271.43 1031.95 262.918C1038.99 260.232 1056 255.181 1065.51 252.401C1069.82 251.143 1072.43 246.773 1071.34 242.65L1038.59 118.489C1038.14 116.815 1037.03 115.491 1035.46 114.762C1033.74 113.968 1031.74 114.015 1029.95 114.866L945.068 155.516V155.525Z" fill="#E9562A"/>
<path d="M850.424 169.74C845.658 170.459 842.423 175.159 843.615 179.642L876.367 303.803C877.644 308.646 882.76 311.294 887.744 309.677C897.987 306.357 914.179 301.212 921.282 299.528C948.454 293.088 979.532 293.854 979.532 293.854L943.545 155.771L850.434 169.74H850.424Z" fill="#F6CE52"/>
<path d="M884.765 311.587C883.035 311.587 881.342 311.162 879.809 310.329C877.407 309.015 875.695 306.83 874.995 304.182L842.243 180.021C841.591 177.552 842.054 174.866 843.511 172.653C845.043 170.326 847.483 168.756 850.216 168.35L944.595 154.192L981.385 295.329L979.503 295.282C979.191 295.282 948.293 294.601 921.613 300.919C914.415 302.621 897.581 307.993 888.18 311.039C887.045 311.407 885.9 311.587 884.765 311.587ZM850.632 171.14C848.694 171.433 846.963 172.549 845.875 174.195C844.863 175.736 844.532 177.59 844.977 179.273L877.729 303.435C878.23 305.326 879.45 306.887 881.162 307.823C883.006 308.835 885.191 309.005 887.3 308.324C898.829 304.588 914.018 299.784 920.951 298.148C944.179 292.643 970.518 292.36 977.687 292.407L942.486 157.36L850.632 171.14Z" fill="#E9562A"/>
<path d="M976.505 126.547C949.144 144.885 944.368 153.161 943.545 155.771C941.578 154.021 933.473 149.709 901.278 149.709C881.077 149.709 866.9 153.634 859.04 156.622C854.86 158.211 852.514 162.694 853.602 166.827L885.427 287.46C886.439 291.281 890.185 293.646 894.232 292.955C900.371 291.896 911.918 290.459 933.558 288.926C957.325 287.233 975.323 292.492 979.541 293.873C979.541 293.873 979.825 294.27 980.014 294.034C980.298 294.128 980.487 294.194 980.487 294.194C980.487 294.194 995.979 275.336 1017 263.239C1034.24 253.318 1044.49 247.984 1050.54 245.128C1055.38 242.839 1057.96 237.505 1056.66 232.577L1026.04 116.512C1024.52 110.733 1018.53 107.546 1012.52 109.239C1004.16 111.594 991.562 116.474 976.505 126.575V126.547Z" fill="#F6CE52"/>
<path d="M980.95 295.849L979.986 295.509C979.929 295.509 979.882 295.509 979.825 295.509C979.38 295.5 979.03 295.31 978.775 295.102C973.564 293.438 956.37 288.718 933.652 290.326C911.323 291.915 900.021 293.39 894.459 294.346C889.712 295.169 885.238 292.36 884.046 287.82L852.221 167.187C850.944 162.344 853.716 157.123 858.53 155.289C866.937 152.092 881.171 148.281 901.25 148.281H901.278C928.224 148.281 938.797 151.26 942.94 153.624C945.257 149.311 952.729 140.781 975.72 125.364C991.165 115.008 1004.06 110.119 1012.14 107.839C1015.53 106.884 1019 107.281 1021.91 108.946C1024.65 110.516 1026.6 113.06 1027.42 116.115L1058.03 232.18C1059.52 237.817 1056.62 243.785 1051.15 246.376C1043.52 249.979 1032.27 256.051 1017.7 264.44C997.161 276.262 981.726 294.885 981.575 295.064L980.941 295.831L980.95 295.849ZM979.522 292.35L980.033 292.52C983.192 288.86 997.672 272.706 1016.29 261.991C1030.93 253.573 1042.25 247.454 1049.94 243.822C1054.11 241.855 1056.4 237.164 1055.29 232.918L1024.67 116.852C1024.06 114.535 1022.58 112.606 1020.5 111.424C1018.25 110.137 1015.55 109.835 1012.91 110.582C1005.01 112.805 992.423 117.59 977.29 127.729C949.721 146.209 945.522 154.192 944.898 156.197L944.245 158.287L942.609 156.83C941.105 155.497 933.681 151.127 901.278 151.127H901.25C881.606 151.127 867.722 154.835 859.542 157.946C856.071 159.27 854.056 163.006 854.973 166.468L886.799 287.101C887.622 290.203 890.705 292.123 893.996 291.556C902.167 290.146 915.446 288.785 933.463 287.508C956.502 285.862 974.027 290.629 979.532 292.369L979.522 292.35Z" fill="#E9562A"/>
<path d="M944.913 155.379L942.17 156.103L978.166 292.534L980.909 291.811L944.913 155.379Z" fill="#E9562A"/>
<path d="M902.413 273.794C897.675 273.794 893.542 270.664 892.294 265.916L870.995 185.185C869.434 179.255 872.99 172.984 878.93 171.206C886.647 168.898 895.32 167.782 904.721 167.877C921.423 168.057 929.094 169.863 932.584 171.338C933.974 171.925 935.005 173.145 935.411 174.658L959.774 267.022C960.257 268.838 959.746 270.73 958.422 272.101C957.136 273.435 955.31 273.983 953.551 273.576C947.905 272.271 938.93 270.862 928.28 271.524C917.82 272.177 909.611 272.905 903.879 273.681C903.388 273.747 902.896 273.785 902.413 273.785V273.794ZM903.586 170.714C894.999 170.714 886.78 171.821 879.743 173.93C875.26 175.273 872.565 180.002 873.747 184.466L895.046 265.197C896.058 269.018 899.614 271.411 903.51 270.881C909.308 270.096 917.593 269.368 928.11 268.706C939.1 268.015 948.359 269.472 954.194 270.824C954.989 271.004 955.793 270.758 956.389 270.143C957.013 269.5 957.259 268.611 957.032 267.769L932.669 175.405C932.489 174.743 932.063 174.214 931.477 173.968C928.214 172.587 920.922 170.903 904.683 170.724C904.314 170.724 903.946 170.724 903.577 170.724L903.586 170.714Z" fill="#E9562A"/>
<path d="M939.271 201.675L878.707 203.885L878.81 206.721L939.375 204.511L939.271 201.675Z" fill="#E9562A"/>
<path d="M892.494 169.673L889.734 170.332L898.028 205.039L900.787 204.38L892.494 169.673Z" fill="#E9562A"/>
<path d="M951.926 238.47L888.319 242.038L888.478 244.871L952.085 241.303L951.926 238.47Z" fill="#E9562A"/>
<path d="M929.261 241.898L919.075 269.289L921.734 270.278L931.921 242.887L929.261 241.898Z" fill="#E9562A"/>
<path d="M985.831 263.485C985.405 263.485 984.97 263.428 984.544 263.315C982.776 262.861 981.442 261.518 980.969 259.73L956.606 167.366C956.209 165.872 956.483 164.292 957.353 163.035C959.595 159.8 965.222 153.917 979.305 144.261C987.23 138.823 995.146 134.841 1002.83 132.41C1005.74 131.493 1008.77 131.767 1011.38 133.205C1013.94 134.614 1015.76 136.979 1016.53 139.854L1037.83 220.585C1039.19 225.758 1036.68 231.253 1031.85 233.646C1026.59 236.256 1019.26 240.314 1010.06 245.714C1000.67 251.218 993.728 257.536 989.566 261.868C988.554 262.927 987.221 263.495 985.84 263.495L985.831 263.485ZM980.912 146.606C967.189 156.017 961.798 161.616 959.689 164.652C959.292 165.229 959.169 165.957 959.349 166.647L983.712 259.012C983.92 259.806 984.487 260.374 985.254 260.572C986.057 260.78 986.899 260.525 987.514 259.891C991.808 255.437 998.958 248.93 1008.62 243.264C1017.88 237.836 1025.28 233.741 1030.58 231.102C1034.22 229.305 1036.11 225.181 1035.08 221.304L1013.78 140.572C1013.22 138.454 1011.88 136.723 1010 135.683C1008.08 134.624 1005.84 134.425 1003.68 135.106C996.366 137.414 988.488 141.395 980.903 146.597L980.912 146.606Z" fill="#E9562A"/>
<path d="M1018.97 160.023L966.421 192.64L967.918 195.05L1020.46 162.434L1018.97 160.023Z" fill="#E9562A"/>
<path d="M1029.42 197.96L973.639 231.171L975.091 233.609L1030.87 200.398L1029.42 197.96Z" fill="#E9562A"/>
<path d="M1009.03 204.838C1007.78 204.838 1006.51 204.488 1005.28 203.797C1002.13 202.048 999.525 198.284 998.324 193.725C996.329 186.159 998.693 179.018 1003.71 177.467C1005.54 176.9 1007.51 177.164 1009.4 178.214C1012.55 179.964 1015.15 183.728 1016.35 188.287C1018.35 195.853 1015.98 202.993 1010.97 204.545C1010.34 204.743 1009.69 204.838 1009.03 204.838ZM1005.64 180.021C1005.29 180.021 1004.92 180.068 1004.54 180.181C1001.1 181.241 999.506 187.114 1001.06 192.997C1002.05 196.77 1004.2 199.958 1006.65 201.319C1007.49 201.783 1008.77 202.256 1010.13 201.83C1013.57 200.771 1015.16 194.898 1013.61 189.015C1012.61 185.241 1010.48 182.054 1008.03 180.692C1007.42 180.352 1006.57 180.011 1005.64 180.011V180.021Z" fill="#E9562A"/>
<path d="M984.573 220.878C983.305 220.878 982.038 220.547 980.875 219.894C978.718 218.693 977.082 216.518 976.401 213.917C975.096 208.98 977.546 203.882 981.849 202.549C983.778 201.953 985.849 202.19 987.684 203.211C989.841 204.412 991.467 206.587 992.158 209.188C993.463 214.125 991.023 219.223 986.72 220.556C986.02 220.774 985.301 220.878 984.582 220.878H984.573ZM983.986 205.065C983.551 205.065 983.107 205.131 982.681 205.263C979.815 206.143 978.227 209.708 979.144 213.189C979.636 215.043 980.771 216.584 982.256 217.407C983.428 218.06 984.677 218.201 985.878 217.833C988.744 216.953 990.332 213.397 989.415 209.907C988.923 208.053 987.798 206.512 986.303 205.689C985.556 205.273 984.771 205.065 983.986 205.065Z" fill="#E9562A"/>
<path d="M924.781 197.915C923.665 197.915 922.521 197.603 921.423 196.988C918.775 195.522 916.619 192.429 915.635 188.722C913.971 182.413 916.099 176.417 920.478 175.065C922.142 174.554 923.911 174.781 925.604 175.727C928.252 177.193 930.408 180.285 931.392 183.993C933.056 190.301 930.928 196.297 926.55 197.65C925.973 197.83 925.377 197.915 924.781 197.915ZM922.227 177.647C921.934 177.647 921.622 177.685 921.31 177.789C918.492 178.659 917.149 183.34 918.378 188.003C919.163 190.982 920.818 193.413 922.795 194.51C923.495 194.898 924.563 195.285 925.708 194.935C928.526 194.065 929.869 189.384 928.64 184.721C927.855 181.742 926.2 179.311 924.223 178.214C923.712 177.93 923.012 177.647 922.227 177.647Z" fill="#E9562A"/>
<path d="M899.586 237.457L892.7 211.373L911.673 210.2L917.697 236.266L899.586 237.457ZM896.323 213.993L901.723 234.478L914.179 233.655L909.45 213.179L896.323 213.993Z" fill="#E9562A"/>
<path d="M691.825 340C685.483 340 680.325 334.842 680.325 328.5C680.325 322.158 685.483 317 691.825 317C698.166 317 703.325 322.158 703.325 328.5C703.325 334.842 698.166 340 691.825 340ZM691.825 319.809C687.033 319.809 683.143 323.708 683.143 328.491C683.143 333.273 687.042 337.172 691.825 337.172C696.607 337.172 700.506 333.273 700.506 328.491C700.506 323.708 696.607 319.809 691.825 319.809Z" fill="#E9562A"/>
<path d="M1190.53 362.356C1181.91 362.356 1171.93 360.748 1161.56 357.4C1134.35 348.614 1116.26 331.628 1120.32 318.699L1148.05 164.926L1287.38 209.917L1217.64 350.137C1214.99 358.1 1204.55 362.356 1190.52 362.356H1190.53ZM1150.27 168.634L1123.08 319.39L1123.05 319.484C1119.49 330.531 1137.52 346.656 1162.43 354.705C1187.35 362.753 1211.42 360.209 1214.98 349.163L1215.06 348.964L1283.38 211.609L1150.27 168.634Z" fill="#E9562A"/>
<path d="M1241.64 260.317C1229.88 260.317 1214.08 257.99 1199.12 254.396C1171.23 247.691 1142.76 235.727 1144.92 226.751C1147.08 217.785 1177.88 220.074 1205.77 226.78C1233.66 233.485 1262.13 245.449 1259.97 254.425C1258.97 258.586 1251.81 260.317 1241.64 260.317ZM1163.27 223.678C1153.78 223.678 1148.21 225.162 1147.67 227.413C1146.56 232.029 1165.85 243.473 1199.78 251.635C1233.72 259.797 1256.09 258.368 1257.21 253.753C1258.32 249.138 1239.03 237.694 1205.1 229.532C1187.67 225.342 1173.28 223.678 1163.27 223.678Z" fill="#E9562A"/>
<path d="M1153.01 292.255C1152.16 292.255 1151.3 292.123 1150.46 291.83C1148.46 291.149 1146.83 289.721 1145.89 287.82C1144.96 285.919 1144.82 283.762 1145.5 281.757C1146.18 279.752 1147.61 278.126 1149.51 277.189C1151.41 276.253 1153.56 276.111 1155.57 276.792C1157.57 277.473 1159.19 278.901 1160.14 280.802C1161.07 282.703 1161.21 284.86 1160.53 286.865C1159.41 290.165 1156.32 292.246 1153.01 292.246L1153.01 292.255ZM1153.01 279.213C1152.24 279.213 1151.47 279.393 1150.75 279.743C1149.53 280.348 1148.62 281.389 1148.18 282.675C1147.75 283.961 1147.83 285.351 1148.44 286.571C1149.04 287.791 1150.08 288.709 1151.37 289.144C1154.03 290.052 1156.93 288.624 1157.84 285.957C1158.27 284.67 1158.19 283.28 1157.58 282.06C1156.98 280.84 1155.94 279.923 1154.65 279.488C1154.11 279.308 1153.55 279.213 1153.01 279.213Z" fill="#E9562A"/>
<path d="M1173.72 346.666C1172.86 346.666 1172 346.524 1171.15 346.24C1167.01 344.831 1164.79 340.31 1166.2 336.168C1167.61 332.025 1172.13 329.803 1176.27 331.212C1178.28 331.893 1179.89 333.321 1180.84 335.222C1181.78 337.123 1181.92 339.279 1181.24 341.284C1180.56 343.289 1179.13 344.916 1177.23 345.853C1176.12 346.401 1174.93 346.675 1173.73 346.675L1173.72 346.666ZM1173.72 333.633C1171.59 333.633 1169.6 334.967 1168.88 337.085C1167.98 339.743 1169.41 342.646 1172.07 343.554C1173.37 343.989 1174.75 343.904 1175.97 343.299C1177.19 342.694 1178.11 341.653 1178.54 340.367C1178.98 339.081 1178.89 337.69 1178.29 336.47C1177.68 335.25 1176.64 334.333 1175.35 333.898C1174.81 333.718 1174.26 333.624 1173.72 333.624V333.633Z" fill="#E9562A"/>
<path d="M1233.6 297.949C1232.74 297.949 1231.88 297.807 1231.04 297.523C1229.04 296.843 1227.42 295.414 1226.47 293.513C1225.54 291.612 1225.39 289.456 1226.08 287.451C1227.49 283.308 1232.01 281.086 1236.15 282.495C1240.29 283.904 1242.51 288.425 1241.1 292.568C1240.42 294.573 1239 296.199 1237.09 297.136C1235.99 297.684 1234.8 297.959 1233.59 297.959L1233.6 297.949ZM1233.6 284.916C1231.48 284.916 1229.49 286.25 1228.77 288.368C1228.34 289.655 1228.42 291.045 1229.03 292.265C1229.63 293.485 1230.67 294.402 1231.96 294.837C1233.24 295.273 1234.63 295.187 1235.86 294.582C1237.08 293.977 1237.99 292.936 1238.43 291.65C1239.34 288.993 1237.91 286.089 1235.24 285.181C1234.7 285.001 1234.14 284.907 1233.6 284.907V284.916Z" fill="#E9562A"/>
<path d="M1139.43 326.757C1138.57 326.757 1137.71 326.615 1136.87 326.332C1134.87 325.651 1133.25 324.223 1132.3 322.322C1131.37 320.421 1131.22 318.264 1131.91 316.259C1133.31 312.117 1137.84 309.894 1141.98 311.303C1146.12 312.713 1148.34 317.233 1146.93 321.376C1146.25 323.381 1144.82 325.008 1142.92 325.944C1141.82 326.492 1140.63 326.767 1139.42 326.767L1139.43 326.757ZM1139.43 313.725C1137.31 313.725 1135.32 315.058 1134.6 317.177C1134.17 318.463 1134.25 319.853 1134.86 321.073C1135.46 322.293 1136.5 323.211 1137.79 323.646C1139.07 324.081 1140.46 323.996 1141.68 323.39C1142.9 322.785 1143.82 321.745 1144.26 320.458C1145.17 317.801 1143.74 314.897 1141.07 313.989C1140.53 313.81 1139.97 313.715 1139.43 313.715V313.725Z" fill="#E9562A"/>
<path d="M1285.02 211.385C1288.89 199.385 1261.57 179.825 1224 167.696C1186.42 155.567 1152.82 155.462 1148.95 167.462C1145.08 179.462 1172.4 199.021 1209.97 211.15C1247.55 223.279 1281.15 223.384 1285.02 211.385Z" fill="#F6CE52"/>
<path d="M1260.24 221.767C1246.51 221.767 1228.68 218.703 1209.59 212.536C1191.28 206.625 1174.79 198.775 1163.14 190.443C1151.08 181.799 1145.57 173.495 1147.65 167.054C1151.83 154.116 1185.59 153.813 1224.5 166.383C1263.41 178.942 1290.61 198.927 1286.44 211.865C1284.31 218.457 1274.5 221.767 1260.25 221.767H1260.24ZM1173.85 159.97C1160.56 159.97 1151.97 162.921 1150.36 167.915C1148.71 173.012 1153.98 180.371 1164.8 188.126C1176.21 196.297 1192.43 204.005 1210.46 209.831C1250.35 222.713 1280.55 220.821 1283.73 210.985C1286.91 201.14 1263.51 181.95 1223.63 169.069C1204 162.732 1186.72 159.97 1173.85 159.97Z" fill="#E9562A"/>
<path d="M1192.68 328.791C1191.14 328.791 1188.47 328.148 1183.73 325.963C1181.39 324.875 1179.24 323.693 1177.7 322.615C1176.64 321.877 1174.44 320.345 1175.22 318.633L1225.1 214.059L1245.51 217.993L1194.84 327.684C1194.68 328.044 1194.34 328.781 1192.68 328.781V328.791ZM1178.05 319.286C1178.8 320.023 1181.1 321.631 1184.92 323.39C1188.74 325.159 1191.46 325.878 1192.5 325.963L1241.41 220.103L1226.71 217.265L1178.05 319.286Z" fill="#E9562A"/>
<path d="M1250.3 204.686C1248.85 204.686 1246.2 204.005 1241.15 201.679C1238.82 200.601 1236.67 199.447 1235.12 198.435C1233.49 197.376 1231.82 196.127 1232.52 194.623L1274.68 103.347L1294.29 112.407L1293.7 113.694L1252.12 203.674C1251.94 204.072 1251.66 204.677 1250.3 204.677V204.686ZM1235.4 195.134C1236.21 195.825 1238.43 197.281 1242.34 199.097C1246.26 200.913 1248.81 201.65 1249.86 201.821L1290.53 113.798L1276.07 107.12L1235.4 195.144V195.134Z" fill="#E9562A"/>
<path d="M1292.45 113.124C1292.76 112.441 1289.21 110.126 1284.5 107.952C1279.8 105.779 1275.73 104.571 1275.42 105.253C1275.1 105.936 1278.66 108.252 1283.36 110.425C1288.06 112.598 1292.13 113.807 1292.45 113.124Z" fill="#F6CE52"/>
<path d="M1291.87 114.696C1290.43 114.696 1287.78 114.015 1282.73 111.689C1280.39 110.61 1278.24 109.457 1276.69 108.445C1275.07 107.385 1273.39 106.137 1274.09 104.633C1274.47 103.82 1275.26 102.108 1285.06 106.638C1287.4 107.716 1289.55 108.87 1291.1 109.882C1292.72 110.941 1294.4 112.19 1293.71 113.694C1293.53 114.091 1293.24 114.696 1291.88 114.696H1291.87Z" fill="#E9562A"/>
<path d="M1184.08 303.945C1187.68 303.945 1190.6 301.028 1190.6 297.429C1190.6 293.83 1187.68 290.913 1184.08 290.913C1180.48 290.913 1177.57 293.83 1177.57 297.429C1177.57 301.028 1180.48 303.945 1184.08 303.945Z" fill="#F6CE52"/>
<path d="M1184.07 305.373C1183.23 305.373 1182.37 305.241 1181.52 304.948C1177.38 303.539 1175.16 299.018 1176.56 294.875C1177.25 292.87 1178.67 291.244 1180.57 290.307C1182.48 289.371 1184.63 289.229 1186.64 289.91C1188.64 290.591 1190.26 292.019 1191.21 293.92C1192.14 295.821 1192.28 297.977 1191.6 299.982C1190.48 303.283 1187.38 305.364 1184.08 305.364L1184.07 305.373ZM1184.07 292.331C1183.31 292.331 1182.54 292.511 1181.82 292.861C1180.6 293.466 1179.69 294.506 1179.25 295.793C1178.34 298.45 1179.77 301.354 1182.44 302.262C1185.1 303.17 1188 301.742 1188.91 299.075C1189.34 297.788 1189.26 296.398 1188.65 295.178C1188.05 293.958 1187.01 293.041 1185.72 292.605C1185.18 292.426 1184.62 292.331 1184.07 292.331Z" fill="#E9562A"/>
<path d="M789.933 131.638L642.867 95.1608C639.182 94.2466 635.453 96.4934 634.539 100.179L606.019 215.163C605.105 218.848 607.352 222.577 611.037 223.491L758.104 259.968C761.789 260.882 765.518 258.636 766.432 254.95L794.952 139.966C795.866 136.281 793.619 132.552 789.933 131.638Z" fill="#F6CE52"/>
<path d="M759.753 261.584C759.091 261.584 758.429 261.508 757.757 261.338L610.699 224.869C608.552 224.34 606.736 222.997 605.592 221.096C604.448 219.195 604.117 216.963 604.646 214.816L633.161 99.8475C633.691 97.7006 635.034 95.8847 636.935 94.7403C638.836 93.5959 641.068 93.2649 643.215 93.7945L790.273 130.264C794.718 131.361 797.433 135.872 796.326 140.317L767.811 255.295C766.875 259.068 763.479 261.594 759.753 261.594V261.584ZM758.438 258.586C761.361 259.314 764.331 257.527 765.049 254.604L793.564 139.627C794.293 136.704 792.505 133.735 789.583 133.016L642.524 96.5467C641.106 96.1968 639.64 96.4143 638.391 97.1709C637.143 97.9276 636.263 99.1192 635.913 100.538L607.398 215.506C607.048 216.925 607.266 218.391 608.023 219.639C608.779 220.888 609.971 221.767 611.39 222.117L758.448 258.586H758.438Z" fill="#E9562A"/>
<path d="M629.761 127.814L629.078 130.568L787.554 169.875L788.237 167.121L629.761 127.814Z" fill="#E9562A"/>
<path d="M639.831 113.642L639.148 116.396L664.171 122.603L664.854 119.849L639.831 113.642Z" fill="#E9562A"/>
<path d="M759.481 143.325L758.798 146.079L783.821 152.285L784.504 149.531L759.481 143.325Z" fill="#E9562A"/>
<path d="M721.922 182.366L714.526 169.163L823.12 111.925L829.173 122.716L725.308 183.284C724.126 183.974 722.603 183.558 721.932 182.366H721.922Z" fill="#F6CE52"/>
<path d="M724.078 185.043C723.738 185.043 723.388 184.995 723.057 184.901C722.045 184.627 721.213 183.974 720.693 183.057L712.578 168.586L823.678 110.024L831.083 123.236L726.017 184.504C725.412 184.854 724.75 185.033 724.069 185.033L724.078 185.043ZM723.161 181.676C723.293 181.922 723.52 182.092 723.795 182.168C724.069 182.243 724.343 182.205 724.589 182.064L827.253 122.196L822.562 113.826L716.474 169.74L723.161 181.676Z" fill="#E9562A"/>
<path d="M711.036 189.346C705.702 189.346 701.446 187.965 701.153 187.871L699.923 187.464L700.217 186.206C700.33 185.705 703.177 173.864 712.313 168.738C712.843 168.444 713.363 168.17 713.892 167.905L715.103 167.3L725.053 185.043L723.899 185.762C723.397 186.074 722.887 186.376 722.367 186.669C718.697 188.731 714.621 189.355 711.036 189.355V189.346ZM703.357 185.535C706.487 186.301 714.602 187.757 720.976 184.182C721.061 184.135 721.147 184.087 721.241 184.031L713.968 171.055C713.883 171.102 713.788 171.149 713.703 171.197C707.329 174.772 704.331 182.451 703.357 185.525V185.535Z" fill="#E9562A"/>
<path d="M700.904 185.268L692.2 190.146L693.588 192.621L702.292 187.743L700.904 185.268Z" fill="#E9562A"/>
<path d="M748.128 159.549L732.288 168.427L733.675 170.902L749.515 162.024L748.128 159.549Z" fill="#E9562A"/>
<path d="M648.36 195.475C647.821 194.983 647.622 194.586 647.603 194.028C647.575 193.224 647.745 192.628 648.133 191.937C649.031 190.311 650.318 189.507 652.294 189.516C654.848 189.535 657.269 190.925 659.236 192.439C661.61 194.255 663.653 196.524 665.715 198.681C669.744 202.871 674.057 206.956 679.75 208.687C684.687 210.191 690.626 209.557 694.097 205.396C697.568 201.234 698.372 195.125 694.334 191.266C692.13 189.166 688.782 192.505 690.986 194.614C692.187 195.768 692.499 197.272 692.206 198.775C691.856 200.544 690.967 202.161 689.567 203.268C685.69 206.36 679.769 204.185 676.109 201.745C671.285 198.52 667.852 193.621 663.483 189.857C659.113 186.093 653.174 183.019 647.755 185.847C643.281 188.183 640.888 195.068 645.002 198.832C647.244 200.884 650.592 197.546 648.35 195.484L648.36 195.475Z" fill="#E9562A"/>
<path d="M363.491 224.915C324.979 206.435 311.7 247.198 310.669 250.612C309.686 250.546 308.683 250.716 307.728 251.151L296.729 256.182L291.536 258.556L280.537 263.588C279.582 264.023 278.797 264.676 278.201 265.461C274.948 264.013 235.433 247.368 224.207 288.585C212.489 331.58 276.811 445.961 296.284 344.726L358.762 316.173C448.052 367.708 403.667 244.218 363.491 224.934V224.915Z" fill="#F6CE52"/>
<path d="M270.871 386.794C265.31 386.794 259.295 383.815 253.223 377.998C234.052 359.612 215.894 313.648 222.835 288.197C226.269 275.609 232.634 267.031 241.76 262.699C256.231 255.833 273.283 261.895 277.813 263.739C278.428 263.134 279.156 262.642 279.941 262.283L307.132 249.855C307.917 249.496 308.768 249.278 309.62 249.203C311.19 244.568 317.772 227.705 332.432 221.255C341.681 217.188 352.331 217.983 364.096 223.629C387.882 235.044 410.761 278.853 412.104 305.382C412.652 316.126 409.739 323.767 403.686 327.475C394.711 332.97 379.569 329.688 358.677 317.743L297.523 345.69C292.889 369.306 285.455 382.897 275.42 386.084C273.945 386.557 272.413 386.794 270.862 386.794H270.871ZM257.035 262.321C252.419 262.321 247.549 263.087 242.98 265.252C234.629 269.215 228.775 277.179 225.578 288.925C219.052 312.863 236.729 358.231 255.19 375.936C260.052 380.599 267.362 385.668 274.579 383.38C283.516 380.533 290.534 367.065 294.894 344.433L295.036 343.714L358.847 314.556L359.481 314.924C379.446 326.444 394.228 329.953 402.22 325.054C408.68 321.1 409.626 312.257 409.285 305.533C407.989 279.988 385.253 236.927 362.886 226.192C351.905 220.924 342.05 220.139 333.595 223.856C318.661 230.429 312.674 248.928 312.041 251.019L311.71 252.097L310.584 252.021C309.79 251.964 309.043 252.106 308.324 252.437L281.133 264.865C280.424 265.186 279.818 265.669 279.345 266.302L278.664 267.201L277.634 266.747C276.262 266.132 267.306 262.33 257.044 262.33L257.035 262.321Z" fill="#E9562A"/>
<path d="M257.583 308.181C264.687 308.181 270.446 302.422 270.446 295.319C270.446 288.215 264.687 282.456 257.583 282.456C250.479 282.456 244.721 288.215 244.721 295.319C244.721 302.422 250.479 308.181 257.583 308.181Z" fill="#F6CE52"/>
<path d="M257.593 309.609C255.909 309.609 254.226 309.307 252.599 308.701C249.024 307.368 246.177 304.72 244.598 301.249C243.009 297.778 242.876 293.9 244.2 290.325C245.534 286.75 248.182 283.903 251.653 282.324C255.124 280.735 259.002 280.602 262.577 281.926C266.152 283.26 268.999 285.908 270.578 289.379C272.167 292.85 272.299 296.728 270.975 300.303C269.642 303.878 266.994 306.725 263.523 308.304C261.631 309.174 259.617 309.6 257.593 309.6V309.609ZM257.583 283.865C255.966 283.865 254.349 284.215 252.826 284.906C250.045 286.173 247.927 288.452 246.858 291.318C245.789 294.184 245.903 297.295 247.17 300.076C248.438 302.856 250.717 304.975 253.583 306.044C256.448 307.112 259.56 306.999 262.34 305.732C265.121 304.464 267.24 302.185 268.308 299.319C269.377 296.454 269.263 293.342 267.996 290.561C266.729 287.781 264.449 285.662 261.584 284.594C260.279 284.111 258.926 283.865 257.583 283.865Z" fill="#E9562A"/>
<path d="M344.188 305.391C351.291 305.391 357.05 299.632 357.05 292.529C357.05 285.425 351.291 279.666 344.188 279.666C337.084 279.666 331.325 285.425 331.325 292.529C331.325 299.632 337.084 305.391 344.188 305.391Z" fill="#F6CE52"/>
<path d="M344.188 306.819C342.504 306.819 340.821 306.517 339.194 305.911C335.619 304.578 332.772 301.93 331.193 298.459C329.604 294.988 329.471 291.11 330.795 287.535C332.129 283.96 334.777 281.113 338.248 279.534C341.719 277.945 345.597 277.812 349.172 279.136C352.747 280.47 355.594 283.118 357.173 286.589C358.762 290.06 358.894 293.938 357.57 297.513C356.246 301.088 353.589 303.935 350.118 305.514C348.226 306.384 346.212 306.81 344.188 306.81V306.819ZM344.178 281.075C342.561 281.075 340.944 281.425 339.421 282.116C336.64 283.383 334.522 285.662 333.453 288.528C332.384 291.394 332.498 294.505 333.765 297.286C335.033 300.066 337.312 302.185 340.178 303.254C343.043 304.322 346.155 304.209 348.935 302.941C351.716 301.674 353.835 299.395 354.903 296.529C355.972 293.663 355.858 290.552 354.591 287.771C353.324 284.991 351.044 282.872 348.179 281.803C346.874 281.321 345.521 281.075 344.178 281.075Z" fill="#E9562A"/>
<path d="M295.386 310.319L290.297 312.645L287.971 307.557C287.035 305.505 284.585 304.587 282.523 305.523C280.461 306.46 279.553 308.909 280.49 310.971L282.816 316.059L277.728 318.386C275.676 319.322 274.758 321.772 275.695 323.834C276.631 325.886 279.081 326.803 281.142 325.867L286.231 323.54L288.557 328.629C289.494 330.681 291.943 331.598 294.005 330.662C296.067 329.726 296.975 327.276 296.038 325.214L293.712 320.126L298.8 317.8C300.852 316.863 301.77 314.414 300.833 312.352C299.897 310.29 297.447 309.382 295.386 310.319Z" fill="#F6CE52"/>
<path d="M292.312 332.431C291.659 332.431 291.007 332.317 290.373 332.081C288.983 331.561 287.886 330.539 287.271 329.206L285.54 325.413L281.748 327.144C278.977 328.411 275.695 327.182 274.427 324.411C273.16 321.639 274.39 318.358 277.161 317.09L280.953 315.36L279.222 311.567C277.955 308.796 279.185 305.514 281.956 304.247C284.727 302.979 288.009 304.209 289.276 306.98L291.007 310.772L294.799 309.042C296.142 308.427 297.637 308.38 299.027 308.89C300.417 309.411 301.514 310.432 302.129 311.766C303.396 314.537 302.167 317.819 299.396 319.086L295.603 320.817L297.334 324.609C298.601 327.38 297.372 330.662 294.601 331.929C293.872 332.26 293.097 332.431 292.312 332.431ZM286.94 321.649L289.853 328.023C290.146 328.676 290.685 329.168 291.366 329.423C292.038 329.678 292.775 329.65 293.419 329.357C294.771 328.742 295.367 327.144 294.743 325.791L291.83 319.417L298.204 316.504C299.557 315.889 300.152 314.291 299.528 312.938C298.904 311.586 297.315 310.99 295.963 311.614L289.588 314.527L286.675 308.153C286.06 306.8 284.462 306.204 283.11 306.829C281.757 307.443 281.161 309.042 281.786 310.394L284.698 316.769L278.324 319.682C276.972 320.296 276.376 321.895 277 323.247C277.615 324.6 279.213 325.196 280.565 324.571L286.94 321.658V321.649Z" fill="#E9562A"/>
<path d="M345.19 248.654C347.52 248.654 349.408 246.766 349.408 244.436C349.408 242.106 347.52 240.218 345.19 240.218C342.861 240.218 340.972 242.106 340.972 244.436C340.972 246.766 342.861 248.654 345.19 248.654Z" fill="#F6CE52"/>
<path d="M345.19 250.082C344.528 250.082 343.857 249.959 343.213 249.723C341.804 249.193 340.679 248.153 340.055 246.782C339.43 245.41 339.374 243.878 339.903 242.469C340.433 241.06 341.473 239.934 342.845 239.31C345.672 238.014 349.03 239.263 350.316 242.1C351.612 244.928 350.354 248.285 347.526 249.572C346.779 249.912 345.985 250.082 345.181 250.082H345.19ZM345.181 241.637C344.793 241.637 344.396 241.722 344.017 241.892C343.336 242.204 342.816 242.762 342.551 243.462C342.287 244.162 342.315 244.928 342.627 245.609C342.939 246.29 343.497 246.81 344.197 247.075C344.897 247.34 345.663 247.311 346.344 246.999C347.753 246.356 348.368 244.691 347.725 243.282C347.252 242.251 346.23 241.646 345.171 241.646L345.181 241.637Z" fill="#E9562A"/>
<path d="M339.809 261.961C342.138 261.961 344.027 260.073 344.027 257.743C344.027 255.413 342.138 253.525 339.809 253.525C337.479 253.525 335.591 255.413 335.591 257.743C335.591 260.073 337.479 261.961 339.809 261.961Z" fill="#F6CE52"/>
<path d="M339.809 263.389C339.147 263.389 338.475 263.266 337.832 263.03C336.423 262.5 335.297 261.46 334.673 260.089C334.049 258.717 333.992 257.185 334.522 255.776C335.051 254.367 336.092 253.241 337.463 252.617C340.291 251.321 343.649 252.57 344.935 255.407C346.23 258.235 344.973 261.592 342.145 262.879C341.398 263.219 340.603 263.389 339.799 263.389H339.809ZM339.799 254.944C339.411 254.944 339.014 255.029 338.636 255.199C337.227 255.842 336.612 257.507 337.255 258.916C337.567 259.597 338.125 260.117 338.825 260.382C339.525 260.647 340.291 260.618 340.972 260.306C342.381 259.663 342.996 257.998 342.353 256.589C341.88 255.558 340.858 254.953 339.799 254.953V254.944Z" fill="#E9562A"/>
<path d="M359.159 254.149C361.489 254.149 363.377 252.261 363.377 249.931C363.377 247.601 361.489 245.713 359.159 245.713C356.83 245.713 354.941 247.601 354.941 249.931C354.941 252.261 356.83 254.149 359.159 254.149Z" fill="#F6CE52"/>
<path d="M359.159 255.568C357.022 255.568 354.969 254.348 354.024 252.276C353.399 250.905 353.343 249.373 353.872 247.964C354.402 246.555 355.442 245.429 356.814 244.805C358.185 244.181 359.717 244.124 361.126 244.654C362.536 245.183 363.661 246.224 364.285 247.595C365.581 250.423 364.333 253.78 361.495 255.066C360.739 255.416 359.944 255.577 359.159 255.577V255.568ZM359.15 247.122C358.753 247.122 358.355 247.207 357.986 247.377C357.305 247.689 356.785 248.247 356.52 248.947C356.256 249.647 356.284 250.413 356.596 251.094C357.239 252.503 358.904 253.118 360.313 252.475C360.994 252.163 361.514 251.605 361.77 250.905C362.034 250.205 362.006 249.439 361.694 248.758C361.382 248.077 360.824 247.557 360.124 247.292C359.802 247.169 359.471 247.113 359.14 247.113L359.15 247.122Z" fill="#E9562A"/>
<path d="M353.778 267.447C356.107 267.447 357.996 265.558 357.996 263.229C357.996 260.899 356.107 259.01 353.778 259.01C351.448 259.01 349.56 260.899 349.56 263.229C349.56 265.558 351.448 267.447 353.778 267.447Z" fill="#F6CE52"/>
<path d="M353.787 268.875C351.65 268.875 349.597 267.655 348.652 265.583C348.027 264.212 347.971 262.68 348.5 261.271C349.03 259.862 350.07 258.736 351.442 258.112C354.27 256.816 357.627 258.065 358.913 260.902C360.209 263.73 358.961 267.087 356.123 268.374C355.367 268.723 354.572 268.884 353.787 268.884V268.875ZM353.768 260.429C353.381 260.429 352.983 260.514 352.605 260.684C351.924 260.997 351.404 261.555 351.139 262.254C350.874 262.954 350.903 263.72 351.215 264.401C351.858 265.81 353.522 266.425 354.932 265.782C356.341 265.139 356.956 263.474 356.312 262.065C355.84 261.034 354.818 260.429 353.759 260.429H353.768Z" fill="#E9562A"/>
<path d="M324.044 309.688L314.539 314.032C314.24 314.169 314.108 314.522 314.245 314.821L314.697 315.811C314.834 316.11 315.187 316.242 315.487 316.105L324.992 311.761C325.291 311.624 325.423 311.271 325.286 310.972L324.834 309.982C324.697 309.683 324.344 309.551 324.044 309.688Z" fill="#F6CE52"/>
<path d="M315.238 317.573C315.001 317.573 314.765 317.535 314.528 317.45C314.027 317.26 313.62 316.892 313.403 316.4L312.949 315.407C312.722 314.915 312.703 314.376 312.892 313.865C313.081 313.364 313.45 312.957 313.942 312.74L323.447 308.399C323.939 308.172 324.478 308.153 324.988 308.342C325.49 308.531 325.896 308.9 326.114 309.392L326.568 310.385C327.031 311.397 326.587 312.588 325.575 313.052L316.07 317.393C315.805 317.516 315.521 317.573 315.238 317.573Z" fill="#E9562A"/>
</svg>
