<svg width="1116" height="859" viewBox="0 0 1116 859" fill="none" xmlns="http://www.w3.org/2000/svg">
<path d="M556.184 446.971L411.584 503.798L388.03 499.915L373.918 471.942L385.488 450.574L385.767 450.381L510.508 363.846L556.189 446.984L556.184 446.971ZM411.278 500.865L552.149 445.506L509.541 367.958L387.664 452.504L377.118 471.981L389.908 497.338L411.269 500.861L411.278 500.865Z" fill="#E9562A"/>
<path d="M419.408 428.564L450.093 487.313L452.608 485.999L421.923 427.251L419.408 428.564Z" fill="#E9562A"/>
<path d="M459.644 400.598L495.708 469.352L498.221 468.034L462.157 399.28L459.644 400.598Z" fill="#E9562A"/>
<path d="M498.579 373.654L540.395 451.841L542.897 450.502L501.081 372.316L498.579 373.654Z" fill="#E9562A"/>
<path d="M385.297 452.153L410.147 502.948L412.696 501.702L387.846 450.906L385.297 452.153Z" fill="#E9562A"/>
<path d="M508.765 375.949L510.145 378.429L515.17 375.633L513.79 373.154L508.765 375.949Z" fill="#E9562A"/>
<path d="M511.651 381.28L513.03 383.759L518.055 380.964L516.676 378.484L511.651 381.28Z" fill="#E9562A"/>
<path d="M514.613 386.662L515.992 389.142L521.017 386.347L519.638 383.868L514.613 386.662Z" fill="#E9562A"/>
<path d="M517.477 391.982L518.856 394.461L523.881 391.666L522.502 389.186L517.477 391.982Z" fill="#E9562A"/>
<path d="M520.396 397.329L521.776 399.808L526.801 397.012L525.421 394.533L520.396 397.329Z" fill="#E9562A"/>
<path d="M523.29 402.672L524.669 405.151L529.695 402.356L528.315 399.876L523.29 402.672Z" fill="#E9562A"/>
<path d="M526.247 408.042L527.626 410.521L532.652 407.727L531.273 405.247L526.247 408.042Z" fill="#E9562A"/>
<path d="M529.129 413.374L530.508 415.853L535.533 413.058L534.154 410.578L529.129 413.374Z" fill="#E9562A"/>
<path d="M532.019 418.713L533.398 421.192L538.423 418.396L537.044 415.917L532.019 418.713Z" fill="#E9562A"/>
<path d="M534.921 424.06L536.301 426.539L541.326 423.744L539.946 421.264L534.921 424.06Z" fill="#E9562A"/>
<path d="M537.841 429.406L539.22 431.886L544.245 429.09L542.866 426.611L537.841 429.406Z" fill="#E9562A"/>
<path d="M540.743 434.754L542.122 437.233L547.147 434.438L545.768 431.958L540.743 434.754Z" fill="#E9562A"/>
<path d="M543.654 440.096L545.033 442.576L550.058 439.78L548.679 437.301L543.654 440.096Z" fill="#E9562A"/>
<path d="M456.167 436.595C460.548 434.294 465.968 435.99 468.269 440.371C470.571 444.751 468.874 450.171 464.494 452.473C460.113 454.774 447.151 451.451 447.151 451.451C447.151 451.451 451.787 438.896 456.176 436.599L456.167 436.595Z" fill="#EA572A"/>
<path d="M469.719 448.949C468.792 450.927 467.231 452.628 465.151 453.721C460.424 456.205 448.175 453.165 446.795 452.81L445.275 452.421L445.822 450.943C446.313 449.606 450.782 437.809 455.518 435.329C460.588 432.672 466.877 434.63 469.534 439.7C471.099 442.69 471.065 446.101 469.732 448.944L469.719 448.949ZM449.055 450.443C453.995 451.559 461.28 452.553 463.832 451.211C467.515 449.283 468.941 444.708 467.012 441.024C466.075 439.237 464.506 437.926 462.583 437.327C460.66 436.728 458.621 436.91 456.833 437.848C454.282 439.189 450.955 445.746 449.067 450.439L449.055 450.443Z" fill="#E9562A"/>
<path d="M355.014 487.499C351.621 489.01 346.55 498.885 338.862 501.243C331.875 503.377 324.365 503.218 321.819 510.204C319.198 517.373 322.839 525.579 329.921 528.431C337.512 531.49 346.062 527.604 348.795 519.975C349.792 517.204 347.86 514.062 349.209 511.676C352.208 506.376 360.792 507.561 363.416 506.4C369.366 503.759 372.304 497.385 369.99 492.163C367.672 486.949 360.973 484.862 355.019 487.511L355.014 487.499Z" fill="#EA572A"/>
<path d="M371.042 500.899C369.705 503.75 367.254 506.236 363.985 507.68C363.006 508.119 361.656 508.259 359.951 508.441C356.487 508.811 352.187 509.27 350.436 512.356C349.971 513.193 350.118 514.348 350.296 515.685C350.489 517.144 350.708 518.793 350.118 520.428C348.659 524.497 345.685 527.719 341.731 529.489C337.785 531.263 333.4 531.348 329.378 529.722C321.574 526.584 317.587 517.599 320.47 509.696C322.711 503.56 328.336 502.281 333.784 501.045C335.315 500.697 336.905 500.336 338.434 499.862C342.826 498.517 346.419 494.352 349.31 490.997C351.287 488.696 352.858 486.884 354.431 486.181C357.624 484.764 361.121 484.524 364.277 485.503C367.504 486.505 369.987 488.652 371.278 491.555C372.623 494.568 372.427 497.924 371.042 500.878L371.042 500.899ZM347.799 511.297C347.852 511.185 347.904 511.074 347.973 510.971C350.441 506.602 355.77 506.041 359.661 505.631C361.003 505.487 362.269 505.35 362.846 505.098C368.072 502.776 370.696 497.227 368.697 492.737C367.738 490.595 365.879 488.991 363.452 488.24C360.954 487.464 358.166 487.661 355.605 488.8C354.614 489.244 353.088 491.004 351.48 492.872C348.356 496.504 344.462 501.018 339.289 502.603C337.664 503.105 336.028 503.476 334.438 503.838C329.305 505.003 324.875 506.006 323.156 510.695C320.784 517.177 324.065 524.545 330.455 527.114C333.75 528.441 337.353 528.376 340.583 526.924C343.822 525.477 346.265 522.83 347.455 519.492C347.815 518.501 347.654 517.329 347.488 516.081C347.285 514.576 347.065 512.885 347.804 511.309L347.799 511.297Z" fill="#EA572A"/>
<path d="M365.896 501.253L359.747 488.974C358.913 487.308 359.589 485.277 361.255 484.443L377.83 476.143L387.002 494.46L370.427 502.76C368.761 503.594 366.73 502.919 365.896 501.253Z" fill="#F6CE52"/>
<path d="M388.917 495.108L371.074 504.038C369.929 504.608 368.628 504.708 367.412 504.294C366.201 503.893 365.215 503.033 364.64 501.897L358.494 489.612C357.314 487.251 358.27 484.367 360.635 483.178L378.477 474.248L388.921 495.099L388.917 495.108ZM361.027 488.355L367.173 500.64C367.404 501.104 367.803 501.458 368.302 501.619C368.797 501.789 369.329 501.746 369.792 501.514L385.099 493.85L377.198 478.067L361.892 485.732C360.926 486.209 360.537 487.394 361.018 488.351L361.027 488.355Z" fill="#E9562A"/>
<path d="M814.096 655.952C805.262 655.952 795.909 655.413 785.921 654.335C759.865 651.536 735.833 640.801 714.506 622.453C694.049 604.852 682.17 585.199 678.018 577.567C669.26 561.489 670.026 535.65 670.764 510.663C671.133 498.122 671.492 486.281 670.651 476.038C668.135 445.272 670.575 431.993 670.679 431.435L670.84 430.584L671.596 430.149C671.653 430.121 677.11 426.981 684.922 420.937C698.362 410.553 717.154 392.99 730.385 368.229L734.102 361.278L733.951 369.156C733.951 369.317 733.715 385.13 740.222 401.152C748.289 421.013 762.646 432.391 782.942 435.02C769.191 413.277 774.525 370.887 774.591 370.443L776.246 358.412L778.327 370.376C778.355 370.518 780.89 384.563 791.388 399.998C800.571 413.494 817.822 430.717 848.494 438.141C827.687 408.803 832.056 390.55 832.264 389.755L833.38 385.442L835.707 389.245C836.057 389.812 869.906 444.336 914.575 452.602C909.364 444.307 897.863 423.633 902.857 409.446L904.474 404.859L906.384 409.333C906.545 409.72 923.03 448.015 936.602 457.662L937.141 458.04L937.321 458.674C937.387 458.891 943.648 480.19 955.716 501.678C975.256 484.474 988.799 487.274 990.095 487.595C991.778 487.926 1015.19 493.081 1015.19 519.042C1015.19 545.004 1006.2 557.687 988.506 573.822C972.929 588.036 949.682 583.941 943.809 582.608C922.822 614.461 898.809 635.306 870.426 646.334C853.771 652.794 835.461 655.962 814.096 655.962V655.952ZM674.273 432.968C673.8 436.278 672.306 449.755 674.424 475.726C675.275 486.177 674.925 498.122 674.547 510.767C673.819 535.253 673.072 560.571 681.338 575.751C687.476 587.025 721.382 643.582 786.328 650.571C836.567 655.971 894.26 651.744 941.378 579.402L942.135 578.248L943.468 578.607C943.733 578.683 969.95 585.615 985.971 571.003C1003.21 555.284 1011.41 543.491 1011.41 519.023C1011.41 494.556 990.256 491.445 989.357 491.284L989.187 491.246C989.073 491.218 975.889 488.097 956.529 506.029L954.789 507.636L953.607 505.584C941.737 485.099 935.06 464.178 933.887 460.338C922.737 451.921 910.574 427.52 905.42 416.398C904.862 432.324 919.881 453.765 920.051 454.002L922.5 457.473L918.282 456.971C877.283 452.148 845.41 410.307 835.584 395.941C835.782 403.554 838.572 419.055 854.499 439.91L857.535 443.891L852.627 442.917C817.557 435.956 798.207 416.804 788.153 401.975C782.895 394.21 779.575 386.871 777.542 381.291C776.861 396.064 777.353 422.876 788.39 436.098L791.227 439.503L786.801 439.191C756.801 437.11 742.974 418.062 736.665 402.457C732.504 392.158 730.991 382.132 730.452 375.805C717.211 398.116 699.894 414.147 687.23 423.926C680.846 428.863 676.07 431.861 674.254 432.958L674.273 432.968Z" fill="#E9562A"/>
<path d="M793.166 673.251C752.971 671.567 727.463 657.409 717.135 650.354L721.864 663.292L719.131 663.273C718.724 663.273 708.964 663.121 696.376 657.191C685.877 652.245 671.54 642.239 660.285 622.274C660.701 629.178 663.113 640.584 672.901 652.907L675.077 655.65L671.596 655.971C670.972 656.028 656.246 657.191 639.752 641.671C638.806 640.83 617.536 621.328 625.329 578.21C618.529 591.252 610.131 615.757 625.925 639.231L628.942 643.724L623.787 642.097C623.286 641.936 611.379 638.125 600.531 629.83C589.324 621.262 583.242 589.767 592.435 571.722C600.947 555.01 615.398 538.629 616.013 537.939C616.486 537.447 657.429 495.398 655.159 477.277C654.856 474.846 653.731 473.068 651.716 471.848C646.864 468.898 642.514 464.547 638.778 458.929C626.88 441.016 625.811 417.41 635.997 397.331C640.925 387.618 647.318 377.734 654.998 367.974C680.685 335.317 742.416 326.379 745.036 326.01L747.4 325.679L747.182 328.053C747.164 328.318 746.52 357.258 844.692 367.255C929.877 375.928 985.404 369.629 1019.43 347.432C1023.19 344.982 1028.29 345.701 1031.3 349.087C1039.84 358.696 1060.16 382.974 1064.48 400.925C1065.78 406.325 1068.56 416.265 1072.07 428.863C1083.07 468.264 1101.49 534.203 1101.49 558.415H1097.7C1097.7 534.723 1079.38 469.096 1068.43 429.884C1064.91 417.258 1062.12 407.28 1060.81 401.814C1056.69 384.695 1036.83 360.994 1028.48 351.603C1026.71 349.598 1023.71 349.172 1021.51 350.6C986.718 373.299 930.417 379.796 844.323 371.019C756.612 362.082 745.036 337.804 743.607 330.068C732.778 331.883 680.231 342.022 657.996 370.31C650.468 379.881 644.216 389.547 639.402 399.043C629.84 417.911 630.815 440.051 641.965 456.839C645.389 461.993 649.342 465.956 653.712 468.623C656.729 470.458 658.488 473.22 658.942 476.823C661.439 496.751 620.553 538.762 618.813 540.54C618.728 540.634 604.134 557.185 595.84 573.462C587.678 589.484 593.135 619.408 602.858 626.842C608.948 631.504 615.531 634.72 619.91 636.574C612.315 622.605 611.048 606.63 616.287 590.023C620.676 576.11 627.949 566.785 628.261 566.388L634.049 559.039L631.571 568.062C618.226 616.589 642.098 638.683 642.344 638.9C652.756 648.698 662.422 651.328 667.52 652.018C653.437 632.138 656.719 615.464 656.871 614.736L658.015 609.279L660.427 614.31C678.245 651.479 707.29 658.109 716.388 659.282L708.888 638.758L714.449 643.629C714.724 643.865 742.132 667.368 793.355 669.515L793.194 673.298L793.166 673.251Z" fill="#E9562A"/>
<path d="M937.084 665.476V661.693C937.538 661.693 983.153 661.239 1002.82 626.132L1005.33 621.668L1006.33 626.681C1006.45 627.229 1008.66 639.468 993.67 656.964L1016.48 652.226C1043.63 646.58 1060.68 596.511 1060.84 596.009L1063.45 588.207L1064.51 596.369C1064.68 597.712 1068.47 628.298 1056.02 648.49C1059.03 648.434 1065.22 647.176 1075.72 640.423C1110.62 617.989 1097.87 559.408 1097.73 558.822L1101.42 557.989C1101.56 558.614 1104.87 573.509 1103.72 591.545C1102.17 615.691 1093.2 633.689 1077.77 643.61C1059.7 655.224 1052.65 651.961 1051.9 651.545L1050.03 650.514L1051.28 648.784C1060.57 635.864 1061.6 616.438 1061.31 605.373C1055.07 620.42 1039.72 651.261 1017.25 655.934L982.614 663.131L986.955 658.695C997.018 648.405 1000.73 639.884 1002.05 634.351C979.71 665.108 937.529 665.476 937.084 665.476Z" fill="#E9562A"/>
<path d="M794.244 698.087L790.82 696.479C797.375 682.481 789.553 653.758 789.468 653.475L793.119 652.463C793.459 653.692 801.394 682.822 794.244 698.087Z" fill="#E9562A"/>
<path d="M769.796 689.707L769.276 685.962C784.446 683.834 794.216 677.79 794.31 677.734L796.325 680.94C795.899 681.205 785.77 687.485 769.805 689.717L769.796 689.707Z" fill="#E9562A"/>
<path d="M626.237 844.521L622.473 844.18C622.511 843.717 627.069 797.695 666.338 748.071C705.663 698.361 766.93 683.928 767.545 683.787L768.122 683.654L771.337 684.94L771.423 686.123C771.442 686.331 773.201 707.289 789.903 721.513C802.103 731.907 819.146 736.258 840.549 734.452C897.702 729.619 941.766 689.764 952.425 679.304C923.125 671.643 920.458 610.291 920.353 607.576L924.137 607.434C924.165 608.096 926.983 673.251 956.482 676.201L960.256 676.58L957.683 679.37C957.191 679.899 907.907 732.57 840.871 738.235C818.399 740.136 800.411 735.473 787.416 724.37C771.706 710.959 768.406 692.554 767.781 687.636C761.369 689.253 705.701 704.423 669.298 750.435C630.777 799.124 626.275 844.095 626.237 844.54V844.521Z" fill="#E9562A"/>
<path d="M1111.56 834.486C1104.15 767.469 1069.16 736.088 1046.01 715.319C1044.83 714.259 1043.68 713.228 1042.57 712.226C1021.83 693.471 967.926 679.304 959.726 677.223L957.655 679.379L954.931 676.759L958.515 673.033L959.575 673.289C962.109 673.903 1022.03 688.553 1045.12 709.426C1046.23 710.429 1047.37 711.45 1048.54 712.51C1072.12 733.657 1107.76 765.615 1115.32 834.079L1111.56 834.495V834.486Z" fill="#E9562A"/>
<path d="M683.447 841.267L679.702 840.719C684.099 810.615 696.688 778.884 696.811 778.562L700.319 779.962C700.196 780.274 687.769 811.608 683.437 841.258L683.447 841.267Z" fill="#E9562A"/>
<path d="M978.396 858.651L974.717 857.78C978.433 842.081 986.368 790.839 986.444 790.318L990.18 790.895C990.104 791.416 982.15 842.799 978.396 858.651Z" fill="#E9562A"/>
<path d="M728.437 517.141C734.784 517.141 739.928 508.821 739.928 498.557C739.928 488.293 734.784 479.973 728.437 479.973C722.091 479.973 716.946 488.293 716.946 498.557C716.946 508.821 722.091 517.141 728.437 517.141Z" fill="#E9562A"/>
<path d="M892.084 568.478C906.851 568.478 918.821 562.626 918.821 555.407C918.821 548.189 906.851 542.337 892.084 542.337C877.318 542.337 865.347 548.189 865.347 555.407C865.347 562.626 877.318 568.478 892.084 568.478Z" fill="#E9562A"/>
<path d="M850.48 528.368C856.826 528.368 861.971 520.047 861.971 509.783C861.971 499.519 856.826 491.199 850.48 491.199C844.133 491.199 838.989 499.519 838.989 509.783C838.989 520.047 844.133 528.368 850.48 528.368Z" fill="#E9562A"/>
<path d="M692.687 441.811L689.755 439.418C690.237 438.831 701.7 425.004 716.057 423.794C722.526 423.245 728.541 425.354 733.932 430.055L731.445 432.901C726.867 428.901 721.788 427.104 716.398 427.558C703.639 428.617 692.8 441.678 692.687 441.811Z" fill="#E9562A"/>
<path d="M874.928 456.281C869.49 445.679 862.198 438.879 853.27 436.07C839.093 431.606 825.36 438.746 825.218 438.822L823.44 435.483C824.055 435.152 838.658 427.529 854.358 432.447C864.307 435.568 872.365 443.002 878.286 454.55L874.919 456.281H874.928Z" fill="#E9562A"/>
<path d="M762.182 548.948C755.439 544.417 752.006 539.376 751.959 533.957C751.892 525.502 760.225 519.61 760.584 519.364L762.74 522.476C762.665 522.523 755.675 527.498 755.742 533.948C755.779 538.033 758.655 542.025 764.291 545.808L762.182 548.948Z" fill="#E9562A"/>
<path d="M784.2 598.033C776.114 598.033 769.285 596.189 763.866 593.853C749.727 587.743 742.17 577.255 741.858 576.81L744.941 574.625C745.017 574.73 752.299 584.793 765.521 590.448C783.179 598.005 802.605 594.553 823.26 580.196L825.417 583.298C809.49 594.373 795.597 598.033 784.2 598.033Z" fill="#E9562A"/>
<path d="M736.684 490.102C736.628 489.903 730.821 470.08 717.135 471.47C703.62 472.851 704.008 488.844 704.036 489.525L700.253 489.657C700.017 482.677 703.157 469.096 716.757 467.715C733.582 465.975 740.061 488.135 740.326 489.08L736.684 490.111V490.102Z" fill="#E9562A"/>
<path d="M858.727 501.328C858.67 501.129 852.854 481.306 839.178 482.696C825.663 484.077 826.05 500.07 826.079 500.751L822.296 500.884C822.059 493.904 825.199 480.322 838.799 478.942C855.625 477.201 862.103 499.361 862.368 500.307L858.727 501.338V501.328Z" fill="#E9562A"/>
<path d="M857.554 312.287C851.917 304.853 841.315 303.397 833.881 309.043C832.51 310.083 831.347 311.294 830.392 312.618C824.726 305.326 814.228 303.926 806.851 309.525C799.493 315.105 798.008 325.537 803.446 332.962C802.018 333.52 800.638 334.267 799.361 335.231C791.927 340.868 790.47 351.47 796.117 358.904C800.562 364.758 808.081 366.886 814.701 364.768C814.834 368.107 815.94 371.445 818.115 374.301C823.752 381.735 834.354 383.192 841.788 377.545C846.158 374.226 848.446 369.194 848.456 364.096C853.364 365.458 858.831 364.617 863.2 361.297C870.634 355.66 872.091 345.058 866.444 337.624C864.269 334.759 861.366 332.801 858.188 331.77C862.018 325.953 861.999 318.132 857.554 312.268V312.287Z" fill="#F6CE52"/>
<path d="M831.621 382.416C830.779 382.416 829.938 382.359 829.096 382.246C824.253 381.584 819.95 379.068 816.999 375.171C815.079 372.646 813.869 369.705 813.453 366.584C806.558 368.078 799.323 365.458 795.001 359.765C792.04 355.868 790.783 351.054 791.445 346.212C792.107 341.369 794.622 337.066 798.519 334.115C799.399 333.444 800.344 332.858 801.356 332.356C796.665 324.478 798.566 314.056 806.009 308.409C813.481 302.744 824.036 303.728 830.363 310.414C831.167 309.497 832.066 308.665 833.03 307.927C836.927 304.967 841.731 303.709 846.583 304.371C851.426 305.033 855.729 307.549 858.68 311.445C863.002 317.139 863.569 324.828 860.268 331.07C863.153 332.318 865.659 334.267 867.57 336.792C870.53 340.689 871.788 345.503 871.126 350.345C870.464 355.187 867.948 359.491 864.052 362.441C859.937 365.562 854.821 366.773 849.78 365.865C849.297 370.963 846.753 375.559 842.639 378.69C839.424 381.13 835.584 382.416 831.612 382.416H831.621ZM816.054 362.857L816.129 364.721C816.252 367.908 817.33 370.925 819.25 373.46C821.747 376.751 825.379 378.879 829.474 379.437C833.569 379.995 837.636 378.936 840.927 376.429C844.796 373.488 847.028 368.995 847.028 364.106V362.243L848.825 362.744C853.544 364.059 858.462 363.122 862.33 360.181C865.622 357.684 867.75 354.052 868.308 349.957C868.866 345.862 867.806 341.795 865.3 338.504C863.38 335.979 860.77 334.125 857.734 333.141L855.956 332.564L856.977 331.004C860.581 325.528 860.354 318.349 856.4 313.138C853.903 309.847 850.272 307.719 846.176 307.161C842.091 306.603 838.014 307.662 834.723 310.168C833.503 311.095 832.425 312.202 831.526 313.441L830.42 314.973L829.257 313.479C824.083 306.82 814.408 305.553 807.693 310.641C801.016 315.711 799.616 325.339 804.572 332.11L805.66 333.605L803.938 334.276C802.576 334.806 801.318 335.506 800.193 336.357C796.902 338.854 794.774 342.485 794.216 346.581C793.658 350.676 794.717 354.743 797.223 358.034C801.167 363.236 808.015 365.402 814.247 363.406L816.025 362.839L816.054 362.857Z" fill="#E9562A"/>
<path d="M830.95 352.87C837.359 352.87 842.554 347.675 842.554 341.265C842.554 334.856 837.359 329.661 830.95 329.661C824.54 329.661 819.345 334.856 819.345 341.265C819.345 347.675 824.54 352.87 830.95 352.87Z" fill="#F6CE52"/>
<path d="M830.959 354.279C827.025 354.279 823.128 352.501 820.565 349.134C818.465 346.363 817.567 342.939 818.04 339.497C818.513 336.054 820.3 332.999 823.071 330.89C825.842 328.791 829.266 327.892 832.709 328.365C836.151 328.838 839.206 330.626 841.315 333.397C843.415 336.168 844.313 339.591 843.84 343.034C843.368 346.477 841.58 349.532 838.809 351.641C836.463 353.419 833.692 354.279 830.95 354.279H830.959ZM830.921 331.079C828.717 331.079 826.58 331.798 824.783 333.151C822.617 334.796 821.218 337.189 820.849 339.885C820.48 342.58 821.18 345.257 822.825 347.422C826.221 351.896 832.624 352.776 837.097 349.38C839.263 347.735 840.663 345.342 841.031 342.646C841.4 339.951 840.7 337.274 839.055 335.108C837.409 332.943 835.016 331.543 832.321 331.174C831.848 331.108 831.385 331.079 830.912 331.079H830.921Z" fill="#E9562A"/>
<path d="M581.852 342.939C581.388 342.939 580.925 342.911 580.452 342.845C577.766 342.476 575.392 341.086 573.747 338.929C570.37 334.475 571.24 328.1 575.695 324.724C580.149 321.338 586.524 322.218 589.9 326.672C591.537 328.829 592.236 331.496 591.868 334.182C591.499 336.868 590.109 339.241 587.952 340.887C586.174 342.24 584.046 342.949 581.842 342.949L581.852 342.939ZM581.824 325.499C580.282 325.499 578.731 325.982 577.416 326.984C574.21 329.415 573.576 334.011 576.016 337.218C577.199 338.769 578.911 339.771 580.84 340.036C582.769 340.301 584.689 339.799 586.25 338.617C587.81 337.435 588.803 335.723 589.068 333.794C589.333 331.864 588.832 329.945 587.649 328.384C586.212 326.492 584.027 325.499 581.824 325.499Z" fill="#E9562A"/>
<path d="M582.334 364.087C581.691 364.087 581.039 364.04 580.386 363.955C576.65 363.444 573.34 361.505 571.061 358.497C569.661 356.644 568.743 354.516 568.384 352.246C563.182 353.22 557.782 351.206 554.529 346.921C549.819 340.717 551.039 331.846 557.243 327.136C557.82 326.691 558.444 326.294 559.097 325.953C555.72 319.919 557.233 312.088 562.87 307.813C568.526 303.52 576.48 304.182 581.388 309.081C581.937 308.485 582.542 307.936 583.195 307.445C589.399 302.735 598.27 303.955 602.98 310.159C606.234 314.453 606.726 320.203 604.371 324.96C606.451 325.925 608.258 327.372 609.658 329.226C614.368 335.43 613.147 344.301 606.943 349.011C603.869 351.338 600.077 352.293 596.313 351.716C595.859 355.499 593.92 358.895 590.846 361.231C588.368 363.113 585.399 364.106 582.344 364.106L582.334 364.087ZM570.966 348.548L571.042 350.411C571.136 352.728 571.921 354.932 573.321 356.776C575.146 359.178 577.795 360.72 580.774 361.136C583.753 361.543 586.723 360.767 589.125 358.951C591.943 356.804 593.57 353.532 593.57 349.967V348.103L595.367 348.605C598.81 349.56 602.394 348.879 605.212 346.741C610.168 342.977 611.142 335.893 607.378 330.938C605.979 329.093 604.078 327.741 601.864 327.032L600.086 326.455L601.117 324.894C603.747 320.903 603.576 315.673 600.692 311.871C598.866 309.469 596.218 307.927 593.239 307.511C590.25 307.104 587.29 307.88 584.888 309.696C583.999 310.367 583.214 311.171 582.561 312.079L581.455 313.611L580.291 312.117C576.518 307.265 569.462 306.338 564.573 310.055C559.702 313.753 558.68 320.771 562.303 325.707L563.39 327.192L561.669 327.864C560.676 328.252 559.759 328.762 558.936 329.387C553.98 333.151 553.006 340.235 556.77 345.19C559.645 348.983 564.639 350.562 569.179 349.106L570.957 348.538L570.966 348.548Z" fill="#E9562A"/>
<path d="M1070.33 333.085C1069.91 333.085 1069.47 333.056 1069.05 332.999C1066.57 332.659 1064.38 331.373 1062.86 329.387C1059.74 325.272 1060.55 319.39 1064.66 316.269C1068.77 313.148 1074.66 313.952 1077.78 318.066C1079.29 320.061 1079.93 322.52 1079.59 324.998C1079.25 327.476 1077.97 329.67 1075.98 331.184C1074.33 332.432 1072.37 333.085 1070.34 333.085H1070.33ZM1070.31 317.205C1068.93 317.205 1067.54 317.64 1066.37 318.529C1063.51 320.704 1062.95 324.8 1065.12 327.665C1066.17 329.056 1067.7 329.945 1069.44 330.181C1071.17 330.417 1072.88 329.963 1074.26 328.914C1075.65 327.864 1076.54 326.332 1076.78 324.601C1077.02 322.88 1076.57 321.158 1075.52 319.768C1074.23 318.075 1072.28 317.196 1070.32 317.196L1070.31 317.205Z" fill="#E9562A"/>
<path d="M1070.77 352.331C1070.17 352.331 1069.58 352.293 1068.98 352.208C1065.55 351.735 1062.5 349.957 1060.4 347.195C1059.15 345.531 1058.31 343.611 1057.96 341.578C1053.22 342.419 1048.32 340.556 1045.35 336.65C1041.02 330.947 1042.14 322.795 1047.84 318.463C1048.34 318.085 1048.87 317.735 1049.43 317.432C1046.41 311.899 1047.82 304.768 1052.97 300.862C1058.13 296.947 1065.38 297.514 1069.9 301.94C1070.38 301.43 1070.91 300.957 1071.47 300.531C1074.23 298.431 1077.64 297.542 1081.08 298.015C1084.51 298.488 1087.56 300.266 1089.66 303.028C1092.63 306.943 1093.09 312.173 1091 316.515C1092.86 317.404 1094.48 318.718 1095.75 320.383C1100.07 326.086 1098.95 334.238 1093.25 338.57C1090.46 340.689 1087.03 341.568 1083.6 341.076C1083.16 344.5 1081.38 347.574 1078.59 349.692C1076.31 351.423 1073.59 352.331 1070.77 352.331ZM1060.55 337.889L1060.62 339.752C1060.71 341.842 1061.41 343.819 1062.67 345.474C1064.31 347.631 1066.69 349.021 1069.38 349.39C1072.06 349.758 1074.73 349.059 1076.89 347.422C1079.42 345.493 1080.88 342.552 1080.89 339.346V337.482L1082.69 337.984C1085.78 338.844 1089 338.23 1091.54 336.31C1095.99 332.933 1096.86 326.559 1093.49 322.104C1092.23 320.449 1090.52 319.229 1088.53 318.595L1086.75 318.018L1087.77 316.458C1090.14 312.873 1089.99 308.163 1087.4 304.749C1085.76 302.593 1083.38 301.203 1080.7 300.834C1078.02 300.465 1075.35 301.165 1073.19 302.801C1072.39 303.406 1071.69 304.134 1071.09 304.948L1069.98 306.48L1068.82 304.986C1065.43 300.626 1059.09 299.793 1054.69 303.132C1050.31 306.452 1049.39 312.769 1052.65 317.205L1053.74 318.69L1052.01 319.361C1051.12 319.711 1050.29 320.165 1049.56 320.723C1045.11 324.1 1044.24 330.474 1047.62 334.929C1050.21 338.343 1054.69 339.752 1058.78 338.447L1060.55 337.88L1060.55 337.889Z" fill="#E9562A"/>
<path d="M326.062 350.233C323.433 350.233 320.87 349.41 318.695 347.831C315.971 345.854 314.183 342.941 313.654 339.621C313.124 336.302 313.919 332.972 315.895 330.249C317.872 327.525 320.785 325.737 324.105 325.208C327.424 324.678 330.753 325.472 333.477 327.449C336.201 329.426 337.989 332.339 338.518 335.658C339.048 338.978 338.253 342.307 336.277 345.031C334.3 347.755 331.387 349.542 328.067 350.072C327.396 350.176 326.724 350.233 326.062 350.233ZM326.1 327.884C325.589 327.884 325.079 327.922 324.559 328.007C321.986 328.414 319.726 329.804 318.194 331.913C316.661 334.022 316.047 336.595 316.453 339.167C316.86 341.74 318.25 344 320.359 345.532C322.468 347.064 325.041 347.679 327.613 347.273C330.186 346.866 332.446 345.476 333.978 343.366C335.511 341.257 336.125 338.685 335.719 336.112C334.953 331.317 330.801 327.894 326.091 327.894L326.1 327.884Z" fill="#E9562A"/>
<path d="M316.226 374.993C312.528 374.993 308.934 373.83 305.88 371.617C302.059 368.846 299.543 364.75 298.796 360.088C298.313 357.08 298.616 354.044 299.666 351.216C293.14 349.325 288.194 343.82 287.115 337.03C286.378 332.367 287.494 327.695 290.265 323.865C293.036 320.034 297.131 317.528 301.794 316.79C302.825 316.629 303.884 316.554 304.953 316.582C304.584 307.758 310.939 299.785 319.83 298.367C328.748 296.948 337.27 302.566 339.634 311.106C340.722 310.709 341.838 310.416 342.982 310.227C347.645 309.489 352.317 310.605 356.147 313.376C359.968 316.147 362.484 320.242 363.222 324.905C364.3 331.705 361.302 338.486 355.684 342.307C357.557 344.672 358.786 347.462 359.259 350.469C360.791 360.097 354.209 369.177 344.581 370.709C339.672 371.494 334.782 370.198 330.914 367.162C328.181 371.257 323.934 374 319.026 374.776C318.08 374.927 317.144 375.003 316.207 375.003L316.226 374.993ZM304.527 319.401C303.761 319.401 302.995 319.457 302.248 319.58C298.332 320.205 294.89 322.314 292.563 325.52C290.237 328.726 289.3 332.651 289.915 336.566C290.899 342.752 295.713 347.679 301.879 348.814L303.714 349.155L302.9 350.829C301.567 353.581 301.113 356.617 301.595 359.634C302.219 363.549 304.329 366.992 307.535 369.319C310.741 371.645 314.666 372.581 318.581 371.957C323.187 371.229 327.103 368.429 329.316 364.296L330.195 362.651L331.548 363.937C334.943 367.181 339.53 368.619 344.136 367.881C352.222 366.595 357.746 358.972 356.46 350.885C355.977 347.878 354.606 345.126 352.487 342.931L351.192 341.588L352.828 340.699C358.351 337.701 361.406 331.525 360.422 325.331C359.798 321.415 357.689 317.972 354.483 315.646C351.277 313.319 347.352 312.373 343.436 312.998C341.98 313.225 340.571 313.669 339.246 314.322L337.544 315.154L337.222 313.291C335.861 305.318 328.247 299.87 320.265 301.138C312.32 302.405 306.778 309.915 307.913 317.887L308.178 319.713L306.343 319.495C305.728 319.42 305.114 319.382 304.508 319.382L304.527 319.401Z" fill="#E9562A"/>
<path d="M598.325 423C588.399 423 580.325 414.925 580.325 405C580.325 395.075 588.399 387 598.325 387C608.25 387 616.325 395.075 616.325 405C616.325 414.925 608.25 423 598.325 423ZM598.325 389.794C589.941 389.794 583.128 396.617 583.128 404.991C583.128 413.364 589.951 420.187 598.325 420.187C606.698 420.187 613.521 413.364 613.521 404.991C613.521 396.617 606.698 389.794 598.325 389.794Z" fill="#E9562A"/>
<path d="M715.325 138C707.058 138 700.325 131.276 700.325 123C700.325 114.724 707.049 108 715.325 108C723.6 108 730.325 114.724 730.325 123C730.325 131.276 723.6 138 715.325 138ZM715.325 110.874C708.639 110.874 703.198 116.314 703.198 123C703.198 129.686 708.639 135.126 715.325 135.126C722.01 135.126 727.451 129.686 727.451 123C727.451 116.314 722.01 110.874 715.325 110.874Z" fill="#E9562A"/>
<path d="M1022.32 46C1019.02 46 1016.32 43.3093 1016.32 40C1016.32 36.6907 1019.02 34 1022.32 34C1025.63 34 1028.32 36.6907 1028.32 40C1028.32 43.3093 1025.63 46 1022.32 46ZM1022.32 36.946C1020.64 36.946 1019.27 38.3208 1019.27 40C1019.27 41.6792 1020.65 43.054 1022.32 43.054C1024 43.054 1025.38 41.6792 1025.38 40C1025.38 38.3208 1024 36.946 1022.32 36.946Z" fill="#E9562A"/>
<path d="M892.324 214C884.604 214 878.324 207.721 878.324 200C878.324 192.279 884.604 186 892.324 186C900.045 186 906.324 192.279 906.324 200C906.324 207.721 900.045 214 892.324 214ZM892.324 188.903C886.21 188.903 881.227 193.876 881.227 200C881.227 206.124 886.2 211.097 892.324 211.097C898.449 211.097 903.422 206.124 903.422 200C903.422 193.876 898.449 188.903 892.324 188.903Z" fill="#E9562A"/>
<path d="M388.696 100C384.269 100 378.545 99.1986 373.642 95.9358C364.21 89.6774 361.689 76.9411 361.586 76.3973L361.325 75.0426L362.641 74.7373C363.164 74.6132 375.584 71.7989 385.007 78.0573C394.439 84.3157 396.96 97.052 397.063 97.5958L397.325 98.9506L396.008 99.2558C395.756 99.3131 392.777 99.9905 388.696 99.9905V100ZM364.677 77.275C365.592 80.6236 368.468 89.105 375.164 93.5412C381.869 97.9965 390.61 97.2429 393.972 96.7277C393.057 93.379 390.181 84.8977 383.485 80.4614C376.78 76.0061 368.039 76.7598 364.677 77.275Z" fill="#E9562A"/>
<path d="M629.19 105L628.889 103.653C628.626 102.507 622.674 75.2546 635.866 54.641C649.057 34.0274 675.986 28.4967 677.124 28.2675L678.459 28L678.76 29.3469C679.023 30.4931 684.975 57.7454 671.783 78.359C658.592 98.9726 631.663 104.503 630.525 104.733L629.19 105ZM676.278 31.4006C670.636 32.8143 649.105 39.1856 638.216 56.198C627.319 73.2295 630.337 95.7917 631.353 101.599C636.985 100.186 658.526 93.8144 669.414 76.802C680.302 59.7896 677.293 37.2083 676.278 31.4006Z" fill="#E9562A"/>
<path d="M229.164 115.15C230.24 115.15 231.112 114.278 231.112 113.202C231.112 112.126 230.24 111.254 229.164 111.254C228.088 111.254 227.215 112.126 227.215 113.202C227.215 114.278 228.088 115.15 229.164 115.15Z" fill="#E9562A"/>
<path d="M257.518 119.671C258.594 119.671 259.466 118.799 259.466 117.723C259.466 116.647 258.594 115.774 257.518 115.774C256.442 115.774 255.57 116.647 255.57 117.723C255.57 118.799 256.442 119.671 257.518 119.671Z" fill="#E9562A"/>
<path d="M242.854 119.179L237.298 120.509L237.959 123.268L243.514 121.938L242.854 119.179Z" fill="#E9562A"/>
<path d="M243.401 119.313L241.707 121.589L246.289 125L247.983 122.724L243.401 119.313Z" fill="#E9562A"/>
<path d="M429.403 275.506L427.521 273.794C376.685 227.498 314.255 205.131 270.834 194.519C223.735 183.009 188.202 182.461 187.852 182.451L168.284 182.111C166.762 182.082 165.494 181.127 165.05 179.68C164.605 178.233 165.116 176.72 166.355 175.85L166.516 175.755L200.781 157.681L222.837 77.7069C223.309 76.4112 224.548 75.6546 225.91 75.8059C227.282 75.9667 228.322 76.9976 228.492 78.3784C228.653 79.6836 228.918 80.9982 229.287 82.2939C231.973 91.7611 240.314 98.9206 250.046 100.112C260.507 101.389 270.399 96.2157 275.242 86.9093C275.875 85.6798 277.209 85.065 278.543 85.3771C279.848 85.6798 280.756 86.7863 280.793 88.1388L281.891 127.067C291.244 129.318 300.513 131.852 309.441 134.614C349.371 146.975 384.961 164.292 415.216 186.102C421.629 190.727 426.991 196.855 430.784 203.873C438.965 199.901 445.122 192.978 447.391 185.118C449.756 176.947 447.978 168.151 442.265 159.687C438.104 153.53 436.827 147.458 438.463 141.66C441.556 130.68 454.087 123.936 459.336 121.553C460.651 120.957 462.127 120.9 463.47 121.421C465.399 122.158 466.723 123.889 466.912 125.951C467.101 127.984 466.146 129.914 464.406 130.992C459.034 134.302 452.3 139.778 450.72 147.108C449.709 151.78 450.938 156.736 454.381 161.824C461.209 171.934 462.807 182.83 458.883 192.495C454.901 202.312 445.67 209.973 434.567 212.782C437.3 221.237 437.886 230.241 436.26 238.923L429.403 275.506ZM167.934 178.205C167.679 178.422 167.717 178.697 167.755 178.838C167.802 178.999 167.944 179.264 168.332 179.273L187.89 179.614C188.24 179.614 224.028 180.163 271.43 191.739C314.662 202.294 376.6 224.425 427.549 269.992L433.47 238.394C435.096 229.683 434.378 220.632 431.379 212.224L430.831 210.692L432.42 210.361C443.296 208.082 452.432 200.828 456.244 191.427C458.76 185.232 460.065 175.339 452.016 163.413C448.129 157.653 446.758 151.969 447.94 146.512C449.737 138.199 457.067 132.174 462.911 128.58C463.734 128.079 464.169 127.199 464.075 126.225C463.98 125.232 463.375 124.438 462.448 124.088C461.814 123.842 461.115 123.87 460.49 124.154C456.679 125.885 444.024 132.335 441.178 142.455C439.778 147.42 440.932 152.688 444.601 158.126C450.806 167.309 452.707 176.928 450.096 185.932C447.486 194.964 440.232 202.861 430.698 207.051L429.469 207.59L428.864 206.389C425.251 199.258 419.945 193.053 413.533 188.429C383.533 166.799 348.218 149.614 308.58 137.347C299.378 134.501 289.816 131.89 280.16 129.592L279.101 129.337L277.937 88.2334C277.918 88.1672 277.88 88.1483 277.833 88.1483C277.814 88.1483 277.786 88.1483 277.739 88.2334C272.348 98.5896 261.329 104.359 249.687 102.94C238.83 101.607 229.533 93.6243 226.534 83.0789C226.128 81.6413 225.835 80.1849 225.655 78.7378C225.655 78.6716 225.627 78.6622 225.617 78.6527C225.57 78.6338 225.523 78.6338 225.513 78.6527L203.174 159.639L167.934 178.205Z" fill="#E9562A"/>
<path d="M247.001 167.149L212.197 185.506C210.598 186.641 211.374 189.157 213.332 189.195L261.112 190.793" fill="#F6CE52"/>
<path d="M261.065 192.221L213.284 190.623C211.79 190.594 210.523 189.639 210.069 188.192C209.624 186.745 210.135 185.241 211.374 184.362L211.535 184.267L246.339 165.91L247.663 168.416L212.963 186.726C212.707 186.944 212.745 187.218 212.783 187.36C212.83 187.521 212.972 187.785 213.36 187.795L261.159 189.393L261.065 192.231V192.221Z" fill="#E9562A"/>
<path d="M423.113 238.375L436.26 275.468C436.666 277.388 434.387 278.712 432.921 277.407L395.809 246.991" fill="#F6CE52"/>
<path d="M434.264 279.346C433.451 279.346 432.637 279.043 431.985 278.457L394.91 248.078L396.707 245.884L433.82 276.3C434.151 276.593 434.434 276.489 434.576 276.414C434.709 276.338 434.917 276.158 434.879 275.827L421.77 238.848L424.447 237.902L437.65 275.165C437.971 276.65 437.328 278.107 436.014 278.873C435.465 279.194 434.86 279.355 434.264 279.355V279.346Z" fill="#E9562A"/>
<path d="M899.619 69.3344C900.322 69.3155 900.844 69.0317 901.205 68.464C903.96 60.3271 907.959 48.6989 913.183 33.5699C913.411 32.9644 913.221 32.5386 912.603 32.3115C901.946 28.7729 890.861 24.8842 879.368 20.6265C878.143 20.1724 877.754 19.3398 878.219 18.1192C878.666 16.8987 879.454 16.4919 880.546 16.8987C892.049 21.1564 903.124 25.0545 913.791 28.5931C914.532 28.8675 915.006 28.6972 915.234 28.0822C917.296 22.1782 920.554 13.2655 925.008 1.31558C925.464 0.0950438 926.329 -0.273955 927.62 0.199121C928.903 0.672197 929.321 1.52373 928.865 2.73481C924.457 14.5617 921.209 23.4177 919.157 29.3122C918.977 29.7948 919.157 30.2205 919.737 30.5611C943.91 38.5467 971.285 46.1821 1001.85 53.4864C1003.05 53.6472 1003.51 54.442 1003.26 55.8802C1003.09 57.0723 1002.35 57.5549 1001.04 57.3467C970.23 49.9573 942.675 42.2556 918.378 34.2227C917.761 33.9957 917.324 34.2511 917.049 34.9797C911.881 49.5788 908.044 60.5731 905.565 67.9814C905.29 68.71 905.565 69.0979 906.391 69.1168C918.73 69.2493 931.306 71.7566 944.11 76.6387C961.729 83.1672 974.372 92.2881 982.046 104.011C989.711 115.734 991.117 128.109 986.254 141.157C981.609 153.589 972.861 162.483 959.991 167.848C947.13 173.212 931.572 174.386 913.344 171.377C912.024 171.169 911.492 170.374 911.72 169.012C911.948 167.64 912.784 167.081 914.228 167.337C931.439 170.109 946.066 169.068 958.11 164.233C970.145 159.408 978.313 151.252 982.588 139.794C986.045 130.532 985.922 121.543 982.217 112.81C978.503 104.087 971.75 96.4512 961.938 89.9038C961.292 89.3929 960.713 89.4496 960.2 90.093C941.365 109.205 921.152 122.972 899.543 131.411C877.934 139.851 861.017 141.8 848.784 137.268C842.306 134.865 837.974 130.976 835.809 125.593C833.634 120.209 833.852 114.05 836.445 107.105C840.358 96.6215 848.014 87.8696 859.403 80.8491C870.801 73.8287 884.203 69.9873 899.638 69.325L899.619 69.3344ZM899.334 74.0179C899.515 73.5259 899.258 73.2894 898.555 73.3083C884.308 74.1409 871.922 77.7741 861.378 84.1985C850.826 90.6229 843.74 98.7125 840.093 108.467C837.86 114.438 837.613 119.585 839.352 123.908C841.09 128.232 844.699 131.402 850.199 133.446C857.418 136.123 867.001 136.199 878.941 133.692C879.691 133.55 880.204 133.115 880.47 132.386C887.936 108.657 894.224 89.2036 899.325 74.0274L899.334 74.0179ZM904.881 73.1569C904.178 73.1758 903.732 73.4313 903.551 73.9138C896.789 93.8871 890.577 112.952 884.915 131.109C884.868 131.232 884.915 131.383 885.048 131.572C885.191 131.762 885.4 131.847 885.694 131.809C897.377 128.507 909.393 123.076 921.76 115.507C934.117 107.947 945.791 98.7787 956.78 88.002C957.417 87.4059 957.369 86.9707 956.638 86.6963C952.383 84.2836 947.747 82.1548 942.732 80.3003C930.251 75.6737 917.628 73.2894 904.872 73.1474L904.881 73.1569Z" fill="#E9562A"/>
<path d="M857.28 263.854L660.569 324.308C655.187 325.963 649.749 323.182 648.406 318.113L615.682 193.801C614.349 188.722 617.621 183.274 623.002 181.619L819.714 121.165C825.095 119.51 830.533 122.291 831.876 127.36L864.6 251.672C865.934 256.751 862.661 262.199 857.28 263.854Z" fill="#F6CE52"/>
<path d="M657.448 326.199C655.528 326.199 653.636 325.736 651.99 324.818C649.513 323.438 647.753 321.187 647.044 318.472L614.32 194.16C612.798 188.362 616.505 182.13 622.596 180.257L819.307 119.803C822.362 118.867 825.644 119.17 828.301 120.654C830.779 122.035 832.538 124.286 833.248 127.001L865.972 251.313C867.494 257.111 863.787 263.343 857.696 265.216L660.985 325.67C659.821 326.029 658.62 326.209 657.438 326.209L657.448 326.199ZM822.854 122.111C821.955 122.111 821.038 122.243 820.139 122.518L623.428 182.971C618.775 184.4 615.919 189.1 617.063 193.441L649.787 317.754C650.307 319.711 651.574 321.338 653.371 322.341C655.357 323.447 657.835 323.674 660.152 322.955L856.864 262.501C861.517 261.073 864.373 256.373 863.229 252.032L830.505 127.719C829.985 125.762 828.718 124.135 826.921 123.132C825.701 122.451 824.291 122.102 822.844 122.102L822.854 122.111Z" fill="#E9562A"/>
<path d="M759.184 292.596C759.184 292.596 785.221 274.248 811.457 264.251C818.324 261.631 834.591 256.789 844.909 253.772C849.931 252.306 852.986 247.142 851.709 242.3L818.957 118.139C817.775 113.656 812.734 111.499 808.336 113.599L722.394 154.759L759.184 292.596Z" fill="#F6CE52"/>
<path d="M758.333 294.923L720.71 153.984L807.712 112.313C810.265 111.083 813.16 111.045 815.637 112.19C817.964 113.268 819.666 115.301 820.319 117.77L853.071 241.931C854.547 247.53 851.057 253.441 845.297 255.124C835.83 257.886 818.9 262.918 811.949 265.566C786.196 275.383 760.253 293.561 759.988 293.75L758.324 294.923H758.333ZM724.068 155.525L760.036 290.288C766.221 286.099 788.636 271.43 810.946 262.918C817.992 260.232 834.997 255.181 844.512 252.401C848.815 251.143 851.426 246.773 850.338 242.65L817.586 118.489C817.141 116.815 816.035 115.491 814.455 114.762C812.743 113.968 810.738 114.015 808.951 114.866L724.068 155.516V155.525Z" fill="#E9562A"/>
<path d="M629.424 169.74C624.658 170.459 621.423 175.159 622.615 179.642L655.367 303.803C656.644 308.646 661.76 311.294 666.744 309.677C676.987 306.357 693.179 301.212 700.282 299.528C727.454 293.088 758.532 293.854 758.532 293.854L722.545 155.771L629.434 169.74H629.424Z" fill="#F6CE52"/>
<path d="M663.765 311.587C662.035 311.587 660.342 311.162 658.809 310.329C656.407 309.015 654.695 306.83 653.995 304.182L621.243 180.021C620.591 177.552 621.054 174.866 622.511 172.653C624.043 170.326 626.483 168.756 629.216 168.35L723.595 154.192L760.385 295.329L758.503 295.282C758.191 295.282 727.293 294.601 700.613 300.919C693.415 302.621 676.581 307.993 667.18 311.039C666.045 311.407 664.9 311.587 663.765 311.587ZM629.632 171.14C627.694 171.433 625.963 172.549 624.875 174.195C623.863 175.736 623.532 177.59 623.977 179.273L656.729 303.435C657.23 305.326 658.45 306.887 660.162 307.823C662.006 308.835 664.191 309.005 666.3 308.324C677.829 304.588 693.018 299.784 699.951 298.148C723.179 292.643 749.518 292.36 756.687 292.407L721.486 157.36L629.632 171.14Z" fill="#E9562A"/>
<path d="M755.505 126.547C728.144 144.885 723.368 153.161 722.545 155.771C720.578 154.021 712.473 149.709 680.278 149.709C660.077 149.709 645.9 153.634 638.04 156.622C633.86 158.211 631.514 162.694 632.602 166.827L664.427 287.46C665.439 291.281 669.185 293.646 673.232 292.955C679.371 291.896 690.918 290.459 712.558 288.926C736.325 287.233 754.323 292.492 758.541 293.873C758.541 293.873 758.825 294.27 759.014 294.034C759.298 294.128 759.487 294.194 759.487 294.194C759.487 294.194 774.979 275.336 796.003 263.239C813.245 253.318 823.487 247.984 829.54 245.128C834.383 242.839 836.955 237.505 835.66 232.577L805.045 116.512C803.522 110.733 797.526 107.546 791.52 109.239C783.16 111.594 770.562 116.474 755.505 126.575V126.547Z" fill="#F6CE52"/>
<path d="M759.95 295.849L758.986 295.509C758.929 295.509 758.882 295.509 758.825 295.509C758.38 295.5 758.03 295.31 757.775 295.102C752.564 293.438 735.37 288.718 712.652 290.326C690.323 291.915 679.021 293.39 673.459 294.346C668.712 295.169 664.238 292.36 663.046 287.82L631.221 167.187C629.944 162.344 632.716 157.123 637.53 155.289C645.937 152.092 660.171 148.281 680.25 148.281H680.278C707.224 148.281 717.797 151.26 721.94 153.624C724.257 149.311 731.729 140.781 754.72 125.364C770.165 115.008 783.056 110.119 791.142 107.839C794.528 106.884 797.999 107.281 800.912 108.946C803.655 110.516 805.603 113.06 806.416 116.115L837.031 232.18C838.516 237.817 835.622 243.785 830.146 246.376C822.523 249.979 811.268 256.051 796.703 264.44C776.161 276.262 760.726 294.885 760.575 295.064L759.941 295.831L759.95 295.849ZM758.522 292.35L759.033 292.52C762.192 288.86 776.672 272.706 795.294 261.991C809.925 253.573 821.246 247.454 828.935 243.822C833.106 241.855 835.404 237.164 834.288 232.918L803.673 116.852C803.059 114.535 801.583 112.606 799.503 111.424C797.252 110.137 794.547 109.835 791.908 110.582C784.011 112.805 771.423 117.59 756.29 127.729C728.721 146.209 724.522 154.192 723.898 156.197L723.245 158.287L721.609 156.83C720.105 155.497 712.681 151.127 680.278 151.127H680.25C660.606 151.127 646.722 154.835 638.542 157.946C635.071 159.27 633.056 163.006 633.973 166.468L665.799 287.101C666.622 290.203 669.705 292.123 672.996 291.556C681.167 290.146 694.446 288.785 712.463 287.508C735.502 285.862 753.027 290.629 758.532 292.369L758.522 292.35Z" fill="#E9562A"/>
<path d="M723.913 155.379L721.17 156.103L757.166 292.534L759.909 291.811L723.913 155.379Z" fill="#E9562A"/>
<path d="M681.413 273.794C676.675 273.794 672.542 270.664 671.294 265.916L649.995 185.185C648.434 179.255 651.99 172.984 657.93 171.206C665.647 168.898 674.32 167.782 683.721 167.877C700.423 168.057 708.094 169.863 711.584 171.338C712.974 171.925 714.005 173.145 714.411 174.658L738.774 267.022C739.257 268.838 738.746 270.73 737.422 272.101C736.136 273.435 734.31 273.983 732.551 273.576C726.905 272.271 717.93 270.862 707.28 271.524C696.82 272.177 688.611 272.905 682.879 273.681C682.388 273.747 681.896 273.785 681.413 273.785V273.794ZM682.586 170.714C673.999 170.714 665.78 171.821 658.743 173.93C654.26 175.273 651.565 180.002 652.747 184.466L674.046 265.197C675.058 269.018 678.614 271.411 682.51 270.881C688.308 270.096 696.593 269.368 707.11 268.706C718.1 268.015 727.359 269.472 733.194 270.824C733.989 271.004 734.793 270.758 735.389 270.143C736.013 269.5 736.259 268.611 736.032 267.769L711.669 175.405C711.489 174.743 711.063 174.214 710.477 173.968C707.214 172.587 699.922 170.903 683.683 170.724C683.314 170.724 682.946 170.724 682.577 170.724L682.586 170.714Z" fill="#E9562A"/>
<path d="M718.271 201.675L657.707 203.885L657.81 206.721L718.375 204.511L718.271 201.675Z" fill="#E9562A"/>
<path d="M671.494 169.673L668.734 170.332L677.028 205.039L679.787 204.38L671.494 169.673Z" fill="#E9562A"/>
<path d="M730.926 238.47L667.319 242.038L667.478 244.871L731.085 241.303L730.926 238.47Z" fill="#E9562A"/>
<path d="M708.261 241.898L698.075 269.289L700.734 270.278L710.921 242.887L708.261 241.898Z" fill="#E9562A"/>
<path d="M764.831 263.485C764.405 263.485 763.97 263.428 763.544 263.315C761.776 262.861 760.442 261.518 759.969 259.73L735.606 167.366C735.209 165.872 735.483 164.292 736.353 163.035C738.595 159.8 744.222 153.917 758.305 144.261C766.23 138.823 774.146 134.841 781.826 132.41C784.739 131.493 787.775 131.767 790.376 133.205C792.939 134.614 794.764 136.979 795.53 139.854L816.829 220.585C818.191 225.758 815.675 231.253 810.852 233.646C805.593 236.256 798.264 240.314 789.061 245.714C779.67 251.218 772.728 257.536 768.566 261.868C767.554 262.927 766.221 263.495 764.84 263.495L764.831 263.485ZM759.912 146.606C746.189 156.017 740.798 161.616 738.689 164.652C738.292 165.229 738.169 165.957 738.349 166.647L762.712 259.012C762.92 259.806 763.487 260.374 764.254 260.572C765.057 260.78 765.899 260.525 766.514 259.891C770.808 255.437 777.958 248.93 787.624 243.264C796.883 237.836 804.279 233.741 809.584 231.102C813.216 229.305 815.108 225.181 814.077 221.304L792.778 140.572C792.22 138.454 790.877 136.723 789.004 135.683C787.085 134.624 784.843 134.425 782.677 135.106C775.366 137.414 767.488 141.395 759.903 146.597L759.912 146.606Z" fill="#E9562A"/>
<path d="M797.965 160.023L745.421 192.64L746.918 195.05L799.461 162.434L797.965 160.023Z" fill="#E9562A"/>
<path d="M808.419 197.96L752.639 231.171L754.091 233.609L809.87 200.398L808.419 197.96Z" fill="#E9562A"/>
<path d="M788.03 204.838C786.782 204.838 785.515 204.488 784.276 203.797C781.126 202.048 778.525 198.284 777.324 193.725C775.329 186.159 777.693 179.018 782.706 177.467C784.541 176.9 786.508 177.164 788.399 178.214C791.549 179.964 794.15 183.728 795.351 188.287C797.346 195.853 794.982 202.993 789.969 204.545C789.336 204.743 788.692 204.838 788.03 204.838ZM784.635 180.021C784.285 180.021 783.916 180.068 783.538 180.181C780.105 181.241 778.506 187.114 780.058 192.997C781.051 196.77 783.197 199.958 785.647 201.319C786.489 201.783 787.766 202.256 789.128 201.83C792.57 200.771 794.159 194.898 792.608 189.015C791.615 185.241 789.477 182.054 787.028 180.692C786.423 180.352 785.571 180.011 784.635 180.011V180.021Z" fill="#E9562A"/>
<path d="M763.573 220.878C762.305 220.878 761.038 220.547 759.875 219.894C757.718 218.693 756.082 216.518 755.401 213.917C754.096 208.98 756.546 203.882 760.849 202.549C762.778 201.953 764.849 202.19 766.684 203.211C768.841 204.412 770.467 206.587 771.158 209.188C772.463 214.125 770.023 219.223 765.72 220.556C765.02 220.774 764.301 220.878 763.582 220.878H763.573ZM762.986 205.065C762.551 205.065 762.107 205.131 761.681 205.263C758.815 206.143 757.227 209.708 758.144 213.189C758.636 215.043 759.771 216.584 761.256 217.407C762.428 218.06 763.677 218.201 764.878 217.833C767.744 216.953 769.332 213.397 768.415 209.907C767.923 208.053 766.798 206.512 765.303 205.689C764.556 205.273 763.771 205.065 762.986 205.065Z" fill="#E9562A"/>
<path d="M703.781 197.915C702.665 197.915 701.521 197.603 700.423 196.988C697.775 195.522 695.619 192.429 694.635 188.722C692.971 182.413 695.099 176.417 699.478 175.065C701.142 174.554 702.911 174.781 704.604 175.727C707.252 177.193 709.408 180.285 710.392 183.993C712.056 190.301 709.928 196.297 705.55 197.65C704.973 197.83 704.377 197.915 703.781 197.915ZM701.227 177.647C700.934 177.647 700.622 177.685 700.31 177.789C697.492 178.659 696.149 183.34 697.378 188.003C698.163 190.982 699.818 193.413 701.795 194.51C702.495 194.898 703.563 195.285 704.708 194.935C707.526 194.065 708.869 189.384 707.64 184.721C706.855 181.742 705.2 179.311 703.223 178.214C702.712 177.93 702.012 177.647 701.227 177.647Z" fill="#E9562A"/>
<path d="M678.586 237.457L671.7 211.373L690.673 210.2L696.697 236.266L678.586 237.457ZM675.323 213.993L680.723 234.478L693.179 233.655L688.45 213.179L675.323 213.993Z" fill="#E9562A"/>
<path d="M470.825 340C464.483 340 459.325 334.842 459.325 328.5C459.325 322.158 464.483 317 470.825 317C477.166 317 482.325 322.158 482.325 328.5C482.325 334.842 477.166 340 470.825 340ZM470.825 319.809C466.033 319.809 462.143 323.708 462.143 328.491C462.143 333.273 466.042 337.172 470.825 337.172C475.607 337.172 479.506 333.273 479.506 328.491C479.506 323.708 475.607 319.809 470.825 319.809Z" fill="#E9562A"/>
<path d="M969.534 362.356C960.908 362.356 950.93 360.748 940.565 357.4C913.345 348.614 895.262 331.628 899.32 318.699L927.05 164.926L1066.38 209.917L996.64 350.137C993.991 358.1 983.55 362.356 969.524 362.356H969.534ZM929.272 168.634L902.081 319.39L902.053 319.484C898.487 330.531 916.523 346.656 941.435 354.705C966.346 362.753 990.416 360.209 993.982 349.163L994.058 348.964L1062.38 211.609L929.272 168.634Z" fill="#E9562A"/>
<path d="M1020.64 260.317C1008.88 260.317 993.083 257.99 978.121 254.396C950.231 247.691 921.763 235.727 923.919 226.751C926.075 217.785 956.879 220.074 984.77 226.78C1012.66 233.485 1041.13 245.449 1038.97 254.425C1037.97 258.586 1030.81 260.317 1020.64 260.317ZM942.267 223.678C932.781 223.678 927.21 225.162 926.671 227.413C925.565 232.029 944.849 243.473 978.783 251.635C1012.72 259.797 1035.09 258.368 1036.21 253.753C1037.32 249.138 1018.03 237.694 984.099 229.532C966.668 225.342 952.283 223.678 942.267 223.678Z" fill="#E9562A"/>
<path d="M932.005 292.255C931.164 292.255 930.303 292.123 929.461 291.83C927.456 291.149 925.83 289.721 924.893 287.82C923.957 285.919 923.815 283.762 924.496 281.757C925.177 279.752 926.605 278.126 928.506 277.189C930.407 276.253 932.563 276.111 934.568 276.792C936.574 277.473 938.191 278.901 939.137 280.802C940.073 282.703 940.215 284.86 939.534 286.865C938.408 290.165 935.316 292.246 932.015 292.246L932.005 292.255ZM932.005 279.213C931.239 279.213 930.473 279.393 929.754 279.743C928.534 280.348 927.617 281.389 927.182 282.675C926.747 283.961 926.832 285.351 927.437 286.571C928.043 287.791 929.083 288.709 930.369 289.144C933.027 290.052 935.93 288.624 936.838 285.957C937.273 284.67 937.188 283.28 936.583 282.06C935.978 280.84 934.937 279.923 933.651 279.488C933.112 279.308 932.554 279.213 932.005 279.213Z" fill="#E9562A"/>
<path d="M952.718 346.666C951.857 346.666 950.997 346.524 950.155 346.24C946.012 344.831 943.79 340.31 945.199 336.168C946.608 332.025 951.129 329.803 955.271 331.212C957.276 331.893 958.894 333.321 959.84 335.222C960.776 337.123 960.918 339.279 960.237 341.284C959.556 343.289 958.128 344.916 956.227 345.853C955.12 346.401 953.928 346.675 952.727 346.675L952.718 346.666ZM952.718 333.633C950.59 333.633 948.604 334.967 947.885 337.085C946.977 339.743 948.405 342.646 951.072 343.554C952.368 343.989 953.749 343.904 954.969 343.299C956.189 342.694 957.106 341.653 957.541 340.367C957.976 339.081 957.891 337.69 957.286 336.47C956.681 335.25 955.64 334.333 954.354 333.898C953.815 333.718 953.257 333.624 952.718 333.624V333.633Z" fill="#E9562A"/>
<path d="M1012.6 297.949C1011.74 297.949 1010.88 297.807 1010.04 297.523C1008.04 296.843 1006.42 295.414 1005.47 293.513C1004.54 291.612 1004.39 289.456 1005.08 287.451C1006.49 283.308 1011.01 281.086 1015.15 282.495C1019.29 283.904 1021.51 288.425 1020.1 292.568C1019.42 294.573 1018 296.199 1016.09 297.136C1014.99 297.684 1013.8 297.959 1012.59 297.959L1012.6 297.949ZM1012.6 284.916C1010.48 284.916 1008.49 286.25 1007.77 288.368C1007.34 289.655 1007.42 291.045 1008.03 292.265C1008.63 293.485 1009.67 294.402 1010.96 294.837C1012.24 295.273 1013.63 295.187 1014.86 294.582C1016.08 293.977 1016.99 292.936 1017.43 291.65C1018.34 288.993 1016.91 286.089 1014.24 285.181C1013.7 285.001 1013.14 284.907 1012.6 284.907V284.916Z" fill="#E9562A"/>
<path d="M918.434 326.757C917.573 326.757 916.712 326.615 915.871 326.332C913.866 325.651 912.248 324.223 911.303 322.322C910.366 320.421 910.224 318.264 910.905 316.259C912.314 312.117 916.835 309.894 920.978 311.303C925.12 312.713 927.343 317.233 925.934 321.376C925.253 323.381 923.825 325.008 921.924 325.944C920.817 326.492 919.625 326.767 918.424 326.767L918.434 326.757ZM918.434 313.725C916.306 313.725 914.32 315.058 913.601 317.177C913.166 318.463 913.251 319.853 913.856 321.073C914.461 322.293 915.502 323.211 916.788 323.646C918.074 324.081 919.465 323.996 920.685 323.39C921.905 322.785 922.822 321.745 923.257 320.458C924.165 317.801 922.737 314.897 920.07 313.989C919.531 313.81 918.973 313.715 918.434 313.715V313.725Z" fill="#E9562A"/>
<path d="M1064.02 211.385C1067.89 199.385 1040.57 179.825 1003 167.696C965.425 155.567 931.825 155.462 927.951 167.462C924.078 179.462 951.398 199.021 988.972 211.15C1026.55 223.279 1060.15 223.384 1064.02 211.385Z" fill="#F6CE52"/>
<path d="M1039.24 221.767C1025.51 221.767 1007.68 218.703 988.591 212.536C970.281 206.625 953.787 198.775 942.144 190.443C930.076 181.799 924.572 173.495 926.652 167.054C930.833 154.116 964.587 153.813 1003.5 166.383C1042.41 178.942 1069.61 198.927 1065.44 211.865C1063.31 218.457 1053.5 221.767 1039.25 221.767H1039.24ZM952.85 159.97C939.562 159.97 930.975 162.921 929.357 167.915C927.712 173.012 932.98 180.371 943.799 188.126C955.205 196.297 971.425 204.005 989.461 209.831C1029.35 222.713 1059.55 220.821 1062.73 210.985C1065.91 201.14 1042.51 181.95 1002.63 169.069C983.002 162.732 965.722 159.97 952.85 159.97Z" fill="#E9562A"/>
<path d="M971.681 328.791C970.139 328.791 967.472 328.148 962.734 325.963C960.388 324.875 958.241 323.693 956.7 322.615C955.64 321.877 953.437 320.345 954.222 318.633L1004.1 214.059L1024.51 217.993L973.837 327.684C973.676 328.044 973.336 328.781 971.681 328.781V328.791ZM957.05 319.286C957.797 320.023 960.104 321.631 963.916 323.39C967.737 325.159 970.461 325.878 971.501 325.963L1020.41 220.103L1005.71 217.265L957.05 319.286Z" fill="#E9562A"/>
<path d="M1029.3 204.686C1027.85 204.686 1025.2 204.005 1020.15 201.679C1017.82 200.601 1015.67 199.447 1014.12 198.435C1012.49 197.376 1010.82 196.127 1011.52 194.623L1053.68 103.347L1073.29 112.407L1072.7 113.694L1031.12 203.674C1030.94 204.072 1030.66 204.677 1029.3 204.677V204.686ZM1014.4 195.134C1015.21 195.825 1017.43 197.281 1021.34 199.097C1025.26 200.913 1027.81 201.65 1028.86 201.821L1069.53 113.798L1055.07 107.12L1014.4 195.144V195.134Z" fill="#E9562A"/>
<path d="M1071.45 113.124C1071.76 112.441 1068.21 110.126 1063.5 107.952C1058.8 105.779 1054.73 104.571 1054.42 105.253C1054.1 105.936 1057.66 108.252 1062.36 110.425C1067.06 112.598 1071.13 113.807 1071.45 113.124Z" fill="#F6CE52"/>
<path d="M1070.87 114.696C1069.43 114.696 1066.78 114.015 1061.73 111.689C1059.39 110.61 1057.24 109.457 1055.69 108.445C1054.07 107.385 1052.39 106.137 1053.09 104.633C1053.47 103.82 1054.26 102.108 1064.06 106.638C1066.4 107.716 1068.55 108.87 1070.1 109.882C1071.72 110.941 1073.4 112.19 1072.71 113.694C1072.53 114.091 1072.24 114.696 1070.88 114.696H1070.87Z" fill="#E9562A"/>
<path d="M963.084 303.945C966.682 303.945 969.6 301.028 969.6 297.429C969.6 293.83 966.682 290.913 963.084 290.913C959.485 290.913 956.567 293.83 956.567 297.429C956.567 301.028 959.485 303.945 963.084 303.945Z" fill="#F6CE52"/>
<path d="M963.074 305.373C962.232 305.373 961.372 305.241 960.521 304.948C956.378 303.539 954.155 299.018 955.565 294.875C956.246 292.87 957.674 291.244 959.575 290.307C961.476 289.371 963.632 289.229 965.637 289.91C967.642 290.591 969.259 292.019 970.205 293.92C971.142 295.821 971.283 297.977 970.602 299.982C969.477 303.283 966.384 305.364 963.084 305.364L963.074 305.373ZM963.074 292.331C962.308 292.331 961.542 292.511 960.823 292.861C959.603 293.466 958.686 294.506 958.251 295.793C957.343 298.45 958.771 301.354 961.438 302.262C964.095 303.17 966.999 301.742 967.907 299.075C968.342 297.788 968.257 296.398 967.652 295.178C967.046 293.958 966.006 293.041 964.72 292.605C964.181 292.426 963.623 292.331 963.074 292.331Z" fill="#E9562A"/>
<path d="M568.933 131.638L421.867 95.1608C418.182 94.2466 414.453 96.4934 413.539 100.179L385.019 215.163C384.105 218.848 386.352 222.577 390.037 223.491L537.104 259.968C540.789 260.882 544.518 258.636 545.432 254.95L573.952 139.966C574.866 136.281 572.619 132.552 568.933 131.638Z" fill="#F6CE52"/>
<path d="M538.753 261.584C538.091 261.584 537.429 261.508 536.757 261.338L389.699 224.869C387.552 224.34 385.736 222.997 384.592 221.096C383.448 219.195 383.117 216.963 383.646 214.816L412.161 99.8475C412.691 97.7006 414.034 95.8847 415.935 94.7403C417.836 93.5959 420.068 93.2649 422.215 93.7945L569.273 130.264C573.718 131.361 576.433 135.872 575.326 140.317L546.811 255.295C545.875 259.068 542.479 261.594 538.753 261.594V261.584ZM537.438 258.586C540.361 259.314 543.331 257.527 544.049 254.604L572.564 139.627C573.293 136.704 571.505 133.735 568.583 133.016L421.524 96.5467C420.106 96.1968 418.64 96.4143 417.391 97.1709C416.143 97.9276 415.263 99.1192 414.913 100.538L386.398 215.506C386.048 216.925 386.266 218.391 387.023 219.639C387.779 220.888 388.971 221.767 390.39 222.117L537.448 258.586H537.438Z" fill="#E9562A"/>
<path d="M408.761 127.814L408.078 130.568L566.554 169.875L567.237 167.121L408.761 127.814Z" fill="#E9562A"/>
<path d="M418.831 113.642L418.148 116.396L443.171 122.603L443.854 119.849L418.831 113.642Z" fill="#E9562A"/>
<path d="M538.481 143.325L537.798 146.079L562.821 152.285L563.504 149.531L538.481 143.325Z" fill="#E9562A"/>
<path d="M500.922 182.366L493.526 169.163L602.12 111.925L608.173 122.716L504.308 183.284C503.126 183.974 501.603 183.558 500.932 182.366H500.922Z" fill="#F6CE52"/>
<path d="M503.078 185.043C502.738 185.043 502.388 184.995 502.057 184.901C501.045 184.627 500.213 183.974 499.693 183.057L491.578 168.586L602.678 110.024L610.083 123.236L505.017 184.504C504.412 184.854 503.75 185.033 503.069 185.033L503.078 185.043ZM502.161 181.676C502.293 181.922 502.52 182.092 502.795 182.168C503.069 182.243 503.343 182.205 503.589 182.064L606.253 122.196L601.562 113.826L495.474 169.74L502.161 181.676Z" fill="#E9562A"/>
<path d="M490.036 189.346C484.702 189.346 480.446 187.965 480.153 187.871L478.923 187.464L479.217 186.206C479.33 185.705 482.177 173.864 491.313 168.738C491.843 168.444 492.363 168.17 492.892 167.905L494.103 167.3L504.053 185.043L502.899 185.762C502.397 186.074 501.887 186.376 501.367 186.669C497.697 188.731 493.621 189.355 490.036 189.355V189.346ZM482.357 185.535C485.487 186.301 493.602 187.757 499.976 184.182C500.061 184.135 500.147 184.087 500.241 184.031L492.968 171.055C492.883 171.102 492.788 171.149 492.703 171.197C486.329 174.772 483.331 182.451 482.357 185.525V185.535Z" fill="#E9562A"/>
<path d="M479.904 185.268L471.2 190.146L472.588 192.621L481.292 187.743L479.904 185.268Z" fill="#E9562A"/>
<path d="M527.128 159.549L511.288 168.427L512.675 170.902L528.515 162.024L527.128 159.549Z" fill="#E9562A"/>
<path d="M427.36 195.475C426.821 194.983 426.622 194.586 426.603 194.028C426.575 193.224 426.745 192.628 427.133 191.937C428.031 190.311 429.318 189.507 431.294 189.516C433.848 189.535 436.269 190.925 438.236 192.439C440.61 194.255 442.653 196.524 444.715 198.681C448.744 202.871 453.057 206.956 458.75 208.687C463.687 210.191 469.626 209.557 473.097 205.396C476.568 201.234 477.372 195.125 473.334 191.266C471.13 189.166 467.782 192.505 469.986 194.614C471.187 195.768 471.499 197.272 471.206 198.775C470.856 200.544 469.967 202.161 468.567 203.268C464.69 206.36 458.769 204.185 455.109 201.745C450.285 198.52 446.852 193.621 442.483 189.857C438.113 186.093 432.174 183.019 426.755 185.847C422.281 188.183 419.888 195.068 424.002 198.832C426.244 200.884 429.592 197.546 427.35 195.484L427.36 195.475Z" fill="#E9562A"/>
<path d="M142.491 224.915C103.979 206.435 90.7003 247.198 89.6694 250.612C88.6858 250.546 87.6833 250.716 86.7281 251.151L75.7287 256.182L70.5364 258.556L59.5371 263.588C58.5819 264.023 57.7969 264.676 57.201 265.461C53.9476 264.013 14.4332 247.368 3.20685 288.585C-8.51127 331.58 55.8107 445.961 75.2842 344.726L137.762 316.173C227.052 367.708 182.667 244.218 142.491 224.934V224.915Z" fill="#F6CE52"/>
<path d="M49.8713 386.794C44.3102 386.794 38.295 383.815 32.2232 377.998C13.0524 359.612 -5.10649 313.648 1.83548 288.197C5.26864 275.609 11.6337 267.031 20.7604 262.699C35.2307 255.833 52.283 261.895 56.8133 263.739C57.428 263.134 58.1563 262.642 58.9413 262.283L86.1322 249.855C86.9172 249.496 87.7684 249.278 88.6196 249.203C90.1896 244.568 96.7722 227.705 111.432 221.255C120.681 217.188 131.331 217.983 143.096 223.629C166.882 235.044 189.761 278.853 191.104 305.382C191.652 316.126 188.739 323.767 182.686 327.475C173.711 332.97 158.569 329.688 137.677 317.743L76.5232 345.69C71.8889 369.306 64.4551 382.897 54.4205 386.084C52.9451 386.557 51.4129 386.794 49.8618 386.794H49.8713ZM36.0346 262.321C31.4193 262.321 26.5485 263.087 21.9804 265.252C13.6293 269.215 7.77494 277.179 4.57823 288.925C-1.9476 312.863 15.7289 358.231 34.1904 375.936C39.0517 380.599 46.3625 385.668 53.5787 383.38C62.5163 380.533 69.5339 367.065 73.8939 344.433L74.0358 343.714L137.847 314.556L138.481 314.924C158.446 326.444 173.228 329.953 181.22 325.054C187.68 321.1 188.626 312.257 188.285 305.533C186.989 279.988 164.253 236.927 141.886 226.192C130.905 220.924 121.05 220.139 112.595 223.856C97.6612 230.429 91.6745 248.928 91.0408 251.019L90.7098 252.097L89.5843 252.021C88.7898 251.964 88.0427 252.106 87.3239 252.437L60.1329 264.865C59.4236 265.186 58.8183 265.669 58.3454 266.302L57.6645 267.201L56.6336 266.747C55.2622 266.132 46.3057 262.33 36.0441 262.33L36.0346 262.321Z" fill="#E9562A"/>
<path d="M36.5832 308.181C43.6869 308.181 49.4457 302.422 49.4457 295.319C49.4457 288.215 43.6869 282.456 36.5832 282.456C29.4794 282.456 23.7206 288.215 23.7206 295.319C23.7206 302.422 29.4794 308.181 36.5832 308.181Z" fill="#F6CE52"/>
<path d="M36.5926 309.609C34.9091 309.609 33.2257 309.307 31.5989 308.701C28.0239 307.368 25.1772 304.72 23.5977 301.249C22.0088 297.778 21.8764 293.9 23.2005 290.325C24.534 286.75 27.1822 283.903 30.6532 282.324C34.1242 280.735 38.0018 280.602 41.5769 281.926C45.1519 283.26 47.9987 285.908 49.5781 289.379C51.167 292.85 51.2994 296.728 49.9753 300.303C48.6418 303.878 45.9936 306.725 42.5226 308.304C40.6311 309.174 38.6166 309.6 36.5926 309.6V309.609ZM36.5832 283.865C34.9659 283.865 33.3486 284.215 31.8259 284.906C29.0454 286.173 26.9268 288.452 25.8581 291.318C24.7894 294.184 24.9029 297.295 26.1702 300.076C27.4376 302.856 29.7169 304.975 32.5826 306.044C35.4482 307.112 38.5598 306.999 41.3404 305.732C44.121 304.464 46.2395 302.185 47.3082 299.319C48.377 296.454 48.2635 293.342 46.9961 290.561C45.7288 287.781 43.4495 285.662 40.5838 284.594C39.2786 284.111 37.9262 283.865 36.5832 283.865Z" fill="#E9562A"/>
<path d="M123.188 305.391C130.291 305.391 136.05 299.632 136.05 292.529C136.05 285.425 130.291 279.666 123.188 279.666C116.084 279.666 110.325 285.425 110.325 292.529C110.325 299.632 116.084 305.391 123.188 305.391Z" fill="#F6CE52"/>
<path d="M123.188 306.819C121.504 306.819 119.821 306.517 118.194 305.911C114.619 304.578 111.772 301.93 110.193 298.459C108.604 294.988 108.471 291.11 109.795 287.535C111.129 283.96 113.777 281.113 117.248 279.534C120.719 277.945 124.597 277.812 128.172 279.136C131.747 280.47 134.594 283.118 136.173 286.589C137.762 290.06 137.894 293.938 136.57 297.513C135.246 301.088 132.589 303.935 129.118 305.514C127.226 306.384 125.212 306.81 123.188 306.81V306.819ZM123.178 281.075C121.561 281.075 119.944 281.425 118.421 282.116C115.64 283.383 113.522 285.662 112.453 288.528C111.384 291.394 111.498 294.505 112.765 297.286C114.033 300.066 116.312 302.185 119.178 303.254C122.043 304.322 125.155 304.209 127.935 302.941C130.716 301.674 132.835 299.395 133.903 296.529C134.972 293.663 134.858 290.552 133.591 287.771C132.324 284.991 130.044 282.872 127.179 281.803C125.874 281.321 124.521 281.075 123.178 281.075Z" fill="#E9562A"/>
<path d="M74.3857 310.319L69.2974 312.645L66.9708 307.557C66.0345 305.505 63.585 304.587 61.5232 305.523C59.4614 306.46 58.5534 308.909 59.4898 310.971L61.8164 316.059L56.7281 318.386C54.6758 319.322 53.7584 321.772 54.6947 323.834C55.631 325.886 58.0806 326.803 60.1423 325.867L65.2306 323.54L67.5572 328.629C68.4935 330.681 70.9431 331.598 73.0049 330.662C75.0666 329.726 75.9746 327.276 75.0383 325.214L72.7117 320.126L77.7999 317.8C79.8523 316.863 80.7697 314.414 79.8333 312.352C78.897 310.29 76.4475 309.382 74.3857 310.319Z" fill="#F6CE52"/>
<path d="M71.312 332.431C70.6594 332.431 70.0068 332.317 69.3731 332.081C67.9828 331.561 66.8857 330.539 66.271 329.206L64.5402 325.413L60.7477 327.144C57.9766 328.411 54.6947 327.182 53.4274 324.411C52.1601 321.639 53.3896 318.358 56.1607 317.09L59.9532 315.36L58.2225 311.567C56.9551 308.796 58.1846 305.514 60.9558 304.247C63.7269 302.979 67.0087 304.209 68.276 306.98L70.0068 310.772L73.7993 309.042C75.1423 308.427 76.6367 308.38 78.0269 308.89C79.4172 309.411 80.5143 310.432 81.1291 311.766C82.3964 314.537 81.1669 317.819 78.3958 319.086L74.6033 320.817L76.334 324.609C77.6013 327.38 76.3718 330.662 73.6007 331.929C72.8725 332.26 72.0969 332.431 71.312 332.431ZM65.94 321.649L68.853 328.023C69.1462 328.676 69.6852 329.168 70.3662 329.423C71.0377 329.678 71.7754 329.65 72.4185 329.357C73.771 328.742 74.3668 327.144 73.7426 325.791L70.8296 319.417L77.2041 316.504C78.5566 315.889 79.1524 314.291 78.5282 312.938C77.904 311.586 76.3151 310.99 74.9627 311.614L68.5882 314.527L65.6752 308.153C65.0604 306.8 63.4621 306.204 62.1096 306.829C60.7571 307.443 60.1613 309.042 60.7855 310.394L63.6985 316.769L57.324 319.682C55.9715 320.296 55.3757 321.895 55.9999 323.247C56.6146 324.6 58.213 325.196 59.5655 324.571L65.94 321.658V321.649Z" fill="#E9562A"/>
<path d="M124.19 248.654C126.52 248.654 128.408 246.766 128.408 244.436C128.408 242.106 126.52 240.218 124.19 240.218C121.861 240.218 119.972 242.106 119.972 244.436C119.972 246.766 121.861 248.654 124.19 248.654Z" fill="#F6CE52"/>
<path d="M124.19 250.082C123.528 250.082 122.857 249.959 122.213 249.723C120.804 249.193 119.679 248.153 119.055 246.782C118.43 245.41 118.374 243.878 118.903 242.469C119.433 241.06 120.473 239.934 121.845 239.31C124.672 238.014 128.03 239.263 129.316 242.1C130.612 244.928 129.354 248.285 126.526 249.572C125.779 249.912 124.985 250.082 124.181 250.082H124.19ZM124.181 241.637C123.793 241.637 123.396 241.722 123.017 241.892C122.336 242.204 121.816 242.762 121.551 243.462C121.287 244.162 121.315 244.928 121.627 245.609C121.939 246.29 122.497 246.81 123.197 247.075C123.897 247.34 124.663 247.311 125.344 246.999C126.753 246.356 127.368 244.691 126.725 243.282C126.252 242.251 125.23 241.646 124.171 241.646L124.181 241.637Z" fill="#E9562A"/>
<path d="M118.809 261.961C121.138 261.961 123.027 260.073 123.027 257.743C123.027 255.413 121.138 253.525 118.809 253.525C116.479 253.525 114.591 255.413 114.591 257.743C114.591 260.073 116.479 261.961 118.809 261.961Z" fill="#F6CE52"/>
<path d="M118.809 263.389C118.147 263.389 117.475 263.266 116.832 263.03C115.423 262.5 114.297 261.46 113.673 260.089C113.049 258.717 112.992 257.185 113.522 255.776C114.051 254.367 115.092 253.241 116.463 252.617C119.291 251.321 122.649 252.57 123.935 255.407C125.23 258.235 123.973 261.592 121.145 262.879C120.398 263.219 119.603 263.389 118.799 263.389H118.809ZM118.799 254.944C118.411 254.944 118.014 255.029 117.636 255.199C116.227 255.842 115.612 257.507 116.255 258.916C116.567 259.597 117.125 260.117 117.825 260.382C118.525 260.647 119.291 260.618 119.972 260.306C121.381 259.663 121.996 257.998 121.353 256.589C120.88 255.558 119.858 254.953 118.799 254.953V254.944Z" fill="#E9562A"/>
<path d="M138.159 254.149C140.489 254.149 142.377 252.261 142.377 249.931C142.377 247.601 140.489 245.713 138.159 245.713C135.83 245.713 133.941 247.601 133.941 249.931C133.941 252.261 135.83 254.149 138.159 254.149Z" fill="#F6CE52"/>
<path d="M138.159 255.568C136.022 255.568 133.969 254.348 133.024 252.276C132.399 250.905 132.343 249.373 132.872 247.964C133.402 246.555 134.442 245.429 135.814 244.805C137.185 244.181 138.717 244.124 140.126 244.654C141.536 245.183 142.661 246.224 143.285 247.595C144.581 250.423 143.333 253.78 140.495 255.066C139.739 255.416 138.944 255.577 138.159 255.577V255.568ZM138.15 247.122C137.753 247.122 137.355 247.207 136.986 247.377C136.305 247.689 135.785 248.247 135.52 248.947C135.256 249.647 135.284 250.413 135.596 251.094C136.239 252.503 137.904 253.118 139.313 252.475C139.994 252.163 140.514 251.605 140.77 250.905C141.034 250.205 141.006 249.439 140.694 248.758C140.382 248.077 139.824 247.557 139.124 247.292C138.802 247.169 138.471 247.113 138.14 247.113L138.15 247.122Z" fill="#E9562A"/>
<path d="M132.778 267.447C135.107 267.447 136.996 265.558 136.996 263.229C136.996 260.899 135.107 259.01 132.778 259.01C130.448 259.01 128.56 260.899 128.56 263.229C128.56 265.558 130.448 267.447 132.778 267.447Z" fill="#F6CE52"/>
<path d="M132.787 268.875C130.65 268.875 128.597 267.655 127.652 265.583C127.027 264.212 126.971 262.68 127.5 261.271C128.03 259.862 129.07 258.736 130.442 258.112C133.27 256.816 136.627 258.065 137.913 260.902C139.209 263.73 137.961 267.087 135.123 268.374C134.367 268.723 133.572 268.884 132.787 268.884V268.875ZM132.768 260.429C132.381 260.429 131.983 260.514 131.605 260.684C130.924 260.997 130.404 261.555 130.139 262.254C129.874 262.954 129.903 263.72 130.215 264.401C130.858 265.81 132.522 266.425 133.932 265.782C135.341 265.139 135.956 263.474 135.312 262.065C134.84 261.034 133.818 260.429 132.759 260.429H132.768Z" fill="#E9562A"/>
<path d="M103.044 309.688L93.5391 314.032C93.2398 314.169 93.1081 314.522 93.2449 314.821L93.697 315.811C93.8337 316.11 94.1872 316.242 94.4865 316.105L103.992 311.761C104.291 311.624 104.423 311.271 104.286 310.972L103.834 309.982C103.697 309.683 103.344 309.551 103.044 309.688Z" fill="#F6CE52"/>
<path d="M94.2375 317.573C94.0011 317.573 93.7646 317.535 93.5282 317.45C93.0269 317.26 92.6203 316.892 92.4027 316.4L91.9487 315.407C91.7218 314.915 91.7028 314.376 91.892 313.865C92.0812 313.364 92.45 312.957 92.9418 312.74L102.447 308.399C102.939 308.172 103.478 308.153 103.988 308.342C104.49 308.531 104.896 308.9 105.114 309.392L105.568 310.385C106.031 311.397 105.587 312.588 104.575 313.052L95.0698 317.393C94.805 317.516 94.5213 317.573 94.2375 317.573Z" fill="#E9562A"/>
</svg>
