<?xml version="1.0" encoding="utf-8"?>
<!-- Generator: Adobe Illustrator 24.0.3, SVG Export Plug-In . SVG Version: 6.00 Build 0)  -->
<svg version="1.1" id="圖層_1" xmlns="http://www.w3.org/2000/svg" xmlns:xlink="http://www.w3.org/1999/xlink" x="0px" y="0px"
	 viewBox="0 0 23.6 16.5" style="enable-background:new 0 0 23.6 16.5;" xml:space="preserve">
<style type="text/css">
	.st0{fill:#F49DA9;}
</style>
<title>leaf</title>
<path class="st0" d="M18.3,16.5c-3.5,0.1-7-0.8-10.1-2.6C1.9,9.8,0.2,1.4,0.1,1L0,0.6l0.4-0.1c0.4-0.1,8.7-2,15,2.2s8,12.5,8.1,12.9
	l0.1,0.4l-0.4,0.1C21.6,16.4,19.9,16.6,18.3,16.5z M1,1.2c0.4,1.7,2.4,8.5,7.6,11.9s12.2,2.5,14,2.1c-0.4-1.7-2.4-8.5-7.6-11.9
	S2.8,0.9,1,1.2L1,1.2z"/>
</svg>
