<svg width="43" height="42" viewBox="0 0 43 42" fill="none" xmlns="http://www.w3.org/2000/svg">
<path d="M43 17.7523C42.8795 12.5725 38.5676 8.46798 33.3628 8.58806C32.404 8.60989 31.4836 8.77363 30.6179 9.06292C30.4371 3.93225 26.1527 -0.112244 20.9916 0.00237724C15.8306 0.116999 11.7599 4.33615 11.7982 9.44499C10.9709 9.23212 10.1053 9.1175 9.20674 9.13933C4.00188 9.25941 -0.1127 13.5604 0.00235526 18.7402C0.0954949 22.8229 2.80202 26.2288 6.48378 27.4296C5.45376 28.9743 4.86205 30.8355 4.91136 32.8332C5.0319 38.013 9.34371 42.1175 14.5486 41.9974C17.6112 41.9265 20.2849 40.4036 21.9559 38.1112C23.7311 40.3218 26.4759 41.7245 29.5331 41.6536C34.7325 41.5335 38.8525 37.2379 38.732 32.0527C38.6882 30.0604 38.0143 28.2265 36.9131 26.731C40.5455 25.361 43.0931 21.835 42.9945 17.7468L43 17.7523Z" fill="#E9562A"/>
<path d="M21.5013 28.5813C25.0749 28.5813 27.9718 25.6953 27.9718 22.1352C27.9718 18.5751 25.0749 15.6891 21.5013 15.6891C17.9278 15.6891 15.0309 18.5751 15.0309 22.1352C15.0309 25.6953 17.9278 28.5813 21.5013 28.5813Z" fill="#F5CD53"/>
</svg>
