<?xml version="1.0" encoding="UTF-8"?>
<svg id="_圖層_1" data-name="圖層_1" xmlns="http://www.w3.org/2000/svg" version="1.1" viewBox="0 0 190 189">
  <!-- Generator: Adobe Illustrator 29.5.1, SVG Export Plug-In . SVG Version: 2.1.0 Build 141)  -->
  <defs>
    <style>
      .st0 {
        fill: #299ea7;
      }
    </style>
  </defs>
  <path class="st0" d="M101.33,189h-14.4c-3.8-.87-7.7-1.18-11.52-1.96-34.87-7.16-63.34-34.43-72.31-68.8L.13,102.19c.29-5.05-.39-10.52,0-15.51C6.56,5,109.4-30.3,164.88,31.08c52.75,58.36,14.2,152.85-63.55,157.92h0ZM43.25,51.68c-5.13,1.08-8.92,5.23-9.51,10.44v64.64c.62,5.52,4.96,10,10.51,10.55,34.43-.34,69,.62,103.34-.48,4.53-1.64,7.67-5.55,8.06-10.41v-63.93c-.43-5.68-4.87-10.34-10.53-10.9l-101.87.11h0Z"/>
  <path class="st0" d="M145.66,66.73v59.66c0,.1-.89.89-1.12,1.1H44.83c-.23-.21-1.12-1-1.12-1.1v-59.66c.77,0,1.42.69,2.02,1.12,15.05,10.83,29.11,24.45,44.2,35.23,2.75,1.96,4.2,3.54,7.7,1.49l42.33-33.76,5.71-4.08h0Z"/>
  <path class="st0" d="M136.06,61.19l-41.5,32.8-41.25-32.8h82.75Z"/>
</svg>