<svg width="261" height="261" viewBox="0 0 261 261" fill="none" xmlns="http://www.w3.org/2000/svg">
<g clip-path="url(#clip0_38_1340)">
<path d="M130.5 260.301C202.573 260.301 261 202.031 261 130.151C261 58.2704 202.573 0 130.5 0C58.4268 0 0 58.2704 0 130.151C0 202.031 58.4268 260.301 130.5 260.301Z" fill="#159BA6"/>
<mask id="mask0_38_1340" style="mask-type:luminance" maskUnits="userSpaceOnUse" x="0" y="0" width="261" height="261">
<path d="M130.5 260.301C202.573 260.301 261 202.031 261 130.151C261 58.2704 202.573 0 130.5 0C58.4268 0 0 58.2704 0 130.151C0 202.031 58.4268 260.301 130.5 260.301Z" fill="white"/>
</mask>
<g mask="url(#mask0_38_1340)">
<path d="M77.6324 63.225C89.1087 47.788 107.531 36.6232 126.987 35.6067C146.443 34.5903 163.642 44.167 175.484 58.3335C182.271 66.449 187.055 76.1686 189.233 86.5235C189.614 88.3499 192.428 87.5717 192.046 85.7453C188.009 66.6078 175.197 49.5985 158.031 40.1648C149.511 35.4797 139.942 32.6845 130.182 32.621C120.422 32.5575 110.281 35.2097 101.364 39.6566C91.0162 44.834 82.0036 52.489 75.105 61.748C73.9924 63.2568 76.5197 64.702 77.6165 63.2092L77.6324 63.225Z" fill="white"/>
<path d="M84.6263 84.8877C80.6525 95.0203 79.8578 106.185 82.242 116.794C82.6553 118.62 85.4688 117.842 85.0555 116.016C82.7825 105.883 83.6567 95.3061 87.4398 85.65C88.1233 83.9031 85.3098 83.1566 84.6263 84.8718V84.8877Z" fill="white"/>
<path d="M98.3598 80.8379C97.1994 86.8094 97.2471 92.908 98.5187 98.8636C98.9002 100.69 101.714 99.9118 101.332 98.0854C100.188 92.6697 100.124 87.0476 101.173 81.6002C101.523 79.7738 98.7254 78.9956 98.3598 80.822V80.8379Z" fill="white"/>
<path d="M113.079 78.9796C111.553 84.9035 112.157 91.1292 114.684 96.6878C115.018 97.4024 116.051 97.5771 116.671 97.2118C117.402 96.783 117.514 95.9413 117.196 95.2266C115.002 90.3986 114.557 84.8876 115.876 79.7578C116.337 77.9473 113.54 77.1691 113.063 78.9796H113.079Z" fill="white"/>
<path d="M127.48 78.9638C127.591 84.3318 127.718 89.6998 127.83 95.0678C127.877 96.9419 130.786 96.9419 130.738 95.0678C130.627 89.6998 130.5 84.3318 130.389 78.9638C130.341 77.0897 127.432 77.0897 127.48 78.9638Z" fill="white"/>
<path d="M172.161 85.1259C175.944 94.7819 176.819 105.359 174.546 115.492C174.132 117.318 176.946 118.096 177.359 116.27C179.743 105.661 178.949 94.4961 174.975 84.3635C174.307 82.6483 171.478 83.3948 172.161 85.1417V85.1259Z" fill="white"/>
<path d="M158.428 81.076C159.477 86.5235 159.429 92.1456 158.269 97.5613C157.887 99.3877 160.685 100.166 161.082 98.3395C162.354 92.3838 162.402 86.2852 161.241 80.3137C160.892 78.4873 158.078 79.2496 158.428 81.0919V81.076Z" fill="white"/>
<path d="M143.709 79.2338C145.028 84.3477 144.599 89.8746 142.39 94.7026C142.072 95.4173 142.183 96.259 142.914 96.6878C143.534 97.0531 144.583 96.8784 144.901 96.1637C147.428 90.6051 148.032 84.3795 146.506 78.4556C146.046 76.6451 143.232 77.4074 143.693 79.2338H143.709Z" fill="white"/>
<path d="M119.58 158.595C126.018 164.09 135.952 164.137 142.469 158.738C143.916 157.547 141.849 155.498 140.403 156.689C135.173 161.025 126.796 160.945 121.646 156.546C120.232 155.339 118.165 157.388 119.58 158.595Z" fill="white"/>
<path d="M72.7526 124.497C70.6226 122.543 67.5707 122.273 64.9798 123.433C62.3889 124.592 60.6722 127.276 59.9728 129.992C58.6217 135.376 60.6722 141.141 64.5824 144.968C66.7918 147.144 69.6053 148.685 72.6731 149.256C74.501 149.59 75.2958 146.795 73.4519 146.461C68.1429 145.476 63.883 141.188 62.7386 135.947C62.1663 133.343 62.4365 130.389 63.9148 128.134C65.3136 125.99 68.5562 124.592 70.7021 126.561C72.085 127.816 74.1513 125.767 72.7684 124.513L72.7526 124.497Z" fill="white"/>
<path d="M188.772 124.608C190.854 122.702 194.065 123.957 195.464 126.037C197.006 128.324 197.324 131.342 196.736 133.994C195.575 139.235 191.347 143.523 186.022 144.508C184.178 144.841 184.957 147.652 186.801 147.303C192.189 146.302 196.64 142.316 198.722 137.329C200.789 132.342 200.376 125.243 195.48 122.003C192.809 120.24 189.106 120.367 186.722 122.543C185.339 123.814 187.405 125.863 188.788 124.592L188.772 124.608Z" fill="white"/>
<path d="M66.2991 150.13C61.2444 166.774 55.9989 187.341 69.0489 201.856C70.2252 203.175 71.9896 201.507 71.3379 200.094C70.8928 199.125 72.1803 198.235 72.991 198.156C74.3262 198.029 75.5819 199.014 76.472 199.855C77.839 201.142 79.9054 199.093 78.5384 197.807C76.6151 195.996 73.7221 194.424 71.0835 195.694C68.8423 196.774 67.7773 199.284 68.8264 201.555L71.1153 199.792C58.876 186.165 64.4075 166.361 69.1125 150.892C69.653 149.097 66.8395 148.335 66.2991 150.114V150.13Z" fill="white"/>
<path d="M194.526 149.018C199.231 164.503 204.763 184.291 192.523 197.918L194.812 199.681C195.861 197.41 194.812 194.9 192.555 193.82C189.901 192.55 187.024 194.106 185.1 195.933C183.733 197.219 185.8 199.268 187.167 197.981C188.073 197.14 189.312 196.139 190.648 196.282C191.458 196.361 192.746 197.251 192.301 198.22C191.665 199.617 193.398 201.301 194.59 199.982C207.64 185.451 202.394 164.9 197.34 148.256C196.799 146.477 193.986 147.239 194.526 149.034V149.018Z" fill="white"/>
<path d="M68.1429 98.943C68.1429 106.28 68.1429 113.602 68.1429 120.939C68.1429 122.813 71.0518 122.813 71.0518 120.939C71.0518 113.602 71.0518 106.28 71.0518 98.943C71.0518 97.069 68.1429 97.069 68.1429 98.943Z" fill="white"/>
<path d="M189.376 96.0049C189.376 103.342 189.376 110.664 189.376 118.001C189.376 119.875 192.285 119.875 192.285 118.001C192.285 110.664 192.285 103.342 192.285 96.0049C192.285 94.1309 189.376 94.1309 189.376 96.0049Z" fill="white"/>
<path d="M96.3411 134.724C99.1228 131.469 103.271 129.722 107.515 129.992C108.294 130.039 108.978 129.293 108.978 128.546C108.978 127.721 108.31 127.149 107.515 127.101C102.556 126.784 97.5015 128.912 94.2747 132.676C93.7661 133.279 93.6866 134.137 94.2747 134.724C94.7993 135.249 95.8166 135.328 96.3411 134.724Z" fill="white"/>
<path d="M165.899 132.66C162.672 128.896 157.617 126.768 152.658 127.085C151.879 127.133 151.196 127.721 151.196 128.531C151.196 129.277 151.863 130.039 152.658 129.976C156.918 129.706 161.051 131.453 163.832 134.709C164.341 135.312 165.374 135.233 165.899 134.709C166.487 134.121 166.407 133.247 165.899 132.66Z" fill="white"/>
<path d="M91.1275 185.895C81.2565 177.526 76.5992 163.899 81.7016 151.638H78.8881C81.8764 162.772 93.7979 167.965 100.22 176.747C102.095 179.304 103.415 182.179 103.828 185.339C104.321 189.151 103.637 192.994 102.683 196.679C100.585 204.683 97.7081 212.529 95.1649 220.406C92.6534 228.172 90.4281 236.113 87.5351 243.737C85.0555 250.248 80.6207 256.156 73.4837 257.776C67.3164 259.174 61.006 256.235 57.3818 251.217C53.4239 245.738 53.6306 239.306 56.2056 233.255C59.5595 225.361 65.5361 218.564 70.6226 211.751C76.3926 204.032 82.1467 196.314 87.9166 188.595C89.0293 187.102 86.502 185.641 85.4052 187.134C79.9372 194.471 74.4534 201.809 68.9854 209.13C63.9784 215.848 58.272 222.455 54.5366 229.999C51.4847 236.145 50.0859 243.069 53.0424 249.517C55.5857 255.076 60.9265 259.602 67.0144 260.73C73.9129 262 80.9068 258.983 85.3098 253.663C90.4122 247.516 92.2083 239.115 94.6085 231.698C97.4061 223.043 100.204 214.387 103.001 205.716C105.433 198.172 108.422 189.929 106.117 181.973C104.193 175.286 98.7572 170.458 93.7343 165.996C88.9975 161.771 83.4501 157.277 81.7334 150.892C81.3201 149.383 79.4445 149.653 78.9199 150.892C73.452 164.01 78.5225 179.003 89.0929 187.976C90.5076 189.183 92.5898 187.134 91.1593 185.927L91.1275 185.895Z" fill="white"/>
<path d="M171.923 186.388C182.493 177.415 187.548 162.422 182.096 149.304C181.587 148.065 179.696 147.795 179.283 149.304C177.757 155.005 173.131 159.166 168.903 162.978C164.675 166.79 159.62 170.887 156.695 176.16C152.801 183.148 154.041 191.105 156.234 198.426C158.794 207.018 161.718 215.515 164.468 224.027C165.835 228.268 167.202 232.508 168.569 236.733C169.777 240.481 170.953 244.277 172.829 247.755C176.199 254.012 182.207 258.824 189.471 259.396C195.877 259.904 201.997 256.601 205.812 251.566C209.897 246.182 210.564 239.607 208.514 233.255C205.716 224.551 199.342 217.294 193.954 210.083C187.85 201.904 181.73 193.725 175.627 185.53C174.514 184.053 171.987 185.498 173.115 186.991C178.249 193.868 183.368 200.729 188.502 207.606C193.286 214.022 198.532 220.295 202.569 227.235C205.843 232.858 208.307 239.734 205.653 246.087C203.412 251.439 198.293 255.759 192.428 256.442C185.482 257.236 179.219 252.932 175.833 247.135C173.989 243.991 172.861 240.513 171.748 237.05C170.445 233.001 169.125 228.951 167.822 224.885C165.183 216.722 162.529 208.543 159.906 200.379C157.649 193.328 155.297 185.26 158.889 178.225C164.5 167.234 178.774 162.486 182.112 150.05H179.298C184.401 162.311 179.759 175.922 169.873 184.307C168.442 185.514 170.508 187.563 171.939 186.356L171.923 186.388Z" fill="white"/>
<path d="M117.641 185.419V201.205C117.641 203.079 120.55 203.079 120.55 201.205V185.419C120.55 183.545 117.641 183.545 117.641 185.419Z" fill="white"/>
<path d="M144.536 185.498C144.536 190.755 144.536 196.028 144.536 201.285C144.536 203.159 147.444 203.159 147.444 201.285C147.444 196.028 147.444 190.755 147.444 185.498C147.444 183.624 144.536 183.624 144.536 185.498Z" fill="white"/>
<path d="M117.084 202.301C121.662 206.954 126.256 211.608 130.834 216.245C132.153 217.579 134.204 215.531 132.9 214.197C128.322 209.543 123.729 204.89 119.151 200.252C117.832 198.918 115.781 200.967 117.084 202.301Z" fill="white"/>
<path d="M117.911 194.138C110.567 198.664 100.522 205.08 101.221 215.038C101.491 219.025 103.637 222.82 107.198 224.79C111.06 226.918 115.892 226.791 119.977 225.377C125.064 223.614 129.069 219.914 132.884 216.261C134.235 214.959 132.185 212.91 130.818 214.212C127.226 217.643 123.411 221.296 118.547 222.789C114.08 224.154 108.422 223.773 105.656 219.517C103.001 215.435 104.146 210.591 106.784 206.827C109.916 202.365 114.827 199.458 119.373 196.647C120.963 195.663 119.5 193.153 117.895 194.138H117.911Z" fill="white"/>
<path d="M146.189 199.268C141.595 203.985 137.001 208.717 132.407 213.434C131.104 214.784 133.155 216.833 134.474 215.483C139.068 210.766 143.661 206.033 148.255 201.316C149.558 199.967 147.508 197.918 146.189 199.268Z" fill="white"/>
<path d="M145.076 196.806C149.479 199.585 154.168 202.46 157.22 206.796C159.89 210.591 161.098 215.531 158.46 219.676C155.821 223.821 150.48 224.313 146.141 223.011C141.261 221.55 137.494 217.834 133.949 214.371C132.614 213.053 130.548 215.118 131.883 216.42C137.955 222.376 146.348 229.284 155.487 225.663C159.255 224.17 161.941 220.788 162.656 216.801C163.435 212.481 161.909 208.209 159.318 204.763C155.964 200.3 151.196 197.251 146.538 194.297C144.949 193.296 143.486 195.806 145.06 196.806H145.076Z" fill="white"/>
<path d="M68.2542 80.3138C67.9363 82.4102 67.6025 84.5224 67.2846 86.6188C67.221 87.0159 67.221 87.3812 67.4276 87.7306C67.6025 88.0323 67.9522 88.3182 68.3019 88.3976C69.0013 88.5564 69.9709 88.1911 70.098 87.3812C70.416 85.2848 70.7498 83.1725 71.0677 81.0761C71.1312 80.6791 71.1312 80.3138 70.9246 79.9644C70.7498 79.6626 70.4001 79.3768 70.0504 79.2974C69.351 79.1385 68.3814 79.5038 68.2542 80.3138Z" fill="white"/>
<path d="M130.389 188.5C100.426 188.5 75.868 158.785 75.6455 122.273C75.6455 121.304 76.4244 120.526 77.3781 120.526C78.3318 120.526 79.1266 121.304 79.1266 122.257C79.3332 156.864 102.318 185.022 130.373 185.022C158.428 185.022 181.413 156.864 181.619 122.257C181.619 121.289 182.414 120.494 183.384 120.526C184.353 120.526 185.132 121.32 185.116 122.273C184.894 158.785 160.335 188.5 130.373 188.5H130.389Z" fill="white"/>
<path d="M132.233 226.838C127.687 223.17 121.185 219.835 115.86 224.075C113.778 225.743 112.427 228.379 113.047 231.079C113.587 233.509 115.574 235.24 117.847 236.066C123.57 238.146 128.577 234.065 132.407 230.285C134.617 228.109 136.906 225.663 139.91 224.631C142.183 223.853 145.235 224.154 146.809 226.187C148.923 228.919 145.998 232.016 143.359 232.81C139.592 233.938 135.571 231.635 132.376 229.904C130.723 229.014 129.26 231.523 130.897 232.413C136.127 235.24 142.723 238.083 147.874 233.525C149.797 231.809 150.894 229.173 150.21 226.632C149.558 224.234 147.508 222.566 145.235 221.804C139.449 219.85 134.49 224.139 130.675 227.902C128.481 230.078 126.129 232.508 123.093 233.413C120.883 234.08 117.975 233.668 116.496 231.714C114.414 228.935 117.418 225.806 120.105 225.123C123.76 224.202 127.496 226.711 130.182 228.887C131.629 230.046 133.695 228.014 132.248 226.838H132.233Z" fill="white"/>
<path d="M129.769 229.443C128.02 235.7 126.272 241.942 124.539 248.199C124.031 250.01 126.844 250.772 127.353 248.977C129.101 242.72 130.85 236.479 132.582 230.221C133.091 228.411 130.277 227.648 129.769 229.443Z" fill="white"/>
<path d="M128.831 231.714C132.725 236.32 135.793 241.624 137.86 247.294C138.13 248.025 138.845 248.533 139.656 248.31C140.371 248.12 140.943 247.262 140.673 246.516C138.432 240.354 135.126 234.668 130.897 229.649C130.389 229.046 129.356 229.125 128.831 229.649C128.227 230.237 128.322 231.095 128.831 231.698V231.714Z" fill="white"/>
<path d="M85.9138 115.921C90.9526 110.124 98.5665 107.074 106.228 107.773C108.088 107.948 108.088 105.042 106.228 104.867C97.883 104.105 89.3313 107.535 83.8475 113.856C82.6235 115.269 84.674 117.334 85.9138 115.905V115.921Z" fill="white"/>
<path d="M168.728 111.426C163.244 105.105 154.693 101.675 146.348 102.437C144.504 102.612 144.472 105.518 146.348 105.343C154.009 104.645 161.623 107.678 166.662 113.491C167.886 114.904 169.952 112.84 168.728 111.442V111.426Z" fill="white"/>
</g>
</g>
<defs>
<clipPath id="clip0_38_1340">
<rect width="261" height="261" fill="white"/>
</clipPath>
</defs>
</svg>
