<svg width="53" height="8" viewBox="0 0 53 8" fill="none" xmlns="http://www.w3.org/2000/svg">
<path d="M0.504828 0.0406792C0.801825 -0.0635319 1.19114 0.047895 1.48702 0.200835C1.57974 0.248269 1.53279 0.460302 1.5968 0.502592C1.72199 0.585033 1.83862 0.481044 1.96234 0.579252C2.00334 0.612836 1.9523 0.948696 1.99529 0.976223C2.23088 1.12465 2.45376 1.03911 2.69241 1.1105C3.86794 1.46274 5.02345 1.58882 6.21336 1.74185C6.60571 1.79202 7.08265 2.09682 7.4879 1.96352C7.53521 1.94766 7.50701 1.65286 7.516 1.62856C7.65718 1.2566 7.61024 1.85174 7.70241 1.93081C8.06825 2.24302 8.47506 2.27017 8.82714 2.1564C8.97692 2.10713 8.82674 1.52158 8.97756 1.85024C8.98803 1.87245 8.95003 2.18551 8.9911 2.2189C9.08426 2.29399 9.26099 2.23804 9.33319 2.26284C9.47233 2.31223 9.49535 2.30908 9.62696 2.31264C9.80687 2.32025 10.0209 2.47586 10.2139 2.40493C10.2551 2.38886 10.2005 2.06794 10.2662 2.01333C10.332 1.95881 10.506 1.98602 10.5647 2.06167C10.6233 2.13736 10.5984 2.38959 10.6087 2.44741C10.6942 2.9354 10.8954 2.25954 10.9213 2.24282C11.3935 1.95803 11.7983 2.34304 12.2415 2.34194C12.578 2.34029 12.9378 2.21318 13.2579 2.23061C13.6393 2.25262 13.9626 2.42652 14.3331 2.39663C14.3722 2.39384 14.3264 2.01652 14.3741 2.01235C14.8815 1.96844 15.3854 2.00958 15.8907 2.26431C15.9413 2.29018 15.876 2.62147 15.9267 2.66714C16.2366 2.9394 16.727 3.59343 16.9111 2.15102C17.121 2.20735 17.3759 2.26554 17.5637 2.5563C17.6848 2.74343 17.5672 3.10434 17.716 2.95034C17.7495 2.91603 17.7059 2.59996 17.7562 2.57241C17.968 2.4567 18.1995 2.55944 18.409 2.39614C18.4517 2.36218 18.44 2.07898 18.4521 2.02798C18.5536 1.61497 18.7226 2.2977 18.7594 2.34731C19.0399 2.71726 19.2447 2.57168 19.506 2.58071C19.5667 2.58297 19.495 2.20256 19.5534 2.19106C19.856 2.13654 20.1695 2.16924 20.4658 2.33804C20.5317 2.3765 20.4711 2.70054 20.5026 2.73549C20.6415 2.8857 20.6723 2.27367 20.8055 2.40591C20.8335 2.433 20.8177 2.7104 20.8228 2.74087C20.903 3.21911 20.9727 2.54147 20.9933 2.52651C21.2541 2.32209 21.4208 3.02951 21.6728 2.92934C21.7029 2.91664 21.635 2.56565 21.7197 2.55141C22.2842 2.45452 22.8813 2.55094 23.4401 2.83169C23.5269 2.87486 23.4649 3.13854 23.4704 3.17104C23.5595 3.67891 23.6171 2.99842 23.6455 2.9728C23.869 2.78833 24.0777 3.35899 24.2296 2.54848C25.176 2.82976 26.1182 2.37461 27.0568 3.10073C27.0688 3.10914 27.0474 3.44428 27.0712 3.45961C27.3579 3.64779 27.3028 3.12692 27.4925 2.48989C27.5403 2.32993 27.6857 3.09904 27.6986 3.15542C27.7454 3.36317 27.6968 3.86176 27.7125 3.902C27.8424 4.21793 27.8212 2.56904 27.9964 2.5685C28.0019 2.57125 27.9788 2.87475 27.9935 2.90493C28.0392 2.99967 28.0845 2.87907 28.1292 2.98354C28.2315 3.22529 28.2679 4.0265 28.4242 3.5602C28.444 3.49968 28.4138 2.56436 28.5702 2.60854C28.6325 2.62695 28.9085 2.61092 28.9858 2.67153C29.0631 2.73207 29.01 3.03348 29.0156 3.04653C29.2237 3.44509 29.1448 3.61027 29.2491 4.20033C29.3533 4.78817 29.3244 3.38612 29.3669 3.22963C29.4095 3.07359 29.5621 3.40243 29.5997 3.51674C29.6371 3.63111 29.5904 3.82263 29.6237 3.88735C29.8447 4.31018 29.7207 3.19142 29.7935 2.96889C29.9652 2.44199 30.0989 3.48175 30.2561 3.58364C30.2987 3.61115 30.264 3.37434 30.3018 3.35219C30.4518 3.26762 30.542 3.59205 30.7127 3.29458C30.7406 3.2461 30.8785 2.62096 30.9678 3.07973C30.9804 3.14589 30.9445 3.40499 31.0084 3.46303C31.1039 3.55014 31.276 3.60677 31.3786 3.52016C31.4544 3.45608 31.3675 3.02913 31.4629 3.16176C31.5053 3.22098 31.4268 3.47075 31.5064 3.56118C31.5856 3.65157 31.7882 3.6406 31.8653 3.63198C31.9422 3.62316 31.9001 3.2993 31.9063 3.27749C31.944 3.1525 32.0916 2.99634 32.1047 2.99672C32.7628 2.95719 33.3698 3.50309 34.0106 3.32241C34.0609 3.3087 34.0274 2.96718 34.0351 2.96157C34.2072 2.81848 34.0715 3.72649 34.1918 4.03041C34.1744 3.33738 34.2454 3.46287 34.3666 3.38686C34.4251 3.34967 34.3932 3.08132 34.3986 3.05385C34.4852 2.64627 34.5456 3.17272 34.5611 3.28042C34.6185 3.67658 34.681 3.20848 34.72 3.47329C34.7591 3.73611 34.6693 4.12574 34.7856 4.12074C34.8182 3.87266 34.7318 3.22435 34.8201 3.11928C35.1533 2.72184 35.7752 3.23051 36.0431 3.28334C36.3105 3.33614 36.3968 3.29037 36.5526 3.38002C36.834 3.54213 36.7309 3.06113 36.9056 2.84096C37.0809 2.62082 36.9957 3.80431 37.0208 4.05873C37.0456 4.31304 37.0726 4.05126 37.1033 4.19106C37.134 4.33082 37.0676 4.50381 37.1397 4.55629C37.2119 4.60872 37.4091 4.1563 37.4347 3.89028C37.4888 3.32669 37.3999 2.73518 37.5908 2.94301C37.6018 2.95535 37.5661 3.26654 37.6082 3.29799C37.9421 3.53756 38.289 3.55241 38.6225 3.7643C38.6684 3.79392 38.6274 4.14012 38.6541 4.16127C38.932 4.3827 38.8327 3.79898 38.985 3.15053C38.9508 4.01348 39.0351 4.54143 39.246 4.54652C39.3729 4.54989 39.351 4.173 39.4331 3.90737C39.4577 3.82729 39.5474 4.08608 39.5637 3.90883C39.6173 3.32944 39.5327 2.68084 39.7503 2.93911C39.7598 2.95138 39.7294 3.26853 39.7624 3.28774C39.9755 3.41346 40.0011 2.80742 40.2315 2.73403C40.4121 2.67644 40.7332 3.046 40.9389 3.1061C40.9346 4.0763 41.1288 3.85413 41.2076 3.1852C41.341 3.21259 41.4852 3.17477 41.6142 3.26723C41.6586 3.29875 41.6294 3.57965 41.635 3.61C41.7208 4.08612 41.7788 3.43532 41.8076 3.40981C42.1199 3.16179 42.3742 3.65505 42.6722 3.17299C42.6827 3.15563 42.6999 2.4817 42.7795 2.97378C42.7847 3.00769 42.6863 3.31432 42.8264 3.33803C42.9666 3.3618 43.2309 3.72307 43.4255 3.41079C43.4726 3.3356 43.5917 2.78851 43.6873 3.21596C43.7001 3.27401 43.6861 3.46729 43.7045 3.57485C43.7639 3.91756 43.7964 3.23639 43.8662 3.81508C43.9361 4.39375 44.0814 4.82713 44.2777 4.42787C44.2839 4.41626 44.3304 3.87637 44.3921 3.88491C44.4906 3.899 44.6305 4.01147 44.7334 4.00795C44.7826 4.00607 44.7511 3.67082 44.7597 3.66469C45.0909 3.47683 45.3266 3.7757 45.6814 3.90541C45.7464 3.92985 45.9334 3.47269 46.0593 3.83412C46.1975 4.22978 46.0555 5.87565 46.3733 5.48353C46.5014 5.32669 46.6637 3.23861 46.8941 4.32045C47.3408 4.05238 47.754 4.60606 48.202 4.22328C48.2221 4.20632 48.2858 3.62356 48.3332 3.63149C48.4035 3.64439 48.4421 3.91677 48.4923 3.93471C48.7027 4.01675 48.8952 3.78372 49.098 3.81996C49.175 3.83313 49.1481 4.11477 49.24 4.13051C49.3318 4.14599 49.393 3.77513 49.5174 3.95424C49.6113 4.09077 49.7052 4.84879 49.8299 4.93715C49.8347 4.18944 49.9203 4.20484 50.0725 4.00746C50.1018 3.96917 50.0704 3.70893 50.0843 3.67739C50.1406 3.54326 50.1927 3.75894 50.2462 3.61293C50.2592 3.57787 50.2598 3.32252 50.2705 3.27944C50.3609 2.90339 50.5099 3.47777 50.5355 3.57778C50.6336 3.95758 50.6794 3.62548 50.7547 3.77504C50.8298 3.92459 50.7175 4.11154 50.8052 4.20229C50.9871 4.38999 51.2208 4.34876 51.4055 4.36049C51.4792 4.3636 51.4289 4.02275 51.4395 4.01528C51.5919 3.92883 51.746 4.29139 51.8305 3.61245C51.9361 5.36795 51.9224 3.44217 52.1402 3.7936C52.1574 3.82202 52.1792 4.65219 52.1133 4.77406C52.0475 4.89582 51.9476 4.63633 51.8562 4.82631C51.8345 4.87089 51.7105 5.64881 51.6936 5.69593C51.5611 6.06421 51.5423 4.82365 51.5353 4.75551C51.4558 4.02018 51.3043 4.85824 51.2644 4.91615C51.0818 5.18149 50.9268 5.00703 50.7741 5.19642C50.6743 5.31883 50.6645 6.13145 50.5861 6.10658C50.3254 6.02436 50.2345 4.89076 49.9888 5.87367C49.9362 6.0833 49.9885 6.97147 49.7998 6.27308C49.7879 6.22905 49.6478 5.59015 49.5669 5.99427C49.5567 6.04523 49.557 6.30407 49.5436 6.32582C49.4538 6.46647 49.3939 6.26026 49.296 6.35902C49.1981 6.45778 49.0804 6.60501 48.9686 6.51722C48.9013 6.46472 48.8149 5.98246 48.7826 5.86439C48.6916 5.52426 48.594 6.08193 48.5376 5.67006C48.4807 5.25611 48.5919 4.62746 48.4428 4.36C48.4373 5.0325 48.4246 5.72275 48.4157 6.39906C48.0888 6.37538 47.7673 6.15792 47.4394 6.18763C47.3987 6.19199 47.4403 6.55352 47.3967 6.56751C47.2128 6.62495 47.0522 6.36722 46.8615 6.46986C46.7139 6.55069 46.5521 6.93348 46.3977 7.02991C46.3035 6.26039 46.0744 6.52163 45.908 6.4513C45.8498 6.427 45.8537 6.22148 45.8122 6.15443C45.6558 5.90645 45.7291 6.58647 45.6863 6.69349C45.5023 7.15022 45.4866 5.61103 45.2698 5.64906C45.2583 5.65055 45.1179 6.47101 45.0985 6.5221C44.9756 6.85527 45.0782 6.23653 45.0013 6.17591C44.8609 6.06513 44.7633 5.86919 44.5985 6.10951C44.5505 6.18069 44.4353 6.69207 44.342 6.29652C44.3297 6.24472 44.3365 5.97353 44.3266 5.95765C44.1478 5.69292 44.1431 6.54504 44.0409 6.83363C43.9387 7.12215 43.7809 6.53393 43.7488 6.36439C43.6647 5.92581 43.8132 6.17696 43.8177 6.13392C43.8712 5.62174 43.7561 5.70992 43.6681 5.66664C43.6554 4.83113 43.5324 4.88128 43.5769 5.62513C43.582 5.70638 43.6504 5.62847 43.6681 5.66664C43.5909 6.48639 43.4557 6.59137 43.3064 5.82533C43.2365 5.4663 43.3026 5.04768 43.0903 5.20082C42.9939 5.26995 43.0311 5.84524 42.9461 6.00209C42.7518 6.35994 42.4994 5.82329 42.2991 5.90785C42.2265 5.93855 42.2973 6.25346 42.2476 6.28529C42.1158 6.37075 41.9995 6.13446 41.8671 6.2555C41.8551 6.26687 41.8844 6.59652 41.8432 6.60072C41.5311 6.639 41.2593 6.42786 40.9334 6.42201C40.776 6.41933 40.4945 6.60114 40.3313 6.56458C40.0486 6.50318 39.7008 6.02382 39.4593 6.14027C39.3018 6.21481 39.3364 6.54453 39.2689 6.76917C39.1386 7.20463 38.9081 6.42462 38.8771 6.30384C38.8761 6.29985 39.0117 6.22212 38.9393 6.05287C38.8973 5.7002 38.8786 6.30231 38.8771 6.30384C38.8567 6.22582 38.5859 6.15097 38.5321 6.214C38.5029 6.24844 38.5193 6.56083 38.504 6.57289C38.142 6.85244 37.7793 6.93184 37.4121 6.78577C37.4056 6.77946 37.4153 6.43004 37.4001 6.41957C37.1875 6.2642 37.0514 6.69166 36.8761 6.94544C36.7008 7.19912 36.5618 7.11415 36.458 6.51429C36.3257 6.58982 36.1359 6.32462 36.0267 6.16371C35.9175 6.00279 35.9023 6.68297 35.8927 6.69642C35.593 7.1268 35.4198 6.73748 35.1088 6.67689C34.961 6.64692 34.6678 6.74558 34.5078 6.81995C34.3813 6.87987 34.3051 6.72047 34.1885 6.8224C34.1727 6.83601 34.1887 7.13886 34.1839 7.15052C34.0538 7.51286 34.1163 6.7725 34.0895 6.64027C33.9921 6.15942 33.9319 5.90332 33.7654 6.12953C33.7269 6.18133 33.615 7.24736 33.545 7.3097C33.4539 7.3888 33.4883 7.00669 33.3929 7.09925C33.3848 7.10682 33.3865 7.34255 33.3276 7.33216C33.0545 7.28701 32.7567 7.14984 32.4728 7.17347C32.434 7.17579 32.4838 7.5497 32.4277 7.55921C32.1649 7.60353 31.8767 7.58969 31.6206 7.41468C31.5576 7.37042 31.5971 7.10862 31.5834 7.03089C31.4994 6.56055 31.3803 7.24394 31.3606 7.25696C30.8917 7.58537 30.5329 6.96691 30.055 7.26136C30.0289 7.27865 29.8287 8.01126 29.7394 7.38294C29.7332 7.34114 29.6449 6.69831 29.5667 7.13782C29.5618 7.16532 29.6169 7.49626 29.5208 7.46253C29.4247 7.42887 29.27 7.64987 29.1379 7.28626C29.0961 7.17172 28.9972 6.53047 28.8724 7.04163C28.8643 7.07732 28.6717 8.23312 28.6029 7.43568C28.5918 7.30441 28.6034 6.46053 28.4545 6.8932C28.4261 6.97708 28.4777 7.16531 28.4028 7.28284C28.2879 7.46399 28.1357 7.23797 27.9946 7.6139C27.9699 7.68045 27.8651 8.25322 27.781 7.81849C27.7679 7.7504 27.7929 7.46867 27.7485 7.43714C27.5374 7.2859 27.3163 7.47435 27.1019 7.27943C27.026 7.21093 27.0648 6.75548 26.9857 6.63343C26.9065 6.51142 26.747 6.39405 26.6642 6.60218C26.5814 6.8104 26.6719 7.53628 26.5478 7.59437C26.0082 7.84664 25.4737 7.42082 24.935 7.35853C24.8551 7.34922 24.9213 7.60897 24.8036 7.6139C24.3694 7.63322 23.6199 7.87676 23.2431 7.32484C22.9413 6.88278 23.3211 6.54623 23.0905 6.36634C22.9792 6.28053 22.8588 7.12444 22.8319 7.15101C22.5694 7.42089 22.387 7.04705 22.1508 7.16175C22.102 7.18555 22.1498 7.5276 22.1083 7.54407C21.9665 7.60339 21.8174 7.45072 21.6819 7.47864C21.6211 7.49196 21.6323 7.7532 21.5764 7.73304C21.4425 7.6878 21.3241 7.57799 21.1936 7.33314C21.1817 7.31083 21.2619 6.98585 21.1629 6.97376C21.0026 6.95512 20.8037 6.71358 20.6192 6.96302C20.5645 7.03806 20.5624 7.63512 20.4448 7.22279C20.4201 7.13667 20.4516 6.41972 20.3146 7.03919C20.2915 7.14213 20.0614 7.97768 19.9484 7.43909C19.9186 7.29734 19.8426 6.71067 19.7768 6.80286C19.7678 6.81758 19.8036 7.13828 19.7491 7.16956C19.5569 7.27423 19.3555 7.24001 19.1581 7.34046C19.1054 7.36792 19.1839 7.69978 19.1053 7.73011C18.8893 7.81399 18.6195 7.72949 18.4082 7.62562C18.3303 7.58669 18.3842 7.31178 18.3785 7.28187C18.2873 6.79527 18.2335 7.45207 18.2032 7.49036C18.0151 7.71968 17.8718 7.41116 17.6984 7.4928C17.6505 7.5145 17.6844 7.82767 17.6749 7.8556C17.5761 8.12844 17.6497 7.56603 17.5872 7.50403C17.412 7.3285 17.2166 7.35367 17.0395 7.39368C16.9744 7.40884 17.0475 7.77197 16.9891 7.78138C16.6434 7.84395 16.2841 7.8092 15.9467 7.60901C15.8832 7.57066 15.9231 7.29104 15.9099 7.22718C15.8186 6.78036 15.6849 7.38983 15.6541 7.44788C15.5142 7.71297 15.4599 7.46569 15.3363 7.51185C14.7327 7.74164 13.9874 7.57787 13.4176 7.47669C12.6751 7.34648 12.099 7.08047 11.391 7.14954C11.346 7.15358 11.3913 7.52556 11.3526 7.53382C10.8517 7.62349 10.3587 7.47814 9.85684 7.58558C9.81566 7.59373 9.87502 7.94637 9.80892 7.97132C9.67335 8.02496 9.50161 8.00579 9.36453 7.89319C9.29767 7.83894 9.38735 7.53635 9.32005 7.48792C9.16335 7.37447 8.99537 7.34936 8.83442 7.40589C8.76592 7.43072 8.86926 7.79137 8.78023 7.79554C8.17376 7.83132 7.57814 7.89343 6.96527 7.4264C6.92325 7.39432 6.88639 6.66132 6.79705 6.80189C6.79033 7.00532 6.79069 7.24461 6.78775 7.46204C5.90488 7.57917 5.03102 7.32506 4.14567 7.28577C4.10835 7.2842 4.17286 7.67258 4.10059 7.67151C3.68231 7.66577 3.27614 7.77337 2.84829 7.38734C2.80584 7.34958 2.82762 6.66633 2.70252 6.76966C2.68045 6.78852 2.49204 6.87964 2.44332 7.02796C2.43671 7.05033 2.47108 7.36925 2.41037 7.37855C2.05754 7.42698 1.6878 7.35417 1.33558 7.15931C1.27874 7.12725 1.33927 6.78763 1.29879 6.76185C1.01159 6.58156 0.699197 6.83974 0.424765 6.53138C0.24107 6.32376 0.309079 5.73669 0.211466 5.15883C0.197659 5.0773 0.0839096 5.06438 0.0780272 4.72816C0.0629255 3.88272 0.118022 2.95697 0.0954146 2.05581C0.0906383 1.86171 -0.0617019 2.07077 0.0284933 1.60171C0.0347944 1.57032 0.145242 1.41464 0.172445 1.25552C0.191385 1.14551 0.157255 0.803576 0.195898 0.662748C0.234538 0.522051 0.276998 0.808676 0.341063 0.643216C0.405098 0.475709 0.376941 0.0867252 0.504828 0.0406792ZM35.535 5.44447C35.4339 5.11782 35.419 6.3142 35.5284 6.02796C35.5337 6.01271 35.5402 5.4605 35.535 5.44447ZM47.7691 5.25551C47.6369 4.72782 47.5465 5.50373 47.6397 5.91127C47.733 6.31836 47.8094 5.41547 47.7691 5.25551ZM49.1399 4.87025C48.9854 4.4542 48.9611 6.15071 49.1265 5.80775C49.1362 5.78837 49.1489 4.89441 49.1399 4.87025ZM0.664145 4.99428C0.662749 4.97839 0.580982 4.96291 0.579028 4.97865C0.535488 5.35862 0.69899 5.38932 0.664145 4.99428ZM50.5001 4.45082C50.4519 4.22133 50.313 4.48625 50.373 4.77162C50.4212 5.00119 50.5602 4.73629 50.5001 4.45082ZM30.2604 4.16762C30.2588 4.14979 30.2002 4.13374 30.2013 4.23451C30.2053 4.55909 30.2869 4.46749 30.2604 4.16762ZM52.8121 4.43129C52.4705 4.36743 52.2634 2.96603 52.6354 3.12417C52.7027 3.15278 52.4902 3.57106 52.5759 3.69741C52.7328 3.92758 52.837 3.04768 52.9971 3.51918C53.026 3.60549 52.8316 4.43805 52.8115 4.43324C52.8117 4.43259 52.8119 4.43194 52.8121 4.43129ZM35.4768 4.00746C35.4748 3.99164 35.3936 3.97664 35.3917 3.99233C35.3478 4.37214 35.5112 4.40258 35.4768 4.00746ZM26.8397 3.42788C26.8352 3.39416 26.6469 3.36264 26.6408 3.3937C26.5425 4.0148 26.9233 4.08038 26.8397 3.42788ZM40.9421 3.13198C41.0307 2.74988 41.1366 2.70489 41.2072 3.18471C41.1192 3.15924 41.0306 3.15549 40.9421 3.13198Z" fill="#E9562A"/>
</svg>
