<svg width="100" height="90" viewBox="0 0 100 90" fill="none" xmlns="http://www.w3.org/2000/svg">
<path d="M0.00410337 21.1106C2.4374 9.78531 14.8994 3.13784 25.3876 0.897399C46.3558 -3.57938 68.1693 9.14928 75.58 28.9234C80.5287 25.0786 85.1614 20.7741 90.3563 17.2411C92.2151 15.9773 95.8343 13.3224 98.087 13.7368C99.2319 13.9461 99.9746 14.9802 99.9992 16.1291C100.061 18.6896 96.4293 23.507 94.8741 25.6654C89.9008 32.559 84.152 38.9069 78.6535 45.378C78.1898 78.2747 42.9336 100.589 13.2785 84.4831C8.21085 81.7298 2.77388 77.1504 0.832985 71.5452L0.00410337 68.5661V64.0729C0.701677 60.6179 2.11324 57.6265 4.68605 55.185C7.85386 52.1773 13.2334 50.1338 13.2949 45.0374C13.3606 39.6292 7.76358 37.6882 4.48909 34.4917C2.05579 32.1159 0.771434 29.2722 0 25.9936V21.1106H0.00410337ZM64.6404 38.2914C65.0262 38.3735 65.1657 38.2012 65.4324 38.0083C67.7672 36.3136 69.8846 33.6793 72.2686 31.9558C72.6749 31.4306 72.244 30.7536 72.0635 30.1873C67.2748 15.1566 50.2499 4.27037 34.8705 3.72052C23.4303 3.31018 1.02174 11.5169 4.00079 26.1947C5.65035 34.3153 16.3314 34.9759 17.0044 43.8515C17.8538 55.0086 5.66266 54.8609 3.96796 63.8308C1.60032 76.3461 18.2518 84.1385 28.2846 85.6895C43.6435 88.0613 59.5769 80.3305 68.0462 67.569C71.4397 62.4562 73.7787 56.3422 74.4065 50.2076C71.7803 52.9487 69.2855 55.8252 66.6962 58.6073C65.1493 60.2691 62.0553 62.8173 60.931 64.5572C60.3155 65.5091 59.8067 68.1517 59.2076 69.4771C54.3574 80.2156 41.4195 81.8611 31.3949 77.6961C30.3978 77.2817 29.3063 76.7031 29.5689 75.3941C29.9341 73.564 32.1048 73.9416 33.3399 73.2932C35.7158 72.0458 36.0358 67.2818 36.6554 64.8936C37.9357 59.9737 39.7083 56.3791 44.6529 54.3397C46.044 53.7653 48.8548 53.4657 49.7083 52.9487C50.8121 52.2839 53.4013 49.1736 54.579 48.0575C57.5211 45.2713 60.5617 42.5836 63.4669 39.7604C63.7705 39.0506 62.1702 40.138 61.9774 40.2241C52.3755 44.3152 45.7444 31.0408 54.3574 25.9649C62.3836 21.2337 70.6109 31.2829 64.6404 38.2996V38.2914ZM94.7141 18.9645C94.5828 18.8291 92.9578 19.9945 92.6993 20.1709C87.1803 23.9625 81.6366 28.7347 76.5484 33.1171C68.5222 40.0313 60.8161 47.3353 53.2043 54.7008L53.3028 55.1932L59.0763 60.9462C66.8399 53.0266 74.386 44.8363 81.5381 36.3465C85.5307 31.603 89.8229 26.4778 93.3148 21.3691C93.5241 21.0614 94.8946 19.1451 94.7182 18.9645H94.7141ZM57.956 28.5829C52.1908 29.3666 53.3192 38.1601 59.6179 37.0768C64.5953 36.2192 63.6105 27.8155 57.956 28.5829ZM64.2506 38.8823C64.0373 38.669 63.6474 39.0588 63.8608 39.2721C64.0742 39.4855 64.464 39.0957 64.2506 38.8823ZM36.914 75.3941C41.403 76.1328 46.2163 76.3543 50.3238 74.0606C53.8116 72.1115 56.2039 68.1025 56.9384 64.2699L49.7985 56.9372C46.204 57.2696 42.9993 58.874 41.4359 62.2428C39.8725 65.6117 39.9792 70.109 38.1942 73.4533C37.8085 74.1755 37.1889 74.6679 36.9181 75.3983L36.914 75.3941Z" fill="#080606"/>
<path d="M39.2118 11.9847C49.3225 10.8111 51.9241 25.3001 42.5314 27.8032C31.0666 30.8561 28.0835 13.2772 39.2118 11.9847ZM39.9956 15.6859C34.3821 15.9855 34.7884 24.5164 40.3074 24.4097C46.1424 24.2948 45.9454 15.3658 39.9956 15.6859Z" fill="#080606"/>
<path d="M17.1357 18.2259C25.7569 16.8841 30.5004 27.4175 23.697 32.5959C17.7061 37.1548 9.13001 31.7629 10.8001 24.3851C11.4566 21.4881 14.1813 18.6855 17.1398 18.2259H17.1357ZM17.9194 21.9395C12.5645 22.7889 13.5945 31.3854 19.5854 30.4376C24.9034 29.5923 23.935 20.9875 17.9194 21.9395Z" fill="#080606"/>
<path d="M20.0738 58.0738C30.8533 56.8387 32.4619 73.0839 21.9531 74.2042C11.3213 75.3408 9.5281 59.2802 20.0738 58.0738ZM20.8616 61.7709C15.1087 62.091 15.5519 70.4742 20.997 70.5111C26.9141 70.5522 26.7089 61.4427 20.8616 61.7709Z" fill="#080606"/>
</svg>
