<?xml version="1.0" encoding="UTF-8"?>
<svg id="_圖層_1" data-name="圖層 1" xmlns="http://www.w3.org/2000/svg" viewBox="0 0 331.42 322.55">
  <defs>
    <style>
      .cls-1 {
        fill: #ff7f15;
      }
    </style>
  </defs>
  <path class="cls-1" d="M0,314.01c3.52-5.33,8.72-9.13,12.57-14.3,10.56-14.2,10.75-21.63,12.04-38.46,1.68-22.01,24.44-29.22,42.38-34.66,8.39-11.39,16.08-26.37,25.26-36.89,4.21-4.83,6.75-3.88,11.98-.92,12.78-14,24.99-28.55,37.86-42.46,23.59-25.49,49.23-51.91,74.77-75.42C238.08,51.37,294.85,1.81,322.73.04c13.27-.84,8.13,12.37,5.33,20.22-10.8,30.3-44.83,69.16-66.83,93.07-36.78,39.97-77.4,77.13-118.21,112.93-1.5,1.67,1.21,3.25,1.7,4.85.84,2.72.16,5.32-1.69,7.43-12,7.06-23.55,18.01-35.61,24.59-1.66.9-4.88,1.53-5.07,1.72-.34.35-1.2,7.96-1.66,9.67-10.75,39.32-48.75,48.62-84.79,47.87-6.1-.13-13.06,1.82-15.89-5.15v-3.24ZM86.59,275.33c1.66-4.37,4.95-18.11,2.78-21.89-.49-.85-13.07-13.42-13.92-13.92-1.54-.89-2.11-.65-3.75-.46-8.2.97-27.14,8.43-31.85,15.42-3.47,5.15-1.85,10.71-2.39,16.38-1.36,14.22-7.29,27.55-16.1,38.6,26.39.59,55.03-7.27,65.23-34.14ZM103.89,249.26l24.29-16.52-29.46-30.07-17,24.92,22.16,21.67ZM278.17,36.4c-40.02,28.5-79.57,69-113.42,104.75-17.63,18.62-34.83,37.93-51.48,57.3,0,1.4,16.98,17.65,19.68,19.7,12.13-10.97,24.63-21.58,36.68-32.64,38.3-35.16,79.52-74.72,111.97-115.26,13.26-16.57,26.65-34.81,34.33-54.68-2.66-2.53-33.68,17.94-37.75,20.83Z"/>
</svg>