<?xml version="1.0" encoding="UTF-8"?>
<svg id="_圖層_1" data-name="圖層_1" xmlns="http://www.w3.org/2000/svg" version="1.1" viewBox="0 0 100 91">
  <!-- Generator: Adobe Illustrator 29.5.1, SVG Export Plug-In . SVG Version: 2.1.0 Build 141)  -->
  <defs>
    <style>
      .st0 {
        fill: #299ea7;
      }
    </style>
  </defs>
  <path class="st0" d="M0,21.8C2.44,10.48,14.9,3.83,25.39,1.59c20.97-4.48,42.78,8.25,50.19,28.03,4.95-3.84,9.58-8.15,14.78-11.68,1.86-1.26,5.48-3.92,7.73-3.5,1.14.21,1.89,1.24,1.91,2.39.06,2.56-3.57,7.38-5.13,9.54-4.97,6.89-10.72,13.24-16.22,19.71-.46,32.9-35.72,55.21-65.38,39.11-5.07-2.75-10.5-7.33-12.45-12.94L0,69.26v-4.49c.7-3.45,2.11-6.45,4.68-8.89,3.17-3.01,8.55-5.05,8.61-10.15.07-5.41-5.53-7.35-8.81-10.55-2.43-2.38-3.72-5.22-4.49-8.5v-4.88h0ZM64.64,38.98c.39.08.53-.09.79-.28,2.33-1.69,4.45-4.33,6.84-6.05.41-.53-.02-1.2-.21-1.77-4.79-15.03-21.81-25.92-37.19-26.47C23.43,4,1.02,12.21,4,26.89c1.65,8.12,12.33,8.78,13,17.66.85,11.16-11.34,11.01-13.04,19.98-2.37,12.52,14.28,20.31,24.32,21.86,15.36,2.37,31.29-5.36,39.76-18.12,3.39-5.11,5.73-11.23,6.36-17.36-2.63,2.74-5.12,5.62-7.71,8.4-1.55,1.66-4.64,4.21-5.77,5.95-.62.95-1.12,3.59-1.72,4.92-4.85,10.74-17.79,12.38-27.81,8.22-1-.41-2.09-.99-1.83-2.3.37-1.83,2.54-1.45,3.77-2.1,2.38-1.25,2.7-6.01,3.32-8.4,1.28-4.92,3.05-8.51,8-10.55,1.39-.57,4.2-.87,5.06-1.39,1.1-.66,3.69-3.78,4.87-4.89,2.94-2.79,5.98-5.47,8.89-8.3.3-.71-1.3.38-1.49.46-9.6,4.09-16.23-9.18-7.62-14.26,8.03-4.73,16.25,5.32,10.28,12.33h0ZM94.71,19.66c-.13-.14-1.76,1.03-2.01,1.21-5.52,3.79-11.06,8.56-16.15,12.95-8.03,6.91-15.73,14.22-23.34,21.58l.1.49,5.77,5.75c7.76-7.92,15.31-16.11,22.46-24.6,3.99-4.74,8.28-9.87,11.78-14.98.21-.31,1.58-2.22,1.4-2.4h0ZM57.96,29.28c-5.77.78-4.64,9.58,1.66,8.49,4.98-.86,3.99-9.26-1.66-8.49ZM64.25,39.57c-.21-.21-.6.18-.39.39.21.21.6-.18.39-.39ZM36.91,76.09c4.49.74,9.3.96,13.41-1.33,3.49-1.95,5.88-5.96,6.61-9.79l-7.14-7.33c-3.59.33-6.8,1.94-8.36,5.31-1.56,3.37-1.46,7.87-3.24,11.21-.39.72-1.01,1.21-1.28,1.94h0Z"/>
  <path class="st0" d="M39.21,12.68c10.11-1.17,12.71,13.32,3.32,15.82-11.46,3.05-14.45-14.53-3.32-15.82ZM40,16.38c-5.61.3-5.21,8.83.31,8.72,5.83-.11,5.64-9.04-.31-8.72Z"/>
  <path class="st0" d="M17.14,18.92c8.62-1.34,13.36,9.19,6.56,14.37-5.99,4.56-14.57-.83-12.9-8.21.66-2.9,3.38-5.7,6.34-6.16h0ZM17.92,22.63c-5.35.85-4.32,9.45,1.67,8.5,5.32-.85,4.35-9.45-1.67-8.5Z"/>
  <path class="st0" d="M20.07,58.77c10.78-1.24,12.39,15.01,1.88,16.13-10.63,1.14-12.43-14.92-1.88-16.13ZM20.86,62.46c-5.75.32-5.31,8.7.14,8.74,5.92.04,5.71-9.07-.14-8.74Z"/>
</svg>