<?xml version="1.0" encoding="UTF-8"?>
<svg id="_圖層_1" data-name="圖層_1" xmlns="http://www.w3.org/2000/svg" version="1.1" viewBox="0 0 190 158">
  <!-- Generator: Adobe Illustrator 29.5.1, SVG Export Plug-In . SVG Version: 2.1.0 Build 141)  -->
  <defs>
    <style>
      .st0 {
        fill: #299ea7;
      }
    </style>
  </defs>
  <path class="st0" d="M.56,54.88c1.77-3.77,4.63-7.25,9.23-7.02-1.21-3.55-1.27-7.06,1.12-10.14,6.86-8.85,21.09-1.03,16.42,10.15-.6,1.43-2.92,2.83.74,3.31.82.11.41-.15.57-.53,3.71-8.35,14.13-23.29,24.2-13.37,11.58,11.42,4.96,46.77-10.44,52.6-13.46,5.1-17.79-11.9-17.54-21.85-1.43-1.26-2.93-2.49-4.19-3.93-.88-1.01-1.18-2.84-2.19-1.82-2.68,2.69-4.25,5.07-8.83,4.75-4.28-.3-7.62-3.54-9.1-7.36v-4.8h0ZM27.87,69.64c.51,11.18,10.05,14.95,16.76,5.13,4.28-6.26,5.86-16.14,3.95-23.45-3.03-11.59-12.9-8.55-17.39.05,4.07-.21,6.89-2.04,9.39,2.42,1.85,3.31,2.59,9.26.37,12.5-2.9,4.24-8.56,4.33-13.08,3.34h0Z"/>
  <path class="st0" d="M189.08,48.69c1.35,1.36-.52,5.7-1.33,7.17-1.88,3.43-5.22,6.32-7.75,9.25,2.55,15.54.63,30.96-5.53,45.38-.74,1.72-3.49,6.07-3.69,7.41-.26,1.68,2.71,3.45,3.62,4.71,1.9,2.63,1.97,5.28.31,8.06-.69,1.16-10.04,11.31-10.83,11.31-.27,0-2.94-3.48-4.65-1.32-2.03,2.57,3.07,3.71.67,5.09-2.4,1.38-5.57.67-7.76-.88-1.28-.9-1.91-2.55-3.72-2.14-6.69,4.23-13.51,8.18-21.06,10.71-23.14,7.75-47.99,4.59-68.59-8.21-1.44-.9-6.28-4.76-7.18-5-2.32-.62-3.34,1.57-5.06,2.51-8.7,4.76-13.01-7.92-18.24-12.45-.35-1.29,4.19-2.63,2.21-5.14-1.65-2.09-4.7,1.7-5.2,1.33-.58-2.09-1.12-3.49-.3-5.64,1.03-2.67,5.31-4.22,5.11-7.08-.09-1.35-2.69-6.28-3.35-8.12-2.84-7.85-4.42-16.17-4.42-24.55l3.36,10.1c6.75,12.91,18.99,11.06,27.65,1.16,11.63-13.3,16.67-42.07,7.3-57.51-3.38-5.57-8.76-8.95-15.43-7.09-2.08.58-3.83,2.32-5.9,2.22,8.26-9.67,18.05-17.83,29.76-23.02,38.23-16.93,83.11-1.36,102.8,35.13.7,1.29,3.33,7.62,3.84,7.97.81.57,2.65.46,3.66.39,2.28-.17,8.38-3.07,9.7-1.75h-.01Z"/>
</svg>