<?xml version="1.0" encoding="UTF-8"?>
<svg id="_圖層_1" data-name="圖層 1" xmlns="http://www.w3.org/2000/svg" viewBox="0 0 359.12 299.5">
  <defs>
    <style>
      .cls-1 {
        fill: #299ea7;
      }
    </style>
  </defs>
  <path class="cls-1" d="M38.52.21l303.76-.21c8.86.54,16.11,8.08,16.84,16.84v223.88c-.72,8.82-7.99,16.12-16.84,16.84l-194.66-.04c-2.04.39-3.92,5.45-5.3,7.42-22.99,32.68-64.22,44.19-100.52,25.8-47.52-24.08-55.87-88.77-18.07-125.68l-.08-26.84-.64-.86c-15.7-2.88-22.8-21.72-12.38-34.05,3.82-4.52,8.22-5.47,13.01-7.95l.16-79.93C25.2,7.88,31.01,1.88,38.52.21ZM151.74,245.55h191.25c1.71,0,4.83-4.29,4.15-6.33l-.6-224.03c-1.15-2.2-3.25-3.33-5.76-3.22H42.04c-2.04-.68-6.33,2.44-6.33,4.15v81.59l1.86,1.12,29.98-26.93c-7.61-17.61,9.3-35.95,27.5-28.29,11.16,4.7,16.25,19.11,9.65,29.6l.22,1.66,23.35,18.61c8.34-4.71,15.78-4.69,24.22-.24l34.1-28.08c-3.5-11.66,1.05-24.15,13.08-28.04,30.37-9.83,38.75,39.66,7.1,40.82-5.43.2-8.42-2.45-13.08-3.46l-33.6,27.49c10.08,38.86-48.34,39.8-39.36.63l-25.14-19.87c-3.87-.02-6.65,1.47-10.82,1.14-3.34-.26-5.88-1.77-8.89-2.87l-30.07,26.82c4.84,10.96.07,22.48-10.08,28.08v19.84c4.36-1.78,8.37-4.58,12.74-6.35,61.39-24.89,123.38,33.7,103.29,96.17ZM204.7,48.1c-10.77,1.75-8.94,18.87,2.71,17.77s9.78-19.8-2.71-17.77ZM84.94,54.09c-10.77,1.75-8.94,18.87,2.71,17.77s9.78-19.8-2.71-17.77ZM138.83,101.99c-10.77,1.75-8.94,18.87,2.71,17.77,11.6-1.1,9.78-19.8-2.71-17.77ZM25.05,107.98c-10.77,1.75-8.94,18.87,2.71,17.77s9.78-19.8-2.71-17.77ZM71.65,155.73c-38.6,4.65-65.2,38.36-58.92,77.26.36,2.25,2.74,13.55,4.72,14.01l54.19-29.51v-61.75ZM143.5,215.61c-3.62-31.73-28.1-56.34-59.88-59.88v59.88h59.88ZM143.5,227.59h-64.75l-55.78,30.33c34.1,51.95,114.25,30.91,120.53-30.33Z"/>
  <path class="cls-1" d="M197.4,221.6v-68.49c0-1.87,3.59-6.35,5.28-7.45,4.13-2.69,19.5-2.77,23.92-.79,2.37,1.06,6.73,5.76,6.73,8.24v68.49h5.99v-86.46c0-1.87,3.59-6.35,5.28-7.45,4.13-2.69,19.5-2.77,23.92-.79,2.37,1.06,6.73,5.76,6.73,8.24v86.46h5.99v-50.53c0-1.87,3.59-6.35,5.28-7.45,4.13-2.69,19.5-2.77,23.92-.79,2.37,1.06,6.73,5.76,6.73,8.24v50.53h13.85c4.03,0,7.3,10.98-1.48,11.99l-133.29.02c-8.91-.78-16.03-7.91-16.84-16.84-2.81-30.9,2.18-66.01.02-97.36.75-7.57,11.26-7.58,12.01,0l.03,97.28c.46,2.92,2.93,5.07,5.94,4.91ZM263.27,137.76h-11.98v83.84h11.98v-83.84ZM221.35,155.73h-11.98v65.87h11.98v-65.87ZM305.19,173.69h-11.98v47.91h11.98v-47.91Z"/>
  <path class="cls-1" d="M267.55,36.12l56.68-.12c6.63,1.04,6.91,11.07-.69,11.95-17.06,1.98-37.89-1.47-55.36-.06-6.32-.99-6.72-9.99-.63-11.77Z"/>
  <path class="cls-1" d="M267.55,60.07l56.68-.12c6.63,1.04,6.91,11.07-.69,11.95-17.06,1.98-37.89-1.47-55.36-.06-6.32-.99-6.72-9.99-.63-11.77Z"/>
  <path class="cls-1" d="M267.55,84.03l56.68-.12c6.63,1.04,6.91,11.07-.69,11.95-17.06,1.98-37.89-1.47-55.36-.06-6.32-.99-6.72-9.99-.63-11.77Z"/>
  <path class="cls-1" d="M249.59,36.11c8.77-1.91,10.29,10.18,3.4,11.68-8.77,1.91-10.29-10.18-3.4-11.68Z"/>
  <path class="cls-1" d="M249.59,60.06c8.77-1.91,10.29,10.18,3.4,11.68-8.77,1.91-10.29-10.18-3.4-11.68Z"/>
  <path class="cls-1" d="M249.59,84.02c8.77-1.91,10.29,10.18,3.4,11.68-8.77,1.91-10.29-10.18-3.4-11.68Z"/>
</svg>