<svg width="1440" height="928" viewBox="0 0 1440 928" fill="none" xmlns="http://www.w3.org/2000/svg">
<path d="M1182 138.651H1165V240.651H1182V138.651Z" fill="#F5CD53"/>
<path d="M1238 181.651H1221V283.651H1238V181.651Z" fill="#E9562A"/>
<path d="M397.511 289.651H295.489C288.591 289.651 283 295.242 283 302.139V382.797C283 389.694 288.591 395.285 295.489 395.285H397.511C404.409 395.285 410 389.694 410 382.797V302.139C410 295.242 404.409 289.651 397.511 289.651Z" fill="#E9562A"/>
<path d="M283 369.328H409.981" stroke="#6FE9B8" stroke-width="2" stroke-linecap="round" stroke-linejoin="round"/>
<path d="M305.018 369.328L333.108 309.498L361.198 369.328" stroke="#6FE9B8" stroke-width="2" stroke-linecap="round" stroke-linejoin="round"/>
<path d="M352.61 351.037L375.704 317.433L400.893 369.328" stroke="#6FE9B8" stroke-width="2" stroke-linecap="round" stroke-linejoin="round"/>
<path d="M364.215 311.631C364.215 308.422 361.621 305.828 358.412 305.828C355.204 305.828 352.61 308.422 352.61 311.631C352.61 314.839 355.204 317.433 358.412 317.433C361.621 317.433 364.215 314.839 364.215 311.631Z" fill="#299EA7"/>
<path d="M52 309.651H123L52 225.651V309.651Z" fill="#E9562A"/>
<path d="M1319.95 766.628C1320.37 766.985 1321 766.935 1321.36 766.514C1321.72 766.093 1321.67 765.462 1321.25 765.104L1319.95 766.628ZM1200.12 907.519C1200.54 907.877 1201.17 907.826 1201.53 907.405C1201.89 906.985 1201.84 906.353 1201.42 905.995L1200.12 907.519ZM1129.54 846.175C1129.18 846.595 1129.24 847.226 1129.66 847.584C1130.08 847.942 1130.71 847.891 1131.07 847.471L1129.54 846.175ZM1250.9 706.603C1251.26 706.182 1251.21 705.551 1250.79 705.193C1250.37 704.836 1249.74 704.886 1249.38 705.307L1250.9 706.603ZM1220.5 802.138L1221.15 801.376L1221.05 801.29L1220.93 801.234L1220.5 802.138ZM1248.39 881.561L1247.45 881.898L1247.69 882.585L1248.42 882.56L1248.39 881.561ZM1293.09 895.932L1292.44 896.694L1293.2 897.342L1293.85 896.58L1293.09 895.932ZM1324.69 858.754L1325.46 859.402L1326.1 858.64L1325.34 857.992L1324.69 858.754ZM1303.33 816.92L1304.32 816.794L1304.23 816.07L1303.51 815.937L1303.33 816.92ZM1220.47 802.122L1220.64 801.137L1220.04 803.026L1220.47 802.122ZM1260.01 837.07C1260.43 837.428 1261.06 837.377 1261.42 836.956C1261.78 836.536 1261.73 835.905 1261.31 835.547L1260.01 837.07ZM1322.4 927.189C1322.82 927.547 1323.45 927.496 1323.81 927.075C1324.17 926.654 1324.11 926.023 1323.69 925.666L1322.4 927.189ZM1290.61 898.853L1289.85 898.205C1289.68 898.407 1289.59 898.669 1289.61 898.933C1289.63 899.198 1289.76 899.443 1289.96 899.615L1290.61 898.853ZM1327.21 855.849L1327.85 855.088C1327.65 854.916 1327.39 854.831 1327.13 854.853C1326.86 854.874 1326.62 854.999 1326.45 855.201L1327.21 855.849ZM1358.98 884.217C1359.4 884.575 1360.03 884.525 1360.39 884.104C1360.75 883.684 1360.7 883.053 1360.28 882.694L1358.98 884.217ZM1198.82 766.264L1199.47 765.503C1193.46 760.382 1184.45 761.115 1179.33 767.118L1180.09 767.767L1180.85 768.416C1185.26 763.251 1193.01 762.623 1198.17 767.025L1198.82 766.264ZM1180.09 767.767L1179.33 767.118C1174.21 773.124 1174.94 782.14 1180.95 787.259L1181.59 786.498L1182.24 785.737C1177.08 781.333 1176.45 773.579 1180.85 768.416L1180.09 767.767ZM1181.59 786.498L1180.95 787.259C1186.95 792.381 1195.97 791.647 1201.09 785.644L1200.33 784.995L1199.56 784.346C1195.16 789.512 1187.41 790.14 1182.24 785.737L1181.59 786.498ZM1200.33 784.995L1201.09 785.644C1206.21 779.638 1205.47 770.622 1199.47 765.503L1198.82 766.264L1198.17 767.025C1203.34 771.43 1203.97 779.184 1199.56 784.346L1200.33 784.995ZM1138.9 836.698L1139.55 835.937C1133.55 830.815 1124.53 831.549 1119.41 837.552L1120.17 838.201L1120.93 838.85C1125.34 833.684 1133.09 833.056 1138.25 837.459L1138.9 836.698ZM1120.17 838.201L1119.41 837.552C1114.29 843.558 1115.02 852.574 1121.03 857.693L1121.67 856.932L1122.32 856.171C1117.16 851.766 1116.53 844.012 1120.93 838.85L1120.17 838.201ZM1121.67 856.932L1121.03 857.693C1127.03 862.814 1136.05 862.081 1141.17 856.078L1140.41 855.429L1139.64 854.78C1135.24 859.945 1127.49 860.573 1122.32 856.171L1121.67 856.932ZM1140.41 855.429L1141.17 856.078C1146.29 850.072 1145.55 841.056 1139.55 835.937L1138.9 836.698L1138.25 837.459C1143.42 841.863 1144.05 849.618 1139.64 854.78L1140.41 855.429ZM1209.34 896.641L1209.99 895.88C1203.99 890.758 1194.97 891.492 1189.85 897.495L1190.61 898.144L1191.37 898.793C1195.78 893.627 1203.53 892.999 1208.7 897.401L1209.34 896.641ZM1190.61 898.144L1189.85 897.495C1184.73 903.501 1185.46 912.517 1191.47 917.636L1192.12 916.875L1192.77 916.114C1187.6 911.709 1186.97 903.955 1191.37 898.793L1190.61 898.144ZM1192.12 916.875L1191.47 917.636C1197.47 922.757 1206.49 922.024 1211.61 916.021L1210.85 915.372L1210.09 914.723C1205.68 919.888 1197.93 920.516 1192.77 916.114L1192.12 916.875ZM1210.85 915.372L1211.61 916.021C1216.73 910.015 1216 900.998 1209.99 895.88L1209.34 896.641L1208.7 897.401C1213.86 901.806 1214.49 909.56 1210.09 914.723L1210.85 915.372ZM1258.76 695.822L1259.41 695.061C1253.41 689.94 1244.39 690.673 1239.27 696.676L1240.03 697.325L1240.79 697.974C1245.2 692.808 1252.95 692.181 1258.12 696.583L1258.76 695.822ZM1240.03 697.325L1239.27 696.676C1234.15 702.682 1234.89 711.698 1240.89 716.817L1241.54 716.056L1242.19 715.295C1237.02 710.89 1236.39 703.136 1240.79 697.974L1240.03 697.325ZM1241.54 716.056L1240.89 716.817C1246.89 721.938 1255.91 721.205 1261.03 715.202L1260.27 714.553L1259.51 713.904C1255.1 719.07 1247.35 719.697 1242.19 715.295L1241.54 716.056ZM1260.27 714.553L1261.03 715.202C1266.15 709.196 1265.42 700.18 1259.41 695.061L1258.76 695.822L1258.12 696.583C1263.28 700.987 1263.91 708.742 1259.51 713.904L1260.27 714.553ZM1329.2 755.741L1329.85 754.98C1323.84 749.859 1314.83 750.593 1309.71 756.595L1310.47 757.244L1311.23 757.893C1315.63 752.728 1323.39 752.1 1328.55 756.502L1329.2 755.741ZM1310.47 757.244L1309.71 756.595C1304.59 762.601 1305.32 771.618 1311.32 776.736L1311.97 775.975L1312.62 775.215C1307.45 770.81 1306.83 763.056 1311.23 757.893L1310.47 757.244ZM1311.97 775.975L1311.32 776.736C1317.33 781.858 1326.34 781.124 1331.46 775.121L1330.7 774.472L1329.94 773.824C1325.54 778.989 1317.78 779.617 1312.62 775.215L1311.97 775.975ZM1330.7 774.472L1331.46 775.121C1336.58 769.115 1335.85 760.099 1329.85 754.98L1329.2 755.741L1328.55 756.502C1333.72 760.907 1334.34 768.661 1329.94 773.824L1330.7 774.472ZM1320.6 765.866L1321.25 765.104C1281.92 731.639 1222.93 736.417 1189.49 775.732L1190.25 776.38L1191.01 777.028C1223.74 738.553 1281.47 733.878 1319.95 766.628L1320.6 765.866ZM1190.25 776.38L1189.49 775.732C1156.04 815.048 1160.8 874.053 1200.12 907.519L1200.77 906.757L1201.42 905.995C1162.94 873.246 1158.28 815.503 1191.01 777.028L1190.25 776.38ZM1130.3 846.823L1131.07 847.471L1250.9 706.603L1250.14 705.955L1249.38 705.307L1129.54 846.175L1130.3 846.823ZM1220.5 802.138C1219.56 802.464 1219.56 802.464 1219.56 802.464C1219.56 802.465 1219.56 802.465 1219.56 802.466C1219.56 802.467 1219.56 802.469 1219.56 802.472C1219.56 802.477 1219.56 802.485 1219.57 802.496C1219.58 802.517 1219.59 802.548 1219.6 802.589C1219.63 802.672 1219.67 802.796 1219.73 802.959C1219.84 803.285 1220.01 803.768 1220.23 804.395C1220.66 805.65 1221.29 807.483 1222.1 809.795C1223.7 814.419 1225.97 820.96 1228.65 828.631C1234.01 843.972 1240.98 863.83 1247.45 881.898L1248.39 881.561L1249.33 881.224C1242.86 863.163 1235.89 843.31 1230.54 827.972C1227.86 820.302 1225.59 813.762 1223.99 809.139C1223.18 806.828 1222.55 804.996 1222.12 803.741C1221.9 803.114 1221.73 802.632 1221.62 802.306C1221.56 802.143 1221.52 802.019 1221.49 801.936C1221.48 801.895 1221.47 801.863 1221.46 801.843C1221.45 801.832 1221.45 801.824 1221.45 801.819C1221.45 801.816 1221.45 801.814 1221.45 801.813C1221.45 801.812 1221.45 801.812 1221.45 801.812C1221.45 801.811 1221.45 801.811 1220.5 802.138ZM1248.39 881.561C1248.42 882.56 1248.42 882.56 1248.42 882.56C1248.42 882.56 1248.42 882.56 1248.42 882.56C1248.42 882.56 1248.42 882.56 1248.42 882.56C1248.43 882.56 1248.43 882.56 1248.44 882.56C1248.45 882.559 1248.46 882.559 1248.49 882.558C1248.54 882.557 1248.61 882.555 1248.71 882.554C1248.9 882.551 1249.19 882.549 1249.56 882.551C1250.31 882.556 1251.41 882.58 1252.79 882.656C1255.54 882.808 1259.4 883.168 1263.81 884C1272.65 885.667 1283.64 889.213 1292.44 896.694L1293.09 895.932L1293.74 895.17C1284.56 887.374 1273.2 883.734 1264.18 882.035C1259.67 881.183 1255.72 880.815 1252.9 880.659C1251.49 880.581 1250.36 880.557 1249.58 880.552C1249.19 880.549 1248.88 880.551 1248.68 880.554C1248.57 880.556 1248.49 880.557 1248.44 880.559C1248.41 880.559 1248.39 880.56 1248.38 880.56C1248.37 880.561 1248.36 880.561 1248.36 880.561C1248.36 880.561 1248.36 880.561 1248.36 880.561C1248.35 880.561 1248.35 880.561 1248.35 880.561C1248.35 880.561 1248.35 880.561 1248.39 881.561ZM1324.69 858.754L1325.34 857.992C1316.54 850.511 1311.27 840.234 1308.21 831.768C1306.68 827.543 1305.71 823.789 1305.11 821.094C1304.82 819.747 1304.62 818.666 1304.49 817.925C1304.43 817.554 1304.39 817.268 1304.36 817.077C1304.35 816.981 1304.34 816.909 1304.33 816.861C1304.33 816.837 1304.32 816.82 1304.32 816.809C1304.32 816.803 1304.32 816.799 1304.32 816.796C1304.32 816.795 1304.32 816.794 1304.32 816.794C1304.32 816.794 1304.32 816.794 1304.32 816.794C1304.32 816.794 1304.32 816.794 1303.33 816.92C1302.34 817.047 1302.34 817.047 1302.34 817.048C1302.34 817.048 1302.34 817.049 1302.34 817.049C1302.34 817.051 1302.34 817.052 1302.34 817.054C1302.34 817.058 1302.34 817.064 1302.34 817.071C1302.34 817.085 1302.34 817.106 1302.35 817.133C1302.35 817.187 1302.37 817.266 1302.38 817.368C1302.41 817.573 1302.46 817.873 1302.52 818.258C1302.65 819.028 1302.86 820.141 1303.16 821.523C1303.77 824.285 1304.76 828.125 1306.33 832.448C1309.45 841.08 1314.87 851.72 1324.05 859.516L1324.69 858.754ZM1303.33 816.92L1303.51 815.937C1284.64 812.446 1263.92 808.746 1247.92 805.919C1239.92 804.505 1233.1 803.31 1228.28 802.468C1225.87 802.047 1223.96 801.714 1222.65 801.487C1222 801.373 1221.5 801.286 1221.16 801.227C1220.99 801.197 1220.86 801.175 1220.77 801.16C1220.73 801.152 1220.7 801.147 1220.67 801.143C1220.66 801.141 1220.66 801.139 1220.65 801.139C1220.65 801.138 1220.64 801.138 1220.64 801.137C1220.64 801.137 1220.64 801.137 1220.64 801.137C1220.64 801.137 1220.64 801.137 1220.47 802.122C1220.3 803.108 1220.3 803.108 1220.3 803.108C1220.3 803.108 1220.3 803.108 1220.3 803.108C1220.3 803.108 1220.31 803.109 1220.31 803.109C1220.31 803.11 1220.32 803.112 1220.33 803.113C1220.35 803.117 1220.39 803.123 1220.43 803.13C1220.52 803.145 1220.65 803.168 1220.82 803.197C1221.16 803.256 1221.66 803.343 1222.31 803.457C1223.62 803.685 1225.53 804.017 1227.94 804.438C1232.76 805.28 1239.58 806.475 1247.58 807.889C1263.57 810.715 1284.28 814.414 1303.15 817.904L1303.33 816.92ZM1220.47 802.122L1220.04 803.026L1220.07 803.041L1220.5 802.138L1220.93 801.234L1220.9 801.219L1220.47 802.122ZM1220.5 802.138L1219.85 802.899L1260.01 837.07L1260.66 836.308L1261.31 835.547L1221.15 801.376L1220.5 802.138ZM1273.22 834.432L1273.87 833.67C1269.43 829.9 1262.75 830.433 1258.98 834.875L1259.74 835.522L1260.5 836.17C1263.56 832.572 1268.98 832.137 1272.57 835.194L1273.22 834.432ZM1259.74 835.522L1258.98 834.875C1255.21 839.314 1255.74 845.992 1260.19 849.764L1260.83 849.002L1261.48 848.239C1257.88 845.185 1257.45 839.769 1260.5 836.17L1259.74 835.522ZM1260.83 849.002L1260.19 849.764C1264.62 853.533 1271.3 853 1275.07 848.559L1274.31 847.911L1273.55 847.264C1270.5 850.861 1265.08 851.296 1261.48 848.239L1260.83 849.002ZM1274.31 847.911L1275.07 848.559C1278.84 844.12 1278.31 837.441 1273.87 833.67L1273.22 834.432L1272.57 835.194C1276.17 838.249 1276.61 843.664 1273.55 847.264L1274.31 847.911ZM1323.05 926.428L1323.69 925.666L1291.26 898.091L1290.61 898.853L1289.96 899.615L1322.4 927.189L1323.05 926.428ZM1290.61 898.853L1291.37 899.501L1327.97 856.497L1327.21 855.849L1326.45 855.201L1289.85 898.205L1290.61 898.853ZM1327.21 855.849L1326.56 856.611L1358.98 884.217L1359.63 883.456L1360.28 882.694L1327.85 855.088L1327.21 855.849ZM1293.09 895.932L1293.85 896.58L1325.46 859.402L1324.69 858.754L1323.93 858.107L1292.33 895.285L1293.09 895.932Z" fill="#299EA7"/>
<path d="M150.057 425.066C152.473 422.192 156.748 421.831 159.603 424.262C162.458 426.695 162.813 430.998 160.397 433.873L129.831 470.236C128.544 471.767 126.651 472.651 124.658 472.651C122.667 472.65 120.777 471.766 119.491 470.236L94.088 440.02L68.6942 470.236C67.4072 471.767 65.5144 472.651 63.522 472.651C61.529 472.65 59.6361 471.764 58.3498 470.231L32.9957 440.025L7.60187 470.236C6.31456 471.767 4.42239 472.651 2.42963 472.651C0.436661 472.65 -1.4563 471.764 -2.74261 470.231L-28.0923 440.029L-53.442 470.231C-54.7279 471.763 -56.6176 472.649 -58.6098 472.651C-60.6028 472.651 -62.499 471.767 -63.7865 470.236L-89.1803 440.025L-114.534 470.231C-115.821 471.764 -117.713 472.651 -119.707 472.651C-121.7 472.65 -123.592 471.764 -124.879 470.231L-155.401 433.868C-157.815 430.992 -157.455 426.693 -154.598 424.262C-151.741 421.833 -147.47 422.194 -145.056 425.07L-119.707 455.268L-94.3569 425.07C-93.0706 423.538 -91.1776 422.652 -89.1847 422.651C-87.1918 422.65 -85.2998 423.534 -84.0124 425.066L-58.6186 455.272L-33.2645 425.07C-31.9779 423.538 -30.0857 422.651 -28.0923 422.651C-26.0985 422.651 -24.2069 423.537 -22.9201 425.07L2.43404 455.272L27.8278 425.066C29.1148 423.535 31.0079 422.651 33.0001 422.651C34.993 422.652 36.886 423.538 38.1723 425.07L63.522 455.272L88.9202 425.066C90.2071 423.535 92.1003 422.651 94.0924 422.651C96.084 422.652 97.9737 423.535 99.2603 425.066L124.658 455.277L150.057 425.066Z" fill="#299EA7"/>
<path d="M150.057 487.066C152.473 484.192 156.748 483.831 159.603 486.262C162.458 488.695 162.813 492.998 160.397 495.873L129.831 532.236C128.544 533.767 126.651 534.651 124.658 534.651C122.667 534.65 120.777 533.766 119.491 532.236L94.088 502.02L68.6942 532.236C67.4072 533.767 65.5144 534.651 63.522 534.651C61.529 534.65 59.6361 533.764 58.3498 532.231L32.9957 502.025L7.60187 532.236C6.31456 533.767 4.42239 534.651 2.42963 534.651C0.436661 534.65 -1.4563 533.764 -2.74261 532.231L-28.0923 502.029L-53.442 532.231C-54.7279 533.763 -56.6176 534.649 -58.6098 534.651C-60.6028 534.651 -62.499 533.767 -63.7865 532.236L-89.1803 502.025L-114.534 532.231C-115.821 533.764 -117.713 534.651 -119.707 534.651C-121.7 534.65 -123.592 533.764 -124.879 532.231L-155.401 495.868C-157.815 492.992 -157.455 488.693 -154.598 486.262C-151.741 483.833 -147.47 484.194 -145.056 487.07L-119.707 517.268L-94.3569 487.07C-93.0706 485.538 -91.1776 484.652 -89.1847 484.651C-87.1918 484.65 -85.2998 485.534 -84.0124 487.066L-58.6186 517.272L-33.2645 487.07C-31.9779 485.538 -30.0857 484.651 -28.0923 484.651C-26.0985 484.651 -24.2069 485.537 -22.9201 487.07L2.43404 517.272L27.8278 487.066C29.1148 485.535 31.0079 484.651 33.0001 484.651C34.993 484.652 36.886 485.538 38.1723 487.07L63.522 517.272L88.9202 487.066C90.2071 485.535 92.1003 484.651 94.0924 484.651C96.084 484.652 97.9737 485.535 99.2603 487.066L124.658 517.277L150.057 487.066Z" fill="#299EA7"/>
<path d="M165.887 672.651H186.647C188.78 672.651 190.533 674.404 190.533 676.537V697.297C190.533 699.43 188.78 701.184 186.647 701.184H165.887C163.754 701.184 162 699.43 162 697.297V676.537C162 674.404 163.754 672.651 165.887 672.651Z" fill="#6FE9B8"/>
<path d="M341.306 672.651H362.066C364.199 672.651 365.953 674.404 365.953 676.537V697.297C365.953 699.43 364.199 701.184 362.066 701.184H341.306C339.173 701.184 337.419 699.43 337.419 697.297V676.537C337.419 674.404 339.173 672.651 341.306 672.651Z" fill="#6FE9B8"/>
<path d="M165.887 848.117H186.647C188.78 848.117 190.533 849.871 190.533 852.004V872.764C190.533 874.897 188.78 876.651 186.647 876.651H165.887C163.754 876.651 162 874.897 162 872.764V852.004C162 849.871 163.754 848.117 165.887 848.117Z" fill="#6FE9B8"/>
<path d="M341.306 848.117H362.066C364.199 848.117 365.953 849.871 365.953 852.004V872.764C365.953 874.897 364.199 876.651 362.066 876.651H341.306C339.173 876.651 337.419 874.897 337.419 872.764V852.004C337.419 849.871 339.173 848.117 341.306 848.117Z" fill="#6FE9B8"/>
<path d="M351.733 686.917H176.267V862.384H351.733V686.917Z" stroke="#E9562A" stroke-width="2" stroke-linecap="round" stroke-linejoin="round"/>
<path d="M1170 678.651H1053L1170 561.651V678.651Z" stroke="#6FE9B8" stroke-width="2" stroke-linecap="round" stroke-linejoin="round"/>
<path d="M61.9441 880.637L62 880.525H61.8604L32.5 836.651L3.13964 880.525H3L3.08389 880.637L3 880.748H3.13964L32.5 924.651L61.8604 880.748H62L61.9441 880.637Z" stroke="#E9562A" stroke-width="2" stroke-linecap="round" stroke-linejoin="round"/>
<path d="M1137.56 454.75C1130.97 460.575 1125.05 463.488 1119.8 463.488C1116.71 463.488 1114.15 462.485 1112.1 460.479C1110.06 458.434 1109.04 455.888 1109.04 452.84C1109.04 448.713 1110.81 445.009 1114.36 441.73C1117.91 438.413 1125.64 434.015 1137.56 428.537V423.098C1137.56 419.009 1137.33 416.444 1136.87 415.402C1136.45 414.322 1135.62 413.396 1134.38 412.624C1133.15 411.814 1131.76 411.409 1130.22 411.409C1127.71 411.409 1125.64 411.969 1124.02 413.087C1123.02 413.782 1122.52 414.592 1122.52 415.518C1122.52 416.328 1123.06 417.331 1124.14 418.527C1125.61 420.185 1126.34 421.786 1126.34 423.329C1126.34 425.22 1125.63 426.84 1124.2 428.19C1122.81 429.502 1120.98 430.157 1118.7 430.157C1116.27 430.157 1114.23 429.425 1112.57 427.959C1110.95 426.493 1110.14 424.776 1110.14 422.809C1110.14 420.031 1111.24 417.389 1113.44 414.881C1115.63 412.335 1118.7 410.387 1122.64 409.037C1126.57 407.687 1130.66 407.012 1134.9 407.012C1140.03 407.012 1144.08 408.111 1147.05 410.31C1150.06 412.47 1152.01 414.823 1152.9 417.369C1153.44 418.99 1153.71 422.712 1153.71 428.537V449.542C1153.71 452.011 1153.81 453.573 1154 454.229C1154.19 454.846 1154.48 455.309 1154.87 455.618C1155.25 455.927 1155.7 456.081 1156.2 456.081C1157.2 456.081 1158.22 455.367 1159.26 453.94L1161 455.329C1159.07 458.183 1157.07 460.266 1154.98 461.578C1152.94 462.851 1150.6 463.488 1147.98 463.488C1144.89 463.488 1142.48 462.774 1140.75 461.347C1139.01 459.881 1137.95 457.682 1137.56 454.75ZM1137.56 450.526V432.414C1132.9 435.153 1129.43 438.085 1127.15 441.21C1125.64 443.293 1124.89 445.395 1124.89 447.517C1124.89 449.291 1125.53 450.854 1126.8 452.204C1127.77 453.245 1129.12 453.766 1130.85 453.766C1132.78 453.766 1135.02 452.686 1137.56 450.526Z" fill="#E9562A"/>
<path d="M1067.37 440.399H1039.66L1036.36 448.038C1035.28 450.584 1034.74 452.686 1034.74 454.345C1034.74 456.544 1035.63 458.164 1037.4 459.206C1038.44 459.823 1041.01 460.286 1045.1 460.594V462.735H1019V460.594C1021.82 460.17 1024.13 459.013 1025.94 457.122C1027.76 455.194 1029.99 451.239 1032.66 445.26L1060.72 382.651H1061.82L1090.12 446.996C1092.82 453.091 1095.03 456.93 1096.77 458.511C1098.08 459.707 1099.93 460.401 1102.33 460.594V462.735H1064.37V460.594H1065.93C1068.98 460.594 1071.12 460.17 1072.35 459.321C1073.2 458.704 1073.62 457.817 1073.62 456.659C1073.62 455.965 1073.51 455.251 1073.28 454.518C1073.2 454.171 1072.62 452.725 1071.54 450.179L1067.37 440.399ZM1065.41 436.118L1053.72 409.095L1041.68 436.118H1065.41Z" fill="#E9562A"/>
<path d="M1495.85 551.656C1497.18 550.39 1499.28 550.298 1500.71 551.501C1502.25 552.786 1502.44 555.057 1501.14 556.574L1476.55 585.374C1475.86 586.183 1474.84 586.651 1473.78 586.651C1472.71 586.65 1471.69 586.183 1471 585.374L1449.18 559.819L1427.37 585.374C1426.68 586.183 1425.66 586.651 1424.59 586.651C1423.52 586.65 1422.51 586.183 1421.82 585.374L1400.03 559.823L1378.22 585.374C1377.53 586.183 1376.51 586.651 1375.44 586.651C1374.38 586.65 1373.36 586.183 1372.67 585.374L1350.89 559.826L1329.11 585.374C1328.42 586.183 1327.4 586.65 1326.34 586.651C1325.27 586.651 1324.25 586.183 1323.56 585.374L1301.75 559.823L1279.96 585.374C1279.27 586.183 1278.26 586.651 1277.19 586.651C1276.12 586.65 1275.1 586.184 1274.41 585.374L1249.86 556.574L1249.63 556.283C1248.59 554.777 1248.85 552.705 1250.29 551.501C1251.73 550.298 1253.83 550.39 1255.16 551.66L1255.41 551.927L1277.19 577.471L1298.97 551.927L1299.24 551.638C1299.91 551.007 1300.81 550.651 1301.74 550.651C1302.81 550.65 1303.83 551.118 1304.52 551.927L1326.33 577.475L1348.12 551.927L1348.39 551.638C1349.06 551.007 1349.96 550.651 1350.89 550.651C1351.96 550.651 1352.97 551.118 1353.66 551.927L1375.45 577.475L1397.26 551.927C1397.95 551.118 1398.97 550.65 1400.04 550.651C1401.11 550.651 1402.12 551.118 1402.81 551.927L1424.59 577.475L1446.41 551.927L1446.69 551.638C1447.36 551.008 1448.25 550.651 1449.19 550.651C1450.25 550.651 1451.27 551.119 1451.96 551.927L1473.78 577.475L1495.6 551.927L1495.85 551.656Z" fill="#6FE9B8"/>
<path d="M1495.85 601.656C1497.18 600.39 1499.28 600.298 1500.71 601.501C1502.25 602.786 1502.44 605.057 1501.14 606.574L1476.55 635.374C1475.86 636.183 1474.84 636.651 1473.78 636.651C1472.71 636.65 1471.69 636.183 1471 635.374L1449.18 609.819L1427.37 635.374C1426.68 636.183 1425.66 636.651 1424.59 636.651C1423.52 636.65 1422.51 636.183 1421.82 635.374L1400.03 609.823L1378.22 635.374C1377.53 636.183 1376.51 636.651 1375.44 636.651C1374.38 636.65 1373.36 636.183 1372.67 635.374L1350.89 609.826L1329.11 635.374C1328.42 636.183 1327.4 636.65 1326.34 636.651C1325.27 636.651 1324.25 636.183 1323.56 635.374L1301.75 609.823L1279.96 635.374C1279.27 636.183 1278.26 636.651 1277.19 636.651C1276.12 636.65 1275.1 636.184 1274.41 635.374L1249.86 606.574L1249.63 606.283C1248.59 604.777 1248.85 602.705 1250.29 601.501C1251.73 600.298 1253.83 600.39 1255.16 601.66L1255.41 601.927L1277.19 627.471L1298.97 601.927L1299.24 601.638C1299.91 601.007 1300.81 600.651 1301.74 600.651C1302.81 600.65 1303.83 601.118 1304.52 601.927L1326.33 627.475L1348.12 601.927L1348.39 601.638C1349.06 601.007 1349.96 600.651 1350.89 600.651C1351.96 600.651 1352.97 601.118 1353.66 601.927L1375.45 627.475L1397.26 601.927C1397.95 601.118 1398.97 600.65 1400.04 600.651C1401.11 600.651 1402.12 601.118 1402.81 601.927L1424.59 627.475L1446.41 601.927L1446.69 601.638C1447.36 601.008 1448.25 600.651 1449.19 600.651C1450.25 600.651 1451.27 601.119 1451.96 601.927L1473.78 627.475L1495.6 601.927L1495.85 601.656Z" fill="#6FE9B8"/>
</svg>
