<?xml version="1.0" encoding="UTF-8"?>
<svg id="_圖層_1" data-name="圖層 1" xmlns="http://www.w3.org/2000/svg" viewBox="0 0 148.69 270.95">
  <defs>
    <style>
      .cls-1 {
        fill: #299ea7;
      }
    </style>
  </defs>
  <path class="cls-1" d="M67.93.3c68.24-5.58,106,68.92,61.55,119.94-15.74,18.06-40.78,28.89-47.56,53.49-1.27,4.61-.57,11.72-5.33,14.13-4.21,2.13-8.48.17-12.6.07-6.84-.17-15.31,2.96-16.16-6.3-4.36-47.52,42.07-54.26,59.77-87.01,25.9-47.92-38.07-85.29-72.77-39.84-4.98,6.53-6.93,16.37-17.42,12.06-2.16-.89-12.6-6.36-14.09-7.62-8.63-7.28,1.69-21.64,6.81-28.39C23.42,13.28,46.09,2.08,67.93.3Z"/>
  <path class="cls-1" d="M61.15,225.57c17.91-2.76,20.33,17.02,18.91,30.14-2.16,20.06-30.7,21.09-32.93-1.51-1.09-11.04.4-26.53,14.02-28.63Z"/>
</svg>