<svg width="82" height="81" viewBox="0 0 82 81" fill="none" xmlns="http://www.w3.org/2000/svg">
<path d="M41.2446 54.3648C47.7671 54.3648 53.0546 49.0773 53.0546 42.5548C53.0546 36.0323 47.7671 30.7448 41.2446 30.7448C34.7221 30.7448 29.4346 36.0323 29.4346 42.5548C29.4346 49.0773 34.7221 54.3648 41.2446 54.3648Z" stroke="#FFE2AE" stroke-width="2" stroke-miterlimit="10"/>
<path d="M80.4747 34.5148C80.2547 25.0248 72.3847 17.5048 62.8847 17.7248C61.1347 17.7648 59.4547 18.0648 57.8747 18.5948C57.5447 9.19477 49.7247 1.78477 40.3047 2.00477C30.8847 2.22477 23.4547 9.94477 23.5247 19.3048C22.0147 18.9148 20.4347 18.7048 18.7947 18.7448C9.30471 18.9648 1.78471 26.8348 2.00471 36.3348C2.17471 43.8148 7.11471 50.0548 13.8347 52.2548C11.9547 55.0848 10.8747 58.4948 10.9647 62.1548C11.1847 71.6448 19.0547 79.1648 28.5547 78.9448C34.1447 78.8148 39.0247 76.0248 42.0747 71.8248C45.3147 75.8748 50.3247 78.4448 55.9047 78.3148C65.3947 78.0948 72.9147 70.2248 72.6947 60.7248C72.6147 57.0748 71.3847 53.7148 69.3747 50.9748C76.0047 48.4648 80.6547 42.0048 80.4747 34.5148Z" stroke="#E9562A" stroke-width="3" stroke-miterlimit="10"/>
</svg>
