<svg width="79" height="77" viewBox="0 0 79 77" fill="none" xmlns="http://www.w3.org/2000/svg">
<path d="M78.4799 32.5244C78.2599 23.0344 70.3899 15.5144 60.8899 15.7344C59.1399 15.7744 57.4599 16.0744 55.8799 16.6044C55.5499 7.20436 47.7299 -0.205645 38.3099 0.00435539C28.8899 0.214355 21.4599 7.94435 21.5299 17.3044C20.0199 16.9144 18.4399 16.7044 16.7999 16.7444C7.2999 16.9644 -0.210096 24.8444 -9.56776e-05 34.3344C0.169904 41.8144 5.1099 48.0544 11.8299 50.2544C9.9499 53.0844 8.8699 56.4944 8.9599 60.1544C9.1799 69.6444 17.0499 77.1644 26.5499 76.9444C32.1399 76.8144 37.0199 74.0244 40.0699 69.8244C43.3099 73.8744 48.3199 76.4444 53.8999 76.3144C63.3899 76.0944 70.9099 68.2244 70.6899 58.7244C70.6099 55.0744 69.3799 51.7144 67.3699 48.9744C73.9999 46.4644 78.6499 40.0044 78.4699 32.5144L78.4799 32.5244Z" fill="#E9562A"/>
<path d="M39.2402 52.3644C45.7627 52.3644 51.0502 47.0768 51.0502 40.5544C51.0502 34.0319 45.7627 28.7444 39.2402 28.7444C32.7177 28.7444 27.4302 34.0319 27.4302 40.5544C27.4302 47.0768 32.7177 52.3644 39.2402 52.3644Z" fill="#F5CD53"/>
</svg>
