<?xml version="1.0" encoding="UTF-8"?>
<svg id="_圖層_1" data-name="圖層 1" xmlns="http://www.w3.org/2000/svg" viewBox="0 0 448.88 448.66">
  <defs>
    <style>
      .cls-1 {
        fill: #299ea7;
      }
    </style>
  </defs>
  <path class="cls-1" d="M307.59,0c117.51,9.29,182.31,142.52,112.51,240.02-60.9,85.07-188.54,83.25-247.66-2.78C106.17,140.8,170.51,8.64,286.05.81l1.39-.81h20.16ZM297.52,32.04c-85.33-.23-144.06,87.78-110.14,166.61,37.1,86.22,154.99,97.89,208.56,20.71,54.96-79.19-2.88-187.07-98.43-187.32Z"/>
  <path class="cls-1" d="M0,406.62c1.3-10.82,5.74-19.06,12.69-27.18l103.54-103.33,56.43,55.58-111.03,110.71c-25.14,16.49-60.04-1.62-61.64-31.41v-4.38Z"/>
  <polygon class="cls-1" points="162.68 252.45 196.23 285.37 173.08 309.33 139.35 275.61 162.68 252.45"/>
</svg>