<?xml version="1.0" encoding="UTF-8"?>
<svg id="_圖層_1" data-name="圖層_1" xmlns="http://www.w3.org/2000/svg" version="1.1" viewBox="0 0 77.25 115.2">
  <!-- Generator: Adobe Illustrator 29.5.1, SVG Export Plug-In . SVG Version: 2.1.0 Build 141)  -->
  <defs>
    <style>
      .st0 {
        fill: #f5cd52;
      }

      .st1 {
        fill: #d1542e;
      }
    </style>
  </defs>
  <path class="st1" d="M31.25,115.2c-4.35-.09-8.67-.83-12.8-2.2C6.55,109.2-1.55,101.5.25,95.9L12.55,27.4l61.7,20-31,62.5c-1.1,3.5-5.7,5.4-12,5.3h0ZM13.25,28.6L1.05,96.2c-1.7,5.2,6.3,12.4,17.7,16.1s22,2.5,23.7-2.6l30.6-61.7L13.25,28.6Z"/>
  <path class="st1" d="M54.25,69.7c-12.57-.54-24.92-3.46-36.4-8.6-3.3-1.6-7.1-4-6.6-6.2s5-2.5,8.7-2.5c6.14.22,12.24,1.09,18.2,2.6,12.3,3,24.9,8.2,24,12.1-.5,1.8-3.5,2.6-7.9,2.6ZM19.25,53.2c-4.2,0-6.8.7-7.1,1.9s2,3.2,6.2,5.2c5.51,2.56,11.28,4.54,17.2,5.9,14.5,3.5,25.3,3.2,25.9.8s-8.9-7.6-23.4-11.1c-5.89-1.52-11.92-2.39-18-2.6l-.8-.1h0Z"/>
  <path class="st0" d="M73.55,48c1.7-5.4-10.5-14.1-27.2-19.5s-31.7-5.5-33.5-.1,10.5,14.1,27.2,19.5,31.7,5.4,33.5.1Z"/>
  <path class="st1" d="M62.55,52.4h-.1c-6.4,0-14.3-1.5-22.5-4.1-17.2-5.6-29.3-14.4-27.5-20.1.9-2.8,4.9-4.3,11.4-4.3h.1c6.4,0,14.3,1.5,22.5,4.1s15.5,6.1,20.7,9.9,7.7,7.4,6.8,10.2-4.9,4.3-11.4,4.3ZM23.85,24.7c-6,0-9.8,1.4-10.6,3.7-1.6,5.1,10.7,13.8,27,19,8.1,2.6,16,4.1,22.2,4.1h.1c6,0,9.8-1.4,10.6-3.7s-1.6-5.8-6.5-9.3c-5.1-3.7-12.4-7.1-20.4-9.7-7.17-2.41-14.64-3.79-22.2-4.1h-.2Z"/>
  <path class="st1" d="M32.35,100.3c-1.36-.19-2.67-.59-3.9-1.2-.94-.42-1.84-.92-2.7-1.5-.7-.5-1.3-1-1-1.5l22.2-46.6,8.7,1.7-22.5,48.8c-.21.21-.5.32-.8.3ZM25.55,96.3c.98.79,2.06,1.47,3.2,2,1.12.61,2.34,1.01,3.6,1.2l22-47.7-7-1.4-21.8,45.9Z"/>
  <path class="st1" d="M58.05,44.8c-.41-.02-.81-.08-1.2-.2-.96-.31-1.89-.67-2.8-1.1-4.2-1.9-3.9-2.6-3.8-2.9L68.95,0l8.3,3.9-18.7,40.6c0,.2-.3.3-.5.3ZM51.15,40.8c1,.79,2.12,1.43,3.3,1.9,1.13.6,2.35,1.03,3.6,1.3L76.35,4.3l-6.8-3.2-18.4,39.7Z"/>
</svg>