<svg width="253" height="36" viewBox="0 0 253 36" fill="none" xmlns="http://www.w3.org/2000/svg">
<path d="M246.851 1.0055C248.176 -0.260221 250.279 -0.352387 251.715 0.850816C253.246 2.13502 253.436 4.40615 252.14 5.92386L227.55 34.7238C226.86 35.5321 225.845 36 224.776 36C223.708 35.9999 222.692 35.532 222.002 34.7238L200.183 9.16878L178.367 34.7238C177.677 35.5323 176.661 36.0002 175.593 36C174.524 35.9996 173.509 35.5329 172.819 34.7238L151.035 9.17229L129.219 34.7238C128.528 35.5325 127.514 36.0004 126.445 36C125.376 35.9995 124.361 35.5329 123.671 34.7238L101.89 9.17581L80.1099 34.7238C79.42 35.5327 78.4046 35.9996 77.3359 36C76.2675 36 75.2521 35.5322 74.5619 34.7238L52.746 9.17229L30.9619 34.7238C30.2718 35.5328 29.2569 36 28.1879 36C27.1189 35.9997 26.1039 35.5331 25.4139 34.7238L0.85944 5.92386L0.632412 5.63206C-0.408104 4.1266 -0.147709 2.05408 1.28866 0.850816C2.72584 -0.352751 4.83137 -0.260113 6.15557 1.00902L6.40743 1.27621L28.1879 26.8207L49.9684 1.27621L50.2416 0.987925C50.9124 0.356551 51.8073 0.000487438 52.7424 3.51578e-05C53.8113 -0.000350076 54.8259 0.467566 55.5164 1.27621L77.3324 26.8242L99.1164 1.27621L99.3895 0.987925C100.061 0.356623 100.955 0.000232731 101.89 3.51578e-05C102.959 3.63367e-05 103.974 0.467218 104.664 1.27621L126.448 26.8242L148.264 1.27621C148.955 0.467847 149.97 -3.01681e-05 151.038 3.51578e-05C152.107 0.000422695 153.123 0.467268 153.812 1.27621L175.593 26.8242L197.412 1.27621L197.686 0.987925C198.357 0.35704 199.251 3.41279e-05 200.186 3.51578e-05C201.254 0.000389705 202.267 0.468223 202.957 1.27621L224.776 26.8242L246.596 1.27621L246.851 1.0055Z" fill="#F29417"/>
</svg>
