<svg width="245" height="236" viewBox="0 0 245 236" fill="none" xmlns="http://www.w3.org/2000/svg">
<path d="M203.953 74.977C204.373 75.335 205.005 75.2842 205.362 74.8636C205.72 74.443 205.67 73.8118 205.249 73.4539L203.953 74.977ZM84.1221 215.868C84.5427 216.226 85.1738 216.175 85.5318 215.755C85.8897 215.334 85.8389 214.703 85.4183 214.345L84.1221 215.868ZM13.5426 154.524C13.1847 154.945 13.2356 155.576 13.6563 155.934C14.0769 156.292 14.7081 156.241 15.0659 155.82L13.5426 154.524ZM134.905 14.9525C135.263 14.5318 135.212 13.9007 134.791 13.5429C134.371 13.185 133.74 13.2359 133.382 13.6566L134.905 14.9525ZM104.503 110.487L105.151 109.725L105.05 109.64L104.931 109.583L104.503 110.487ZM132.387 189.91L131.445 190.247L131.691 190.934L132.421 190.91L132.387 189.91ZM177.09 204.282L176.442 205.044L177.204 205.691L177.852 204.93L177.09 204.282ZM208.694 167.104L209.456 167.752L210.104 166.99L209.342 166.342L208.694 167.104ZM187.328 125.27L188.32 125.143L188.227 124.419L187.51 124.287L187.328 125.27ZM104.471 110.472L104.641 109.487L104.042 111.375L104.471 110.472ZM144.01 145.419C144.43 145.777 145.061 145.726 145.419 145.306C145.777 144.885 145.726 144.254 145.306 143.896L144.01 145.419ZM206.398 235.539C206.819 235.897 207.45 235.846 207.807 235.425C208.165 235.004 208.114 234.373 207.693 234.015L206.398 235.539ZM174.609 207.202L173.847 206.554C173.675 206.756 173.591 207.018 173.612 207.283C173.634 207.547 173.759 207.792 173.961 207.964L174.609 207.202ZM211.207 164.199L211.855 163.438C211.653 163.266 211.391 163.181 211.127 163.202C210.862 163.223 210.617 163.349 210.445 163.551L211.207 164.199ZM242.98 192.567C243.4 192.925 244.031 192.874 244.389 192.454C244.747 192.033 244.697 191.402 244.276 191.044L242.98 192.567ZM82.8221 74.6136L83.4709 73.8527C77.465 68.7313 68.4488 69.4649 63.3299 75.4679L64.0908 76.1167L64.8517 76.7655C69.2564 71.6001 77.0107 70.9723 82.1732 75.3745L82.8221 74.6136ZM64.0908 76.1167L63.3299 75.4679C58.2085 81.4738 58.9421 90.4899 64.9451 95.6088L65.5939 94.8479L66.2428 94.087C61.0773 89.6823 60.4496 81.9281 64.8517 76.7655L64.0908 76.1167ZM65.5939 94.8479L64.9451 95.6088C70.951 100.73 79.9672 99.9966 85.0861 93.9936L84.3251 93.3447L83.5642 92.6959C79.1595 97.8614 71.4053 98.4891 66.2428 94.087L65.5939 94.8479ZM84.3251 93.3447L85.0861 93.9936C90.2074 87.9877 89.4739 78.9715 83.4709 73.8527L82.8221 74.6136L82.1732 75.3745C87.3387 79.7792 87.9664 87.5334 83.5642 92.6959L84.3251 93.3447ZM22.9026 145.047L23.5514 144.286C17.5455 139.165 8.52927 139.898 3.41042 145.901L4.17134 146.55L4.93226 147.199C9.33694 142.034 17.0912 141.406 22.2537 145.808L22.9026 145.047ZM4.17134 146.55L3.41042 145.901C-1.71095 151.907 -0.977426 160.924 5.02557 166.042L5.67441 165.281L6.32326 164.521C1.1578 160.116 0.530099 152.362 4.93226 147.199L4.17134 146.55ZM5.67441 165.281L5.02557 166.042C11.0315 171.164 20.0477 170.43 25.1666 164.427L24.4056 163.778L23.6447 163.13C19.24 168.295 11.4858 168.923 6.32326 164.521L5.67441 165.281ZM24.4056 163.778L25.1666 164.427C30.2879 158.421 29.5544 149.405 23.5514 144.286L22.9026 145.047L22.2537 145.808C27.4192 150.213 28.0469 157.967 23.6447 163.13L24.4056 163.778ZM93.3448 204.99L93.9937 204.229C87.9877 199.108 78.9715 199.841 73.8527 205.844L74.6136 206.493L75.3745 207.142C79.7792 201.977 87.5335 201.349 92.696 205.751L93.3448 204.99ZM74.6136 206.493L73.8527 205.844C68.7313 211.85 69.4648 220.866 75.4678 225.985L76.1167 225.224L76.7655 224.463C71.6001 220.059 70.9724 212.305 75.3745 207.142L74.6136 206.493ZM76.1167 225.224L75.4678 225.985C81.4738 231.107 90.49 230.373 95.6088 224.37L94.8479 223.721L94.087 223.072C89.6823 228.238 81.928 228.866 76.7655 224.463L76.1167 225.224ZM94.8479 223.721L95.6088 224.37C100.73 218.364 99.9967 209.348 93.9937 204.229L93.3448 204.99L92.696 205.751C97.8614 210.156 98.4891 217.91 94.087 223.072L94.8479 223.721ZM142.765 4.17132L143.414 3.4104C137.408 -1.71098 128.392 -0.977391 123.273 5.0256L124.034 5.67444L124.795 6.32329C129.199 1.15783 136.954 0.530081 142.116 4.93223L142.765 4.17132ZM124.034 5.67444L123.273 5.0256C118.151 11.0316 118.885 20.0476 124.888 25.1665L125.537 24.4056L126.186 23.6446C121.02 19.24 120.392 11.4858 124.795 6.32329L124.034 5.67444ZM125.537 24.4056L124.888 25.1665C130.894 30.2878 139.91 29.5543 145.029 23.5513L144.268 22.9025L143.507 22.2536C139.102 27.4191 131.348 28.0468 126.186 23.6446L125.537 24.4056ZM144.268 22.9025L145.029 23.5513C150.15 17.5454 149.417 8.52925 143.414 3.4104L142.765 4.17132L142.116 4.93223C147.281 9.33691 147.909 17.0911 143.507 22.2536L144.268 22.9025ZM213.199 64.0907L213.848 63.3298C207.842 58.2084 198.825 58.942 193.707 64.945L194.468 65.5938L195.228 66.2427C199.633 61.0772 207.387 60.4495 212.55 64.8516L213.199 64.0907ZM194.468 65.5938L193.707 64.945C188.585 70.9509 189.319 79.967 195.322 85.0859L195.971 84.3249L196.62 83.564C191.454 79.1593 190.826 71.4052 195.228 66.2427L194.468 65.5938ZM195.971 84.3249L195.322 85.0859C201.328 90.2072 210.344 89.4737 215.463 83.4707L214.702 82.8219L213.941 82.173C209.536 87.3385 201.782 87.9662 196.62 83.564L195.971 84.3249ZM214.702 82.8219L215.463 83.4707C220.584 77.4648 219.851 68.4486 213.848 63.3298L213.199 64.0907L212.55 64.8516C217.715 69.2563 218.343 77.0105 213.941 82.173L214.702 82.8219ZM204.601 74.2155L205.249 73.4539C165.924 39.9884 106.927 44.766 73.4858 84.0819L74.2475 84.7298L75.0093 85.3777C107.735 46.903 165.47 42.2278 203.953 74.977L204.601 74.2155ZM74.2475 84.7298L73.4858 84.0819C40.0441 123.398 44.798 182.403 84.1221 215.868L84.7702 215.107L85.4183 214.345C46.9351 181.595 42.2832 123.852 75.0093 85.3777L74.2475 84.7298ZM14.3043 155.172L15.0659 155.82L134.905 14.9525L134.143 14.3045L133.382 13.6566L13.5426 154.524L14.3043 155.172ZM104.503 110.487C103.557 110.813 103.557 110.814 103.557 110.814C103.558 110.814 103.558 110.815 103.558 110.815C103.558 110.817 103.559 110.819 103.56 110.821C103.562 110.827 103.565 110.835 103.568 110.845C103.575 110.866 103.586 110.897 103.601 110.939C103.629 111.022 103.672 111.146 103.728 111.309C103.841 111.635 104.008 112.118 104.225 112.745C104.659 114 105.294 115.832 106.096 118.144C107.7 122.768 109.974 129.31 112.651 136.98C118.006 152.321 124.978 172.18 131.445 190.247L132.387 189.91L133.328 189.573C126.864 171.513 119.894 151.66 114.539 136.321C111.862 128.652 109.589 122.112 107.986 117.489C107.184 115.177 106.549 113.345 106.115 112.091C105.898 111.464 105.731 110.981 105.619 110.655C105.562 110.492 105.52 110.369 105.491 110.286C105.477 110.244 105.466 110.213 105.459 110.192C105.455 110.182 105.452 110.174 105.45 110.168C105.45 110.166 105.449 110.164 105.448 110.163C105.448 110.162 105.448 110.161 105.448 110.161C105.448 110.161 105.448 110.161 104.503 110.487ZM132.387 189.91C132.421 190.91 132.42 190.91 132.42 190.91C132.42 190.91 132.42 190.91 132.421 190.91C132.421 190.91 132.422 190.909 132.423 190.909C132.426 190.909 132.43 190.909 132.435 190.909C132.447 190.909 132.464 190.908 132.488 190.908C132.536 190.906 132.609 190.905 132.706 190.904C132.899 190.901 133.188 190.898 133.564 190.901C134.315 190.906 135.413 190.93 136.788 191.006C139.54 191.158 143.398 191.518 147.811 192.349C156.653 194.016 167.638 197.562 176.442 205.044L177.09 204.282L177.737 203.52C168.563 195.724 157.196 192.084 148.181 190.384C143.666 189.533 139.719 189.164 136.898 189.009C135.488 188.931 134.357 188.906 133.577 188.901C133.186 188.898 132.884 188.901 132.677 188.904C132.573 188.905 132.494 188.907 132.44 188.908C132.412 188.909 132.391 188.909 132.377 188.91C132.37 188.91 132.364 188.91 132.36 188.91C132.358 188.91 132.356 188.911 132.355 188.911C132.355 188.911 132.354 188.911 132.354 188.911C132.353 188.911 132.353 188.911 132.387 189.91ZM208.694 167.104L209.342 166.342C200.538 158.861 195.273 148.583 192.209 140.117C190.68 135.892 189.706 132.139 189.115 129.444C188.819 128.097 188.62 127.016 188.495 126.274C188.432 125.903 188.388 125.618 188.36 125.426C188.346 125.33 188.335 125.258 188.329 125.211C188.326 125.187 188.323 125.169 188.322 125.158C188.321 125.152 188.32 125.148 188.32 125.146C188.32 125.145 188.32 125.144 188.32 125.143C188.32 125.143 188.32 125.143 188.32 125.143C188.32 125.143 188.32 125.143 187.328 125.27C186.336 125.396 186.336 125.397 186.336 125.397C186.336 125.398 186.336 125.398 186.336 125.399C186.336 125.4 186.337 125.402 186.337 125.404C186.337 125.408 186.338 125.413 186.339 125.42C186.341 125.435 186.344 125.456 186.347 125.482C186.355 125.536 186.366 125.615 186.381 125.718C186.411 125.922 186.457 126.222 186.522 126.607C186.653 127.378 186.858 128.491 187.161 129.872C187.767 132.634 188.764 136.474 190.328 140.798C193.453 149.429 198.871 160.069 208.047 167.866L208.694 167.104ZM187.328 125.27L187.51 124.287C168.639 120.796 147.922 117.096 131.923 114.269C123.924 112.855 117.103 111.659 112.283 110.817C109.873 110.396 107.962 110.064 106.655 109.836C106.001 109.723 105.497 109.635 105.158 109.576C104.988 109.547 104.859 109.524 104.772 109.509C104.729 109.502 104.696 109.496 104.674 109.492C104.663 109.49 104.655 109.489 104.65 109.488C104.647 109.488 104.645 109.487 104.643 109.487C104.643 109.487 104.642 109.487 104.642 109.487C104.642 109.487 104.641 109.487 104.471 110.472C104.3 111.457 104.3 111.457 104.3 111.457C104.301 111.457 104.301 111.457 104.302 111.458C104.303 111.458 104.305 111.458 104.308 111.459C104.314 111.46 104.322 111.461 104.333 111.463C104.355 111.467 104.387 111.472 104.43 111.48C104.517 111.495 104.646 111.517 104.816 111.547C105.155 111.606 105.658 111.693 106.312 111.807C107.619 112.034 109.529 112.367 111.939 112.788C116.758 113.629 123.577 114.825 131.575 116.238C147.572 119.065 168.283 122.764 187.146 126.253L187.328 125.27ZM104.471 110.472L104.042 111.375L104.074 111.391L104.503 110.487L104.931 109.583L104.899 109.568L104.471 110.472ZM104.503 110.487L103.854 111.249L144.01 145.419L144.658 144.658L145.306 143.896L105.151 109.725L104.503 110.487ZM157.222 142.781L157.869 142.019C153.43 138.25 146.752 138.783 142.98 143.224L143.743 143.872L144.505 144.519C147.559 140.922 152.975 140.487 156.575 143.544L157.222 142.781ZM143.743 143.872L142.98 143.224C139.211 147.663 139.744 154.342 144.186 158.113L144.833 157.351L145.48 156.589C141.883 153.534 141.448 148.119 144.505 144.519L143.743 143.872ZM144.833 157.351L144.186 158.113C148.625 161.883 155.303 161.35 159.075 156.908L158.312 156.261L157.55 155.613C154.496 159.211 149.08 159.645 145.48 156.589L144.833 157.351ZM158.312 156.261L159.075 156.908C162.844 152.469 162.311 145.791 157.869 142.019L157.222 142.781L156.575 143.544C160.172 146.598 160.607 152.014 157.55 155.613L158.312 156.261ZM207.045 234.777L207.693 234.015L175.257 206.44L174.609 207.202L173.961 207.964L206.398 235.539L207.045 234.777ZM174.609 207.202L175.37 207.85L211.968 164.847L211.207 164.199L210.445 163.551L173.847 206.554L174.609 207.202ZM211.207 164.199L210.558 164.96L242.98 192.567L243.628 191.805L244.276 191.044L211.855 163.438L211.207 164.199ZM177.09 204.282L177.852 204.93L209.456 167.752L208.694 167.104L207.932 166.456L176.328 203.634L177.09 204.282Z" fill="#F19317"/>
</svg>
