<?xml version="1.0" encoding="UTF-8"?>
<svg id="_圖層_1" data-name="圖層_1" xmlns="http://www.w3.org/2000/svg" version="1.1" viewBox="0 0 542 443">
  <!-- Generator: Adobe Illustrator 29.5.1, SVG Export Plug-In . SVG Version: 2.1.0 Build 141)  -->
  <defs>
    <style>
      .st0 {
        fill: #299ea7;
      }

      .st1 {
        fill: none;
      }
    </style>
  </defs>
  <rect class="st1" y="0" width="542" height="443"/>
  <g>
    <path class="st0" d="M318.85,108.71c.2.83.38,1.66.51,2.51-.16-1.04.03.42.04.64.03.44.04.86.04,1.3,0,.76-.06,1.5-.12,2.24.09-1.14-.04.22-.1.47-.07.39-.17.77-.28,1.15-.09.34-.2.67-.32,1.01-.09.25-.55,1.31-.1.32-.32.71-.67,1.4-1.08,2.06-.16.26-.33.52-.51.79-.15.22-.95,1.22-.26.39-.51.61-1.03,1.22-1.6,1.78-.52.53-1.08,1.01-1.64,1.49-.68.58.17-.12-.26.2-.38.28-.77.55-1.16.82-1.43.95-2.93,1.78-4.47,2.52-.38.18-.77.35-1.15.52-.61.28-.03.01.07-.03-.22.09-.45.19-.67.28-.87.34-1.75.66-2.64.96-1.85.61-3.74,1.14-5.65,1.57-4.51,1.03-7.26,1.38-11.79,1.69-4.53.31-8.66.29-13,.04-4.72-.28-7.8-.66-12.2-1.49-4.03-.77-8.04-1.79-11.91-3.16-1.01-.35-1.99-.74-2.99-1.14-.55-.22.79.35-.09-.03-.26-.12-.54-.23-.8-.35-.44-.2-.87-.41-1.31-.61-1.72-.83-3.41-1.78-4.99-2.84-.39-.26-.77-.54-1.16-.82-.18-.12-.33-.25-.51-.38.44.33.31.25-.04-.04-.64-.55-1.28-1.09-1.88-1.69-.6-.6-1.09-1.17-1.6-1.79.68.85-.06-.09-.22-.33-.25-.36-.47-.73-.68-1.11-2.36-4.05-8.65-.39-6.29,3.67,3.8,6.54,10.73,10.49,17.51,13.3,8.3,3.43,17.29,5.12,26.21,5.89,8.91.77,18.56.45,27.65-1.34,7.77-1.53,15.68-4.33,21.72-9.62,6.64-5.8,8.81-14.31,6.7-22.75-1.14-4.55-8.15-2.62-7.02,1.94l.04-.03Z"/>
    <path class="st0" d="M223.83,116.55c-2.71,5.86-6.46,10.11-11.54,14.25-4.8,3.9-11.46,7.55-17.38,9.85-13.23,5.16-28.26,7.35-41.88,4.55-1.92-.39-3.83-.89-5.71-1.49-1.88-.6-3.23-1.14-4.66-1.81-3.3-1.56-6.3-3.5-8.71-5.65-3.48-3.12-8.65,2.01-5.15,5.16,11.3,10.13,27.18,13.09,41.93,12.07,14.75-1.02,31.36-6.05,43.89-15.33,6.39-4.74,12.13-10.61,15.49-17.91.83-1.78.51-3.92-1.31-4.98-1.57-.92-4.15-.48-4.98,1.31h.01Z"/>
    <path class="st0" d="M384.23,127.61c8.17-5.03,15.13-12.3,17.67-21.76,2.31-8.58.71-17.5-2.85-25.49-7.58-17.02-24.38-30.41-42.12-35.51-10.21-2.93-21.4-3.02-31.29,1.12-1.8.76-3.11,2.4-2.55,4.49.47,1.7,2.65,3.31,4.48,2.55,7.9-3.32,16.04-3.72,23.95-2,8.6,1.87,16.06,5.57,23.23,10.96,6.32,4.75,12.18,11.18,16.11,18.29.48.87.95,1.76,1.38,2.67.2.42.39.85.58,1.27.29.66.1.23.04.09.13.32.26.64.38.96.7,1.79,1.27,3.63,1.7,5.49.2.86.36,1.73.51,2.59.17,1.03-.04-.47.03.17.03.22.04.44.07.66.04.48.09.98.12,1.46.06.92.06,1.84.03,2.74,0,.42-.04.86-.07,1.28-.01.26-.04.54-.07.8,0,.09-.12.98-.06.47.03-.25-.15.83-.2,1.11-.1.52-.22,1.05-.36,1.57-.28,1.05-.61,2.08-.99,3.1-.04.12-.26.64,0,.04-.1.26-.22.51-.33.76-.22.45-.44.9-.67,1.36-.54,1.02-1.13,2-1.79,2.94-1.05,1.51-2.55,3.21-4.3,4.82-2.02,1.88-3.89,3.19-6.32,4.69-3.99,2.45-.33,8.76,3.67,6.29Z"/>
    <path class="st0" d="M328.72,43.76c.38-8.53-2.62-16.58-8.17-23.03-5.47-6.35-13.06-10.64-20.85-13.47-16.31-5.9-36.05-6-51.81,1.63-8.4,4.07-15.14,10.81-18.39,19.63-.68,1.85.76,3.99,2.55,4.49,2.02.55,3.8-.68,4.48-2.55.09-.22.51-1.31.38-.99-.13.29.35-.76.45-.95.39-.8.83-1.6,1.29-2.36.44-.71.92-1.41,1.43-2.08.35-.48-.54.66.07-.09.13-.15.25-.31.38-.45.32-.38.64-.76.98-1.11.54-.58,1.11-1.15,1.69-1.69.34-.31.67-.6,1.01-.89.22-.19,1.11-.9.92-.76-.26.2.65-.48.84-.61.34-.23.67-.47,1.01-.68.82-.54,1.66-1.03,2.5-1.52.77-.44,1.57-.83,2.37-1.21.38-.17.77-.35,1.15-.52.15-.06.64-.29,0,0,.29-.12.6-.25.89-.36,1.82-.71,3.68-1.31,5.58-1.82,1.89-.51,3.92-.93,5.9-1.25.45-.07.89-.15,1.34-.2-.7.09.5-.06.73-.09,1.08-.12,2.17-.22,3.25-.28,4.11-.26,8.24-.15,12.33.29,1.32.15,1.06.12,2.32.31,1.09.17,2.17.36,3.25.58,2.02.41,4.02.92,6,1.52,1.98.6,3.74,1.22,5.56,1.97.54.22-.48-.2.04.01.25.12.51.22.76.34.41.17.8.36,1.19.55.89.42,1.76.87,2.61,1.34,1.67.92,3.31,1.94,4.85,3.05.33.25.67.5,1.01.74-.63-.48.46.39.6.5.74.63,1.47,1.27,2.15,1.95.68.68,1.41,1.43,2.07,2.2.32.38.64.76.95,1.15-.49-.64.38.52.49.7,1.12,1.62,2.1,3.35,2.87,5.16-.32-.76.16.45.23.66.17.47.32.95.47,1.41.29.96.52,1.95.71,2.94.04.25.09.51.13.76.12.71-.03-.35.01.1.06.52.1,1.05.15,1.57.07,1.14.07,2.27.01,3.41-.2,4.69,7.08,4.68,7.28,0h.01Z"/>
    <path class="st0" d="M234.11,23.45C223.38,5.48,201.28-.98,181.44.12c-19.84,1.09-41.82,9.33-53.44,26.55-6.6,9.78-8.24,21.67-5.72,33.08,1,4.58,8.02,2.64,7.02-1.94-.23-1.05-.55-2.83-.64-3.45-.07-.6-.23-2.32-.28-3.34-.04-1.18-.04-2.35,0-3.53.03-.55.07-1.09.12-1.63.03-.28.06-.54.09-.82.07-.73-.09.47.06-.47.36-2.19.87-4.33,1.6-6.41.18-.5.36-.98.54-1.46.07-.17.35-.82.04-.13.12-.28.25-.57.38-.85.45-.98.95-1.94,1.49-2.89.54-.95,1.12-1.87,1.73-2.75.29-.42.6-.85.9-1.27.12-.16.25-.34.38-.5-.51.66.31-.38.41-.48,1.41-1.7,2.94-3.31,4.57-4.79.79-.71,1.62-1.41,2.45-2.08.16-.13.33-.26.51-.41-.63.48.23-.17.29-.22.52-.39,1.05-.77,1.59-1.14,1.91-1.33,3.9-2.52,5.94-3.63.99-.52,1.99-1.03,3.01-1.52.51-.25,1.02-.48,1.54-.71.26-.12.52-.23.79-.34.23-.1.2-.09-.09.03.2-.09.42-.17.63-.26,2.24-.89,4.53-1.69,6.84-2.38,2.32-.68,4.72-1.27,7.1-1.75,2.72-.54,4.31-.76,6.64-.99,4.83-.48,9.71-.52,14.56-.09,2.52.23,3.67.39,6.42.95,2.29.47,4.54,1.05,6.75,1.78,1.24.41,2.48.86,3.68,1.36.96.39-.41-.17.17.07.35.15.68.31,1.03.47.58.26,1.17.55,1.73.85,2.17,1.11,4.25,2.38,6.23,3.8.25.19.51.38.76.57-.63-.48.19.16.25.2.48.41.96.8,1.43,1.22.93.85,1.83,1.72,2.68,2.65.42.47.84.93,1.25,1.43.13.16.26.32.41.5.26.32.26.34.01,0,.13.17.26.34.38.51.76,1.03,1.46,2.1,2.12,3.21,2.4,4.02,8.69.36,6.29-3.67h.03Z"/>
    <path class="st0" d="M117.92,62.91c-23.34-8.06-48.27,2.3-65.85,17.94-17.57,15.64-31.15,38.68-29.22,62.39,1.09,13.41,7.54,25.4,17.86,33.98,1.51,1.25,3.67,1.49,5.15,0,1.3-1.3,1.51-3.89,0-5.16-2.27-1.88-4.41-3.93-6.33-6.18-1.59-1.85-3-3.86-4.38-6.3-.6-1.05-1.15-2.13-1.65-3.22-.15-.32-.29-.66-.44-.98.23.57-.06-.15-.1-.28-.28-.71-.55-1.44-.79-2.17-.79-2.35-1.34-4.74-1.75-7.17,0-.06-.17-1.21-.07-.42-.04-.29-.07-.58-.1-.88-.07-.64-.13-1.28-.17-1.94-.09-1.3-.12-2.59-.1-3.89.01-1.3.07-2.51.17-3.74.06-.66.12-1.31.2-1.97,0-.1.09-.72,0-.1.06-.48.15-.96.22-1.43.42-2.61,1.03-5.17,1.78-7.71.38-1.25.79-2.51,1.22-3.75.22-.6.44-1.18.66-1.78.13-.35.28-.71.42-1.06,0,.01.44-1.03.22-.54,4.53-10.59,11.02-19.64,19.13-27.56,7.83-7.65,17.5-14.24,27.5-17.92,5.85-2.16,11.49-3.41,17.24-3.64,6.27-.26,11.27.45,17.25,2.52,1.86.64,3.97-.73,4.48-2.55.55-2-.68-3.83-2.55-4.49h-.01Z"/>
    <path class="st0" d="M42.07,170.07c-10.34,3.07-20.18,8.23-27.68,16.12-6.48,6.82-10.99,15.39-13,24.58-4.18,19,1.34,39.3,12.05,55.2,6.62,9.82,15.23,18.19,25.32,24.41,4,2.46,7.66-3.83,3.67-6.3-15.78-9.72-27.76-25.52-32.74-43.27-.6-2.14-1.11-4.3-1.5-6.49-.42-2.36-.57-3.42-.76-5.9-.16-2.2-.22-4.41-.15-6.63.03-.98.09-1.94.17-2.91.04-.54.1-1.08.16-1.63.03-.31.07-.6.1-.9-.07.52,0-.06.04-.29.33-2.07.76-4.12,1.32-6.15.29-1.03.61-2.05.96-3.07.16-.45.32-.9.49-1.34.09-.22.17-.45.26-.67,0,0,.44-1.05.19-.45.83-1.92,1.79-3.8,2.88-5.6.52-.89,1.09-1.75,1.67-2.59.77-1.11.92-1.31,1.64-2.2,6.93-8.47,16.31-13.77,26.8-16.89,4.48-1.33,2.58-8.37-1.94-7.02Z"/>
    <path class="st0" d="M42.79,287.79c-9.86,4.46-18.24,11.82-22.45,21.95-3.67,8.85-3.61,18.79-1.3,27.97,4.94,19.66,19.76,37.79,37.91,46.71,10.31,5.06,21.91,7.13,33.18,4.31,4.54-1.14,2.62-8.16-1.94-7.02-1.09.28-2.2.51-3.3.69-.29.04-.58.09-.87.13.16-.01.66-.07-.07,0-.64.07-1.28.13-1.92.16-2.27.15-4.54.06-6.8-.16-.23-.03-.47-.06-.7-.07.68.09-.07,0-.25-.04-.52-.09-1.03-.16-1.56-.26-1.15-.22-2.3-.48-3.44-.79-2.18-.58-4.32-1.31-6.41-2.19.55.23-.16-.07-.29-.13-.28-.13-.55-.25-.82-.38-.49-.23-.99-.47-1.47-.71-1.09-.54-2.15-1.12-3.22-1.73-2.08-1.21-4.09-2.52-6.03-3.95-.41-.31-.87-.66-.9-.67-.44-.35-.87-.7-1.31-1.05-.96-.8-1.91-1.62-2.84-2.46-1.76-1.62-3.45-3.32-5.05-5.1-5.95-6.62-11.12-15.1-13.83-23.46-.71-2.17-1.3-4.4-1.72-6.65-.1-.51-.19-1.02-.28-1.53-.04-.28-.09-.57-.13-.85-.09-.66.09.87-.03-.22-.12-1.09-.22-2.26-.28-3.38-.09-2.11,0-4.23.22-6.34.01-.16.07-.73,0,0,.04-.32.1-.65.15-.98.07-.44.15-.86.25-1.3.22-1.08.48-2.13.8-3.18,1.27-4.15,3.6-8.23,6.55-11.45,3.89-4.23,8.34-7.08,13.77-9.53,1.79-.82,2.23-3.41,1.31-4.98-1.08-1.85-3.19-2.13-4.98-1.31l.03-.03Z"/>
    <path class="st0" d="M446.96,206.02c-.99,2.11-2.08,4.2-3.52,6.06l.57-.74c-.67.86-1.43,1.68-2.29,2.35l.74-.57c-.52.39-1.08.74-1.69,1.01l.87-.36c-.48.2-.99.33-1.5.41l.96-.13c-.45.06-.9.04-1.37,0l.96.13c-.09,0-.17-.03-.26-.04-.99-.16-1.91-.16-2.81.36-.76.44-1.47,1.31-1.67,2.17-.22.93-.16,1.98.36,2.81.48.74,1.25,1.53,2.17,1.68,1.34.22,2.34.23,3.67.03.9-.15,1.76-.51,2.58-.9,1.43-.68,2.71-1.81,3.74-2.99,1.98-2.26,3.45-4.87,4.73-7.58.42-.9.64-1.81.36-2.81-.23-.85-.89-1.76-1.67-2.17-1.62-.86-4.12-.54-4.98,1.31h.04Z"/>
    <path class="st0" d="M383.1,131.17c9.04-.83,17.75,2.1,25.72,6.12,1.76.89,3.95.47,4.98-1.31.95-1.62.45-4.1-1.31-4.98-9.07-4.58-19.11-8.06-29.41-7.11-1.95.17-3.64,1.54-3.64,3.64,0,1.84,1.67,3.82,3.64,3.64h.01Z"/>
    <path class="st0" d="M437.08,224.54c7.5,8.39,12.99,18.45,16,29.25,1.53,5.48,2.34,10.35,2.66,15.74.17,2.77.19,5.54.09,8.31-.06,1.31-.13,2.62-.25,3.93-.06.66-.12,1.31-.19,1.95-.09.8-.18,1.43-.22,1.76-1.59,10.81-5.01,20.58-10.61,29.71-5.61,9.14-12.77,16.48-21.46,21.92-10.89,6.8-23.29,9.91-36.15,9.79-4.69-.04-4.69,7.24,0,7.29,12.53.12,25.01-2.67,36.09-8.61,10.23-5.51,18.88-13.61,25.49-23.14,13.23-19.1,17.64-43.89,12.61-66.51-3.03-13.6-9.64-26.19-18.9-36.56-3.13-3.5-8.27,1.66-5.15,5.16h-.01Z"/>
    <path class="st0" d="M380.26,343.57c-2.33,11.12-7.38,21.16-14.85,29.34-7.61,8.35-16.77,14.37-27.3,18.94-10.07,4.39-22.45,7.26-33.43,8.23-11.91,1.05-23.85.44-35.17-1.92-12.56-2.62-23.88-6.95-34.36-14.34-1.6-1.14-4.05-.29-4.98,1.31-1.06,1.82-.31,3.85,1.31,4.98,19.84,13.98,45.61,18.93,69.51,17.53,24.23-1.43,49.31-9.5,66.91-26.83,9.75-9.6,16.54-21.89,19.35-35.3.41-1.92-.57-3.93-2.55-4.49-1.8-.5-4.08.61-4.48,2.55l.03-.02Z"/>
    <path class="st0" d="M231.15,381.98c-.04.1-.44,1.06-.1.28-.12.28-.25.57-.38.85-.22.47-.44.93-.67,1.38-.57,1.11-1.18,2.19-1.83,3.24-.58.92-1.21,1.82-1.85,2.7-.1.15-.54.7-.1.13-.19.25-.39.5-.6.74-.41.49-.81.98-1.24,1.44-3.48,3.92-6.75,6.6-10.79,9.24-4.29,2.81-9.49,5.42-13.65,7.05-5.12,2.02-10.42,3.6-15.81,4.78-11.01,2.42-22.4,3.18-34.07,2.17-5.33-.47-10.48-1.31-16.07-2.8-2.56-.68-5.11-1.49-7.6-2.4-.55-.2-1.11-.42-1.66-.64-.33-.13-.65-.26-.99-.41.67.28-.39-.18-.42-.19-1.16-.52-2.33-1.06-3.46-1.65-2.53-1.28-4.98-2.74-7.31-4.36-.64-.45-1.27-.9-1.88-1.38.48.36-.84-.7-1.08-.89-1.01-.85-1.98-1.73-2.91-2.65-1-.99-1.96-2.02-2.87-3.12-.2-.25-.41-.5-.61-.76-.48-.6.28.39-.23-.29-.42-.57-.83-1.14-1.22-1.72-.76-1.12-1.47-2.29-2.13-3.48-.32-.58-.61-1.17-.9-1.75-.15-.29-.28-.6-.42-.9-.09-.2-.17-.41-.26-.61.15.36.15.35-.01-.04-.74-1.82-2.42-3.12-4.48-2.55-1.72.47-3.29,2.65-2.55,4.49,9,21.87,32.01,31.91,54.14,34.83,12.21,1.6,24.66,1.12,36.79-1.06,11.4-2.07,22.72-5.83,32.71-11.76,10.29-6.12,19.07-14.73,23.54-26,.73-1.84-.8-4.01-2.55-4.49-2.07-.57-3.76.71-4.48,2.55v.04Z"/>
    <path class="st0" d="M332.61,397.08c1.44,4.79.64,9.88-1.64,14.54-2.48,5.06-6.27,9.59-10.86,12.82-4.59,3.23-9.38,5.23-14.56,5.1-2.52-.06-3.57-.47-4.96-2.59-1.4-2.13-2.12-4.39-2.82-7.04-1.59-5.98-2.37-12.97-7.16-17.4-3.43-3.18-8.6,1.97-5.15,5.16,1,.93,1.34,1.39,2.07,2.84.48.95.92,2.29,1.31,3.69.85,2.96,1.4,5.97,2.26,8.92.86,2.94,2.04,5.99,3.93,8.5,1.09,1.43,2.33,2.77,3.86,3.75,1.53.98,3.57,1.21,5.43,1.38,13.32,1.18,26.29-9.09,32.32-20.27,3.51-6.48,5.17-14.15,3-21.35-1.35-4.47-8.37-2.57-7.02,1.94h.01Z"/>
    <path class="st0" d="M197.02,415.25c.01.58.01,1.18,0,1.76-.01.29-.04.57-.07.86.09-.96,0-.01-.03.16-.22,1.11-.52,2.19-.92,3.25-.33.89.33-.68-.07.16-.09.18-.16.34-.25.51-.25.51-.52,1.01-.82,1.49-.29.48-.63.96-.95,1.43-.09.13-.42.54.04-.04-.23.31-.48.6-.74.89-.71.82-1.49,1.57-2.29,2.3-.45.39-.92.79-1.38,1.15.67-.52-.15.1-.23.16-.29.2-.58.41-.89.61-.99.67-2.02,1.27-3.07,1.84-.46.25-.93.48-1.41.7-.29.13-.57.26-.86.39-.39.17-.38.16,0,0-.19.09-.39.16-.58.23-2.29.87-4.63,1.57-7.03,2.04-.63.12-1.25.22-1.88.31.86-.12-.67.06-.9.09-1.28.12-2.58.16-3.87.13-.55,0-1.12-.04-1.67-.09-.29-.03-2.02-.25-1.12-.1-1.16-.19-2.32-.42-3.44-.74-.47-.13-.92-.28-1.37-.45-.26-.1-.54-.2-.8-.31.86.35-.01,0-.16-.09-1-.5-1.95-1.05-2.88-1.68-.13-.09-.84-.67-.15-.1-.29-.23-.57-.47-.83-.71-.41-.38-.8-.77-1.16-1.18-.19-.2-.36-.42-.54-.64.58.73-.16-.25-.26-.41-.32-.48-.61-.98-.89-1.49-.13-.26-.26-.52-.39-.79-.17-.38-.16-.36,0,.04-.07-.19-.15-.38-.22-.57-.2-.6-.39-1.2-.55-1.81-.19-.74-.35-1.52-.45-2.27.12.8-.03-.35-.03-.42-.03-.48-.06-.96-.09-1.44-.17-4.68-7.45-4.69-7.28,0,.22,5.96,2.15,11.88,6.6,16.03,4.15,3.88,9.54,5.73,15.1,6.32,10.96,1.18,23.38-2.96,31.15-10.86,4.38-4.46,7.16-10.36,6.95-16.69-.16-4.68-7.44-4.69-7.28,0h-.03Z"/>
    <path class="st0" d="M317.88,127.66c14.83,7.13,27.12,19.13,34.82,33.63,1.91,3.6,3.26,6.73,4.5,10.62.6,1.87,1.09,3.76,1.5,5.67.42,2.01.64,3.41.8,5.11.18,1.82.25,3.64.2,5.46-.04,1.82-.22,3.96-.42,5.19-.55,3.48-1.7,7.29-3,10.03-4.08,8.6-11.11,14.91-19.49,19.56-4.09,2.27-.44,8.57,3.67,6.3,8.28-4.59,15.72-10.94,20.53-19.19,4.19-7.18,6.17-15.52,5.98-23.81-.39-17.57-9.35-34.25-21.15-46.82-6.92-7.37-15.17-13.64-24.3-18.03-1.78-.85-3.93-.48-4.98,1.31-.93,1.59-.48,4.12,1.31,4.98h.03Z"/>
    <path class="st0" d="M337.57,221.76c-8.74,5.9-17.7,9.21-27.75,12.21-12.19,3.64-24.91,6.12-37.43,7.72-26.42,3.38-54.2,3.89-80.23-.68-6.38-1.12-12.71-2.58-18.88-4.58-5.65-1.82-9.94-3.56-15.13-6.62-4.05-2.38-7.72,3.92-3.67,6.29,9.54,5.61,20.4,8.85,31.17,11.05,13.16,2.69,26.63,3.9,40.05,4.24,27.37.68,55.39-1.97,81.85-9.19,11.68-3.19,23.6-7.35,33.7-14.15,3.86-2.61.22-8.92-3.67-6.29h-.01Z"/>
    <path class="st0" d="M160.71,162.9c-9.24-9.41-20.8-18.25-34.12-20.52-9.71-1.66-19.68.31-27.65,6.27-7.96,5.96-12.99,13.93-15.68,23.02-2.69,9.09-2.74,18.7.45,27.37,3.52,9.56,10.69,17.24,19.97,21.44,13.25,5.99,28.27,5.68,42.35,3.31,8.71-1.47,17.53-4.97,23.47-11.79,4.73-5.43,7.22-12.53,6.57-19.76-1.35-14.92-13.19-27.59-27.53-31.23-3.9-.99-8.02-1.37-12.04-1.02-4.7.41-9.17,1.78-13.68,3.06-7.5,2.11-15.77,6.63-17.72,14.85-3.06,12.87,10.51,25.4,23.07,22.15,3.36-.87,6.36-2.86,8.74-5.36,3.23-3.4-1.91-8.56-5.15-5.16-.52.55-1.06,1.06-1.65,1.56-.52.45-.1.09,0,0-.16.12-.32.23-.5.35-.32.22-.65.42-.99.61-.29.16-.58.31-.87.45-.8.42.33-.09-.26.12-.67.23-1.34.42-2.04.57-.17.04-.33.06-.51.09,0,0,.74-.07.33-.04-.29.01-.6.04-.89.06-.68.03-1.35-.01-2.02-.09.73.07.25.04-.16-.04-.29-.06-.57-.13-.86-.2-.32-.09-.64-.19-.96-.29-.32-.1-1.06-.41-.31-.09-1.16-.51-2.24-1.17-3.29-1.91-.52-.36.45.42-.16-.15-.22-.2-.45-.39-.67-.6-.5-.47-.95-.96-1.4-1.47-.12-.13-.22-.26-.32-.39,0,0,.42.57.19.23-.18-.23-.35-.48-.51-.73-.36-.55-.7-1.14-1-1.74-.07-.16-.44-.96-.23-.47.22.52-.12-.35-.18-.48-.22-.63-.36-1.25-.51-1.89-.03-.16-.06-.32-.09-.48,0,0,.09.77.06.36-.01-.28-.04-.57-.06-.85v-.98c.01-.39.13-1.06,0-.25.1-.58.22-1.14.39-1.71.1-.32.22-.64.35-.96-.31.76.03,0,.19-.32.31-.57.66-1.11,1.03-1.63-.52.7.23-.25.36-.39.28-.31.57-.6.86-.88.28-.26.55-.49.84-.74.44-.36-.42.31.06-.04.13-.1.28-.2.42-.31.82-.55,1.63-1.06,2.5-1.53,3.57-1.89,8.08-2.91,12.23-4.04,3.68-.99,6.67-1.33,10.69-1.04.42.03.83.07,1.25.12.8.09.01-.01.61.09.92.16,1.83.34,2.74.55.79.19,1.56.42,2.32.67.38.13.76.26,1.14.39.17.06,1.45.58.87.32,1.54.66,3.03,1.46,4.45,2.35.65.41,1.3.85,1.92,1.3.17.13.35.26.54.39-.04-.04-.41-.32-.09-.07.39.31.77.61,1.14.93,1.24,1.06,2.39,2.2,3.46,3.42.25.28.49.57.73.86.13.16.73.95.32.39.51.68.99,1.37,1.44,2.08.84,1.33,1.57,2.7,2.23,4.12.26.58-.14-.42.18.41.13.34.26.67.38,1.01.25.71.48,1.44.67,2.19.19.74.36,1.47.49,2.21.03.15.18,1.17.12.7-.06-.41.06.63.07.85.12,1.49.07,2.96-.06,4.44-.09.95.07-.31-.04.35-.07.39-.15.77-.22,1.17-.16.73-.36,1.44-.6,2.16-.12.34-.23.66-.35.99-.23.64-.03.1.03-.03-.07.19-.16.38-.25.55-.33.7-.68,1.38-1.08,2.04-.39.65-.84,1.34-1.32,1.97.39-.52-.22.26-.35.41-.29.34-.58.67-.89.99-.6.63-1.21,1.22-1.86,1.79-.32.28-.63.54-.96.8-.33.26-.04.03.01,0-.25.19-.5.36-.76.54-3.38,2.38-7.03,4.15-10.99,5.1-7.35,1.78-14.56,2.46-22.32,2.29-1.62-.04-3.25-.13-4.86-.28-.71-.07-1.44-.15-2.15-.23-.55-.07.61.09.07,0-.15-.01-.29-.04-.45-.06-.44-.07-.87-.13-1.32-.22-2.74-.48-5.43-1.15-8.05-2.05-.57-.2-1.14-.41-1.7-.63-.38-.15-.85-.35-.19-.07-.35-.14-.68-.31-1.03-.45-1.11-.51-2.18-1.06-3.23-1.66-1.05-.6-1.98-1.21-2.93-1.88-.22-.16-.42-.32-.64-.47-.52-.36.55.47-.06-.04-.45-.38-.92-.74-1.35-1.14-.82-.71-1.59-1.47-2.33-2.27-.33-.36-.67-.74-.99-1.12-.16-.19-.32-.38-.47-.57-.64-.76.32.47-.15-.18-1.19-1.66-2.29-3.37-3.2-5.2-.23-.47-.42-.93-.66-1.4-.33-.71.22.61,0,.01-.09-.26-.2-.51-.31-.76-.36-.96-.68-1.92-.96-2.91-.28-.99-.51-1.98-.71-2.97-.1-.5-.17-1.01-.26-1.52-.09-.51-.06-.55,0,.06-.03-.28-.07-.54-.1-.82-.22-2.04-.28-4.1-.19-6.15.04-1.03.15-2.05.25-3.07.1-.96-.09.48,0-.06.04-.23.07-.48.1-.71.09-.51.17-1.02.28-1.53.39-2.03.93-4.02,1.62-5.98.17-.48.35-.98.52-1.46.09-.22.17-.45.26-.67.32-.85-.2.44.03-.07.44-.93.84-1.87,1.32-2.78.95-1.81,2.01-3.56,3.2-5.22.15-.19.29-.38.42-.57-.41.48.5-.7,0,0,.35-.41.67-.85,1.03-1.25.66-.77,1.34-1.5,2.05-2.21.71-.71,1.46-1.38,2.23-2.03.29-.25,1.44-1.09.51-.44.44-.31.86-.64,1.3-.93,1.66-1.15,3.42-2.08,5.24-2.94.68-.32-.1.04-.03,0,.22-.09.44-.17.65-.26.51-.19,1.02-.38,1.53-.54.97-.32,1.98-.58,2.98-.8.48-.1.96-.19,1.44-.28.18-.03.99-.15.35-.06-.64.09.41-.04.57-.06,1.08-.12,2.15-.16,3.25-.18,1.09-.01,2.24.06,3.36.16.26.03.54.06.8.09.04,0-.7-.12.07,0,.63.1,1.25.2,1.86.34,2.49.51,4.89,1.28,7.26,2.2.13.04.25.1.38.15.48.19-.6-.26-.12-.06.29.13.58.26.87.39.68.31,1.35.63,2.02.98,1.31.67,2.61,1.38,3.86,2.14,1.34.82,2.66,1.68,3.95,2.59.63.45,1.25.9,1.86,1.37.48.36.85.64,1.69,1.34,2.79,2.29,5.44,4.75,7.96,7.33,3.29,3.35,8.43-1.81,5.15-5.16v.06Z"/>
    <path class="st0" d="M346.24,239.23c9.35.85,18.15-3.47,26.09-7.9,7.66-4.28,15.26-9.53,24.03-10.77,1.25-.18,3.96-.23,5.47-.03,1.51.2,4.22.77,5.52,1.56.12.07.58.55.8.8.12.13.79.95.39.44.55.73,1.03,1.5,1.46,2.3.49.93.54,1.02.77,1.66.33.89.61,1.79.83,2.73.51,2.05.58,2.75.65,4.9.07,1.92-.01,3.88-.26,5.79.07-.51-.03.15-.03.2-.04.26-.09.52-.13.79-.07.45-.16.9-.26,1.37-.22,1.03-.48,2.07-.77,3.09-.52,1.82-1.24,3.75-1.88,5.09-1.89,4.05-3.95,7.13-7.19,9.97-.95.83-.84.76-1.95,1.49-.83.54-1.7,1.02-2.59,1.43-.54.25.47-.18-.09.04-.26.1-.54.2-.82.29-.44.15-.87.28-1.32.39-.45.12-.9.2-1.35.29-.73.13-.23.03-.07,0-.35.04-.7.06-1.06.07-4.66.25-4.69,7.53,0,7.29,18.34-.96,28.51-23.2,26.93-39.46-.41-4.24-1.47-8.45-3.74-12.1-1.15-1.85-2.68-4.02-4.64-5.06-2.24-1.18-4.83-1.97-7.34-2.36-10.26-1.6-19.7,2.89-28.43,7.78-9.1,5.1-18.52,11.62-29.03,10.67-1.96-.17-3.64,1.81-3.64,3.64,0,2.11,1.67,3.47,3.64,3.64l.02-.03Z"/>
    <path class="st0" d="M119,263.68c-19.74,1.14-38.56,12.94-47.36,30.85-3.2,6.51-5.42,14.3-3.52,21.54,1.89,7.24,8.09,11.41,15.34,12.08,5.2.48,10.58-.7,15.49-2.3,7.57-2.48,14.73-6.19,21.56-10.27,4.02-2.4.36-8.7-3.67-6.3-5.72,3.41-11.75,6.63-17.72,8.8-2.39.87-4.82,1.62-7.31,2.17-.98.22-1.97.39-2.96.54.98-.15-.42.04-.7.06-.57.06-1.14.09-1.7.1-.86.03-1.7,0-2.56-.04-.29-.01-1.57-.22-.38-.01-.42-.07-.84-.13-1.27-.23-.73-.16-1.41-.39-2.13-.61-.92-.29.66.38-.19-.07-.32-.18-.66-.32-.98-.51-.26-.15-.5-.32-.76-.48-.92-.57.28.32-.16-.12-.44-.44-.92-.98-1.38-1.4-.22-.2.48.76-.04-.07-.15-.25-.32-.48-.47-.71-.16-.28-.31-.55-.45-.83-.07-.13-.12-.28-.19-.39-.29-.49.29.93.04.06-.16-.57-.38-1.14-.51-1.72-.07-.31-.13-.6-.19-.9-.23-1.15,0,.55-.04-.34-.09-1.49-.1-2.93.03-4.4.01-.2.06-.42.07-.63-.1,1.06-.07.48-.03.22.07-.39.13-.79.2-1.18.16-.82.35-1.62.58-2.42.23-.8.47-1.57.74-2.35.15-.42.31-.83.47-1.24.06-.15.12-.31.17-.45.23-.58-.32.68.12-.26,1.57-3.47,3.51-6.72,5.82-9.75-.55.73.48-.6.66-.8.31-.36.61-.73.92-1.08.7-.8,1.41-1.57,2.14-2.33,1.51-1.55,3.12-3,4.8-4.37.19-.16.39-.31.58-.47.2-.16.16-.12-.15.1.16-.12.32-.25.48-.36.49-.37.99-.71,1.48-1.06,1.02-.7,2.05-1.37,3.12-2,1.12-.67,2.27-1.3,3.44-1.88.61-.31,1.24-.6,1.86-.89.19-.09.39-.17.58-.26.39-.16.39-.17.01,0,.2-.09.39-.16.6-.25,2.46-.95,4.96-1.76,7.53-2.35,1.32-.31,2.66-.55,4-.76,1.12-.17-.73.07.41-.06.35-.04.7-.09,1.03-.12.82-.09,1.64-.15,2.46-.19,4.66-.26,4.69-7.55,0-7.29l.04-.02Z"/>
    <path class="st0" d="M118.18,248.74c-1.73,7.05-.28,14,4.21,19.7,4.21,5.35,10.29,8.85,16.61,11.1v-7.02c-8.65,2.51-14.66,10.35-15.75,19.15s3.86,17.04,12.55,19.86l.96-7.15c-6.71.1-13.86,1.55-18.52,6.79-1.51,1.7-2.69,3.61-3.83,5.57-.45.77-.93,1.53-1.41,2.29-.12.18-.63.8.01,0-.15.18-.28.36-.44.52-.22.22-1.28,1.15-.41.48-1.56,1.2-2.39,3.13-1.31,4.98.9,1.53,3.41,2.52,4.98,1.31,1.76-1.35,3.06-2.94,4.22-4.85.47-.76.89-1.54,1.35-2.3.25-.42.51-.85.77-1.25.13-.19.25-.38.38-.57.06-.09.6-.83.29-.42-.31.41.17-.22.25-.31.19-.22.38-.44.58-.65.35-.36.71-.71,1.08-1.05.06-.06.86-.66.25-.22.22-.16.45-.32.68-.47.54-.35,1.11-.65,1.69-.95.31-.15.58-.26,1.29-.49.85-.28,1.69-.5,2.56-.67,1.82-.36,3.67-.45,5.52-.48,4.16-.07,4.85-5.89.96-7.16-2.97-.96-4.86-2.55-6.29-5.16-.07-.13-.45-1.03-.19-.38-.13-.32-.23-.64-.34-.98-.12-.38-.22-.77-.31-1.17-.03-.15-.23-1.33-.13-.57-.09-.7-.12-1.4-.12-2.1,0-.48.03-.95.06-1.41,0-.15.16-1.15.04-.45.13-.77.31-1.55.51-2.29.12-.41.25-.82.39-1.21,0,0,.42-1.05.18-.5.33-.79.74-1.56,1.19-2.29.19-.32.39-.63.6-.93,0,0,.65-.9.3-.45,2.07-2.64,4.46-4.24,7.31-5.07,3.61-1.05,3.29-5.84,0-7.02-9.3-3.34-18.39-11.03-15.72-21.84,1.12-4.55-5.9-6.5-7.02-1.94h-.01Z"/>
    <path class="st0" d="M332.55,239.48c6.39-2.23,12.87-.58,17.77,3.93,4.91,4.52,7.82,11.03,7.31,17.87-.15,1.97,1.78,3.64,3.64,3.64,2.1,0,3.49-1.68,3.64-3.64,1.31-17.74-16.51-35.03-34.3-28.81-1.85.64-3.09,2.49-2.55,4.49.49,1.81,2.61,3.19,4.48,2.55v-.03Z"/>
    <path class="st0" d="M365.41,263.71c5.95,1.72,12.42,3.61,17.67,6.03,3.01,1.38,6,2.97,8.62,5.03-.36-.28.33.28.42.36.28.23.55.48.83.73.58.52,1.13,1.08,1.64,1.66.23.26.47.54.68.82.26.32,0,.01-.03-.04.1.14.2.28.31.42.42.63.82,1.25,1.16,1.92.1.2.47,1,.39.82-.06-.15.28.82.35,1.04.12.39.22.79.3,1.2.04.17.07.35.1.52.12.6-.04-.51.03.1.23,2,.09,3.42-.28,5.1-1.01,4.58,6.01,6.53,7.02,1.94,1.7-7.75-.61-15.14-6.42-20.55-5.81-5.41-12.77-8.26-19.83-10.73-3.64-1.27-7.35-2.35-11.07-3.42-4.51-1.3-6.43,5.73-1.94,7.02l.02.03Z"/>
    <path class="st0" d="M491.51,192.24c15.88,0,31.75-9.43,39.77-23.1,4-6.82,6.06-15.11,4.66-23-.98-5.49-4.18-10.55-8.14-14.38-3.96-3.83-8.33-6.47-12.94-8.93-3.99-2.14-8.18-3.98-11.95-6.51-.32-.22-.64-.45-.96-.68-.66-.47.63.54.03.01-.16-.15-.34-.28-.5-.42-.26-.23-.51-.47-.74-.71-.13-.13-.25-.32-.39-.44-.41-.36.41.77,0,0-.1-.2-.29-.6-.45-.77-.38-.42.1.79.1.23,0-.16-.15-.32-.15-.5-.01-.92.16.85,0-.06-.03-.18.04-.36,0-.54-.1-.45-.28.89,0,.04.1-.31.22-.66.29-.96-.28,1.06.12-.22.32-.57.22-.38.46-.73.7-1.09.52-.77-.49.58.13-.17.26-.32.54-.64.82-.95,2.9-3.21,6.14-6.14,9.14-9.25,9.46-9.82,19.14-20.26,25.9-32.19,3.13-5.51,6.93-13.49,3.49-19.75-2.82-5.13-9.26-6.05-14.56-5.57-8.05.74-15.78,3.66-23.08,7.01-8.79,4.05-17.12,9.14-24.85,14.97-8.21,6.19-15.9,13.16-22.26,21.28-1.62,2.05-3.17,4.17-4.6,6.35-2.58,3.93,3.73,7.58,6.29,3.67,2.75-4.2,4.95-6.94,8.49-10.78,3.36-3.64,6.99-7.05,10.77-10.24.85-.71,1.7-1.41,2.58-2.11,1.35-1.08,1.34-1.08,2.68-2.07,1.94-1.44,3.9-2.86,5.91-4.2,3.96-2.67,8.05-5.13,12.26-7.37,1.94-1.03,3.9-2.01,5.9-2.94.96-.45,1.92-.87,2.88-1.3.96-.42-.29.12.68-.29.6-.25,1.18-.48,1.78-.71,3.39-1.33,6.86-2.46,10.42-3.26.77-.17,1.56-.34,2.34-.47.33-.06.68-.1,1.02-.16.76-.13-.92.09-.17.03.23-.01.45-.06.68-.07,1.34-.13,2.69-.19,4.05-.12.28.01.54.06.82.07.9.04-.95-.22.03,0,.54.12,1.09.22,1.62.39.22.07.48.23.7.25-.48-.04-.73-.39-.1-.01.17.1.36.22.55.31.87.47-.22-.31,0-.03.22.28.58.67.87.89-.77-.61-.45-.54-.13-.1.29.41.31,1.14.04-.06.09.42.25.89.38,1.3.29.87,0-.9,0-.07,0,.29.04.58.04.89s-.03.57-.03.86c0,.13-.04.28-.03.41.01.66.22-.95.04-.29-.18.66-.25,1.34-.42,2-.2.74-.44,1.47-.71,2.2-.07.2-.54,1.36-.32.86.25-.58-.07.16-.1.23-.15.31-.28.61-.42.92-4.98,10.55-12.8,19.29-20.6,27.82-2.94,3.21-5.94,6.35-9,9.44-2.66,2.7-5.58,5.23-7.85,8.28-2.45,3.28-3.57,7.43-1.6,11.24,1.75,3.38,5.28,5.57,8.49,7.37,3.98,2.23,8.12,4.14,12.08,6.43,4.47,2.59,7.64,4.74,10.92,8.8.68.85-.39-.57.23.31.16.22.32.45.47.68.34.51.67,1.02.96,1.56.79,1.38.98,1.85,1.37,3.02,1,2.97,1.18,6.06.74,9.37-1.85,13.96-14.34,25.08-27.33,28.93-3.3.98-6.61,1.49-10.06,1.49-4.69,0-4.69,7.29,0,7.29v.04Z"/>
    <path class="st0" d="M452.18,89.11c-14.28,1.82-26.76,9.69-34.15,22.15-6.9,11.61-8.87,26.14-5.01,39.11,2.29,7.7,6.59,14.68,12.36,20.26,3.38,3.25,8.53-1.89,5.15-5.16-8.85-8.54-12.97-20.1-12.05-32.22.39-5.17,2.08-11.21,4.5-15.91,2.78-5.41,6.23-9.76,11.11-13.54,4.88-3.77,11.68-6.62,18.1-7.43,1.95-.25,3.64-1.5,3.64-3.64,0-1.78-1.67-3.89-3.64-3.64v.03Z"/>
    <path class="st0" d="M428.13,163.91c-7.64,1.72-17.72,6.02-15.88,15.62.68,3.6,3.01,6.76,5.4,9.43,2.98,3.31,6.54,6.09,10.15,8.67,8.15,5.82,17.16,10.48,26.44,14.25,3.76,1.53,7.6,2.91,11.56,3.8,1.62.36,3.28.64,4.93.76.34.01.65.01.99.03.2,0,.48.04-.31-.04.35.04.7.13,1.03.17,1.56.23,3.1.25,4.63-.15,12.29-3.25,8.59-24.7-3.64-25.02-4.69-.12-4.69,7.17,0,7.29,1.08.03-.32-.18.68.09,1.01.26-.32-.22.6.25.16.07.31.19.45.28-.64-.41-.28-.23-.12-.09.23.22,1.17,1.35.68.67.23.35.45.7.65,1.06.12.2.22.42.31.64-.06-.12-.26-.71-.04-.07.16.47.31.92.42,1.38.07.31.23,1.65.16.76.04.48.07.96.07,1.46,0,.26-.16,1.73,0,.74-.06.36-.13.73-.23,1.09-.07.26-.16.52-.25.79-.23.7.35-.57-.06.1-.12.19-.7,1.11-.41.73.29-.38-.44.42-.57.55.66-.63-.25.12-.54.26.79-.39-.32.04-.67.12.9-.16-.58-.04-.86-.06.73.04-1-.2-1.25-.23-.7-.09-1.41-.06-2.12-.12-.19-.01-1.15-.13-.44-.04.71.09-.33-.06-.51-.09-.73-.12-1.44-.28-2.15-.45-3.49-.82-6.9-2.03-10.23-3.35-.49-.19-.98-.39-1.46-.6-.2-.09-.39-.16-.6-.25.65.28,0,0-.17-.07-1.06-.47-2.12-.93-3.17-1.41-1.96-.9-3.92-1.87-5.84-2.86-3.98-2.07-7.86-4.31-11.6-6.79-3.74-2.48-5.9-4.04-9.13-7.08-1.28-1.21-2.48-2.49-3.58-3.86.49.61.07.1-.15-.22-.22-.32-.44-.63-.64-.95-.38-.6-.65-1.25-1.02-1.86-.36-.61.25.67.1.23-.07-.22-.16-.42-.23-.64-.09-.29-.16-.6-.25-.89-.29-1.08-.07.41-.03-.18.01-.29,0-.64,0-.95-.04-.85-.31.82.04-.12.15-.39.57-1.15,0-.18.15-.25.28-.52.41-.79.51-.95-.36.25.2-.32.23-.23.47-.48.71-.71.16-.15.32-.28.48-.42-.38.32-.46.31-.01.03.8-.5,1.59-.96,2.43-1.38.18-.09.35-.16.51-.23-.82.36.12-.04.23-.09.55-.2,1.11-.41,1.67-.6,1.34-.44,2.71-.79,4.09-1.09,4.57-1.02,2.63-8.04-1.94-7.02h.04Z"/>
    <path class="st0" d="M440.3,125.81c3.17-.28,5.81-.16,8.41.42,3.03.67,4.56,1.27,7.09,2.75.57.34,1.14.7,1.69,1.06.28.19.54.38.82.58.87.64-.52-.45.31.23,1.02.83,1.98,1.72,2.88,2.68.45.48.87.98,1.3,1.47.06.06.71.9.23.28.13.17.26.35.39.52.82,1.15,1.57,2.32,2.26,3.56.28.52.55,1.05.8,1.57.12.25.23.48.34.73.44.96-.26-.67.13.31.51,1.28.95,2.59,1.3,3.93.29,1.12.52,2.26.7,3.4-.13-.83.09.92.12,1.19.04.61.07,1.24.09,1.85.02,1.22-.04,2.43-.19,3.66.1-.89-.14.83-.2,1.11-.12.58-.26,1.17-.42,1.74-.16.57-.34,1.14-.54,1.69-.1.28-.2.55-.32.83.33-.83-.04.09-.12.2-.54,1.06-1.12,2.07-1.78,3.04-.07.1-.67.89-.15.22-.25.31-.51.61-.77.92-.41.45-.83.88-1.27,1.3-.22.2-.45.41-.68.61-.16.13-.32.26-.48.39q.22-.16,0,0c-.6.44-1.22.85-1.86,1.21-2.58,1.5-5.1,2.24-8.53,2.75-1.95.29-3.01,2.76-2.55,4.49.57,2.08,2.52,2.83,4.48,2.55,6.1-.9,12.13-3.63,16.23-8.35,3.87-4.46,5.9-10.01,6.33-15.88.89-11.94-5.18-24.05-14.89-30.87-6.11-4.3-13.74-6.08-21.14-5.43-1.97.17-3.64,1.56-3.64,3.64,0,1.84,1.67,3.82,3.64,3.64h0Z"/>
    <path class="st0" d="M428.74,195.9c-3.41,3.8-6.22,8.12-9.29,12.17-.17.23-.42.55-.1.15-.19.25-.39.5-.58.74-.38.48-.77.96-1.18,1.44-.77.9-1.56,1.79-2.4,2.62-.39.39-.82.79-1.24,1.15-.2.18-.42.35-.63.52-.57.48.55-.36-.1.07-.39.26-.77.54-1.18.77-.22.13-.44.25-.65.36-.2.1-1.09.5-.13.09-1.75.73-3.2,2.45-2.55,4.49.54,1.68,2.59,3.34,4.48,2.55,4.79-2.01,8.27-5.76,11.4-9.79,1.73-2.23,3.36-4.5,5.04-6.78.38-.51.74-1.02,1.12-1.51.19-.25.38-.5.55-.74.16-.2.57-.73.17-.23.77-.99,1.57-1.97,2.42-2.91,1.27-1.41,1.5-3.77,0-5.16-1.38-1.27-3.79-1.52-5.15,0Z"/>
    <path class="st0" d="M247.05,176.77c3.09,0,5.59-2.51,5.59-5.6s-2.5-5.6-5.59-5.6-5.59,2.51-5.59,5.6,2.5,5.6,5.59,5.6Z"/>
    <path class="st0" d="M289.53,170.36c3.09,0,5.59-2.51,5.59-5.6s-2.5-5.6-5.59-5.6-5.59,2.51-5.59,5.6,2.5,5.6,5.59,5.6Z"/>
    <path class="st0" d="M363.5,195.96c9.89,0,17.91-3.8,17.91-8.5s-8.02-8.5-17.91-8.5-17.91,3.8-17.91,8.5,8.02,8.5,17.91,8.5Z"/>
  </g>
</svg>