<svg width="542" height="443" viewBox="0 0 542 443" fill="none" xmlns="http://www.w3.org/2000/svg">
<g clip-path="url(#clip0_38_1380)">
<path d="M318.853 108.713C319.056 109.544 319.231 110.375 319.362 111.22C319.202 110.185 319.391 111.643 319.406 111.861C319.435 112.298 319.45 112.721 319.45 113.158C319.45 113.916 319.391 114.659 319.333 115.402C319.42 114.266 319.289 115.621 319.231 115.869C319.158 116.262 319.056 116.641 318.955 117.02C318.867 117.355 318.751 117.69 318.634 118.025C318.547 118.273 318.081 119.337 318.532 118.346C318.212 119.06 317.863 119.745 317.455 120.401C317.295 120.663 317.12 120.925 316.946 121.188C316.8 121.406 315.999 122.412 316.684 121.581C316.174 122.193 315.65 122.805 315.082 123.359C314.558 123.884 314.005 124.365 313.437 124.846C312.753 125.428 313.612 124.729 313.175 125.05C312.796 125.326 312.403 125.603 312.01 125.866C310.584 126.813 309.084 127.644 307.541 128.387C307.162 128.562 306.769 128.737 306.391 128.911C305.779 129.188 306.362 128.926 306.464 128.882C306.245 128.97 306.012 129.072 305.794 129.159C304.921 129.494 304.047 129.815 303.159 130.121C301.31 130.733 299.418 131.258 297.51 131.695C292.997 132.729 290.246 133.079 285.718 133.385C281.191 133.691 277.056 133.677 272.718 133.429C268.001 133.152 264.915 132.773 260.518 131.943C256.486 131.17 252.482 130.15 248.61 128.78C247.605 128.43 246.615 128.037 245.625 127.644C245.072 127.425 246.411 127.993 245.538 127.614C245.276 127.498 244.999 127.381 244.737 127.265C244.3 127.061 243.864 126.857 243.427 126.653C241.709 125.822 240.02 124.875 238.433 123.811C238.04 123.549 237.662 123.272 237.269 122.995C237.094 122.878 236.934 122.747 236.759 122.616C237.196 122.951 237.065 122.864 236.716 122.572C236.075 122.018 235.434 121.479 234.838 120.882C234.241 120.284 233.746 119.716 233.236 119.089C233.92 119.935 233.178 119.002 233.018 118.754C232.77 118.39 232.552 118.025 232.334 117.647C229.975 113.595 223.686 117.253 226.044 121.319C229.844 127.862 236.774 131.811 243.558 134.624C251.856 138.049 260.853 139.739 269.763 140.511C278.672 141.284 288.324 140.963 297.409 139.171C305.183 137.641 313.088 134.843 319.129 129.553C325.768 123.753 327.937 115.242 325.826 106.804C324.69 102.258 317.673 104.181 318.809 108.743L318.853 108.713Z" fill="#E9562A"/>
<path d="M223.832 116.554C221.124 122.412 217.368 126.667 212.287 130.806C207.483 134.711 200.83 138.355 194.905 140.657C181.671 145.816 166.647 148.002 153.021 145.204C151.099 144.81 149.192 144.315 147.314 143.717C145.436 143.12 144.082 142.581 142.655 141.91C139.351 140.351 136.352 138.413 133.95 136.256C130.47 133.138 125.302 138.267 128.796 141.415C140.093 151.543 155.976 154.501 170.723 153.481C185.471 152.461 202.082 147.434 214.616 138.151C221.007 133.414 226.743 127.542 230.106 120.241C230.936 118.463 230.616 116.32 228.796 115.257C227.224 114.339 224.647 114.776 223.817 116.568L223.832 116.554Z" fill="#E9562A"/>
<path d="M384.233 127.614C392.4 122.587 399.359 115.315 401.907 105.857C404.222 97.2738 402.62 88.3552 399.054 80.3693C391.469 63.3482 374.669 49.9557 356.937 44.8552C346.732 41.9261 335.536 41.8387 325.651 45.9773C323.846 46.7351 322.536 48.3819 323.104 50.4658C323.57 52.1708 325.753 53.7738 327.588 53.016C335.493 49.6934 343.631 49.3 351.536 51.0196C360.14 52.8849 367.593 56.5864 374.771 61.9783C381.089 66.7291 386.956 73.1557 390.886 80.2673C391.367 81.1416 391.833 82.0306 392.269 82.9341C392.473 83.3567 392.663 83.7793 392.852 84.2019C393.143 84.8577 392.954 84.4351 392.895 84.2894C393.027 84.61 393.158 84.9306 393.274 85.2512C393.973 87.0436 394.541 88.8798 394.977 90.7451C395.181 91.6049 395.341 92.4793 395.487 93.3391C395.662 94.3738 395.443 92.8728 395.516 93.514C395.545 93.7326 395.56 93.9512 395.589 94.1698C395.632 94.6507 395.676 95.1461 395.705 95.627C395.763 96.5451 395.763 97.4632 395.734 98.3667C395.734 98.7893 395.691 99.2265 395.662 99.6491C395.647 99.9115 395.618 100.188 395.589 100.451C395.589 100.538 395.472 101.427 395.531 100.917C395.56 100.669 395.385 101.748 395.327 102.025C395.225 102.549 395.108 103.074 394.963 103.598C394.686 104.648 394.351 105.682 393.973 106.702C393.929 106.819 393.711 107.344 393.973 106.746C393.871 107.008 393.754 107.256 393.638 107.504C393.42 107.956 393.201 108.407 392.968 108.859C392.43 109.879 391.833 110.856 391.178 111.803C390.129 113.318 388.63 115.009 386.883 116.627C384.859 118.506 382.996 119.818 380.565 121.319C376.576 123.767 380.23 130.077 384.233 127.614Z" fill="#E9562A"/>
<path d="M328.723 43.7623C329.102 35.2372 326.103 27.1784 320.556 20.7372C315.082 14.3834 307.497 10.099 299.709 7.27187C283.403 1.36986 263.663 1.26785 247.896 8.90403C239.496 12.9699 232.756 19.7171 229.509 28.5337C228.825 30.3844 230.266 32.5266 232.057 33.0221C234.08 33.5759 235.857 32.3372 236.541 30.4718C236.628 30.2532 237.05 29.1603 236.919 29.4809C236.788 29.7723 237.269 28.7231 237.371 28.5337C237.764 27.7321 238.2 26.9306 238.666 26.1728C239.103 25.4588 239.583 24.7593 240.093 24.0889C240.442 23.608 239.554 24.7447 240.166 24.0015C240.297 23.8558 240.413 23.6955 240.544 23.5497C240.865 23.1708 241.185 22.792 241.52 22.4422C242.058 21.8593 242.626 21.2909 243.208 20.7518C243.543 20.4457 243.878 20.1543 244.213 19.8628C244.431 19.6734 245.319 18.9593 245.13 19.105C244.868 19.309 245.785 18.6241 245.974 18.493C246.309 18.2598 246.644 18.0266 246.979 17.808C247.794 17.2688 248.639 16.7734 249.483 16.2925C250.255 15.8553 251.055 15.4618 251.856 15.0829C252.234 14.908 252.628 14.7332 253.006 14.5583C253.152 14.5 253.647 14.2668 253.006 14.5583C253.297 14.4417 253.603 14.3106 253.894 14.194C255.714 13.4799 257.577 12.8824 259.47 12.3724C261.362 11.8623 263.386 11.4397 265.366 11.1191C265.817 11.0462 266.254 10.9734 266.705 10.9151C266.006 11.0025 267.2 10.8568 267.433 10.8276C268.51 10.7111 269.602 10.609 270.68 10.5508C274.785 10.2884 278.92 10.405 283.01 10.8422C284.335 10.9879 284.073 10.9588 285.325 11.1482C286.417 11.3231 287.494 11.5126 288.572 11.7312C290.595 12.1392 292.59 12.6492 294.57 13.2467C296.549 13.8442 298.311 14.4709 300.131 15.2141C300.669 15.4327 299.65 15.01 300.174 15.2286C300.422 15.3452 300.684 15.4472 300.931 15.5638C301.339 15.7387 301.732 15.9281 302.125 16.1176C303.013 16.5402 303.887 16.992 304.731 17.4583C306.405 18.3764 308.036 19.3965 309.579 20.504C309.914 20.7518 310.249 20.9995 310.584 21.2472C309.958 20.7663 311.049 21.6407 311.18 21.7427C311.923 22.3693 312.651 23.0105 313.335 23.6955C314.019 24.3804 314.747 25.1236 315.402 25.896C315.723 26.2749 316.043 26.6538 316.349 27.0472C315.854 26.406 316.727 27.5718 316.844 27.7467C317.965 29.3643 318.94 31.0985 319.711 32.9055C319.391 32.1477 319.872 33.3573 319.944 33.5613C320.119 34.0276 320.265 34.5085 320.41 34.9749C320.701 35.9367 320.934 36.9276 321.124 37.9186C321.167 38.1663 321.211 38.4286 321.255 38.6764C321.371 39.3904 321.226 38.3266 321.269 38.7784C321.327 39.303 321.371 39.8276 321.415 40.3522C321.488 41.4889 321.488 42.6256 321.429 43.7623C321.226 48.4547 328.505 48.4402 328.708 43.7623H328.723Z" fill="#E9562A"/>
<path d="M234.11 23.4477C223.38 5.47942 201.281 -0.976351 181.438 0.116613C161.595 1.20958 139.613 9.44323 127.995 26.6683C121.4 36.4467 119.755 48.3382 122.274 59.7487C123.278 64.3246 130.295 62.3864 129.291 57.8105C129.058 56.7613 128.738 54.9834 128.65 54.3568C128.578 53.7593 128.417 52.0397 128.374 51.0196C128.33 49.8392 128.33 48.6733 128.374 47.4929C128.403 46.9392 128.446 46.4 128.49 45.8608C128.519 45.5839 128.548 45.3216 128.578 45.0447C128.65 44.3161 128.49 45.511 128.636 44.5784C129 42.3924 129.509 40.2502 130.237 38.1663C130.412 37.6708 130.601 37.1899 130.776 36.709C130.849 36.5342 131.125 35.893 130.819 36.5779C130.936 36.301 131.067 36.0095 131.198 35.7327C131.649 34.7563 132.144 33.7945 132.683 32.8472C133.222 31.9 133.804 30.9819 134.415 30.093C134.706 29.6703 135.012 29.2477 135.318 28.8251C135.434 28.6648 135.565 28.4899 135.696 28.3296C135.187 28.9854 136.002 27.9508 136.104 27.8487C137.516 26.1437 139.045 24.5407 140.675 23.0543C141.461 22.3402 142.291 21.6407 143.121 20.9704C143.281 20.8392 143.456 20.708 143.631 20.5623C143.005 21.0432 143.864 20.3874 143.922 20.3437C144.446 19.9503 144.97 19.5714 145.509 19.207C147.416 17.8809 149.41 16.6859 151.448 15.5784C152.438 15.0538 153.443 14.5437 154.462 14.0628C154.971 13.8151 155.481 13.5819 156.005 13.3488C156.267 13.2322 156.529 13.1156 156.791 13.0136C157.024 12.9116 156.995 12.9261 156.704 13.0427C156.908 12.9553 157.126 12.8679 157.33 12.7804C159.572 11.8915 161.857 11.09 164.172 10.405C166.487 9.72012 168.889 9.13721 171.277 8.6563C173.999 8.11711 175.586 7.89851 177.915 7.66535C182.748 7.18444 187.625 7.14073 192.473 7.57791C194.992 7.81108 196.142 7.97138 198.893 8.52515C201.179 8.99148 203.436 9.57439 205.648 10.303C206.886 10.7111 208.123 11.1628 209.332 11.6583C210.292 12.0518 208.924 11.4834 209.506 11.7312C209.856 11.8769 210.191 12.0372 210.54 12.1975C211.122 12.4598 211.705 12.7513 212.272 13.0427C214.441 14.1503 216.523 15.4181 218.503 16.8462C218.751 17.0357 219.013 17.2251 219.26 17.4146C218.634 16.9337 219.449 17.5749 219.508 17.6186C219.988 18.0266 220.469 18.4201 220.934 18.8427C221.866 19.6879 222.769 20.5623 223.613 21.495C224.035 21.9613 224.458 22.4276 224.865 22.9231C224.996 23.0834 225.127 23.2437 225.273 23.4186C225.535 23.7392 225.535 23.7538 225.287 23.4186C225.418 23.5935 225.549 23.7538 225.666 23.9286C226.423 24.9633 227.122 26.0271 227.791 27.1347C230.193 31.1568 236.483 27.499 234.08 23.4623L234.11 23.4477Z" fill="#E9562A"/>
<path d="M117.921 62.911C94.5842 54.8522 69.6461 65.2135 52.0744 80.8502C34.5027 96.4868 20.92 119.527 22.8562 143.237C23.9481 156.644 30.3973 168.637 40.7191 177.22C42.2331 178.474 44.3877 178.707 45.8726 177.22C47.1683 175.923 47.3867 173.329 45.8726 172.062C43.6016 170.182 41.4615 168.127 39.5398 165.883C37.953 164.032 36.5409 162.021 35.1578 159.587C34.561 158.538 34.0077 157.46 33.5128 156.367C33.3672 156.046 33.2216 155.711 33.076 155.39C33.309 155.959 33.0178 155.245 32.9741 155.113C32.6975 154.399 32.4209 153.671 32.188 152.942C31.4018 150.596 30.8486 148.206 30.441 145.772C30.441 145.714 30.2663 144.563 30.3682 145.35C30.3245 145.058 30.2954 144.767 30.2663 144.475C30.1935 143.834 30.1353 143.193 30.0916 142.537C30.0043 141.24 29.9751 139.943 29.9897 138.646C30.0043 137.349 30.0625 136.14 30.1644 134.901C30.2226 134.245 30.2809 133.589 30.3682 132.934C30.3682 132.832 30.4556 132.219 30.3682 132.832C30.4264 132.351 30.5138 131.87 30.5866 131.403C31.0088 128.795 31.6202 126.23 32.3627 123.694C32.7412 122.441 33.1488 121.188 33.5856 119.949C33.8039 119.352 34.0223 118.769 34.2407 118.171C34.3717 117.821 34.5173 117.457 34.6629 117.107C34.6629 117.122 35.0996 116.073 34.8812 116.568C39.4088 105.974 45.9018 96.924 54.0106 89.011C61.8429 81.3602 71.5095 74.7733 81.511 71.0864C87.3634 68.9296 92.9974 67.6763 98.7478 67.4432C105.022 67.1808 110.016 67.8949 115.999 69.9643C117.863 70.6055 119.974 69.2356 120.483 67.414C121.036 65.4175 119.799 63.5814 117.935 62.9256L117.921 62.911Z" fill="#E9562A"/>
<path d="M42.0732 170.065C31.7369 173.14 21.8956 178.299 14.3981 186.183C7.91973 193.003 3.4067 201.572 1.39767 210.767C-2.78052 229.77 2.73702 250.07 13.4518 265.969C20.0758 275.791 28.6796 284.156 38.7684 290.379C42.7719 292.841 46.426 286.546 42.4371 284.083C26.6561 274.363 14.6747 258.566 9.69582 240.816C9.09894 238.674 8.5894 236.517 8.19633 234.331C7.77414 231.971 7.62856 230.907 7.43931 228.429C7.27917 226.229 7.22093 224.014 7.29373 221.799C7.32284 220.822 7.38107 219.861 7.46842 218.884C7.5121 218.345 7.57033 217.806 7.62856 217.252C7.65768 216.946 7.70135 216.655 7.73047 216.349C7.65768 216.873 7.73047 216.29 7.77414 216.057C8.10898 213.988 8.53117 211.933 9.09894 209.907C9.3901 208.873 9.71038 207.853 10.0598 206.832C10.2199 206.381 10.3801 205.929 10.5548 205.492C10.6421 205.273 10.7294 205.04 10.8168 204.821C10.8168 204.821 11.2535 203.772 11.0061 204.37C11.8359 202.446 12.7967 200.566 13.8886 198.774C14.4127 197.885 14.9804 197.025 15.5628 196.18C16.3343 195.072 16.4799 194.868 17.2078 193.979C24.1375 185.512 33.513 180.208 44.0094 177.089C48.4933 175.763 46.5862 168.724 42.0732 170.065Z" fill="#E9562A"/>
<path d="M42.7864 287.785C32.9305 292.244 24.545 299.603 20.3377 309.731C16.669 318.577 16.7273 328.516 19.042 337.697C23.9772 357.355 38.7974 375.484 56.9514 384.403C67.2586 389.459 78.8615 391.529 90.1295 388.716C94.6716 387.579 92.7499 380.555 88.1932 381.692C87.1014 381.969 85.995 382.202 84.8885 382.377C84.5974 382.421 84.3062 382.464 84.015 382.508C84.1752 382.494 84.6702 382.435 83.9423 382.508C83.3017 382.581 82.6611 382.639 82.0206 382.668C79.7495 382.814 77.4784 382.727 75.2219 382.508C74.989 382.479 74.7561 382.45 74.5231 382.435C75.2074 382.523 74.4503 382.435 74.2756 382.392C73.7515 382.304 73.242 382.231 72.7179 382.129C71.5678 381.911 70.4177 381.648 69.2822 381.342C67.0985 380.759 64.9584 380.031 62.8766 379.156C63.4298 379.39 62.7165 379.084 62.5855 379.025C62.3088 378.894 62.0322 378.777 61.7702 378.646C61.2752 378.413 60.7802 378.18 60.2998 377.932C59.208 377.393 58.1452 376.81 57.0825 376.198C55.0006 374.989 52.9916 373.677 51.0554 372.249C50.6478 371.943 50.1819 371.593 50.1528 371.579C49.716 371.229 49.2793 370.879 48.8426 370.529C47.8817 369.728 46.9354 368.912 46.0037 368.066C44.2422 366.449 42.5534 364.744 40.952 362.966C34.9977 356.35 29.8296 347.868 27.1218 339.504C26.4084 337.332 25.8261 335.103 25.4039 332.858C25.302 332.348 25.2147 331.838 25.1273 331.328C25.0836 331.051 25.04 330.76 24.9963 330.483C24.9089 329.827 25.0836 331.357 24.9672 330.265C24.8507 329.172 24.7488 328.006 24.6906 326.884C24.6032 324.771 24.6906 322.657 24.9089 320.544C24.9235 320.384 24.9817 319.816 24.9089 320.544C24.9526 320.224 25.0109 319.889 25.0545 319.568C25.1273 319.131 25.2001 318.708 25.302 318.271C25.5204 317.193 25.7824 316.143 26.1027 315.094C27.3693 310.941 29.6986 306.861 32.6539 303.64C36.5409 299.414 40.9957 296.558 46.4259 294.109C48.2166 293.293 48.6533 290.699 47.7361 289.125C46.6588 287.275 44.5479 286.998 42.7572 287.814L42.7864 287.785Z" fill="#E9562A"/>
<path d="M446.964 206.016C445.974 208.129 444.883 210.213 443.441 212.079L444.009 211.335C443.339 212.195 442.582 213.011 441.723 213.682L442.466 213.113C441.942 213.507 441.389 213.857 440.777 214.119L441.651 213.755C441.17 213.959 440.661 214.09 440.151 214.163L441.112 214.031C440.661 214.09 440.209 214.075 439.744 214.031L440.704 214.163C440.617 214.163 440.53 214.133 440.442 214.119C439.452 213.959 438.535 213.959 437.633 214.483C436.876 214.92 436.162 215.795 435.958 216.655C435.74 217.587 435.798 218.636 436.322 219.467C436.803 220.21 437.574 220.997 438.492 221.143C439.831 221.362 440.835 221.376 442.16 221.172C443.063 221.026 443.922 220.662 444.737 220.269C446.164 219.584 447.445 218.462 448.478 217.281C450.458 215.022 451.929 212.414 453.21 209.703C453.632 208.8 453.85 207.896 453.574 206.891C453.341 206.045 452.686 205.127 451.9 204.719C450.284 203.86 447.78 204.18 446.921 206.031L446.964 206.016Z" fill="#E9562A"/>
<path d="M383.098 131.17C392.138 130.34 400.844 133.269 408.822 137.291C410.583 138.18 412.767 137.757 413.801 135.979C414.747 134.362 414.252 131.884 412.491 130.995C403.421 126.419 393.376 122.937 383.083 123.884C381.132 124.059 379.444 125.429 379.444 127.527C379.444 129.363 381.118 131.345 383.083 131.17H383.098Z" fill="#E9562A"/>
<path d="M437.079 224.538C444.577 232.932 450.065 242.988 453.079 253.786C454.607 259.266 455.423 264.133 455.743 269.525C455.918 272.294 455.932 275.063 455.83 277.831C455.772 279.143 455.699 280.454 455.583 281.766C455.525 282.422 455.466 283.078 455.394 283.719C455.306 284.52 455.219 285.147 455.175 285.482C453.588 296.295 450.167 306.059 444.562 315.196C438.957 324.333 431.795 331.678 423.104 337.114C412.214 343.919 399.811 347.023 386.956 346.907C382.268 346.863 382.268 354.149 386.956 354.193C399.49 354.31 411.967 351.526 423.045 345.581C433.28 340.072 441.927 331.969 448.537 322.439C461.77 303.334 466.181 278.545 461.144 255.928C458.116 242.332 451.507 229.741 442.248 219.365C439.118 215.868 433.979 221.026 437.094 224.524L437.079 224.538Z" fill="#E9562A"/>
<path d="M380.259 343.569C377.93 354.689 372.878 364.729 365.41 372.905C357.796 381.255 348.639 387.273 338.113 391.849C328.039 396.236 315.664 399.107 304.688 400.083C292.779 401.132 280.841 400.52 269.515 398.159C256.951 395.536 245.64 391.208 235.158 383.82C233.556 382.683 231.111 383.528 230.179 385.131C229.116 386.953 229.873 388.978 231.489 390.115C251.332 404.091 277.1 409.045 301.004 407.646C325.229 406.218 350.313 398.145 367.914 380.818C377.668 371.214 384.452 358.929 387.261 345.522C387.669 343.599 386.694 341.588 384.714 341.034C382.909 340.538 380.637 341.646 380.23 343.584L380.259 343.569Z" fill="#E9562A"/>
<path d="M231.154 381.984C231.111 382.086 230.718 383.047 231.053 382.26C230.936 382.537 230.805 382.829 230.674 383.106C230.456 383.572 230.237 384.038 230.004 384.49C229.437 385.598 228.825 386.676 228.17 387.725C227.588 388.643 226.962 389.547 226.321 390.421C226.219 390.567 225.782 391.121 226.219 390.552C226.03 390.8 225.826 391.048 225.622 391.296C225.215 391.791 224.807 392.272 224.385 392.738C220.906 396.658 217.63 399.34 213.597 401.977C209.303 404.79 204.105 407.399 199.942 409.031C194.817 411.056 189.518 412.63 184.132 413.811C173.126 416.23 161.727 416.988 150.066 415.982C144.737 415.516 139.584 414.67 133.993 413.184C131.431 412.499 128.883 411.698 126.394 410.779C125.841 410.575 125.288 410.357 124.734 410.138C124.4 410.007 124.079 409.876 123.744 409.73C124.414 410.007 123.351 409.555 123.322 409.541C122.158 409.016 120.993 408.477 119.857 407.894C117.324 406.612 114.878 405.154 112.549 403.537C111.909 403.085 111.283 402.633 110.671 402.152C111.152 402.517 109.827 401.453 109.594 401.263C108.589 400.418 107.614 399.529 106.682 398.611C105.678 397.62 104.717 396.586 103.814 395.493C103.61 395.245 103.407 394.997 103.203 394.735C102.722 394.137 103.479 395.128 102.97 394.443C102.548 393.875 102.14 393.307 101.747 392.724C100.99 391.602 100.277 390.436 99.6215 389.241C99.3013 388.658 99.0101 388.075 98.7189 387.492C98.5734 387.201 98.4423 386.895 98.2967 386.589C98.2094 386.385 98.122 386.18 98.0347 385.976C98.1803 386.341 98.1803 386.326 98.0201 385.933C97.2777 384.111 95.6035 382.814 93.5362 383.383C91.8184 383.849 90.2461 386.035 90.9886 387.871C99.9855 409.745 123.002 419.785 145.13 422.7C157.345 424.303 169.792 423.822 181.919 421.636C193.318 419.567 204.644 415.807 214.631 409.876C224.924 403.755 233.702 395.143 238.171 383.878C238.899 382.042 237.371 379.87 235.624 379.39C233.557 378.821 231.868 380.104 231.14 381.94L231.154 381.984Z" fill="#E9562A"/>
<path d="M332.61 397.081C334.051 401.875 333.251 406.961 330.965 411.625C328.49 416.681 324.691 421.214 320.105 424.449C315.519 427.684 310.729 429.68 305.547 429.549C303.028 429.491 301.98 429.083 300.582 426.955C299.185 424.828 298.457 422.569 297.758 419.917C296.171 413.942 295.385 406.947 290.595 402.517C287.16 399.34 281.991 404.484 285.442 407.675C286.446 408.608 286.781 409.06 287.509 410.517C287.989 411.464 288.426 412.805 288.819 414.204C289.664 417.162 290.217 420.179 291.076 423.123C291.935 426.066 293.114 429.112 295.006 431.619C296.098 433.047 297.336 434.387 298.864 435.364C300.393 436.34 302.431 436.573 304.295 436.748C317.615 437.929 330.587 427.655 336.614 416.477C340.122 409.993 341.782 402.327 339.613 395.128C338.259 390.654 331.242 392.563 332.596 397.066L332.61 397.081Z" fill="#E9562A"/>
<path d="M197.016 415.253C197.03 415.836 197.03 416.434 197.016 417.017C197.001 417.308 196.972 417.585 196.943 417.876C197.03 416.915 196.943 417.862 196.914 418.037C196.695 419.144 196.39 420.223 195.996 421.286C195.662 422.175 196.331 420.602 195.924 421.447C195.836 421.622 195.764 421.782 195.676 421.957C195.429 422.467 195.152 422.962 194.861 423.443C194.57 423.924 194.235 424.405 193.915 424.871C193.827 425.003 193.492 425.411 193.958 424.828C193.725 425.134 193.478 425.425 193.216 425.717C192.502 426.533 191.731 427.29 190.93 428.019C190.479 428.413 190.013 428.806 189.547 429.17C190.217 428.646 189.402 429.272 189.314 429.331C189.023 429.535 188.732 429.739 188.426 429.943C187.436 430.613 186.403 431.211 185.354 431.779C184.889 432.027 184.423 432.26 183.942 432.478C183.651 432.61 183.375 432.741 183.083 432.872C182.69 433.047 182.705 433.032 183.083 432.872C182.894 432.959 182.69 433.032 182.501 433.105C180.215 433.979 177.872 434.679 175.469 435.145C174.843 435.262 174.217 435.364 173.591 435.451C174.45 435.335 172.922 435.51 172.689 435.539C171.408 435.655 170.112 435.699 168.816 435.67C168.263 435.67 167.695 435.626 167.142 435.582C166.851 435.553 165.119 435.335 166.021 435.48C164.857 435.291 163.706 435.058 162.585 434.737C162.12 434.606 161.668 434.46 161.217 434.285C160.955 434.183 160.678 434.081 160.416 433.979C161.275 434.329 160.402 433.979 160.256 433.892C159.252 433.396 158.305 432.843 157.374 432.216C157.243 432.129 156.529 431.546 157.228 432.114C156.937 431.881 156.66 431.648 156.398 431.4C155.991 431.021 155.598 430.628 155.234 430.22C155.044 430.016 154.87 429.797 154.695 429.578C155.277 430.307 154.535 429.331 154.433 429.17C154.113 428.689 153.821 428.194 153.545 427.684C153.414 427.422 153.283 427.159 153.152 426.897C152.977 426.518 152.992 426.533 153.152 426.941C153.079 426.751 153.006 426.562 152.933 426.372C152.73 425.775 152.54 425.177 152.38 424.565C152.191 423.822 152.031 423.05 151.929 422.292C152.045 423.093 151.9 421.942 151.9 421.869C151.871 421.388 151.842 420.908 151.812 420.427C151.638 415.749 144.359 415.734 144.533 420.427C144.752 426.387 146.688 432.304 151.128 436.457C155.277 440.333 160.664 442.184 166.225 442.781C177.187 443.962 189.605 439.823 197.379 431.925C201.761 427.465 204.542 421.563 204.324 415.239C204.164 410.561 196.884 410.546 197.045 415.239L197.016 415.253Z" fill="#E9562A"/>
<path d="M317.877 127.658C332.712 134.784 344.999 146.792 352.7 161.292C354.607 164.892 355.961 168.025 357.199 171.916C357.796 173.781 358.291 175.676 358.698 177.585C359.12 179.596 359.339 180.995 359.499 182.7C359.674 184.521 359.746 186.343 359.703 188.165C359.659 189.986 359.484 192.128 359.281 193.353C358.727 196.835 357.577 200.639 356.282 203.379C352.205 211.977 345.174 218.287 336.788 222.935C332.697 225.209 336.352 231.504 340.457 229.231C348.741 224.64 356.18 218.287 360.984 210.038C365.177 202.854 367.157 194.518 366.967 186.226C366.574 168.652 357.621 151.98 345.814 139.404C338.899 132.03 330.645 125.764 321.517 121.377C319.741 120.532 317.586 120.896 316.538 122.689C315.606 124.277 316.057 126.813 317.848 127.673L317.877 127.658Z" fill="#E9562A"/>
<path d="M337.574 221.755C328.839 227.657 319.872 230.965 309.827 233.967C297.641 237.61 284.918 240.088 272.397 241.691C245.974 245.072 218.197 245.582 192.168 241.006C185.791 239.884 179.458 238.426 173.286 236.43C167.637 234.608 163.342 232.874 158.16 229.814C154.113 227.438 150.444 233.734 154.491 236.109C164.027 241.72 174.887 244.955 185.66 247.156C198.821 249.851 212.287 251.061 225.709 251.396C253.079 252.081 281.103 249.429 307.555 242.201C319.231 239.009 331.154 234.856 341.258 228.05C345.115 225.442 341.476 219.132 337.589 221.755H337.574Z" fill="#E9562A"/>
<path d="M160.707 162.895C151.463 153.481 139.904 144.65 126.583 142.377C116.873 140.715 106.9 142.683 98.9371 148.643C90.9738 154.603 85.9512 162.575 83.258 171.668C80.5647 180.762 80.521 190.365 83.7093 199.036C87.2323 208.596 94.3949 216.276 103.683 220.473C116.931 226.462 131.955 226.156 146.033 223.781C154.738 222.309 163.561 218.811 169.5 211.991C174.232 206.556 176.721 199.459 176.066 192.23C174.712 177.308 162.876 164.644 148.537 161.001C144.635 160.01 140.515 159.631 136.497 159.981C131.795 160.389 127.325 161.759 122.812 163.041C115.315 165.154 107.046 169.672 105.095 177.891C102.038 190.759 115.606 203.291 128.17 200.041C131.533 199.167 134.532 197.185 136.905 194.679C140.137 191.283 134.998 186.124 131.751 189.52C131.227 190.074 130.688 190.584 130.106 191.079C129.582 191.531 130.004 191.167 130.106 191.079C129.946 191.196 129.786 191.312 129.611 191.429C129.291 191.648 128.956 191.852 128.621 192.041C128.33 192.201 128.039 192.347 127.748 192.493C126.947 192.915 128.083 192.405 127.486 192.609C126.816 192.842 126.146 193.032 125.447 193.178C125.273 193.221 125.113 193.236 124.938 193.265C124.938 193.265 125.68 193.192 125.273 193.221C124.982 193.236 124.676 193.265 124.385 193.28C123.701 193.309 123.031 193.265 122.361 193.192C123.089 193.265 122.609 193.236 122.201 193.148C121.91 193.09 121.633 193.017 121.342 192.944C121.022 192.857 120.702 192.755 120.381 192.653C120.061 192.551 119.319 192.245 120.076 192.566C118.911 192.056 117.834 191.4 116.785 190.657C116.261 190.292 117.237 191.079 116.625 190.511C116.407 190.307 116.174 190.117 115.956 189.913C115.461 189.447 115.009 188.952 114.558 188.441C114.442 188.31 114.34 188.179 114.238 188.048C114.238 188.048 114.66 188.616 114.427 188.281C114.252 188.048 114.078 187.8 113.917 187.553C113.553 186.999 113.219 186.416 112.913 185.818C112.84 185.658 112.476 184.857 112.68 185.352C112.898 185.877 112.564 185.002 112.505 184.871C112.287 184.244 112.141 183.618 111.996 182.977C111.967 182.816 111.938 182.656 111.908 182.496C111.908 182.496 111.996 183.268 111.967 182.86C111.952 182.583 111.923 182.292 111.908 182.015C111.908 181.694 111.908 181.359 111.908 181.038C111.923 180.645 112.039 179.975 111.908 180.791C112.01 180.208 112.127 179.654 112.301 179.086C112.403 178.765 112.52 178.445 112.651 178.124C112.345 178.882 112.68 178.124 112.84 177.803C113.146 177.235 113.495 176.696 113.874 176.171C113.35 176.871 114.107 175.923 114.238 175.778C114.514 175.472 114.805 175.18 115.097 174.903C115.373 174.641 115.65 174.408 115.941 174.16C116.378 173.796 115.519 174.466 115.999 174.116C116.13 174.014 116.276 173.912 116.421 173.81C117.237 173.257 118.052 172.747 118.925 172.28C122.492 170.386 127.005 169.366 131.154 168.244C134.837 167.253 137.822 166.917 141.84 167.209C142.262 167.238 142.67 167.282 143.092 167.325C143.893 167.413 143.107 167.311 143.703 167.413C144.621 167.573 145.538 167.748 146.44 167.967C147.226 168.156 147.998 168.389 148.755 168.637C149.134 168.768 149.512 168.899 149.891 169.03C150.065 169.089 151.346 169.613 150.764 169.351C152.307 170.007 153.792 170.808 155.219 171.697C155.874 172.105 156.515 172.542 157.141 172.994C157.315 173.125 157.49 173.257 157.679 173.388C157.636 173.344 157.272 173.067 157.592 173.315C157.985 173.621 158.363 173.927 158.727 174.248C159.965 175.311 161.115 176.448 162.192 177.672C162.44 177.949 162.687 178.24 162.92 178.532C163.051 178.692 163.648 179.479 163.24 178.925C163.75 179.61 164.23 180.295 164.682 181.009C165.526 182.335 166.254 183.705 166.909 185.133C167.171 185.716 166.764 184.711 167.084 185.541C167.215 185.877 167.346 186.212 167.462 186.547C167.71 187.261 167.943 187.99 168.132 188.733C168.321 189.476 168.496 190.205 168.627 190.948C168.656 191.094 168.802 192.114 168.743 191.647C168.685 191.239 168.802 192.274 168.816 192.493C168.933 193.979 168.889 195.451 168.758 196.937C168.671 197.885 168.831 196.631 168.714 197.287C168.642 197.681 168.569 198.06 168.496 198.453C168.336 199.182 168.132 199.896 167.899 200.61C167.783 200.945 167.666 201.266 167.55 201.601C167.317 202.242 167.521 201.703 167.579 201.572C167.506 201.761 167.419 201.951 167.331 202.125C166.996 202.825 166.647 203.51 166.254 204.166C165.861 204.821 165.41 205.506 164.929 206.133C165.322 205.608 164.711 206.395 164.58 206.541C164.289 206.876 163.997 207.211 163.692 207.532C163.095 208.159 162.483 208.756 161.828 209.324C161.508 209.601 161.202 209.864 160.867 210.126C160.533 210.388 160.824 210.155 160.882 210.126C160.635 210.315 160.387 210.49 160.125 210.665C156.748 213.04 153.093 214.818 149.134 215.766C141.782 217.543 134.575 218.228 126.816 218.054C125.2 218.01 123.569 217.922 121.954 217.777C121.24 217.704 120.512 217.631 119.799 217.543C119.246 217.471 120.41 217.631 119.872 217.543C119.726 217.529 119.581 217.5 119.42 217.485C118.984 217.412 118.547 217.354 118.096 217.267C115.359 216.786 112.665 216.115 110.045 215.212C109.477 215.008 108.909 214.804 108.342 214.585C107.963 214.439 107.497 214.235 108.152 214.512C107.803 214.367 107.468 214.206 107.119 214.061C106.012 213.55 104.935 212.997 103.887 212.399C102.839 211.802 101.907 211.19 100.961 210.519C100.742 210.359 100.538 210.199 100.32 210.053C99.796 209.689 100.873 210.519 100.262 210.009C99.8106 209.63 99.3447 209.266 98.908 208.873C98.0927 208.159 97.3211 207.401 96.5787 206.599C96.2438 206.235 95.909 205.856 95.5887 205.477C95.4286 205.288 95.2684 205.098 95.1228 204.909C94.4823 204.151 95.4431 205.375 94.9773 204.734C93.7835 203.073 92.6916 201.368 91.7745 199.531C91.5415 199.065 91.3523 198.599 91.1194 198.132C90.7845 197.418 91.3377 198.744 91.1194 198.147C91.032 197.885 90.9155 197.637 90.8136 197.389C90.4497 196.427 90.1294 195.466 89.8528 194.475C89.5762 193.484 89.3433 192.493 89.1394 191.502C89.0375 191.006 88.9647 190.496 88.8774 189.986C88.79 189.476 88.8192 189.432 88.8774 190.044C88.8483 189.768 88.8046 189.505 88.7755 189.228C88.5571 187.188 88.4989 185.133 88.5862 183.079C88.6299 182.044 88.7318 181.024 88.8337 180.004C88.9356 179.042 88.7464 180.485 88.8337 179.946C88.8774 179.712 88.9065 179.465 88.9356 179.231C89.023 178.721 89.1103 178.211 89.2122 177.701C89.6053 175.676 90.144 173.679 90.8282 171.726C91.0029 171.246 91.1776 170.75 91.3523 170.269C91.4396 170.051 91.527 169.817 91.6143 169.599C91.9346 168.754 91.4105 170.036 91.6434 169.526C92.0802 168.593 92.4878 167.661 92.9682 166.743C93.9145 164.935 94.9773 163.187 96.171 161.525C96.3166 161.336 96.4622 161.147 96.5932 160.957C96.1856 161.438 97.0882 160.258 96.5932 160.957C96.9426 160.549 97.2629 160.112 97.6268 159.704C98.282 158.931 98.9662 158.203 99.6796 157.489C100.393 156.775 101.135 156.104 101.907 155.463C102.198 155.215 103.348 154.37 102.416 155.026C102.853 154.72 103.275 154.385 103.712 154.093C105.372 152.942 107.133 152.009 108.953 151.15C109.637 150.829 108.851 151.193 108.924 151.15C109.142 151.062 109.361 150.975 109.579 150.887C110.089 150.698 110.598 150.508 111.108 150.348C112.083 150.027 113.088 149.765 114.092 149.547C114.573 149.445 115.053 149.357 115.533 149.27C115.708 149.241 116.523 149.124 115.883 149.211C115.242 149.299 116.29 149.168 116.451 149.153C117.528 149.036 118.605 148.993 119.697 148.978C120.789 148.964 121.939 149.036 123.06 149.138C123.322 149.168 123.599 149.197 123.861 149.226C123.904 149.226 123.162 149.109 123.933 149.226C124.559 149.328 125.185 149.43 125.797 149.561C128.286 150.071 130.688 150.844 133.061 151.762C133.192 151.805 133.309 151.864 133.44 151.907C133.92 152.097 132.843 151.645 133.323 151.849C133.615 151.98 133.906 152.111 134.197 152.243C134.881 152.549 135.551 152.869 136.221 153.219C137.531 153.889 138.826 154.603 140.078 155.361C141.418 156.177 142.743 157.037 144.024 157.955C144.65 158.407 145.276 158.859 145.887 159.325C146.368 159.689 146.732 159.966 147.576 160.666C150.371 162.954 153.021 165.416 155.539 167.996C158.829 171.348 163.968 166.189 160.693 162.837L160.707 162.895Z" fill="#E9562A"/>
<path d="M346.237 239.228C355.583 240.073 364.391 235.76 372.325 231.329C379.982 227.045 387.582 221.799 396.36 220.56C397.612 220.385 400.32 220.327 401.834 220.531C403.348 220.735 406.056 221.303 407.352 222.09C407.468 222.163 407.934 222.644 408.152 222.892C408.269 223.023 408.939 223.839 408.546 223.329C409.099 224.058 409.579 224.83 410.001 225.631C410.496 226.564 410.54 226.651 410.773 227.293C411.108 228.182 411.384 229.085 411.603 230.018C412.112 232.073 412.185 232.772 412.258 234.914C412.331 236.838 412.243 238.791 411.996 240.7C412.069 240.19 411.967 240.845 411.967 240.904C411.923 241.166 411.879 241.428 411.836 241.691C411.763 242.142 411.675 242.594 411.574 243.061C411.355 244.095 411.093 245.13 410.802 246.15C410.278 247.972 409.565 249.895 408.924 251.236C407.031 255.287 404.979 258.362 401.732 261.204C400.786 262.034 400.888 261.962 399.781 262.69C398.952 263.229 398.078 263.71 397.19 264.118C396.651 264.366 397.656 263.943 397.103 264.162C396.841 264.264 396.564 264.366 396.288 264.453C395.851 264.599 395.414 264.73 394.963 264.847C394.511 264.964 394.06 265.051 393.609 265.138C392.881 265.27 393.376 265.168 393.536 265.138C393.187 265.182 392.837 265.197 392.473 265.211C387.815 265.459 387.786 272.745 392.473 272.498C410.817 271.536 420.978 249.298 419.406 233.034C418.998 228.794 417.935 224.582 415.664 220.939C414.514 219.088 412.986 216.917 411.02 215.882C408.778 214.702 406.187 213.915 403.683 213.521C393.42 211.918 383.986 216.407 375.251 221.303C366.152 226.404 356.733 232.918 346.222 231.971C344.257 231.796 342.583 233.778 342.583 235.614C342.583 237.727 344.257 239.082 346.222 239.257L346.237 239.228Z" fill="#E9562A"/>
<path d="M118.998 263.681C99.2574 264.818 80.4337 276.622 71.6406 294.532C68.4378 301.046 66.225 308.828 68.1176 316.071C70.0101 323.313 76.2119 327.481 83.4618 328.151C88.6591 328.632 94.0456 327.452 98.9517 325.849C106.522 323.372 113.685 319.655 120.512 315.575C124.53 313.171 120.876 306.875 116.844 309.28C111.122 312.69 105.095 315.91 99.1264 318.082C96.7389 318.956 94.3077 319.699 91.8182 320.253C90.8428 320.472 89.8529 320.646 88.8629 320.792C89.8383 320.646 88.4407 320.836 88.1641 320.85C87.5964 320.909 87.0286 320.938 86.4608 320.952C85.6019 320.982 84.7575 320.952 83.8986 320.909C83.6074 320.894 82.3263 320.69 83.5201 320.894C83.0979 320.821 82.6757 320.763 82.2535 320.661C81.5256 320.501 80.8414 320.268 80.128 320.049C79.2109 319.757 80.7831 320.428 79.9388 319.976C79.6185 319.801 79.2837 319.655 78.9634 319.466C78.7013 319.32 78.4684 319.145 78.2064 318.985C77.2892 318.417 78.483 319.306 78.0462 318.869C77.6095 318.431 77.129 317.892 76.6632 317.47C76.4448 317.266 77.1436 318.227 76.6195 317.397C76.4739 317.149 76.2992 316.916 76.1537 316.683C75.9935 316.406 75.8479 316.129 75.7023 315.852C75.6296 315.721 75.5859 315.575 75.5131 315.458C75.2219 314.963 75.8043 316.391 75.5568 315.517C75.3966 314.948 75.1783 314.38 75.0472 313.797C74.9744 313.491 74.9162 313.2 74.858 312.894C74.625 311.742 74.858 313.447 74.8143 312.558C74.727 311.072 74.7124 309.629 74.8434 308.157C74.858 307.953 74.9016 307.735 74.9162 307.531C74.8143 308.595 74.8434 308.012 74.8871 307.749C74.9599 307.356 75.0181 306.963 75.0909 306.569C75.251 305.753 75.4403 304.951 75.6732 304.15C75.9062 303.348 76.1391 302.576 76.4157 301.804C76.5613 301.381 76.7214 300.973 76.8816 300.565C76.9398 300.419 76.998 300.259 77.0563 300.113C77.2892 299.53 76.736 300.798 77.1727 299.851C78.745 296.383 80.6812 293.133 82.996 290.102C82.4428 290.83 83.4764 289.504 83.6511 289.3C83.9568 288.936 84.2625 288.572 84.5683 288.222C85.2671 287.42 85.9804 286.648 86.7083 285.89C88.2224 284.345 89.8238 282.888 91.5125 281.518C91.7018 281.358 91.9056 281.212 92.0948 281.052C92.2986 280.892 92.255 280.935 91.9492 281.154C92.1094 281.037 92.2695 280.906 92.4297 280.79C92.9246 280.425 93.4196 280.076 93.9146 279.726C94.9337 279.026 95.9673 278.356 97.03 277.729C98.151 277.059 99.3011 276.432 100.466 275.849C101.077 275.543 101.703 275.252 102.329 274.961C102.518 274.873 102.722 274.786 102.912 274.698C103.305 274.538 103.305 274.523 102.926 274.698C103.13 274.611 103.319 274.538 103.523 274.45C105.983 273.503 108.487 272.687 111.05 272.104C112.374 271.798 113.714 271.55 115.053 271.346C116.174 271.172 114.325 271.419 115.461 271.288C115.81 271.244 116.159 271.201 116.494 271.172C117.31 271.084 118.139 271.026 118.955 270.982C123.613 270.72 123.642 263.433 118.955 263.696L118.998 263.681Z" fill="#E9562A"/>
<path d="M118.183 248.744C116.451 255.797 117.906 262.748 122.39 268.446C126.598 273.795 132.683 277.292 139.001 279.551V272.527C130.354 275.033 124.341 282.874 123.249 291.676C122.157 300.478 127.107 308.711 135.798 311.538L136.759 304.383C130.048 304.485 122.9 305.928 118.241 311.174C116.727 312.879 115.548 314.788 114.412 316.741C113.961 317.513 113.481 318.271 113 319.029C112.884 319.204 112.374 319.83 113.015 319.029C112.869 319.204 112.738 319.393 112.578 319.553C112.36 319.772 111.297 320.705 112.171 320.034C110.613 321.229 109.783 323.167 110.86 325.018C111.763 326.548 114.267 327.539 115.839 326.33C117.601 324.975 118.896 323.386 120.061 321.477C120.527 320.719 120.949 319.932 121.415 319.175C121.662 318.752 121.924 318.329 122.187 317.921C122.318 317.732 122.434 317.542 122.565 317.353C122.623 317.265 123.162 316.522 122.856 316.93C122.55 317.338 123.031 316.712 123.104 316.624C123.293 316.406 123.482 316.187 123.686 315.969C124.035 315.604 124.399 315.254 124.763 314.919C124.822 314.861 125.622 314.263 125.011 314.701C125.229 314.54 125.462 314.38 125.695 314.234C126.234 313.885 126.801 313.579 127.384 313.287C127.69 313.141 127.966 313.025 128.679 312.792C129.524 312.515 130.368 312.296 131.242 312.121C133.061 311.757 134.91 311.67 136.759 311.64C140.923 311.568 141.607 305.753 137.72 304.485C134.75 303.523 132.858 301.935 131.431 299.326C131.358 299.195 130.98 298.292 131.242 298.947C131.111 298.627 131.009 298.306 130.907 297.971C130.79 297.592 130.688 297.199 130.601 296.805C130.572 296.659 130.368 295.479 130.47 296.237C130.383 295.537 130.354 294.838 130.354 294.138C130.354 293.657 130.383 293.191 130.412 292.725C130.412 292.579 130.572 291.574 130.456 292.273C130.587 291.501 130.761 290.728 130.965 289.985C131.082 289.577 131.213 289.169 131.358 288.776C131.358 288.776 131.78 287.726 131.533 288.28C131.868 287.493 132.275 286.721 132.727 285.992C132.916 285.672 133.12 285.366 133.324 285.059C133.324 285.059 133.979 284.156 133.629 284.608C135.696 281.97 138.084 280.367 140.937 279.536C144.548 278.487 144.228 273.693 140.937 272.512C131.635 269.175 122.55 261.481 125.215 250.668C126.336 246.121 119.319 244.168 118.198 248.729L118.183 248.744Z" fill="#E9562A"/>
<path d="M332.552 239.476C338.943 237.246 345.421 238.893 350.327 243.41C355.234 247.928 358.145 254.442 357.636 261.277C357.49 263.244 359.412 264.92 361.275 264.92C363.372 264.92 364.769 263.244 364.915 261.277C366.225 243.541 348.406 226.244 330.616 232.466C328.767 233.107 327.529 234.958 328.068 236.955C328.563 238.762 330.674 240.146 332.552 239.505V239.476Z" fill="#E9562A"/>
<path d="M365.41 263.71C371.364 265.43 377.828 267.324 383.083 269.743C386.097 271.128 389.081 272.716 391.702 274.771C391.338 274.494 392.037 275.048 392.124 275.135C392.401 275.368 392.677 275.616 392.954 275.864C393.536 276.389 394.089 276.942 394.599 277.525C394.832 277.788 395.065 278.064 395.283 278.341C395.545 278.662 395.283 278.356 395.254 278.298C395.356 278.443 395.458 278.575 395.56 278.72C395.982 279.347 396.375 279.974 396.724 280.644C396.826 280.848 397.19 281.649 397.117 281.46C397.059 281.314 397.394 282.276 397.467 282.495C397.583 282.888 397.685 283.282 397.772 283.69C397.816 283.864 397.845 284.039 397.874 284.214C397.991 284.812 397.831 283.704 397.903 284.316C398.136 286.313 397.991 287.741 397.627 289.417C396.622 293.993 403.639 295.945 404.644 291.355C406.347 283.602 404.032 276.214 398.224 270.807C392.415 265.401 385.456 262.544 378.396 260.082C374.756 258.814 371.044 257.735 367.331 256.657C362.818 255.36 360.897 262.384 365.395 263.681L365.41 263.71Z" fill="#E9562A"/>
<path d="M491.512 192.245C507.395 192.245 523.264 182.816 531.285 169.147C535.289 162.327 537.341 154.035 535.944 146.151C534.968 140.657 531.766 135.6 527.806 131.768C523.846 127.935 519.479 125.297 514.864 122.835C510.875 120.692 506.682 118.856 502.911 116.32C502.591 116.102 502.271 115.869 501.951 115.636C501.295 115.169 502.577 116.175 501.98 115.65C501.819 115.504 501.645 115.373 501.485 115.228C501.223 114.994 500.975 114.761 500.742 114.513C500.611 114.382 500.495 114.193 500.349 114.076C499.941 113.712 500.757 114.849 500.349 114.076C500.247 113.872 500.058 113.479 499.898 113.304C499.519 112.881 500 114.091 500 113.537C500 113.377 499.854 113.216 499.854 113.042C499.84 112.123 500.014 113.887 499.854 112.983C499.825 112.808 499.898 112.619 499.854 112.444C499.752 111.992 499.578 113.333 499.854 112.488C499.956 112.182 500.072 111.832 500.145 111.526C499.869 112.59 500.262 111.307 500.466 110.958C500.684 110.579 500.931 110.229 501.164 109.865C501.688 109.092 500.669 110.448 501.295 109.69C501.557 109.369 501.834 109.049 502.111 108.743C505.008 105.537 508.254 102.607 511.253 99.4888C520.716 89.6667 530.397 79.2326 537.152 67.2974C540.282 61.7889 544.082 53.803 540.646 47.5512C537.822 42.4216 531.387 41.5035 526.088 41.9844C518.037 42.7276 510.307 45.6422 503.013 48.9939C494.22 53.0452 485.893 58.1311 478.163 63.9602C469.952 70.1537 462.265 77.1195 455.903 85.2366C454.287 87.2914 452.729 89.4044 451.303 91.5903C448.726 95.525 455.03 99.1682 457.592 95.2627C460.343 91.0657 462.542 88.326 466.079 84.4788C469.442 80.8356 473.067 77.4255 476.852 74.2341C477.697 73.52 478.556 72.8205 479.429 72.121C480.783 71.0426 480.768 71.0426 482.108 70.0517C484.044 68.609 486.009 67.1954 488.018 65.8547C491.978 63.1879 496.069 60.7251 500.276 58.4808C502.213 57.4462 504.178 56.4698 506.172 55.5371C507.133 55.0854 508.094 54.6628 509.055 54.2401C510.016 53.8175 508.764 54.3567 509.739 53.9487C510.336 53.7009 510.918 53.4678 511.515 53.2346C514.907 51.9085 518.372 50.7718 521.939 49.9703C522.71 49.7954 523.497 49.6351 524.283 49.504C524.618 49.4457 524.967 49.402 525.302 49.3437C526.059 49.2125 524.385 49.4311 525.127 49.3728C525.36 49.3582 525.578 49.3145 525.811 49.2999C527.151 49.1688 528.505 49.1105 529.858 49.1834C530.135 49.1979 530.397 49.2416 530.674 49.2562C531.576 49.2999 529.727 49.0376 530.703 49.2562C531.242 49.3728 531.795 49.4748 532.319 49.6497C532.537 49.7226 532.799 49.8829 533.018 49.8974C532.537 49.8537 532.29 49.504 532.916 49.8829C533.09 49.9849 533.28 50.1014 533.469 50.1889C534.342 50.6552 533.251 49.8829 533.469 50.1597C533.687 50.4366 534.051 50.8301 534.342 51.0487C533.571 50.4366 533.891 50.5095 534.211 50.9467C534.503 51.3547 534.517 52.0834 534.255 50.8884C534.342 51.311 534.503 51.7773 534.634 52.1854C534.925 53.0597 534.634 51.2818 534.634 52.1125C534.634 52.404 534.677 52.6954 534.677 53.0014C534.677 53.3075 534.648 53.5698 534.648 53.8612C534.648 53.9924 534.604 54.1381 534.619 54.2693C534.634 54.9251 534.837 53.322 534.663 53.9778C534.488 54.6336 534.415 55.3185 534.241 55.9743C534.037 56.7175 533.804 57.4462 533.527 58.1748C533.454 58.3788 532.989 59.5301 533.207 59.0346C533.454 58.4517 533.134 59.1949 533.105 59.2678C532.959 59.5738 532.828 59.8798 532.683 60.1859C527.704 70.7366 519.886 79.4803 512.083 88.0054C509.142 91.2115 506.143 94.3592 503.086 97.4486C500.422 100.145 497.51 102.68 495.239 105.726C492.793 109.005 491.672 113.158 493.638 116.962C495.385 120.343 498.922 122.529 502.125 124.336C506.1 126.565 510.249 128.474 514.208 130.762C518.678 133.356 521.852 135.498 525.127 139.564C525.811 140.409 524.734 138.996 525.36 139.87C525.52 140.089 525.68 140.322 525.826 140.555C526.161 141.065 526.496 141.575 526.787 142.114C527.573 143.499 527.762 143.965 528.155 145.131C529.16 148.104 529.334 151.193 528.898 154.501C527.049 168.462 514.558 179.581 501.572 183.428C498.267 184.405 494.963 184.915 491.512 184.915C486.825 184.915 486.825 192.201 491.512 192.201V192.245Z" fill="#E9562A"/>
<path d="M452.176 89.113C437.895 90.9346 425.418 98.8039 418.023 111.264C411.122 122.878 409.157 137.407 413.015 150.377C415.301 158.072 419.61 165.052 425.375 170.633C428.752 173.883 433.906 168.739 430.528 165.475C421.677 156.935 417.557 145.379 418.474 133.254C418.867 128.081 420.556 122.048 422.973 117.341C425.753 111.934 429.204 107.577 434.081 103.802C438.958 100.028 445.756 97.1863 452.176 96.3702C454.127 96.1225 455.816 94.8692 455.816 92.727C455.816 90.9491 454.142 88.8361 452.176 89.0838V89.113Z" fill="#E9562A"/>
<path d="M428.126 163.915C420.483 165.635 410.409 169.934 412.243 179.537C412.927 183.137 415.257 186.299 417.644 188.966C420.629 192.274 424.181 195.058 427.791 197.637C435.944 203.452 444.955 208.115 454.229 211.889C457.985 213.419 461.828 214.804 465.788 215.693C467.404 216.057 469.064 216.334 470.723 216.45C471.058 216.465 471.378 216.465 471.713 216.48C471.917 216.48 472.194 216.523 471.407 216.436C471.757 216.48 472.106 216.567 472.441 216.611C473.999 216.844 475.542 216.859 477.071 216.465C489.358 213.215 485.66 191.764 473.431 191.443C468.743 191.327 468.743 198.613 473.431 198.73C474.508 198.759 473.111 198.555 474.115 198.817C475.12 199.08 473.795 198.599 474.712 199.065C474.872 199.138 475.018 199.255 475.163 199.342C474.523 198.934 474.887 199.109 475.047 199.255C475.28 199.473 476.212 200.61 475.731 199.925C475.964 200.275 476.183 200.624 476.386 200.989C476.503 201.193 476.605 201.411 476.692 201.63C476.634 201.513 476.43 200.916 476.648 201.557C476.809 202.023 476.954 202.475 477.071 202.941C477.143 203.247 477.304 204.588 477.231 203.699C477.274 204.18 477.303 204.661 477.303 205.157C477.303 205.419 477.143 206.891 477.303 205.9C477.245 206.264 477.173 206.628 477.071 206.993C476.998 207.255 476.91 207.517 476.823 207.78C476.59 208.479 477.172 207.211 476.765 207.882C476.648 208.071 476.066 208.989 476.357 208.61C476.648 208.231 475.92 209.033 475.789 209.164C476.445 208.537 475.542 209.281 475.251 209.426C476.037 209.033 474.931 209.47 474.581 209.543C475.484 209.383 473.999 209.499 473.722 209.485C474.45 209.528 472.718 209.281 472.47 209.251C471.771 209.164 471.058 209.193 470.345 209.135C470.155 209.12 469.195 209.004 469.908 209.091C470.621 209.179 469.573 209.033 469.398 209.004C468.671 208.887 467.957 208.727 467.244 208.552C463.75 207.736 460.343 206.526 457.009 205.2C456.514 205.011 456.034 204.807 455.554 204.603C455.35 204.515 455.161 204.442 454.957 204.355C455.612 204.632 454.957 204.355 454.782 204.282C453.719 203.816 452.657 203.35 451.608 202.869C449.643 201.965 447.692 201.003 445.771 200.012C441.796 197.943 437.909 195.699 434.168 193.221C430.426 190.744 428.272 189.185 425.04 186.139C423.759 184.929 422.565 183.647 421.458 182.277C421.953 182.889 421.531 182.379 421.313 182.059C421.094 181.738 420.876 181.432 420.672 181.111C420.294 180.514 420.017 179.858 419.653 179.246C419.289 178.634 419.901 179.916 419.755 179.479C419.682 179.261 419.595 179.057 419.522 178.838C419.435 178.547 419.362 178.24 419.275 177.949C418.984 176.871 419.202 178.357 419.246 177.774C419.26 177.483 419.246 177.133 419.246 176.827C419.202 175.982 418.94 177.643 419.289 176.71C419.435 176.317 419.857 175.559 419.289 176.535C419.435 176.288 419.566 176.011 419.697 175.749C420.206 174.801 419.333 175.996 419.901 175.428C420.134 175.195 420.367 174.947 420.614 174.714C420.774 174.568 420.934 174.437 421.094 174.291C420.716 174.612 420.629 174.597 421.08 174.32C421.881 173.825 422.667 173.359 423.511 172.936C423.686 172.849 423.861 172.776 424.021 172.703C423.205 173.067 424.137 172.659 424.254 172.615C424.807 172.411 425.36 172.207 425.928 172.018C427.267 171.581 428.636 171.231 430.019 170.925C434.59 169.905 432.654 162.881 428.082 163.901L428.126 163.915Z" fill="#E9562A"/>
<path d="M440.297 125.807C443.47 125.531 446.105 125.647 448.711 126.23C451.739 126.9 453.268 127.498 455.801 128.984C456.369 129.319 456.937 129.684 457.49 130.048C457.767 130.238 458.029 130.427 458.305 130.631C459.179 131.272 457.781 130.179 458.611 130.864C459.63 131.695 460.591 132.584 461.493 133.546C461.945 134.026 462.367 134.522 462.789 135.017C462.847 135.076 463.502 135.921 463.022 135.294C463.153 135.469 463.284 135.644 463.415 135.819C464.23 136.97 464.987 138.136 465.672 139.375C465.948 139.899 466.225 140.424 466.472 140.949C466.589 141.196 466.705 141.43 466.807 141.677C467.244 142.639 466.545 141.007 466.938 141.983C467.448 143.266 467.884 144.577 468.234 145.918C468.525 147.04 468.758 148.177 468.933 149.313C468.802 148.483 469.02 150.232 469.049 150.508C469.093 151.12 469.122 151.747 469.136 152.359C469.151 153.583 469.093 154.793 468.947 156.017C469.049 155.128 468.802 156.848 468.743 157.124C468.627 157.707 468.481 158.29 468.321 158.859C468.161 159.427 467.986 159.995 467.783 160.549C467.681 160.826 467.579 161.103 467.462 161.38C467.797 160.549 467.419 161.467 467.346 161.584C466.807 162.648 466.225 163.653 465.57 164.629C465.497 164.731 464.9 165.518 465.424 164.848C465.177 165.154 464.915 165.46 464.653 165.766C464.245 166.218 463.823 166.641 463.386 167.063C463.168 167.267 462.935 167.471 462.702 167.675C462.542 167.806 462.381 167.938 462.221 168.069C462.445 167.904 462.445 167.904 462.221 168.069C461.624 168.506 460.998 168.914 460.358 169.278C457.781 170.779 455.263 171.522 451.827 172.032C449.876 172.324 448.813 174.787 449.279 176.521C449.847 178.605 451.798 179.348 453.763 179.071C459.863 178.168 465.89 175.443 469.995 170.721C473.868 166.262 475.891 160.709 476.328 154.837C477.216 142.901 471.145 130.791 461.435 123.971C455.321 119.672 447.692 117.894 440.297 118.536C438.331 118.71 436.657 120.095 436.657 122.179C436.657 124.015 438.331 125.997 440.297 125.822V125.807Z" fill="#E9562A"/>
<path d="M428.738 195.903C425.331 199.706 422.521 204.02 419.449 208.071C419.275 208.304 419.027 208.625 419.347 208.217C419.158 208.465 418.954 208.712 418.765 208.96C418.387 209.441 417.994 209.922 417.586 210.403C416.814 211.306 416.028 212.195 415.184 213.026C414.791 213.419 414.369 213.813 413.946 214.177C413.743 214.352 413.524 214.527 413.32 214.702C412.753 215.183 413.874 214.337 413.219 214.775C412.825 215.037 412.447 215.314 412.039 215.547C411.821 215.678 411.603 215.795 411.384 215.911C411.18 216.013 410.292 216.407 411.253 215.999C409.506 216.727 408.05 218.447 408.705 220.487C409.244 222.163 411.297 223.824 413.189 223.037C417.979 221.026 421.458 217.281 424.588 213.244C426.321 211.015 427.951 208.741 429.626 206.468C430.004 205.958 430.368 205.448 430.747 204.953C430.936 204.705 431.125 204.457 431.3 204.209C431.46 204.005 431.868 203.481 431.474 203.976C432.246 202.985 433.047 202.009 433.891 201.062C435.158 199.648 435.391 197.287 433.891 195.903C432.508 194.635 430.106 194.387 428.738 195.903Z" fill="#E9562A"/>
<path d="M247.052 176.769C250.139 176.769 252.642 174.263 252.642 171.173C252.642 168.082 250.139 165.577 247.052 165.577C243.964 165.577 241.461 168.082 241.461 171.173C241.461 174.263 243.964 176.769 247.052 176.769Z" fill="#E9562A"/>
<path d="M289.532 170.357C292.62 170.357 295.123 167.851 295.123 164.761C295.123 161.67 292.62 159.165 289.532 159.165C286.445 159.165 283.942 161.67 283.942 164.761C283.942 167.851 286.445 170.357 289.532 170.357Z" fill="#E9562A"/>
<path d="M363.502 195.961C373.392 195.961 381.409 192.157 381.409 187.465C381.409 182.773 373.392 178.969 363.502 178.969C353.613 178.969 345.596 182.773 345.596 187.465C345.596 192.157 353.613 195.961 363.502 195.961Z" fill="#E9562A"/>
</g>
<defs>
<clipPath id="clip0_38_1380">
<rect width="542" height="443" fill="white"/>
</clipPath>
</defs>
</svg>
