<svg width="169" height="73" viewBox="0 0 169 73" fill="none" xmlns="http://www.w3.org/2000/svg">
<path d="M153.925 30.8524C153.907 30.7259 153.895 30.6054 153.889 30.4789C153.871 29.4971 154.365 28.4551 154.238 27.5034C154.106 26.5337 153.684 25.57 153.437 24.6424C153.371 24.3955 153.305 24.1485 153.232 23.9015C154.564 23.3896 155.648 22.2873 156.075 20.8116C156.792 18.312 155.347 15.71 152.847 14.9932C151.118 14.4993 149.341 15.0354 148.173 16.24C148.028 15.6618 147.908 15.0715 147.534 14.6619C146.878 13.9452 146.282 13.1622 145.547 12.5357C144.812 11.9093 144.125 11.1685 143.318 10.6264C142.517 10.0903 141.391 10.0903 140.523 9.65061C139.662 9.21694 138.969 8.37971 138.054 8.04843C137.15 7.72318 135.964 8.45801 135.012 8.24118C134.573 8.13878 134.169 7.90388 133.765 7.67499C134.012 7.24734 134.217 6.72332 134.338 6.14509C134.687 4.47063 134.235 2.95882 133.338 2.7721C132.434 2.58538 131.422 3.79003 131.079 5.46448C130.989 5.89213 130.953 6.30772 130.965 6.69923C130.459 6.50649 129.947 6.31976 129.435 6.33181C128.453 6.34988 127.549 7.30759 126.598 7.4401C125.628 7.57261 124.719 7.74125 123.791 7.98218C122.845 8.22913 121.96 8.5062 121.068 8.86157C120.165 9.22296 119.243 9.46991 118.4 9.9337C117.551 10.3975 116.449 10.4939 115.666 11.054C115.623 11.0841 115.581 11.1203 115.539 11.1564C110.751 7.74727 105.589 4.40439 104.565 5.04285C103.475 5.72347 109.058 9.75301 114.322 13.2525C114.232 13.385 114.136 13.5115 114.021 13.6139C113.305 14.2704 112.263 14.5475 111.636 15.2823C111.443 15.5052 111.184 15.6859 110.901 15.8485C110.594 15.71 110.281 15.5835 109.95 15.4871C106.45 14.4873 102.8 16.505 101.8 20.0045C100.794 23.504 102.824 27.1541 106.318 28.1539C106.42 28.1841 106.522 28.2021 106.625 28.2262C106.619 28.2985 106.613 28.3708 106.601 28.4431C106.504 29.3947 105.992 30.2922 106.004 31.274C106.022 32.1955 105.83 33.111 105.914 34.0085C99.2283 35.4481 92.4883 37.2309 92.2293 38.5982C91.9703 39.9956 98.8548 38.6765 105.697 37.0382C105.709 37.1105 105.715 37.1767 105.727 37.249C105.974 38.1947 107.161 38.8813 107.516 39.7727C107.878 40.6762 107.739 41.8507 108.203 42.7C108.667 43.5493 110.052 43.8444 110.612 44.6274C110.943 45.0912 111.323 45.4827 111.714 45.8682C111.431 46.0429 111.148 46.2356 110.871 46.4525C108.823 48.0426 104.649 46.0429 104.3 51.1265C103.95 56.2101 110.413 55.5174 111.365 51.2831C111.72 49.711 112.353 48.3558 113.009 47.2777C113.443 47.8438 113.835 48.4401 114.389 48.91C114.485 48.9883 114.569 49.0846 114.648 49.187C114.334 49.5785 114.057 50.0785 113.853 50.6446C113.274 52.2528 113.503 53.8129 114.371 54.1261C115.232 54.4332 116.394 53.3972 116.979 51.8071C117.653 51.9396 118.418 51.9276 119.009 52.1926C116.527 58.4266 113.329 67.1603 114.407 68.1782C115.515 69.2263 118.804 59.9505 120.954 53.3671C121.171 53.4876 121.394 53.596 121.623 53.6743C122.526 53.9996 123.586 53.8249 124.532 54.0417C125.345 54.2285 126.056 55.2223 126.869 55.5536C127.369 58.5471 129.603 61.0949 132.747 61.8358C136.916 62.8176 141.096 60.2336 142.077 56.0655C142.439 54.5356 142.318 52.9997 141.812 51.6264C142.541 51.3132 143.336 51.0904 143.975 50.6386C144.692 50.1267 145.306 49.4581 145.95 48.8437C146.884 50.3495 148.173 52.0601 149.107 52.5239C150.197 53.066 150.974 52.2709 151.112 51.3012C151.197 51.3855 151.281 51.4638 151.371 51.5361C152.004 52.0601 152.961 52.3312 153.75 52.4637C154.63 52.6082 155.461 52.4878 156.13 51.8794C156.876 51.1988 156.569 49.964 156.214 49.181C155.292 47.1391 153.124 46.9644 151.233 46.4043C150.486 46.1875 149.48 45.808 148.595 45.29C148.739 44.7419 148.842 44.1637 149.143 43.7179C149.679 42.9169 150.889 42.5555 151.329 41.6881C151.763 40.8268 152.196 39.9534 152.528 39.0379C152.853 38.1344 152.624 37.0803 152.841 36.1287C152.913 35.8034 153.124 35.4962 153.365 35.1891C155.955 35.7251 158.955 35.9179 161.671 35.0806C166.851 33.4785 161.412 30.1416 153.931 30.8343L153.925 30.8524Z" fill="#F5CD53"/>
<path d="M167.604 31.4848C166.893 31.28 166.152 31.6896 165.947 32.4003C165.743 33.1111 166.152 33.8519 166.863 34.0567C167.574 34.2615 168.315 33.8459 168.519 33.1412C168.724 32.4305 168.315 31.6896 167.604 31.4848Z" fill="#F5CD53"/>
<path d="M88.0371 37.9056C87.1879 37.6646 86.3024 38.1525 86.0615 39.0018C85.8206 39.8511 86.3085 40.7304 87.1577 40.9774C88.007 41.2183 88.8864 40.7304 89.1334 39.8812C89.3743 39.0319 88.8864 38.1465 88.0371 37.9056Z" fill="#F5CD53"/>
<path d="M113.425 70.1599C113.052 70.0274 112.546 70.4791 112.293 71.1718C112.04 71.8645 112.142 72.5391 112.515 72.6776C112.889 72.8101 113.395 72.3584 113.648 71.6657C113.901 70.967 113.798 70.2984 113.425 70.1599Z" fill="#F5CD53"/>
<path d="M141.192 6.77153C143.029 7.29555 144.938 6.23546 145.469 4.40441C145.993 2.57335 144.932 0.657965 143.101 0.133945C141.264 -0.390075 139.355 0.670007 138.831 2.50107C138.307 4.33212 139.367 6.24751 141.198 6.77153H141.192Z" fill="#F5CD53"/>
<path d="M101.403 3.42263C102.011 3.84426 102.686 3.91653 102.915 3.59128C103.143 3.26603 102.83 2.65769 102.222 2.24208C101.614 1.82046 100.939 1.74818 100.71 2.07343C100.487 2.39869 100.794 3.00703 101.403 3.42263Z" fill="#F5CD53"/>
<g clip-path="url(#clip0_14_937)">
<path d="M5.67432 51.8066L5.66846 52.8066L1.63818 52.7842L1.64404 51.7842L5.67432 51.8066ZM5.71338 48.1377L5.70752 49.1377L1.67822 49.1152L1.68115 48.6152L1.68311 48.1152L5.71338 48.1377ZM5.76123 44.4688L5.75537 45.4688L1.7251 45.4463L1.73096 44.4463L5.76123 44.4688ZM5.81006 40.7998L5.8042 41.7998L1.77393 41.7773L1.77979 40.7773L5.81006 40.7998ZM5.85889 37.1318L5.85303 38.1318L1.82275 38.1084L1.82861 37.1084L5.85889 37.1318ZM5.896 33.4648L5.89014 34.4648L1.86963 34.4395L1.87256 33.9395L1.87646 33.4395L5.896 33.4648ZM5.9458 29.7959L5.93994 30.7959L1.90967 30.7725L1.91553 29.7725L5.9458 29.7959ZM5.99561 26.127L5.98779 27.127L1.95557 27.0947L1.96338 26.0947L5.99561 26.127ZM6.0415 22.4482L6.03564 23.4482L2.00635 23.4258L2.00928 22.9258L2.01123 22.4258L6.0415 22.4482ZM6.09131 18.7803L6.08545 19.7803L2.05518 19.7568L2.06104 18.7568L6.09131 18.7803ZM6.12842 15.1104L6.12256 16.1104L2.09229 16.0879L2.09814 15.0879L6.12842 15.1104Z" fill="#E9562A"/>
<path d="M108.293 11L122.068 21.3516L122.059 22.1133L122.043 23.2305L132.694 23.4082C135.492 23.4548 137.726 25.7645 137.68 28.5625L137.559 35.7812C137.512 38.5791 135.203 40.8122 132.405 40.7656L121.805 40.5889L121.761 43.8291L107.614 53.3779L107.239 53.6318L0 54.4102V11H108.293ZM3 51.3877L8.77832 51.3457V14H3V51.3877ZM11.7783 51.3242L105.313 50.6445L106.254 14H11.7783V51.3242ZM108.35 49.2617L118.782 42.2188L119.048 22.834L109.217 15.4473L108.35 49.2617ZM122.166 37.5938L132.455 37.7666C133.596 37.7856 134.54 36.8727 134.56 35.7314L134.68 28.5117C134.699 27.3705 133.786 26.4273 132.645 26.4082L122.355 26.2354L122.166 37.5938Z" fill="#E9562A"/>
</g>
<g clip-path="url(#clip1_14_937)">
<path d="M-5.0061 51.8066L-5.01196 52.8066L-9.04224 52.7842L-9.03638 51.7842L-5.0061 51.8066ZM-4.96704 48.1377L-4.9729 49.1377L-9.0022 49.1152L-8.99927 48.6152L-8.99731 48.1152L-4.96704 48.1377ZM-4.91919 44.4688L-4.92505 45.4688L-8.95532 45.4463L-8.94946 44.4463L-4.91919 44.4688ZM-4.87036 40.7998L-4.87622 41.7998L-8.90649 41.7773L-8.90063 40.7773L-4.87036 40.7998ZM-4.82153 37.1318L-4.82739 38.1318L-8.85767 38.1084L-8.85181 37.1084L-4.82153 37.1318ZM-4.78442 33.4648L-4.79028 34.4648L-8.81079 34.4395L-8.80786 33.9395L-8.80396 33.4395L-4.78442 33.4648ZM-4.73462 29.7959L-4.74048 30.7959L-8.77075 30.7725L-8.76489 29.7725L-4.73462 29.7959ZM-4.68481 26.127L-4.69263 27.127L-8.72485 27.0947L-8.71704 26.0947L-4.68481 26.127ZM-4.63892 22.4482L-4.64478 23.4482L-8.67407 23.4258L-8.67114 22.9258L-8.66919 22.4258L-4.63892 22.4482ZM-4.58911 18.7803L-4.59497 19.7803L-8.62524 19.7568L-8.61938 18.7568L-4.58911 18.7803ZM-4.552 15.1104L-4.55786 16.1104L-8.58813 16.0879L-8.58228 15.0879L-4.552 15.1104Z" fill="#E9562A"/>
<path d="M97.6125 11L111.388 21.3516L111.378 22.1133L111.363 23.2305L122.014 23.4082C124.812 23.4548 127.046 25.7645 126.999 28.5625L126.878 35.7812C126.831 38.5791 124.523 40.8122 121.725 40.7656L111.124 40.5889L111.08 43.8291L96.9338 53.3779L96.5588 53.6318L-10.6804 54.4102V11H97.6125ZM-7.68042 51.3877L-1.9021 51.3457V14H-7.68042V51.3877ZM1.0979 51.3242L94.6331 50.6445L95.5735 14H1.0979V51.3242ZM97.6692 49.2617L108.102 42.2188L108.367 22.834L98.5364 15.4473L97.6692 49.2617ZM111.486 37.5938L121.775 37.7666C122.916 37.7856 123.86 36.8727 123.879 35.7314L123.999 28.5117C124.018 27.3705 123.105 26.4273 121.964 26.4082L111.675 26.2354L111.486 37.5938Z" fill="#E9562A"/>
</g>
<g clip-path="url(#clip2_14_937)">
<path d="M-8.66577 51.8066L-8.67163 52.8066L-12.7019 52.7842L-12.696 51.7842L-8.66577 51.8066ZM-8.62671 48.1377L-8.63257 49.1377L-12.6619 49.1152L-12.6589 48.6152L-12.657 48.1152L-8.62671 48.1377ZM-8.57886 44.4688L-8.58472 45.4688L-12.615 45.4463L-12.6091 44.4463L-8.57886 44.4688ZM-8.53003 40.7998L-8.53589 41.7998L-12.5662 41.7773L-12.5603 40.7773L-8.53003 40.7998ZM-8.4812 37.1318L-8.48706 38.1318L-12.5173 38.1084L-12.5115 37.1084L-8.4812 37.1318ZM-8.44409 33.4648L-8.44995 34.4648L-12.4705 34.4395L-12.4675 33.9395L-12.4636 33.4395L-8.44409 33.4648ZM-8.39429 29.7959L-8.40015 30.7959L-12.4304 30.7725L-12.4246 29.7725L-8.39429 29.7959ZM-8.34448 26.127L-8.35229 27.127L-12.3845 27.0947L-12.3767 26.0947L-8.34448 26.127ZM-8.29858 22.4482L-8.30444 23.4482L-12.3337 23.4258L-12.3308 22.9258L-12.3289 22.4258L-8.29858 22.4482ZM-8.24878 18.7803L-8.25464 19.7803L-12.2849 19.7568L-12.2791 18.7568L-8.24878 18.7803ZM-8.21167 15.1104L-8.21753 16.1104L-12.2478 16.0879L-12.2419 15.0879L-8.21167 15.1104Z" fill="#E9562A"/>
<path d="M93.9529 11L107.728 21.3516L107.719 22.1133L107.703 23.2305L118.354 23.4082C121.152 23.4548 123.386 25.7645 123.34 28.5625L123.219 35.7812C123.172 38.5791 120.863 40.8122 118.065 40.7656L107.465 40.5889L107.421 43.8291L93.2742 53.3779L92.8992 53.6318L-14.3401 54.4102V11H93.9529ZM-11.3401 51.3877L-5.56177 51.3457V14H-11.3401V51.3877ZM-2.56177 51.3242L90.9734 50.6445L91.9138 14H-2.56177V51.3242ZM94.0095 49.2617L104.442 42.2188L104.708 22.834L94.8767 15.4473L94.0095 49.2617ZM107.826 37.5938L118.115 37.7666C119.256 37.7856 120.2 36.8727 120.219 35.7314L120.34 28.5117C120.358 27.3705 119.446 26.4273 118.304 26.4082L108.015 26.2354L107.826 37.5938Z" fill="#E9562A"/>
</g>
<defs>
<clipPath id="clip0_14_937">
<rect width="27" height="43.4102" fill="white" transform="translate(0 11)"/>
</clipPath>
<clipPath id="clip1_14_937">
<rect width="45" height="43.4102" fill="white" transform="translate(82 11)"/>
</clipPath>
<clipPath id="clip2_14_937">
<rect width="55" height="43.4102" fill="white" transform="translate(27 11)"/>
</clipPath>
</defs>
</svg>
