<svg width="127" height="44" viewBox="0 0 127 44" fill="none" xmlns="http://www.w3.org/2000/svg">
<g clip-path="url(#clip0_14_938)">
<path d="M5.67432 40.8066L5.66846 41.8066L1.63818 41.7842L1.64404 40.7842L5.67432 40.8066ZM5.71338 37.1377L5.70752 38.1377L1.67822 38.1152L1.68115 37.6152L1.68311 37.1152L5.71338 37.1377ZM5.76123 33.4688L5.75537 34.4688L1.7251 34.4463L1.73096 33.4463L5.76123 33.4688ZM5.81006 29.7998L5.8042 30.7998L1.77393 30.7773L1.77979 29.7773L5.81006 29.7998ZM5.85889 26.1318L5.85303 27.1318L1.82275 27.1084L1.82861 26.1084L5.85889 26.1318ZM5.896 22.4648L5.89014 23.4648L1.86963 23.4395L1.87256 22.9395L1.87646 22.4395L5.896 22.4648ZM5.9458 18.7959L5.93994 19.7959L1.90967 19.7725L1.91553 18.7725L5.9458 18.7959ZM5.99561 15.127L5.98779 16.127L1.95557 16.0947L1.96338 15.0947L5.99561 15.127ZM6.0415 11.4482L6.03564 12.4482L2.00635 12.4258L2.00928 11.9258L2.01123 11.4258L6.0415 11.4482ZM6.09131 7.78027L6.08545 8.78027L2.05518 8.75684L2.06104 7.75684L6.09131 7.78027ZM6.12842 4.11035L6.12256 5.11035L2.09229 5.08789L2.09814 4.08789L6.12842 4.11035Z" fill="#E9562A"/>
<path d="M108.293 0L122.068 10.3516L122.059 11.1133L122.043 12.2305L132.694 12.4082C135.492 12.4548 137.726 14.7645 137.68 17.5625L137.559 24.7812C137.512 27.5791 135.203 29.8122 132.405 29.7656L121.805 29.5889L121.761 32.8291L107.614 42.3779L107.239 42.6318L0 43.4102V0H108.293ZM3 40.3877L8.77832 40.3457V3H3V40.3877ZM11.7783 40.3242L105.313 39.6445L106.254 3H11.7783V40.3242ZM108.35 38.2617L118.782 31.2188L119.048 11.834L109.217 4.44727L108.35 38.2617ZM122.166 26.5938L132.455 26.7666C133.596 26.7856 134.54 25.8727 134.56 24.7314L134.68 17.5117C134.699 16.3705 133.786 15.4273 132.645 15.4082L122.355 15.2354L122.166 26.5938Z" fill="#E9562A"/>
</g>
<g clip-path="url(#clip1_14_938)">
<path d="M-5.0061 40.8066L-5.01196 41.8066L-9.04224 41.7842L-9.03638 40.7842L-5.0061 40.8066ZM-4.96704 37.1377L-4.9729 38.1377L-9.0022 38.1152L-8.99927 37.6152L-8.99731 37.1152L-4.96704 37.1377ZM-4.91919 33.4688L-4.92505 34.4688L-8.95532 34.4463L-8.94946 33.4463L-4.91919 33.4688ZM-4.87036 29.7998L-4.87622 30.7998L-8.90649 30.7773L-8.90063 29.7773L-4.87036 29.7998ZM-4.82153 26.1318L-4.82739 27.1318L-8.85767 27.1084L-8.85181 26.1084L-4.82153 26.1318ZM-4.78442 22.4648L-4.79028 23.4648L-8.81079 23.4395L-8.80786 22.9395L-8.80396 22.4395L-4.78442 22.4648ZM-4.73462 18.7959L-4.74048 19.7959L-8.77075 19.7725L-8.76489 18.7725L-4.73462 18.7959ZM-4.68481 15.127L-4.69263 16.127L-8.72485 16.0947L-8.71704 15.0947L-4.68481 15.127ZM-4.63892 11.4482L-4.64478 12.4482L-8.67407 12.4258L-8.67114 11.9258L-8.66919 11.4258L-4.63892 11.4482ZM-4.58911 7.78027L-4.59497 8.78027L-8.62524 8.75684L-8.61938 7.75684L-4.58911 7.78027ZM-4.552 4.11035L-4.55786 5.11035L-8.58813 5.08789L-8.58228 4.08789L-4.552 4.11035Z" fill="#E9562A"/>
<path d="M97.6125 0L111.388 10.3516L111.378 11.1133L111.363 12.2305L122.014 12.4082C124.812 12.4548 127.046 14.7645 126.999 17.5625L126.878 24.7812C126.831 27.5791 124.523 29.8122 121.725 29.7656L111.124 29.5889L111.08 32.8291L96.9338 42.3779L96.5588 42.6318L-10.6804 43.4102V0H97.6125ZM-7.68042 40.3877L-1.9021 40.3457V3H-7.68042V40.3877ZM1.0979 40.3242L94.6331 39.6445L95.5735 3H1.0979V40.3242ZM97.6692 38.2617L108.102 31.2188L108.367 11.834L98.5364 4.44727L97.6692 38.2617ZM111.486 26.5938L121.775 26.7666C122.916 26.7856 123.86 25.8727 123.879 24.7314L123.999 17.5117C124.018 16.3705 123.105 15.4273 121.964 15.4082L111.675 15.2354L111.486 26.5938Z" fill="#E9562A"/>
</g>
<g clip-path="url(#clip2_14_938)">
<path d="M-8.66577 40.8066L-8.67163 41.8066L-12.7019 41.7842L-12.696 40.7842L-8.66577 40.8066ZM-8.62671 37.1377L-8.63257 38.1377L-12.6619 38.1152L-12.6589 37.6152L-12.657 37.1152L-8.62671 37.1377ZM-8.57886 33.4688L-8.58472 34.4688L-12.615 34.4463L-12.6091 33.4463L-8.57886 33.4688ZM-8.53003 29.7998L-8.53589 30.7998L-12.5662 30.7773L-12.5603 29.7773L-8.53003 29.7998ZM-8.4812 26.1318L-8.48706 27.1318L-12.5173 27.1084L-12.5115 26.1084L-8.4812 26.1318ZM-8.44409 22.4648L-8.44995 23.4648L-12.4705 23.4395L-12.4675 22.9395L-12.4636 22.4395L-8.44409 22.4648ZM-8.39429 18.7959L-8.40015 19.7959L-12.4304 19.7725L-12.4246 18.7725L-8.39429 18.7959ZM-8.34448 15.127L-8.35229 16.127L-12.3845 16.0947L-12.3767 15.0947L-8.34448 15.127ZM-8.29858 11.4482L-8.30444 12.4482L-12.3337 12.4258L-12.3308 11.9258L-12.3289 11.4258L-8.29858 11.4482ZM-8.24878 7.78027L-8.25464 8.78027L-12.2849 8.75684L-12.2791 7.75684L-8.24878 7.78027ZM-8.21167 4.11035L-8.21753 5.11035L-12.2478 5.08789L-12.2419 4.08789L-8.21167 4.11035Z" fill="#E9562A"/>
<path d="M93.9529 0L107.728 10.3516L107.719 11.1133L107.703 12.2305L118.354 12.4082C121.152 12.4548 123.386 14.7645 123.34 17.5625L123.219 24.7812C123.172 27.5791 120.863 29.8122 118.065 29.7656L107.465 29.5889L107.421 32.8291L93.2742 42.3779L92.8992 42.6318L-14.3401 43.4102V0H93.9529ZM-11.3401 40.3877L-5.56177 40.3457V3H-11.3401V40.3877ZM-2.56177 40.3242L90.9734 39.6445L91.9138 3H-2.56177V40.3242ZM94.0095 38.2617L104.442 31.2188L104.708 11.834L94.8767 4.44727L94.0095 38.2617ZM107.826 26.5938L118.115 26.7666C119.256 26.7856 120.2 25.8727 120.219 24.7314L120.34 17.5117C120.358 16.3705 119.446 15.4273 118.304 15.4082L108.015 15.2354L107.826 26.5938Z" fill="#E9562A"/>
</g>
<defs>
<clipPath id="clip0_14_938">
<rect width="27" height="43.4102" fill="white"/>
</clipPath>
<clipPath id="clip1_14_938">
<rect width="45" height="43.4102" fill="white" transform="translate(82)"/>
</clipPath>
<clipPath id="clip2_14_938">
<rect width="55" height="43.4102" fill="white" transform="translate(27)"/>
</clipPath>
</defs>
</svg>
