<svg width="1440" height="933" viewBox="0 0 1440 933" fill="none" xmlns="http://www.w3.org/2000/svg">
<rect width="1440" height="933" fill="#F5CD53"/>
<mask id="mask0_45_2559" style="mask-type:alpha" maskUnits="userSpaceOnUse" x="-30" y="-5" width="589" height="667">
<path d="M419.586 10.849C419.412 11.3595 417.872 12.4658 417.399 13.1576C416.419 11.1323 420.142 9.08335 419.586 10.849ZM475.772 174.008C475.868 173.131 475.961 172.258 476.051 171.386C474.475 172.679 472.884 175.049 471.302 176.115C471.04 176.289 470.46 174.726 469.935 175.222C469.409 175.719 471.007 176.943 470.471 177.875C469.889 178.89 465.141 182.15 463.961 183.534C459.401 188.889 455.526 194.976 450.185 199.714C453.914 193.296 447.901 197.773 447.044 199.701C446.85 200.141 449.709 202.548 444.087 207.428C440.575 210.461 439.466 203.7 436.268 211.277C442.153 209.566 439.836 212.498 437.09 215.69C436.674 216.173 436.247 216.662 435.838 217.142C435.326 217.749 430.338 222.44 428.519 224.68C427.885 225.463 428.292 227.92 427.417 228.954C426.816 229.662 425.541 229.473 424.678 230.498C420.578 235.334 416.413 239.969 411.829 244.375C410.633 238.278 408.308 245.02 407.922 245.079C405.907 245.243 410.224 240.029 407.781 241.405C405.368 244.23 402.86 247.148 400.455 249.946C402.999 248.131 400.773 255.8 398.657 255.649C402.278 258.291 384.195 265.381 383.427 268.335C383.278 268.947 387.356 267.836 380.835 273.256C380.127 273.841 379.393 272.669 379.154 273.102C379.012 273.361 380.905 277.551 377.92 277.277C376.837 277.169 377.77 272.134 372.064 279.762C377.805 280.019 364.706 290.886 361.768 292.38C362.618 292.333 363.469 292.285 364.319 292.238C361.058 293.378 361.735 294.8 361.204 295.24C359.053 297.022 355.333 298.759 353.631 300.731C351.645 303.028 353.588 304.895 350.385 306.719C351.395 306.526 352.404 306.333 353.412 306.14C351.622 307.8 349.827 309.463 348.029 311.128C349.379 304.572 347.057 311.895 346.807 312.266C346.402 312.875 346.065 311.117 345.362 312.112C345.297 312.222 346.414 313.045 345.239 314.491C342.778 317.51 341.956 315.87 340.839 317.06C340.742 317.173 341.996 317.656 340.256 319.889C334.735 326.972 339.604 319.198 339.716 318.833C339.867 318.35 334.007 316.975 340.602 312.765C338.412 314.2 336.582 312.798 336.341 312.966C336.129 313.12 333.302 316.523 333.19 316.753C332.246 318.856 334.698 318.566 334.607 319.065C334.531 319.471 329.371 321.889 331.897 326.055C327.003 324.874 330.072 322.262 332.551 318.724C332.341 317.657 328.466 320.433 328.296 320.612C324.11 324.971 329.005 325.039 329.733 327.575C330.113 328.903 326.65 328.984 330.534 329.571C326.974 333.754 327.943 330.071 327.5 330.135C326.838 330.24 326.169 332.259 325.914 332.347C325.539 332.475 325.59 330.823 324.345 331.553C324.144 331.679 323.965 334.616 326.625 333.17C323.753 335.76 325.146 336.659 321.877 335.324C324.503 341.542 317.9 334.165 316.924 334.676C314.337 336.04 318.404 338.841 318.473 339.112C318.868 340.896 312.325 345.271 311.512 347.126C309.506 344.151 315.713 342.714 316.053 341.38C317.187 336.94 310.892 344.205 309.726 339.062C309.756 340.775 309.786 342.489 309.817 344.202C306.235 343.833 307.531 340.707 304.13 345.728C305.214 348.129 306.783 342.419 307.447 344.507C307.834 345.735 305.604 348.398 305.985 348.862C306.455 349.409 308.017 346.563 308.469 347.685C309.436 350.115 299.872 356.768 304.972 349.603C303.317 351.379 299.038 348.989 298.644 351.526C298.391 353.17 308.409 352.207 299.585 359.633C297.804 358.256 302.294 355.87 302.257 355.664C302.2 355.365 297.959 352.489 297.674 352.424C296.708 352.243 290.541 362.541 286.992 362.57C289.766 363.897 281.253 369.283 281.143 370.681C281.122 371.057 283.149 371.528 283.074 371.879C282.565 374.033 276.715 375.514 275.016 377.162C273.098 379.024 274.448 379.848 274.342 379.954C273.468 380.74 273.362 379.339 272.867 379.858C272.114 380.65 266.849 385.829 266.735 386.264C266.709 386.39 268.823 386.733 267.942 388.136C267.791 388.377 266.395 386.81 263.744 390.884C260.561 395.781 268.381 389.802 268.313 393.04C263.507 393.55 265.827 395.596 264.962 396.149C264.658 396.339 260.959 396.405 259.145 398.544C260.224 396.797 261.317 395.037 262.405 393.283C260.698 394.401 258.444 397.584 256.949 398.396C256.219 398.794 255.108 396.833 253.964 398.115C253.731 398.394 256.531 403.076 257.937 398.186C259.544 399.223 257.177 399.931 256.877 401.015C256.83 401.184 258.703 403.764 256.402 403.352C255.849 403.238 251.514 394.521 250.379 405.313C250.344 405.66 251.835 405.756 251.821 406.115C251.81 406.36 249.97 407.62 249.923 407.906C249.88 408.204 251.511 408.305 251.487 408.687C251.372 410.648 246.422 408.653 248.826 406.674C247.671 406.999 246.509 407.331 245.34 407.67C248.823 409.433 244.969 409.588 244.063 410.71C238.279 417.877 244.275 415.089 244.103 417.099C243.821 420.336 240.505 414.529 239.297 418.604C239.195 418.975 244.279 417.547 237.075 422.941C237.892 421.921 238.714 420.897 239.54 419.869C236.386 417.939 236.475 423.475 236.309 423.726C234.256 426.628 234.922 424.018 232.734 429.061C232.541 429.511 231.205 429.629 230.862 430.646C229.414 434.868 235.342 427.501 236.606 428.299C237.199 428.711 230.101 436.005 229.607 436.04C227.483 436.098 232.297 432.196 230.131 431.765C229.32 431.646 220.417 443.182 217.962 444.775C215.044 446.678 210.44 444.439 214.473 448.192C209.863 445.214 212.02 448.319 211.709 448.602C211.504 448.785 211.31 448.957 211.127 449.121C207.821 452.087 207.647 452.244 205.231 455.621C204.669 456.405 202.914 455.896 202.893 456.332C202.883 456.592 204.439 457.491 204.18 458.582C203.775 460.123 197.001 464.939 195.904 464.715C194.781 464.513 197.856 461.912 196.193 461.375C194.159 463.395 192.527 465.81 190.453 467.888C189.587 468.749 189.169 467.539 188.803 467.917C188.633 468.085 186.629 471.831 187.039 471.991C187.983 472.35 196.21 462.159 195.377 466.032C195.208 466.786 191.717 466.83 194.303 468.634C186.056 476.812 177.939 485.037 169.963 493.351C172.403 486.846 178.918 482.495 183.316 477.143C183.915 476.415 186.288 474.175 184.841 473.425C180.608 477.608 176.405 483.706 171.943 487.338C171.798 487.455 171.155 486.019 170.538 486.395C169.373 487.107 168.461 491.718 167.578 491.846C167.395 491.848 167.466 488.867 166.102 488.634C162.597 488.04 167.469 492.763 166.375 493.935C165.508 494.851 157.804 498.965 158.09 501.881C158.398 504.963 162.952 498.017 163.92 499.681C161.756 505.101 156.751 508.153 153.711 512.281C153.659 512.353 155.244 512.639 154.69 513.64C153.711 515.403 151.8 514.587 150.943 515.144C150.003 515.77 147.987 518.771 147.089 518.734C146.972 518.728 145.894 516.887 145.912 516.774C146.251 515.026 148.63 516.18 148.745 516.088C149.162 515.721 148.727 514.683 149.088 514.324C149.684 513.735 150.684 513.948 151.444 513.131C151.972 512.567 150.138 512.048 150.667 511.518C150.874 511.318 155.767 511.636 152.766 508.845C151.796 507.879 135.793 525.462 135.364 527.894C136.987 526.569 138.533 525.358 140.168 524.046C136.731 526.531 136.419 532.377 132.359 529.735C123.065 541.456 114.352 553.224 107.041 564.531C105.466 566.355 103.443 563.652 102.262 567.469C103.606 567.122 104.984 566.731 106.348 566.375C104.644 567.792 99.3359 574.523 99.3781 575.936C99.3891 576.102 101.73 577.674 101.104 579.454C100.532 581.081 98.5619 580.33 97.7999 580.987C97.1761 581.523 97.3563 582.453 97.1556 582.613C97.003 582.723 95.802 582.25 95.4371 582.513C94.31 583.334 98.0302 583.891 93.7267 583.333C93.6963 583.004 93.6788 582.649 93.6508 582.321C92.4898 583.444 89.983 584.557 89.9721 582.181C89.9731 581.771 90.9897 582.562 91.0992 582.303C95.8024 571.618 89.4434 579.252 89.8007 583.525C89.5191 583.551 89.2569 583.674 89.017 583.86L90.7697 578.838C89.1454 580.888 88.3794 586.609 88.0249 586.738C87.4228 586.941 86.346 585.282 84.6621 586.609C84.2895 586.855 82.675 597.169 81.2393 592.931C80.9392 592.043 82.7229 587.369 82.9703 586.211C78.443 587.891 82.2038 595.777 81.8884 596.472C80.5475 599.29 80.0391 589.948 77.9088 596.521C76.2745 601.641 80.0267 597.383 80.6129 599.653C80.9466 600.893 76.6682 606.298 80.3264 607.041C80.1931 609.278 78.5783 607.56 78.3763 607.79C78.1977 607.999 78.2311 612.587 77.0966 613.887C76.958 614.04 75.2141 613.019 75.015 613.163C74.889 613.266 74.7185 613.903 74.5534 614.694C74.3149 615.913 73.771 618.755 73.8046 618.998C73.8715 619.192 75.9392 618.049 76.1613 618.805C76.2905 619.23 75.8173 621.098 75.1013 623.403C74.4094 625.672 73.4432 628.246 73.5597 628.599C73.7528 629.119 74.9368 626.28 75.8705 624.021C76.8304 621.729 77.6367 620.066 78.3494 621.053C76.9616 624.811 74.2569 635.219 73.094 640.054C73.342 638.851 76.2013 632.86 77.0456 630.977C79.6604 632.804 72.5541 646.122 73.0568 640.522C72.4823 643.886 74.1222 642.31 74.1306 644.47C74.1432 645.056 71.6122 649.02 71.4558 650.002C71.4703 650.203 75.0872 646.708 75.0102 647.822C75.0382 650.219 65.9172 661.048 64.9817 661.245C62.4009 662.924 68.9598 654.487 68.5533 652.837C68.4762 652.821 60.8515 658.011 60.6549 657.765C58.7653 656.757 66.282 650.594 64.0254 650.097C62.1803 651.733 60.3243 653.204 58.4936 654.519C63.3003 647.627 73.2694 631.745 71.944 627.446C68.2983 639.897 57.8969 651.446 54.4983 647.484C52.9566 646.06 55.2112 641.394 54.626 641.192C52.6769 640.671 49.8792 647.011 49.596 647.049C49.373 647.107 49.2276 647.089 49.1474 647.01C49.1474 647.01 49.1474 647.01 49.1473 647.01C48.3917 646.365 53.9394 638.679 53.7114 637.807C53.4167 636.676 47.8906 637.67 47.2663 637.049C47.2811 636.89 50.2082 631.276 47.7699 632.158C45.393 633.098 42.1741 636.815 41.9296 636.794C40.7296 636.983 45.5121 629.807 45.09 629.176C44.9586 628.979 40.9633 631.678 40.5202 631.401C40.1054 631.198 41.306 627.965 40.7299 626.086C40.3181 624.725 38.1408 626.432 38.2616 625.939C38.47 625.694 42.0102 619.613 41.8343 619.197C41.7835 618.634 39.9198 619.49 39.7237 619.13C39.4534 618.638 40.7316 616.943 40.1697 616.995C39.8536 617.27 32.104 621.795 31.1251 620.746C29.5869 619.508 37.1026 616.177 26.9247 617.196C26.8695 617.197 26.5202 618.685 26.4487 618.683C24.7839 618.377 25.3908 613.818 22.6783 617.938C24.5273 613.553 23.5838 612.951 22.5932 613.023C21.5164 613.109 19.9286 613.62 18.8176 612.174C18.0112 611.071 18.6805 608.769 18.4728 608.655C16.8542 608.109 17.6966 609.33 16.8462 609.129C16.4266 608.97 15.6326 606.568 14.3834 606.448C13.7739 606.394 13.2145 607.796 13.0557 607.78C11.8143 607.636 11.227 606.388 10.4969 606.063C10.0311 605.825 9.59869 606.337 9.50144 606.297C9.37801 606.15 8.12847 604.25 7.48858 603.836C7.02985 603.485 6.14352 603.199 5.96167 603.017C4.77965 602.104 8.29668 603.587 3.4274 601.348C3.13994 601.188 3.27163 601.227 3.21505 601.194C1.97161 600.318 1.77125 600.384 0.639969 599.867C-1.33449 599.006 0.0885143 598.908 -1.54586 598.746C-2.55005 597.633 -2.09613 597.091 -1.59938 597.13C-3.13271 597.253 -9.507 597.181 -6.90947 593.357C-7.56454 594.379 -10.1558 592.695 -10.4707 593.092C-10.7714 593.468 -8.83083 596.691 -14.7615 592.869C-15.5213 592.379 -13.6393 591.211 -15.4869 590.877C-17.0381 595.069 -16.6584 590.564 -16.7381 590.303C-17.894 589.622 -19.1839 590.839 -19.8094 592.087C-20.1181 592.68 -20.228 593.16 -20.1228 593.088C-20.0206 593.031 -19.7154 592.396 -19.2876 591.234C-18.4274 588.991 -17.6043 586.891 -17.5661 586.042C-17.4413 583.223 -19.98 579.931 -19.8336 579.315C-19.3379 577.278 -18.1509 579.359 -17.4516 579.048C-16.767 578.756 -18.3656 572.08 -18.1115 571.801C-17.1426 570.803 -15.549 572.465 -15.4227 572.367C-13.9212 571.247 -13.2882 562.721 -12.2048 560.526C-13.4497 560.266 -14.7825 564.858 -15.974 561.445C-17.3544 557.458 -11.9092 558.733 -11.6513 558.715C-10.8196 555.654 -9.96308 552.601 -9.07717 549.544C-8.601 548.622 -7.94243 545.539 -7.37589 544.669C-1.50225 530.189 5.27334 517.871 12.17 506.384C9.4954 504.993 5.80073 515.714 5.3454 515.816C2.55676 515.842 12.1716 499.683 14.3151 498.485C12.9052 499.511 11.3824 500.735 9.95304 501.831C8.60717 497.492 15.8478 494.366 16.8478 490.134C17.1899 488.728 14.6508 490.185 14.6081 490.089C14.3312 488.092 16.5669 486.575 17.0225 489.107C17.6413 485.096 18.8864 486.625 20.596 484.349C20.684 484.23 18.8544 484.47 19.6529 482.282C19.9725 481.327 23.172 476.697 22.5814 475.453C22.3508 474.896 16.3508 474.159 19.9221 477.079C14.6492 480.776 20.5507 479.855 19.1548 481.703C18.9509 481.969 17.2397 479.88 14.9399 485.476C11.7006 481.973 18.4516 478.199 18.6447 476.955C19.0753 474.29 11.4232 481.206 13.4305 484.743C10.896 482.038 12.6447 485.036 11.252 486.881C9.75693 488.864 9.45041 487.372 8.7188 488.483C6.69641 491.557 9.64789 491.683 6.07902 493.006C13.6744 494.308 4.0713 497.924 1.21082 499.081C2.96852 495.503 4.746 492.002 6.59766 488.475C6.15983 488.464 5.72214 488.454 5.28463 488.443C5.91635 487.561 6.47653 486.796 7.08444 485.963C7.2949 486.296 7.50578 486.627 7.71707 486.959C8.67633 481.245 11.5478 481.702 11.808 481.359C15.1454 476.934 18.5895 471.945 21.7805 467.501C22.2526 466.851 19.9879 465.981 24.9434 462.26C26.5242 461.079 26.9439 463.574 27.9505 461.739C25.5247 456.729 28.6704 459.083 29.138 458.461C30.4913 456.634 30.322 454.829 30.4313 454.661C31.8925 452.388 34.5555 449.212 36.1959 446.781C36.2156 446.725 34.0668 447.041 35.607 445.769C36.1755 445.288 44.9604 444.463 46.6439 438.947C45.4286 439.782 44.2233 440.61 43.0279 441.43C44.5252 440.475 50.2959 430.621 47.2277 431.702C45.3122 432.401 46.0461 438.171 42.6025 436.079C45.8286 433.831 57.5791 416.558 59.3676 415.932C59.6132 415.843 59.7266 417.74 60.0534 417.606C60.3181 417.481 63.0944 413.667 63.8715 413.519C64.3349 413.427 63.6211 415.521 64.0889 415.691C64.4263 415.802 68.6288 411.658 67.6187 410.337C67.1671 411.883 64.1279 414.62 64.4438 412.109C64.4888 411.79 66.2096 411.374 66.261 410.978C66.726 407.326 61.1556 414.697 60.2359 415.792C62.3318 410.02 69.9844 404.748 73.3689 398.748C76.1462 397.594 72.32 403.149 75.179 401.542C81.0208 398.318 74.8452 399.058 74.8408 398.798C74.8114 396.733 83.8632 397.47 79.6652 393.807C81.8276 392.6 81.864 393.626 83.415 390.743C82.8474 390.805 82.2803 390.868 81.7137 390.93C81.5901 386.154 92.8276 385.736 92.8663 386.634C93.1407 388.83 88.5216 390.149 88.3598 390.429C88.0941 390.874 91.4501 395.611 84.076 396.377C85.4942 400.517 91.6413 391.609 90.365 396.996C92.2285 394.196 103.24 385.757 103.369 383.139C103.356 382.828 99.845 381.08 103.489 379.9C105.225 379.337 102.716 382.198 103.84 382.235C105.9 382.324 113.707 373.661 120.556 365.829C124.93 360.811 128.912 356.092 130.416 354.396C130.668 354.119 131.433 355.019 131.676 354.742C132.439 353.873 133.93 349.712 135.699 348.613C131.263 350.176 136.691 344.126 138.265 342.803C140.649 340.797 142.026 342.347 143.267 341.668C148.084 339.017 150.018 329.84 156.087 330.102C152.622 327.146 162.513 326.57 164.748 324.282C166.52 322.468 166.903 317.706 163.198 318.937C166.41 315.868 168.944 311.987 171.613 308.797C172.053 308.27 172.373 309.88 173.092 308.952C173.15 308.862 172.303 307.841 172.887 307.032C177.728 300.315 176.995 305.131 178.651 304.591C179.58 304.288 180.186 303.987 180.565 303.701C177.422 307.351 173.999 311.679 172.989 312.79C175.984 313.866 179.915 304.743 182.4 303.284C182.487 303.235 183.414 304.585 183.49 304.523C183.491 304.521 183.493 304.52 183.494 304.518C184.294 303.861 188.378 298.75 186.071 298.393C185.449 298.303 183.38 300.459 181.031 303.161C181.444 302.212 179.645 301.492 179.708 301.315C180.501 299.204 185.257 296.781 186.679 295.642C187.001 295.381 186.151 294.605 186.195 294.555C187.518 293.555 189.427 296.312 188.142 292.758C193.144 293.463 184.733 297.184 187.068 298.594C188.875 299.665 201.148 285.314 198.777 283.127C199.071 283.32 199.559 283.43 200.278 283.385C201.872 283.291 205.28 279.264 205.47 278.209C205.492 278.018 203.194 275.889 203.304 275.733C203.578 275.344 209.789 272.437 210.12 269.426C208.907 270.052 207.693 270.68 206.48 271.306C211.88 265.663 210.362 265.896 207.891 267.11C207.795 267.197 207.622 267.205 207.526 267.286C205.627 268.259 203.354 269.657 203.149 269.514C202.37 268.962 211.17 259.077 211.496 262.925C211.535 263.457 206.362 266.959 209.955 266.22C210.584 266.091 212.884 262.852 213.192 262.862C215.243 262.923 210.745 270.498 213.028 271.241C212.99 268.317 215.624 267.145 216.9 265.057C217.482 264.108 216.537 262.826 216.609 262.708C217.705 260.98 218.11 262.933 218.544 262.423C218.772 262.146 218.986 256.875 221.947 260.764C228.409 248.941 221.885 255.713 216.549 261.64C217.032 258.604 221.07 255.642 222.315 253.762C222.761 253.086 221.273 252.307 221.973 251.116C223.414 248.667 233.898 240.458 236.589 238.292C235.538 240.204 237.23 240.978 238.27 239.723C239.31 238.467 236.675 237.825 236.714 237.422C236.759 236.999 242.853 232.265 243.511 231.143C240.142 235.867 242.302 236.148 245.812 232.765C245.687 233.622 245.562 234.479 245.437 235.336C246.906 232.789 252.994 230.312 253.565 228.57C253.652 228.295 251.947 227.945 251.996 227.791C252.55 226.312 257.034 223.812 256.832 223.297C256.663 222.869 254.323 223.524 254.423 222.543C254.44 222.34 257.282 222.253 258.311 220.476C258.693 219.817 257.38 219.174 257.451 218.984C258.043 217.401 259.101 219.684 260.791 217.379C262.025 215.689 261.437 212.991 263.976 211.438C255.34 216.226 261.71 211.346 263.794 207.888C264.127 207.336 261.932 205.975 265.417 204.112C263.191 213.048 268.731 204.145 270.239 202.638C270.33 202.565 271.563 203.688 272.296 202.958C272.356 202.894 271.455 202.206 272.056 201.453C277.737 194.322 274.647 199.401 276.642 198.921C277.494 198.713 279.406 194.399 280.194 193.515C280.38 193.314 281.141 194.212 281.837 193.415C283.064 192.003 283.31 189.936 284.098 188.963C284.194 188.855 285.539 190.12 286.721 188.006C287.054 187.412 287.087 186.425 286.058 186.738C282.644 187.798 280.796 194.126 277.1 195.476C273.741 196.701 280.602 189.282 280.941 188.909C281.069 188.767 280.384 190.818 281.886 189.501C283.179 188.361 283.027 183.89 285.273 182.531C285.444 182.426 288.797 182.82 288.847 182.996C288.875 183.135 287.16 185.796 288.039 186.007C288.141 186.029 289.488 184.582 290.088 184.796C290.82 185.055 296.454 189.229 296.875 189.038C297.942 188.539 296.299 187.965 296.866 187.527C298.085 186.58 303.171 184.195 301.528 182.419C300.834 182.946 300.139 183.474 299.442 184.003C302.553 180.348 300.4 181.131 300.537 180.326C300.683 179.459 302.075 181.074 303.342 180.02C303.627 179.784 307.945 174.551 307.204 174.038C305.684 177.722 304.719 174.922 304.568 175.014C303.995 175.374 304.491 176.992 303.864 177.615C299.425 181.989 302.047 175.825 300.603 176.486C300.111 176.716 300.331 178.312 300.136 178.425C299.51 178.785 298.309 177.664 298.09 178.09C297.578 179.082 300.129 179.767 300.158 179.912C300.561 181.606 296.65 183.108 296.425 179.662C294.794 180.06 296.915 182.294 295.25 182.265C291.946 182.215 294.702 180.212 295.026 179.28C296.184 175.931 297.703 176.043 300.562 172.417C301.591 171.116 301.832 168.678 302.291 168.07C302.569 167.7 309.507 167.9 303.653 162.249C305.441 161.492 311.212 163.168 312.291 161.652C313.25 160.296 310.788 158.717 310.811 158.529C310.844 158.237 312.357 156.946 312.511 156.183C312.69 155.286 311.622 154.821 312.132 153.615C313.394 150.625 315.499 152.673 315.856 152.569C319.99 151.355 315.82 149.707 316.131 148.879C316.417 148.123 324.798 141.4 325.475 139.084C325.307 140.139 325.135 141.198 324.959 142.261C327.402 142.308 326.337 139.044 328.782 141.239C325.091 137.415 329.98 137.318 330.546 136.491C330.769 136.162 330.079 135.577 330.381 135.188C331.535 133.684 335.003 130.924 335.352 129.85C336.898 125.191 326.742 131.545 326 132.052C327.247 130.78 333.243 122.359 328.198 124.145C327.421 124.419 328.314 126.972 328.104 127.341C326.68 129.825 326.578 126.769 326.282 126.794C325.781 126.861 326.111 129.558 325.604 129.752C325.438 129.818 324.707 127.759 322.907 129.678C322.389 127.479 328.499 122.994 328.8 121.997C328.895 121.685 325.516 120.797 329.492 119.215C330.058 118.971 330.764 118.709 331.637 118.43C331.31 118.24 330.983 118.05 330.656 117.86C333.009 115.006 335.253 112.27 337.574 109.443C337.944 110.31 337.842 112.997 339.308 110.81C340.148 109.554 337.992 109.113 338.042 108.975C338.562 107.623 354.64 90.5089 357.415 87.0322C358.415 85.7996 360.123 81.5586 360.311 81.302C361.45 79.783 366.848 75.159 367.568 74.0116C368.028 73.2789 366.299 72.8389 366.857 72.3163C367.377 71.8327 368.048 73.3964 368.235 73.2812C369.819 72.3291 377.167 60.8815 380.282 59.5031C378.736 60.62 374.611 69.9972 375.578 70.5341C375.719 70.5985 378.136 69.6123 378.019 68.8804C379.539 69.1636 378.348 64.3738 379.923 63.7792C380.1 63.713 381.381 65.7002 383.434 63.9741C384.122 63.3997 384.404 60.3821 387.495 59.8516C389.069 56.6086 403.322 44.609 402.327 42.0039C402.256 41.8891 399.922 43.3162 400.308 41.3298C400.811 38.7006 402.862 43.196 404.903 41.4099C405.184 41.1756 409.789 35.0899 409.702 34.7611C409.263 31.3979 404.255 35.6976 404.081 35.4483C403.683 34.7825 406.846 30.3881 407.145 30.3033C407.422 30.2564 407.04 35.848 409.581 30.9133C408.88 31.1225 408.176 31.3344 407.47 31.549C408.527 29.11 410.427 30.4355 410.928 30.0634C412.457 28.953 411.168 25.057 416.398 25.5739C417.785 25.712 417.912 27.5371 418.107 27.5734C419.899 27.848 417.529 24.2456 420.833 25.1107C421.073 25.182 420.325 28.9409 424.115 24.4466C423.631 24.5626 423.146 24.6798 422.659 24.7983C422.669 23.7652 426.231 18.9097 426.832 18.4299C428.671 16.9405 429.002 19.8569 430.323 17.8778C427.137 17.1587 431.374 11.475 433.055 13.3672C431.276 10.5882 436.975 7.50448 438.838 5.34788C440.006 3.99656 441.249 0.305308 441.726 -0.0275345C442.311 -0.43404 443.841 1.08583 444.989 0.430459C445.342 0.213719 446.436 -3.62757 450.207 -4.77096C450.921 -4.97376 454.606 -3.74929 454.567 -2.24906C454.552 0.255614 449.847 1.40797 451.56 2.70881C453.375 4.12629 455.546 -0.736593 456.637 -1.61943C461.688 -5.69846 461.309 -1.31679 461.991 -0.981201C463.666 -0.192753 465.808 -2.96653 466.012 -2.9654C466.944 -2.98137 466.539 -0.188496 467.368 0.53301C468.458 1.46115 472.573 0.434727 472.475 1.33069C472.315 2.63378 468.714 3.69722 468.653 3.93659C468.152 6.78183 472.912 6.12217 474.799 6.35739C475.374 6.43738 475.28 7.87073 475.547 7.77062C479.611 6.23818 472.39 4.28586 474.309 2.61025C476.014 1.12121 475.933 4.71322 476.074 4.7273C476.254 4.71386 477.996 2.70949 478.842 2.87703C479.293 2.93327 478.299 10.9645 479.944 11.932C480.999 9.94426 482.06 7.94052 483.08 5.98013C485.122 7.37833 481.743 8.71397 481.722 9.14769C481.704 9.99175 483.847 9.30324 484.406 9.85405C484.771 10.1923 484.787 13.0184 486.595 11.9173C487.221 11.535 486.721 9.38342 489.645 8.53284C486.107 16.6392 490.878 12.8494 491.707 13.212C492.554 13.5516 491.625 18.0367 494.425 13.916C498.332 16.7194 495.536 14.9602 495.33 16.5799C495.069 18.5768 498.809 16.4164 493.912 20.6444C495.878 21.7903 498.936 17.6823 499.258 17.561C499.533 17.4759 499.686 19.0655 500.234 18.9758C506.622 17.9019 503.021 19.2582 506.054 19.8944C506.341 19.9324 509.954 17.003 508.134 19.9706C504.794 25.3978 500.647 25.4743 505.325 30.5386C510.566 28.7189 510.636 21.5209 511.441 20.3727C512.706 18.5875 512.392 21.2376 512.871 21.2581C513.02 21.2729 514.11 19.6966 514.207 19.7519C519.128 21.9038 509.095 26.4027 507.907 29.3344C509.033 29.1694 510.15 29.013 511.26 28.865C510.606 29.7408 509.937 30.634 509.252 31.5448C513.81 28.3221 509.824 31.7802 512.309 35.4108C512.865 36.2296 513.749 32.5183 513.344 37.2428C515.629 35.3495 515.751 36.5768 516.469 33.7646C517.765 34.8492 515.479 40.7791 514.688 43.1429C521.405 37.7761 513.586 37.6614 520.648 34.0231C519.851 31.6639 517.995 34.666 517.915 34.2104C517.578 32.6398 520.576 32.0235 518.942 27.0757C518.665 26.2733 515.738 26.4481 517.6 24.2482C517.817 23.9961 520.432 23.6991 520.521 23.8063C521.532 24.8977 519.964 26.0063 520.395 26.4495C520.812 26.8597 521.804 25.028 521.93 25.1269C523.421 26.2085 521.432 26.903 522.043 27.0571C523.376 27.3883 531.024 24.0458 524.186 30.891C527.478 23.3183 523.213 28.8478 521.922 31.7759C521.573 32.542 522.334 33.3519 521.93 34.4794C521.403 35.9429 519.942 36.9372 519.629 37.655C519.297 38.4296 524.208 36.4294 519.44 41.1768C523.588 40.1248 525.151 33.703 528.628 32.2049C535.656 29.1792 529.234 38.6546 528.764 39.8084C528.643 40.1171 530.467 40.2028 530.407 40.4251C530.315 40.7724 525.687 45.5037 526.273 46.733C526.835 47.9973 527.708 44.8415 528.845 45.4668C529.59 45.9203 525.872 53.0266 529.009 50.0426C531.14 48.0246 531.831 41.5693 535.29 43.1922C532.843 46.7936 530.406 50.3521 527.934 53.9275C530.496 52.9965 533.105 51.9986 535.698 51.012C533.014 55.1112 529.136 57.3892 527.785 62.2853C538.309 56.4675 528.358 67.3481 528.654 67.8412C528.899 68.0657 534.474 67.0385 535.479 66.8644C534.153 70.7793 527.146 80.4382 535.086 77.9123C533.465 78.2744 533.534 82.1909 533.697 82.2933C535.489 83.2829 538.712 77.2749 539.424 79.2713C540.277 81.559 536.891 81.1894 535.876 82.7874C530.494 91.212 540.308 95.8031 532.655 102.412C533.069 102.499 533.483 102.586 533.897 102.673C526.486 110.639 519.095 118.459 511.677 126.227C511.333 131.568 505.616 141.214 501.732 145.155C500.987 145.913 496.123 148.957 495.647 149.054C494.714 149.268 497.303 145.954 495.258 146.695C494.82 146.872 488.334 153.254 490.084 153.97C490.931 153.316 492.362 150.298 493.019 150.186C497.717 149.402 477.391 169.017 477.381 170.836C478.225 170.757 479.068 170.68 479.909 170.605C478.543 171.726 477.165 172.86 475.772 174.008ZM419.079 19.364C418.335 17.4544 421.057 16.3117 421.611 14.8622C422.378 12.845 419.349 5.65985 423.702 11.2791C422.139 14.0112 420.652 16.6405 419.079 19.364ZM387.859 51.7687C389.953 50.8274 391.831 54.5807 389.482 54.8292C389.217 54.8556 385.018 53.0611 387.859 51.7687ZM403.395 36.5526C403.38 36.6492 402.113 37.9705 402.041 37.9609C399.815 38.1677 403.578 34.262 403.395 36.5526ZM335.382 117.021C336.791 115.195 333.057 114.083 333.18 116.121C333.188 116.25 335.287 117.139 335.382 117.021ZM336.542 115.865C340.086 116.638 337.676 109.736 336.277 112.267C336.145 112.513 336.374 115.822 336.542 115.865ZM393.85 47.1983C394.613 48.166 392.751 49.4282 391.957 49.9037C391.134 49.1679 393.353 47.9819 393.85 47.1983ZM358.298 88.3462C358.947 89.0486 363.905 83.36 363.274 82.1787C362.922 83.3828 357.711 87.7208 358.298 88.3462ZM346.561 103.577C346.814 103.54 348.366 101.421 347.686 100.922C346.022 101.137 345.428 103.73 346.561 103.577ZM321.299 131.624C321.363 131.865 326.587 134.065 320.95 135.023C320.128 135.16 320.678 132.491 320.384 132.528C319.772 132.645 319.383 132.812 319.153 133.017C320.241 131.172 321.563 129.411 321.94 129.478C323.736 129.778 321.278 131.516 321.299 131.624ZM310.873 148.822C311.216 149.734 309 151.435 308.304 151.656C308.181 151.69 306.828 149.784 306.101 150.816C305.518 151.65 308.26 152.145 306.646 153.328C305.013 154.527 305.604 151.442 305.398 151.489C305.128 151.55 303.792 154.526 302.859 153.527C302.172 152.783 304.925 150.832 305.317 150.095C305.822 149.148 303.735 148.921 305.177 147.901C306.081 147.261 307.839 149.716 308.104 149.65C308.322 149.594 309.655 145.653 310.862 148.82C310.866 148.821 310.87 148.822 310.873 148.822ZM318.873 133.517C318.904 133.335 318.988 133.164 319.153 133.017C319.057 133.182 318.965 133.351 318.873 133.517ZM416.251 24.735C414.866 24.9602 416.018 21.7825 417.713 21.6256C418.474 22.2194 416.444 24.7266 416.251 24.735ZM319.348 136.565C316.697 138.358 317.506 135.971 318.873 133.517C318.697 134.533 320.233 135.966 319.348 136.565ZM378.019 68.8804C377.767 68.8336 377.453 68.6695 377.021 68.3052C377.713 68.4532 377.983 68.6488 378.019 68.8804ZM372.402 73.7578C372 76.8265 375.393 72.8564 374.435 72.0782C374.078 71.7807 372.421 73.6328 372.402 73.7578ZM333.274 119.123C333.555 119.061 334.994 125.247 335.62 118.701C333.283 120.392 334.847 117.798 334.477 117.528C333.688 116.935 332.238 119.252 331.072 120.631C330.715 121.054 330.386 121.379 330.116 121.469C330.723 122.534 331.261 122.031 331.752 121.241C332.297 120.388 332.804 119.229 333.27 119.127C333.271 119.126 333.273 119.124 333.274 119.123ZM285.428 174.111C284.87 172.705 286.576 171.544 287.563 170.616C288.127 172.018 286.425 173.176 285.428 174.111ZM36.4215 443.993C41.6857 435.145 46.8608 437.631 39.4538 443.523C39.2998 443.644 36.4853 444.836 36.4215 443.993ZM92.5008 379.198C94.9358 380.126 93.1845 382.679 91.1163 383.497C90.6486 383.683 87.6997 383.293 88.5983 381.551C90.7663 383.554 93.5614 382.103 92.5008 379.198ZM319.308 138.916C319.899 140.674 317.105 142.004 315.95 142.895C315.554 141.353 318.059 139.525 319.308 138.916ZM59.4253 419.902C60.2387 419.208 59.0662 417.302 58.8132 417.331C57.6638 417.451 57.7304 420.061 59.4253 419.902ZM325.57 132.441C326.379 132.995 324.566 136.37 322.613 134.949C323.285 134.471 325.062 132.095 325.57 132.441ZM287.72 172.748C288.48 172.662 287.045 175.466 286.056 175.799C285.358 175.034 287.226 172.804 287.72 172.748ZM69.7365 406.477C70.4751 405.891 72.0343 404.148 71.5539 403.392C70.9466 402.453 68.9971 405.303 69.7365 406.477ZM-27.7679 573.283C-28.1735 573.316 -29.9734 569.053 -28.8747 567.584C-26.7955 564.836 -27.4921 573.261 -27.7679 573.283ZM53.9423 428.325C50.5066 429.365 54.0976 428.031 52.3703 426.794C51.0493 428.296 47.8396 432.122 51.625 430.745C52.3507 430.487 53.2456 428.965 53.9423 428.325ZM56.2363 426.629C55.9054 425.946 55.6117 422.881 54.5362 424.443C54.0417 425.168 55.0289 427.768 56.2363 426.629ZM-22.6407 550.203C-20.0798 547.995 -24.5283 560.195 -24.9031 560.459C-25.121 560.602 -25.3127 560.686 -25.4655 560.721C-25.0139 561.335 -25.5218 563.694 -27.0493 563.59C-26.7474 562.919 -26.3704 560.966 -26.1488 560.784C-26.0546 560.706 -25.971 560.651 -25.8923 560.618C-26.9563 559.456 -23.1504 550.622 -22.6407 550.203ZM-8.9135 521.928C-8.09614 526.433 -12.6393 525.047 -12.6259 524.665C-12.4898 520.055 -10.5999 524.062 -10.3866 523.995C-10.0312 523.88 -10.1625 520.579 -8.91884 521.939C-8.91707 521.935 -8.91528 521.932 -8.9135 521.928ZM-20.6707 546.181C-20.6523 546.331 -21.5497 548.898 -21.6506 548.985C-23.1436 550.173 -22.3665 546.977 -21.5479 545.885C-20.951 544.729 -20.1254 540.864 -19.4152 539.774C-18.979 539.238 -18.611 539.159 -18.5768 540.115C-19.277 541.19 -20.0909 545 -20.6794 546.14C-20.6765 546.154 -20.6736 546.167 -20.6707 546.181ZM303.092 162.001C301.584 162.926 301.465 160.518 302.692 160.12C302.8 160.094 304.422 161.186 303.092 162.001ZM56.8159 425.181C57.3336 425.044 65.1941 417.473 62.7841 416.293C62.3796 417.235 53.5416 425.862 56.8159 425.181ZM109.874 365.076C108.6 366.441 108.148 363.274 109.504 363.155C110.007 363.111 110.194 364.731 109.874 365.076ZM330.548 130.291C330.774 128.02 333.896 131.352 331.669 131.489C331.581 131.494 330.539 130.38 330.548 130.291ZM98.7721 375.215C101.975 369.426 106.75 375.801 99.2067 380.255C99.1254 379.823 99.0445 379.391 98.964 378.958C91.529 385.519 98.1192 379.067 99.3609 377.033C99.8329 376.258 98.3606 375.942 98.7611 375.213C98.7647 375.214 98.7684 375.214 98.7721 375.215ZM116.647 357.919C121.896 357.428 119.507 359.765 116.665 362.251C114.969 363.746 113.124 365.294 112.48 366.391C113.013 362.408 116.226 359.423 110.498 362.193C111.715 360.715 112.634 359.76 113.322 359.176C115.656 357.213 115.271 359.655 115.553 359.56C115.973 359.409 116.293 357.95 116.647 357.919ZM105.622 370.024C105.495 370.405 102.814 371.681 102.296 372.53C101.799 370.247 106.44 367.483 105.622 370.024ZM2.08652 499.726C3.22205 500.723 3.80753 501.856 2.08382 503.654C1.82436 502.63 2.0837 500.953 2.08652 499.726ZM426.32 22.91C427.311 21.8956 429.486 20.1692 427.751 19.8067C427.597 19.7836 425.658 22.3351 426.32 22.91ZM77.9342 401.904C78.253 401.805 83.7162 395.684 80.62 396.752C79.6625 397.093 75.0111 402.815 77.9342 401.904ZM50.4159 434.713C50.8595 434.181 52.4611 431.74 52.2108 431.492C51.4013 430.556 49.6892 433.755 50.4159 434.713ZM431.977 18.5185C432.219 18.4708 434.684 15.0798 433.845 14.9595C432.198 14.8087 431.185 18.6393 431.977 18.5185ZM301.382 168.915C301.178 169.212 299.678 168.45 299.58 168.527C299.373 168.716 295.309 173.936 295.525 170.682C295.576 170.125 302.588 163.829 303.591 163.053C305.54 164.217 301.218 165.742 300.723 166.601C300.638 166.756 301.915 168.105 301.377 168.906C301.378 168.909 301.38 168.912 301.382 168.915ZM-3.14025 511.758C-2.08692 512.685 -5.93356 521.787 -7.35021 520.891C-5.99784 517.821 -4.5645 514.73 -3.14025 511.758ZM-0.533831 507.66C1.33319 506.428 -0.73877 510.656 -1.81742 511.692C-2.66452 511.253 -0.786484 507.794 -0.533831 507.66ZM64.4124 425.832C64.6694 424.978 61.4739 425.622 61.5246 424.932C61.561 424.495 63.3283 423.563 63.211 422.695C63.1599 422.436 60.4646 422.663 60.1849 423.135C59.7811 423.802 61.4306 424.192 60.9057 424.846C59.2035 426.969 56.6815 428.344 55.0601 430.387C54.9145 430.574 56.9106 429.817 55.6223 431.384C55.4163 431.639 53.0321 432.039 51.6366 434.159C52.1238 441.484 45.8253 441.591 43.0036 448.151C43.5655 448.182 47.6726 444.945 47.9087 444.724C52.1555 440.608 58.5336 432.803 62.3972 428.122C63.3524 426.964 62.0794 426.862 62.4616 426.336C62.7668 425.92 63.876 427.629 64.4124 425.832ZM426.662 24.1737C428.584 24.9017 429.146 22.3203 430.152 21.2732C428.484 20.5394 427.945 23.3143 426.662 24.1737ZM22.6515 474.491C23.0666 473.767 25.0643 471.959 24.7192 471.438C24.2552 470.77 21.6651 473.596 22.6515 474.491ZM275.451 195.487C275.439 195.577 274.101 196.829 274.013 196.833C271.763 196.935 275.768 193.199 275.451 195.487ZM244.996 226.73C244.206 227.896 243.677 229.321 242.219 228.566C243.005 228.097 244.316 225.855 244.996 226.73ZM203.052 270.327C204.736 271.551 200.866 273.644 200.185 274.085C199.727 273.239 201.835 269.449 203.052 270.327ZM7.80125 502.785C6.11569 505.324 9.13366 506.375 6.95793 507.26C6.60336 507.392 0.483591 504.945 4.27462 503.36C4.96164 503.073 5.06428 505.88 7.80125 502.785ZM98.2314 381.248C98.7927 382.666 97.0785 383.98 96.0544 384.968C95.5062 384.059 97.6178 382.08 98.2314 381.248ZM438.037 13.6625C440.284 13.9697 442.572 8.94372 440.748 9.15719C440.521 9.17353 438.578 13.1251 438.037 13.6625ZM319.583 147.799C319.202 150.446 322.625 147.433 322.555 145.319C322.164 145.887 319.612 147.621 319.583 147.799ZM213.966 260.618C213.935 260.741 212.148 262.384 212.019 262.41C209.5 262.741 214.552 258.086 213.966 260.618ZM256.762 218.098C257.06 219.589 252.377 223.012 250.593 223.065C250.127 220.918 256.384 216.241 256.762 218.098ZM13.5228 492.042C12.4467 493.818 11.0228 495.331 9.5641 496.633C8.85958 495.765 12.7641 491.755 13.5228 492.042ZM207.891 267.11C207.795 267.197 207.622 267.205 207.526 267.286C207.648 267.224 207.773 267.168 207.891 267.11ZM40.1514 455.682C41.4958 454.598 39.7564 453.707 39.6456 453.755C38.3781 454.39 38.6368 456.906 40.1514 455.682ZM429.959 24.6895C431.637 25.3918 432.166 22.6618 433.433 21.7885C432.086 21.2625 430.58 23.6658 429.959 24.6895ZM123.762 355.466C126.493 355.288 122.612 362.697 120.601 363.094C119.638 362.418 123.393 355.48 123.762 355.466ZM326.19 144.469C327.298 145.275 328.235 141.822 327.303 141.886C326.716 141.922 325.508 143.961 326.19 144.469ZM117.277 365.536C117.064 366.383 114.874 366.785 114.693 365.771C114.462 364.47 117.323 365.31 117.277 365.536ZM72.8783 417.56C73.2458 417.443 75.1436 413.03 72.8573 413.586C71.2682 413.972 72.6397 415.398 72.4454 415.638C72.2062 415.907 65.7031 419.916 72.8783 417.56ZM155.105 323.852C154.345 325.412 152.534 326.438 151.381 327.708C151.248 326.625 153.807 323.594 155.105 323.852ZM318.051 153.828C318.75 153.89 326.104 146.413 320.822 149.637C320.526 149.818 316.026 153.561 318.051 153.828ZM7.80125 502.785C8.01977 502.456 8.294 502.133 8.66663 501.783C8.3652 502.173 8.0675 502.482 7.80125 502.785ZM26.0595 475.507C26.4936 476.609 28.5963 474.093 28.747 472.98C27.931 472.035 25.9884 475.362 26.0595 475.507ZM152.295 328.754C152.033 329.854 150.342 330.759 149.538 331.705C149.013 330.919 151.331 328.41 152.295 328.754ZM201.092 279.268C199.337 280.302 197.848 282.211 198.634 283.019C198.479 282.926 198.279 282.865 198.034 282.848C197.79 282.834 196.715 284.706 195.808 285.094C190.372 287.446 209.461 268.979 201.078 282.272C201.082 281.271 201.087 280.27 201.092 279.268ZM264.014 214.368C265.771 214.518 266.667 211.097 265.722 211.303C265.07 211.449 262.252 214.211 264.014 214.368ZM235.142 245.568C235.548 245.499 236.956 242.654 236.49 242.097C234.735 242.821 233.277 245.865 235.142 245.568ZM271.033 209.361C271.658 209.007 270.669 206.841 270.544 206.833C269.473 206.784 269.344 209.345 271.033 209.361ZM16.0842 500.737C17.2128 500.126 17.9046 496.08 17.1205 494.613C17.4378 494.642 17.9626 494.51 18.7339 494.137C18.7327 494.138 18.7315 494.14 18.7302 494.142C19.7237 493.403 36.9417 469.689 23.4264 484.274C23.0044 484.734 24.5786 484.746 22.9403 486.749C22.8316 486.879 21.8974 486.35 21.5626 486.753C20.8089 487.648 16.6843 492.652 16.7339 494.179C16.5616 494.08 16.3587 494.046 16.1187 494.098C13.9216 494.634 15.1771 501.253 16.0842 500.737ZM231.119 250.025C231.827 249.862 232.894 248.212 232.353 247.413C231.356 247.78 229.472 250.401 231.119 250.025ZM321.118 156.22C322.527 155.843 323.554 152.593 322.354 152.754C321.624 152.845 319.502 156.651 321.118 156.22ZM244.148 235.773C238.411 240.123 243.036 237.059 243.278 238.804C243.569 237.793 243.859 236.783 244.148 235.773ZM-6.27777 533.771C-5.38125 532.606 -3.59513 535.224 -5.64876 536.159C-6.29997 536.454 -6.76721 534.409 -6.27777 533.771ZM-22.7121 592.129C-21.493 592.261 -21.3616 592.737 -21.6134 592.663C-21.87 592.608 -22.5314 592.135 -23.3884 592.093C-23.4176 592.093 -23.3021 592.206 -23.1357 592.211C-22.9722 592.226 -22.7598 592.129 -22.7121 592.129ZM-12.82 557.159C-14.1835 555.904 -14.2247 555.31 -13.1764 553.112C-13.6962 556.659 -11.3986 553.879 -12.82 557.159ZM198.777 283.127C198.72 283.09 198.677 283.063 198.634 283.019C198.688 283.051 198.733 283.087 198.777 283.127ZM275.327 204.247C276.951 204.571 278.586 202.71 277.059 202.272C276.916 202.233 274.832 203.27 275.327 204.247ZM17.1205 494.613C16.8393 494.586 16.7395 494.442 16.7339 494.179C16.8961 494.272 17.0133 494.415 17.1205 494.613ZM266.926 214.677C266.236 213.89 263.314 216.352 263.302 216.541C263.108 219.357 265.884 215.855 266.926 214.677ZM338.797 139.116C338.842 138.904 336.035 137.992 336.313 139.254C336.53 140.234 338.633 139.914 338.797 139.116ZM-14.2802 565.145C-14.617 566.417 -15.0754 568.197 -16.3984 568.209C-15.9911 567.406 -15.1831 564.885 -14.2802 565.145ZM-20.7486 591.541C-20.9174 591.326 -21.0449 591.074 -21.1319 590.773C-21.6894 589.136 -21.0648 586.728 -20.4463 585.08C-18.7705 585.465 -20.3662 589.172 -20.6954 590.882C-20.7528 591.173 -20.7729 591.387 -20.7486 591.541ZM13.4697 503.531C13.5882 503.485 15.9362 500.841 14.566 500.537C12.5341 500.112 12.3414 503.983 13.4697 503.531ZM333.917 142.359C333.697 143.954 337.829 143.585 337.151 141.11C336.81 139.837 333.96 142.087 333.917 142.359ZM282 199.906C282.671 198.091 278.641 200.338 279.224 201.734C279.863 201.225 281.763 200.547 282 199.906ZM241.202 244.46C247.968 243.195 240.601 240.338 240.373 241.498C240.342 241.662 241.04 244.493 241.202 244.46ZM452.79 8.2744C452.843 7.33073 449.483 8.27076 450.262 9.40855C450.759 10.1098 452.762 8.86979 452.79 8.2744ZM180.565 303.701C180.721 303.519 180.876 303.339 181.031 303.161C180.956 303.334 180.81 303.516 180.565 303.701ZM296.937 191.96C290.156 190.913 293.587 193.612 293.337 193.842C292.785 194.334 290.498 194.528 289.717 195.713C290.359 194.116 290.996 192.523 291.628 190.934C290.467 191.571 281.452 198.034 281.95 198.835C282.667 199.97 284.741 197.2 284.892 197.208C285.109 197.217 288.101 199.325 288.42 199.19C288.926 198.98 295.297 192.385 296.937 191.96ZM248.882 235.581C247.948 235.932 246.736 235.121 246.693 235.661C246.679 235.845 247.649 236.81 247.566 237.406C248.005 236.798 248.444 236.19 248.882 235.581ZM298.082 183.374C300.061 183.716 296.179 186.896 295.929 186.887C294.519 186.727 296.471 183.09 298.082 183.374ZM269.111 214.15C269.309 214.085 272.333 211.681 271.641 211.063C270.433 211.302 266.738 214.862 269.111 214.15ZM247.217 237.904C246.165 238.767 243.399 239.653 245.087 240.871C245.088 240.87 245.089 240.868 245.091 240.867C245.8 239.879 246.509 238.891 247.217 237.904ZM334.081 148.63C338.141 149.055 334.309 147.101 332.072 147.976C332.715 149.454 333.419 148.563 334.081 148.63ZM341.181 144.479C342.057 144.399 346.311 138.729 344.295 138.368C343.595 138.222 341.998 142.315 341.809 142.342C341.49 142.428 340.921 140.197 339.776 142.026C340.342 142.37 340.879 144.518 341.181 144.479ZM336.987 148.567C340.499 148.424 337.464 144.919 336.21 146.275C335.715 146.805 336.486 148.582 336.987 148.567ZM329.957 155.643C330.852 155.316 332.949 153.98 332.91 151.759C331.348 153.266 329.767 154.789 328.224 156.268C328.693 157.039 329.159 155.943 329.961 155.639C329.96 155.64 329.958 155.641 329.957 155.643ZM-7.63583 592.469C-7.40373 593.228 -6.84794 593.245 -6.44876 593.155C-6.04025 593.055 -5.82812 592.904 -5.93145 592.781C-6.27077 592.367 -6.69913 592.062 -7.06692 592.001C-7.42904 591.932 -7.73962 592.132 -7.63583 592.469ZM494.876 22.7014C495.624 22.5984 497.186 23.3854 497.222 21.9001C495.493 22.0431 493.754 22.1968 491.995 22.3719C493.658 24.93 494.057 22.8074 494.876 22.7014ZM506.043 25.6605C505.989 25.8407 510.069 27.8644 506.351 27.7657C503.862 27.6757 507.357 20.116 509.846 20.1357C509.554 21.9925 506.504 24.1609 506.043 25.6605ZM530.087 26.2596C530.428 26.4004 528.916 29.1848 528.485 29.3275C526.276 30.011 528.287 25.4773 530.087 26.2596ZM523.24 33.618C524.825 33.0047 523.269 35.8791 522.256 36.3556C521.553 35.9088 523.011 33.7064 523.24 33.618ZM54.4967 605.047C57.8174 604.205 51.8215 601.288 52.5176 603.979C52.5498 604.108 54.3366 605.078 54.4967 605.047ZM531.74 31.4426C530.143 32.0804 531.743 29.1291 532.712 28.695C533.426 29.1258 531.989 31.3301 531.74 31.4426ZM61.7684 605.658C64.3861 604.11 57.1053 603.117 56.7579 603.3C55.3755 604.068 57.2634 608.424 57.7602 609.374C58.0631 603.56 60.5287 606.403 61.7684 605.658ZM59.7699 595.321C59.4659 593.294 56.8603 597.64 58.6189 599.041C58.7499 598.088 59.8605 595.892 59.7699 595.321ZM64.8304 584.952C65.3351 584.059 66.7035 581.397 65.727 580.617C65.6416 581.707 63.7926 584.241 64.8304 584.952ZM68.735 583.686C70.6435 582.614 66.3468 581.064 67.1917 583.133C67.2244 583.213 68.6365 583.718 68.735 583.686ZM72.6217 575.863C74.6387 575.403 70.7227 573.082 70.156 574.606C69.9947 575.066 72.3931 575.907 72.6217 575.863ZM70.0332 604.947C71.1497 603.643 68.5438 600.993 67.4387 604.075C67.2404 602.846 67.0405 601.624 66.8379 600.418C64.1201 604.101 68.4431 604.864 67.9758 606.019C67.3135 607.654 63.8333 606.671 62.8149 606.058C63.8149 607.118 63.8324 609.413 63.5365 611.94C63.3389 613.83 62.6537 617.004 61.8898 619.896C63.2589 617.263 64.6818 614.255 65.7323 612.489C66.8164 610.583 67.8336 608.721 68.4787 607.31C68.8508 606.503 68.0862 605.451 68.3666 604.765C68.8211 603.669 69.9621 605.018 70.0318 604.952C70.0323 604.95 70.0328 604.948 70.0332 604.947ZM75.2433 570.055C78.1949 568.657 73.5242 568.131 73.5888 569.839C73.617 569.921 75.17 570.092 75.2433 570.055ZM544.961 36.374C540.864 38.6139 540.873 34.6357 538.252 44.005C538.511 39.4093 536.895 42.6634 536.513 41.4281C536.212 40.4503 538.127 39.1385 535.992 39.1137C538.51 38.8994 542.602 32.8234 543.015 32.7761C543.014 32.7785 543.012 32.7808 543.01 32.7832C543.266 32.7434 546.262 35.6602 544.961 36.374ZM76.0283 587.902C81.4707 588.343 73.327 585.775 78.1257 585.093C72.5412 580.943 76.311 591.859 70.7471 591.664C74.0012 581.591 63.7659 597.104 73.5233 591.965C69.149 597.141 74.0152 594.145 74.7948 595.309C75.6261 596.546 73.6186 599.643 75.6045 599.953C75.605 599.951 75.6054 599.949 75.6059 599.948C75.9815 597.833 76.3563 595.749 76.7351 593.692C72.0446 594.621 74.3589 590.765 78.1259 590.28C77.4248 589.491 76.7263 588.695 76.0283 587.902ZM69.1608 598.469C69.3068 598.276 69.8415 593.619 68.9293 593.705C68.2411 594.149 67.2925 600.777 69.1608 598.469ZM63.3202 623.773C64.7555 620.094 66.7234 615.898 65.4153 614.431C64.9042 616.521 62.6077 621.201 63.3202 623.773ZM92.052 547.611C91.9906 545.204 88.3688 550.212 90.6614 549.539C90.7732 549.498 92.0569 547.716 92.052 547.611ZM76.4618 583.175C78.6005 581.6 73.2982 581.158 74.2003 583.017C74.254 583.125 76.3646 583.246 76.4618 583.175ZM543.328 39.4991C544.223 40.4378 539.711 44.7359 539.002 45.649C538.492 44.379 542.259 38.4881 543.328 39.4991ZM64.7123 632.467C68.8706 629.429 70.5604 624.35 70.7826 621.029C71.0464 617.617 70.1539 615.685 70.304 615.368C70.5825 614.755 72.2748 616.264 72.3631 616.136C72.4297 616.031 72.6687 615.117 72.8648 614.272C73.2904 612.46 73.7958 609.944 73.7479 609.748C73.688 609.533 70.6986 609.851 70.1082 608.512C70.4828 609.453 70.2631 611.363 69.8107 613.509C69.3335 616.697 65.8436 626.228 65.5669 626.971C65.3252 628.024 71.2972 622.152 64.7195 632.453C64.7171 632.458 64.7147 632.462 64.7123 632.467ZM71.2709 614.055C70.7271 614.463 70.4947 614.185 70.4402 613.666C70.3566 612.699 70.8442 610.892 71.2619 610.36C72.5868 608.684 71.682 612.925 71.3461 613.892C71.3142 613.983 71.2877 614.042 71.2709 614.055ZM74.5947 605.079C74.959 604.702 76.1048 601.018 74.8988 600.399C72.8093 601.727 73.7604 605.889 74.5947 605.079ZM84.2316 572.236C84.4483 571.403 86.3354 569.933 85.3891 569.258C85.1404 570.097 83.2577 571.595 84.2316 572.236ZM537.955 62.5086C539.817 61.73 537.541 65.1959 536.459 65.7987C535.817 65.3701 537.791 62.5816 537.955 62.5086ZM87.188 585.765C87.4676 585.508 88.2906 581.759 88.9787 578.312L87.2879 583.157C87.7738 581.344 88.267 579.542 88.2715 578.98C87.7225 579.287 86.7504 580.898 85.9453 582.611L87.5879 577.904C86.4798 581.178 85.5561 584.826 85.7144 585.172C85.798 585.348 87.1163 585.818 87.188 585.765ZM81.5022 610.351C82.8766 611.886 80.712 612.161 80.6518 612.299C80.2053 613.312 79.8775 615.314 79.1473 615.843C78.9016 616.006 78.6056 616.01 78.2417 615.743C78.2618 615.706 78.2813 615.669 78.3002 615.631C79.5289 613.049 78.8132 607.358 81.5022 610.351ZM91.4228 575.033C92.2619 571.941 87.9585 576.576 89.9333 576.612C90.0446 576.623 91.3237 575.375 91.4228 575.033ZM87.3352 587.1C88.4179 588.229 84.4415 598.846 83.9955 600.756C81.9431 598.512 84.1344 597.668 84.5531 595.499C84.6636 594.913 83.6043 594.805 83.6185 594.743C83.827 593.732 84.8136 594.782 84.9891 594.173C85.0848 593.769 85.7721 585.436 87.3352 587.1ZM82.4874 611.278C82.9029 611.767 82.6698 614.252 82.2665 616.622C81.9902 618.453 81.0718 621.938 80.8648 622.174C79.1216 624.481 80.4218 618.763 80.945 616.292C81.5058 613.882 82.2675 611.516 82.4874 611.278ZM89.7762 586.708C92.2923 588.626 88.9658 593.461 88.5269 589.418C88.491 589.035 90.1217 587.889 89.7762 586.708ZM93.7814 576.583C93.9192 576.48 95.9277 573.836 95.1272 573.363C94.5561 573.632 92.1505 577.723 93.7814 576.583ZM95.9206 579.418C95.935 579.338 93.9933 579.208 94.8248 578.017C94.8972 577.922 96.8179 578.59 96.9825 576.615C97.0155 576.21 96.1012 575.054 96.0076 575.053C92.1891 575.454 95.2731 583.229 95.9206 579.418ZM84.0495 611.81C84.9835 611.593 87.2068 613.205 85.7284 613.83C85.0908 614.096 83.7939 612.983 84.0495 611.81ZM99.5498 567.541C99.8628 570.086 103.334 564.646 103.198 564.145C102.258 563.828 99.5243 567.262 99.5498 567.541ZM544.637 73.1826C544.638 73.1809 544.639 73.1793 544.641 73.1777C542.96 74.7042 542.835 72.8175 542.738 72.8732C538.304 75.3618 541.347 76.2125 541.145 77.0077C540.699 78.7308 538.14 76.2831 537.591 79.2735C538.683 74.5102 536.872 78.1685 535.816 77.4755C531.527 74.625 541.38 74.4429 541.936 72.0383C542.016 71.7034 539.3 72.4593 539.435 71.5522C539.9 68.5831 551.023 67.3762 544.637 73.1826ZM85.769 614.605C86.1738 615.066 86.0683 616.215 85.7095 617.483C85.1647 619.552 82.3482 625.965 82.3763 622.898C82.4002 622.52 83.2103 618.56 83.6431 616.967C84.1644 615.088 84.8887 613.593 85.769 614.605ZM279.865 362.123C279.553 364.327 283.558 362.375 283.368 361.11C283.271 360.482 280.003 361.155 279.865 362.123ZM304.293 344.805C305.596 343.072 303.259 337.665 302.007 340.179C301.876 340.448 303.579 344.459 304.293 344.805ZM205.796 444.326C205.831 444.322 205.866 444.318 205.899 444.314C208.617 444 205.931 441.718 204.908 442.904C204.793 443.038 204.831 443.23 204.939 443.431C205.17 443.866 205.732 444.333 205.796 444.326ZM263.504 382.496C263.753 382.418 265.376 380.392 264.71 379.888C263.7 380.223 261.872 382.949 263.504 382.496ZM205.697 445.192C206.109 443.783 202.651 443.687 203.458 446.583C203.848 445.847 205.654 445.336 205.697 445.192ZM98.5689 584.882C97.7754 583.951 98.0917 582.459 98.4421 581.089L96.424 586.871C96.5591 586.478 96.7105 586.086 96.7749 585.728C97.574 586.007 97.6102 586.647 97.4401 587.284L99.4947 581.397C99.2257 582.684 98.557 584.21 98.5689 584.882ZM296.375 349.87C296.813 347.465 292.991 349.835 294.556 350.788C294.665 350.816 296.361 349.967 296.375 349.87ZM160.379 497.03C160.396 495.22 156.359 497.662 158.693 498.005C158.799 498.005 160.387 497.12 160.379 497.03ZM147.617 511.588C148.6 510.975 151.294 507.449 149.339 508.091C149.05 508.174 146.848 510.868 147.617 511.588ZM542.134 77.9818C544.058 78.7418 541.394 81.2748 540.8 81.4555C540.57 81.5124 539.6 77.0327 542.134 77.9818ZM215.671 434.109C216.267 433.105 218.649 431.24 218.232 430.17C217.469 431.301 213.895 432.991 215.671 434.109ZM289.938 356.564C292.709 356.776 294.661 354.445 292.125 353.042C289.937 355.583 294.222 354.492 289.938 356.564ZM202.487 452.116C203.209 451.566 201.689 449.244 201.527 449.233C199.978 449.142 201.116 452.067 202.487 452.116ZM247.801 400.478C248.668 401.233 250.342 398.722 249.533 398.498C249.262 398.422 247.097 399.869 247.801 400.478ZM109.71 565.407C111.183 565 110.299 568.432 108.762 568.638C107.005 568.134 109.509 565.494 109.71 565.407ZM185.38 470.16C186.571 471.386 188.782 467.437 186.567 467.805C186.009 467.901 184.988 469.742 185.38 470.16ZM159.261 503.836C159.56 500.259 150.601 508.922 154.626 508.006C154.92 507.926 159.235 504.132 159.261 503.836ZM145.68 518.65C146.173 518.387 150.507 522.143 147.492 522.405C147.098 522.442 146.693 520.505 146.284 520.465C146.033 520.46 142.661 523.469 142.649 523.708C142.63 523.981 144.245 524.896 144.267 525.203C144.287 525.552 141.306 526.77 140.433 527.883C138.799 529.969 139.815 531.167 139.689 531.34C139.303 531.865 137.778 532.081 137.005 533.113C133.042 538.376 128.38 547.066 122.903 549.324C126.524 546.377 127.845 542.145 130.239 538.147C132.012 541.116 132.221 531.308 132.393 537.279C132.978 535.014 144.017 519.532 145.677 518.654C145.678 518.653 145.679 518.651 145.68 518.65ZM311.351 339.798C311.84 342.11 316.241 336.911 315.012 334.925C314.163 335.353 311.306 339.526 311.351 339.798ZM293.069 365.644C292.875 366.332 295.212 369.418 291.528 370.448C291.526 370.45 291.524 370.452 291.522 370.454C290.446 370.756 290.536 369.319 290.174 369.215C290.031 369.168 286.578 370.012 288.087 368.003C290.391 364.934 290.385 369.719 291.824 368.283C291.997 368.108 293.181 363.893 292.696 363.742C292.643 363.721 292.153 364.86 291.884 364.867C290.871 364.896 290.255 363.814 290.144 363.848C289.805 363.99 287.054 369.78 285.166 369.18C284.546 368.997 290.526 360.88 291.006 360.812C291.312 360.765 293.627 363.14 294.039 363.183C294.245 363.202 296.134 359.451 296.717 359.286C296.885 359.238 297.034 359.221 297.149 359.214C295.988 358.94 298.569 356.369 299.325 357.252C299.608 357.613 297.679 359.236 297.56 359.245C297.508 359.25 297.451 359.243 297.406 359.244C298.662 359.741 292.751 365.796 295.358 365.77C294.39 368.244 293.637 363.623 293.069 365.644ZM286.363 375.56C286.287 375.136 286.212 374.711 286.137 374.286C283.761 377.987 279.15 380.362 275.722 383.951C274.855 384.855 277.391 385.292 275.834 386.072C274.588 386.697 272.158 386.373 272.333 385.554C272.373 385.353 275.152 384.317 275.987 383.257C278.451 380.125 276.441 379.579 276.566 379.378C276.712 379.151 279.354 378.257 280.256 377.236C282.514 374.673 282.809 372.746 287.101 370.402C286.099 373.181 289.017 373.924 286.363 375.56ZM176.891 487.766C177.685 488.607 175.124 490.023 174.625 490.868C173.839 490.011 176.403 488.592 176.891 487.766ZM464.342 182.427C463.509 180.519 458.838 185.087 461.153 184.844C461.67 184.787 463.797 183.023 464.342 182.427ZM443.895 203.691C443.695 204.699 447.085 202.945 445.987 201.979C445.635 201.669 443.923 203.558 443.895 203.691ZM246.826 414.202C246.756 414.361 244.834 415.775 244.715 415.761C242.185 415.514 248.359 410.692 246.826 414.202ZM421.203 232.284C422.412 229.14 415.627 235.727 418.743 234.671C418.899 234.615 421.148 232.434 421.203 232.284ZM412.608 242.107C413.074 241.508 415.78 239.489 415.385 239.067C414.749 238.386 411.702 240.742 412.608 242.107ZM207.356 457.366C209.15 458.555 205.254 460.444 204.469 461.712C202.664 460.532 206.626 458.564 207.356 457.366ZM226.141 439.325C215.506 453.23 214.755 447.344 226.085 437.866C227.097 438.782 226.806 438.457 226.141 439.325ZM210.835 455.508C210.251 454.126 211.881 452.945 212.872 452.028C213.404 452.849 211.296 454.64 210.835 455.508ZM471.738 178.471C472.293 180.447 467.339 182.846 467.402 181.701C467.438 181.431 471.31 177.526 471.738 178.471ZM247.13 416.527C248.912 417.654 244.671 420.902 244.046 420.894C241.578 420.813 247.174 417.142 247.13 416.527ZM192.482 476.663C193.084 478.43 190.742 479.825 189.643 481.047C189.091 479.572 191.509 477.718 192.482 476.663ZM201.369 468.595C201.353 468.705 199.701 470.329 199.569 470.366C197.123 470.723 201.79 466.124 201.369 468.595ZM558.701 80.5386C558.677 80.6518 557.408 82.0635 557.318 82.0778C555.034 82.4343 558.891 78.1468 558.701 80.5386Z" fill="black"/>
</mask>
<g mask="url(#mask0_45_2559)">
<path d="M580.449 630.421C565.875 622.767 551.943 638.984 537.269 634.933C481.089 619.424 476.943 532.708 419.707 506.535C309.013 455.933 176.788 504.332 124.978 614.472C71.8716 727.391 121.541 861.826 235.29 913.084C345.61 962.796 476.831 914.527 528.621 805.163C544.396 771.833 522.499 722.865 550.046 702.208C566.607 689.786 591.666 698.64 599.036 678.278C605.624 660.114 597.551 639.426 580.457 630.439L580.449 630.421Z" fill="#EA572A"/>
<path d="M580.436 843.791C585.773 841.291 588.072 834.938 585.572 829.601C583.072 824.264 576.719 821.965 571.382 824.465C566.045 826.965 563.746 833.318 566.246 838.655C568.746 843.992 575.099 846.291 580.436 843.791Z" fill="#EA572A"/>
<path d="M580.449 630.421C565.875 622.767 551.943 638.984 537.269 634.933C481.089 619.424 476.943 532.708 419.707 506.535C309.013 455.933 176.788 504.332 124.978 614.472C71.8716 727.391 121.541 861.826 235.29 913.084C345.61 962.796 476.831 914.527 528.621 805.163C544.396 771.833 522.499 722.865 550.046 702.208C566.607 689.786 591.666 698.64 599.036 678.278C605.624 660.114 597.551 639.426 580.457 630.439L580.449 630.421Z" stroke="#EA572A" stroke-miterlimit="10"/>
<path d="M580.436 843.791C585.773 841.291 588.072 834.938 585.572 829.601C583.072 824.264 576.719 821.965 571.382 824.465C566.045 826.965 563.746 833.318 566.246 838.655C568.746 843.992 575.099 846.291 580.436 843.791Z" stroke="#EA572A" stroke-miterlimit="10"/>
<path d="M151.964 695.558C149.18 695.558 147.788 694.142 147.788 691.31V649.406C147.788 647.774 148.196 646.67 149.012 646.094C149.876 645.47 151.124 645.158 152.756 645.158C154.964 645.158 156.644 646.118 157.796 648.038L170.54 669.35L183.14 648.11C183.812 646.91 184.58 646.118 185.444 645.734C186.356 645.35 187.532 645.158 188.972 645.158C191.804 645.158 193.22 646.574 193.22 649.406V691.31C193.22 694.142 191.804 695.558 188.972 695.558C186.14 695.558 184.724 694.142 184.724 691.31V659.63L174.572 677.198C173.564 679.166 172.196 680.15 170.468 680.15C168.74 680.15 167.372 679.166 166.364 677.198L156.14 659.63V691.31C156.14 694.142 154.748 695.558 151.964 695.558ZM217.805 696.35C212.765 696.35 208.685 694.838 205.565 691.814C202.445 688.742 200.885 684.206 200.885 678.206C200.885 674.462 201.581 671.246 202.973 668.558C204.365 665.822 206.309 663.734 208.805 662.294C211.301 660.806 214.157 660.062 217.373 660.062C220.589 660.062 223.325 660.806 225.581 662.294C227.837 663.782 229.565 665.702 230.765 668.054C231.965 670.406 232.565 672.854 232.565 675.398C232.565 677.174 232.205 678.35 231.485 678.926C230.765 679.454 229.709 679.718 228.317 679.718H208.877C209.069 683.174 209.981 685.646 211.613 687.134C213.245 688.574 215.357 689.294 217.949 689.294C220.877 689.294 223.157 688.286 224.789 686.27C225.749 685.262 226.637 684.614 227.453 684.326C228.317 683.99 229.229 684.158 230.189 684.83C231.149 685.502 231.701 686.366 231.845 687.422C231.989 688.478 231.557 689.582 230.549 690.734C228.917 692.702 227.045 694.142 224.933 695.054C222.821 695.918 220.445 696.35 217.805 696.35ZM209.237 673.454H224.573C224.189 671.198 223.349 669.47 222.053 668.27C220.805 667.022 219.197 666.398 217.229 666.398C215.117 666.398 213.365 666.974 211.973 668.126C210.629 669.278 209.717 671.054 209.237 673.454ZM244.336 695.558C241.6 695.558 240.232 694.142 240.232 691.31V665.174C240.232 662.342 241.456 660.926 243.904 660.926C246.352 660.926 247.624 661.55 247.72 662.798L247.936 665.03C248.896 663.686 250.168 662.534 251.752 661.574C253.336 660.566 255.208 660.062 257.368 660.062C260.968 660.062 263.896 661.214 266.152 663.518C268.456 665.822 269.608 669.206 269.608 673.67V691.31C269.608 694.142 268.264 695.558 265.576 695.558C262.84 695.558 261.472 694.142 261.472 691.31V675.614C261.472 672.878 260.92 670.838 259.816 669.494C258.712 668.102 257.224 667.406 255.352 667.406C253.288 667.406 251.608 668.126 250.312 669.566C249.016 670.958 248.368 673.046 248.368 675.83V691.31C248.368 694.142 247.024 695.558 244.336 695.558ZM292.666 709.886C287.242 709.886 282.946 708.302 279.778 705.134C278.77 704.078 278.362 703.046 278.554 702.038C278.746 701.03 279.37 700.19 280.426 699.518C281.482 698.798 282.442 698.558 283.306 698.798C284.17 699.038 285.13 699.566 286.186 700.382C287.866 701.822 290.026 702.542 292.666 702.542C295.498 702.542 297.586 701.678 298.93 699.95C300.274 698.222 300.946 695.462 300.946 691.67V689.726C298.69 692.078 295.834 693.254 292.378 693.254C289.354 693.254 286.642 692.63 284.242 691.382C281.89 690.086 280.042 688.214 278.698 685.766C277.354 683.27 276.682 680.222 276.682 676.622C276.682 672.974 277.354 669.926 278.698 667.478C280.042 665.03 281.89 663.182 284.242 661.934C286.642 660.686 289.354 660.062 292.378 660.062C294.25 660.062 296.05 660.47 297.778 661.286C299.506 662.054 300.922 663.374 302.026 665.246V664.022C302.026 662.822 302.338 662.006 302.962 661.574C303.586 661.142 304.45 660.926 305.554 660.926C307.858 660.926 309.01 662.342 309.01 665.174V691.67C309.01 697.382 307.666 701.846 304.978 705.062C302.338 708.278 298.234 709.886 292.666 709.886ZM293.026 686.126C295.522 686.126 297.562 685.286 299.146 683.606C300.73 681.878 301.522 679.55 301.522 676.622C301.522 673.646 300.73 671.342 299.146 669.71C297.562 668.03 295.522 667.19 293.026 667.19C290.53 667.19 288.538 668.03 287.05 669.71C285.61 671.342 284.89 673.646 284.89 676.622C284.89 679.55 285.61 681.878 287.05 683.606C288.538 685.286 290.53 686.126 293.026 686.126ZM339.673 696.71C335.113 696.71 331.033 695.63 327.433 693.47C323.881 691.31 321.097 688.262 319.081 684.326C317.065 680.342 316.057 675.686 316.057 670.358C316.057 664.982 317.065 660.326 319.081 656.39C321.097 652.406 323.881 649.334 327.433 647.174C331.033 644.966 335.113 643.862 339.673 643.862C343.081 643.862 346.201 644.486 349.033 645.734C351.913 646.982 354.409 648.734 356.521 650.99C357.481 652.046 357.793 653.126 357.457 654.23C357.121 655.286 356.473 656.102 355.513 656.678L355.153 656.894C354.529 657.278 353.641 657.422 352.489 657.326C351.337 657.23 350.281 656.726 349.321 655.814C348.073 654.566 346.633 653.63 345.001 653.006C343.417 652.334 341.641 651.998 339.673 651.998C336.697 651.998 334.081 652.766 331.825 654.302C329.569 655.79 327.817 657.926 326.569 660.71C325.369 663.446 324.769 666.662 324.769 670.358C324.769 674.006 325.369 677.222 326.569 680.006C327.817 682.742 329.569 684.878 331.825 686.414C334.081 687.902 336.697 688.646 339.673 688.646C343.465 688.646 346.681 687.374 349.321 684.83C350.281 683.918 351.265 683.39 352.273 683.246C353.281 683.102 354.241 683.246 355.153 683.678L355.297 683.822C356.305 684.302 357.001 685.118 357.385 686.27C357.817 687.374 357.577 688.454 356.665 689.51C354.553 691.814 352.057 693.59 349.177 694.838C346.297 696.086 343.129 696.71 339.673 696.71ZM370.336 695.558C367.6 695.558 366.232 694.142 366.232 691.31V648.47C366.232 645.638 367.6 644.222 370.336 644.222C373.024 644.222 374.368 645.638 374.368 648.47V665.03C375.136 663.686 376.288 662.534 377.824 661.574C379.36 660.566 381.208 660.062 383.368 660.062C386.968 660.062 389.896 661.214 392.152 663.518C394.456 665.822 395.608 669.206 395.608 673.67V691.31C395.608 694.142 394.264 695.558 391.576 695.558C388.84 695.558 387.472 694.142 387.472 691.31V675.614C387.472 672.878 386.92 670.838 385.816 669.494C384.712 668.102 383.224 667.406 381.352 667.406C379.288 667.406 377.608 668.126 376.312 669.566C375.016 670.958 374.368 673.046 374.368 675.83V691.31C374.368 694.142 373.024 695.558 370.336 695.558ZM409.666 695.558C406.978 695.558 405.634 694.142 405.634 691.31V665.174C405.634 662.342 406.978 660.926 409.666 660.926C412.354 660.926 413.698 662.342 413.698 665.174V691.31C413.698 694.142 412.354 695.558 409.666 695.558ZM409.594 655.238C408.202 655.238 407.002 654.734 405.994 653.726C404.986 652.718 404.482 651.518 404.482 650.126C404.482 648.734 404.986 647.534 405.994 646.526C407.002 645.518 408.202 645.014 409.594 645.014C410.986 645.014 412.186 645.518 413.194 646.526C414.202 647.534 414.706 648.734 414.706 650.126C414.706 651.518 414.202 652.718 413.194 653.726C412.186 654.734 410.986 655.238 409.594 655.238ZM438.586 696.35C433.546 696.35 429.466 694.838 426.346 691.814C423.226 688.742 421.666 684.206 421.666 678.206C421.666 674.462 422.362 671.246 423.754 668.558C425.146 665.822 427.09 663.734 429.586 662.294C432.082 660.806 434.938 660.062 438.154 660.062C441.37 660.062 444.106 660.806 446.362 662.294C448.618 663.782 450.346 665.702 451.546 668.054C452.746 670.406 453.346 672.854 453.346 675.398C453.346 677.174 452.986 678.35 452.266 678.926C451.546 679.454 450.49 679.718 449.098 679.718H429.658C429.85 683.174 430.762 685.646 432.394 687.134C434.026 688.574 436.138 689.294 438.73 689.294C441.658 689.294 443.938 688.286 445.57 686.27C446.53 685.262 447.418 684.614 448.234 684.326C449.098 683.99 450.01 684.158 450.97 684.83C451.93 685.502 452.482 686.366 452.626 687.422C452.77 688.478 452.338 689.582 451.33 690.734C449.698 692.702 447.826 694.142 445.714 695.054C443.602 695.918 441.226 696.35 438.586 696.35ZM430.018 673.454H445.354C444.97 671.198 444.13 669.47 442.834 668.27C441.586 667.022 439.978 666.398 438.01 666.398C435.898 666.398 434.146 666.974 432.754 668.126C431.41 669.278 430.498 671.054 430.018 673.454ZM465.117 695.558C462.381 695.558 461.013 694.142 461.013 691.31V648.47C461.013 645.638 462.381 644.222 465.117 644.222C467.805 644.222 469.149 645.638 469.149 648.47V665.03C469.917 663.686 471.069 662.534 472.605 661.574C474.141 660.566 475.989 660.062 478.149 660.062C481.749 660.062 484.677 661.214 486.933 663.518C489.237 665.822 490.389 669.206 490.389 673.67V691.31C490.389 694.142 489.045 695.558 486.357 695.558C483.621 695.558 482.253 694.142 482.253 691.31V675.614C482.253 672.878 481.701 670.838 480.597 669.494C479.493 668.102 478.005 667.406 476.133 667.406C474.069 667.406 472.389 668.126 471.093 669.566C469.797 670.958 469.149 673.046 469.149 675.83V691.31C469.149 694.142 467.805 695.558 465.117 695.558ZM502.843 664.022C501.643 664.694 500.635 664.958 499.819 664.814C499.003 664.67 498.403 664.286 498.019 663.662C497.683 663.038 497.779 662.462 498.307 661.934C498.835 661.358 499.675 660.686 500.827 659.918C502.075 659.102 503.035 658.118 503.707 656.966C504.427 655.766 504.787 654.566 504.787 653.366C504.787 653.03 504.763 652.742 504.715 652.502C504.715 652.262 504.691 652.046 504.643 651.854C504.163 652.526 503.563 653.078 502.843 653.51C502.123 653.942 501.379 654.158 500.611 654.158C499.267 654.158 498.091 653.702 497.083 652.79C496.123 651.878 495.643 650.678 495.643 649.19C495.643 647.654 496.219 646.454 497.371 645.59C498.523 644.726 499.843 644.27 501.331 644.222C503.683 644.222 505.627 645.11 507.163 646.886C508.747 648.614 509.539 650.846 509.539 653.582C509.539 655.886 508.939 657.902 507.739 659.63C506.539 661.358 504.907 662.822 502.843 664.022ZM526.555 696.278C524.395 696.278 522.331 696.014 520.363 695.486C518.443 694.91 516.667 694.046 515.035 692.894C513.835 692.078 513.187 691.19 513.091 690.23C513.043 689.222 513.427 688.262 514.243 687.35C515.059 686.486 515.899 686.078 516.763 686.126C517.675 686.174 518.731 686.534 519.931 687.206C521.851 688.55 524.203 689.222 526.987 689.222C528.955 689.222 530.371 688.958 531.235 688.43C532.147 687.854 532.603 686.822 532.603 685.334C532.603 684.614 532.387 684.038 531.955 683.606C531.523 683.126 530.707 682.694 529.507 682.31C528.355 681.926 526.651 681.518 524.395 681.086C521.035 680.414 518.347 679.31 516.331 677.774C514.315 676.238 513.307 673.814 513.307 670.502C513.307 668.342 513.883 666.494 515.035 664.958C516.187 663.374 517.747 662.15 519.715 661.286C521.683 660.422 523.867 659.99 526.267 659.99C530.011 659.99 533.179 660.782 535.771 662.366C537.067 663.038 537.787 663.878 537.931 664.886C538.123 665.846 537.859 666.782 537.139 667.694C536.371 668.654 535.531 669.134 534.619 669.134C533.755 669.134 532.723 668.87 531.523 668.342C530.755 667.91 529.939 667.598 529.075 667.406C528.259 667.214 527.371 667.118 526.411 667.118C524.635 667.118 523.363 667.43 522.595 668.054C521.875 668.678 521.515 669.422 521.515 670.286C521.515 670.91 521.683 671.438 522.019 671.87C522.403 672.302 523.123 672.71 524.179 673.094C525.235 673.478 526.771 673.91 528.787 674.39C532.627 675.302 535.603 676.622 537.715 678.35C539.827 680.078 540.883 682.502 540.883 685.622C540.883 689.126 539.539 691.79 536.851 693.614C534.211 695.39 530.779 696.278 526.555 696.278ZM151.892 785.558C149.156 785.558 147.788 784.142 147.788 781.31V739.406C147.788 736.574 149.204 735.158 152.036 735.158H170.828C175.532 735.158 179.252 736.262 181.988 738.47C184.772 740.678 186.164 744.398 186.164 749.63C186.164 754.862 184.772 758.606 181.988 760.862C179.252 763.118 175.532 764.246 170.828 764.246H156.068V781.31C156.068 784.142 154.676 785.558 151.892 785.558ZM156.068 756.47H169.676C172.124 756.47 174.02 755.942 175.364 754.886C176.708 753.83 177.38 752.078 177.38 749.63C177.38 747.23 176.708 745.502 175.364 744.446C174.02 743.39 172.124 742.862 169.676 742.862H156.068V756.47ZM205.214 786.35C202.046 786.35 199.19 785.606 196.646 784.118C194.15 782.582 192.158 780.47 190.67 777.782C189.23 775.046 188.51 771.854 188.51 768.206C188.51 764.558 189.23 761.39 190.67 758.702C192.158 755.966 194.15 753.854 196.646 752.366C199.19 750.83 202.046 750.062 205.214 750.062C208.478 750.062 211.358 750.83 213.854 752.366C216.398 753.854 218.39 755.966 219.83 758.702C221.27 761.39 221.99 764.558 221.99 768.206C221.99 771.854 221.27 775.046 219.83 777.782C218.39 780.47 216.398 782.582 213.854 784.118C211.358 785.606 208.478 786.35 205.214 786.35ZM205.214 779.006C207.758 779.006 209.822 778.07 211.406 776.198C213.038 774.326 213.854 771.662 213.854 768.206C213.854 764.75 213.038 762.086 211.406 760.214C209.822 758.342 207.758 757.406 205.214 757.406C202.718 757.406 200.678 758.342 199.094 760.214C197.51 762.086 196.718 764.75 196.718 768.206C196.718 771.662 197.51 774.326 199.094 776.198C200.678 778.07 202.718 779.006 205.214 779.006ZM233.086 785.558C230.35 785.558 228.982 784.142 228.982 781.31V755.174C228.982 752.342 230.398 750.926 233.23 750.926C234.19 750.926 235.03 751.166 235.75 751.646C236.47 752.078 236.83 752.918 236.83 754.166V755.822C237.694 754.094 239.038 752.702 240.862 751.646C242.734 750.59 244.702 750.062 246.766 750.062C248.254 750.062 249.382 750.47 250.15 751.286C250.966 752.054 251.374 753.11 251.374 754.454C251.374 755.702 251.062 756.614 250.438 757.19C249.814 757.766 249.094 758.006 248.278 757.91C247.894 757.862 247.486 757.838 247.054 757.838C246.622 757.79 246.142 757.766 245.614 757.766C243.262 757.766 241.246 758.534 239.566 760.07C237.934 761.606 237.118 763.766 237.118 766.55V781.31C237.118 784.142 235.774 785.558 233.086 785.558ZM270.658 786.35C267.25 786.35 264.634 785.726 262.81 784.478C261.034 783.23 260.146 780.734 260.146 776.99V757.91H257.77C254.938 757.91 253.522 756.734 253.522 754.382C253.522 753.278 253.81 752.438 254.386 751.862C255.01 751.238 256.114 750.926 257.698 750.926H260.146V743.006C260.146 740.174 261.514 738.758 264.25 738.758C266.89 738.758 268.21 740.174 268.21 743.006V750.926H273.538C276.37 750.926 277.786 752.078 277.786 754.382C277.786 756.734 276.394 757.91 273.61 757.91H268.21V774.902C268.21 776.534 268.594 777.638 269.362 778.214C270.178 778.79 271.33 779.078 272.818 779.078C274.354 779.078 275.554 779.27 276.418 779.654C277.33 779.99 277.786 780.902 277.786 782.39C277.786 783.59 277.426 784.478 276.706 785.054C276.034 785.582 275.146 785.918 274.042 786.062C272.986 786.254 271.858 786.35 270.658 786.35ZM291.881 785.558C289.145 785.558 287.777 784.142 287.777 781.31V757.91H285.473C282.641 757.91 281.225 756.734 281.225 754.382C281.225 752.078 282.209 750.926 284.177 750.926H287.777V744.734C287.777 740.462 288.761 737.51 290.729 735.878C292.697 734.246 295.505 733.43 299.153 733.43C300.977 733.43 302.489 733.67 303.689 734.15C304.937 734.582 305.537 735.59 305.489 737.174C305.489 738.182 305.273 739.022 304.841 739.694C304.409 740.366 303.521 740.702 302.177 740.702C301.889 740.702 301.553 740.678 301.169 740.63C300.785 740.582 300.449 740.558 300.161 740.558C297.281 740.558 295.841 742.286 295.841 745.742V750.926H301.241C304.073 750.926 305.489 752.078 305.489 754.382C305.489 756.734 304.097 757.91 301.313 757.91H295.841V781.31C295.841 784.142 294.521 785.558 291.881 785.558ZM325.659 786.35C322.491 786.35 319.635 785.606 317.091 784.118C314.595 782.582 312.603 780.47 311.115 777.782C309.675 775.046 308.955 771.854 308.955 768.206C308.955 764.558 309.675 761.39 311.115 758.702C312.603 755.966 314.595 753.854 317.091 752.366C319.635 750.83 322.491 750.062 325.659 750.062C328.923 750.062 331.803 750.83 334.299 752.366C336.843 753.854 338.835 755.966 340.275 758.702C341.715 761.39 342.435 764.558 342.435 768.206C342.435 771.854 341.715 775.046 340.275 777.782C338.835 780.47 336.843 782.582 334.299 784.118C331.803 785.606 328.923 786.35 325.659 786.35ZM325.659 779.006C328.203 779.006 330.267 778.07 331.851 776.198C333.483 774.326 334.299 771.662 334.299 768.206C334.299 764.75 333.483 762.086 331.851 760.214C330.267 758.342 328.203 757.406 325.659 757.406C323.163 757.406 321.123 758.342 319.539 760.214C317.955 762.086 317.163 764.75 317.163 768.206C317.163 771.662 317.955 774.326 319.539 776.198C321.123 778.07 323.163 779.006 325.659 779.006ZM353.531 785.558C350.795 785.558 349.427 784.142 349.427 781.31V738.47C349.427 735.638 350.795 734.222 353.531 734.222C356.219 734.222 357.563 735.638 357.563 738.47V781.31C357.563 784.142 356.219 785.558 353.531 785.558ZM371.556 785.558C368.868 785.558 367.524 784.142 367.524 781.31V755.174C367.524 752.342 368.868 750.926 371.556 750.926C374.244 750.926 375.588 752.342 375.588 755.174V781.31C375.588 784.142 374.244 785.558 371.556 785.558ZM371.484 745.238C370.092 745.238 368.892 744.734 367.884 743.726C366.876 742.718 366.372 741.518 366.372 740.126C366.372 738.734 366.876 737.534 367.884 736.526C368.892 735.518 370.092 735.014 371.484 735.014C372.876 735.014 374.076 735.518 375.084 736.526C376.092 737.534 376.596 738.734 376.596 740.126C376.596 741.518 376.092 742.718 375.084 743.726C374.076 744.734 372.876 745.238 371.484 745.238ZM400.261 786.35C397.093 786.35 394.237 785.606 391.693 784.118C389.197 782.582 387.205 780.47 385.717 777.782C384.277 775.046 383.557 771.854 383.557 768.206C383.557 764.558 384.277 761.39 385.717 758.702C387.205 755.966 389.197 753.854 391.693 752.366C394.237 750.83 397.093 750.062 400.261 750.062C403.525 750.062 406.405 750.83 408.901 752.366C411.445 753.854 413.437 755.966 414.877 758.702C416.317 761.39 417.037 764.558 417.037 768.206C417.037 771.854 416.317 775.046 414.877 777.782C413.437 780.47 411.445 782.582 408.901 784.118C406.405 785.606 403.525 786.35 400.261 786.35ZM400.261 779.006C402.805 779.006 404.869 778.07 406.453 776.198C408.085 774.326 408.901 771.662 408.901 768.206C408.901 764.75 408.085 762.086 406.453 760.214C404.869 758.342 402.805 757.406 400.261 757.406C397.765 757.406 395.725 758.342 394.141 760.214C392.557 762.086 391.765 764.75 391.765 768.206C391.765 771.662 392.557 774.326 394.141 776.198C395.725 778.07 397.765 779.006 400.261 779.006Z" fill="white"/>
<path d="M576.014 561.499C572.621 563.01 567.549 572.885 559.862 575.243C552.875 577.377 545.365 577.218 542.819 584.204C540.198 591.373 543.839 599.579 550.921 602.431C558.512 605.49 567.062 601.604 569.795 593.975C570.792 591.204 568.86 588.062 570.209 585.676C573.208 580.376 581.792 581.561 584.416 580.4C590.366 577.759 593.304 571.385 590.99 566.163C588.672 560.949 581.973 558.862 576.019 561.511L576.014 561.499Z" fill="#EA572A"/>
<path d="M592.042 574.899C590.705 577.75 588.254 580.236 584.985 581.68C584.006 582.119 582.656 582.259 580.951 582.441C577.487 582.811 573.187 583.27 571.436 586.356C570.971 587.193 571.118 588.348 571.295 589.685C571.489 591.144 571.707 592.793 571.118 594.428C569.659 598.497 566.684 601.719 562.731 603.489C558.785 605.263 554.4 605.348 550.378 603.722C542.573 600.584 538.587 591.599 541.47 583.696C543.711 577.56 549.336 576.281 554.784 575.045C556.315 574.697 557.905 574.336 559.434 573.862C563.825 572.517 567.419 568.352 570.31 564.997C572.287 562.696 573.858 560.884 575.431 560.181C578.624 558.764 582.121 558.524 585.276 559.503C588.504 560.505 590.987 562.652 592.278 565.555C593.623 568.568 593.427 571.924 592.042 574.878L592.042 574.899ZM568.799 585.297C568.852 585.185 568.904 585.074 568.973 584.971C571.44 580.602 576.77 580.041 580.661 579.631C582.003 579.487 583.268 579.35 583.846 579.098C589.072 576.776 591.696 571.227 589.697 566.737C588.738 564.595 586.878 562.991 584.452 562.24C581.954 561.464 579.166 561.661 576.605 562.8C575.614 563.244 574.088 565.004 572.48 566.872C569.356 570.504 565.462 575.018 560.289 576.603C558.664 577.105 557.028 577.476 555.438 577.838C550.305 579.003 545.875 580.006 544.156 584.695C541.784 591.177 545.065 598.545 551.455 601.114C554.75 602.441 558.353 602.376 561.583 600.924C564.822 599.477 567.264 596.83 568.454 593.492C568.815 592.501 568.654 591.329 568.488 590.081C568.285 588.576 568.065 586.885 568.804 585.309L568.799 585.297Z" fill="#EA572A"/>
<path d="M547.062 424.233C544.433 424.233 541.87 423.41 539.695 421.831C536.971 419.854 535.183 416.941 534.654 413.621C534.124 410.302 534.919 406.972 536.895 404.249C538.872 401.525 541.785 399.737 545.104 399.208C548.424 398.678 551.753 399.472 554.477 401.449C557.201 403.426 558.988 406.339 559.518 409.658C560.048 412.978 559.253 416.307 557.277 419.031C555.3 421.755 552.387 423.542 549.067 424.072C548.396 424.176 547.724 424.233 547.062 424.233ZM547.1 401.884C546.589 401.884 546.079 401.922 545.558 402.007C542.986 402.414 540.726 403.804 539.193 405.913C537.661 408.022 537.046 410.595 537.453 413.167C537.86 415.74 539.25 418 541.359 419.532C543.468 421.064 546.041 421.679 548.613 421.273C551.186 420.866 553.446 419.476 554.978 417.367C556.511 415.257 557.125 412.685 556.719 410.112C555.953 405.317 551.801 401.894 547.091 401.894L547.1 401.884Z" fill="#E9562A"/>
<path d="M537.226 448.993C533.528 448.993 529.934 447.83 526.879 445.617C523.059 442.846 520.543 438.75 519.796 434.088C519.313 431.08 519.616 428.044 520.666 425.216C514.14 423.325 509.194 417.82 508.115 411.03C507.378 406.367 508.494 401.695 511.265 397.865C514.036 394.034 518.131 391.528 522.794 390.79C523.825 390.63 524.884 390.554 525.953 390.582C525.584 381.758 531.939 373.785 540.83 372.367C549.748 370.948 558.27 376.566 560.634 385.106C561.722 384.709 562.838 384.416 563.982 384.227C568.645 383.489 573.317 384.605 577.147 387.376C580.968 390.147 583.484 394.242 584.222 398.905C585.3 405.705 582.302 412.486 576.684 416.307C578.556 418.672 579.786 421.462 580.259 424.469C581.791 434.097 575.208 443.177 565.58 444.709C560.672 445.494 555.782 444.198 551.914 441.162C549.181 445.257 544.934 448 540.026 448.776C539.08 448.927 538.144 449.003 537.207 449.003L537.226 448.993ZM525.527 393.401C524.761 393.401 523.995 393.457 523.248 393.58C519.332 394.205 515.89 396.314 513.563 399.52C511.236 402.726 510.3 406.651 510.915 410.566C511.898 416.752 516.712 421.679 522.879 422.814L524.714 423.155L523.9 424.829C522.567 427.581 522.113 430.617 522.595 433.634C523.219 437.549 525.328 440.992 528.535 443.319C531.741 445.645 535.666 446.581 539.581 445.957C544.187 445.229 548.103 442.43 550.316 438.296L551.195 436.651L552.548 437.937C555.943 441.181 560.53 442.619 565.136 441.881C573.222 440.595 578.746 432.972 577.459 424.885C576.977 421.878 575.606 419.126 573.487 416.931L572.191 415.588L573.828 414.699C579.351 411.701 582.406 405.525 581.422 399.331C580.798 395.415 578.689 391.973 575.483 389.646C572.277 387.319 568.352 386.374 564.436 386.998C562.98 387.225 561.57 387.669 560.246 388.322L558.544 389.154L558.222 387.291C556.86 379.318 549.247 373.87 541.265 375.138C533.32 376.405 527.778 383.915 528.913 391.887L529.178 393.713L527.343 393.495C526.728 393.42 526.113 393.382 525.508 393.382L525.527 393.401Z" fill="#E9562A"/>
<path d="M450.164 189.15C451.24 189.15 452.112 188.278 452.112 187.202C452.112 186.126 451.24 185.254 450.164 185.254C449.088 185.254 448.215 186.126 448.215 187.202C448.215 188.278 449.088 189.15 450.164 189.15Z" fill="#E9562A"/>
<path d="M478.518 193.671C479.594 193.671 480.466 192.799 480.466 191.723C480.466 190.647 479.594 189.774 478.518 189.774C477.442 189.774 476.57 190.647 476.57 191.723C476.57 192.799 477.442 193.671 478.518 193.671Z" fill="#E9562A"/>
<path d="M463.854 193.179L458.298 194.509L458.959 197.268L464.514 195.939L463.854 193.179Z" fill="#E9562A"/>
<path d="M464.401 193.313L462.707 195.589L467.289 199L468.983 196.724L464.401 193.313Z" fill="#E9562A"/>
<path d="M650.403 349.506L648.521 347.794C597.685 301.499 535.255 279.131 491.834 268.519C444.735 257.009 409.202 256.461 408.852 256.451L389.284 256.111C387.762 256.082 386.494 255.127 386.05 253.68C385.605 252.233 386.116 250.72 387.355 249.85L387.516 249.755L421.781 231.682L443.836 151.707C444.309 150.411 445.548 149.655 446.91 149.806C448.282 149.967 449.322 150.998 449.492 152.378C449.653 153.684 449.918 154.998 450.287 156.294C452.973 165.761 461.314 172.921 471.046 174.112C481.507 175.389 491.399 170.216 496.242 160.909C496.875 159.68 498.209 159.065 499.542 159.377C500.848 159.68 501.756 160.786 501.793 162.139L502.891 201.067C512.244 203.318 521.513 205.852 530.441 208.614C570.371 220.975 605.961 238.293 636.216 260.102C642.628 264.727 647.991 270.855 651.784 277.873C659.964 273.901 666.121 266.978 668.391 259.118C670.756 250.947 668.978 242.151 663.265 233.687C659.104 227.53 657.827 221.458 659.463 215.66C662.556 204.68 675.087 197.936 680.336 195.553C681.651 194.957 683.126 194.9 684.469 195.421C686.399 196.158 687.723 197.889 687.912 199.951C688.101 201.984 687.146 203.914 685.406 204.992C680.034 208.302 673.3 213.778 671.72 221.108C670.708 225.78 671.938 230.736 675.381 235.824C682.209 245.934 683.807 256.83 679.882 266.495C675.901 276.313 666.67 283.973 655.567 286.782C658.3 295.238 658.886 304.241 657.26 312.923L650.403 349.506ZM388.934 252.205C388.679 252.422 388.717 252.697 388.755 252.839C388.802 252.999 388.944 253.264 389.332 253.274L408.89 253.614C409.24 253.614 445.028 254.163 492.43 265.739C535.662 276.294 597.6 298.425 648.549 343.992L654.47 312.394C656.096 303.683 655.377 294.632 652.379 286.224L651.831 284.692L653.42 284.361C664.296 282.082 673.432 274.828 677.244 265.427C679.759 259.232 681.065 249.339 673.016 237.413C669.129 231.653 667.758 225.969 668.94 220.512C670.737 212.199 678.067 206.174 683.911 202.58C684.734 202.079 685.169 201.199 685.075 200.225C684.98 199.232 684.375 198.438 683.448 198.088C682.814 197.842 682.114 197.87 681.49 198.154C677.679 199.885 665.024 206.335 662.178 216.455C660.778 221.42 661.932 226.688 665.601 232.126C671.806 241.31 673.707 250.928 671.096 259.932C668.486 268.964 661.232 276.861 651.698 281.051L650.469 281.59L649.864 280.389C646.251 273.258 640.945 267.053 634.533 262.429C604.533 240.799 569.218 223.614 529.58 211.347C520.378 208.501 510.816 205.89 501.16 203.592L500.1 203.337L498.937 162.233C498.918 162.167 498.88 162.148 498.833 162.148C498.814 162.148 498.786 162.148 498.739 162.233C493.348 172.59 482.329 178.359 470.687 176.94C459.829 175.607 450.533 167.624 447.534 157.079C447.128 155.641 446.835 154.185 446.655 152.738C446.655 152.672 446.626 152.662 446.617 152.653C446.57 152.634 446.522 152.634 446.513 152.653L424.174 233.639L388.934 252.205Z" fill="#E9562A"/>
<path d="M468.001 241.149L433.197 259.506C431.598 260.641 432.374 263.157 434.331 263.195L482.112 264.793" fill="#F6CE52"/>
<path d="M482.065 266.221L434.284 264.623C432.79 264.594 431.522 263.639 431.069 262.192C430.624 260.745 431.135 259.241 432.374 258.362L432.534 258.267L467.339 239.91L468.663 242.416L433.963 260.726C433.707 260.944 433.745 261.218 433.783 261.36C433.83 261.521 433.972 261.786 434.36 261.795L482.159 263.393L482.065 266.231V266.221Z" fill="#E9562A"/>
<path d="M363.491 298.915C324.979 280.435 311.7 321.198 310.669 324.612C309.686 324.546 308.683 324.716 307.728 325.151L296.729 330.182L291.536 332.556L280.537 337.588C279.582 338.023 278.797 338.676 278.201 339.461C274.947 338.013 235.433 321.368 224.207 362.585C212.489 405.58 276.811 519.961 296.284 418.726L358.762 390.173C448.052 441.708 403.667 318.218 363.491 298.934V298.915Z" fill="#F6CE52"/>
<path d="M270.871 460.794C265.31 460.794 259.295 457.815 253.223 451.998C234.052 433.612 215.893 387.648 222.835 362.197C226.269 349.609 232.634 341.031 241.76 336.699C256.231 329.833 273.283 335.895 277.813 337.739C278.428 337.134 279.156 336.642 279.941 336.283L307.132 323.855C307.917 323.496 308.768 323.278 309.62 323.203C311.19 318.568 317.772 301.705 332.432 295.255C341.681 291.188 352.331 291.983 364.096 297.629C387.882 309.044 410.76 352.853 412.103 379.382C412.652 390.126 409.739 397.767 403.686 401.475C394.711 406.97 379.569 403.688 358.677 391.743L297.523 419.69C292.889 443.306 285.455 456.897 275.42 460.084C273.945 460.557 272.413 460.794 270.862 460.794H270.871ZM257.035 336.321C252.419 336.321 247.548 337.087 242.98 339.252C234.629 343.215 228.775 351.179 225.578 362.925C219.052 386.863 236.729 432.231 255.19 449.936C260.052 454.599 267.362 459.668 274.579 457.38C283.516 454.533 290.534 441.065 294.894 418.433L295.036 417.714L358.847 388.556L359.481 388.924C379.446 400.444 394.228 403.953 402.22 399.054C408.68 395.1 409.626 386.257 409.285 379.533C407.989 353.988 385.253 310.927 362.885 300.192C351.905 294.924 342.05 294.139 333.595 297.856C318.661 304.429 312.674 322.928 312.041 325.019L311.71 326.097L310.584 326.021C309.79 325.964 309.043 326.106 308.324 326.437L281.133 338.865C280.424 339.186 279.818 339.669 279.345 340.302L278.664 341.201L277.634 340.747C276.262 340.132 267.306 336.33 257.044 336.33L257.035 336.321Z" fill="#E9562A"/>
<path d="M257.583 382.181C264.687 382.181 270.445 376.422 270.445 369.319C270.445 362.215 264.687 356.456 257.583 356.456C250.479 356.456 244.72 362.215 244.72 369.319C244.72 376.422 250.479 382.181 257.583 382.181Z" fill="#F6CE52"/>
<path d="M257.593 383.609C255.909 383.609 254.226 383.307 252.599 382.701C249.024 381.368 246.177 378.72 244.598 375.249C243.009 371.778 242.876 367.9 244.2 364.325C245.534 360.75 248.182 357.903 251.653 356.324C255.124 354.735 259.002 354.602 262.577 355.926C266.152 357.26 268.999 359.908 270.578 363.379C272.167 366.85 272.299 370.728 270.975 374.303C269.642 377.878 266.994 380.725 263.523 382.304C261.631 383.174 259.616 383.6 257.593 383.6V383.609ZM257.583 357.865C255.966 357.865 254.349 358.215 252.826 358.906C250.045 360.173 247.927 362.452 246.858 365.318C245.789 368.184 245.903 371.295 247.17 374.076C248.437 376.856 250.717 378.975 253.582 380.044C256.448 381.112 259.56 380.999 262.34 379.732C265.121 378.464 267.239 376.185 268.308 373.319C269.377 370.454 269.263 367.342 267.996 364.561C266.729 361.781 264.449 359.662 261.584 358.594C260.279 358.111 258.926 357.865 257.583 357.865Z" fill="#E9562A"/>
<path d="M344.187 379.391C351.291 379.391 357.05 373.632 357.05 366.529C357.05 359.425 351.291 353.666 344.187 353.666C337.084 353.666 331.325 359.425 331.325 366.529C331.325 373.632 337.084 379.391 344.187 379.391Z" fill="#F6CE52"/>
<path d="M344.188 380.819C342.504 380.819 340.821 380.517 339.194 379.911C335.619 378.578 332.772 375.93 331.193 372.459C329.604 368.988 329.471 365.11 330.795 361.535C332.129 357.96 334.777 355.113 338.248 353.534C341.719 351.945 345.597 351.812 349.172 353.136C352.747 354.47 355.594 357.118 357.173 360.589C358.762 364.06 358.894 367.938 357.57 371.513C356.246 375.088 353.589 377.935 350.118 379.514C348.226 380.384 346.211 380.81 344.188 380.81V380.819ZM344.178 355.075C342.561 355.075 340.943 355.425 339.421 356.116C336.64 357.383 334.522 359.662 333.453 362.528C332.384 365.394 332.498 368.505 333.765 371.286C335.032 374.066 337.312 376.185 340.177 377.254C343.043 378.322 346.155 378.209 348.935 376.942C351.716 375.674 353.834 373.395 354.903 370.529C355.972 367.663 355.858 364.552 354.591 361.771C353.324 358.991 351.044 356.872 348.179 355.803C346.874 355.321 345.521 355.075 344.178 355.075Z" fill="#E9562A"/>
<path d="M295.386 384.319L290.297 386.645L287.971 381.557C287.034 379.505 284.585 378.587 282.523 379.523C280.461 380.46 279.553 382.909 280.49 384.971L282.816 390.059L277.728 392.386C275.676 393.322 274.758 395.772 275.695 397.834C276.631 399.886 279.08 400.803 281.142 399.867L286.231 397.54L288.557 402.629C289.493 404.681 291.943 405.598 294.005 404.662C296.067 403.726 296.974 401.276 296.038 399.214L293.712 394.126L298.8 391.8C300.852 390.863 301.77 388.414 300.833 386.352C299.897 384.29 297.447 383.382 295.386 384.319Z" fill="#F6CE52"/>
<path d="M292.312 406.431C291.659 406.431 291.007 406.317 290.373 406.081C288.983 405.561 287.886 404.539 287.271 403.206L285.54 399.413L281.748 401.144C278.976 402.411 275.695 401.182 274.427 398.411C273.16 395.639 274.389 392.358 277.161 391.09L280.953 389.359L279.222 385.567C277.955 382.796 279.185 379.514 281.956 378.247C284.727 376.979 288.009 378.209 289.276 380.98L291.007 384.772L294.799 383.042C296.142 382.427 297.637 382.38 299.027 382.89C300.417 383.411 301.514 384.432 302.129 385.766C303.396 388.537 302.167 391.818 299.396 393.086L295.603 394.817L297.334 398.609C298.601 401.38 297.372 404.662 294.601 405.929C293.872 406.26 293.097 406.431 292.312 406.431ZM286.94 395.649L289.853 402.023C290.146 402.676 290.685 403.168 291.366 403.423C292.038 403.678 292.775 403.65 293.418 403.357C294.771 402.742 295.367 401.144 294.743 399.791L291.83 393.417L298.204 390.504C299.556 389.889 300.152 388.291 299.528 386.938C298.904 385.586 297.315 384.99 295.963 385.614L289.588 388.527L286.675 382.153C286.06 380.8 284.462 380.204 283.11 380.829C281.757 381.443 281.161 383.042 281.785 384.394L284.698 390.769L278.324 393.682C276.971 394.296 276.376 395.895 277 397.247C277.615 398.6 279.213 399.195 280.565 398.571L286.94 395.658V395.649Z" fill="#E9562A"/>
<path d="M345.19 322.654C347.52 322.654 349.408 320.766 349.408 318.436C349.408 316.106 347.52 314.218 345.19 314.218C342.86 314.218 340.972 316.106 340.972 318.436C340.972 320.766 342.86 322.654 345.19 322.654Z" fill="#F6CE52"/>
<path d="M345.19 324.082C344.528 324.082 343.857 323.959 343.213 323.723C341.804 323.193 340.679 322.153 340.055 320.782C339.43 319.41 339.374 317.878 339.903 316.469C340.433 315.06 341.473 313.934 342.845 313.31C345.672 312.014 349.03 313.263 350.316 316.1C351.612 318.928 350.354 322.285 347.526 323.572C346.779 323.912 345.985 324.082 345.181 324.082H345.19ZM345.181 315.637C344.793 315.637 344.396 315.722 344.017 315.892C343.336 316.204 342.816 316.762 342.551 317.462C342.287 318.162 342.315 318.928 342.627 319.609C342.939 320.29 343.497 320.81 344.197 321.075C344.897 321.34 345.663 321.311 346.344 320.999C347.753 320.356 348.368 318.691 347.725 317.282C347.252 316.251 346.23 315.646 345.171 315.646L345.181 315.637Z" fill="#E9562A"/>
<path d="M339.808 335.961C342.138 335.961 344.027 334.073 344.027 331.743C344.027 329.413 342.138 327.525 339.808 327.525C337.479 327.525 335.59 329.413 335.59 331.743C335.59 334.073 337.479 335.961 339.808 335.961Z" fill="#F6CE52"/>
<path d="M339.809 337.389C339.147 337.389 338.475 337.266 337.832 337.03C336.423 336.5 335.297 335.46 334.673 334.089C334.049 332.717 333.992 331.185 334.522 329.776C335.051 328.367 336.092 327.241 337.463 326.617C340.291 325.321 343.648 326.57 344.935 329.407C346.23 332.235 344.972 335.592 342.145 336.879C341.397 337.219 340.603 337.389 339.799 337.389H339.809ZM339.799 328.944C339.411 328.944 339.014 329.029 338.636 329.199C337.227 329.842 336.612 331.507 337.255 332.916C337.567 333.597 338.125 334.117 338.825 334.382C339.525 334.647 340.291 334.618 340.972 334.306C342.381 333.663 342.996 331.998 342.353 330.589C341.88 329.558 340.858 328.953 339.799 328.953V328.944Z" fill="#E9562A"/>
<path d="M359.159 328.149C361.489 328.149 363.377 326.261 363.377 323.931C363.377 321.601 361.489 319.713 359.159 319.713C356.829 319.713 354.941 321.601 354.941 323.931C354.941 326.261 356.829 328.149 359.159 328.149Z" fill="#F6CE52"/>
<path d="M359.159 329.568C357.022 329.568 354.969 328.348 354.024 326.276C353.399 324.905 353.343 323.373 353.872 321.964C354.402 320.555 355.442 319.429 356.814 318.805C358.185 318.181 359.717 318.124 361.126 318.654C362.536 319.183 363.661 320.224 364.285 321.595C365.581 324.423 364.333 327.78 361.495 329.066C360.739 329.416 359.944 329.577 359.159 329.577V329.568ZM359.15 321.122C358.752 321.122 358.355 321.207 357.986 321.377C357.305 321.689 356.785 322.247 356.52 322.947C356.256 323.647 356.284 324.413 356.596 325.094C357.239 326.503 358.904 327.118 360.313 326.475C360.994 326.163 361.514 325.605 361.769 324.905C362.034 324.205 362.006 323.439 361.694 322.758C361.382 322.077 360.824 321.557 360.124 321.292C359.802 321.169 359.471 321.113 359.14 321.113L359.15 321.122Z" fill="#E9562A"/>
<path d="M353.778 341.447C356.107 341.447 357.996 339.558 357.996 337.229C357.996 334.899 356.107 333.01 353.778 333.01C351.448 333.01 349.56 334.899 349.56 337.229C349.56 339.558 351.448 341.447 353.778 341.447Z" fill="#F6CE52"/>
<path d="M353.787 342.875C351.65 342.875 349.597 341.655 348.652 339.584C348.027 338.212 347.971 336.68 348.5 335.271C349.03 333.862 350.07 332.736 351.442 332.112C354.269 330.816 357.627 332.065 358.913 334.902C360.209 337.73 358.96 341.087 356.123 342.374C355.367 342.724 354.572 342.884 353.787 342.884V342.875ZM353.768 334.429C353.38 334.429 352.983 334.514 352.605 334.684C351.924 334.997 351.404 335.555 351.139 336.254C350.874 336.954 350.902 337.72 351.215 338.401C351.858 339.811 353.522 340.425 354.931 339.782C356.341 339.139 356.955 337.474 356.312 336.065C355.839 335.034 354.818 334.429 353.759 334.429H353.768Z" fill="#E9562A"/>
<path d="M324.044 383.688L314.539 388.032C314.24 388.169 314.108 388.522 314.245 388.821L314.697 389.811C314.834 390.11 315.187 390.242 315.486 390.105L324.992 385.761C325.291 385.624 325.423 385.271 325.286 384.972L324.834 383.982C324.697 383.683 324.344 383.551 324.044 383.688Z" fill="#F6CE52"/>
<path d="M315.237 391.573C315.001 391.573 314.765 391.535 314.528 391.45C314.027 391.26 313.62 390.892 313.403 390.4L312.949 389.407C312.722 388.915 312.703 388.376 312.892 387.865C313.081 387.364 313.45 386.957 313.942 386.74L323.447 382.399C323.939 382.172 324.478 382.153 324.988 382.342C325.49 382.531 325.896 382.9 326.114 383.392L326.568 384.385C327.031 385.397 326.587 386.588 325.575 387.052L316.07 391.393C315.805 391.516 315.521 391.573 315.237 391.573Z" fill="#E9562A"/>
</g>
</svg>
